<svg width="68" height="81" viewBox="0 0 68 81" fill="none" xmlns="http://www.w3.org/2000/svg">
    <path
        d="M5.76573 20.3678C19.9546 -1.05767 47.2509 27.0464 61.4461 5.64444C61.0131 4.00753 60.5796 2.37013 60.1466 0.733224C45.9514 22.1351 18.6548 -5.96888 4.46596 15.4561L5.44295 19.1482C5.55059 19.5547 5.65813 19.9613 5.76573 20.3678"
        fill="#EA0A32" />
    <path
        d="M5.76572 20.3678C5.84664 20.6733 5.92755 20.9789 6.00842 21.2849L7.06549 25.2791C21.2543 3.85358 48.5509 31.9576 62.7461 10.5557C62.3126 8.91878 61.8796 7.28187 61.4461 5.64447C47.2509 27.0464 19.9546 -1.05764 5.76572 20.3678Z"
        fill="#FF6A3C" />
    <path
        d="M8.87796 29.4675C8.93494 29.388 8.99153 29.3066 9.04885 29.2287C9.10402 29.1536 9.15998 29.0811 9.21549 29.007C9.27483 28.9281 9.33377 28.8481 9.39355 28.7711C9.44813 28.7 9.5034 28.6324 9.55837 28.5627C9.61967 28.4852 9.68067 28.4068 9.74241 28.3308C9.79885 28.2616 9.85598 28.1949 9.91272 28.1268C9.97372 28.0537 10.0344 27.9797 10.0957 27.9081C10.1546 27.8394 10.2142 27.7732 10.2735 27.706C10.3335 27.6379 10.3931 27.5682 10.4534 27.5015C10.513 27.4358 10.5732 27.3726 10.633 27.3083C10.694 27.2426 10.7546 27.1754 10.8159 27.1112C10.8751 27.0494 10.9349 26.9901 10.9944 26.9292C11.057 26.8655 11.1193 26.8003 11.1823 26.7375C11.2421 26.6782 11.3025 26.6213 11.3625 26.5634C11.4261 26.5021 11.4893 26.4394 11.5532 26.3795C11.6126 26.3236 11.6726 26.2702 11.7323 26.2157C11.7976 26.1559 11.8625 26.0951 11.9281 26.0372C11.9895 25.9828 12.0515 25.9303 12.1133 25.8769C12.1777 25.8215 12.2419 25.7646 12.3066 25.7101C12.3697 25.6572 12.4333 25.6067 12.4967 25.5552C12.561 25.5027 12.625 25.4493 12.6896 25.3978C12.7532 25.3478 12.8175 25.2997 12.8814 25.2507C12.9463 25.2006 13.0109 25.1496 13.0762 25.1006C13.1418 25.052 13.2079 25.0055 13.2738 24.9574C13.3381 24.9108 13.4022 24.8632 13.4667 24.8181C13.5317 24.772 13.5973 24.7289 13.6626 24.6843C13.7289 24.6391 13.7948 24.593 13.8613 24.5489C13.9262 24.5063 13.9916 24.4655 14.0568 24.4239C14.1243 24.3807 14.1914 24.3361 14.2592 24.2944C14.3253 24.2532 14.3921 24.2145 14.4585 24.1743C14.5259 24.134 14.593 24.0924 14.6608 24.0531C14.7267 24.0144 14.7932 23.9786 14.8595 23.9413C14.9283 23.9021 14.9969 23.8624 15.0661 23.8251C15.1319 23.7893 15.1983 23.7555 15.2644 23.7206C15.3344 23.6839 15.4042 23.6461 15.4746 23.6103C15.5431 23.575 15.6122 23.5426 15.6812 23.5088C15.7495 23.475 15.8176 23.4406 15.8863 23.4083C15.9556 23.3754 16.0255 23.3445 16.0951 23.3126C16.164 23.2813 16.2326 23.2489 16.3017 23.2185C16.371 23.1876 16.4408 23.1592 16.5104 23.1297C16.5803 23.0998 16.6499 23.0694 16.7201 23.041C16.7877 23.0135 16.8558 22.9875 16.9236 22.961C16.9965 22.9321 17.0691 22.9027 17.1423 22.8752C17.2106 22.8492 17.2793 22.8252 17.3478 22.8002C17.4206 22.7742 17.4932 22.7467 17.5662 22.7212C17.6364 22.6967 17.707 22.6742 17.7773 22.6506C17.8497 22.6266 17.9219 22.6016 17.9945 22.5785C18.063 22.5565 18.1319 22.5364 18.2006 22.5153C18.2753 22.4927 18.3499 22.4687 18.4249 22.4471C18.4934 22.427 18.5624 22.4084 18.6312 22.3893C18.707 22.3682 18.7826 22.3461 18.8587 22.326C18.9262 22.3083 18.994 22.2917 19.0617 22.2745C19.1394 22.2549 19.2169 22.2343 19.2948 22.2157C19.3654 22.199 19.4363 22.1833 19.507 22.1671C19.5825 22.1499 19.6577 22.1318 19.7334 22.1156C19.8059 22.0999 19.8787 22.0857 19.9515 22.071C20.026 22.0558 20.1004 22.0401 20.1751 22.0254C20.2453 22.0117 20.3159 21.9999 20.3863 21.9871C20.4641 21.9729 20.5417 21.9582 20.6197 21.945C20.6868 21.9332 20.7542 21.9234 20.8215 21.9126C20.9031 21.8994 20.9846 21.8856 21.0664 21.8734C21.1334 21.8636 21.2007 21.8547 21.2678 21.8454C21.3503 21.8341 21.4326 21.8219 21.5153 21.8116C21.5862 21.8023 21.6574 21.7944 21.7285 21.7861C21.8077 21.7768 21.8867 21.7665 21.9661 21.7581C22.0406 21.7498 22.1155 21.7434 22.1903 21.7356C22.2667 21.7282 22.343 21.7199 22.4196 21.713C22.4972 21.7061 22.5751 21.7003 22.6529 21.6944C22.7269 21.6885 22.8008 21.6816 22.875 21.6762C22.9546 21.6708 23.0344 21.6664 23.1142 21.6615C23.1871 21.6566 23.2598 21.6517 23.3328 21.6478C23.409 21.6434 23.4855 21.6404 23.5618 21.637C23.639 21.6336 23.7161 21.6296 23.7934 21.6267C23.8647 21.6238 23.9364 21.6223 24.0079 21.6203C24.0903 21.6179 24.1728 21.6144 24.2554 21.613C24.3261 21.6115 24.3971 21.611 24.4679 21.6095C24.5515 21.6086 24.6352 21.6066 24.719 21.6061C24.7941 21.6056 24.8694 21.6061 24.9446 21.6061C25.0244 21.6061 25.104 21.6056 25.1839 21.6066C25.2628 21.6071 25.3419 21.6086 25.421 21.6095C25.4977 21.611 25.5742 21.6115 25.6511 21.613C25.7271 21.6144 25.8034 21.6174 25.8795 21.6193C25.9599 21.6213 26.0401 21.6233 26.1206 21.6262C26.198 21.6287 26.2755 21.6321 26.353 21.6355C26.432 21.6385 26.5109 21.6409 26.5901 21.6448C26.6687 21.6483 26.7477 21.6527 26.8265 21.6571C26.9053 21.661 26.984 21.665 27.063 21.6694C27.1421 21.6738 27.2215 21.6792 27.3008 21.6846C27.3789 21.6895 27.457 21.6939 27.5352 21.6993C27.6139 21.7047 27.6927 21.7106 27.7714 21.7164C27.8514 21.7223 27.9312 21.7282 28.0113 21.7341C28.0853 21.74 28.1595 21.7468 28.2336 21.7527C28.3179 21.7601 28.4022 21.7665 28.4866 21.7738C28.565 21.7812 28.6435 21.7885 28.722 21.7959C28.8027 21.8032 28.8832 21.8106 28.9639 21.8184C29.0461 21.8263 29.1284 21.8351 29.2107 21.8435C29.2876 21.8513 29.3644 21.8587 29.4414 21.867C29.5269 21.8758 29.6125 21.8856 29.6981 21.8949C29.7724 21.9033 29.8467 21.9111 29.9212 21.9195C29.9963 21.9283 30.0716 21.9371 30.1468 21.9459C30.2323 21.9558 30.3177 21.9656 30.4032 21.9759C30.4753 21.9847 30.5475 21.994 30.6198 22.0028C30.7075 22.0136 30.7951 22.0244 30.8829 22.0357C30.9652 22.046 31.0476 22.0568 31.1301 22.0676C31.2083 22.0779 31.2867 22.0877 31.365 22.0985C31.4572 22.1107 31.5495 22.1235 31.6418 22.1357C31.71 22.145 31.778 22.1544 31.8459 22.1637C31.9288 22.175 32.0112 22.1867 32.094 22.1985C32.1735 22.2098 32.2534 22.221 32.3333 22.2323C32.3991 22.2416 32.4648 22.2515 32.53 22.2608C32.6256 22.275 32.7207 22.2887 32.8164 22.3025C32.884 22.3128 32.9517 22.3226 33.0194 22.3329C33.1135 22.3471 33.2077 22.3608 33.3023 22.375C33.3651 22.3848 33.4279 22.3942 33.4907 22.404C33.5892 22.4192 33.6878 22.4339 33.7868 22.4491C33.8741 22.4628 33.9614 22.4765 34.0492 22.4898C34.1223 22.5015 34.1953 22.5128 34.2684 22.5241C34.3483 22.5369 34.4288 22.5496 34.5087 22.5619C34.593 22.5751 34.6774 22.5888 34.7617 22.6021C34.7902 22.6065 34.8186 22.6114 34.8476 22.6158C34.9804 22.6369 35.1138 22.658 35.2472 22.6796C35.2776 22.6845 35.308 22.6894 35.3384 22.6943C35.9019 22.7845 36.4653 22.8757 37.0283 22.9659C37.0803 22.9743 37.1318 22.9826 37.1833 22.991C37.3353 23.0155 37.4868 23.0395 37.6383 23.0635C37.6477 23.065 37.6565 23.0665 37.6653 23.0679C37.7546 23.0822 37.8438 23.0959 37.9326 23.1101C38.0086 23.1219 38.0841 23.1341 38.1601 23.1459C38.2273 23.1562 38.2945 23.167 38.3617 23.1773C38.4553 23.192 38.549 23.2067 38.6427 23.2209C38.7324 23.2347 38.8221 23.2484 38.9119 23.2621C38.9835 23.2729 39.0551 23.2842 39.1267 23.295C39.2184 23.3087 39.3096 23.3225 39.4008 23.3357C39.4714 23.3465 39.5415 23.3573 39.6121 23.3676C39.7043 23.3813 39.796 23.3941 39.8882 23.4078C39.9574 23.4176 40.0265 23.4279 40.0957 23.4377C40.1731 23.449 40.2506 23.4598 40.3281 23.4706C40.4129 23.4828 40.4978 23.4946 40.5821 23.5063C40.6488 23.5157 40.715 23.5245 40.7812 23.5333C40.8754 23.5461 40.9695 23.5593 41.0637 23.5721C41.1402 23.5819 41.2167 23.5917 41.2927 23.602C41.3771 23.6128 41.4614 23.624 41.5457 23.6343C41.6335 23.6456 41.7208 23.6564 41.8086 23.6672C41.8807 23.676 41.9533 23.6853 42.0253 23.6942C42.1107 23.7045 42.196 23.7143 42.2818 23.7241C42.3568 23.7329 42.4324 23.7417 42.5074 23.7506C42.5805 23.7589 42.654 23.7667 42.7271 23.7746C42.8139 23.7844 42.9007 23.7942 42.9875 23.803C43.062 23.8109 43.1366 23.8182 43.2116 23.8261C43.2959 23.8344 43.3803 23.8432 43.4646 23.8516C43.5436 23.8594 43.6225 23.8663 43.7015 23.8737C43.7814 23.881 43.8618 23.8889 43.9423 23.8962C44.0256 23.9036 44.109 23.9099 44.1928 23.9168C44.2674 23.9232 44.3424 23.93 44.417 23.9359C44.4979 23.9423 44.5783 23.9477 44.6587 23.9536C44.7367 23.9595 44.8152 23.9654 44.8931 23.9707C44.9716 23.9761 45.0496 23.9806 45.1275 23.986C45.207 23.9909 45.2864 23.9962 45.3654 24.0007C45.4438 24.0051 45.5218 24.009 45.5998 24.0129C45.6792 24.0173 45.7591 24.0217 45.8386 24.0252C45.917 24.0291 45.996 24.0316 46.0745 24.035C46.1524 24.0379 46.2304 24.0414 46.3079 24.0443C46.3883 24.0468 46.4687 24.0487 46.5492 24.0507C46.6252 24.0531 46.7012 24.0556 46.7772 24.0571C46.8542 24.0585 46.9307 24.0595 47.0072 24.0605C47.0861 24.0615 47.1656 24.0629 47.2445 24.0639C47.3245 24.0644 47.4039 24.0639 47.4838 24.0639C47.5589 24.0639 47.6344 24.0644 47.7094 24.0639C47.7933 24.0634 47.8771 24.0615 47.961 24.0605C48.0316 24.0595 48.1022 24.059 48.1728 24.0571C48.2557 24.0556 48.3386 24.0526 48.421 24.0497C48.4926 24.0477 48.5637 24.0463 48.6353 24.0433C48.7127 24.0404 48.7902 24.0365 48.8677 24.033C48.9437 24.0296 49.0197 24.0267 49.0957 24.0222C49.1688 24.0183 49.2419 24.0134 49.3149 24.0085C49.3949 24.0036 49.4743 23.9992 49.5538 23.9938C49.6283 23.9884 49.7023 23.9815 49.7769 23.9757C49.8539 23.9698 49.9318 23.9639 50.0088 23.957C50.0863 23.9502 50.1633 23.9418 50.2408 23.934C50.3143 23.9266 50.3884 23.9202 50.4624 23.9119C50.5424 23.9036 50.6218 23.8933 50.7013 23.8839C50.7719 23.8756 50.843 23.8678 50.9131 23.8589C50.996 23.8482 51.0784 23.8359 51.1603 23.8246C51.2274 23.8153 51.2951 23.8065 51.3618 23.7967C51.4442 23.7844 51.5256 23.7707 51.607 23.7574C51.6742 23.7466 51.7419 23.7368 51.8086 23.7256C51.8865 23.7123 51.9645 23.6971 52.042 23.6829C52.1126 23.6701 52.1832 23.6584 52.2533 23.6446C52.3279 23.6304 52.4024 23.6142 52.477 23.599C52.5495 23.5843 52.6226 23.5701 52.6952 23.5544C52.7717 23.5377 52.8477 23.5196 52.9237 23.5024C52.9938 23.4862 53.0639 23.471 53.1336 23.4544C53.212 23.4352 53.2905 23.4147 53.369 23.395C53.4361 23.3779 53.5028 23.3617 53.5695 23.344C53.6465 23.3234 53.723 23.3014 53.8 23.2798C53.8677 23.2612 53.9358 23.243 54.0035 23.2234C54.0795 23.2008 54.1551 23.1768 54.2306 23.1538C54.2982 23.1332 54.3664 23.1131 54.4341 23.0915C54.5067 23.0684 54.5787 23.0434 54.6513 23.0194C54.7214 22.9959 54.7921 22.9733 54.8622 22.9488C54.9353 22.9233 55.0078 22.8958 55.0804 22.8698C55.1491 22.8448 55.2177 22.8208 55.2864 22.7953C55.3604 22.7668 55.434 22.7369 55.508 22.708C55.5747 22.682 55.6414 22.6565 55.7081 22.6291C55.7807 22.5996 55.8523 22.5682 55.9244 22.5378C55.992 22.5089 56.0592 22.4814 56.1264 22.452C56.198 22.4206 56.2686 22.3868 56.3397 22.3544C56.4074 22.3235 56.4751 22.2936 56.5418 22.2622C56.6119 22.2289 56.681 22.1941 56.7507 22.1598C56.8183 22.1264 56.8865 22.094 56.9537 22.0602C57.0243 22.0244 57.0939 21.9862 57.1641 21.9494C57.2303 21.9146 57.2965 21.8807 57.3622 21.8449C57.4313 21.8077 57.5 21.7679 57.5691 21.7292C57.6353 21.6919 57.7015 21.6556 57.7677 21.6169C57.8354 21.5777 57.9026 21.536 57.9698 21.4958C58.0365 21.4556 58.1032 21.4168 58.1694 21.3756C58.237 21.3339 58.3042 21.2898 58.3714 21.2462C58.4366 21.2045 58.5023 21.1638 58.5671 21.1211C58.6338 21.077 58.6995 21.0309 58.7657 20.9858C58.8309 20.9411 58.8966 20.898 58.9618 20.8524C59.0275 20.8058 59.0928 20.7572 59.1585 20.7097C59.2232 20.6631 59.2879 20.6175 59.3522 20.5694C59.4203 20.5184 59.4875 20.4655 59.5557 20.413C59.6165 20.3659 59.6778 20.3203 59.7386 20.2723C59.8048 20.2198 59.87 20.1654 59.9357 20.1114C59.998 20.0609 60.0603 20.0114 60.1216 19.9599C60.1868 19.9054 60.2506 19.8486 60.3153 19.7932C60.3771 19.7397 60.4389 19.6877 60.5002 19.6328C60.5659 19.5749 60.6311 19.5141 60.6963 19.4543C60.7557 19.3999 60.816 19.3464 60.8753 19.2905C60.9391 19.2307 61.0023 19.1679 61.0661 19.1066C61.1259 19.0487 61.1862 18.9919 61.246 18.9325C61.3093 18.8698 61.3716 18.805 61.4339 18.7408C61.4937 18.68 61.5535 18.6206 61.6124 18.5588C61.6737 18.4946 61.7345 18.4274 61.7953 18.3622C61.8551 18.2975 61.9154 18.2342 61.9748 18.1685C62.0356 18.1018 62.0949 18.0322 62.1547 17.964C62.2141 17.8968 62.2739 17.8311 62.3327 17.762C62.394 17.6909 62.4548 17.6163 62.5157 17.5433C62.5725 17.4751 62.6294 17.4084 62.6858 17.3393C62.7476 17.2632 62.8089 17.1848 62.8702 17.1073C62.9251 17.0377 62.9805 16.97 63.035 16.8994C63.0948 16.8219 63.1536 16.742 63.213 16.663C63.2684 16.589 63.3243 16.5164 63.3797 16.4414C63.4371 16.3634 63.4935 16.2825 63.5504 16.2025C63.6068 16.1241 63.6636 16.0466 63.7196 15.9662C63.7764 15.8848 63.8323 15.8004 63.8887 15.7171C63.9456 15.6332 64.003 15.5513 64.0594 15.466C63.6264 13.8286 63.1929 12.1917 62.7599 10.5548C48.571 31.9797 21.2744 3.87619 7.07932 25.2776C7.51252 26.9145 7.94583 28.5519 8.37909 30.1888C8.4322 30.1089 8.48614 30.0314 8.53959 29.953C8.59613 29.8696 8.65223 29.7853 8.70912 29.7039C8.76502 29.6234 8.82166 29.5459 8.87796 29.4675"
        fill="#F1D216" />
    <path
        d="M65.3491 20.3924C64.9156 18.7555 64.4826 17.1181 64.0496 15.4811C63.9961 15.5611 63.9422 15.6386 63.8887 15.717C63.8324 15.8004 63.7764 15.8847 63.7196 15.9661C63.6637 16.0466 63.6068 16.124 63.5504 16.2025C63.4935 16.2824 63.4371 16.3634 63.3797 16.4413C63.3243 16.5164 63.2684 16.5889 63.213 16.663C63.1537 16.7419 63.0948 16.8219 63.035 16.8993C62.9806 16.97 62.9251 17.0376 62.8702 17.1073C62.8089 17.1848 62.7476 17.2632 62.6858 17.3392C62.6294 17.4084 62.5725 17.4751 62.5157 17.5432C62.4549 17.6163 62.394 17.6908 62.3327 17.7619C62.2739 17.8311 62.2141 17.8968 62.1547 17.964C62.0949 18.0321 62.0356 18.1018 61.9748 18.1685C61.9154 18.2342 61.8551 18.2974 61.7953 18.3622C61.7345 18.4274 61.6737 18.4946 61.6124 18.5588C61.5535 18.6206 61.4937 18.6799 61.4339 18.7407C61.3716 18.805 61.3093 18.8697 61.2461 18.9325C61.1862 18.9918 61.1259 19.0487 61.0661 19.1066C61.0023 19.1679 60.9391 19.2306 60.8753 19.2905C60.816 19.3464 60.7557 19.3998 60.6963 19.4543C60.6311 19.5141 60.5659 19.5749 60.5002 19.6328C60.4389 19.6877 60.3771 19.7397 60.3153 19.7931C60.2506 19.8485 60.1868 19.9054 60.1216 19.9598C60.0603 20.0113 59.998 20.0609 59.9357 20.1114C59.87 20.1653 59.8048 20.2198 59.7386 20.2722C59.6778 20.3203 59.6165 20.3659 59.5557 20.413C59.4875 20.4654 59.4203 20.5184 59.3522 20.5694C59.2879 20.6175 59.2232 20.6631 59.1585 20.7096C59.0928 20.7572 59.0275 20.8058 58.9618 20.8524C58.8966 20.898 58.8309 20.9411 58.7657 20.9857C58.6995 21.0308 58.6338 21.0769 58.5671 21.1211C58.5023 21.1637 58.4366 21.2044 58.3714 21.2461C58.3042 21.2898 58.237 21.3339 58.1694 21.3756C58.1032 21.4168 58.0365 21.4555 57.9698 21.4957C57.9026 21.5359 57.8354 21.5776 57.7677 21.6169C57.7015 21.6556 57.6353 21.6919 57.5691 21.7292C57.5 21.7679 57.4313 21.8076 57.3622 21.8449C57.2965 21.8807 57.2303 21.9145 57.1641 21.9493C57.0939 21.9861 57.0243 22.0244 56.9537 22.0602C56.8865 22.094 56.8184 22.1264 56.7507 22.1597C56.681 22.194 56.6119 22.2289 56.5418 22.2622C56.4751 22.2936 56.4074 22.3235 56.3397 22.3544C56.2686 22.3868 56.198 22.4206 56.1264 22.452C56.0592 22.4814 55.9921 22.5089 55.9244 22.5378C55.8523 22.5682 55.7807 22.5996 55.7081 22.629C55.6414 22.6565 55.5747 22.682 55.508 22.708C55.434 22.7369 55.3604 22.7668 55.2864 22.7953C55.2177 22.8208 55.1491 22.8448 55.0804 22.8698C55.0078 22.8958 54.9353 22.9233 54.8622 22.9488C54.7921 22.9733 54.7215 22.9958 54.6513 23.0194C54.5788 23.0434 54.5067 23.0684 54.4341 23.0915C54.3664 23.113 54.2983 23.1331 54.2306 23.1537C54.1551 23.1768 54.0795 23.2008 54.0035 23.2234C53.9359 23.243 53.8677 23.2611 53.8 23.2798C53.723 23.3013 53.6465 23.3234 53.5695 23.344C53.5028 23.3617 53.4362 23.3778 53.369 23.395C53.2905 23.4146 53.212 23.4352 53.1336 23.4543C53.0639 23.471 52.9938 23.4862 52.9237 23.5024C52.8477 23.5196 52.7717 23.5377 52.6952 23.5544C52.6226 23.5701 52.5495 23.5843 52.477 23.599C52.4024 23.6142 52.3279 23.6304 52.2533 23.6446C52.1832 23.6583 52.1126 23.6701 52.042 23.6829C51.9645 23.6971 51.8865 23.7123 51.8086 23.7255C51.7419 23.7368 51.6742 23.7466 51.607 23.7574C51.5256 23.7706 51.4442 23.7844 51.3618 23.7966C51.2951 23.8064 51.2275 23.8153 51.1603 23.8246C51.0784 23.8359 50.996 23.8481 50.9131 23.8589C50.843 23.8677 50.7719 23.8756 50.7013 23.8839C50.6218 23.8932 50.5424 23.9035 50.4624 23.9119C50.3884 23.9202 50.3144 23.9266 50.2408 23.9339C50.1633 23.9418 50.0863 23.9501 50.0088 23.957C49.9319 23.9639 49.8539 23.9697 49.7769 23.9756C49.7023 23.9815 49.6283 23.9884 49.5538 23.9938C49.4743 23.9992 49.3949 24.0036 49.3149 24.0085C49.2419 24.0134 49.1688 24.0183 49.0957 24.0222C49.0197 24.0266 48.9437 24.0296 48.8677 24.033C48.7902 24.0364 48.7128 24.0403 48.6353 24.0433C48.5637 24.0462 48.4926 24.0477 48.421 24.0497C48.3386 24.0526 48.2557 24.0556 48.1728 24.057C48.1022 24.059 48.0316 24.0595 47.961 24.0605C47.8771 24.0614 47.7933 24.0634 47.7094 24.0639C47.6344 24.0644 47.5589 24.0639 47.4838 24.0639C47.4039 24.0639 47.3245 24.0644 47.2445 24.0639C47.1656 24.0629 47.0861 24.0614 47.0072 24.0605C46.9307 24.0595 46.8542 24.0585 46.7772 24.057C46.7012 24.0556 46.6252 24.0531 46.5492 24.0506C46.4687 24.0487 46.3883 24.0467 46.3079 24.0443C46.2304 24.0413 46.1524 24.0379 46.0745 24.035C45.996 24.0315 45.9171 24.0291 45.8386 24.0252C45.7592 24.0217 45.6792 24.0173 45.5998 24.0129C45.5218 24.009 45.4438 24.005 45.3654 24.0006C45.2864 23.9962 45.207 23.9908 45.1275 23.9859C45.0496 23.9805 44.9716 23.9761 44.8931 23.9707C44.8152 23.9653 44.7367 23.9594 44.6587 23.9536C44.5783 23.9477 44.4979 23.9423 44.417 23.9359C44.3424 23.93 44.2674 23.9231 44.1929 23.9168C44.109 23.9099 44.0256 23.9035 43.9423 23.8962C43.8618 23.8888 43.7814 23.881 43.7015 23.8736C43.6225 23.8663 43.5436 23.8594 43.4646 23.8516C43.3803 23.8432 43.2959 23.8344 43.2116 23.8261C43.1366 23.8182 43.062 23.8108 42.9875 23.803C42.9007 23.7942 42.8139 23.7844 42.7271 23.7746C42.654 23.7667 42.5805 23.7589 42.5074 23.7505C42.4324 23.7417 42.3569 23.7329 42.2818 23.7241C42.196 23.7142 42.1107 23.7044 42.0253 23.6941C41.9533 23.6853 41.8807 23.676 41.8086 23.6672C41.7208 23.6564 41.6335 23.6456 41.5457 23.6343C41.4614 23.624 41.3771 23.6127 41.2927 23.6019C41.2167 23.5916 41.1402 23.5818 41.0637 23.572C40.9695 23.5593 40.8754 23.546 40.7812 23.5333C40.715 23.5245 40.6488 23.5156 40.5821 23.5063C40.4978 23.4945 40.413 23.4828 40.3281 23.4705C40.2506 23.4597 40.1732 23.4489 40.0957 23.4377C40.0265 23.4279 39.9574 23.4176 39.8882 23.4078C39.7961 23.394 39.7043 23.3813 39.6122 23.3675C39.5415 23.3572 39.4714 23.3465 39.4008 23.3357C39.3096 23.3224 39.2184 23.3087 39.1267 23.295C39.0551 23.2842 38.9835 23.2729 38.9119 23.2621C38.8221 23.2484 38.7324 23.2346 38.6427 23.2209C38.549 23.2067 38.4553 23.192 38.3617 23.1773C38.2945 23.167 38.2273 23.1562 38.1601 23.1459C38.0841 23.1341 38.0086 23.1219 37.9326 23.1101C37.8438 23.0959 37.7546 23.0821 37.6653 23.0679C37.6565 23.0664 37.6477 23.065 37.6384 23.0635C37.4868 23.0395 37.3353 23.0154 37.1833 22.9909C37.1318 22.9826 37.0803 22.9743 37.0283 22.9659C36.4653 22.8757 35.9019 22.7845 35.3384 22.6942C35.308 22.6893 35.2776 22.6844 35.2472 22.6795C35.1138 22.658 34.9805 22.6369 34.8476 22.6158C34.8186 22.6114 34.7902 22.6065 34.7617 22.602C34.6774 22.5888 34.593 22.5751 34.5087 22.5618C34.4288 22.5496 34.3483 22.5368 34.2684 22.5241C34.1953 22.5128 34.1223 22.5015 34.0492 22.4897C33.9614 22.4765 33.8741 22.4628 33.7869 22.449C33.6878 22.4338 33.5892 22.4191 33.4907 22.4039C33.4279 22.3941 33.3651 22.3848 33.3024 22.375C33.2077 22.3608 33.1136 22.347 33.0194 22.3328C32.9517 22.3225 32.8841 22.3127 32.8164 22.3024C32.7208 22.2887 32.6256 22.275 32.53 22.2607C32.4648 22.2514 32.3991 22.2416 32.3334 22.2323C32.2534 22.221 32.1735 22.2097 32.094 22.1985C32.0112 22.1867 31.9288 22.1749 31.8459 22.1636C31.778 22.1543 31.71 22.145 31.6418 22.1357C31.5495 22.1234 31.4572 22.1107 31.365 22.0984C31.2867 22.0876 31.2084 22.0778 31.1301 22.0675C31.0477 22.0567 30.9652 22.046 30.8829 22.0357C30.7951 22.0244 30.7075 22.0136 30.6198 22.0028C30.5476 21.994 30.4753 21.9847 30.4032 21.9758C30.3177 21.9655 30.2323 21.9557 30.1468 21.9459C30.0716 21.9371 29.9963 21.9283 29.9212 21.9194C29.8467 21.9111 29.7725 21.9032 29.6981 21.8949C29.6125 21.8856 29.5269 21.8758 29.4414 21.867C29.3644 21.8586 29.2876 21.8513 29.2107 21.8434C29.1284 21.8351 29.0461 21.8263 28.964 21.8184C28.8832 21.8106 28.8027 21.8032 28.722 21.7959C28.6435 21.7885 28.565 21.7811 28.4866 21.7738C28.4022 21.7664 28.3179 21.7601 28.2336 21.7527C28.1595 21.7468 28.0853 21.74 28.0113 21.7341C27.9312 21.7282 27.8514 21.7223 27.7714 21.7164C27.6927 21.7105 27.6139 21.7046 27.5353 21.6992C27.457 21.6939 27.3789 21.6894 27.3008 21.6845C27.2215 21.6791 27.1421 21.6737 27.063 21.6693C26.984 21.6649 26.9054 21.661 26.8266 21.6571C26.7477 21.6527 26.6687 21.6482 26.5901 21.6448C26.5109 21.6409 26.432 21.6384 26.353 21.6355C26.2756 21.6321 26.198 21.6286 26.1206 21.6262C26.0401 21.6232 25.9599 21.6213 25.8795 21.6193C25.8034 21.6174 25.7271 21.6144 25.6511 21.6129C25.5743 21.6115 25.4978 21.611 25.4211 21.6095C25.342 21.6085 25.2628 21.6071 25.1839 21.6066C25.104 21.6056 25.0244 21.6061 24.9446 21.6061C24.8694 21.6061 24.7941 21.6056 24.719 21.6061C24.6352 21.6066 24.5515 21.6085 24.4679 21.6095C24.3971 21.611 24.3261 21.6115 24.2555 21.6129C24.1728 21.6144 24.0903 21.6178 24.0079 21.6203C23.9364 21.6223 23.8647 21.6237 23.7934 21.6267C23.7161 21.6296 23.639 21.6335 23.5619 21.637C23.4855 21.6404 23.409 21.6433 23.3328 21.6478C23.2598 21.6517 23.1871 21.6566 23.1142 21.6615C23.0344 21.6664 22.9546 21.6708 22.875 21.6762C22.8008 21.6816 22.7269 21.6885 22.6529 21.6943C22.5751 21.7002 22.4972 21.7061 22.4196 21.713C22.343 21.7198 22.2667 21.7282 22.1903 21.7355C22.1156 21.7434 22.0406 21.7498 21.9661 21.7581C21.8867 21.7664 21.8077 21.7767 21.7285 21.786C21.6574 21.7944 21.5862 21.8022 21.5153 21.8115C21.4326 21.8218 21.3503 21.8341 21.2678 21.8454C21.2007 21.8547 21.1334 21.8635 21.0664 21.8733C20.9846 21.8856 20.9031 21.8993 20.8215 21.9126C20.7542 21.9234 20.6868 21.9332 20.6197 21.9449C20.5417 21.9582 20.4641 21.9729 20.3864 21.9871C20.3159 21.9999 20.2453 22.0116 20.1751 22.0254C20.1004 22.0401 20.026 22.0558 19.9515 22.071C19.8788 22.0857 19.8059 22.0999 19.7334 22.1156C19.6577 22.1318 19.5825 22.1499 19.507 22.1671C19.4363 22.1833 19.3654 22.199 19.2949 22.2156C19.2169 22.2343 19.1394 22.2549 19.0617 22.2745C18.9941 22.2916 18.9262 22.3083 18.8588 22.326C18.7826 22.3461 18.707 22.3681 18.6312 22.3892C18.5624 22.4083 18.4934 22.427 18.4249 22.4471C18.3499 22.4687 18.2753 22.4927 18.2006 22.5152C18.1319 22.5363 18.063 22.5564 17.9945 22.5785C17.9219 22.6016 17.8497 22.6266 17.7774 22.6506C17.707 22.6741 17.6364 22.6967 17.5662 22.7212C17.4932 22.7467 17.4206 22.7742 17.3478 22.8002C17.2793 22.8252 17.2106 22.8492 17.1423 22.8752C17.0691 22.9027 16.9965 22.9321 16.9236 22.961C16.8558 22.9875 16.7877 23.0135 16.7201 23.0409C16.6499 23.0694 16.5803 23.0998 16.5104 23.1297C16.4409 23.1591 16.3711 23.1876 16.3017 23.2185C16.2326 23.2489 16.164 23.2812 16.0951 23.3126C16.0255 23.3445 15.9556 23.3754 15.8863 23.4082C15.8176 23.4406 15.7496 23.4749 15.6812 23.5088C15.6123 23.5426 15.5432 23.5755 15.4746 23.6103C15.4042 23.6461 15.3344 23.6838 15.2644 23.7206C15.1983 23.7554 15.1319 23.7893 15.0661 23.8251C14.997 23.8623 14.9284 23.9021 14.8595 23.9413C14.7933 23.9786 14.7268 24.0148 14.6608 24.0531C14.593 24.0923 14.5259 24.134 14.4585 24.1742C14.3921 24.2144 14.3253 24.2532 14.2592 24.2944C14.1914 24.3361 14.1243 24.3807 14.0568 24.4238C13.9917 24.4655 13.9262 24.5062 13.8613 24.5489C13.7948 24.593 13.7289 24.6391 13.6626 24.6842C13.5973 24.7289 13.5317 24.772 13.4668 24.8181C13.4022 24.8632 13.3381 24.9108 13.2738 24.9574C13.2079 25.0054 13.1418 25.052 13.0762 25.1006C13.0109 25.1496 12.9463 25.2006 12.8814 25.2506C12.8175 25.2997 12.7532 25.3477 12.6896 25.3977C12.625 25.4492 12.561 25.5027 12.4967 25.5552C12.4333 25.6066 12.3697 25.6572 12.3066 25.7101C12.2419 25.7645 12.1777 25.8214 12.1133 25.8768C12.0516 25.9303 11.9895 25.9828 11.9281 26.0372C11.8625 26.0951 11.7976 26.1559 11.7324 26.2157C11.6726 26.2701 11.6126 26.3236 11.5532 26.3795C11.4893 26.4393 11.4261 26.5021 11.3625 26.5634C11.3025 26.6213 11.2421 26.6781 11.1823 26.7375C11.1193 26.8002 11.057 26.8655 10.9944 26.9292C10.9349 26.99 10.8751 27.0494 10.8159 27.1112C10.7546 27.1754 10.694 27.2426 10.633 27.3083C10.5732 27.3725 10.513 27.4358 10.4534 27.5015C10.3931 27.5682 10.3335 27.6378 10.2735 27.706C10.2143 27.7732 10.1546 27.8394 10.0957 27.908C10.0344 27.9796 9.97373 28.0537 9.91273 28.1267C9.85599 28.1949 9.79886 28.2616 9.74242 28.3307C9.68068 28.4068 9.61967 28.4852 9.55838 28.5627C9.5034 28.6323 9.44814 28.7 9.39356 28.7711C9.33378 28.8481 9.27484 28.928 9.2155 29.007C9.15999 29.081 9.10403 29.1536 9.04886 29.2286C8.99154 29.3066 8.93495 29.388 8.87796 29.4675C8.82172 29.5459 8.76503 29.6234 8.70912 29.7038C8.65224 29.7852 8.59614 29.8696 8.5396 29.9529C8.48271 30.0368 8.42543 30.1187 8.36894 30.204L9.66871 35.1157C23.8575 13.6903 51.1539 41.7943 65.3491 20.3924Z"
        fill="#19D834" />
    <path
        d="M11.1526 39.7754C11.2057 39.6969 11.2585 39.6174 11.312 39.5405C11.3712 39.4556 11.4312 39.3737 11.4908 39.2904C11.5444 39.2158 11.5978 39.1393 11.6518 39.0658C11.7101 38.9858 11.7692 38.9093 11.828 38.8314C11.8842 38.7568 11.94 38.6808 11.9965 38.6077C12.0543 38.5327 12.1128 38.4606 12.171 38.3876C12.2292 38.314 12.2869 38.2395 12.3453 38.1679C12.405 38.0943 12.4654 38.0237 12.5254 37.9521C12.5831 37.883 12.6405 37.8123 12.6987 37.7447C12.7608 37.6721 12.8236 37.6025 12.8861 37.5318C12.9428 37.4671 12.9993 37.4014 13.0563 37.3386C13.1189 37.2695 13.1822 37.2028 13.2451 37.1351C13.3031 37.0728 13.3606 37.0091 13.4189 36.9483C13.4811 36.8831 13.544 36.8203 13.6067 36.7565C13.6662 36.6957 13.7254 36.6339 13.7853 36.5741C13.848 36.5123 13.9114 36.4525 13.9745 36.3917C14.0351 36.3328 14.0953 36.2735 14.1561 36.2161C14.2185 36.1578 14.2815 36.1014 14.3442 36.044C14.4065 35.9876 14.4684 35.9293 14.531 35.8738C14.5954 35.8165 14.6605 35.7615 14.7253 35.7056C14.7868 35.6527 14.8478 35.5987 14.9096 35.5468C14.974 35.4928 15.0391 35.4413 15.1039 35.3884C15.1669 35.3369 15.2295 35.2844 15.2928 35.2344C15.3565 35.1844 15.4206 35.1363 15.4846 35.0868C15.5495 35.0372 15.6141 34.9862 15.6794 34.9372C15.7464 34.8872 15.814 34.8396 15.8814 34.7911C15.9441 34.7455 16.0067 34.6989 16.0697 34.6547C16.1374 34.6072 16.2057 34.5616 16.2737 34.5155C16.3372 34.4723 16.4004 34.4277 16.4643 34.3855C16.5305 34.3419 16.5973 34.3002 16.6638 34.258C16.73 34.2154 16.7959 34.1722 16.8624 34.1305C16.9299 34.0888 16.9979 34.0491 17.0656 34.0084C17.1317 33.9687 17.1975 33.928 17.2638 33.8897C17.3322 33.85 17.4012 33.8123 17.47 33.7735C17.5363 33.7362 17.6025 33.698 17.6691 33.6617C17.7374 33.6244 17.8062 33.5891 17.8748 33.5533C17.9424 33.5175 18.0097 33.4812 18.0776 33.4469C18.1473 33.4111 18.2177 33.3778 18.2877 33.3434C18.355 33.3106 18.422 33.2768 18.4894 33.2444C18.5588 33.2115 18.6287 33.1806 18.6983 33.1493C18.7671 33.1179 18.8358 33.085 18.9049 33.0546C18.9742 33.0242 19.044 32.9958 19.1136 32.9663C19.1835 32.9364 19.2531 32.906 19.3232 32.8776C19.3918 32.8491 19.461 32.8231 19.5299 32.7962C19.6016 32.7677 19.6732 32.7388 19.7453 32.7113C19.8157 32.6849 19.8867 32.6603 19.9574 32.6348C20.028 32.6088 20.0984 32.5824 20.1692 32.5578C20.2413 32.5328 20.3138 32.5098 20.386 32.4853C20.4565 32.4617 20.5268 32.4377 20.5975 32.4151C20.667 32.3926 20.7369 32.3725 20.8066 32.3509C20.8804 32.3283 20.954 32.3053 21.0281 32.2832C21.0975 32.2631 21.1673 32.2445 21.2369 32.2254C21.3118 32.2043 21.3866 32.1827 21.4618 32.1626C21.5301 32.1445 21.5989 32.1278 21.6674 32.1106C21.7443 32.091 21.8209 32.0709 21.8981 32.0523C21.9694 32.0351 22.0411 32.0194 22.1126 32.0032C22.1872 31.9861 22.2616 31.9684 22.3365 31.9522C22.4104 31.936 22.4848 31.9218 22.5589 31.9066C22.632 31.8919 22.7049 31.8762 22.7782 31.862C22.8497 31.8483 22.9217 31.836 22.9934 31.8228C23.0698 31.809 23.1461 31.7943 23.2227 31.7811C23.2905 31.7698 23.3586 31.7595 23.4265 31.7487C23.5076 31.7355 23.5884 31.7222 23.6696 31.71C23.7372 31.6997 23.8049 31.6913 23.8726 31.682C23.9545 31.6702 24.0362 31.6585 24.1184 31.6477C24.1898 31.6389 24.2616 31.631 24.3332 31.6222C24.4119 31.6129 24.4904 31.6031 24.5693 31.5947C24.6438 31.5864 24.7188 31.5795 24.7935 31.5722C24.8699 31.5648 24.9462 31.5565 25.0227 31.5496C25.1008 31.5427 25.1791 31.5369 25.2572 31.5305C25.3309 31.5246 25.4043 31.5182 25.4781 31.5128C25.5579 31.5074 25.6381 31.503 25.7183 31.4976C25.7908 31.4932 25.8633 31.4883 25.936 31.4844C26.0122 31.48 26.0887 31.477 26.1651 31.4736C26.2422 31.4702 26.3193 31.4658 26.3966 31.4628C26.468 31.4604 26.5399 31.4589 26.6114 31.4564C26.6939 31.454 26.7761 31.451 26.8587 31.4496C26.9294 31.4476 27.0005 31.4471 27.0713 31.4461C27.1549 31.4452 27.2384 31.4432 27.3222 31.4427C27.3973 31.4422 27.4726 31.4427 27.5478 31.4427C27.6276 31.4427 27.7072 31.4422 27.7871 31.4427C27.866 31.4432 27.9452 31.4452 28.0243 31.4461C28.1009 31.4471 28.1774 31.4481 28.2542 31.4496C28.3303 31.451 28.4066 31.4535 28.4827 31.456C28.563 31.4579 28.6433 31.4599 28.7238 31.4623C28.8011 31.4653 28.8787 31.4687 28.9562 31.4716C29.0352 31.4751 29.1141 31.4775 29.1933 31.4815C29.2719 31.4849 29.3509 31.4893 29.4297 31.4937C29.5086 31.4976 29.5873 31.5011 29.6662 31.506C29.7448 31.5104 29.8236 31.5158 29.9024 31.5207C29.9811 31.5256 30.0597 31.5305 30.1386 31.5359C30.216 31.5408 30.2937 31.5472 30.3713 31.5526C30.4525 31.5589 30.5335 31.5643 30.6147 31.5707C30.6878 31.5766 30.7612 31.583 30.8344 31.5893C30.9195 31.5962 31.0046 31.6031 31.0898 31.6104C31.1682 31.6173 31.2467 31.6251 31.3252 31.6325C31.4059 31.6398 31.4864 31.6472 31.5671 31.655C31.6493 31.6629 31.7316 31.6717 31.814 31.6801C31.891 31.6879 31.9675 31.6953 32.0445 31.7036C32.1298 31.7124 32.2156 31.7222 32.3015 31.7315C32.3755 31.7399 32.45 31.7477 32.5246 31.7561C32.5996 31.7644 32.6746 31.7737 32.7502 31.7825C32.8355 31.7924 32.9208 31.8022 33.0061 31.8125C33.0787 31.8213 33.1508 31.8306 33.2229 31.8394C33.3107 31.8502 33.3984 31.861 33.4862 31.8718C33.5686 31.8826 33.651 31.8934 33.7334 31.9042C33.8113 31.9145 33.8898 31.9243 33.9683 31.9346C34.0575 31.9468 34.1473 31.9591 34.237 31.9713C34.3081 31.9812 34.3787 31.9905 34.4498 32.0003C34.5303 32.0116 34.6107 32.0228 34.6916 32.0341C34.773 32.0459 34.8549 32.0572 34.9363 32.0689C35.002 32.0783 35.0677 32.0881 35.1334 32.0974C35.2286 32.1111 35.3242 32.1248 35.4198 32.1391C35.487 32.1489 35.5547 32.1592 35.6223 32.1695C35.7165 32.1837 35.8111 32.1974 35.9053 32.2116C35.9681 32.221 36.0308 32.2308 36.0936 32.2406C36.1927 32.2553 36.2912 32.2705 36.3898 32.2857C36.4776 32.2994 36.5649 32.3127 36.6522 32.3264C36.7252 32.3382 36.7983 32.3489 36.8714 32.3607C36.9518 32.373 37.0317 32.3857 37.1116 32.3985C37.196 32.4117 37.2803 32.425 37.3647 32.4387C37.3931 32.4431 37.4221 32.4475 37.4505 32.4519C37.5839 32.4735 37.7173 32.4946 37.8502 32.5162C37.8811 32.5206 37.9115 32.526 37.9419 32.5304C38.5048 32.6211 39.0683 32.7123 39.6317 32.8025C39.6832 32.8109 39.7347 32.8192 39.7867 32.8276C39.9382 32.8516 40.0898 32.8761 40.2418 32.9001C40.2506 32.9016 40.2599 32.9031 40.2688 32.9045C40.358 32.9183 40.4468 32.9325 40.536 32.9467C40.6115 32.9585 40.6875 32.9708 40.7631 32.9825C40.8302 32.9928 40.8974 33.0031 40.9651 33.0139C41.0583 33.0281 41.1519 33.0428 41.2456 33.0576C41.3353 33.0713 41.4251 33.085 41.5148 33.0987C41.5869 33.1095 41.6585 33.1208 41.7301 33.1316C41.8213 33.1453 41.9125 33.1586 42.0037 33.1723C42.0744 33.1831 42.145 33.1934 42.2151 33.2042C42.3107 33.2179 42.4063 33.2316 42.502 33.2459C42.5672 33.2552 42.6329 33.265 42.6986 33.2743C42.7781 33.2856 42.858 33.2969 42.9374 33.3081C43.0203 33.3194 43.1027 33.3317 43.1856 33.343C43.2518 33.3523 43.318 33.3611 43.3842 33.3699C43.4783 33.3827 43.573 33.3959 43.6671 33.4082C43.7436 33.4185 43.8196 33.4283 43.8961 33.4381C43.9805 33.4494 44.0648 33.4602 44.1487 33.4709C44.2365 33.4822 44.3242 33.493 44.412 33.5038C44.4841 33.5126 44.5562 33.5219 44.6283 33.5303C44.7141 33.5411 44.7994 33.5504 44.8848 33.5607C44.9598 33.5695 45.0353 33.5783 45.1103 33.5872C45.1839 33.5955 45.257 33.6034 45.3305 33.6112C45.4168 33.6205 45.5036 33.6303 45.5904 33.6396C45.6655 33.6475 45.74 33.6548 45.8145 33.6622C45.8989 33.671 45.9837 33.6799 46.0681 33.6882C46.147 33.696 46.2255 33.7029 46.3044 33.7103C46.3848 33.7176 46.4653 33.7255 46.5452 33.7323C46.6286 33.7397 46.7124 33.7465 46.7958 33.7534C46.8708 33.7598 46.9454 33.7662 47.0204 33.7725C47.1008 33.7784 47.1812 33.7843 47.2621 33.7902C47.3401 33.7961 47.4181 33.802 47.4961 33.8074C47.5745 33.8127 47.6525 33.8172 47.731 33.8221C47.8099 33.8275 47.8898 33.8329 47.9688 33.8373C48.0468 33.8417 48.1247 33.8451 48.2032 33.8495C48.2826 33.8534 48.3621 33.8584 48.4415 33.8618C48.5205 33.8652 48.5989 33.8682 48.6779 33.8711C48.7554 33.8745 48.8333 33.878 48.9108 33.8804C48.9913 33.8834 49.0717 33.8853 49.1521 33.8873C49.2281 33.8892 49.3046 33.8917 49.3806 33.8937C49.4571 33.8951 49.5336 33.8956 49.6101 33.8966C49.6896 33.8981 49.769 33.8995 49.848 33.9C49.9274 33.9005 50.0073 33.9005 50.0868 33.9005C50.1623 33.9005 50.2373 33.901 50.3128 33.9005C50.3962 33.9 50.4801 33.8981 50.5639 33.8966C50.6345 33.8956 50.7056 33.8951 50.7763 33.8937C50.8586 33.8917 50.9415 33.8888 51.0239 33.8863C51.0955 33.8843 51.1671 33.8829 51.2382 33.8799C51.3162 33.877 51.3937 33.8731 51.4711 33.8691C51.5471 33.8657 51.6232 33.8628 51.6987 33.8588C51.7722 33.8549 51.8453 33.8495 51.9184 33.8451C51.9978 33.8402 52.0772 33.8358 52.1567 33.8299C52.2312 33.8245 52.3053 33.8181 52.3798 33.8123C52.4573 33.8059 52.5348 33.8005 52.6118 33.7936C52.6893 33.7863 52.7667 33.7784 52.8437 33.7706C52.9178 33.7632 52.9918 33.7564 53.0654 33.7485C53.1453 33.7397 53.2248 33.7299 53.3047 33.7206C53.3753 33.7117 53.4459 33.7044 53.5165 33.6951C53.5989 33.6848 53.6813 33.6725 53.7637 33.6612C53.8309 33.6519 53.8981 33.6431 53.9652 33.6333C54.0471 33.621 54.1285 33.6073 54.2104 33.594C54.2776 33.5832 54.3448 33.5734 54.412 33.5617C54.49 33.5484 54.5674 33.5337 54.6454 33.5195C54.7155 33.5067 54.7861 33.4945 54.8563 33.4812C54.9313 33.4665 55.0053 33.4508 55.0799 33.4356C55.153 33.4204 55.2255 33.4067 55.2981 33.391C55.3746 33.3743 55.4506 33.3562 55.5271 33.3385C55.5968 33.3228 55.6669 33.3077 55.7365 33.291C55.8145 33.2723 55.892 33.2517 55.9694 33.2321C56.0376 33.215 56.1053 33.1983 56.173 33.1806C56.249 33.16 56.325 33.1385 56.4005 33.1169C56.4691 33.0978 56.5383 33.0796 56.6065 33.0595C56.6825 33.0374 56.758 33.0134 56.834 32.9904C56.9017 32.9698 56.9693 32.9497 57.037 32.9281C57.1096 32.905 57.1817 32.88 57.2543 32.8555C57.3244 32.8325 57.395 32.8094 57.4651 32.7854C57.5387 32.7599 57.6113 32.7324 57.6838 32.7059C57.7525 32.6814 57.8211 32.6574 57.8893 32.6314C57.9634 32.6035 58.0369 32.5735 58.111 32.5446C58.1777 32.5181 58.2448 32.4931 58.3115 32.4657C58.3836 32.4362 58.4557 32.4048 58.5278 32.374C58.595 32.3455 58.6626 32.3181 58.7298 32.2881C58.8009 32.2568 58.872 32.2234 58.9431 32.191C59.0103 32.1601 59.078 32.1302 59.1452 32.0984C59.2148 32.0655 59.2845 32.0302 59.3541 31.9964C59.4218 31.963 59.4894 31.9306 59.5571 31.8963C59.6272 31.8605 59.6974 31.8228 59.7675 31.786C59.8332 31.7512 59.8999 31.7173 59.9656 31.6815C60.0347 31.6443 60.1034 31.604 60.1721 31.5653C60.2383 31.528 60.3049 31.4917 60.3707 31.4535C60.4383 31.4143 60.5055 31.3726 60.5732 31.3319C60.6394 31.2922 60.7061 31.2534 60.7723 31.2122C60.84 31.1701 60.9071 31.1259 60.9748 31.0828C61.04 31.0411 61.1053 31.0004 61.1705 30.9577C61.2367 30.9136 61.3029 30.8675 61.3691 30.8224C61.4343 30.7777 61.5 30.7346 61.5647 30.6885C61.631 30.6424 61.6962 30.5939 61.7619 30.5463C61.8261 30.4992 61.8909 30.4536 61.9551 30.406C62.0233 30.355 62.0909 30.3016 62.1586 30.2496C62.2199 30.2025 62.2812 30.1569 62.3415 30.1089C62.4077 30.0564 62.4734 30.0015 62.5391 29.948C62.6009 29.8975 62.6632 29.848 62.725 29.7965C62.7897 29.742 62.854 29.6852 62.9182 29.6298C62.98 29.5763 63.0423 29.5238 63.1036 29.4694C63.1693 29.411 63.234 29.3507 63.2993 29.2909C63.3591 29.2365 63.4189 29.183 63.4782 29.1271C63.5425 29.0673 63.6057 29.0045 63.669 28.9432C63.7293 28.8849 63.7896 28.8285 63.8495 28.7691C63.9122 28.7064 63.9745 28.6411 64.0373 28.5774C64.0966 28.5166 64.1564 28.4572 64.2158 28.3954C64.2771 28.3307 64.3374 28.264 64.3987 28.1983C64.4585 28.1341 64.5188 28.0708 64.5782 28.0051C64.6385 27.9384 64.6983 27.8688 64.7581 27.8006C64.8175 27.7334 64.8768 27.6672 64.9357 27.5986C64.9975 27.527 65.0578 27.4529 65.1191 27.3799C65.1755 27.3117 65.2328 27.245 65.2892 27.1759C65.351 27.0999 65.4118 27.0214 65.4731 26.9439C65.5281 26.8743 65.5835 26.8061 65.6379 26.7355C65.6977 26.6585 65.7566 26.5781 65.8159 26.4996C65.8718 26.4256 65.9277 26.353 65.9826 26.278C66.04 26.1995 66.0969 26.1186 66.1538 26.0391C66.2097 25.9607 66.2666 25.8832 66.3225 25.8028C66.3794 25.7214 66.4358 25.637 66.4922 25.5537C66.5456 25.4747 66.5995 25.3977 66.6525 25.3173C66.219 23.6804 65.786 22.0435 65.353 20.4061C51.1578 41.808 23.8612 13.704 9.67239 35.1294C10.1056 36.7663 10.5389 38.4037 10.9722 40.0406C10.9755 40.0357 10.979 40.0308 10.9824 40.0254C10.9823 40.0254 10.9823 40.0254 10.9823 40.0254C11.0386 39.9406 11.0958 39.8587 11.1526 39.7754"
        fill="#1156FF" />
    <path
        d="M66.6628 25.3025C66.6593 25.3074 66.6559 25.3124 66.6525 25.3173C66.5995 25.3977 66.5456 25.4747 66.4921 25.5536C66.4357 25.637 66.3793 25.7213 66.3225 25.8027C66.2665 25.8832 66.2097 25.9606 66.1538 26.0391C66.0969 26.1185 66.04 26.1995 65.9826 26.2779C65.9277 26.3529 65.8718 26.4255 65.8159 26.4996C65.7565 26.578 65.6977 26.6585 65.6379 26.7355C65.5834 26.8061 65.528 26.8742 65.4731 26.9439C65.4118 27.0213 65.351 27.0998 65.2892 27.1758C65.2328 27.245 65.1754 27.3117 65.119 27.3798C65.0577 27.4529 64.9974 27.5269 64.9356 27.5985C64.8768 27.6672 64.8175 27.7334 64.7581 27.8006C64.6983 27.8687 64.6385 27.9384 64.5781 28.0051C64.5188 28.0708 64.4585 28.134 64.3987 28.1983C64.3374 28.264 64.277 28.3307 64.2157 28.3954C64.1564 28.4572 64.0966 28.5165 64.0373 28.5773C63.9745 28.6411 63.9122 28.7063 63.8494 28.7691C63.7896 28.8284 63.7293 28.8848 63.669 28.9432C63.6057 29.0045 63.5425 29.0672 63.4782 29.1271C63.4189 29.183 63.359 29.2364 63.2992 29.2909C63.234 29.3507 63.1693 29.411 63.1036 29.4694C63.0423 29.5238 62.98 29.5763 62.9182 29.6297C62.8539 29.6851 62.7897 29.742 62.725 29.7964C62.6632 29.8479 62.6009 29.8975 62.5391 29.948C62.4734 30.0014 62.4077 30.0564 62.3415 30.1088C62.2812 30.1569 62.2199 30.2025 62.1586 30.2496C62.0909 30.3015 62.0232 30.355 61.9551 30.406C61.8908 30.4536 61.8261 30.4992 61.7619 30.5462C61.6961 30.5938 61.6309 30.6424 61.5647 30.6885C61.5 30.7346 61.4343 30.7777 61.3691 30.8223C61.3029 30.8675 61.2367 30.9135 61.1705 30.9577C61.1052 31.0003 61.04 31.041 60.9748 31.0827C60.9071 31.1259 60.8399 31.17 60.7723 31.2122C60.7061 31.2534 60.6394 31.2921 60.5732 31.3318C60.5055 31.3726 60.4383 31.4142 60.3706 31.4535C60.3049 31.4917 60.2382 31.528 60.172 31.5653C60.1034 31.604 60.0347 31.6442 59.9656 31.6815C59.8999 31.7173 59.8332 31.7511 59.7675 31.7859C59.6973 31.8227 59.6272 31.8605 59.5571 31.8963C59.4894 31.9306 59.4217 31.963 59.3541 31.9963C59.2844 32.0302 59.2148 32.0655 59.1452 32.0983C59.078 32.1302 59.0103 32.1601 58.9431 32.191C58.872 32.2234 58.8009 32.2567 58.7298 32.2881C58.6626 32.318 58.5949 32.3455 58.5278 32.3739C58.4557 32.4048 58.3836 32.4362 58.3115 32.4656C58.2448 32.4931 58.1776 32.5181 58.1109 32.5446C58.0369 32.5735 57.9633 32.6034 57.8893 32.6314C57.8211 32.6574 57.7525 32.6814 57.6838 32.7059C57.6112 32.7324 57.5387 32.7599 57.4651 32.7854C57.395 32.8094 57.3244 32.8324 57.2542 32.8555C57.1817 32.88 57.1096 32.905 57.037 32.9281C56.9693 32.9496 56.9016 32.9697 56.834 32.9903C56.758 33.0134 56.6824 33.0374 56.6064 33.0595C56.5383 33.0796 56.4691 33.0977 56.4005 33.1169C56.325 33.1384 56.2489 33.16 56.1729 33.1806C56.1053 33.1983 56.0376 33.2149 55.9694 33.2321C55.8919 33.2517 55.8145 33.2723 55.7365 33.2909C55.6669 33.3076 55.5967 33.3228 55.5271 33.3385C55.4506 33.3562 55.3746 33.3743 55.2981 33.391C55.2255 33.4067 55.1529 33.4204 55.0799 33.4356C55.0058 33.4508 54.9313 33.4665 54.8562 33.4812C54.7861 33.4945 54.7155 33.5067 54.6454 33.5195C54.5674 33.5337 54.4899 33.5484 54.412 33.5616C54.3448 33.5734 54.2776 33.5832 54.2104 33.594C54.1285 33.6072 54.0471 33.621 53.9652 33.6332C53.898 33.643 53.8308 33.6519 53.7637 33.6612C53.6813 33.6725 53.5989 33.6847 53.5165 33.695C53.4459 33.7043 53.3753 33.7117 53.3047 33.7205C53.2247 33.7298 53.1453 33.7396 53.0654 33.7485C52.9918 33.7563 52.9177 33.7632 52.8437 33.7705C52.7667 33.7784 52.6892 33.7862 52.6118 33.7936C52.5348 33.8005 52.4573 33.8058 52.3798 33.8122C52.3053 33.8181 52.2312 33.8245 52.1567 33.8299C52.0772 33.8358 51.9978 33.8402 51.9183 33.8451C51.8453 33.8495 51.7722 33.8549 51.6986 33.8588C51.6231 33.8627 51.5471 33.8657 51.4711 33.8691C51.3936 33.873 51.3161 33.877 51.2382 33.8799C51.1671 33.8828 51.0955 33.8843 51.0239 33.8863C50.9415 33.8887 50.8586 33.8917 50.7762 33.8936C50.7056 33.8951 50.6345 33.8956 50.5639 33.8966C50.48 33.898 50.3962 33.9 50.3128 33.9005C50.2373 33.901 50.1623 33.9005 50.0868 33.9005C50.0073 33.9005 49.9274 33.9005 49.8479 33.9C49.769 33.8995 49.6895 33.898 49.6101 33.8966C49.5336 33.8956 49.4571 33.8951 49.3806 33.8936C49.3046 33.8917 49.2281 33.8892 49.1521 33.8873C49.0717 33.8853 48.9912 33.8833 48.9108 33.8804C48.8333 33.8779 48.7554 33.8745 48.6779 33.8711C48.5989 33.8681 48.5205 33.8652 48.4415 33.8618C48.3621 33.8583 48.2826 33.8534 48.2032 33.8495C48.1247 33.8451 48.0467 33.8416 47.9688 33.8372C47.8898 33.8328 47.8099 33.8274 47.7309 33.822C47.6525 33.8171 47.5745 33.8127 47.496 33.8073C47.4181 33.8019 47.3401 33.796 47.2621 33.7902C47.1812 33.7843 47.1008 33.7784 47.0204 33.7725C46.9453 33.7661 46.8708 33.7598 46.7958 33.7534C46.7124 33.7465 46.6285 33.7396 46.5452 33.7323C46.4653 33.7254 46.3848 33.7176 46.3044 33.7102C46.2255 33.7029 46.147 33.696 46.068 33.6882C45.9837 33.6798 45.8989 33.671 45.8145 33.6622C45.74 33.6548 45.6654 33.6475 45.5904 33.6396C45.5036 33.6303 45.4168 33.6205 45.3305 33.6112C45.2569 33.6033 45.1839 33.5955 45.1103 33.5871C45.0353 33.5783 44.9598 33.5695 44.8847 33.5607C44.7994 33.5504 44.7141 33.541 44.6283 33.5303C44.5562 33.5219 44.4841 33.5126 44.412 33.5038C44.3242 33.493 44.2364 33.4822 44.1487 33.4709C44.0648 33.4601 43.9805 33.4493 43.8961 33.4381C43.8196 33.4283 43.7436 33.4184 43.6671 33.4081C43.573 33.3959 43.4783 33.3826 43.3842 33.3699C43.318 33.3611 43.2518 33.3522 43.1856 33.3429C43.1027 33.3316 43.0203 33.3194 42.9374 33.3081C42.8575 33.2968 42.778 33.2855 42.6986 33.2743C42.6329 33.265 42.5672 33.2551 42.502 33.2458C42.4063 33.2316 42.3107 33.2179 42.2151 33.2041C42.145 33.1934 42.0743 33.1831 42.0037 33.1723C41.9125 33.1585 41.8213 33.1453 41.7301 33.1316C41.6585 33.1208 41.5869 33.1095 41.5148 33.0987C41.4251 33.085 41.3353 33.0712 41.2456 33.0575C41.1519 33.0428 41.0583 33.0281 40.9651 33.0139C40.8974 33.0031 40.8302 32.9928 40.763 32.9825C40.6875 32.9707 40.6115 32.9585 40.536 32.9467C40.4467 32.9325 40.358 32.9182 40.2687 32.9045C40.2599 32.903 40.2506 32.9016 40.2418 32.9001C40.0897 32.8761 39.9382 32.8516 39.7867 32.8275C39.7347 32.8192 39.6832 32.8109 39.6317 32.8025C39.0683 32.7123 38.5048 32.6211 37.9419 32.5304C37.9115 32.5259 37.881 32.5205 37.8502 32.5161C37.7173 32.4946 37.5839 32.4735 37.4505 32.4519C37.422 32.4475 37.3931 32.4431 37.3647 32.4386C37.2803 32.4249 37.196 32.4117 37.1116 32.3984C37.0317 32.3857 36.9518 32.3729 36.8713 32.3607C36.7983 32.3489 36.7252 32.3381 36.6521 32.3264C36.5649 32.3126 36.4776 32.2994 36.3898 32.2857C36.2912 32.2704 36.1927 32.2552 36.0936 32.2405C36.0308 32.2307 35.9681 32.2209 35.9053 32.2116C35.8111 32.1974 35.7165 32.1836 35.6223 32.1694C35.5547 32.1591 35.487 32.1488 35.4198 32.139C35.3242 32.1248 35.2286 32.1111 35.1334 32.0973C35.0677 32.088 35.002 32.0782 34.9363 32.0689C34.8549 32.0571 34.773 32.0458 34.6916 32.0341C34.6107 32.0228 34.5302 32.0115 34.4498 32.0002C34.3787 31.9904 34.3081 31.9811 34.237 31.9713C34.1473 31.9591 34.0575 31.9468 33.9683 31.9345C33.8898 31.9242 33.8113 31.9144 33.7334 31.9041C33.651 31.8933 33.5686 31.8826 33.4862 31.8718C33.3984 31.861 33.3107 31.8502 33.2229 31.8394C33.1508 31.8306 33.0787 31.8213 33.0061 31.8124C32.9208 31.8021 32.8355 31.7923 32.7501 31.7825C32.6746 31.7737 32.5996 31.7644 32.5246 31.756C32.45 31.7477 32.3755 31.7399 32.3014 31.7315C32.2156 31.7222 32.1298 31.7124 32.0445 31.7036C31.9675 31.6952 31.891 31.6879 31.814 31.68C31.7316 31.6717 31.6493 31.6629 31.5671 31.655C31.4864 31.6472 31.4058 31.6398 31.3252 31.6325C31.2467 31.6251 31.1682 31.6173 31.0898 31.6104C31.0046 31.603 30.9195 31.5962 30.8344 31.5893C30.7612 31.5829 30.6878 31.5765 30.6147 31.5707C30.5335 31.5643 30.4524 31.5589 30.3713 31.5525C30.2937 31.5471 30.216 31.5408 30.1385 31.5358C30.0597 31.5305 29.9811 31.5256 29.9024 31.5206C29.8236 31.5157 29.7448 31.5103 29.6662 31.5059C29.5872 31.501 29.5085 31.4976 29.4297 31.4937C29.3509 31.4893 29.2719 31.4848 29.1933 31.4814C29.1141 31.4775 29.0351 31.475 28.9562 31.4716C28.8787 31.4687 28.8011 31.4652 28.7238 31.4623C28.6433 31.4598 28.563 31.4579 28.4827 31.4559C28.4066 31.4535 28.3303 31.451 28.2542 31.4495C28.1774 31.4481 28.1009 31.4471 28.0242 31.4461C27.9451 31.4451 27.866 31.4432 27.7871 31.4427C27.7072 31.4422 27.6276 31.4427 27.5478 31.4427C27.4726 31.4427 27.3973 31.4422 27.3222 31.4427C27.2384 31.4432 27.1549 31.4451 27.0713 31.4461C27.0005 31.4471 26.9294 31.4476 26.8586 31.4495C26.7761 31.451 26.6938 31.454 26.6114 31.4564C26.5398 31.4589 26.468 31.4603 26.3966 31.4628C26.3192 31.4657 26.2422 31.4701 26.165 31.4736C26.0887 31.477 26.0122 31.4799 25.936 31.4844C25.8633 31.4883 25.7908 31.4932 25.7183 31.4976C25.6381 31.503 25.5579 31.5074 25.4781 31.5128C25.4043 31.5182 25.3309 31.5246 25.2572 31.5305C25.1791 31.5368 25.1008 31.5427 25.0227 31.5496C24.9462 31.5564 24.8699 31.5648 24.7935 31.5721C24.7188 31.5795 24.6438 31.5864 24.5693 31.5947C24.4904 31.603 24.4119 31.6128 24.3332 31.6222C24.2616 31.631 24.1898 31.6388 24.1184 31.6477C24.0362 31.6584 23.9545 31.6702 23.8726 31.682C23.8049 31.6913 23.7371 31.6996 23.6696 31.7099C23.5884 31.7222 23.5075 31.7354 23.4265 31.7487C23.3586 31.7595 23.2905 31.7698 23.2227 31.781C23.1461 31.7943 23.0698 31.809 22.9934 31.8227C22.9217 31.836 22.8497 31.8482 22.7781 31.862C22.7049 31.8762 22.632 31.8919 22.5589 31.9066C22.4848 31.9218 22.4104 31.936 22.3365 31.9522C22.2616 31.9684 22.1872 31.986 22.1126 32.0032C22.0411 32.0194 21.9694 32.0351 21.8981 32.0522C21.8209 32.0709 21.7442 32.091 21.6674 32.1106C21.5989 32.1277 21.5301 32.1444 21.4618 32.1626C21.3866 32.1827 21.3118 32.2042 21.2369 32.2253C21.1673 32.2445 21.0974 32.2631 21.0281 32.2832C20.954 32.3053 20.8804 32.3283 20.8066 32.3509C20.7369 32.3724 20.667 32.3926 20.5975 32.4151C20.5268 32.4377 20.4565 32.4617 20.386 32.4852C20.3138 32.5098 20.2413 32.5328 20.1692 32.5578C20.0984 32.5823 20.028 32.6088 19.9573 32.6348C19.8867 32.6603 19.8157 32.6848 19.7453 32.7113C19.6732 32.7388 19.6017 32.7677 19.5299 32.7961C19.461 32.8231 19.3918 32.8491 19.3232 32.8775C19.2531 32.906 19.1835 32.9364 19.1136 32.9663C19.044 32.9957 18.9742 33.0242 18.9049 33.0546C18.8358 33.085 18.7672 33.1173 18.6983 33.1492C18.6287 33.1806 18.5588 33.2115 18.4894 33.2444C18.422 33.2767 18.355 33.3106 18.2877 33.3434C18.2177 33.3777 18.1473 33.4111 18.0776 33.4469C18.0097 33.4812 17.9424 33.5175 17.8748 33.5533C17.8062 33.5891 17.7374 33.6244 17.6691 33.6617C17.6024 33.698 17.5363 33.7362 17.47 33.7735C17.4012 33.8122 17.3322 33.85 17.2638 33.8897C17.1975 33.928 17.1317 33.9687 17.0656 34.0084C16.9979 34.0491 16.9299 34.0888 16.8624 34.1305C16.7959 34.1722 16.73 34.2153 16.6638 34.258C16.5973 34.3002 16.5305 34.3418 16.4643 34.3855C16.4004 34.4277 16.3372 34.4723 16.2737 34.5154C16.2057 34.5615 16.1374 34.6071 16.0697 34.6547C16.0067 34.6988 15.9441 34.7454 15.8814 34.791C15.814 34.8396 15.7464 34.8871 15.6794 34.9372C15.6141 34.9862 15.5495 35.0372 15.4846 35.0867C15.4206 35.1363 15.3565 35.1843 15.2928 35.2343C15.2296 35.2844 15.1669 35.3368 15.1039 35.3883C15.0391 35.4413 14.974 35.4928 14.9096 35.5467C14.8478 35.5987 14.7868 35.6526 14.7253 35.7056C14.6605 35.7615 14.5954 35.8164 14.531 35.8738C14.4684 35.9292 14.4065 35.9876 14.3442 36.044C14.2815 36.1013 14.2185 36.1577 14.1561 36.2161C14.0953 36.2735 14.0351 36.3328 13.9745 36.3917C13.9114 36.4525 13.848 36.5123 13.7853 36.5741C13.7254 36.6339 13.6662 36.6957 13.6067 36.7565C13.544 36.8203 13.4811 36.883 13.4189 36.9482C13.3606 37.0091 13.3031 37.0728 13.2451 37.1351C13.1822 37.2028 13.1189 37.2694 13.0563 37.3386C12.9993 37.4014 12.9428 37.4671 12.8861 37.5318C12.8236 37.6024 12.7608 37.6721 12.6987 37.7446C12.6406 37.8123 12.5832 37.8829 12.5254 37.9521C12.4654 38.0237 12.405 38.0943 12.3453 38.1678C12.2869 38.2394 12.2292 38.314 12.1711 38.3875C12.1128 38.4606 12.0543 38.5327 11.9965 38.6077C11.94 38.6808 11.8842 38.7568 11.828 38.8313C11.7692 38.9093 11.7101 38.9858 11.6518 39.0657C11.5978 39.1393 11.5444 39.2158 11.4908 39.2903C11.4312 39.3737 11.3712 39.4556 11.312 39.5404C11.2585 39.6174 11.2057 39.6969 11.1526 39.7753C11.0958 39.8587 11.0387 39.9406 10.9823 40.0254C10.9823 40.0254 10.9823 40.0254 10.9824 40.0254C11.4156 41.6628 11.8488 43.2997 12.282 44.9366C26.4771 23.5352 53.7735 51.6388 67.9623 30.2138C67.5293 28.5764 67.0958 26.9395 66.6628 25.3025"
        fill="#9940FF" />
    <path d="M2 14L19 78.5" stroke="currentcolor" stroke-width="4" stroke-linecap="round" />
</svg>