<svg width="100" height="100" viewBox="0 0 100 100" fill="none" xmlns="http://www.w3.org/2000/svg">
    <path fill-rule="evenodd" clip-rule="evenodd"
        d="M89.4379 24.192L89.5316 24.3794C89.7814 24.8166 89.9063 25.16 89.9063 25.4098C89.9688 25.5972 90 25.7845 90 25.9719V47.3641C90.0357 47.5798 90.0543 47.8013 90.0543 48.0272C90.0543 50.2513 88.2513 52.0543 86.0272 52.0543C83.803 52.0543 82 50.2513 82 48.0272L82.0001 48H81.9438V30H18.0562V81.9906C18.0562 83.1772 18.3997 84.1452 19.0867 84.8946C19.8361 85.5816 20.8041 85.9251 21.9906 85.9251H44V85.9458L44.0272 85.9457C46.2513 85.9457 48.0543 87.7487 48.0543 89.9728C48.0543 92.197 46.2513 94 44.0272 94C43.8953 94 43.7649 93.9937 43.6362 93.9813H21.9906C18.6183 93.9813 15.7767 92.8259 13.466 90.5152C11.1553 88.2045 10 85.363 10 81.9906V25.9719V25.4098V24.3794C10.2498 24.3794 10.3747 24.3169 10.3747 24.192L10.4684 24.0047C10.6557 24.0047 10.7494 23.9422 10.7494 23.8173L10.8431 23.63L22.8337 7.61124C23.2084 6.98673 23.6768 6.5808 24.2389 6.39345C24.8009 6.14364 25.3942 6.01874 26.0187 6.01874H73.9813C74.6058 6.01874 75.1678 6.14364 75.6674 6.39345C76.2295 6.5808 76.6042 6.98673 76.7916 7.61124L88.7822 23.63C88.9696 23.63 89.0632 23.6924 89.0632 23.8173L89.1569 24.0047C89.3443 24.0047 89.4379 24.0671 89.4379 24.192ZM72.014 13.9813H27.9859L21.9906 22.0375H78.0094L72.014 13.9813ZM32.3238 38.3682C34.2884 37.4614 36.6087 38.2828 37.573 40.2017C37.596 40.2395 37.6639 40.3457 37.7874 40.4992C38.0337 40.8051 38.5118 41.3119 39.3235 41.8458C40.9045 42.886 44.0549 44.2257 49.8463 44.003C55.7855 43.7745 59.1013 42.421 60.8038 41.3905C61.6628 40.8706 62.1547 40.4072 62.3923 40.1504C62.4912 40.0436 62.5491 39.9692 62.5729 39.9371C63.6712 38.1095 66.026 37.4578 67.9154 38.4884C69.8548 39.5463 70.5694 41.976 69.5116 43.9154L66 42C69.5116 43.9154 69.5099 43.9185 69.5082 43.9216L69.5047 43.9279L69.4976 43.9409L69.4821 43.9685C69.4714 43.9876 69.4597 44.008 69.447 44.0297C69.4217 44.0732 69.3925 44.1219 69.3592 44.1754C69.2925 44.2826 69.2093 44.4092 69.1077 44.5523C68.9044 44.8387 68.6281 45.1904 68.264 45.5839C67.5328 46.3741 66.4622 47.3169 64.9462 48.2345C61.8987 50.079 57.2145 51.7255 50.1537 51.997C42.9451 52.2743 38.0955 50.614 34.9265 48.5292C33.3632 47.5006 32.2788 46.4137 31.5563 45.5164C31.1964 45.0694 30.9284 44.6722 30.736 44.3557C30.6399 44.1975 30.5625 44.0592 30.5019 43.9448C30.4716 43.8876 30.4455 43.8363 30.4233 43.7914C30.4122 43.769 30.4021 43.7481 30.3929 43.7289L30.3798 43.7013L30.3738 43.6885L30.371 43.6823C30.3696 43.6792 30.3682 43.6762 34 42L30.3682 43.6762C29.4424 41.6704 30.318 39.2939 32.3238 38.3682ZM73 56C75.2091 56 77 57.7909 77 60V73H90C92.2091 73 94 74.7909 94 77C94 79.2091 92.2091 81 90 81H77V94C77 96.2091 75.2091 98 73 98C70.7909 98 69 96.2091 69 94V81H56C53.7909 81 52 79.2091 52 77C52 74.7909 53.7909 73 56 73H69V60C69 57.7909 70.7909 56 73 56Z"
        fill="currentcolor" />
</svg>