<svg width="100" height="100" viewBox="0 0 100 100" fill="none" xmlns="http://www.w3.org/2000/svg">
    <path fill-rule="evenodd" clip-rule="evenodd"
        d="M89.4379 24.192L89.5316 24.3794C89.7814 24.8165 89.9063 25.16 89.9063 25.4098C89.9688 25.5972 90 25.7845 90 25.9719V81.9906C90 85.363 88.8447 88.2045 86.534 90.5152C84.2233 92.8259 81.3817 93.9813 78.0094 93.9813H21.9906C18.6183 93.9813 15.7767 92.8259 13.466 90.5152C11.1553 88.2045 10 85.363 10 81.9906V25.9719V25.4098V24.3794C10.2498 24.3794 10.3747 24.3169 10.3747 24.192L10.4684 24.0047C10.6557 24.0047 10.7494 23.9422 10.7494 23.8173L10.8431 23.63L22.8337 7.61124C23.2084 6.98673 23.6768 6.5808 24.2389 6.39345C24.8009 6.14364 25.3942 6.01874 26.0187 6.01874H73.9813C74.6058 6.01874 75.1678 6.14364 75.6674 6.39345C76.2295 6.5808 76.6042 6.98673 76.7916 7.61124L88.7822 23.63C88.9696 23.63 89.0632 23.6924 89.0632 23.8173L89.1569 24.0047C89.3443 24.0047 89.4379 24.0671 89.4379 24.192ZM72.0141 13.9813H27.9859L21.9906 22.0375H78.0094L72.0141 13.9813ZM66.0226 37.9625C64.7736 37.9625 63.7744 38.3372 63.0249 39.0866C62.338 39.8361 61.9945 40.8041 61.9945 41.9906C61.9945 45.363 60.8391 48.2045 58.5285 50.5152C56.2178 52.8259 53.3762 53.9813 50.0039 53.9813C46.6315 53.9813 43.79 52.8259 41.4793 50.5152C39.1686 48.2045 38.0132 45.363 38.0132 41.9906C38.0132 40.8041 37.6385 39.8361 36.8891 39.0866C36.2021 38.3372 35.2342 37.9625 33.9851 37.9625C32.7986 37.9625 31.8306 38.3372 31.0811 39.0866C30.3942 39.8361 30.0507 40.8041 30.0507 41.9906C30.0507 44.8009 30.5503 47.4239 31.5495 49.8595C32.6112 52.2951 34.0164 54.4184 35.765 56.2295C37.5761 57.9781 39.6994 59.3833 42.135 60.445C44.5706 61.4442 47.1936 61.9438 50.0039 61.9438C52.8142 61.9438 55.4371 61.4442 57.8727 60.445C60.3083 59.3833 62.4004 57.9781 64.1491 56.2295C65.9601 54.4184 67.3965 52.2951 68.4582 49.8595C69.4574 47.4239 69.957 44.8009 69.957 41.9906C69.957 40.8041 69.5823 39.8361 68.8329 39.0866C68.1459 38.3372 67.2092 37.9625 66.0226 37.9625Z"
        fill="currentcolor" />
</svg>