<svg width="100" height="100" viewBox="0 0 100 100" fill="none" xmlns="http://www.w3.org/2000/svg">
    <path
        d="M89.5316 24.3794C89.5316 24.3794 89.5004 24.3169 89.4379 24.192C89.4379 24.0671 89.3443 24.0047 89.1569 24.0047C89.1569 24.0047 89.1257 23.9422 89.0632 23.8173C89.0632 23.6924 88.9696 23.63 88.7822 23.63L76.7916 7.61124C76.6042 6.98673 76.2295 6.5808 75.6674 6.39345C75.1678 6.14364 74.6058 6.01874 73.9813 6.01874H26.0187C25.3942 6.01874 24.8009 6.14364 24.2389 6.39345C23.6768 6.5808 23.2084 6.98673 22.8337 7.61124L10.8431 23.63C10.8431 23.63 10.8119 23.6924 10.7494 23.8173C10.7494 23.9422 10.6557 24.0047 10.4684 24.0047C10.4684 24.0047 10.4372 24.0671 10.3747 24.192C10.3747 24.3169 10.2498 24.3794 10 24.3794C10 24.8166 10 25.16 10 25.4098C10 25.5972 10 25.7845 10 25.9719V81.9906C10 85.363 11.1553 88.2045 13.466 90.5152C15.7767 92.8259 18.6183 93.9813 21.9906 93.9813H78.0094C81.3817 93.9813 84.2233 92.8259 86.534 90.5152C88.8447 88.2045 90 85.363 90 81.9906V25.9719C90 25.7845 89.9688 25.5972 89.9063 25.4098C89.9063 25.16 89.7814 24.8166 89.5316 24.3794ZM27.9859 13.9813H72.014L78.0094 22.0375H21.9906L27.9859 13.9813ZM78.0094 85.9251H21.9906C20.8041 85.9251 19.8361 85.5816 19.0867 84.8946C18.3997 84.1452 18.0562 83.1772 18.0562 81.9906V30H81.9438V81.9906C81.9438 83.1772 81.5691 84.1452 80.8197 84.8946C80.1327 85.5816 79.1959 85.9251 78.0094 85.9251Z"
        fill="currentcolor" />
</svg>