<svg width="100" height="100" viewBox="0 0 100 100" fill="none" xmlns="http://www.w3.org/2000/svg">
    <path
        d="M89.5316 24.3794C89.5316 24.3794 89.5004 24.3169 89.4379 24.192C89.4379 24.0671 89.3443 24.0047 89.1569 24.0047C89.1569 24.0047 89.1257 23.9422 89.0632 23.8173C89.0632 23.6924 88.9696 23.63 88.7822 23.63L76.7916 7.61124C76.6042 6.98673 76.2295 6.5808 75.6674 6.39345C75.1678 6.14364 74.6058 6.01874 73.9813 6.01874H26.0187C25.3942 6.01874 24.8009 6.14364 24.2389 6.39345C23.6768 6.5808 23.2084 6.98673 22.8337 7.61124L10.8431 23.63C10.8431 23.63 10.8119 23.6924 10.7494 23.8173C10.7494 23.9422 10.6557 24.0047 10.4684 24.0047C10.4684 24.0047 10.4372 24.0671 10.3747 24.192C10.3747 24.3169 10.2498 24.3794 10 24.3794C10 24.8166 10 25.16 10 25.4098C10 25.5972 10 25.7845 10 25.9719V81.9906C10 85.363 11.1553 88.2045 13.466 90.5152C15.7767 92.8259 18.6183 93.9813 21.9906 93.9813H78.0094C81.3817 93.9813 84.2233 92.8259 86.534 90.5152C88.8447 88.2045 90 85.363 90 81.9906V25.9719C90 25.7845 89.9688 25.5972 89.9063 25.4098C89.9063 25.16 89.7814 24.8166 89.5316 24.3794ZM27.9859 13.9813H72.014L78.0094 22.0375H21.9906L27.9859 13.9813ZM78.0094 85.9251H21.9906C20.8041 85.9251 19.8361 85.5816 19.0867 84.8946C18.3997 84.1452 18.0562 83.1772 18.0562 81.9906V30H81.9438V81.9906C81.9438 83.1772 81.5691 84.1452 80.8197 84.8946C80.1327 85.5816 79.1959 85.9251 78.0094 85.9251ZM66.0187 37.9625C64.7697 37.9625 63.7705 38.3372 63.0211 39.0867C62.3341 39.8361 61.9906 40.8041 61.9906 41.9906C61.9906 45.363 60.8353 48.2045 58.5246 50.5152C56.2139 52.8259 53.3724 53.9813 50 53.9813C46.6276 53.9813 43.7861 52.8259 41.4754 50.5152C39.1647 48.2045 38.0094 45.363 38.0094 41.9906C38.0094 40.8041 37.6347 39.8361 36.8852 39.0867C36.1983 38.3372 35.2303 37.9625 33.9813 37.9625C32.7947 37.9625 31.8267 38.3372 31.0773 39.0867C30.3903 39.8361 30.0468 40.8041 30.0468 41.9906C30.0468 44.8009 30.5464 47.4239 31.5457 49.8595C32.6073 52.2951 34.0125 54.4184 35.7611 56.2295C37.5722 57.9781 39.6956 59.3833 42.1311 60.445C44.5667 61.4442 47.1897 61.9438 50 61.9438C52.8103 61.9438 55.4333 61.4442 57.8689 60.445C60.3044 59.3833 62.3966 57.9781 64.1452 56.2295C65.9563 54.4184 67.3927 52.2951 68.4543 49.8595C69.4536 47.4239 69.9532 44.8009 69.9532 41.9906C69.9532 40.8041 69.5785 39.8361 68.829 39.0867C68.1421 38.3372 67.2053 37.9625 66.0187 37.9625Z"
        fill="currentcolor" />
    <rect x="15.8715" y="67.6215" width="68.257" height="19.6002" fill="currentcolor" />
</svg>