<svg width="100" height="100" viewBox="0 0 100 100" fill="none" xmlns="http://www.w3.org/2000/svg">
    <path fill-rule="evenodd" clip-rule="evenodd"
        d="M89.4379 24.192L89.5316 24.3794C89.7814 24.8166 89.9063 25.16 89.9063 25.4098C89.9688 25.5972 90 25.7845 90 25.9719V81.9906C90 85.363 88.8447 88.2045 86.534 90.5152C84.2233 92.8259 81.3817 93.9813 78.0094 93.9813H21.9906C18.6183 93.9813 15.7767 92.8259 13.466 90.5152C11.1553 88.2045 10 85.363 10 81.9906V25.9719V25.4098V24.3794C10.2498 24.3794 10.3747 24.3169 10.3747 24.192L10.4684 24.0047C10.6557 24.0047 10.7494 23.9422 10.7494 23.8173L10.8431 23.63L22.8337 7.61124C23.2084 6.98673 23.6768 6.5808 24.2389 6.39345C24.8009 6.14364 25.3942 6.01874 26.0187 6.01874H73.9813C74.6058 6.01874 75.1678 6.14364 75.6674 6.39345C76.2295 6.5808 76.6042 6.98673 76.7916 7.61124L88.7822 23.63C88.9696 23.63 89.0632 23.6924 89.0632 23.8173L89.1569 24.0047C89.3443 24.0047 89.4379 24.0671 89.4379 24.192ZM72.014 13.9813H27.9859L21.9906 22.0375H78.0094L72.014 13.9813ZM19.0867 84.8946C19.8361 85.5816 20.8041 85.9251 21.9906 85.9251H78.0094C79.1959 85.9251 80.1327 85.5816 80.8197 84.8946C81.5691 84.1452 81.9438 83.1772 81.9438 81.9906V30H18.0562V81.9906C18.0562 83.1772 18.3997 84.1452 19.0867 84.8946ZM61.9906 43.0094C63.0523 43.0094 63.989 43.3845 64.8009 44.1348C65.6128 44.9477 66.0187 45.8856 66.0187 46.9484C66.0187 48.0113 65.6128 48.9492 64.8009 49.762L55.6206 58.9531L64.8009 68.1442C65.6128 68.9571 66.0187 69.8949 66.0187 70.9578C66.0187 72.0207 65.6128 72.9586 64.8009 73.7714C64.3637 74.2091 63.8798 74.5217 63.3489 74.7093C62.8181 74.8969 62.3653 74.9906 61.9906 74.9906C61.6159 74.9906 61.1632 74.8969 60.6323 74.7093C60.1014 74.5217 59.6175 74.2091 59.1803 73.7714L50 64.5803L40.8197 73.7714C40.3825 74.2091 39.9609 74.5217 39.555 74.7093C39.1491 74.8969 38.6339 74.9906 38.0094 74.9906C37.3848 74.9906 36.8696 74.8969 36.4637 74.7093C36.0578 74.5217 35.6362 74.2091 35.1991 73.7714C34.3872 72.9586 33.9813 72.0207 33.9813 70.9578C33.9813 69.8949 34.3872 68.9571 35.1991 68.1442L44.3794 58.9531L35.1991 49.762C34.3872 48.9492 33.9813 48.0113 33.9813 46.9484C33.9813 45.8856 34.3872 44.9477 35.1991 44.1348C36.011 43.3845 36.9477 43.0094 38.0094 43.0094C39.071 43.0094 40.0078 43.3845 40.8197 44.1348L50 53.4197L59.1803 44.1348C59.9922 43.3845 60.929 43.0094 61.9906 43.0094Z"
        fill="currentcolor" />
</svg>