<svg width="100" height="100" viewBox="0 0 100 100" fill="none" xmlns="http://www.w3.org/2000/svg">
    <path fill-rule="evenodd" clip-rule="evenodd"
        d="M89.4379 24.192L89.5316 24.3794C89.7814 24.8166 89.9063 25.16 89.9063 25.4098C89.9688 25.5972 90 25.7845 90 25.9719V81.9906C90 85.363 88.8447 88.2045 86.534 90.5152C84.2233 92.8259 81.3817 93.9813 78.0094 93.9813H21.9906C18.6183 93.9813 15.7767 92.8259 13.466 90.5152C11.1553 88.2045 10 85.363 10 81.9906V25.9719V25.4098V24.3794C10.2498 24.3794 10.3747 24.3169 10.3747 24.192L10.4684 24.0047C10.6557 24.0047 10.7494 23.9422 10.7494 23.8173L10.8431 23.63L22.8337 7.61124C23.2084 6.98673 23.6768 6.5808 24.2389 6.39345C24.8009 6.14364 25.3942 6.01874 26.0187 6.01874H73.9813C74.6058 6.01874 75.1678 6.14364 75.6674 6.39345C76.2295 6.5808 76.6042 6.98673 76.7916 7.61124L88.7822 23.63C88.9696 23.63 89.0632 23.6924 89.0632 23.8173L89.1569 24.0047C89.3443 24.0047 89.4379 24.0671 89.4379 24.192ZM72.014 13.9813H27.9859L21.9906 22.0375H78.0094L72.014 13.9813ZM19.0867 84.8946C19.8361 85.5816 20.8041 85.9251 21.9906 85.9251H78.0094C79.1959 85.9251 80.1327 85.5816 80.8197 84.8946C81.5691 84.1452 81.9438 83.1772 81.9438 81.9906V30H18.0562V81.9906C18.0562 83.1772 18.3997 84.1452 19.0867 84.8946ZM42.3241 36.9968C46.4179 35.048 50.6076 34.8083 54.8934 36.278C58.1556 37.492 60.8262 39.5367 62.9051 42.4121C64.984 45.2875 66.1514 48.5463 66.4072 52.1885C66.4072 54.8722 65.6716 57.1725 64.2004 59.0895C62.7931 61.0703 61.1941 62.7156 59.403 64.0256C57.6119 65.3355 55.9169 66.3099 54.3177 66.9489C52.6546 67.6517 51.6311 68.0671 51.2473 68.1949C51.0554 68.3866 50.8475 68.4984 50.6237 68.5303C50.3998 68.5623 50.1919 68.5783 50 68.5783C49.1684 68.5783 48.4008 68.3067 47.6972 67.7636C46.9936 67.2204 46.5458 66.5336 46.3539 65.7029C45.9062 64.4888 45.9382 63.4026 46.4499 62.4441C46.9616 61.4856 47.7292 60.8147 48.7527 60.4313C49.968 59.7923 51.8391 58.7061 54.3657 57.1725C56.8923 55.639 58.1556 53.8498 58.1556 51.8051C58.1556 49.9521 57.6759 48.3546 56.7164 47.0128C55.7569 45.6709 54.4776 44.6805 52.8785 44.0415C50.6397 43.2108 48.5128 43.3067 46.4979 44.3291C44.4829 45.3515 43.0597 46.885 42.2281 48.9297C41.8443 49.9521 41.1087 50.7189 40.0213 51.23C38.9339 51.7412 37.8785 51.8051 36.855 51.4217C35.6396 51.23 34.8081 50.591 34.3603 49.5048C33.9125 48.4186 33.8166 47.2684 34.0725 46.0543C35.4798 41.9648 38.2302 38.9457 42.3241 36.9968ZM46.21 75.8339C46.4339 75.3866 46.7377 74.9712 47.1215 74.5879C47.9531 73.7572 48.9126 73.3419 50 73.3419C51.0874 73.3419 52.0469 73.7572 52.8785 74.5879C53.2623 74.9712 53.5661 75.4345 53.79 75.9776C54.0138 76.5208 54.1258 77.0159 54.1258 77.4633C54.1258 77.8466 54.0138 78.3099 53.79 78.853C53.5661 79.3962 53.2623 79.8913 52.8785 80.3387C52.4307 80.722 51.9989 81.0096 51.5832 81.2013C51.1674 81.393 50.6397 81.4888 50 81.4888C49.3603 81.4888 48.8326 81.393 48.4168 81.2013C48.0011 81.0096 47.5693 80.722 47.1215 80.3387C46.7377 79.8913 46.4339 79.4441 46.21 78.9968C45.9862 78.5495 45.8742 78.0383 45.8742 77.4633C45.8742 76.8242 45.9862 76.2812 46.21 75.8339Z"
        fill="currentcolor" />
</svg>