<svg width="100" height="100" viewBox="0 0 100 100" fill="none" xmlns="http://www.w3.org/2000/svg">
    <path fill-rule="evenodd" clip-rule="evenodd"
        d="M89.4379 24.192L89.5316 24.3794C89.7814 24.8166 89.9063 25.16 89.9063 25.4098C89.9688 25.5972 90 25.7845 90 25.9719V81.9906C90 85.363 88.8447 88.2045 86.534 90.5152C84.2233 92.8259 81.3817 93.9813 78.0094 93.9813H55.5555C55.4268 93.9937 55.2964 94 55.1646 94C52.9404 94 51.1374 92.197 51.1374 89.9728C51.1374 87.8038 52.8522 86.0353 55 85.949V85.9251H78.0094C79.1959 85.9251 80.1327 85.5816 80.8197 84.8946C81.5691 84.1452 81.9438 83.1772 81.9438 81.9906V30H18.0562V55H18.0503C18.053 55.06 18.0543 55.1202 18.0543 55.1808C18.0543 57.405 16.2513 59.208 14.0272 59.208C11.803 59.208 10 57.405 10 55.1808C10 55.1202 10.0013 55.06 10.004 55H10V25.9719V25.4098V24.3794C10.2498 24.3794 10.3747 24.3169 10.3747 24.192L10.4684 24.0047C10.6557 24.0047 10.7494 23.9422 10.7494 23.8173L10.8431 23.63L22.8337 7.61124C23.2084 6.98673 23.6768 6.5808 24.2389 6.39345C24.8009 6.14364 25.3942 6.01874 26.0187 6.01874H73.9813C74.6058 6.01874 75.1678 6.14364 75.6674 6.39345C76.2295 6.5808 76.6042 6.98673 76.7916 7.61124L88.7822 23.63C88.9696 23.63 89.0632 23.6924 89.0632 23.8173L89.1569 24.0047C89.3443 24.0047 89.4379 24.0671 89.4379 24.192ZM72.0141 13.9813H27.9859L21.9906 22.0375H78.0094L72.0141 13.9813ZM48.9662 75.9447C49.1505 75.5148 49.2426 75.0235 49.2426 74.4708C49.2426 73.9181 49.1505 73.3654 48.9662 72.8127C48.782 72.567 48.6438 72.3521 48.5517 72.1678C48.4596 71.9836 48.3214 71.7994 48.1372 71.6151L32.477 55.8628C31.6786 55.0645 30.7574 54.6653 29.7134 54.6653C28.6694 54.6653 27.7482 55.0645 26.9498 55.8628C26.1515 56.6612 25.7523 57.5824 25.7523 58.6264C25.7523 59.6704 26.1515 60.5916 26.9498 61.3899L35.9775 70.4176H8.96111C7.79424 70.4176 6.84238 70.7707 6.10543 71.477C5.36848 72.1832 5 73.1505 5 74.3787C5 75.5456 5.36848 76.482 6.10543 77.1883C6.84238 77.8946 7.79424 78.2477 8.96111 78.2477H35.9775L26.9498 87.2753C26.1515 88.0737 25.7523 88.9949 25.7523 90.0389C25.7523 91.0829 26.1515 92.004 26.9498 92.8024C27.3183 93.2324 27.7175 93.5394 28.1474 93.7236C28.5773 93.9079 29.0993 94 29.7134 94C30.2661 94 30.7574 93.9079 31.1873 93.7236C31.6172 93.5394 32.0471 93.2324 32.477 92.8024L48.1372 77.1423C48.3214 76.8966 48.5056 76.6817 48.6899 76.4974C48.8741 76.3132 48.9662 76.1289 48.9662 75.9447ZM32.3238 38.3682C34.2884 37.4614 36.6087 38.2828 37.573 40.2017C37.596 40.2395 37.6639 40.3457 37.7874 40.4992C38.0337 40.8051 38.5118 41.3119 39.3235 41.8458C40.9045 42.886 44.0549 44.2257 49.8463 44.003C55.7855 43.7745 59.1013 42.421 60.8038 41.3905C61.6628 40.8706 62.1547 40.4072 62.3923 40.1504C62.4912 40.0436 62.5491 39.9692 62.5729 39.9371C63.6712 38.1095 66.026 37.4578 67.9154 38.4884C69.8548 39.5463 70.5694 41.976 69.5116 43.9154L66 42C69.5116 43.9154 69.5099 43.9185 69.5082 43.9216L69.5047 43.9279L69.4976 43.9409L69.4821 43.9685C69.4714 43.9876 69.4597 44.008 69.447 44.0297C69.4217 44.0732 69.3925 44.1219 69.3592 44.1754C69.2925 44.2826 69.2093 44.4092 69.1077 44.5523C68.9044 44.8387 68.6281 45.1904 68.264 45.5839C67.5328 46.3741 66.4622 47.3169 64.9462 48.2345C61.8987 50.079 57.2145 51.7255 50.1537 51.997C42.9451 52.2743 38.0955 50.614 34.9265 48.5292C33.3632 47.5006 32.2788 46.4137 31.5563 45.5164C31.1964 45.0694 30.9284 44.6722 30.736 44.3557C30.6399 44.1975 30.5625 44.0592 30.5019 43.9448C30.4716 43.8876 30.4455 43.8363 30.4233 43.7914C30.4122 43.769 30.4021 43.7481 30.3929 43.7289L30.3798 43.7013L30.3738 43.6885L30.371 43.6823C30.3696 43.6792 30.3682 43.6762 34 42L30.3682 43.6762C29.4424 41.6704 30.318 39.2939 32.3238 38.3682Z"
        fill="currentcolor" />
</svg>