<svg width="100" height="100" viewBox="0 0 100 100" fill="none" xmlns="http://www.w3.org/2000/svg">
    <rect x="15" y="15" width="70" height="70" rx="14" stroke="currentcolor" stroke-width="8" stroke-linejoin="round" />
    <path fill-rule="evenodd" clip-rule="evenodd"
        d="M48.8963 32.8456C46.7724 32.2377 45.5435 30.0232 46.1513 27.8994C46.7592 25.7755 48.9737 24.5465 51.0975 25.1544C58.3511 27.2304 61.2413 33.8324 60.9836 39.6763C60.8026 43.7791 59.0542 48.1997 55.6589 51.1373C56.9323 52.2118 58.6956 52.904 60.6762 52.9913C63.9006 53.1336 66.3667 51.6484 67.1544 48.8963C67.7622 46.7725 69.9767 45.5435 72.1006 46.1513C74.2245 46.7592 75.4534 48.9737 74.8456 51.0976C72.7696 58.3511 66.1676 61.2413 60.3237 60.9836C56.0936 60.797 51.5256 58.9442 48.5935 55.3381C47.5704 56.5393 46.9613 58.2999 47.0017 60.4239C47.0666 63.8364 48.7941 66.4278 51.1981 67.1846C53.3053 67.848 54.4757 70.094 53.8123 72.2012C53.1489 74.3084 50.9029 75.4788 48.7957 74.8154C42.1038 72.7086 39.1108 66.2318 39.0031 60.5761C38.9206 56.2375 40.5277 51.3484 44.3413 48.3401C43.1566 47.4709 41.5183 46.9648 39.5761 47.0017C36.1636 47.0667 33.5722 48.7941 32.8154 51.1981C32.152 53.3053 29.906 54.4757 27.7988 53.8123C25.6916 53.1489 24.5212 50.9029 25.1846 48.7957C27.2914 42.1038 33.7682 39.1108 39.4239 39.0032C43.6373 38.923 48.3699 40.4364 51.3948 44.0167C52.3216 42.7758 52.9112 41.1412 52.9913 39.3237C53.1335 36.0994 51.6484 33.6332 48.8963 32.8456Z"
        fill="currentcolor" />
</svg>