<svg width="100" height="100" viewBox="0 0 100 100" fill="none" xmlns="http://www.w3.org/2000/svg">
    <path fill-rule="evenodd" clip-rule="evenodd"
        d="M40 3C42.2091 3 44 4.79086 44 7V8.19085C52.8018 9.02859 61.6058 12.6028 71.9159 18.4878C72.041 18.5562 72.1634 18.6319 72.2826 18.7149C72.6661 18.9808 72.9904 19.3044 73.2504 19.6671C73.6028 20.1573 73.8329 20.7133 73.9366 21.2899C74.0406 21.865 74.0196 22.4649 73.8618 23.046C73.7449 23.4788 73.5533 23.8974 73.2853 24.2822C73.2032 24.4007 73.1156 24.5135 73.023 24.6206L63.7426 35.757L58.1421 66H63.007L72.1625 34.8713C72.6632 33.169 74.2256 32 76 32H90C92.2091 32 94 33.7909 94 36V88C94 90.2091 92.2091 92 90 92H80.4V93.1C80.4 95.3091 78.6091 97.1 76.4 97.1C74.1909 97.1 72.4 95.3091 72.4 93.1V92H30V93C30 95.2091 28.2091 97 26 97C23.7909 97 22 95.2091 22 93V92H10C7.79086 92 6 90.2091 6 88V70C6 68.9391 6.42143 67.9217 7.17157 67.1716C7.92172 66.4214 8.93913 66 10 66H21.8579L16.2574 35.757L6.97701 24.6206C6.88424 24.5134 6.79645 24.4003 6.71419 24.2815C6.44735 23.8982 6.25632 23.4813 6.13935 23.0503C5.98046 22.4679 5.95913 21.8665 6.06343 21.2899C6.16713 20.7133 6.39723 20.1573 6.74961 19.667C7.00975 19.3041 7.3343 18.9803 7.71817 18.7144C7.83709 18.6316 7.95923 18.5561 8.08402 18.4879C18.3941 12.6028 27.1982 9.0286 36 8.19085V7C36 4.79086 37.7909 3 40 3ZM16.1799 23.1676L21.8735 30H58.1265L63.8201 23.1676C54.4546 18.244 47.1128 16 40 16C32.8872 16 25.5454 18.244 16.1799 23.1676ZM24.8088 38L29.9939 66H50.0061L55.1913 38H24.8088ZM14 74H26.6667H53.3333H66C67.7744 74 69.3368 72.831 69.8375 71.1287L78.993 40H86V84H26H14V74Z"
        fill="currentcolor" />
</svg>