<svg width="100" height="100" viewBox="0 0 100 100" fill="none" xmlns="http://www.w3.org/2000/svg">
    <path fill-rule="evenodd" clip-rule="evenodd"
        d="M29 7C26.7909 7 25 8.79086 25 11V19H12C10.8218 19 9.70349 19.5194 8.94347 20.4198C8.18345 21.3201 7.85901 22.5097 8.05672 23.6712L15.2616 66H10C8.93913 66 7.92172 66.4214 7.17157 67.1716C6.42143 67.9217 6 68.9391 6 70V88C6 90.2091 7.79086 92 10 92H22V93C22 95.2091 23.7909 97 26 97C28.2091 97 30 95.2091 30 93V92H72.4V93.1C72.4 95.3091 74.1909 97.1 76.4 97.1C78.6091 97.1 80.4 95.3091 80.4 93.1V92H90C92.2091 92 94 90.2091 94 88V36C94 33.7909 92.2091 32 90 32H76C74.2256 32 72.6632 33.169 72.1625 34.8713L63.007 66H58.7384L65.9433 23.6712C66.141 22.5097 65.8166 21.3201 65.0565 20.4198C64.2965 19.5194 63.1782 19 62 19H49V11C49 8.79086 47.2091 7 45 7H29ZM41 19V15H33V19H41ZM29 27H16.7384L23.3767 66H50.6233L57.2616 27H45H29ZM14 74H20H54H66C67.7744 74 69.3368 72.831 69.8375 71.1287L78.993 40H86V84H26H14V74Z"
        fill="currentcolor" />
</svg>