<svg width="100" height="100" viewBox="0 0 100 100" fill="none" xmlns="http://www.w3.org/2000/svg">
    <path fill-rule="evenodd" clip-rule="evenodd"
        d="M33 30C35.2091 30 37 31.7909 37 34V38.1868C47.8526 39.1837 55.8568 44.096 60.4233 51.0998C61.443 50.4354 62.547 49.8845 63.652 49.4204C67.4461 47.8269 72.2699 46.8436 76.7867 46.2112C81.3667 45.57 85.9141 45.2531 89.2952 45.0953C90.9914 45.0162 92.4069 44.9765 93.4025 44.9566C93.9006 44.9466 94.2942 44.9416 94.5661 44.9391C94.7021 44.9378 94.8076 44.9371 94.8807 44.9368L94.9656 44.9365L94.9986 44.9365C94.9987 44.9365 94.9988 44.9365 94.9989 44.948C95.0695 44.9443 95.1405 44.9424 95.212 44.9424C97.4176 44.9424 99.2055 46.7304 99.2055 48.9359C99.2055 51.1415 97.4176 52.9295 95.212 52.9295C95.141 52.9295 95.0705 52.9276 95.0005 52.924C95.0006 52.9365 95.0006 52.9365 95.0006 52.9365L94.9833 52.9365L94.9168 52.9367C94.8562 52.937 94.7635 52.9376 94.6408 52.9387C94.3953 52.941 94.0302 52.9456 93.5625 52.955C92.6266 52.9737 91.283 53.0113 89.6682 53.0866C86.4273 53.2379 82.1453 53.539 77.8959 54.1339C73.5834 54.7377 69.5778 55.6085 66.7499 56.7963C65.3319 57.3918 64.4625 57.9647 63.9999 58.4181C63.7858 58.6279 63.7111 58.7614 63.6907 58.8044C63.689 58.8079 63.6876 58.8109 63.6866 58.8134C63.6857 58.8155 63.685 58.8173 63.6845 58.8188L63.6836 58.8213C63.6839 59.074 63.6601 59.324 63.6137 59.5684C61.627 71.2359 51.5148 79.7778 39.6709 79.7778H26.0116C14.1677 79.7778 4.05546 71.2358 2.06877 59.5681C2.00556 59.2352 1.98429 58.8916 2.00891 58.5451C2.03293 58.1989 2.10188 57.8621 2.21078 57.5416C5.52792 47.1287 14.8836 39.3502 29 38.1588V34C29 31.7909 30.7909 30 33 30ZM53.2708 54.8254C49.6143 49.7264 42.9692 46 32.8413 46C22.7134 46 16.0683 49.7264 12.4117 54.8254H53.2708ZM39.6709 71.7778C45.9527 71.7778 51.5081 68.1947 54.2159 62.8254H11.4667C14.1745 68.1947 19.7298 71.7778 26.0116 71.7778H39.6709Z"
        fill="currentcolor" />
</svg>