<svg width="100" height="100" viewBox="0 0 100 100" fill="none" xmlns="http://www.w3.org/2000/svg">
    <path fill-rule="evenodd" clip-rule="evenodd"
        d="M30.6809 16.8209C31.674 14.8476 34.0788 14.053 36.0521 15.0461C39.7563 16.9103 42.3487 19.3456 43.4057 22.4616C44.4714 25.6027 43.665 28.5096 42.5777 30.6203C41.4994 32.7134 39.9629 34.4073 38.8171 35.5112C38.2252 36.0814 37.6915 36.5379 37.2987 36.8572C37.1014 37.0176 36.9373 37.1454 36.8162 37.2375C36.7556 37.2837 36.7055 37.321 36.6673 37.3493L36.6189 37.3848L36.6015 37.3974L36.6007 37.398L36.6 37.3986L36.5951 37.4021C36.586 37.4088 36.5662 37.4236 36.5368 37.446C36.4779 37.4908 36.3813 37.5657 36.2557 37.6678C36.0029 37.8733 35.6426 38.181 35.2412 38.5677C34.4004 39.3777 33.553 40.369 33.042 41.3609C32.54 42.3353 32.5517 42.9135 32.6781 43.2859C32.8129 43.6835 33.3992 44.7903 36.0521 46.1254C38.0255 47.1185 38.8201 49.5233 37.827 51.4967C36.8339 53.47 34.4291 54.2646 32.4558 53.2715C28.7516 51.4073 26.1592 48.972 25.1021 45.856C24.0365 42.7148 24.8429 39.808 25.9302 37.6973C27.0085 35.6041 28.545 33.9103 29.6908 32.8064C30.2827 32.2361 30.8164 31.7797 31.2092 31.4603C31.4065 31.2999 31.5706 31.1722 31.6917 31.08C31.7523 31.0339 31.8024 30.9965 31.8406 30.9683L31.889 30.9327L31.9063 30.9201L31.9071 30.9196L31.9073 30.9194L31.9075 30.9193L31.9128 30.9154C31.9219 30.9087 31.9417 30.894 31.9711 30.8716C32.03 30.8267 32.1266 30.7518 32.2522 30.6498C32.505 30.4442 32.8653 30.1366 33.2667 29.7499C34.1075 28.9398 34.9549 27.9485 35.4659 26.9566C35.9679 25.9822 35.9562 25.4041 35.8298 25.0317C35.6949 24.6341 35.1087 23.5273 32.4558 22.1921C30.4824 21.199 29.6878 18.7942 30.6809 16.8209ZM31.9165 30.9128L31.9163 30.913C31.9176 30.912 31.9189 30.9111 34.0936 33.9357C31.9189 30.9111 31.9177 30.9119 31.9165 30.9128ZM36.5916 37.4046C36.5903 37.4056 36.5889 37.4065 34.2539 34.1588C36.5889 37.4065 36.5902 37.4056 36.5913 37.4048L36.5916 37.4046ZM16.6337 26.5524C14.7735 25.3608 12.2995 25.903 11.108 27.7632C9.91642 29.6235 10.4585 32.0974 12.3188 33.289C12.8059 33.601 13.0503 33.8523 13.1657 33.998C13.2713 34.1314 13.2898 34.2014 13.293 34.2133L13.2931 34.2139C13.2976 34.2308 13.3435 34.4191 13.1524 34.8913C12.9589 35.3693 12.6241 35.8752 12.2704 36.3089C12.1044 36.5125 11.9577 36.6715 11.8608 36.7719C11.8129 36.8214 11.7789 36.8548 11.763 36.8702L11.7559 36.877L11.7516 36.881L11.7177 36.9126C11.6921 36.9367 11.6605 36.9669 11.6233 37.0028C11.5492 37.0746 11.4528 37.1702 11.3393 37.2877C11.1134 37.5213 10.8131 37.8486 10.4825 38.254C9.84288 39.0382 8.98568 40.2411 8.38453 41.7263C7.78102 43.2173 7.3378 45.2467 7.92927 47.4657C8.53911 49.7536 10.0856 51.6363 12.3188 53.0667C14.179 54.2583 16.653 53.7162 17.8445 51.8559C19.0361 49.9957 18.494 47.5217 16.6337 46.3302C16.1466 46.0181 15.9022 45.7668 15.7868 45.6211C15.6812 45.4877 15.6627 45.4177 15.6595 45.4058L15.6594 45.4052C15.6549 45.3883 15.609 45.2 15.8001 44.7278C15.9936 44.2498 16.3284 43.7439 16.6821 43.3102C16.8481 43.1066 16.9947 42.9476 17.0917 42.8473C17.1396 42.7977 17.1736 42.7643 17.1895 42.749L17.1965 42.7421L17.2009 42.7381L17.2348 42.7065C17.2604 42.6824 17.292 42.6523 17.3292 42.6163C17.4033 42.5445 17.4997 42.4489 17.6132 42.3315C17.8391 42.0978 18.1394 41.7705 18.47 41.3651C19.1096 40.5809 19.9668 39.378 20.568 37.8928C21.1715 36.4018 21.6147 34.3724 21.0232 32.1534C20.4134 29.8655 18.8669 27.9828 16.6337 26.5524ZM11.7735 36.8608L11.7736 36.8607C11.7747 36.8597 11.7759 36.8586 14.2908 39.6069C11.7759 36.8586 11.7747 36.8597 11.7735 36.8608ZM14.4762 39.8096C17.1765 42.7606 17.1778 42.7594 17.179 42.7583L17.1789 42.7584C17.1777 42.7595 17.1765 42.7606 14.4762 39.8096ZM63.6907 63.8044C63.6859 63.8144 63.684 63.8199 63.6832 63.8228C63.6831 64.0405 63.6651 64.2612 63.6281 64.4831C61.6763 76.1943 51.5437 84.7778 39.6709 84.7778H26.0116C14.1389 84.7778 4.00629 76.1943 2.05442 64.4831C1.88377 63.4591 2.11834 62.4613 2.64108 61.6534C2.69293 61.5732 2.7478 61.4947 2.80563 61.418C3.3806 60.6548 4.22831 60.0951 5.23409 59.8994C5.30539 59.8855 5.37718 59.8735 5.44939 59.8635C5.65988 59.8341 5.86901 59.8218 6.07536 59.8255H56.7497C57.2036 59.0271 57.7733 58.319 58.4004 57.7044C59.8692 56.265 61.759 55.2155 63.652 54.4204C67.4461 52.8269 72.2699 51.8436 76.7867 51.2112C81.3667 50.57 85.9141 50.2531 89.2952 50.0953C90.9914 50.0162 92.4069 49.9765 93.4025 49.9566C93.9006 49.9466 94.2942 49.9416 94.5661 49.9391C94.7021 49.9378 94.8076 49.9371 94.8807 49.9368L94.9656 49.9365L94.9986 49.9365C94.9987 49.9365 94.9988 49.9365 94.9989 49.948C95.0695 49.9443 95.1405 49.9424 95.212 49.9424C97.4176 49.9424 99.2056 51.7304 99.2056 53.936C99.2056 56.1415 97.4176 57.9295 95.212 57.9295C95.1411 57.9295 95.0705 57.9277 95.0005 57.924L95.0006 57.9365L94.9833 57.9365L94.9168 57.9367C94.8562 57.937 94.7635 57.9376 94.6408 57.9387C94.3953 57.941 94.0302 57.9456 93.5625 57.955C92.6266 57.9737 91.283 58.0113 89.6682 58.0866C86.4273 58.2379 82.1453 58.539 77.8959 59.134C73.5834 59.7377 69.5779 60.6085 66.7499 61.7963C65.3319 62.3918 64.4625 62.9648 63.9999 63.4181C63.7858 63.6279 63.7111 63.7615 63.6907 63.8044ZM54.2159 67.8255C51.5081 73.1948 45.9527 76.7778 39.6709 76.7778H26.0116C19.7298 76.7778 14.1745 73.1948 11.4667 67.8255H54.2159ZM52.8706 31.934C50.8617 31.0149 48.4881 31.8984 47.569 33.9073C46.6898 35.8289 47.46 38.0843 49.287 39.081C49.2101 39.1432 49.1425 39.1949 49.0897 39.2339C49.0453 39.2667 49.0141 39.2886 49.0003 39.2982L48.9958 39.3013L48.9927 39.3033L48.9577 39.3266C48.9314 39.3444 48.8988 39.3665 48.8606 39.3929C48.7844 39.4456 48.6852 39.5159 48.5682 39.6023C48.3362 39.7738 48.0239 40.0167 47.677 40.3205C47.0296 40.8875 46.0572 41.8425 45.3424 43.1039C44.6155 44.3866 43.9144 46.4548 44.7769 48.7662C45.603 50.9799 47.4963 52.3997 49.5422 53.3358C51.5511 54.2549 53.9247 53.3714 54.8438 51.3626C55.723 49.4409 54.9527 47.1855 53.1258 46.1888C53.2026 46.1266 53.2703 46.075 53.3231 46.0359C53.3675 46.0031 53.3987 45.9813 53.4125 45.9717L53.417 45.9686L53.4201 45.9665L53.455 45.9432C53.467 45.9352 53.4802 45.9262 53.4947 45.9164C53.5121 45.9045 53.5313 45.8914 53.5522 45.8769C53.6284 45.8242 53.7276 45.754 53.8446 45.6675C54.0766 45.496 54.3889 45.2531 54.7358 44.9493C55.3832 44.3823 56.3556 43.4273 57.0704 42.1659C57.7973 40.8832 58.4984 38.815 57.6359 36.5036C56.8098 34.2899 54.9165 32.8701 52.8706 31.934ZM50.3587 39.6867C50.3585 39.6868 50.3553 39.6838 50.3497 39.6776C50.3561 39.6836 50.3589 39.6867 50.3587 39.6867ZM52.0631 45.5922C52.0567 45.5863 52.0539 45.5832 52.054 45.5831C52.0542 45.583 52.0574 45.586 52.0631 45.5922ZM49.0154 39.2884L49.0155 39.2883C49.0167 39.2875 49.0179 39.2867 50.9598 42.2577C49.0179 39.2867 49.0166 39.2875 49.0154 39.2884ZM51.2064 42.6349C53.3948 45.9832 53.3961 45.9823 53.3974 45.9815L53.3973 45.9816C53.3961 45.9824 53.3948 45.9832 51.2064 42.6349Z"
        fill="currentcolor" />
</svg>