<svg width="100" height="100" viewBox="0 0 100 100" fill="none" xmlns="http://www.w3.org/2000/svg">
    <path fill-rule="evenodd" clip-rule="evenodd"
        d="M50 22.2C49.6625 22.2 49.3366 22.2121 49.0235 22.2346C49.1806 22.4307 49.3325 22.6377 49.4782 22.8562C49.6686 23.1418 49.8427 23.4388 50 23.7469C50.1573 23.4388 50.3314 23.1418 50.5218 22.8562C50.6675 22.6378 50.8194 22.4308 50.9765 22.2346C50.6634 22.2121 50.3374 22.2 50 22.2ZM58.8597 26.5996C61.0413 26.5677 62.7999 24.7892 62.7999 22.6C62.7999 19.0537 60.0291 16.9199 58.0113 15.911C55.7544 14.7826 52.9163 14.2 50 14.2C47.0836 14.2 44.2455 14.7826 41.9886 15.911C39.9709 16.9199 37.2 19.0537 37.2 22.6C37.2 24.7893 38.9587 26.5677 41.1404 26.5996L41.167 26.6013C41.2211 26.6051 41.3245 26.6148 41.459 26.6372C41.7471 26.6852 42.07 26.7738 42.3444 26.911C42.6032 27.0404 42.7404 27.1717 42.8218 27.2938C42.885 27.3886 43.0585 27.686 43.0663 28.4151C42.9983 28.4555 42.8902 28.5108 42.7288 28.5713C42.3815 28.7016 41.9771 28.7842 41.6205 28.8288C41.4525 28.8498 41.3186 28.8595 41.2381 28.8638C41.2061 28.8655 41.1838 28.8663 41.1723 28.8666H11.8667C10.2488 28.8666 8.79031 29.8412 8.17118 31.3359C7.55206 32.8306 7.89428 34.5511 9.03827 35.6951L13.7334 40.3902V45.6373C11.6081 44.4198 9.02944 43.6 6 43.6C3.79086 43.6 2 45.3908 2 47.6C2 49.8091 3.79086 51.6 6 51.6C8.30325 51.6 10.0463 52.529 11.386 53.8009C12.5507 54.9066 13.328 56.2052 13.7334 57.1357V73.9333C13.7334 79.3825 18.1508 83.8 23.6 83.8H76.4C81.8492 83.8 86.2667 79.3825 86.2667 73.9333V57.1356C86.6721 56.205 87.4494 54.9066 88.614 53.8009C89.9537 52.529 91.6967 51.6 94 51.6C96.2091 51.6 98 49.8091 98 47.6C98 45.3908 96.2091 43.6 94 43.6C90.9706 43.6 88.3919 44.4198 86.2667 45.6372V40.3902L90.9618 35.6951C92.1058 34.5511 92.448 32.8306 91.8289 31.3359C91.2098 29.8412 89.7512 28.8666 88.1334 28.8666H58.8277L58.8252 28.8666L58.8097 28.866C58.7976 28.8655 58.7816 28.8648 58.7619 28.8638C58.6814 28.8595 58.5475 28.8498 58.3795 28.8288C58.0229 28.7842 57.6185 28.7016 57.2712 28.5713C57.1098 28.5108 57.0017 28.4555 56.9337 28.4151C56.9415 27.686 57.115 27.3886 57.1782 27.2938C57.2596 27.1717 57.3968 27.0404 57.6556 26.911C57.93 26.7738 58.2529 26.6852 58.541 26.6372C58.6755 26.6148 58.7789 26.6051 58.833 26.6013L58.8597 26.5996ZM78.2667 56.3063V38.7333C78.2667 38.0768 78.4281 37.4368 78.729 36.8666H58.8L58.7971 36.8666L58.797 36.8666L58.7951 36.8666L58.7939 36.8666L58.7872 36.8666L58.7816 36.8666L58.772 36.8666L58.7627 36.8665L58.7348 36.8662C58.7071 36.8659 58.6734 36.8653 58.6342 36.8643C58.5558 36.8624 58.4547 36.8588 58.334 36.8523C58.0937 36.8394 57.7693 36.8148 57.3872 36.767C56.6439 36.6741 55.5816 36.4817 54.4622 36.062C53.3595 35.6484 51.9854 34.9334 50.8604 33.6678C50.5379 33.305 50.2494 32.9117 50 32.4899C49.7506 32.9117 49.4621 33.305 49.1396 33.6678C48.0146 34.9334 46.6405 35.6484 45.5378 36.062C44.4184 36.4817 43.3561 36.6741 42.6128 36.767C42.2307 36.8148 41.9063 36.8394 41.666 36.8523C41.5453 36.8588 41.4442 36.8624 41.3658 36.8643C41.3266 36.8653 41.2929 36.8659 41.2652 36.8662L41.2374 36.8665L41.228 36.8666L41.2185 36.8666L41.2128 36.8666L41.2093 36.8666L41.2061 36.8666L41.203 36.8666L41.2029 36.8666L41.2 36.8666H21.2711C21.572 37.4368 21.7334 38.0768 21.7334 38.7333V56.3091C21.7348 56.3702 21.7348 56.4312 21.7334 56.4919V73.9333C21.7334 74.9642 22.5691 75.8 23.6 75.8H76.4C77.431 75.8 78.2667 74.9642 78.2667 73.9333V56.4948C78.2652 56.4321 78.2652 56.3693 78.2667 56.3063Z"
        fill="currentcolor" />
</svg>