<svg width="100" height="100" viewBox="0 0 100 100" fill="none" xmlns="http://www.w3.org/2000/svg">
    <path fill-rule="evenodd" clip-rule="evenodd"
        d="M30 0C22.268 0 16 6.26801 16 14V63V80C16 87.3958 21.7347 93.4521 29 93.9648V96C29 98.2091 30.7909 100 33 100C35.2091 100 37 98.2091 37 96V94H63V96C63 98.2091 64.7909 100 67 100C69.2091 100 71 98.2091 71 96V93.9648C78.2653 93.4521 84 87.3958 84 80V63V14C84 6.26801 77.732 0 70 0H30ZM76 59V14C76 10.6863 73.3137 8 70 8H30C26.6863 8 24 10.6863 24 14V59H76ZM24 67H76V80C76 83.3137 73.3137 86 70 86H67H33H30C26.6863 86 24 83.3137 24 80V67ZM37 18C37 15.7909 35.2091 14 33 14C30.7909 14 29 15.7909 29 18V50C29 52.2091 30.7909 54 33 54C35.2091 54 37 52.2091 37 50V18ZM59 75C59 77.2091 57.2091 79 55 79H45C42.7909 79 41 77.2091 41 75C41 72.7909 42.7909 71 45 71H55C57.2091 71 59 72.7909 59 75Z"
        fill="currentcolor" />
</svg>