<svg width="100" height="100" viewBox="0 0 100 100" fill="none" xmlns="http://www.w3.org/2000/svg">
    <g clip-path="url(#clip0_1998_123)">
        <path fill-rule="evenodd" clip-rule="evenodd"
            d="M62.3427 12.2272C60.2088 11.6554 58.0155 12.9218 57.4437 15.0556C56.8719 17.1895 58.1383 19.3828 60.2721 19.9546L86.8921 27.0874L47.5846 55.3437C46.3297 56.2459 45.7067 57.7903 45.9845 59.3106C46.2623 60.831 47.3912 62.0553 48.8841 62.4553L83.6574 71.7728C85.7913 72.3446 87.9846 71.0783 88.5564 68.9444C89.1282 66.8105 87.8618 64.6172 85.728 64.0454L59.108 56.9126L98.4155 28.6563C99.6705 27.7542 100.293 26.2098 100.016 24.6894C99.7378 23.169 98.6089 21.9447 97.116 21.5447L62.3427 12.2272ZM4.00004 36C1.7909 36 4.3869e-05 37.7909 4.3869e-05 40C4.3869e-05 42.2092 1.7909 44 4.00004 44H31.5591L0.904215 81.4671C-0.0744915 82.6633 -0.27649 84.3163 0.385365 85.7129C1.04722 87.1096 2.45449 88 4.00004 88H40C42.2092 88 44 86.2092 44 84C44 81.7909 42.2092 80 40 80H12.441L43.0959 42.533C44.0746 41.3368 44.2766 39.6838 43.6147 38.2871C42.9529 36.8904 41.5456 36 40 36H4.00004Z"
            fill="currentcolor" />
    </g>
    <defs>
        <clipPath id="clip0_1998_123">
            <rect width="100" height="100" fill="currentcolor" />
        </clipPath>
    </defs>
</svg>