<svg width="100" height="100" viewBox="0 0 100 100" fill="none" xmlns="http://www.w3.org/2000/svg">
    <path fill-rule="evenodd" clip-rule="evenodd"
        d="M54.0001 10C54.0001 7.79086 52.2092 6 50.0001 6C47.7909 6 46.0001 7.79086 46.0001 10V17.3431L40.8285 12.1716C39.2664 10.6095 36.7337 10.6095 35.1716 12.1716C33.6095 13.7337 33.6095 16.2663 35.1716 17.8284L46.0001 28.6569V43.0718L33.5163 35.8643L29.5528 21.0724C28.9811 18.9385 26.7877 17.6722 24.6539 18.244C22.52 18.8157 21.2537 21.0091 21.8254 23.1429L23.7184 30.2074L17.359 26.5359C15.4458 25.4313 12.9995 26.0868 11.8949 28C10.7903 29.9131 11.4458 32.3595 13.359 33.4641L19.7184 37.1356L12.6539 39.0286C10.52 39.6003 9.25367 41.7937 9.82544 43.9275C10.3972 46.0614 12.5906 47.3277 14.7244 46.756L29.5163 42.7925L42 50L29.5163 57.2074L14.7244 53.244C12.5905 52.6722 10.3972 53.9385 9.82543 56.0724C9.25367 58.2063 10.52 60.3996 12.6539 60.9714L19.7184 62.8643L13.359 66.5359C11.4458 67.6404 10.7903 70.0868 11.8949 72C12.9995 73.9131 15.4458 74.5686 17.359 73.4641L23.7184 69.7925L21.8254 76.857C21.2537 78.9909 22.52 81.1842 24.6539 81.756C26.7877 82.3277 28.9811 81.0614 29.5528 78.9276L33.5163 64.1356L46.0001 56.9282V71.3431L35.1716 82.1716C33.6095 83.7337 33.6095 86.2663 35.1716 87.8284C36.7337 89.3905 39.2664 89.3905 40.8285 87.8284L46.0001 82.6569V90C46.0001 92.2091 47.7909 94 50.0001 94C52.2092 94 54.0001 92.2091 54.0001 90V82.6569L59.1716 87.8284C60.7337 89.3905 63.2664 89.3905 64.8285 87.8284C66.3906 86.2663 66.3906 83.7337 64.8285 82.1716L54.0001 71.3431V56.9282L66.4837 64.1356L70.4472 78.9276C71.019 81.0614 73.2123 82.3277 75.3462 81.756C77.4801 81.1842 78.7464 78.9909 78.1746 76.857L76.2817 69.7925L82.641 73.4641C84.5542 74.5686 87.0006 73.9131 88.1052 72C89.2097 70.0868 88.5542 67.6404 86.641 66.5359L80.2817 62.8643L87.3462 60.9714C89.4801 60.3996 90.7464 58.2063 90.1746 56.0724C89.6029 53.9385 87.4095 52.6722 85.2756 53.244L70.4837 57.2074L58 50L70.4837 42.7925L85.2756 46.756C87.4095 47.3277 89.6029 46.0614 90.1746 43.9276C90.7464 41.7937 89.4801 39.6003 87.3462 39.0286L80.2817 37.1356L86.641 33.4641C88.5542 32.3595 89.2097 29.9131 88.1052 28C87.0006 26.0868 84.5542 25.4313 82.641 26.5359L76.2817 30.2074L78.1746 23.1429C78.7464 21.0091 77.4801 18.8157 75.3462 18.244C73.2123 17.6722 71.019 18.9385 70.4472 21.0724L66.4837 35.8643L54.0001 43.0718V28.6569L64.8285 17.8284C66.3906 16.2663 66.3906 13.7337 64.8285 12.1716C63.2664 10.6095 60.7337 10.6095 59.1716 12.1716L54.0001 17.3431V10Z"
        fill="currentcolor" />
</svg>