<svg width="100" height="100" viewBox="0 0 100 100" fill="none" xmlns="http://www.w3.org/2000/svg">
    <path fill-rule="evenodd" clip-rule="evenodd"
        d="M70 10C70 7.79086 68.2091 6 66 6C63.7909 6 62 7.79086 62 10V14H38V10C38 7.79086 36.2091 6 34 6C31.7909 6 30 7.79086 30 10V14H22C15.3726 14 10 19.3726 10 26V42V82C10 88.6274 15.3726 94 22 94H78C84.6274 94 90 88.6274 90 82V42V26C90 19.3726 84.6274 14 78 14H70V10ZM30 26V22H22C19.7909 22 18 23.7909 18 26V38H82V26C82 23.7909 80.2091 22 78 22H70V26C70 28.2091 68.2091 30 66 30C63.7909 30 62 28.2091 62 26V22H38V26C38 28.2091 36.2091 30 34 30C31.7909 30 30 28.2091 30 26ZM82 46H18V82C18 84.2091 19.7909 86 22 86H78C80.2091 86 82 84.2091 82 82V46ZM28 61C28 58.7909 29.7909 57 32 57H40C42.2091 57 44 58.7909 44 61V69C44 71.2091 42.2091 73 40 73H32C29.7909 73 28 71.2091 28 69V61ZM56 61C56 58.7909 57.7909 57 60 57H68C70.2091 57 72 58.7909 72 61V69C72 71.2091 70.2091 73 68 73H60C57.7909 73 56 71.2091 56 69V61Z"
        fill="currentcolor" />
</svg>