<svg width="100" height="100" viewBox="0 0 100 100" fill="none" xmlns="http://www.w3.org/2000/svg">
    <path fill-rule="evenodd" clip-rule="evenodd"
        d="M70 10C70 7.79086 68.2091 6 66 6C63.7909 6 62 7.79086 62 10V14H38V10C38 7.79086 36.2091 6 34 6C31.7909 6 30 7.79086 30 10V14H22C15.3726 14 10 19.3726 10 26V82C10 88.6274 15.3726 94 22 94H78C84.6274 94 90 88.6274 90 82V26C90 19.3726 84.6274 14 78 14H70V10ZM30 26V22H22C19.7909 22 18 23.7909 18 26V82C18 84.2091 19.7909 86 22 86H78C80.2091 86 82 84.2091 82 82V26C82 23.7909 80.2091 22 78 22H70V26C70 28.2091 68.2091 30 66 30C63.7909 30 62 28.2091 62 26V22H38V26C38 28.2091 36.2091 30 34 30C31.7909 30 30 28.2091 30 26ZM41 38C38.7909 38 37 39.7909 37 42C37 44.2091 38.7909 46 41 46H52.8839L48.3354 56.3967L41.3354 72.3967C40.4499 74.4206 41.3728 76.7792 43.3967 77.6646C45.4206 78.5501 47.7792 77.6272 48.6646 75.6033L55.6646 59.6033L62.6646 43.6033C63.2057 42.3666 63.0865 40.9403 62.3476 39.8106C61.6088 38.6809 60.3499 38 59 38H41Z"
        fill="currentcolor" />
</svg>