<svg width="100" height="100" viewBox="0 0 100 100" fill="none" xmlns="http://www.w3.org/2000/svg">
    <path fill-rule="evenodd" clip-rule="evenodd"
        d="M70 10C70 7.79086 68.2091 6 66 6C63.7909 6 62 7.79086 62 10V14H38V10C38 7.79086 36.2091 6 34 6C31.7909 6 30 7.79086 30 10V14H22C15.3726 14 10 19.3726 10 26V82C10 88.6274 15.3726 94 22 94H78C84.6274 94 90 88.6274 90 82V26C90 19.3726 84.6274 14 78 14H70V10ZM30 26V22H22C19.7909 22 18 23.7909 18 26V82C18 84.2091 19.7909 86 22 86H78C80.2091 86 82 84.2091 82 82V26C82 23.7909 80.2091 22 78 22H70V26C70 28.2091 68.2091 30 66 30C63.7909 30 62 28.2091 62 26V22H38V26C38 28.2091 36.2091 30 34 30C31.7909 30 30 28.2091 30 26ZM73 42C73 40.4167 72.0661 38.9825 70.6182 38.3419C69.1703 37.7014 67.4808 37.9752 66.3093 39.0402L55.3093 49.0402C53.6747 50.5263 53.5542 53.0561 55.0402 54.6907C56.5263 56.3253 59.0561 56.4458 60.6907 54.9598L65 51.0422V58V74C65 76.2091 66.7909 78 69 78C71.2091 78 73 76.2091 73 74V58V42ZM37 46C35.8059 46 34.7378 46.5182 33.999 47.3553C32.5371 49.0116 30.0093 49.1692 28.3531 47.7073C26.6968 46.2454 26.5392 43.7177 28.001 42.0614C30.194 39.5768 33.4154 38 37 38C43.6274 38 49 43.3726 49 50C49 53.0734 47.8446 55.877 45.9444 58C47.8446 60.123 49 62.9266 49 66C49 72.6274 43.6274 78 37 78C33.4154 78 30.194 76.4232 28.001 73.9386C26.5392 72.2823 26.6968 69.7546 28.3531 68.2927C30.0093 66.8308 32.5371 66.9884 33.999 68.6447C34.7378 69.4818 35.8059 70 37 70C39.2091 70 41 68.2091 41 66C41 63.7909 39.2091 62 37 62C34.7909 62 33 60.2091 33 58C33 55.7909 34.7909 54 37 54C39.2091 54 41 52.2091 41 50C41 47.7909 39.2091 46 37 46Z"
        fill="currentcolor" />
</svg>