<svg width="100" height="100" viewBox="0 0 100 100" fill="none" xmlns="http://www.w3.org/2000/svg">
    <path fill-rule="evenodd" clip-rule="evenodd"
        d="M34 6C31.7909 6 30 7.79086 30 10V14H22C15.3726 14 10 19.3726 10 26V42V82C10 88.6274 15.3726 94 22 94H42C44.2091 94 46 92.2091 46 90C46 87.7909 44.2091 86 42 86H22C19.7909 86 18 84.2091 18 82V46H86C88.2091 46 90 44.2091 90 42V26C90 19.3726 84.6274 14 78 14H70V10C70 7.79086 68.2091 6 66 6C63.7909 6 62 7.79086 62 10V14H38V10C38 7.79086 36.2091 6 34 6ZM70 22V26C70 28.2091 68.2091 30 66 30C63.7909 30 62 28.2091 62 26V22H38V26C38 28.2091 36.2091 30 34 30C31.7909 30 30 28.2091 30 26V22H22C19.7909 22 18 23.7909 18 26V38H82V26C82 23.7909 80.2091 22 78 22H70ZM78.8284 57.1716C77.2663 55.6095 74.7337 55.6095 73.1716 57.1716C71.6095 58.7337 71.6095 61.2663 73.1716 62.8284L81.3431 71H55C52.7909 71 51 72.7909 51 75C51 77.2091 52.7909 79 55 79H81.3431L73.1716 87.1716C71.6095 88.7337 71.6095 91.2663 73.1716 92.8284C74.7337 94.3905 77.2663 94.3905 78.8284 92.8284L93.8284 77.8284C95.3905 76.2663 95.3905 73.7337 93.8284 72.1716L78.8284 57.1716Z"
        fill="currentcolor" />
</svg>