<svg width="100" height="100" viewBox="0 0 100 100" fill="none" xmlns="http://www.w3.org/2000/svg">
    <path fill-rule="evenodd" clip-rule="evenodd"
        d="M70 10C70 7.79086 68.2091 6 66 6C63.7909 6 62 7.79086 62 10V14H38V10C38 7.79086 36.2091 6 34 6C31.7909 6 30 7.79086 30 10V14H22C15.3726 14 10 19.3726 10 26V42V82C10 88.6274 15.3726 94 22 94H78C84.6274 94 90 88.6274 90 82V64C90 61.7909 88.2091 60 86 60C83.7909 60 82 61.7909 82 64V82C82 84.2091 80.2091 86 78 86H22C19.7909 86 18 84.2091 18 82V46H52C54.2091 46 56 44.2091 56 42C56 39.7909 54.2091 38 52 38H18V26C18 23.7909 19.7909 22 22 22H30V26C30 28.2091 31.7909 30 34 30C36.2091 30 38 28.2091 38 26V22H62V26C62 28.2091 63.7909 30 66 30C68.2091 30 70 28.2091 70 26V22H74C76.2091 22 78 20.2091 78 18C78 15.7909 76.2091 14 74 14H70V10ZM90.089 27.9436C91.1518 27.9436 92.0896 28.35 92.9024 29.1628C93.6527 29.9756 94.0278 30.9134 94.0278 31.9762C94.0278 33.039 93.6527 33.9768 92.9024 34.7896L52.8579 74.8341C52.4202 75.2092 51.9358 75.4906 51.4043 75.6781C50.8729 75.8657 50.4196 75.9595 50.0445 75.9595C49.6694 75.9595 49.2161 75.8657 48.6847 75.6781C48.1532 75.4906 47.6687 75.2092 47.2311 74.8341L35.2271 62.8301C34.4143 62.0173 34.0079 61.0795 34.0079 60.0167C34.0079 58.9539 34.4143 58.0161 35.2271 57.2033C36.0399 56.3905 36.9777 55.9841 38.0405 55.9841C39.1033 55.9841 40.0411 56.3905 40.8539 57.2033L50.0445 66.3938L87.2755 29.1628C88.0883 28.35 89.0262 27.9436 90.089 27.9436Z"
        fill="currentcolor" />
</svg>