<svg width="100" height="100" viewBox="0 0 100 100" fill="none" xmlns="http://www.w3.org/2000/svg">
    <path fill-rule="evenodd" clip-rule="evenodd"
        d="M5.45233 5.45227C7.01443 3.89018 9.54709 3.89018 11.1092 5.45227L94.5478 88.8909C96.1099 90.453 96.1099 92.9856 94.5478 94.5477C92.9857 96.1098 90.453 96.1098 88.8909 94.5477L58.2856 63.9424L31.5078 90.7202C28.5158 93.7122 24.8465 95.2072 20.4676 95.2072C16.0886 95.2072 12.4193 93.7121 9.42729 90.7202C6.4877 87.7806 5.01624 84.1374 5.01621 79.7559C5.01619 75.3769 6.51127 71.7076 9.50325 68.7156L36.281 41.9378L5.45233 11.1091C3.89024 9.54703 3.89024 7.01437 5.45233 5.45227ZM42.0304 47.6872L15.2526 74.465C13.8358 75.8819 13.1423 77.647 13.1693 79.7244C13.1961 81.7916 13.8858 83.528 15.2526 84.8948C16.6661 86.3083 18.4259 87.0272 20.499 87.0541C22.5532 87.0808 24.3944 86.5049 26.0044 85.3243L26.0352 85.3017L52.84 58.4968L42.0304 47.6872ZM53.4235 26.2261C52.9499 28.0565 51.2872 29.4083 49.3088 29.4083C46.9616 29.4083 45.0588 27.5055 45.0588 25.1583C45.0588 24.7661 45.1119 24.3863 45.2114 24.0257L45.202 24.0232C45.9777 21.5361 47.086 19.2713 48.5255 17.2258L48.5303 17.2188C50.4192 14.435 52.6886 12.1923 55.3377 10.4839C57.9921 8.7722 60.9598 7.56659 64.2452 6.86937C67.4668 6.22547 70.7655 6.2496 74.1454 6.9454C76.5301 7.44199 78.7497 8.24852 80.8063 9.36387C82.8632 10.4795 84.762 11.9056 86.5019 13.6455C87.1558 14.2994 87.7323 14.9016 88.2327 15.4515C88.7145 15.981 89.203 16.6394 89.6977 17.4309L89.7102 17.4509L89.7245 17.4696C91.6494 19.9867 92.9229 22.8885 93.5422 26.1834C94.1639 29.4908 94.1759 32.731 93.5809 35.9072C92.9347 39.0364 91.7684 41.8877 90.083 44.4653C88.3917 47.052 86.3679 49.2237 84.0115 50.9848C81.7301 52.6899 79.1556 53.9424 76.2836 54.7412C76.0433 54.8335 75.7918 54.9034 75.5317 54.9483C75.4444 54.9715 75.357 54.9942 75.2694 55.0164L75.2611 54.9856C75.1239 54.9998 74.9846 55.007 74.8436 55.007C72.6253 55.007 70.827 53.2087 70.827 50.9904C70.827 48.8665 72.4755 47.1277 74.5628 46.9835C75.9134 46.5327 77.2116 45.9265 78.4569 45.1655L78.4639 45.1613L78.4708 45.1568C80.2991 43.9553 81.7925 42.4629 82.9456 40.6809C84.0926 38.9083 84.9243 36.9307 85.4429 34.7522L85.4458 34.7401L85.4481 34.7278C86.282 30.2455 85.4448 26.0403 82.947 22.1375C80.4419 18.2234 76.9035 15.8629 72.3597 15.0786C67.8855 14.2469 63.7454 15.0162 59.9662 17.388C56.6181 19.4892 54.4379 22.4448 53.4329 26.2287L53.4235 26.2261Z"
        fill="currentcolor" />
</svg>