<svg width="100" height="100" viewBox="0 0 100 100" fill="none" xmlns="http://www.w3.org/2000/svg">
    <path fill-rule="evenodd" clip-rule="evenodd"
        d="M9.42729 90.7202C12.4193 93.7121 16.0886 95.2072 20.4676 95.2072C24.8465 95.2072 28.5158 93.7122 31.5078 90.7202L66.615 55.613L66.849 55.6349C70.0306 55.9332 73.082 55.6594 76.0069 54.8167L76.0164 54.8139C78.9962 54.0194 81.6596 52.7426 84.0115 50.9848C86.3679 49.2237 88.3917 47.052 90.083 44.4653C91.7684 41.8877 92.9347 39.0364 93.5809 35.9072C94.1759 32.731 94.1639 29.4908 93.5422 26.1834C92.9229 22.8885 91.6494 19.9867 89.7245 17.4696L89.7102 17.4509L89.6977 17.4309C89.203 16.6394 88.7145 15.981 88.2327 15.4515C87.7323 14.9016 87.1558 14.2994 86.5019 13.6455C84.762 11.9056 82.8632 10.4795 80.8063 9.36387C78.7497 8.24852 76.5301 7.44199 74.1454 6.9454C70.7655 6.2496 67.4668 6.22547 64.2452 6.86937C60.9598 7.56659 57.9921 8.7722 55.3377 10.4839C52.6886 12.1923 50.4192 14.435 48.5303 17.2188L48.5255 17.2258C46.6422 19.902 45.3257 22.9537 44.5793 26.3871L44.5779 26.3934C44.2826 27.6729 44.162 28.8681 44.2104 29.9812C44.2615 31.154 44.2869 32.4019 44.2869 33.7249V33.932L9.50325 68.7156C6.51127 71.7076 5.01619 75.3769 5.01621 79.7559C5.01624 84.1374 6.4877 87.7806 9.42729 90.7202ZM53 35.1547V58.3369L62.6744 48.6625C63.0835 48.2534 63.5901 47.9057 64.2014 47.6236C64.7408 47.3746 65.3561 47.3234 66.0734 47.5027L66.0804 47.5045L66.0875 47.506C68.2319 47.9767 70.3669 47.9901 72.488 47.545C74.5959 47.1026 76.5862 46.3087 78.4569 45.1655L78.4639 45.1613L78.4708 45.1568C80.2991 43.9553 81.7925 42.4629 82.9456 40.6809C84.0926 38.9083 84.9243 36.9307 85.4429 34.7522L85.4458 34.7401L85.4481 34.7278C86.282 30.2455 85.4448 26.0403 82.947 22.1375C80.4419 18.2234 76.9035 15.8629 72.3597 15.0786C67.8855 14.2469 63.7454 15.0162 59.9662 17.388C56.1709 19.7699 53.8764 23.2495 53.0932 27.789C53.0594 27.975 53.0283 28.1598 53 28.3432V34.2901C53.004 34.3212 53.008 34.3524 53.012 34.3837C53.0304 34.6322 53.0267 34.8891 53 35.1547Z"
        fill="currentcolor" />
</svg>