<svg width="100" height="100" viewBox="0 0 100 100" fill="none" xmlns="http://www.w3.org/2000/svg">
    <path fill-rule="evenodd" clip-rule="evenodd"
        d="M20.4676 95.2072C16.0886 95.2072 12.4193 93.7121 9.42729 90.7202C6.4877 87.7806 5.01624 84.1374 5.01621 79.7559C5.01619 75.3769 6.51127 71.7076 9.50325 68.7156L44.2869 33.932V33.7249C44.2869 32.4019 44.2615 31.154 44.2104 29.9812C44.162 28.8681 44.2826 27.6729 44.5779 26.3934L44.5793 26.3871C45.3257 22.9537 46.6422 19.902 48.5255 17.2258L48.5303 17.2188C50.4192 14.435 52.6886 12.1923 55.3377 10.4839C57.9921 8.7722 60.9598 7.56659 64.2452 6.86937C67.4668 6.22547 70.7655 6.2496 74.1454 6.9454C76.5301 7.44199 78.7497 8.24852 80.8063 9.36387C82.8632 10.4795 84.762 11.9056 86.5019 13.6455C87.1558 14.2994 87.7323 14.9016 88.2327 15.4515C88.7145 15.981 89.203 16.6394 89.6977 17.4309L89.7102 17.4509L89.7245 17.4696C91.6494 19.9867 92.9229 22.8885 93.5422 26.1834C94.1639 29.4908 94.1759 32.731 93.5809 35.9072C92.9347 39.0364 91.7684 41.8877 90.083 44.4653C88.3917 47.052 86.3679 49.2237 84.0115 50.9848C81.6596 52.7426 78.9962 54.0194 76.0164 54.8139L76.0069 54.8167C73.082 55.6594 70.0306 55.9332 66.849 55.6349L66.615 55.613L31.5078 90.7202C28.5158 93.7122 24.8465 95.2072 20.4676 95.2072ZM15.2526 84.8948C16.6661 86.3083 18.4259 87.0272 20.499 87.0541C22.5532 87.0808 24.3944 86.5049 26.0044 85.3243L26.0352 85.3017L62.6744 48.6625C63.0835 48.2534 63.5901 47.9057 64.2014 47.6236C64.7408 47.3746 65.3561 47.3234 66.0734 47.5027L66.0804 47.5045L66.0875 47.506C68.2319 47.9767 70.3669 47.9901 72.488 47.545C74.5959 47.1026 76.5862 46.3087 78.4569 45.1655L78.4639 45.1613L78.4708 45.1568C80.2991 43.9553 81.7925 42.4629 82.9456 40.6809C84.0926 38.9083 84.9243 36.9307 85.4429 34.7522L85.4458 34.7401L85.4481 34.7278C86.282 30.2455 85.4448 26.0403 82.947 22.1375C80.4419 18.2234 76.9035 15.8629 72.3597 15.0786C67.8855 14.2469 63.7454 15.0162 59.9662 17.388C56.1709 19.7699 53.8764 23.2495 53.0932 27.789C52.8861 28.9284 52.7817 30.021 52.7817 31.0663C52.7817 32.0999 52.8589 33.2059 53.012 34.3837C53.055 34.966 52.9769 35.5945 52.7662 36.2732C52.5578 36.9448 52.253 37.4646 51.8647 37.8529L15.2526 74.465C13.8358 75.8819 13.1423 77.647 13.1693 79.7244C13.1961 81.7916 13.8858 83.528 15.2526 84.8948Z"
        fill="currentcolor" />
</svg>