<svg width="100" height="100" viewBox="0 0 100 100" fill="none" xmlns="http://www.w3.org/2000/svg">
    <path fill-rule="evenodd" clip-rule="evenodd"
        d="M12 8C9.79086 8 8 9.79086 8 12V26C8 28.2091 9.79086 30 12 30C14.2091 30 16 28.2091 16 26V16H84V84H74C71.7909 84 70 85.7909 70 88C70 90.2091 71.7909 92 74 92H88C90.2091 92 92 90.2091 92 88V12C92 9.79086 90.2091 8 88 8H12ZM12 38C9.79086 38 8 39.7909 8 42V88C8 90.2091 9.79086 92 12 92H58C60.2091 92 62 90.2091 62 88V42C62 39.7909 60.2091 38 58 38H12ZM16 84V46H54V84H16Z"
        fill="currentcolor" />
</svg>