<svg width="100" height="100" viewBox="0 0 100 100" fill="none" xmlns="http://www.w3.org/2000/svg">
    <path fill-rule="evenodd" clip-rule="evenodd"
        d="M12 8C9.79086 8 8 9.79086 8 12V40C8 42.2091 9.79086 44 12 44C14.2091 44 16 42.2091 16 40V16H84V84H60C57.7909 84 56 85.7909 56 88C56 90.2091 57.7909 92 60 92H88C90.2091 92 92 90.2091 92 88V12C92 9.79086 90.2091 8 88 8H12ZM12 52C9.79086 52 8 53.7909 8 56V88C8 90.2091 9.79086 92 12 92H44C46.2091 92 48 90.2091 48 88V56C48 53.7909 46.2091 52 44 52H12ZM16 84V60H40V84H16Z"
        fill="currentcolor" />
</svg>