<svg width="100" height="100" viewBox="0 0 100 100" fill="none" xmlns="http://www.w3.org/2000/svg">
    <path fill-rule="evenodd" clip-rule="evenodd"
        d="M5.45227 5.45227C7.01437 3.89018 9.54703 3.89018 11.1091 5.45227L94.5477 88.8909C96.1098 90.453 96.1098 92.9856 94.5477 94.5477C92.9856 96.1098 90.453 96.1098 88.8909 94.5477L86.3431 92H46C43.7909 92 42 90.2091 42 88C42 85.7909 43.7909 84 46 84H78.3431L16 21.6569V54C16 56.2091 14.2091 58 12 58C9.79086 58 8 56.2091 8 54V13.6569L5.45227 11.1091C3.89018 9.54703 3.89018 7.01437 5.45227 5.45227ZM35 8C32.7909 8 31 9.79086 31 12C31 14.2091 32.7909 16 35 16H84V65C84 67.2091 85.7909 69 88 69C90.2091 69 92 67.2091 92 65V12C92 9.79086 90.2091 8 88 8H35ZM12 66C9.79086 66 8 67.7909 8 70V88C8 90.2091 9.79086 92 12 92H30C32.2091 92 34 90.2091 34 88V70C34 67.7909 32.2091 66 30 66H12ZM16 84V74H26V84H16Z"
        fill="currentcolor" />
</svg>