<svg width="100" height="100" viewBox="0 0 100 100" fill="none" xmlns="http://www.w3.org/2000/svg">
    <path fill-rule="evenodd" clip-rule="evenodd"
        d="M12 8C9.79086 8 8 9.79086 8 12V54C8 56.2091 9.79086 58 12 58C14.2091 58 16 56.2091 16 54V16H84V84H46C43.7909 84 42 85.7909 42 88C42 90.2091 43.7909 92 46 92H88C90.2091 92 92 90.2091 92 88V12C92 9.79086 90.2091 8 88 8H12ZM12 66C9.79086 66 8 67.7909 8 70V88C8 90.2091 9.79086 92 12 92H30C32.2091 92 34 90.2091 34 88V70C34 67.7909 32.2091 66 30 66H12ZM16 84V74H26V84H16Z"
        fill="currentcolor" />
</svg>