<svg width="100" height="100" viewBox="0 0 100 100" fill="none" xmlns="http://www.w3.org/2000/svg">
    <path fill-rule="evenodd" clip-rule="evenodd"
        d="M66 6C68.2091 6 70 7.79086 70 10V14H78C84.6274 14 90 19.3726 90 26V82C90 88.6274 84.6274 94 78 94H22C15.3726 94 10 88.6274 10 82V26C10 19.3726 15.3726 14 22 14H30V10C30 7.79086 31.7909 6 34 6C36.2091 6 38 7.79086 38 10V14H62V10C62 7.79086 63.7909 6 66 6ZM30 22V26C30 28.2091 31.7909 30 34 30C36.2091 30 38 28.2091 38 26V22H62V26C62 28.2091 63.7909 30 66 30C68.2091 30 70 28.2091 70 26V22H78C80.2091 22 82 23.7909 82 26V82C82 84.2091 80.2091 86 78 86H22C19.7909 86 18 84.2091 18 82V26C18 23.7909 19.7909 22 22 22H30ZM49 46C47.8059 46 46.7378 46.5182 45.999 47.3553C44.5371 49.0116 42.0093 49.1692 40.3531 47.7073C38.6968 46.2454 38.5392 43.7177 40.001 42.0614C42.194 39.5768 45.4154 38 49 38C55.6274 38 61 43.3726 61 50C61 53.0734 59.8446 55.877 57.9444 58C59.8446 60.123 61 62.9266 61 66C61 72.6274 55.6274 78 49 78C45.4154 78 42.194 76.4232 40.001 73.9386C38.5392 72.2823 38.6968 69.7546 40.3531 68.2927C42.0093 66.8308 44.5371 66.9884 45.999 68.6447C46.7378 69.4818 47.8059 70 49 70C51.2091 70 53 68.2091 53 66C53 63.7909 51.2091 62 49 62C46.7909 62 45 60.2091 45 58C45 55.7909 46.7909 54 49 54C51.2091 54 53 52.2091 53 50C53 47.7909 51.2091 46 49 46Z"
        fill="currentcolor" />
</svg>