<svg width="100" height="100" viewBox="0 0 100 100" fill="none" xmlns="http://www.w3.org/2000/svg">
    <path fill-rule="evenodd" clip-rule="evenodd"
        d="M70 10C70 7.79086 68.2091 6 66 6C63.7909 6 62 7.79086 62 10V14H38V10C38 7.79086 36.2091 6 34 6C31.7909 6 30 7.79086 30 10V14H22C15.3726 14 10 19.3726 10 26V42V82C10 88.6274 15.3726 94 22 94H78C84.6274 94 90 88.6274 90 82V42V26C90 19.3726 84.6274 14 78 14H70V10ZM30 26V22H22C19.7909 22 18 23.7909 18 26V38H82V26C82 23.7909 80.2091 22 78 22H70V26C70 28.2091 68.2091 30 66 30C63.7909 30 62 28.2091 62 26V22H38V26C38 28.2091 36.2091 30 34 30C31.7909 30 30 28.2091 30 26ZM82 46H18V82C18 84.2091 19.7909 86 22 86H78C80.2091 86 82 84.2091 82 82V46ZM37.1716 53.1716C38.7337 51.6095 41.2663 51.6095 42.8284 53.1716L50 60.3431L57.1716 53.1716C58.7337 51.6095 61.2663 51.6095 62.8284 53.1716C64.3905 54.7337 64.3905 57.2663 62.8284 58.8284L55.6569 66L62.8284 73.1716C64.3905 74.7337 64.3905 77.2663 62.8284 78.8284C61.2663 80.3905 58.7337 80.3905 57.1716 78.8284L50 71.6569L42.8284 78.8284C41.2663 80.3905 38.7337 80.3905 37.1716 78.8284C35.6095 77.2663 35.6095 74.7337 37.1716 73.1716L44.3431 66L37.1716 58.8284C35.6095 57.2663 35.6095 54.7337 37.1716 53.1716Z"
        fill="currentcolor" />
</svg>