<svg width="100" height="100" viewBox="0 0 100 100" fill="none" xmlns="http://www.w3.org/2000/svg">
    <path fill-rule="evenodd" clip-rule="evenodd"
        d="M66 6C68.2091 6 70 7.79086 70 10V14H78C84.6274 14 90 19.3726 90 26V42V82C90 88.6274 84.6274 94 78 94H22C15.3726 94 10 88.6274 10 82V42V26C10 19.3726 15.3726 14 22 14H30V10C30 7.79086 31.7909 6 34 6C36.2091 6 38 7.79086 38 10V14H62V10C62 7.79086 63.7909 6 66 6ZM30 22V26C30 28.2091 31.7909 30 34 30C36.2091 30 38 28.2091 38 26V22H62V26C62 28.2091 63.7909 30 66 30C68.2091 30 70 28.2091 70 26V22H78C80.2091 22 82 23.7909 82 26V38H18V26C18 23.7909 19.7909 22 22 22H30ZM18 46H82V82C82 84.2091 80.2091 86 78 86H22C19.7909 86 18 84.2091 18 82V46Z"
        fill="currentcolor" />
</svg>