<svg width="100" height="100" viewBox="0 0 100 100" fill="none" xmlns="http://www.w3.org/2000/svg">
    <path fill-rule="evenodd" clip-rule="evenodd"
        d="M38 10C38 7.79086 36.2091 6 34 6C31.7909 6 30 7.79086 30 10V14H22C15.3726 14 10 19.3726 10 26V82C10 88.6274 15.3726 94 22 94H78C84.6274 94 90 88.6274 90 82V26C90 19.3726 84.6274 14 78 14H70V10C70 7.79086 68.2091 6 66 6C63.7909 6 62 7.79086 62 10V14H38V10ZM62 14H70V26C70 28.2091 68.2091 30 66 30C63.7909 30 62 28.2091 62 26V14ZM38 14V26C38 28.2091 36.2091 30 34 30C31.7909 30 30 28.2091 30 26V14H38ZM33 46C33 43.7909 34.7909 42 37 42H59C61.2091 42 63 43.7909 63 46C63 48.2091 61.2091 50 59 50H46.6569L65.8284 69.1716C67.3905 70.7337 67.3905 73.2663 65.8284 74.8284C64.2663 76.3905 61.7337 76.3905 60.1716 74.8284L41 55.6569V68C41 70.2091 39.2091 72 37 72C34.7909 72 33 70.2091 33 68V46Z"
        fill="currentcolor" />
</svg>