<svg width="100" height="100" viewBox="0 0 100 100" fill="none" xmlns="http://www.w3.org/2000/svg">
    <path fill-rule="evenodd" clip-rule="evenodd"
        d="M70 10C70 7.79086 68.2091 6 66 6C63.7909 6 62 7.79086 62 10V14H38V10C38 7.79086 36.2091 6 34 6C31.7909 6 30 7.79086 30 10V14H22C15.3726 14 10 19.3726 10 26V42L10 55C10 57.2091 11.7909 59 14 59C16.2091 59 18 57.2091 18 55L18 46H82V82C82 84.2091 80.2091 86 78 86H55C52.7909 86 51 87.7909 51 90C51 92.2091 52.7909 94 55 94H78C84.6274 94 90 88.6274 90 82V42V26C90 19.3726 84.6274 14 78 14H70V10ZM30 26V22H22C19.7909 22 18 23.7909 18 26V38H82V26C82 23.7909 80.2091 22 78 22H70V26C70 28.2091 68.2091 30 66 30C63.7909 30 62 28.2091 62 26V22H38V26C38 28.2091 36.2091 30 34 30C31.7909 30 30 28.2091 30 26ZM27.1716 57.1716C25.6095 58.7337 25.6095 61.2663 27.1716 62.8284L35.3431 71H9C6.79086 71 5 72.7909 5 75C5 77.2091 6.79086 79 9 79H35.3431L27.1716 87.1716C25.6095 88.7337 25.6095 91.2663 27.1716 92.8284C28.7337 94.3905 31.2663 94.3905 32.8284 92.8284L47.8284 77.8284C49.3905 76.2663 49.3905 73.7337 47.8284 72.1716L32.8284 57.1716C31.2663 55.6095 28.7337 55.6095 27.1716 57.1716Z"
        fill="currentcolor" />
</svg>