<svg width="100" height="100" viewBox="0 0 100 100" fill="none" xmlns="http://www.w3.org/2000/svg">
    <path fill-rule="evenodd" clip-rule="evenodd"
        d="M66 6C68.2091 6 70 7.79086 70 10V14H78C84.6274 14 90 19.3726 90 26V42V82C90 88.6274 84.6274 94 78 94H58C55.7909 94 54 92.2091 54 90C54 87.7909 55.7909 86 58 86H78C80.2091 86 82 84.2091 82 82V46H14C11.7909 46 10 44.2091 10 42V26C10 19.3726 15.3726 14 22 14H30V10C30 7.79086 31.7909 6 34 6C36.2091 6 38 7.79086 38 10V14H62V10C62 7.79086 63.7909 6 66 6ZM30 22V26C30 28.2091 31.7909 30 34 30C36.2091 30 38 28.2091 38 26V22H62V26C62 28.2091 63.7909 30 66 30C68.2091 30 70 28.2091 70 26V22H78C80.2091 22 82 23.7909 82 26V38H18V26C18 23.7909 19.7909 22 22 22H30ZM21.1716 57.1716C22.7337 55.6095 25.2663 55.6095 26.8284 57.1716C28.3905 58.7337 28.3905 61.2663 26.8284 62.8284L18.6569 71H45C47.2091 71 49 72.7909 49 75C49 77.2091 47.2091 79 45 79H18.6569L26.8284 87.1716C28.3905 88.7337 28.3905 91.2663 26.8284 92.8284C25.2663 94.3905 22.7337 94.3905 21.1716 92.8284L6.17157 77.8284C4.60948 76.2663 4.60948 73.7337 6.17157 72.1716L21.1716 57.1716Z"
        fill="currentcolor" />
</svg>