<svg width="100" height="100" viewBox="0 0 100 100" fill="none" xmlns="http://www.w3.org/2000/svg">
    <path fill-rule="evenodd" clip-rule="evenodd"
        d="M34 6C31.7909 6 30 7.79086 30 10V14H22C15.3726 14 10 19.3726 10 26V42V82C10 88.6274 15.3726 94 22 94H29C31.2091 94 33 92.2091 33 90C33 87.7909 31.2091 86 29 86H22C19.7909 86 18 84.2091 18 82V46H82V51C82 53.2091 83.7909 55 86 55C88.2091 55 90 53.2091 90 51V42V26C90 19.3726 84.6274 14 78 14H70V10C70 7.79086 68.2091 6 66 6C63.7909 6 62 7.79086 62 10V14H38V10C38 7.79086 36.2091 6 34 6ZM70 22V26C70 28.2091 68.2091 30 66 30C63.7909 30 62 28.2091 62 26V22H38V26C38 28.2091 36.2091 30 34 30C31.7909 30 30 28.2091 30 26V22H22C19.7909 22 18 23.7909 18 26V38H82V26C82 23.7909 80.2091 22 78 22H70ZM73.8284 57.1716C72.2663 55.6095 69.7337 55.6095 68.1716 57.1716C66.6095 58.7337 66.6095 61.2663 68.1716 62.8284L76.3431 71H73H50H46.6569L54.8284 62.8284C56.3905 61.2663 56.3905 58.7337 54.8284 57.1716C53.2663 55.6095 50.7337 55.6095 49.1716 57.1716L34.1716 72.1716C32.6095 73.7337 32.6095 76.2663 34.1716 77.8284L49.1716 92.8284C50.7337 94.3905 53.2663 94.3905 54.8284 92.8284C56.3905 91.2663 56.3905 88.7337 54.8284 87.1716L46.6569 79H50H73H76.3431L68.1716 87.1716C66.6095 88.7337 66.6095 91.2663 68.1716 92.8284C69.7337 94.3905 72.2663 94.3905 73.8284 92.8284L88.8284 77.8284C90.3905 76.2663 90.3905 73.7337 88.8284 72.1716L73.8284 57.1716Z"
        fill="currentcolor" />
</svg>