<svg width="100" height="100" viewBox="0 0 100 100" fill="none" xmlns="http://www.w3.org/2000/svg">
    <path fill-rule="evenodd" clip-rule="evenodd"
        d="M38 9C38 6.79086 36.2091 5 34 5C31.7909 5 30 6.79086 30 9V14H22C15.3726 14 10 19.3726 10 26V82C10 88.6274 15.3726 94 22 94H78C84.6274 94 90 88.6274 90 82V26C90 19.3726 84.6274 14 78 14H70V9C70 6.79086 68.2091 5 66 5C63.7909 5 62 6.79086 62 9V14H38V9ZM62 27V22H38V27C38 29.2091 36.2091 31 34 31C31.7909 31 30 29.2091 30 27V22H22C19.7909 22 18 23.7909 18 26V82C18 84.2091 19.7909 86 22 86H78C80.2091 86 82 84.2091 82 82V26C82 23.7909 80.2091 22 78 22H70V27C70 29.2091 68.2091 31 66 31C63.7909 31 62 29.2091 62 27ZM33 46C33 43.7909 34.7909 42 37 42H59C61.2091 42 63 43.7909 63 46C63 48.2091 61.2091 50 59 50H46.6569L65.8284 69.1716C67.3905 70.7337 67.3905 73.2663 65.8284 74.8284C64.2663 76.3905 61.7337 76.3905 60.1716 74.8284L41 55.6569V68C41 70.2091 39.2091 72 37 72C34.7909 72 33 70.2091 33 68V46Z"
        fill="currentcolor" />
</svg>