<svg width="100" height="100" viewBox="0 0 100 100" fill="none" xmlns="http://www.w3.org/2000/svg">
    <path fill-rule="evenodd" clip-rule="evenodd"
        d="M38 10C38 7.79086 36.2091 6 34 6C31.7909 6 30 7.79086 30 10V14H22C15.3726 14 10 19.3726 10 26V82C10 88.6274 15.3726 94 22 94H78C84.6274 94 90 88.6274 90 82V26C90 19.3726 84.6274 14 78 14H70V10C70 7.79086 68.2091 6 66 6C63.7909 6 62 7.79086 62 10V14H38V10ZM62 14H70V26C70 28.2091 68.2091 30 66 30C63.7909 30 62 28.2091 62 26V14ZM38 14V26C38 28.2091 36.2091 30 34 30C31.7909 30 30 28.2091 30 26V14H38ZM67 72C67 74.2091 65.2091 76 63 76H41C38.7909 76 37 74.2091 37 72C37 69.7909 38.7909 68 41 68H53.3431L34.1716 48.8284C32.6095 47.2663 32.6095 44.7337 34.1716 43.1716C35.7337 41.6095 38.2663 41.6095 39.8284 43.1716L59 62.3431V50C59 47.7909 60.7909 46 63 46C65.2091 46 67 47.7909 67 50V72Z"
        fill="currentcolor" />
</svg>