<svg width="100" height="100" viewBox="0 0 100 100" fill="none" xmlns="http://www.w3.org/2000/svg">
    <path fill-rule="evenodd" clip-rule="evenodd"
        d="M11.1091 5.45227C9.54703 3.89018 7.01437 3.89018 5.45227 5.45227C3.89018 7.01437 3.89018 9.54703 5.45227 11.1091L12.727 18.3839C11.258 20.17 10.2938 22.3894 10.0569 24.8238C10.0195 25.0436 10 25.2695 10 25.5V26V42V82C10 88.6274 15.3726 94 22 94H78C80.8942 94 83.5461 92.9754 85.6161 91.273L88.8909 94.5477C90.453 96.1098 92.9856 96.1098 94.5477 94.5477C96.1098 92.9856 96.1098 90.453 94.5477 88.8909L44.8307 39.1739L44.8261 39.1693L11.1091 5.45227ZM18 26V38H32.3431L18.4663 24.1232C18.1682 24.6839 18 25.3231 18 26ZM79.8768 85.5337C79.3161 85.8318 78.677 86 78 86H22C19.7909 86 18 84.2091 18 82V46H40.3431L79.8768 85.5337ZM66 6C68.2091 6 70 7.79086 70 10V14H78C84.6274 14 90 19.3726 90 26V42V63C90 65.2091 88.2091 67 86 67C83.7909 67 82 65.2091 82 63V46H65C62.7909 46 61 44.2091 61 42C61 39.7909 62.7909 38 65 38H82V26C82 23.7909 80.2091 22 78 22H70V26C70 28.2091 68.2091 30 66 30C63.7909 30 62 28.2091 62 26V22H41C38.7909 22 37 20.2091 37 18C37 15.7909 38.7909 14 41 14H62V10C62 7.79086 63.7909 6 66 6Z"
        fill="currentcolor" />
</svg>