<svg width="100" height="100" viewBox="0 0 100 100" fill="none" xmlns="http://www.w3.org/2000/svg">
    <path fill-rule="evenodd" clip-rule="evenodd"
        d="M30 10C30 7.79086 31.7909 6 34 6C36.2091 6 38 7.79086 38 10V14H62V10C62 7.79086 63.7909 6 66 6C68.2091 6 70 7.79086 70 10V14H78C84.6274 14 90 19.3726 90 26V38V42V54C90 56.2091 88.2091 58 86 58C83.7909 58 82 56.2091 82 54V46H18V82C18 84.2091 19.7909 86 22 86H56C58.2091 86 60 87.7909 60 90C60 92.2091 58.2091 94 56 94H22C15.3726 94 10 88.6274 10 82V42V26C10 19.3726 15.3726 14 22 14H30V10ZM82 38V26C82 23.7909 80.2091 22 78 22H70V26C70 28.2091 68.2091 30 66 30C63.7909 30 62 28.2091 62 26V22H38V26C38 28.2091 36.2091 30 34 30C31.7909 30 30 28.2091 30 26V22H22C19.7909 22 18 23.7909 18 26V38H82ZM58.281 55.0722C59.1118 54.9064 59.9268 55.0314 60.6611 55.3921L97.7141 72.8953L97.7596 72.9198C98.4469 73.289 99.038 73.8227 99.4434 74.5384C99.8086 75.1829 100 75.8937 100 76.64C100 77.5418 99.6732 78.3458 99.1356 79.0014C98.537 79.7312 97.7395 80.1486 96.8891 80.3222L83.6649 83.7041L80.2667 96.9301C80.0581 97.8021 79.5607 98.5091 78.8936 99.0299C78.3352 99.4659 77.6994 99.7864 76.9931 99.949L76.7716 100H76.3618C75.618 100 74.8706 99.8087 74.2071 99.3558C73.5941 98.9374 73.1488 98.3755 72.8391 97.7575L72.8294 97.7383L55.2056 60.604L55.1574 60.4117C54.9712 59.6686 54.9303 58.8742 55.1436 58.0837C55.3361 57.3703 55.6963 56.7219 56.2327 56.1869C56.7848 55.6361 57.4725 55.2335 58.281 55.0722ZM75.4006 84.1314L67.3498 67.2414L84.401 75.3311L79.334 76.6732L79.3034 76.6824C78.7311 76.8537 78.2153 77.1367 77.7627 77.5085C77.1328 78.026 76.7495 78.706 76.5673 79.433L75.4006 84.1314Z"
        fill="currentcolor" />
</svg>