<svg width="100" height="100" viewBox="0 0 100 100" fill="none" xmlns="http://www.w3.org/2000/svg">
    <path
        d="M78.0094 13.9659H69.9532V10.0298C69.9532 8.78027 69.5941 7.79624 68.8759 7.07774C68.1577 6.35925 67.2053 6 66.0187 6C64.7697 6 63.7861 6.35925 63.0679 7.07774C62.3497 7.79624 61.9906 8.78027 61.9906 10.0298V13.9659H38.0094V10.0298C38.0094 8.78027 37.6503 7.79624 36.9321 7.07774C36.2139 6.35925 35.2303 6 33.9813 6C32.7947 6 31.8423 6.35925 31.1241 7.07774C30.4059 7.79624 30.0468 8.78027 30.0468 10.0298V13.9659H21.9906C18.6183 13.9659 15.7768 15.1217 13.466 17.4334C11.1553 19.7451 10 22.5879 10 25.9617V82.0043C10 85.3781 11.1553 88.2208 13.466 90.5325C15.7768 92.8442 18.6183 94 21.9906 94H78.0094C81.3817 94 84.2232 92.8442 86.534 90.5325C88.8447 88.2208 90 85.3781 90 82.0043V25.9617C90 22.5879 88.8447 19.7451 86.534 17.4334C84.2232 15.1217 81.3817 13.9659 78.0094 13.9659ZM21.9906 22.0256H30.0468V25.9617C30.0468 27.2112 30.4059 28.1952 31.1241 28.9137C31.8423 29.6323 32.7947 29.9915 33.9813 29.9915C35.2303 29.9915 36.2139 29.6323 36.9321 28.9137C37.6503 28.1952 38.0094 27.2112 38.0094 25.9617V22.0256H61.9906V25.9617C61.9906 27.2112 62.3497 28.1952 63.0679 28.9137C63.7861 29.6323 64.7697 29.9915 66.0187 29.9915C67.2053 29.9915 68.1577 29.6323 68.8759 28.9137C69.5941 28.1952 69.9532 27.2112 69.9532 25.9617V22.0256H78.0094C79.196 22.0256 80.1483 22.3848 80.8665 23.1033C81.5847 23.8218 81.9438 24.7746 81.9438 25.9617V37.9574H18.0562V25.9617C18.0562 24.7746 18.4153 23.8218 19.1335 23.1033C19.8517 22.3848 20.804 22.0256 21.9906 22.0256ZM78.0094 85.9404H21.9906C20.804 85.9404 19.8517 85.5811 19.1335 84.8626C18.4153 84.1441 18.0562 83.1914 18.0562 82.0043V46.017H81.9438V82.0043C81.9438 83.1914 81.5847 84.1441 80.8665 84.8626C80.1483 85.5811 79.196 85.9404 78.0094 85.9404Z"
        fill="currentcolor" />
</svg>