<svg width="100" height="100" viewBox="0 0 100 100" fill="none" xmlns="http://www.w3.org/2000/svg">
    <path fill-rule="evenodd" clip-rule="evenodd"
        d="M40.5943 30.9042C39.7627 30.0734 38.8032 29.6581 37.7158 29.6581C36.6284 29.6581 35.6689 30.0734 34.8373 30.9042C34.0057 31.7349 33.59 32.6933 33.59 33.7796C33.59 34.8658 34.0057 35.8242 34.8373 36.655L47.1188 48.9233C47.5666 49.3067 47.9984 49.5942 48.4141 49.7859C48.8298 49.9776 49.3576 50.0735 49.9972 50.0735C50.6369 50.0735 51.1647 49.9776 51.5804 49.7859C51.9962 49.5942 52.4279 49.3067 52.8757 48.9233L93.8459 7.99681C94.6135 7.1661 94.9973 6.20764 94.9973 5.12141C94.9973 4.03518 94.6135 3.07671 93.8459 2.24601C93.0143 1.4153 92.0548 1 90.9674 1C89.88 1 88.9205 1.4153 88.0889 2.24601L49.9972 40.2971L40.5943 30.9042ZM86.6938 53.4088C86.3553 57.239 85.446 60.879 83.9659 64.3291C82.0469 68.8019 79.4243 72.6996 76.0981 76.0224C72.7718 79.3451 68.87 81.9649 64.3923 83.8818C59.9147 85.7987 55.1172 86.7572 50 86.7572C44.8828 86.7572 40.0853 85.7987 35.6077 83.8818C31.13 81.9649 27.2282 79.3451 23.9019 76.0224C20.5757 72.6996 17.9531 68.8019 16.0341 64.3291C14.1151 59.8562 13.1557 55.0639 13.1557 49.9521C13.1557 44.8403 14.1151 40.048 16.0341 35.5751C17.9531 31.1022 20.5757 27.2045 23.9019 23.8818C27.2282 20.5591 31.13 17.9393 35.6077 16.0224C40.0853 14.1054 44.8828 13.147 50 13.147C52.6205 13.147 55.1344 13.4205 57.5419 13.9677L57.5504 13.9449C57.9754 14.0966 58.4333 14.1792 58.9104 14.1792C61.1443 14.1792 62.9553 12.3682 62.9553 10.1343C62.9553 8.41841 61.8869 6.95208 60.3791 6.36424L60.3938 6.32479C60.0964 6.24802 59.7981 6.17384 59.4989 6.10224C56.4286 5.36742 53.2623 5 50 5C43.7314 5 37.8785 6.18212 32.4414 8.54633C26.9403 10.8466 22.1588 14.0415 18.097 18.131C14.0352 22.2205 10.8209 26.9808 8.45416 32.4121C6.15139 37.9073 5 43.754 5 49.9521C5 56.214 6.15139 62.0607 8.45416 67.492C10.8209 72.9872 14.0352 77.7636 18.097 81.8211C22.1588 85.8786 26.9403 89.0894 32.4414 91.4537C37.8785 93.8179 43.7314 95 50 95C56.2686 95 62.1215 93.8179 67.5586 91.4537C73.0597 89.0894 77.8412 85.8786 81.903 81.8211C85.9648 77.7636 89.1791 72.9872 91.5458 67.492C93.3198 63.3079 94.4105 58.8774 94.8178 54.2004L94.7997 54.1986C94.8053 54.1115 94.8081 54.0236 94.8081 53.935C94.8081 51.6899 92.9881 49.8699 90.743 49.8699C88.6757 49.8699 86.9688 51.4132 86.7115 53.4105L86.6938 53.4088ZM37.7158 51.6581C38.8032 51.6581 39.7627 52.0734 40.5943 52.9042L49.9972 62.2971L88.0889 24.246C88.9205 23.4153 89.88 23 90.9674 23C92.0548 23 93.0143 23.4153 93.8459 24.246C94.6135 25.0767 94.9973 26.0352 94.9973 27.1214C94.9973 28.2076 94.6135 29.1661 93.8459 29.9968L52.8757 70.9233C52.4279 71.3067 51.9962 71.5942 51.5804 71.7859C51.1647 71.9776 50.6369 72.0735 49.9972 72.0735C49.3576 72.0735 48.8298 71.9776 48.4141 71.7859C47.9984 71.5942 47.5666 71.3067 47.1188 70.9233L34.8373 58.655C34.0057 57.8242 33.59 56.8658 33.59 55.7796C33.59 54.6933 34.0057 53.7349 34.8373 52.9042C35.6689 52.0734 36.6284 51.6581 37.7158 51.6581Z"
        fill="currentcolor" />
</svg>