<svg width="100" height="100" viewBox="0 0 100 100" fill="none" xmlns="http://www.w3.org/2000/svg">
    <path fill-rule="evenodd" clip-rule="evenodd"
        d="M50 87C70.4345 87 87 70.4345 87 50C87 29.5655 70.4345 13 50 13C29.5655 13 13 29.5655 13 50C13 70.4345 29.5655 87 50 87ZM50 95C74.8528 95 95 74.8528 95 50C95 25.1472 74.8528 5 50 5C25.1472 5 5 25.1472 5 50C5 74.8528 25.1472 95 50 95ZM34.6716 34.6716C36.2337 33.1095 38.7663 33.1095 40.3284 34.6716L50 44.3431L59.6716 34.6716C61.2337 33.1095 63.7663 33.1095 65.3284 34.6716C66.8905 36.2337 66.8905 38.7663 65.3284 40.3284L55.6569 50L65.3284 59.6716C66.8905 61.2337 66.8905 63.7663 65.3284 65.3284C63.7663 66.8905 61.2337 66.8905 59.6716 65.3284L50 55.6569L40.3284 65.3284C38.7663 66.8905 36.2337 66.8905 34.6716 65.3284C33.1095 63.7663 33.1095 61.2337 34.6716 59.6716L44.3431 50L34.6716 40.3284C33.1095 38.7663 33.1095 36.2337 34.6716 34.6716Z"
        fill="currentcolor" />
</svg>