<svg width="100" height="100" viewBox="0 0 100 100" fill="none" xmlns="http://www.w3.org/2000/svg">
    <path fill-rule="evenodd" clip-rule="evenodd"
        d="M78.0094 13.9659H69.9532V10.0298C69.9532 8.78027 69.5941 7.79624 68.8759 7.07774C68.1577 6.35925 67.2053 6 66.0187 6C64.7697 6 63.7861 6.35925 63.0679 7.07774C62.3497 7.79624 61.9906 8.78027 61.9906 10.0298V13.9659H38.0094V10.0298C38.0094 8.78027 37.6503 7.79624 36.9321 7.07774C36.2139 6.35925 35.2303 6 33.9813 6C32.7947 6 31.8423 6.35925 31.1241 7.07774C30.4059 7.79624 30.0468 8.78027 30.0468 10.0298V13.9659H21.9906C18.6183 13.9659 15.7768 15.1217 13.466 17.4334C11.1553 19.7451 10 22.5879 10 25.9617V55H10.004C10.0013 55.06 10 55.1202 10 55.1808C10 57.405 11.803 59.208 14.0272 59.208C16.2513 59.208 18.0543 57.405 18.0543 55.1808C18.0543 55.1202 18.053 55.06 18.0503 55H18.0562V46.017H81.9438V82.0043C81.9438 83.1914 81.5847 84.1441 80.8665 84.8626C80.1483 85.5811 79.196 85.9404 78.0094 85.9404H55V85.949C52.8522 86.0353 51.1374 87.8038 51.1374 89.9728C51.1374 92.1419 52.8522 93.9104 55 93.9967V94H55.1646H78.0094C81.3817 94 84.2232 92.8442 86.534 90.5325C88.8447 88.2208 90 85.3781 90 82.0043V25.9617C90 22.5879 88.8447 19.7451 86.534 17.4334C84.2232 15.1217 81.3817 13.9659 78.0094 13.9659ZM21.9906 22.0256H30.0468V25.9617C30.0468 27.2112 30.4059 28.1952 31.1241 28.9137C31.8423 29.6323 32.7947 29.9915 33.9813 29.9915C35.2303 29.9915 36.2139 29.6323 36.9321 28.9137C37.6503 28.1952 38.0094 27.2112 38.0094 25.9617V22.0256H61.9906V25.9617C61.9906 27.2112 62.3497 28.1952 63.0679 28.9137C63.7861 29.6323 64.7697 29.9915 66.0187 29.9915C67.2053 29.9915 68.1577 29.6323 68.8759 28.9137C69.5941 28.1952 69.9532 27.2112 69.9532 25.9617V22.0256H78.0094C79.196 22.0256 80.1483 22.3848 80.8665 23.1033C81.5847 23.8218 81.9438 24.7746 81.9438 25.9617V37.9574H18.0562V25.9617C18.0562 24.7746 18.4153 23.8218 19.1335 23.1033C19.8517 22.3848 20.804 22.0256 21.9906 22.0256ZM49.2426 74.4708C49.2426 75.0235 49.1505 75.5148 48.9662 75.9447C48.9662 76.1289 48.8741 76.3132 48.6899 76.4974C48.5056 76.6817 48.3214 76.8966 48.1372 77.1423L32.477 92.8024C32.0471 93.2324 31.6172 93.5394 31.1873 93.7236C30.7574 93.9079 30.2661 94 29.7134 94C29.0993 94 28.5773 93.9079 28.1474 93.7236C27.7175 93.5394 27.3183 93.2324 26.9498 92.8024C26.1515 92.004 25.7523 91.0829 25.7523 90.0389C25.7523 88.9949 26.1515 88.0737 26.9498 87.2753L35.9775 78.2477H8.96111C7.79424 78.2477 6.84238 77.8946 6.10543 77.1883C5.36848 76.482 5 75.5456 5 74.3787C5 73.1505 5.36848 72.1832 6.10543 71.477C6.84238 70.7707 7.79424 70.4176 8.96111 70.4176H35.9775L26.9498 61.3899C26.1515 60.5916 25.7523 59.6704 25.7523 58.6264C25.7523 57.5824 26.1515 56.6612 26.9498 55.8628C27.7482 55.0645 28.6694 54.6653 29.7134 54.6653C30.7574 54.6653 31.6786 55.0645 32.477 55.8628L48.1372 71.6151C48.3214 71.7994 48.4596 71.9836 48.5517 72.1678C48.6438 72.3521 48.782 72.567 48.9662 72.8127C49.1505 73.3654 49.2426 73.9181 49.2426 74.4708Z"
        fill="currentcolor" />
</svg>