<svg width="100" height="100" viewBox="0 0 100 100" fill="none" xmlns="http://www.w3.org/2000/svg">
    <path
        d="M90.9702 42.1885C89.6909 42.1885 88.6834 42.5719 87.9478 43.3387C87.2121 44.1054 86.8444 45.0958 86.8444 46.3099V49.9521C86.8444 55.0639 85.8849 59.8562 83.9659 64.3291C82.0469 68.8019 79.4243 72.6996 76.0981 76.0224C72.7718 79.3451 68.87 81.9649 64.3923 83.8818C59.9147 85.7987 55.1172 86.7572 50 86.7572C44.8828 86.7572 40.0853 85.7987 35.6077 83.8818C31.13 81.9649 27.2282 79.3451 23.9019 76.0224C20.5757 72.6996 17.9531 68.8019 16.0341 64.3291C14.1151 59.8562 13.1557 55.0639 13.1557 49.9521C13.1557 44.8403 14.1151 40.048 16.0341 35.5751C17.9531 31.1022 20.5757 27.2045 23.9019 23.8818C27.2282 20.5591 31.13 17.9393 35.6077 16.0224C40.0853 14.1054 44.8828 13.147 50 13.147C52.6866 13.147 55.2612 13.4345 57.7239 14.0096C60.1866 14.5847 62.6652 15.3834 65.1599 16.4058C66.1834 16.8531 67.2228 16.885 68.2783 16.5016C69.3337 16.1182 70.0533 15.4154 70.4371 14.393C70.8849 13.3706 70.9168 12.3323 70.5331 11.278C70.1493 10.2236 69.4457 9.50479 68.4222 9.12141C65.5437 7.84345 62.5693 6.83706 59.4989 6.10224C56.4286 5.36742 53.2623 5 50 5C43.7314 5 37.8785 6.18212 32.4414 8.54633C26.9403 10.8466 22.1588 14.0415 18.097 18.131C14.0352 22.2205 10.8209 26.9808 8.45416 32.4121C6.15139 37.9073 5 43.754 5 49.9521C5 56.214 6.15139 62.0607 8.45416 67.492C10.8209 72.9872 14.0352 77.7636 18.097 81.8211C22.1588 85.8786 26.9403 89.0894 32.4414 91.4537C37.8785 93.8179 43.7314 95 50 95C56.2686 95 62.1215 93.8179 67.5586 91.4537C73.0597 89.0894 77.8412 85.8786 81.903 81.8211C85.9648 77.7636 89.1791 72.9872 91.5458 67.492C93.8486 62.0607 95 56.214 95 49.9521V46.3099C95 45.0958 94.6322 44.1054 93.8966 43.3387C93.161 42.5719 92.1855 42.1885 90.9702 42.1885ZM40.597 43.0511C39.7654 42.2204 38.8059 41.8051 37.7186 41.8051C36.6312 41.8051 35.6717 42.2204 34.8401 43.0511C34.0085 43.8818 33.5928 44.8403 33.5928 45.9265C33.5928 47.0127 34.0085 47.9712 34.8401 48.8019L47.1215 61.0703C47.5693 61.4537 48.0011 61.7412 48.4168 61.9329C48.8326 62.1246 49.3603 62.2204 50 62.2204C50.6397 62.2204 51.1674 62.1246 51.5832 61.9329C51.9989 61.7412 52.4307 61.4537 52.8785 61.0703L93.8486 20.1438C94.6162 19.3131 95 18.3546 95 17.2684C95 16.1821 94.6162 15.2237 93.8486 14.393C93.017 13.5623 92.0575 13.147 90.9702 13.147C89.8828 13.147 88.9233 13.5623 88.0917 14.393L50 52.4441L40.597 43.0511Z"
        fill="currentcolor" />
</svg>