<svg width="55" height="59" viewBox="0 0 55 59" fill="none" xmlns="http://www.w3.org/2000/svg">
    <path opacity="0.5"
        d="M31.2281 58.1689H23.2588L23.9793 50.7641L24.3132 47.334L29.887 47.6543L31.1437 57.5049L31.2281 58.1689"
        fill="#55AA00" />
    <g filter="url(#filter0_d_2372_34)">
        <path
            d="M48.33 48.4046C46.994 48.8662 45.0318 49.2916 42.4306 49.5569C39.3302 49.874 35.3256 49.9666 30.3932 49.6275C29.4199 49.5616 28.4105 49.4784 27.365 49.3764C26.5063 49.4596 25.6728 49.5302 24.8643 49.5899C24.5362 49.615 24.2128 49.637 23.8926 49.6574C8.31998 50.6526 2.18984 47.334 4.86324 46.3545C13.02 43.3655 14.8834 36.1396 15.2586 34.0581C15.3229 33.6954 15.3434 33.4882 15.3434 33.4882C12.108 36.5274 4.34676 31.8352 10.48 30.8619C15.9681 29.9922 19.3056 22.0176 19.9445 20.3535C20.0198 20.1589 20.0575 20.0506 20.0575 20.0506C15.5192 21.2954 11.6433 19.6126 16.7342 17.4604C17.5788 17.104 18.3731 16.3364 19.2805 15.4714C20.5222 14.2878 25.0982 0.567538 27.3682 0.567538C29.8077 0.567538 32.9065 15.3097 37.9974 17.4604C43.0883 19.6126 39.2125 21.2954 34.6741 20.0506C34.6741 20.0506 34.6898 20.0945 34.7196 20.1777C35.1482 21.33 38.5312 29.9561 44.2516 30.8619C50.3833 31.8352 42.5672 36.5274 39.3318 33.4882C39.3318 33.4882 39.3333 33.5086 39.3396 33.5479C39.4401 34.3516 40.7367 43.0076 49.8668 46.3545C51.0253 46.7783 50.5308 47.6433 48.33 48.4046"
            fill="#55AA00" />
    </g>
    <g filter="url(#filter1_d_2372_34)">
        <path
            d="M39.3318 33.4883C39.3318 33.4883 39.3334 33.5087 39.3396 33.548C38.9472 33.077 38.6112 32.581 38.3632 32.0928C38.5736 33.4224 39.5108 34.6422 39.0304 35.8996C38.7227 36.7049 38.3475 37.2229 37.1859 37.4694C36.8217 37.5463 35.8845 37.4097 35.6082 37.1601C34.5564 36.2135 33.4685 34.5621 33.0258 32.9169C33.0651 35.1932 33.9018 36.4679 33.1043 37.5871C32.3069 38.7064 30.5392 38.9953 29.3838 38.2527C27.971 37.3422 28.0322 35.0362 27.7559 33.435C27.6916 35.0126 27.5503 36.5495 26.4326 37.6656C25.9208 38.1758 25.3102 38.6264 24.5881 38.6342C23.5269 38.6468 22.6164 37.9074 22.3511 36.8807C22.0858 35.8525 22.2694 34.4695 22.4688 33.4271C22.0026 34.6029 21.4814 35.5354 20.742 36.562C20.0057 37.584 18.7012 38.507 17.5631 37.9686C16.5867 37.5055 15.9336 36.4883 16.1503 35.4286C16.3622 34.391 16.6212 33.5857 17.0121 32.3863C16.4925 33.0048 15.9038 33.5684 15.2586 34.0582C15.323 33.6956 15.3434 33.4883 15.3434 33.4883C12.108 36.5275 4.3468 31.8353 10.4801 30.862C15.9682 29.9923 19.3056 22.0177 19.9445 20.3537C20.0199 20.159 20.0576 20.0507 20.0576 20.0507C15.5192 21.2956 11.6433 19.6127 16.7342 17.4605C17.5788 17.1041 18.3731 16.3365 19.2805 15.4715C20.5222 14.2879 25.0982 0.567652 27.3682 0.567652C29.8077 0.567652 32.9065 15.3098 37.9975 17.4605C43.0884 19.6127 39.2125 21.2956 34.6741 20.0507C34.6741 20.0507 34.6898 20.0946 34.7197 20.1778C35.1482 21.3301 38.5312 29.9562 44.2516 30.862C50.3833 31.8353 42.5672 36.5275 39.3318 33.4883"
            fill="#55AA00" />
    </g>
    <path opacity="0.15"
        d="M39.3318 33.4883C39.3318 33.4883 39.3334 33.5087 39.3396 33.548C38.9472 33.077 38.6112 32.581 38.3632 32.0928C38.5736 33.4224 39.5108 34.6422 39.0304 35.8996C38.7227 36.7049 38.3475 37.2229 37.1859 37.4694C36.8217 37.5463 35.8845 37.4097 35.6082 37.1601C34.5564 36.2135 33.4685 34.5621 33.0258 32.9169C33.0651 35.1932 33.9018 36.4679 33.1043 37.5871C32.3069 38.7064 30.5392 38.9953 29.3838 38.2527C27.971 37.3422 28.0322 35.0362 27.7559 33.435C27.6916 35.0126 27.5503 36.5495 26.4326 37.6656C25.9208 38.1758 25.3102 38.6264 24.5881 38.6342C23.5269 38.6468 22.6164 37.9074 22.3511 36.8807C22.0858 35.8525 22.2694 34.4695 22.4688 33.4271C22.0026 34.6029 21.4814 35.5354 20.742 36.562C20.0057 37.584 18.7012 38.507 17.5631 37.9686C16.5867 37.5055 15.9336 36.4883 16.1503 35.4286C16.3622 34.391 16.6212 33.5857 17.0121 32.3863C16.4925 33.0048 15.9038 33.5684 15.2586 34.0582C15.323 33.6956 15.3434 33.4883 15.3434 33.4883C12.108 36.5275 4.3468 31.8353 10.4801 30.862C15.9682 29.9923 19.3056 22.0177 19.9445 20.3537C20.0199 20.159 20.0576 20.0507 20.0576 20.0507C15.5192 21.2956 11.6433 19.6127 16.7342 17.4605C17.5788 17.1041 18.3731 16.3365 19.2805 15.4715C20.5222 14.2879 25.0982 0.567652 27.3682 0.567652C29.8077 0.567652 32.9065 15.3098 37.9975 17.4605C43.0884 19.6127 39.2125 21.2956 34.6741 20.0507C34.6741 20.0507 34.6898 20.0946 34.7197 20.1778C35.1482 21.3301 38.5312 29.9562 44.2516 30.862C50.3833 31.8353 42.5672 36.5275 39.3318 33.4883"
        fill="white" />
    <g filter="url(#filter2_d_2372_34)">
        <path
            d="M34.6741 20.0506C34.6741 20.0506 34.6897 20.0945 34.7196 20.1777C33.605 19.5451 32.6851 18.5702 32.1372 17.4117C32.2314 18.4054 32.2534 19.407 32.2032 20.4038C32.1812 20.8528 32.1372 21.319 31.9096 21.7067C31.682 22.0929 31.2157 22.3771 30.7825 22.253C30.2895 22.1133 30.0666 21.5529 29.9269 21.06C29.6381 20.0333 29.4152 18.9878 29.2613 17.9329C29.2503 19.3473 28.8312 20.757 28.0683 21.9469C27.6884 22.5403 27.0636 23.1384 26.3791 22.9752C26.0793 22.9029 25.8297 22.6894 25.6397 22.4461C24.7528 21.3017 25.0777 19.6785 24.9223 18.239C24.6366 19.6283 24.3242 21.0757 23.4373 22.184C23.1783 22.5073 22.7748 22.8197 22.3871 22.6753C22.2458 22.6235 22.1328 22.5168 22.0339 22.4022C21.5456 21.8355 21.373 21.0474 21.4185 20.3002C21.464 19.5529 21.7073 18.8324 21.9711 18.1323C21.3463 18.9172 20.6697 19.6597 19.9444 20.3536C20.0198 20.1589 20.0575 20.0506 20.0575 20.0506C15.5191 21.2955 11.6432 19.6126 16.7342 17.4604C17.5787 17.104 18.373 16.3364 19.2804 15.4714C20.5221 14.2878 25.0982 0.567552 27.3681 0.567552C29.8076 0.567552 32.9064 15.3097 37.9974 17.4604C43.0883 19.6126 39.2124 21.2955 34.6741 20.0506"
            fill="#55AA00" />
    </g>
    <path opacity="0.3"
        d="M34.6741 20.0506C34.6741 20.0506 34.6897 20.0945 34.7196 20.1777C33.605 19.5451 32.6851 18.5702 32.1372 17.4117C32.2314 18.4054 32.2534 19.407 32.2032 20.4038C32.1812 20.8528 32.1372 21.319 31.9096 21.7067C31.682 22.0929 31.2157 22.3771 30.7825 22.253C30.2895 22.1133 30.0666 21.5529 29.9269 21.06C29.6381 20.0333 29.4152 18.9878 29.2613 17.9329C29.2503 19.3473 28.8312 20.757 28.0683 21.9469C27.6884 22.5403 27.0636 23.1384 26.3791 22.9752C26.0793 22.9029 25.8297 22.6894 25.6397 22.4461C24.7528 21.3017 25.0777 19.6785 24.9223 18.239C24.6366 19.6283 24.3242 21.0757 23.4373 22.184C23.1783 22.5073 22.7748 22.8197 22.3871 22.6753C22.2458 22.6235 22.1328 22.5168 22.0339 22.4022C21.5456 21.8355 21.373 21.0474 21.4185 20.3002C21.464 19.5529 21.7073 18.8324 21.9711 18.1323C21.3463 18.9172 20.6697 19.6597 19.9444 20.3536C20.0198 20.1589 20.0575 20.0506 20.0575 20.0506C15.5191 21.2955 11.6432 19.6126 16.7342 17.4604C17.5787 17.104 18.373 16.3364 19.2804 15.4714C20.5221 14.2878 25.0982 0.567552 27.3681 0.567552C29.8076 0.567552 32.9064 15.3097 37.9974 17.4604C43.0883 19.6126 39.2124 21.2955 34.6741 20.0506"
        fill="white" />
    <g filter="url(#filter3_d_2372_34)">
        <path
            d="M33.994 13.7663C33.994 13.7663 32.4619 13.6613 33.4756 14.7671C34.4894 15.8729 35.5029 15.8619 36.0558 17.0617C36.6088 18.2588 39.2105 18.7509 39.1539 17.8137C39.0969 16.8765 39.0049 17.023 37.7146 16.166C36.4246 15.3089 35.7448 13.5479 33.994 13.7663"
            fill="white" />
    </g>
    <g filter="url(#filter4_d_2372_34)">
        <path
            d="M23.555 25.9435C23.555 25.9435 21.1641 25.212 20.9151 26.1303C20.6661 27.0486 20.2924 28.4268 18.8207 28.3977C17.349 28.3686 16.1636 31.3762 17.499 30.9985C18.8343 30.6208 20.2221 30.5051 21.104 30.4354C21.9861 30.3657 22.9027 29.2585 22.922 28.278C22.9418 27.2957 24.577 26.7219 23.555 25.9435Z"
            fill="white" />
    </g>
    <g filter="url(#filter5_d_2372_34)">
        <path
            d="M41.5083 38.2567C41.5083 38.2567 39.0796 39.5821 40.0289 40.0114C40.9782 40.4427 40.6754 40.1955 41.5083 41.8052C42.3413 43.4168 43.358 43.5413 44.0889 44.5321C44.8198 45.5228 46.984 45.6473 46.5834 44.5321C46.1829 43.4168 44.8101 42.7643 44.3192 41.7885C43.8283 40.8145 43.4017 37.9277 41.5083 38.2567"
            fill="white" />
    </g>
    <g filter="url(#filter6_d_2372_34)">
        <path
            d="M39.1213 26.8484C38.4147 26.5724 37.6044 26.6611 37.0047 27.126C36.7229 27.3446 36.5971 27.5828 36.9469 27.7737C37.8374 28.2582 37.5983 28.6678 37.893 29.3383C38.1877 30.0087 37.8503 29.9281 39.4368 30.5722C41.0236 31.2162 41.996 33.119 43.0327 32.4997C44.0694 31.8804 44.7895 31.3367 45.1903 31.5937C45.5908 31.8506 46.6221 31.0941 45.302 30.6988C43.9817 30.3057 42.8594 30.4151 42.5627 29.258C42.266 28.1009 41.112 27.4662 40.6038 27.3621C40.3313 27.3068 39.6732 27.0624 39.1213 26.8484"
            fill="white" />
    </g>
    <g filter="url(#filter7_d_2372_34)">
        <path
            d="M13.3236 40.1751C14.056 39.8363 14.9236 39.8293 15.5932 40.2001C15.908 40.3746 16.0581 40.5849 15.6994 40.8037C14.786 41.3595 15.0684 41.7185 14.8013 42.3828C14.5341 43.0471 14.8874 42.9336 13.2449 43.7173C11.6022 44.5011 10.6994 46.4017 9.55447 45.9342C8.40949 45.4667 7.6064 45.0351 7.19801 45.3219C6.78984 45.6086 5.64123 45.0113 7.01749 44.4916C8.39418 43.9739 9.59507 43.9516 9.83073 42.8287C10.0664 41.7059 11.2496 40.9792 11.7828 40.8245C12.0687 40.7419 12.7517 40.4383 13.3236 40.1751"
            fill="white" />
    </g>
    <g filter="url(#filter8_d_2372_34)">
        <path
            d="M21.898 10.8451C21.898 10.8451 21.6446 10.4321 21.1093 10.9047C20.5741 11.3793 21.1562 11.5256 20.573 12.2036C19.9897 12.8817 19.9006 14.221 18.7115 14.4385C17.5223 14.656 17.9236 15.7678 17.632 16.1059C17.3404 16.4458 17.0296 16.5322 16.2237 16.7835C15.4179 17.0348 15.7465 18.0246 14.9965 18.1765C14.2467 18.3303 13.5945 19.7751 13.8755 20.1345C14.1566 20.494 14.4418 20.7256 14.8289 20.0624C15.216 19.3992 14.4302 19.0779 16.1385 19.0115C17.8468 18.9451 18.1525 18.7944 18.5929 17.9045C19.0335 17.0164 18.6908 16.6616 19.7627 16.5805C20.8344 16.4995 21.4134 15.7627 21.6378 14.5369C21.8624 13.3111 21.5991 13.0797 22.5009 12.4709C23.4027 11.862 22.934 10.3898 21.898 10.8451Z"
            fill="white" />
    </g>
    <defs>
        <filter id="filter0_d_2372_34" x="0.256577" y="0.567505" width="54.2169" height="57.2745"
            filterUnits="userSpaceOnUse" color-interpolation-filters="sRGB">
            <feFlood flood-opacity="0" result="BackgroundImageFix" />
            <feColorMatrix in="SourceAlpha" type="matrix" values="0 0 0 0 0 0 0 0 0 0 0 0 0 0 0 0 0 0 127 0"
                result="hardAlpha" />
            <feOffset dy="4" />
            <feGaussianBlur stdDeviation="2" />
            <feComposite in2="hardAlpha" operator="out" />
            <feColorMatrix type="matrix" values="0 0 0 0 0 0 0 0 0 0 0 0 0 0 0 0 0 0 0.25 0" />
            <feBlend mode="normal" in2="BackgroundImageFix" result="effect1_dropShadow_2372_34" />
            <feBlend mode="normal" in="SourceGraphic" in2="effect1_dropShadow_2372_34" result="shape" />
        </filter>
        <filter id="filter1_d_2372_34" x="4.18822" y="0.567627" width="46.3446" height="46.0959"
            filterUnits="userSpaceOnUse" color-interpolation-filters="sRGB">
            <feFlood flood-opacity="0" result="BackgroundImageFix" />
            <feColorMatrix in="SourceAlpha" type="matrix" values="0 0 0 0 0 0 0 0 0 0 0 0 0 0 0 0 0 0 127 0"
                result="hardAlpha" />
            <feOffset dy="4" />
            <feGaussianBlur stdDeviation="2" />
            <feComposite in2="hardAlpha" operator="out" />
            <feColorMatrix type="matrix" values="0 0 0 0 0 0 0 0 0 0 0 0 0 0 0 0 0 0 0.25 0" />
            <feBlend mode="normal" in2="BackgroundImageFix" result="effect1_dropShadow_2372_34" />
            <feBlend mode="normal" in="SourceGraphic" in2="effect1_dropShadow_2372_34" result="shape" />
        </filter>
        <filter id="filter2_d_2372_34" x="10.3244" y="0.567505" width="34.0826" height="30.4349"
            filterUnits="userSpaceOnUse" color-interpolation-filters="sRGB">
            <feFlood flood-opacity="0" result="BackgroundImageFix" />
            <feColorMatrix in="SourceAlpha" type="matrix" values="0 0 0 0 0 0 0 0 0 0 0 0 0 0 0 0 0 0 127 0"
                result="hardAlpha" />
            <feOffset dy="4" />
            <feGaussianBlur stdDeviation="2" />
            <feComposite in2="hardAlpha" operator="out" />
            <feColorMatrix type="matrix" values="0 0 0 0 0 0 0 0 0 0 0 0 0 0 0 0 0 0 0.25 0" />
            <feBlend mode="normal" in2="BackgroundImageFix" result="effect1_dropShadow_2372_34" />
            <feBlend mode="normal" in="SourceGraphic" in2="effect1_dropShadow_2372_34" result="shape" />
        </filter>
        <filter id="filter3_d_2372_34" x="29.1289" y="13.7477" width="14.0258" height="12.5563"
            filterUnits="userSpaceOnUse" color-interpolation-filters="sRGB">
            <feFlood flood-opacity="0" result="BackgroundImageFix" />
            <feColorMatrix in="SourceAlpha" type="matrix" values="0 0 0 0 0 0 0 0 0 0 0 0 0 0 0 0 0 0 127 0"
                result="hardAlpha" />
            <feOffset dy="4" />
            <feGaussianBlur stdDeviation="2" />
            <feComposite in2="hardAlpha" operator="out" />
            <feColorMatrix type="matrix" values="0 0 0 0 0 0 0 0 0 0 0 0 0 0 0 0 0 0 0.25 0" />
            <feBlend mode="normal" in2="BackgroundImageFix" result="effect1_dropShadow_2372_34" />
            <feBlend mode="normal" in="SourceGraphic" in2="effect1_dropShadow_2372_34" result="shape" />
        </filter>
        <filter id="filter4_d_2372_34" x="12.9172" y="25.6674" width="14.9736" height="13.364"
            filterUnits="userSpaceOnUse" color-interpolation-filters="sRGB">
            <feFlood flood-opacity="0" result="BackgroundImageFix" />
            <feColorMatrix in="SourceAlpha" type="matrix" values="0 0 0 0 0 0 0 0 0 0 0 0 0 0 0 0 0 0 127 0"
                result="hardAlpha" />
            <feOffset dy="4" />
            <feGaussianBlur stdDeviation="2" />
            <feComposite in2="hardAlpha" operator="out" />
            <feColorMatrix type="matrix" values="0 0 0 0 0 0 0 0 0 0 0 0 0 0 0 0 0 0 0.25 0" />
            <feBlend mode="normal" in2="BackgroundImageFix" result="effect1_dropShadow_2372_34" />
            <feBlend mode="normal" in="SourceGraphic" in2="effect1_dropShadow_2372_34" result="shape" />
        </filter>
        <filter id="filter5_d_2372_34" x="35.8088" y="38.2307" width="14.8236" height="15.0918"
            filterUnits="userSpaceOnUse" color-interpolation-filters="sRGB">
            <feFlood flood-opacity="0" result="BackgroundImageFix" />
            <feColorMatrix in="SourceAlpha" type="matrix" values="0 0 0 0 0 0 0 0 0 0 0 0 0 0 0 0 0 0 127 0"
                result="hardAlpha" />
            <feOffset dy="4" />
            <feGaussianBlur stdDeviation="2" />
            <feComposite in2="hardAlpha" operator="out" />
            <feColorMatrix type="matrix" values="0 0 0 0 0 0 0 0 0 0 0 0 0 0 0 0 0 0 0.25 0" />
            <feBlend mode="normal" in2="BackgroundImageFix" result="effect1_dropShadow_2372_34" />
            <feBlend mode="normal" in="SourceGraphic" in2="effect1_dropShadow_2372_34" result="shape" />
        </filter>
        <filter id="filter6_d_2372_34" x="32.7341" y="26.6924" width="17.2186" height="13.9296"
            filterUnits="userSpaceOnUse" color-interpolation-filters="sRGB">
            <feFlood flood-opacity="0" result="BackgroundImageFix" />
            <feColorMatrix in="SourceAlpha" type="matrix" values="0 0 0 0 0 0 0 0 0 0 0 0 0 0 0 0 0 0 127 0"
                result="hardAlpha" />
            <feOffset dy="4" />
            <feGaussianBlur stdDeviation="2" />
            <feComposite in2="hardAlpha" operator="out" />
            <feColorMatrix type="matrix" values="0 0 0 0 0 0 0 0 0 0 0 0 0 0 0 0 0 0 0.25 0" />
            <feBlend mode="normal" in2="BackgroundImageFix" result="effect1_dropShadow_2372_34" />
            <feBlend mode="normal" in="SourceGraphic" in2="effect1_dropShadow_2372_34" result="shape" />
        </filter>
        <filter id="filter7_d_2372_34" x="2.36026" y="39.9215" width="17.5475" height="14.0857"
            filterUnits="userSpaceOnUse" color-interpolation-filters="sRGB">
            <feFlood flood-opacity="0" result="BackgroundImageFix" />
            <feColorMatrix in="SourceAlpha" type="matrix" values="0 0 0 0 0 0 0 0 0 0 0 0 0 0 0 0 0 0 127 0"
                result="hardAlpha" />
            <feOffset dy="4" />
            <feGaussianBlur stdDeviation="2" />
            <feComposite in2="hardAlpha" operator="out" />
            <feColorMatrix type="matrix" values="0 0 0 0 0 0 0 0 0 0 0 0 0 0 0 0 0 0 0.25 0" />
            <feBlend mode="normal" in2="BackgroundImageFix" result="effect1_dropShadow_2372_34" />
            <feBlend mode="normal" in="SourceGraphic" in2="effect1_dropShadow_2372_34" result="shape" />
        </filter>
        <filter id="filter8_d_2372_34" x="9.80885" y="10.678" width="17.1709" height="17.8063"
            filterUnits="userSpaceOnUse" color-interpolation-filters="sRGB">
            <feFlood flood-opacity="0" result="BackgroundImageFix" />
            <feColorMatrix in="SourceAlpha" type="matrix" values="0 0 0 0 0 0 0 0 0 0 0 0 0 0 0 0 0 0 127 0"
                result="hardAlpha" />
            <feOffset dy="4" />
            <feGaussianBlur stdDeviation="2" />
            <feComposite in2="hardAlpha" operator="out" />
            <feColorMatrix type="matrix" values="0 0 0 0 0 0 0 0 0 0 0 0 0 0 0 0 0 0 0.25 0" />
            <feBlend mode="normal" in2="BackgroundImageFix" result="effect1_dropShadow_2372_34" />
            <feBlend mode="normal" in="SourceGraphic" in2="effect1_dropShadow_2372_34" result="shape" />
        </filter>
    </defs>
</svg>