<svg width="100" height="100" viewBox="0 0 100 100" fill="none" xmlns="http://www.w3.org/2000/svg">
    <path fill-rule="evenodd" clip-rule="evenodd"
        d="M14.0281 49.9625C15.2147 49.9625 16.1827 49.6035 16.9321 48.8852C17.6815 48.167 18.0562 47.2147 18.0562 46.0281V37.9719C18.0562 34.5995 19.196 31.758 21.4754 29.4473C23.7548 27.1366 26.612 25.9813 30.0468 25.9813H76.4169L67.1429 35.1616C66.3934 35.9735 66.0187 36.9103 66.0187 37.9719C66.0187 39.0335 66.3934 39.9703 67.1429 40.7822C67.58 41.2194 68.0171 41.5316 68.4543 41.719C68.8915 41.9063 69.3911 42 69.9532 42C70.5777 42 71.1085 41.9063 71.5457 41.719C71.9829 41.5316 72.3888 41.2194 72.7635 40.7822L88.7822 24.8571C88.9696 24.6073 89.1413 24.3888 89.2974 24.2014C89.4536 24.0141 89.5316 23.8267 89.5316 23.6393C89.7815 23.2022 89.9063 22.7026 89.9063 22.1405C89.9063 21.5785 89.7815 21.0164 89.5316 20.4543C89.3443 20.2045 89.2194 19.9859 89.1569 19.7986C89.0944 19.6112 88.9696 19.4239 88.7822 19.2365L72.7635 3.2178C71.9516 2.40594 71.0148 2.00001 69.9532 2C68.8915 2.00001 67.9548 2.40594 67.1429 3.2178C66.3934 4.02967 66.0187 4.96644 66.0187 6.0281C66.0187 7.08978 66.3934 8.02655 67.1429 8.83841L76.4169 18.0187H30.0468C27.2365 18.0187 24.6136 18.5496 22.178 19.6112C19.7424 20.6105 17.619 22.0156 15.808 23.8267C13.9969 25.6378 12.5918 27.7611 11.5925 30.1967C10.5308 32.6323 10 35.2241 10 37.9719V46.0281C10 47.2147 10.3747 48.167 11.1241 48.8852C11.8735 49.6035 12.8415 49.9625 14.0281 49.9625ZM50 50C52.2091 50 54 51.7909 54 54V69H69C71.2091 69 73 70.7909 73 73C73 75.2091 71.2091 77 69 77H54V92C54 94.2091 52.2091 96 50 96C47.7909 96 46 94.2091 46 92V77H31C28.7909 77 27 75.2091 27 73C27 70.7909 28.7909 69 31 69H46V54C46 51.7909 47.7909 50 50 50Z"
        fill="currentcolor" />
</svg>