<svg width="100" height="100" viewBox="0 0 100 100" fill="none" xmlns="http://www.w3.org/2000/svg">
    <path
        d="M49.9521 5C43.6901 5 37.8435 6.18212 32.4121 8.54633C26.917 10.8466 22.1405 14.0415 18.0831 18.131C14.0256 22.2205 10.8147 26.9808 8.45048 32.4121C6.15016 37.9073 5 43.754 5 49.9521C5 56.214 6.15016 62.0607 8.45048 67.492C10.8147 72.9872 14.0256 77.7636 18.0831 81.8211C22.1405 85.8786 26.917 89.0894 32.4121 91.4537C37.8435 93.8179 43.6901 95 49.9521 95C56.214 95 62.0607 93.8179 67.492 91.4537C72.9872 89.0894 77.7636 85.8786 81.8211 81.8211C85.8786 77.7636 89.0894 72.9872 91.4537 67.492C93.754 62.0607 94.9042 56.214 94.9042 49.9521C94.9042 43.754 93.754 37.9073 91.4537 32.4121C89.0894 26.9808 85.8786 22.2205 81.8211 18.131C77.7636 14.0415 72.9872 10.8466 67.492 8.54633C62.0607 6.18212 56.214 5 49.9521 5ZM49.9521 86.7572C44.8403 86.7572 40.048 85.7987 35.5751 83.8818C31.1022 81.9649 27.2045 79.3451 23.8818 76.0224C20.5591 72.6996 17.9393 68.8019 16.0224 64.3291C14.1054 59.8562 13.147 55.0639 13.147 49.9521C13.147 44.8403 14.1054 40.048 16.0224 35.5751C17.9393 31.1022 20.5591 27.2045 23.8818 23.8818C27.2045 20.5591 31.1022 17.9393 35.5751 16.0224C40.048 14.1054 44.8403 13.147 49.9521 13.147C55.0639 13.147 59.8562 14.1054 64.3291 16.0224C68.8019 17.9393 72.6996 20.5591 76.0224 23.8818C79.3451 27.2045 81.9649 31.1022 83.8818 35.5751C85.7987 40.048 86.7572 44.8403 86.7572 49.9521C86.7572 55.0639 85.7987 59.8562 83.8818 64.3291C81.9649 68.8019 79.3451 72.6996 76.0224 76.0224C72.6996 79.3451 68.8019 81.9649 64.3291 83.8818C59.8562 85.7987 55.0639 86.7572 49.9521 86.7572ZM66.3419 45.9265H54.0735V33.6581C54.0735 32.3802 53.6901 31.3738 52.9233 30.639C52.1565 29.9041 51.1662 29.5367 49.9521 29.5367C48.738 29.5367 47.7476 29.9041 46.9808 30.639C46.2141 31.3738 45.8307 32.3802 45.8307 33.6581V45.9265H33.5623C32.3482 45.9265 31.3738 46.2939 30.639 47.0288C29.9041 47.7636 29.5367 48.738 29.5367 49.9521C29.5367 51.23 29.9041 52.2364 30.639 52.9712C31.3738 53.7061 32.3482 54.0735 33.5623 54.0735H45.8307V66.3419C45.8307 67.5559 46.2141 68.5463 46.9808 69.3131C47.7476 70.0799 48.738 70.4633 49.9521 70.4633C51.1662 70.4633 52.1565 70.0799 52.9233 69.3131C53.6901 68.5463 54.0735 67.5559 54.0735 66.3419V54.0735H66.3419C67.5559 54.0735 68.5303 53.7061 69.2652 52.9712C70 52.2364 70.3674 51.23 70.3674 49.9521C70.3674 48.738 70 47.7636 69.2652 47.0288C68.5303 46.2939 67.5559 45.9265 66.3419 45.9265Z"
        fill="currentcolor" />
</svg>