<svg width="100" height="100" viewBox="0 0 100 100" fill="none" xmlns="http://www.w3.org/2000/svg">
<g clip-path="url(#clip0_1998_12)">
<rect width="100" height="100" rx="15" fill="#0F91A5"/>
<path d="M74.0047 39.9136L51.5222 22.2793C51.0148 21.8848 50.4782 21.6875 49.9122 21.6875C49.3462 21.6875 48.8681 21.8848 48.4778 22.2793L25.9953 39.9136C25.644 40.1897 25.3903 40.5053 25.2342 40.8604C25.0781 41.2154 25 41.5705 25 41.9255V69.738C25 71.8684 25.7221 73.6633 27.1663 75.123C28.6105 76.5827 30.3864 77.3125 32.4941 77.3125H67.5059C69.6136 77.3125 71.3895 76.5827 72.8337 75.123C74.2779 73.6633 75 71.8684 75 69.738V41.9255C75 41.5705 74.922 41.2154 74.7658 40.8604C74.6097 40.5053 74.356 40.1897 74.0047 39.9136ZM54.9766 72.2234H45.0234V52.0445H54.9766V72.2234ZM69.9649 69.738C69.9649 70.4876 69.7405 71.0892 69.2916 71.5429C68.8427 71.9966 68.2475 72.2234 67.5059 72.2234H60.0117V49.5C60.0117 48.7504 59.7775 48.1488 59.3091 47.6951C58.8408 47.2414 58.2358 47.0146 57.4941 47.0146H42.5059C41.7642 47.0146 41.1593 47.2414 40.6909 47.6951C40.2225 48.1488 39.9883 48.7504 39.9883 49.5V72.2234H32.4941C31.7525 72.2234 31.1573 71.9966 30.7084 71.5429C30.2595 71.0892 30.0351 70.4876 30.0351 69.738V43.2274L50 27.5459L69.9649 43.2274V69.738Z" fill="white" stroke="white" stroke-width="3.5"/>
</g>
<defs>
<clipPath id="clip0_1998_12">
<rect width="100" height="100" fill="white"/>
</clipPath>
</defs>
</svg>
