<svg width="100" height="100" viewBox="0 0 100 100" fill="none" xmlns="http://www.w3.org/2000/svg">
    <path fill-rule="evenodd" clip-rule="evenodd"
        d="M49.1699 88.83C50.732 90.3921 53.2647 90.3921 54.8268 88.83L90.8268 52.83C91.2173 52.4395 91.5102 51.9883 91.7055 51.5068C91.8979 51.0322 91.9956 50.5281 91.9983 50.0236C92.0039 48.9926 91.6134 47.9598 90.8268 47.1732L54.8268 11.1732C53.2647 9.61106 50.732 9.61106 49.1699 11.1732C47.6078 12.7353 47.6078 15.2679 49.1699 16.83L82.3415 50.0016L49.1699 83.1732C47.6078 84.7353 47.6078 87.2679 49.1699 88.83ZM54.8267 52.8301C55.3946 52.2622 55.7561 51.566 55.9111 50.8348C55.9693 50.5604 55.9984 50.2811 55.9984 50.0018C55.9984 49.7653 55.9775 49.5288 55.9359 49.2953C55.7972 48.518 55.4275 47.7739 54.8269 47.1733L18.8269 11.17C17.2649 9.60788 14.7322 9.60776 13.1701 11.1698C11.6079 12.7318 11.6078 15.2645 13.1698 16.8266L46.3415 50.0013L13.1701 83.1698C11.6079 84.7318 11.6078 87.2645 13.1698 88.8266C14.7318 90.3888 17.2645 90.3889 18.8267 88.8269L54.824 52.8329L54.8267 52.8301Z"
        fill="currentcolor" />
</svg>