<svg width="100" height="100" viewBox="0 0 100 100" fill="none" xmlns="http://www.w3.org/2000/svg">
    <path fill-rule="evenodd" clip-rule="evenodd"
        d="M48.4049 12.3307C47.9571 12.5251 47.5377 12.8055 47.1716 13.1716L11.1716 49.1716C9.60947 50.7337 9.60947 53.2663 11.1716 54.8284C12.7337 56.3905 15.2663 56.3905 16.8284 54.8284L46 25.6569L46 92C46 94.2091 47.7909 96 50 96C52.2091 96 54 94.2091 54 92L54 25.6569L83.1716 54.8284C84.7337 56.3905 87.2663 56.3905 88.8284 54.8284C90.3905 53.2663 90.3905 50.7337 88.8284 49.1716L52.8316 13.1748C52.8216 13.1648 52.8116 13.1548 52.8014 13.1448C52.7999 13.1434 52.7985 13.1419 52.797 13.1404C52.0826 12.4416 51.1073 12.0083 50.0309 12.0001C50.0103 12 49.9897 12 49.9691 12.0001C49.4416 12.0041 48.9384 12.1102 48.4784 12.2996C48.4538 12.3097 48.4293 12.32 48.4049 12.3307Z"
        fill="currentcolor" />
</svg>