<svg width="100" height="100" viewBox="0 0 100 100" fill="none" xmlns="http://www.w3.org/2000/svg">
    <path fill-rule="evenodd" clip-rule="evenodd"
        d="M89.6693 51.5951C89.4749 52.0429 89.1945 52.4623 88.8284 52.8284L52.8284 88.8284C51.2663 90.3905 48.7337 90.3905 47.1716 88.8284C45.6095 87.2663 45.6095 84.7337 47.1716 83.1716L76.3431 54L10 54C7.79086 54 6 52.2091 6 50C6 47.7909 7.79086 46 10 46L76.3431 46L47.1716 16.8284C45.6095 15.2663 45.6095 12.7337 47.1716 11.1716C48.7337 9.60948 51.2663 9.60948 52.8284 11.1716L88.8252 47.1684C88.8352 47.1784 88.8452 47.1884 88.8552 47.1986C88.8566 47.2001 88.8581 47.2015 88.8596 47.203C89.5584 47.9174 89.9917 48.8927 89.9999 49.9691C90 49.9897 90 50.0103 89.9999 50.0309C89.9959 50.5584 89.8898 51.0616 89.7004 51.5216C89.6903 51.5462 89.68 51.5707 89.6693 51.5951Z"
        fill="currentcolor" />
</svg>