<svg width="100" height="100" viewBox="0 0 100 100" fill="none" xmlns="http://www.w3.org/2000/svg">
    <path fill-rule="evenodd" clip-rule="evenodd"
        d="M10.3307 51.5951C10.5252 52.0429 10.8055 52.4623 11.1716 52.8284L47.1716 88.8284C48.7337 90.3905 51.2663 90.3905 52.8284 88.8284C54.3905 87.2663 54.3905 84.7337 52.8284 83.1716L23.6569 54L90 54C92.2091 54 94 52.2091 94 50C94 47.7909 92.2091 46 90 46L23.6569 46L52.8284 16.8284C54.3905 15.2663 54.3905 12.7337 52.8284 11.1716C51.2663 9.60948 48.7337 9.60948 47.1716 11.1716L11.1748 47.1684C11.1648 47.1784 11.1548 47.1884 11.1448 47.1986C11.1434 47.2001 11.1419 47.2015 11.1404 47.203C10.4416 47.9174 10.0083 48.8927 10.0001 49.9691C9.99996 49.9897 9.99996 50.0103 10.0001 50.0309C10.0041 50.5584 10.1102 51.0616 10.2996 51.5216C10.3097 51.5462 10.3201 51.5707 10.3307 51.5951Z"
        fill="currentcolor" />
</svg>