<svg width="100" height="100" viewBox="0 0 100 100" fill="none" xmlns="http://www.w3.org/2000/svg">
    <path fill-rule="evenodd" clip-rule="evenodd"
        d="M11.1683 50.8284C9.60623 49.2663 9.60623 46.7337 11.1683 45.1716L47.1683 9.17157C47.5589 8.78105 48.01 8.48816 48.4916 8.29289C48.9662 8.10043 49.4703 8.00281 49.9748 8.00006C51.0058 7.99443 52.0385 8.38494 52.8252 9.17157L88.8252 45.1716C90.3873 46.7337 90.3873 49.2663 88.8252 50.8284C87.2631 52.3905 84.7304 52.3905 83.1683 50.8284L49.9968 17.6569L16.8252 50.8284C15.2631 52.3905 12.7304 52.3905 11.1683 50.8284ZM47.1682 45.1717C47.7361 44.6038 48.4323 44.2423 49.1635 44.0873C49.4379 44.0291 49.7172 44 49.9966 44C50.2331 44 50.4696 44.0208 50.7031 44.0625C51.4803 44.2012 52.2244 44.5709 52.8251 45.1714L88.8283 81.1714C90.3905 82.7335 90.3906 85.2661 88.8286 86.8283C87.2665 88.3905 84.7339 88.3906 83.1717 86.8286L49.997 53.6569L16.8286 86.8283C15.2665 88.3905 12.7339 88.3906 11.1717 86.8286C9.60953 85.2665 9.60942 82.7339 11.1714 81.1717L47.1655 45.1744L47.1682 45.1717Z"
        fill="currentcolor" />
</svg>