<svg width="100" height="100" viewBox="0 0 100 100" fill="none" xmlns="http://www.w3.org/2000/svg">
    <g clip-path="url(#clip0_1998_12)">
        <path fill-rule="evenodd" clip-rule="evenodd"
            d="M33.1716 1.17157C34.7337 -0.390524 37.2663 -0.390524 38.8284 1.17157L54.8284 17.1716C56.3905 18.7337 56.3905 21.2663 54.8284 22.8284L38.8284 38.8284C37.2663 40.3905 34.7337 40.3905 33.1716 38.8284C31.6095 37.2663 31.6095 34.7337 33.1716 33.1716L42.3431 24H22C19.7909 24 18 25.7909 18 28V72C18 74.2091 19.7909 76 22 76H32C34.2091 76 36 77.7909 36 80C36 82.2091 34.2091 84 32 84H22C15.3726 84 10 78.6274 10 72V28C10 21.3726 15.3726 16 22 16H42.3431L33.1716 6.82843C31.6095 5.26633 31.6095 2.73367 33.1716 1.17157ZM68 16C65.7909 16 64 17.7909 64 20C64 22.2091 65.7909 24 68 24H78C80.2091 24 82 25.7909 82 28V72C82 74.2091 80.2091 76 78 76H57.6569L66.8284 66.8284C68.3905 65.2663 68.3905 62.7337 66.8284 61.1716C65.2663 59.6095 62.7337 59.6095 61.1716 61.1716L45.1716 77.1716C43.6095 78.7337 43.6095 81.2663 45.1716 82.8284L61.1716 98.8284C62.7337 100.391 65.2663 100.391 66.8284 98.8284C68.3905 97.2663 68.3905 94.7337 66.8284 93.1716L57.6569 84H78C84.6274 84 90 78.6274 90 72V28C90 21.3726 84.6274 16 78 16H68Z"
            fill="currentcolor" />
    </g>
</svg>