<svg width="100" height="100" viewBox="0 0 100 100" fill="none" xmlns="http://www.w3.org/2000/svg">
    <g clip-path="url(#clip0_1998_12)">
        <path fill-rule="evenodd" clip-rule="evenodd"
            d="M38.8284 1.17157C37.2663 -0.390524 34.7337 -0.390524 33.1716 1.17157C31.6095 2.73367 31.6095 5.26633 33.1716 6.82843L42.3895 16.0463C40.4701 16.3403 39 17.9985 39 20C39 22.2091 40.7909 24 43 24H43.5312C43.383 25.1832 43.7631 26.4199 44.6716 27.3284C46.2337 28.8905 48.7663 28.8905 50.3284 27.3284L50.8284 26.8284L54.8284 22.8284C56.3905 21.2663 56.3905 18.7337 54.8284 17.1716L38.8284 1.17157ZM13.6453 19.3022C12.6736 20.2349 11.8616 21.3325 11.2515 22.5528C10.4285 24.1988 10 26.0138 10 27.8541V72C10 78.6274 15.3726 84 22 84H32C34.2091 84 36 82.2091 36 80C36 77.7909 34.2091 76 32 76H22C19.7909 76 18 74.2091 18 72V27.8541C18 27.2558 18.1393 26.6657 18.4069 26.1305C18.63 25.6842 18.9361 25.2885 19.3058 24.9627L58.3431 64L45.1716 77.1716C43.6095 78.7337 43.6095 81.2663 45.1716 82.8284L61.1716 98.8284C62.7337 100.391 65.2663 100.391 66.8284 98.8284C68.3905 97.2663 68.3905 94.7337 66.8284 93.1716L57.6569 84H68H78.3431L88.8909 94.5477C90.453 96.1098 92.9856 96.1098 94.5477 94.5477C96.1098 92.9856 96.1098 90.453 94.5477 88.8909L66.8284 61.1716L22.8937 17.2368C22.8508 17.1919 22.8071 17.1482 22.7624 17.1055L11.1091 5.45227C9.54703 3.89018 7.01437 3.89018 5.45227 5.45227C3.89018 7.01437 3.89018 9.54703 5.45227 11.1091L13.6453 19.3022ZM64 69.6569L57.6569 76H68H70.3431L64 69.6569ZM64 20C64 17.7909 65.7909 16 68 16H78C84.6274 16 90 21.3726 90 28V50V63C90 65.2091 88.2091 67 86 67C83.7909 67 82 65.2091 82 63V50V28C82 25.7909 80.2091 24 78 24H68C65.7909 24 64 22.2091 64 20Z"
            fill="currentcolor" />
    </g>
</svg>