<svg width="100" height="100" viewBox="0 0 100 100" fill="none" xmlns="http://www.w3.org/2000/svg">
    <g clip-path="url(#clip0_1998_12)">
        <path fill-rule="evenodd" clip-rule="evenodd"
            d="M28.6609 10.3837L28.6464 10.3959C12.8769 23.6399 9.21839 46.0355 19.4719 62.8305L7.29969 94.4783C7.19584 94.7306 7.11703 94.9958 7.06636 95.2709C6.97893 95.7396 6.97811 96.2109 7.05509 96.665C7.15282 97.249 7.3771 97.7902 7.69879 98.2593C8.02371 98.735 8.45359 99.1443 8.97105 99.4479C9.3635 99.6794 9.79891 99.8457 10.2624 99.9321C10.5396 99.9844 10.8176 100.006 11.0925 100H42.9138C43.2276 100.007 43.5449 99.9769 43.8592 99.9075C44.325 99.8056 44.7604 99.6225 45.1498 99.3738C46.1137 98.7583 46.7963 97.7411 46.9614 96.5582C47.027 96.0961 47.0122 95.6191 46.9093 95.1486C46.8414 94.8356 46.7369 94.5363 46.6005 94.2553L39.7984 79.4142C53.0695 84.1834 68.6139 81.8104 80.3393 71.9716C80.3409 71.9702 80.3426 71.9688 80.3442 71.9675C82.4238 70.2194 83.0966 67.7242 83.1788 65.5257C83.2613 63.3184 82.7862 60.8928 82.0125 58.4533C80.4555 53.5443 77.3981 47.6857 73.3151 41.6391C72.0788 39.8083 69.5924 39.3263 67.7616 40.5626C65.9308 41.7988 65.4488 44.2852 66.6851 46.116C70.5231 51.7999 73.1433 56.9512 74.3869 60.872C75.0134 62.8474 75.2194 64.2917 75.1844 65.2268C75.1696 65.6242 75.1179 65.8393 75.0849 65.9369C60.965 77.6851 40.4064 76.0238 29.0712 62.515C17.736 49.0063 19.6699 28.4714 33.6916 16.6061C33.7901 16.5912 33.9996 16.5782 34.3692 16.6262C35.2621 16.7422 36.6062 17.169 38.3966 18.0892C41.9508 19.9161 46.4641 23.269 51.3082 27.8933C52.9062 29.4187 55.4382 29.36 56.9636 27.762C58.489 26.1641 58.4302 23.6321 56.8323 22.1067C51.6743 17.1827 46.5349 13.2774 42.0537 10.9741C39.8264 9.82925 37.5571 8.97307 35.3995 8.69285C33.244 8.4129 30.7124 8.66225 28.6609 10.3837ZM28.3638 73.6666L36.7666 92H16.8242L25.2259 70.1554C26.1389 71.0727 27.088 71.9363 28.0693 72.7461C28.1286 73.0571 28.226 73.366 28.3638 73.6666ZM39.9194 32.5051C38.773 30.6167 36.3128 30.0151 34.4244 31.1615C32.536 32.3078 31.9344 34.768 33.0808 36.6564C35.8087 41.1502 39.2323 45.9231 43.2039 50.6562C46.6997 54.8223 50.298 58.5739 53.8021 61.7752C55.4331 63.2652 57.9632 63.151 59.4532 61.52C60.9433 59.889 60.829 57.3589 59.198 55.8689C56.7094 53.5953 54.1444 50.9972 51.5949 48.1325L67.9385 34.4185C72.9735 37.7377 79.7841 37.5231 84.6403 33.4483C90.5634 28.4783 91.3359 19.6477 86.3659 13.7246C81.3959 7.80159 72.5653 7.02902 66.6423 11.999C61.7819 16.0774 60.3896 22.7553 62.7928 28.2931L46.4805 41.9807C43.9598 38.7309 41.7555 35.5299 39.9194 32.5051ZM80.2376 18.8669C78.1076 16.3285 74.323 15.9974 71.7846 18.1274C69.2461 20.2574 68.915 24.0419 71.045 26.5804C73.175 29.1188 76.9596 29.4499 79.498 27.3199C82.0365 25.1899 82.3676 21.4054 80.2376 18.8669Z"
            fill="currentcolor" />
    </g>
</svg>