<svg width="100" height="100" viewBox="0 0 100 100" fill="none" xmlns="http://www.w3.org/2000/svg">
    <g clip-path="url(#clip0_1998_12)">
        <path fill-rule="evenodd" clip-rule="evenodd"
            d="M11.1091 5.45227C9.54703 3.89018 7.01437 3.89018 5.45227 5.45227C3.89018 7.01437 3.89018 9.54703 5.45227 11.1091L18.0859 23.7427C11.9275 36.0468 12.1702 50.8643 19.4721 62.8298L7.29963 94.4783C7.19577 94.7305 7.11696 94.9958 7.0663 95.2708C6.97886 95.7396 6.97804 96.2109 7.05503 96.665C7.15276 97.249 7.37704 97.7902 7.69872 98.2593C8.02364 98.735 8.45353 99.1442 8.97098 99.4479C9.36343 99.6794 9.79885 99.8457 10.2624 99.9321C10.5395 99.9844 10.8175 100.006 11.0924 100H42.9138C43.2283 100.007 43.5463 99.9768 43.8614 99.907C44.3266 99.8049 44.7615 99.6218 45.1505 99.3733C45.6524 99.0543 46.0636 98.6356 46.3698 98.156C46.6736 97.6821 46.8802 97.14 46.9614 96.5577C47.0267 96.0972 47.0122 95.6219 46.9101 95.153C46.8423 94.8384 46.7375 94.5376 46.6005 94.2553L39.7974 79.4123C50.0652 83.1022 61.6937 82.5189 71.8557 77.5126L88.8909 94.5477C90.453 96.1098 92.9856 96.1098 94.5477 94.5477C96.1098 92.9856 96.1098 90.453 94.5477 88.8909L11.1091 5.45227ZM65.7978 71.4547L24.128 29.7848C19.7514 40.624 21.2738 53.2226 29.0711 62.515C38.1015 73.277 52.9745 76.5202 65.7978 71.4547ZM71.7845 18.1274C74.3229 15.9974 78.1075 16.3285 80.2375 18.8669C82.3675 21.4054 82.0364 25.1899 79.498 27.3199C76.9595 29.4499 73.175 29.1188 71.045 26.5804C68.915 24.0419 69.2461 20.2574 71.7845 18.1274ZM86.3658 13.7246C81.3958 7.80158 72.5653 7.02901 66.6422 11.999C61.7818 16.0774 60.3896 22.7553 62.7927 28.2931L56.7497 33.3637C55.0574 34.7837 54.8367 37.3067 56.2567 38.999C57.6767 40.6913 60.1997 40.9121 61.892 39.4921L67.9384 34.4185C72.9735 37.7377 79.7841 37.5231 84.6403 33.4483C90.5633 28.4783 91.3359 19.6477 86.3658 13.7246ZM37.3823 9.09678C35.2508 8.51624 33.0523 9.77354 32.4717 11.905C31.8912 14.0365 33.1485 16.2351 35.28 16.8156C38.8282 17.782 44.6585 21.5453 51.3082 27.8933C52.9061 29.4187 55.4381 29.36 56.9635 27.762C58.4889 26.1641 58.4302 23.6321 56.8322 22.1067C49.9793 15.5647 42.9438 10.6115 37.3823 9.09678ZM28.0691 72.7455C27.0879 71.9358 26.1388 71.0724 25.2259 70.1553L16.8241 92H36.7665L28.3637 73.6666C28.2258 73.3657 28.1284 73.0567 28.0691 72.7455ZM67.7615 40.5626C69.5923 39.3263 72.0787 39.8082 73.315 41.6391C75.4176 44.7529 77.2342 47.796 78.7128 50.67C79.7235 52.6344 78.9504 55.0461 76.986 56.0568C75.0216 57.0675 72.6098 56.2944 71.5992 54.33C70.2844 51.7747 68.6353 49.0043 66.685 46.116C65.4487 44.2852 65.9307 41.7988 67.7615 40.5626Z"
            fill="currentcolor" />
    </g>
</svg>