<svg width="100" height="100" viewBox="0 0 100 100" fill="none" xmlns="http://www.w3.org/2000/svg">
    <path fill-rule="evenodd" clip-rule="evenodd"
        d="M41.9185 3.99998H20C13.3726 3.99998 8 9.37256 8 16V32.8387V44C8 50.6274 13.3726 56 20 56H31.9113C31.9715 56.0014 32.0319 56.0014 32.0923 56H67.9077C67.9681 56.0014 68.0285 56.0014 68.0887 56H80C86.6274 56 92 50.6274 92 44V32.8387V16C92 9.37256 86.6274 3.99998 80 3.99998H58.0815C58.0253 3.99879 57.9689 3.99878 57.9125 3.99998H42.0875C42.0311 3.99878 41.9747 3.99879 41.9185 3.99998ZM16 44V37.9681C17.8066 38.9416 19.6708 40.5263 21.5201 42.6506C22.9888 44.3377 24.3009 46.1994 25.4077 48H20C17.7909 48 16 46.2091 16 44ZM27.5539 37.3977C30.5517 40.8411 32.9457 44.7783 34.5527 48H65.4473C67.0543 44.7783 69.4483 40.8411 72.4461 37.3977C73.5386 36.1428 74.7753 34.8809 76.1443 33.7261C72.4547 31.7845 69.168 29.134 66.3764 26.363C61.6661 21.6872 57.9486 16.262 55.5829 12H44.4171C42.0514 16.262 38.3339 21.6872 33.6236 26.363C30.832 29.134 27.5453 31.7845 23.8557 33.7261C25.2247 34.8809 26.4614 36.1428 27.5539 37.3977ZM35.052 12H20C17.7909 12 16 13.7908 16 16V28.2921C20.1798 27.1678 24.258 24.3875 27.9876 20.6854C30.7589 17.9343 33.1562 14.8503 35.052 12ZM80 48H74.5923C75.6991 46.1994 77.0112 44.3377 78.4799 42.6506C80.3292 40.5263 82.1934 38.9416 84 37.9681V44C84 46.2091 82.2091 48 80 48ZM84 28.2921C79.8202 27.1678 75.742 24.3875 72.0124 20.6854C69.2411 17.9343 66.8438 14.8503 64.948 12H80C82.2091 12 84 13.7908 84 16V28.2921ZM13 78C6.37258 78 1 83.3726 1 90V92C1 94.2091 2.79086 96 5 96C7.20914 96 9 94.2091 9 92V90C9 87.7908 10.7909 86 13 86H20H27C29.2091 86 31 87.7908 31 90V92C31 94.2091 32.7909 96 35 96C37.2091 96 39 94.2091 39 92V90C39 87.7908 40.7909 86 43 86H50H57C59.2091 86 61 87.7908 61 90V92C61 94.2091 62.7909 96 65 96C67.2091 96 69 94.2091 69 92V90C69 87.7908 70.7909 86 73 86H80H87C89.2091 86 91 87.7908 91 90V92C91 94.2091 92.7909 96 95 96C97.2091 96 99 94.2091 99 92V90C99 83.3726 93.6274 78 87 78H84V76C84 69.3726 78.6274 64 72 64H58C54.9266 64 52.123 65.1554 50 67.0556C47.877 65.1554 45.0734 64 42 64H28C21.3726 64 16 69.3726 16 76V78H13ZM76 78V76C76 73.7908 74.2091 72 72 72H58C55.7909 72 54 73.7908 54 76V78H57C60.0734 78 62.877 79.1554 65 81.0555C67.123 79.1554 69.9266 78 73 78H76ZM46 76V78H43C39.9266 78 37.123 79.1554 35 81.0555C32.877 79.1554 30.0734 78 27 78H24V76C24 73.7908 25.7909 72 28 72H42C44.2091 72 46 73.7908 46 76Z"
        fill="white" />
</svg>