<svg width="100" height="100" viewBox="0 0 100 100" fill="none" xmlns="http://www.w3.org/2000/svg">
    <path fill-rule="evenodd" clip-rule="evenodd"
        d="M16 19.9246C16 18.8892 16.3811 17.9693 17.2153 17.1278C18.0497 16.362 18.976 16 20.0334 16C21.0908 16 22.0171 16.362 22.8514 17.1276L50 44.442L77.1486 17.1276C77.9829 16.362 78.9092 16 79.9666 16C81.024 16 81.9503 16.362 82.7847 17.1278C83.6189 17.9693 84 18.8892 84 19.9246C84 20.9659 83.6146 21.8903 82.7706 22.7357L55.6104 49.9414L82.7706 77.147C83.6146 77.9925 84 78.9169 84 79.9581C84 80.9994 83.6146 81.9238 82.7706 82.7692C82.3192 83.2213 81.8396 83.5255 81.3306 83.7054C80.7259 83.9192 80.2793 84 79.9666 84C79.6538 84 79.2072 83.9192 78.6025 83.7054C78.0935 83.5255 77.6139 83.2213 77.1625 82.7692L50 55.5611L22.8375 82.7692C22.3449 83.2626 21.9129 83.5706 21.5452 83.7406C21.2109 83.8951 20.7227 84 20.0334 84C19.3442 84 18.856 83.8951 18.5217 83.7406C18.154 83.5706 17.722 83.2626 17.2294 82.7692C16.3854 81.9238 16 80.9994 16 79.9581C16 78.9169 16.3854 77.9925 17.2294 77.147L44.3896 49.9414L17.2294 22.7357C16.3854 21.8903 16 20.9659 16 19.9246Z"
        fill="currentcolor" />
</svg>