<svg width="100" height="100" viewBox="0 0 100 100" fill="none" xmlns="http://www.w3.org/2000/svg">
    <path
        d="M74 13.9659H69.9688C69.9688 11.7792 69.1875 9.90489 67.625 8.34292C66.0625 6.78098 64.1875 6 62 6H38C35.8125 6 33.9375 6.78098 32.375 8.34292C30.8125 9.90489 30.0312 11.7792 30.0312 13.9659H26C22.625 13.9659 19.7813 15.1217 17.4688 17.4334C15.1562 19.7451 14 22.5879 14 25.9617V82.0043C14 85.3781 15.1562 88.2208 17.4688 90.5325C19.7813 92.8442 22.625 94 26 94H74C77.375 94 80.2187 92.8442 82.5312 90.5325C84.8438 88.2208 86 85.3781 86 82.0043V25.9617C86 22.5879 84.8438 19.7451 82.5312 17.4334C80.2187 15.1217 77.375 13.9659 74 13.9659ZM38 13.9659H62V22.0256H38V17.9957V13.9659ZM78.0312 82.0043C78.0312 83.1914 77.6562 84.1441 76.9062 84.8626C76.1562 85.5811 75.1875 85.9404 74 85.9404H26C24.8125 85.9404 23.8438 85.5811 23.0938 84.8626C22.3438 84.1441 21.9688 83.1914 21.9688 82.0043V25.9617C21.9688 24.7746 22.3438 23.8218 23.0938 23.1033C23.8438 22.3848 24.8125 22.0256 26 22.0256H30.0312C30.0312 24.2123 30.8125 26.0866 32.375 27.6486C33.9375 29.2105 35.8125 29.9915 38 29.9915H62C64.1875 29.9915 66.0625 29.2105 67.625 27.6486C69.1875 26.0866 69.9688 24.2123 69.9688 22.0256H74C75.1875 22.0256 76.1562 22.3848 76.9062 23.1033C77.6562 23.8218 78.0312 24.7746 78.0312 25.9617V82.0043Z"
        fill="currentcolor" />
</svg>