<svg width="100" height="100" viewBox="0 0 100 100" fill="none" xmlns="http://www.w3.org/2000/svg">
<path d="M20.6156 5.58685H72.5429C73.4312 11.6855 74.5389 17.7515 75.4902 23.8415C76.8237 31.8665 78.129 39.896 79.4517 47.9232C79.6667 49.2176 79.999 50.5316 79.7688 51.85C78.2376 60.7807 76.7433 69.7201 75.223 78.6552C74.3586 84.0241 73.353 89.3713 72.5451 94.7488C55.2353 94.7662 37.9254 94.7619 20.6156 94.751V94.5512C23.237 80.1299 25.6912 65.6783 28.2627 51.2484C28.4712 50.3188 28.2801 49.374 28.0977 48.4597C25.6065 34.1926 23.1241 19.9234 20.6156 5.65852V5.58685ZM42.5689 17.4779C40.3471 18.453 38.7551 20.5207 38.0579 22.8098C37.3368 24.9556 37.3216 27.2426 37.3499 29.4796C37.352 44.1789 37.3499 58.876 37.3499 73.5731C37.3759 76.1945 37.8081 78.9398 39.3415 81.1334C40.5534 82.9013 42.5059 84.0632 44.5757 84.5388C47.3296 85.1817 50.177 84.8733 52.9765 84.9472C55.6436 85.0167 58.4844 84.806 60.7866 83.3204C63.2951 81.5981 64.52 78.6313 65.1043 75.7493C65.6016 73.0757 66.0751 70.3999 66.5442 67.722C67.5346 67.8806 68.525 68.0521 69.524 68.1521C67.4325 65.5176 65.328 62.8961 63.2126 60.2812C60.274 61.9687 57.3941 63.7584 54.4599 65.4568C55.485 65.6435 56.5145 65.8108 57.5418 65.9932C57.1921 68.1694 56.7621 70.3304 56.4016 72.5023C56.2452 73.5926 55.9237 74.7046 55.1288 75.5104C54.2384 76.5724 52.7615 76.7266 51.4649 76.7114C50.1596 76.6875 48.6371 76.8678 47.5837 75.9252C46.5825 75.089 46.3957 73.7012 46.4088 72.4741C46.4022 57.9964 46.4044 43.5165 46.4088 29.0388C46.3979 27.803 46.5217 26.4064 47.4817 25.5138C48.3135 24.7276 49.5254 24.6689 50.6048 24.6776C51.871 24.6863 53.235 24.5929 54.3665 25.2749C55.5458 25.9525 56.1214 27.3013 56.3429 28.587C56.7252 30.7676 57.09 32.9525 57.4831 35.133C56.4428 35.3676 55.3938 35.5522 54.3339 35.6825C57.2877 37.4027 60.1676 39.2487 63.1365 40.945C65.265 38.3322 67.3978 35.7216 69.5023 33.0893C68.4989 33.2674 67.4933 33.4325 66.4856 33.5975C66.1837 31.973 65.9404 30.3397 65.6516 28.713C65.291 26.6953 65.076 24.6212 64.2963 22.7077C63.5448 20.8269 62.3786 19.0329 60.6519 17.9144C58.2368 16.4115 55.2896 16.2964 52.5269 16.3615C49.1996 16.4375 45.6681 15.9814 42.5689 17.4779Z" fill="#4ABF3B"/>
<path d="M42.5689 17.4779C45.6681 15.9815 49.1996 16.4375 52.5269 16.3615C55.2896 16.2964 58.2368 16.4115 60.6519 17.9144C62.3786 19.0329 63.5449 20.8269 64.2963 22.7077C65.076 24.6212 65.291 26.6953 65.6516 28.713C65.9404 30.3397 66.1837 31.973 66.4856 33.5975C67.4933 33.4325 68.4989 33.2674 69.5023 33.0893C67.3978 35.7216 65.265 38.3322 63.1365 40.945C60.1676 39.2487 57.2877 37.4027 54.3339 35.6825C55.3938 35.5522 56.4428 35.3676 57.4831 35.133C57.09 32.9525 56.7252 30.7676 56.3429 28.587C56.1214 27.3013 55.5458 25.9525 54.3665 25.2749C53.235 24.5929 51.871 24.6863 50.6048 24.6776C49.5254 24.669 48.3135 24.7276 47.4817 25.5138C46.5217 26.4065 46.3979 27.803 46.4088 29.0388C46.4044 43.5165 46.4022 57.9964 46.4088 72.4741C46.3957 73.7012 46.5825 75.089 47.5837 75.9252C48.6371 76.8678 50.1596 76.6875 51.4649 76.7114C52.7615 76.7266 54.2384 76.5724 55.1288 75.5104C55.9237 74.7046 56.2452 73.5926 56.4016 72.5023C56.7621 70.3305 57.1921 68.1694 57.5418 65.9932C56.5145 65.8108 55.485 65.6435 54.4599 65.4568C57.3941 63.7584 60.274 61.9687 63.2126 60.2812C65.328 62.8961 67.4325 65.5176 69.524 68.1521C68.525 68.0522 67.5346 67.8806 66.5442 67.722C66.0751 70.3999 65.6016 73.0757 65.1043 75.7493C64.52 78.6314 63.2951 81.5981 60.7866 83.3204C58.4844 84.806 55.6436 85.0167 52.9765 84.9472C50.177 84.8733 47.3296 85.1817 44.5757 84.5389C42.5059 84.0632 40.5534 82.9013 39.3415 81.1334C37.8081 78.9398 37.3759 76.1945 37.3499 73.5731C37.3499 58.876 37.352 44.1789 37.3499 29.4797C37.3216 27.2426 37.3368 24.9556 38.0579 22.8098C38.7551 20.5207 40.3471 18.453 42.5689 17.4779Z" fill="#0D200A"/>
</svg>
