<svg width="100" height="100" viewBox="0 0 100 100" fill="none" xmlns="http://www.w3.org/2000/svg">
    <g clip-path="url(#clip0_1998_12)">
        <path fill-rule="evenodd" clip-rule="evenodd"
            d="M62.3431 18L4 18C1.79086 18 0 19.7909 0 22C0 24.2091 1.79086 26 4 26L62.3431 26C66.5122 26 67.9004 31.5803 64.2173 33.5337L30.5342 51.3988C19.4849 57.2592 23.6497 74 36.1569 74H86.3431L77.1716 83.1716C75.6095 84.7337 75.6095 87.2663 77.1716 88.8284C78.7337 90.3905 81.2663 90.3905 82.8284 88.8284L98.8284 72.8284C100.391 71.2663 100.391 68.7337 98.8284 67.1716L82.8284 51.1716C81.2663 49.6095 78.7337 49.6095 77.1716 51.1716C75.6095 52.7337 75.6095 55.2663 77.1716 56.8284L86.3431 66H36.1569C31.9879 66 30.5996 60.4197 34.2827 58.4663L67.9658 40.6012C79.0151 34.7408 74.8503 18 62.3431 18Z"
            fill="currentcolor" />
    </g>
</svg>