<svg width="100" height="100" viewBox="0 0 100 100" fill="none" xmlns="http://www.w3.org/2000/svg">
    <path fill-rule="evenodd" clip-rule="evenodd"
        d="M10 22C10 15.3726 15.3726 10 22 10H78C84.6274 10 90 15.3726 90 22V78C90 84.6274 84.6274 90 78 90C75.7909 90 74 88.2091 74 86C74 83.7909 75.7909 82 78 82C80.2091 82 82 80.2091 82 78V22C82 19.7909 80.2091 18 78 18H22C19.7909 18 18 19.7909 18 22V78C18 80.2091 19.7909 82 22 82H48.9355C50.4082 79.0366 53.4663 77 57 77C61.9706 77 66 81.0294 66 86C66 90.9706 61.9706 95 57 95C53.4663 95 50.4082 92.9634 48.9355 90H22C15.3726 90 10 84.6274 10 78V22ZM41.165 30.6365C39.9343 29.8444 38.3691 29.7876 37.0843 30.4886C35.7994 31.1896 35 32.5364 35 34V66C35 67.4865 35.8243 68.8504 37.1404 69.5415C38.4565 70.2325 40.0472 70.1368 41.2709 69.2929L65.2709 52.7411C66.3721 51.9817 67.0208 50.7221 66.9995 49.3846C66.9782 48.0471 66.2898 46.8088 65.165 46.0848L41.165 30.6365ZM43 58.3824V41.3317L55.788 49.5631L43 58.3824Z"
        fill="currentcolor" />
</svg>