<svg width="100" height="100" viewBox="0 0 100 100" fill="none" xmlns="http://www.w3.org/2000/svg">
    <path fill-rule="evenodd" clip-rule="evenodd"
        d="M22 10C15.3726 10 10 15.3726 10 22V52C10 58.6274 15.3726 64 22 64H24C26.2091 64 28 62.2091 28 60C28 57.7909 26.2091 56 24 56H22C19.7909 56 18 54.2091 18 52V22C18 19.7909 19.7909 18 22 18H52C54.2091 18 56 19.7909 56 22V24C56 26.2091 57.7909 28 60 28C62.2091 28 64 26.2091 64 24V22C64 15.3726 58.6274 10 52 10H22ZM48 36C41.3726 36 36 41.3726 36 48V78C36 84.6274 41.3726 90 48 90H78C84.6274 90 90 84.6274 90 78V48C90 41.3726 84.6274 36 78 36H48ZM44 48C44 45.7909 45.7909 44 48 44H78C80.2091 44 82 45.7909 82 48V78C82 80.2091 80.2091 82 78 82H48C45.7909 82 44 80.2091 44 78V48Z"
        fill="currentcolor" />
</svg>