<svg width="100" height="100" viewBox="0 0 100 100" fill="none" xmlns="http://www.w3.org/2000/svg">
    <path fill-rule="evenodd" clip-rule="evenodd"
        d="M87 50C87 70.4345 70.4345 87 50 87C29.5655 87 13 70.4345 13 50C13 29.5655 29.5655 13 50 13C70.4345 13 87 29.5655 87 50ZM95 50C95 74.8528 74.8528 95 50 95C25.1472 95 5 74.8528 5 50C5 25.1472 25.1472 5 50 5C74.8528 5 95 25.1472 95 50ZM34 50C34 41.1634 41.1634 34 50 34C55.5501 34 60.4426 36.8225 63.3182 41.1291C64.545 42.9663 67.0288 43.4612 68.866 42.2344C70.7032 41.0076 71.1981 38.5238 69.9713 36.6866C65.6748 30.252 58.3348 26 50 26C36.7452 26 26 36.7452 26 50C26 63.2548 36.7452 74 50 74C58.3348 74 65.6748 69.748 69.9713 63.3134C71.1981 61.4762 70.7032 58.9924 68.866 57.7656C67.0288 56.5388 64.545 57.0337 63.3182 58.8709C60.4426 63.1775 55.5501 66 50 66C41.1634 66 34 58.8366 34 50Z"
        fill="currentcolor" />
</svg>