<svg width="100" height="100" viewBox="0 0 100 100" fill="none" xmlns="http://www.w3.org/2000/svg">
    <path
        d="M91.345 38.8009C90.3454 37.6137 89.1583 36.5673 87.7838 35.6613C86.4093 34.7554 84.9411 34.2087 83.3791 34.0213C82.9417 34.0213 82.5982 34.0213 82.3482 34.0213C82.0983 34.0213 81.7547 34.0213 81.3174 34.0213H62.9489V22.0256C62.9489 17.5897 61.3869 13.8097 58.263 10.6858C55.1392 7.56195 51.3592 6 46.9233 6C46.1736 6 45.4395 6.20306 44.721 6.60916C44.0025 7.01527 43.5495 7.62443 43.3621 8.43663L28.5548 41.9872H18.9957C15.5594 41.9872 12.7011 43.143 10.4207 45.4547C8.14022 47.7664 7 50.6092 7 53.983V82.0043C7 85.3781 8.14022 88.2208 10.4207 90.5325C12.7011 92.8442 15.5594 94 18.9957 94H76.1629C79.1619 94 81.7547 93.0316 83.9414 91.0948C86.1281 89.1579 87.5339 86.7838 88.1587 83.9723L93.7817 47.9851C93.9691 46.3607 93.8597 44.7675 93.4537 43.2055C93.0476 41.6436 92.3447 40.1754 91.345 38.8009ZM26.9617 85.9404H18.9957C17.7462 85.9404 16.7622 85.5811 16.0437 84.8626C15.3251 84.1441 14.9659 83.1914 14.9659 82.0043V53.983C14.9659 52.7959 15.3251 51.8275 16.0437 51.0777C16.7622 50.328 17.7462 49.9531 18.9957 49.9531H26.9617V85.9404ZM80.099 82.754C79.9116 83.7537 79.4587 84.5346 78.7401 85.0969C78.0216 85.6592 77.1626 85.9404 76.1629 85.9404H34.9276V46.7668L49.36 14.4345C50.9843 14.9968 52.3277 15.9496 53.3898 17.2929C54.4519 18.6361 54.983 20.2137 54.983 22.0256V37.9574C54.983 39.2069 55.3422 40.191 56.0607 40.9095C56.7792 41.628 57.7319 41.9872 58.9191 41.9872H81.7859C81.9734 41.9872 82.0983 41.9872 82.1608 41.9872C82.2233 41.9872 82.3482 41.9872 82.5357 41.9872C83.1605 41.9872 83.6915 42.159 84.1289 42.5027C84.5662 42.8463 84.9723 43.2055 85.3472 43.5804C85.722 43.9553 85.9407 44.4239 86.0032 44.9862C86.0657 45.5485 86.0969 46.017 86.0969 46.3919L80.099 82.754Z"
        fill="currentcolor" />
</svg>