<svg width="100" height="100" viewBox="0 0 100 100" fill="none" xmlns="http://www.w3.org/2000/svg">
    <g clip-path="url(#clip0_1998_12)">
        <circle cx="50" cy="50" r="50" fill="#2D1E4D" />
        <path
            d="M60.0613 61.7383C60.0613 58.7198 60.0727 56.2528 60.0897 56.2528C60.1011 56.2528 60.8344 56.1278 61.7098 55.9686C62.5852 55.8151 63.4321 55.6844 63.5856 55.6844H63.8698V61.1584V66.6325L62.21 66.9281C61.2948 67.0929 60.4365 67.2294 60.3057 67.2237H60.0613V61.7383Z"
            fill="#2D1E4D" />
        <path
            d="M48.8062 72.2543V69.5543H49.0108C49.1871 69.5543 49.4201 69.7134 50.9151 70.873L52.6147 72.1861V73.2548C52.6147 73.8403 52.592 74.3348 52.5693 74.3519C52.4897 74.3974 49.2212 74.9544 49.0108 74.9544H48.8062V72.2543Z"
            fill="#2D1E4D" />
        <path
            d="M48.8062 63.0513V58.2537L48.9654 58.2196C49.0506 58.2025 49.4883 58.123 49.9431 58.0434C50.7844 57.9013 51.4665 57.7762 52.0804 57.6625C52.6716 57.5545 52.6147 57.185 52.6147 61.1868V64.6998L51.1823 66.0356C49.0904 67.9797 49.2439 67.8489 49.0108 67.8489H48.8062V63.0513Z"
            fill="#2D1E4D" />
        <path
            d="M21.8452 66.8997C21.8225 66.8826 21.8054 65.6264 21.8054 64.12V61.3744L22.1067 61.3176C22.9309 61.1584 23.4539 61.0788 23.6017 61.0959L23.7665 61.113L23.7836 63.2503L23.7949 65.3876L23.1299 66.0356C22.7661 66.3937 22.4136 66.7405 22.3454 66.8144C22.2261 66.9338 21.9305 66.9849 21.8452 66.8997Z"
            fill="#2D1E4D" />
        <path
            d="M34.6749 64.876C34.6351 64.7623 34.6748 59.1689 34.7203 59.1234C34.7772 59.0666 36.3517 58.7994 36.5166 58.8222L36.653 58.8392L36.6701 61.3688C36.6814 62.7614 36.6701 64.0802 36.6473 64.2962L36.6132 64.6941L36.2437 64.7567C36.0391 64.7908 35.7094 64.8533 35.5048 64.8874C35.0102 64.9727 34.7146 64.967 34.6749 64.876Z"
            fill="#2D1E4D" />
        <path
            d="M47.1577 32.6115C47.1577 29.9853 47.1691 27.8309 47.1805 27.8309C47.1919 27.8309 47.9251 27.7001 48.8062 27.5467C49.6873 27.3875 50.5513 27.2625 50.7162 27.2625H51.0231V31.9691C51.0231 34.5555 51.0004 36.6985 50.9776 36.7326C50.9322 36.8008 48.09 37.3238 47.5159 37.3693L47.1577 37.392V32.6115Z"
            fill="#2D1E4D" />
        <path
            d="M73.772 27.9048L73.7891 23.1413L74.0733 23.0958C74.2324 23.0731 74.9885 22.9367 75.7615 22.8002C76.5403 22.6581 77.2565 22.5444 77.3645 22.5444H77.5521L77.5919 22.9082C77.609 23.1072 77.626 25.2445 77.626 27.6547L77.6203 32.043L77.4953 32.0885C77.4271 32.1169 77.2054 32.1681 77.0007 32.2022C76.7961 32.2363 76.1367 32.3557 75.5342 32.4637C74.9316 32.5717 74.2836 32.6626 74.096 32.6626H73.7606L73.772 27.9048Z"
            fill="#2D1E4D" />
        <path
            d="M54.8046 87.549C52.7612 87.8533 50.1793 87.987 48.0646 87.9056C41.0993 87.6291 34.464 85.5243 28.7307 81.7551C27.4308 80.9079 25.704 79.6938 25.7307 79.6537L51.2418 75.2335L34.1073 81.7697C36.7806 83.0495 39.6445 84.0071 42.5865 84.6013C43.3412 84.7518 44.7425 84.9759 45.2107 85.0272C45.3645 85.0428 45.7603 85.0796 46.0869 85.1186C47.4314 85.2613 49.6565 85.3149 51.2417 85.2413C53.0165 85.1588 53.8292 85.0485 56.2918 84.5502C58.7388 84.0608 59.3385 83.9003 61.1635 83.257C66.8334 81.2594 71.9927 77.6943 75.9068 73.0623L76.5166 72.3433L77.8354 71.8361C78.5622 71.5574 79.3861 71.2419 79.6648 71.1282C79.9446 71.0201 80.2824 70.8829 80.4173 70.8328C80.551 70.777 80.7283 70.7068 80.813 70.6667C80.9502 70.5987 80.9568 70.6031 80.9223 70.7202C80.8676 70.9108 79.3705 72.9899 78.6146 73.9352C75.7183 77.5405 72.1877 80.5827 68.2614 82.8636C65.5446 84.4388 63.3117 85.3897 59.6986 86.5122C58.9829 86.7307 55.8748 87.3929 54.8046 87.549Z"
            fill="white" stroke="white" stroke-miterlimit="16" />
        <path
            d="M66.294 58.7711L66.3217 43.0468C66.3309 34.4054 66.377 27.2949 66.4139 27.258C66.4877 27.1842 67.2255 27.0459 70.2135 26.5294C71.0989 26.3819 72.2886 26.179 72.8419 26.0775C75.3504 25.6349 76.6785 25.4043 77.3609 25.2752C77.7667 25.2014 78.5599 25.0631 79.1132 24.9616C79.6758 24.8694 80.2383 24.7587 80.3859 24.7311L80.6349 24.6757V33.7045V42.724L78.2094 44.9743C76.8814 46.2101 75.7839 47.2799 75.7655 47.3445C75.747 47.3998 76.8353 48.2483 78.1817 49.2259L80.6349 50.9874V56.0874V61.1966L79.7403 61.3442C79.2423 61.4364 78.4215 61.5839 77.9143 61.6854C77.4071 61.7868 75.7931 62.0727 74.3175 62.3217C71.8551 62.7367 66.3727 63.8747 66.3727 63.8747L66.294 58.7711ZM73.4691 57.5168C74.9447 57.2678 76.1897 57.0373 76.2266 57.0096C76.2635 56.9819 76.3004 56.3087 76.3004 55.5064V54.0492L73.5428 51.9188C72.0211 50.7383 70.7577 49.7792 70.73 49.7792C70.7023 49.7792 70.6747 51.6237 70.6747 53.8832C70.6747 56.1427 70.7023 57.9872 70.73 57.9872C70.7577 57.9872 71.9843 57.7751 73.4691 57.5168ZM71.2188 46.0718C71.4586 45.8505 72.6944 44.7069 73.9763 43.5172L76.3004 41.3499V35.9455C76.3004 32.9667 76.2819 30.5135 76.2542 30.4859C76.2266 30.4582 76.0421 30.4674 75.8577 30.5135C75.6732 30.5504 75.1476 30.6519 74.6864 30.7256C74.2345 30.8086 73.257 30.9747 72.5192 31.1038C71.7814 31.2329 71.0712 31.362 70.9329 31.3897L70.6747 31.445V38.9521C70.6747 43.0837 70.7023 46.4591 70.73 46.4591C70.7577 46.4591 70.979 46.2839 71.2188 46.0718Z"
            fill="white" />
        <path
            d="M43.8974 67.6496C43.7882 66.8376 43.8246 63.4975 43.9338 63.3314C44.0066 63.2022 44.4616 63.0362 44.9531 62.9808C46.9915 62.6671 53.4527 61.486 53.5437 61.3938C53.7257 61.2277 53.6893 59.5668 53.5073 59.1978C53.3981 58.9948 51.3778 56.6696 49.03 54.0307C46.6639 51.3918 44.5162 48.9743 44.2614 48.6422L43.7882 48.0701L43.7518 40.1349C43.7336 35.7798 43.77 32.0153 43.8246 31.7569C43.9338 31.3325 44.0794 31.2587 45.2443 31.0741C45.9723 30.9634 49.121 30.3913 52.2696 29.8193C57.02 28.9704 58.0028 28.8412 58.1302 29.0442C58.3122 29.321 58.3122 33.2332 58.1302 33.344C58.0756 33.3809 56.2556 33.7315 54.1079 34.1006C51.9602 34.4696 49.7944 34.8756 49.303 35.0048L48.4294 35.2078L48.4475 40.6332L48.484 46.0402L50.4132 48.1993C55.8915 54.289 57.5296 56.116 57.8936 56.5958C58.2758 57.1125 58.294 57.2786 58.294 61.0247C58.294 63.1653 58.2212 65.0292 58.1302 65.1768C57.9664 65.4352 57.1656 65.6012 49.7398 66.8561C43.679 67.8711 43.9156 67.8342 43.8974 67.6496Z"
            fill="white" />
        <path
            d="M20.9972 71.5973C20.9972 71.5495 20.9972 64.5909 21.0068 56.1295C21.0068 47.6778 20.978 40.7288 20.9302 40.7096C20.8632 40.6618 15.0915 41.6381 14.8139 41.7434C14.7182 41.7721 14.6895 41.2265 14.6895 39.2164C14.6895 36.9863 14.7086 36.6321 14.833 36.5842C14.9192 36.5555 16.7378 36.2205 18.8819 35.8472C22.8732 35.1581 23.0264 35.1294 24.5004 34.8613C24.979 34.7656 25.9649 34.5933 26.7019 34.4689C27.4389 34.3445 28.7981 34.1052 29.717 33.952C30.6358 33.7893 32.3396 33.483 33.4978 33.2725C34.6559 33.0619 35.6322 32.8896 35.6705 32.8896C35.7184 32.8896 35.7375 37.5318 35.728 43.1983L35.6992 53.5165L33.8328 53.8706C32.8086 54.0621 31.8036 54.2248 31.6121 54.2248L31.2484 54.2344V46.5292V38.824L31.0378 38.8719C30.9134 38.891 29.6787 39.1112 28.2908 39.3504C26.9125 39.5897 25.7352 39.8099 25.6873 39.8386C25.6011 39.8865 25.5629 65.5481 25.649 65.6438C25.6777 65.6725 25.9649 65.6342 26.2999 65.5672C26.6253 65.5002 27.9271 65.2609 29.1905 65.0503C30.454 64.8302 32.4066 64.4856 33.536 64.275C34.6559 64.074 35.6131 63.9017 35.661 63.9017C35.7088 63.9017 35.7471 65.0599 35.7471 66.4669V69.0321L34.2922 69.2906C33.4882 69.4437 32.6363 69.5969 32.397 69.6447C32.1577 69.6926 31.3441 69.8361 30.5784 69.9702C23.3231 71.224 21.5619 71.5399 21.246 71.6165C21.112 71.6452 21.0068 71.6356 20.9972 71.5973Z"
            fill="white" />
        <path
            d="M20.7822 26.5008C20.7822 26.3757 22.4705 24.4999 23.5107 23.4653C28.2458 18.7416 33.9529 15.4503 40.3649 13.7393C42.2521 13.2391 44.4293 12.8469 46.4188 12.6536C48.4822 12.4547 52.1202 12.4717 53.9506 12.6877C58.2252 13.1936 61.7325 14.1372 65.2909 15.7402C66.5472 16.303 69.6395 17.8207 69.6565 17.8832L47.2317 21.8121L59.1306 16.3531C58.5641 16.2016 57.981 16.0547 57.5602 15.9619C55.9515 15.6038 54.9681 15.4503 53.0695 15.2571C51.9667 15.1434 47.7773 15.1604 46.6177 15.2855C42.3772 15.7459 38.7619 16.7521 35.0387 18.5142C31.4973 20.1968 28.3822 22.3853 25.3866 25.3014C24.8181 25.8527 24.7954 25.8641 24.0508 25.9778C23.9598 25.9949 23.2151 26.1199 22.4023 26.262C20.9016 26.5235 20.7822 26.5462 20.7822 26.5008Z"
            fill="white" stroke="white" stroke-miterlimit="16" />
    </g>
</svg>