<svg width="100" height="100" viewBox="0 0 100 100" fill="none" xmlns="http://www.w3.org/2000/svg">
    <path fill-rule="evenodd" clip-rule="evenodd"
        d="M33.0674 15.4624C31.1551 14.3562 30.5017 11.9093 31.6078 9.9971C33.6767 6.42072 37.5533 4 42 4H44H58C64.6274 4 70 9.37258 70 16V22L78.995 22L79 22L79.005 22H87C89.2091 22 91 23.7909 91 26C91 28.2091 89.2091 30 87 30H83V56C83 58.2091 81.2091 60 79 60C76.7909 60 75 58.2091 75 56V30L66 30H49C46.7909 30 45 28.2091 45 26C45 23.7909 46.7909 22 49 22L62 22V16C62 13.7909 60.2091 12 58 12H44H42C40.5245 12 39.2303 12.7969 38.5327 14.0029C37.4265 15.9151 34.9796 16.5686 33.0674 15.4624ZM75 80.6569L25 30.6569V82C25 84.2091 26.7909 86 29 86H69H71C73.2091 86 75 84.2091 75 82V80.6569ZM16.3431 22L5.45227 11.1091C3.89018 9.54703 3.89018 7.01437 5.45227 5.45227C7.01437 3.89018 9.54703 3.89018 11.1091 5.45227L28.8266 23.1697C28.8278 23.171 28.829 23.1722 28.8303 23.1734L94.5477 88.8909C96.1098 90.453 96.1098 92.9856 94.5477 94.5477C92.9856 96.1098 90.453 96.1098 88.8909 94.5477L81.7273 87.3841C80.089 90.6418 77.0104 93.0505 73.3275 93.7744C72.9121 93.9205 72.4654 94 72 94H71H69H29C22.3726 94 17 88.6274 17 82V30H13C10.7909 30 9 28.2091 9 26C9 23.7909 10.7909 22 13 22H16.3431Z"
        fill="currentcolor" />
</svg>