<svg width="100" height="100" viewBox="0 0 100 100" fill="none" xmlns="http://www.w3.org/2000/svg">
    <path fill-rule="evenodd" clip-rule="evenodd"
        d="M30 22V16C30 9.37258 35.3726 4 42 4H58C64.6274 4 70 9.37258 70 16V22H79H87C89.2091 22 91 23.7909 91 26C91 28.2091 89.2091 30 87 30H83V82C83 88.6274 77.6274 94 71 94H29C22.3726 94 17 88.6274 17 82V30H13C10.7909 30 9 28.2091 9 26C9 23.7909 10.7909 22 13 22H21H30ZM34 30H25V82C25 84.2091 26.7909 86 29 86H71C73.2091 86 75 84.2091 75 82V30H66H34ZM62 22V16C62 13.7909 60.2091 12 58 12H42C39.7909 12 38 13.7909 38 16V22H62Z"
        fill="currentcolor" />
</svg>