<svg width="100" height="100" viewBox="0 0 100 100" fill="none" xmlns="http://www.w3.org/2000/svg">
    <path
        d="M10 82C10 86.4183 13.5817 90 18 90H82C86.4183 90 90 86.4183 90 82V18C90 13.5817 86.4183 10 82 10H18C13.5817 10 10 13.5817 10 18V82Z"
        fill="#FF6400" />
    <path
        d="M75.5968 45.4355H27.5968V55.7566H75.5968V45.4355ZM27.5968 40.2198H71.0688V33.5672H27.5968V40.2198ZM27.5968 28.8347H59.1648V24.3926H27.5968V28.8347ZM68.0288 60.9739H27.5888V67.0625H68.0288V60.9739ZM59.1568 75.5914H27.5888V71.787H59.1568V75.5914Z"
        fill="white" />
</svg>