<svg width="100" height="100" viewBox="0 0 100 100" fill="none" xmlns="http://www.w3.org/2000/svg">
    <path fill-rule="evenodd" clip-rule="evenodd"
        d="M5.45227 5.45227C7.01437 3.89018 9.54703 3.89018 11.1091 5.45227L81.5975 75.9406C81.6763 76.008 81.753 76.079 81.8276 76.1535C81.9027 76.2286 81.9743 76.3059 82.0422 76.3853L94.5477 88.8909C96.1098 90.453 96.1098 92.9856 94.5477 94.5477C92.9856 96.1098 90.453 96.1098 88.8909 94.5477L78.8661 84.5229C71.055 91.0601 60.9846 95 50 95C25.1472 95 5 74.8528 5 50C5 39.0154 8.93993 28.945 15.4771 21.1339L5.45227 11.1091C3.89018 9.54703 3.89018 7.01437 5.45227 5.45227ZM55.174 60.8309L73.1823 78.8391C66.8373 83.9472 58.778 87 50 87C29.5655 87 13 70.4346 13 50C13 41.2221 16.0529 33.1627 21.1609 26.8177L39.1691 44.826C37.0383 49.2865 37.8202 54.7907 41.5147 58.4853C45.2093 62.1798 50.7135 62.9617 55.174 60.8309ZM36.082 15.7058C40.3731 13.9624 45.0692 13 50 13C70.4345 13 87 29.5655 87 50C87 54.9308 86.0376 59.6269 84.2942 63.918C83.4626 65.9647 84.4477 68.2979 86.4944 69.1295C88.541 69.961 90.8743 68.9759 91.7058 66.9293C93.8312 61.6981 95 55.9806 95 50C95 25.1472 74.8528 5 50 5C44.0194 5 38.3019 6.16881 33.0707 8.29419C31.0241 9.12573 30.039 11.459 30.8705 13.5056C31.7021 15.5523 34.0353 16.5374 36.082 15.7058ZM31.8808 59.0393C30.8951 57.0623 28.4932 56.2587 26.5162 57.2445C24.5392 58.2303 23.7357 60.6321 24.7215 62.6091C27.8312 68.8457 33.25 73.9586 40.3167 76.5372C42.392 77.2945 44.6882 76.226 45.4455 74.1507C46.2028 72.0754 45.1343 69.7792 43.059 69.0219C37.9906 67.1725 34.1137 63.5172 31.8808 59.0393ZM54.5545 25.8493C55.3118 23.774 57.608 22.7055 59.6833 23.4628C66.75 26.0414 72.1688 31.1543 75.2785 37.3909C76.2643 39.3679 75.4608 41.7697 73.4838 42.7555C71.5068 43.7413 69.105 42.9377 68.1192 40.9607C65.8864 36.4827 62.0094 32.8275 56.941 30.9781C54.8657 30.2208 53.7973 27.9246 54.5545 25.8493Z"
        fill="currentcolor" />
</svg>