<svg width="100" height="100" viewBox="0 0 100 100" fill="none" xmlns="http://www.w3.org/2000/svg">
    <path fill-rule="evenodd" clip-rule="evenodd"
        d="M50 95C74.8528 95 95 74.8528 95 50C95 25.1472 74.8528 5 50 5C25.1472 5 5 25.1472 5 50C5 74.8528 25.1472 95 50 95ZM42 50C42 45.5817 45.5817 42 50 42C54.4183 42 58 45.5817 58 50C58 54.4183 54.4183 58 50 58C45.5817 58 42 54.4183 42 50ZM50 34C41.1634 34 34 41.1634 34 50C34 58.8366 41.1634 66 50 66C58.8366 66 66 58.8366 66 50C66 41.1634 58.8366 34 50 34ZM21.5435 59.7251C23.5205 58.7393 25.9223 59.5428 26.9081 61.5198C29.7531 67.2255 34.6952 71.8855 41.1541 74.2423C43.2294 74.9996 44.2979 77.2958 43.5406 79.3711C42.7833 81.4464 40.4871 82.5149 38.4118 81.7576C29.9546 78.6716 23.4706 72.554 19.7487 65.0897C18.763 63.1127 19.5665 60.7108 21.5435 59.7251ZM61.5882 18.2423C59.5129 17.4851 57.2167 18.5536 56.4594 20.6289C55.7022 22.7041 56.7706 25.0004 58.8459 25.7577C65.3048 28.1145 70.2469 32.7744 73.0919 38.4801C74.0777 40.4571 76.4795 41.2607 78.4565 40.2749C80.4335 39.2891 81.2371 36.8873 80.2513 34.9103C76.5294 27.446 70.0454 21.3284 61.5882 18.2423Z"
        fill="currentcolor" />
</svg>