<svg width="100" height="100" viewBox="0 0 100 100" fill="none" xmlns="http://www.w3.org/2000/svg">
    <path fill-rule="evenodd" clip-rule="evenodd"
        d="M13 50C13 29.5655 29.5655 13 50 13C70.4345 13 87 29.5655 87 50C87 70.4345 70.4345 87 50 87C29.5655 87 13 70.4345 13 50ZM50 5C25.1472 5 5 25.1472 5 50C5 74.8528 25.1472 95 50 95C74.8528 95 95 74.8528 95 50C95 25.1472 74.8528 5 50 5ZM46 50C46 47.7909 47.7909 46 50 46C52.2091 46 54 47.7909 54 50C54 52.2091 52.2091 54 50 54C47.7909 54 46 52.2091 46 50ZM50 38C43.3726 38 38 43.3726 38 50C38 56.6274 43.3726 62 50 62C56.6274 62 62 56.6274 62 50C62 43.3726 56.6274 38 50 38ZM26.5162 57.2445C28.4932 56.2587 30.8951 57.0622 31.8808 59.0392C34.1137 63.5172 37.9906 67.1725 43.059 69.0219C45.1343 69.7792 46.2028 72.0754 45.4455 74.1507C44.6882 76.226 42.392 77.2945 40.3167 76.5372C33.25 73.9586 27.8312 68.8457 24.7215 62.6091C23.7357 60.6321 24.5392 58.2303 26.5162 57.2445ZM59.6833 23.4627C57.608 22.7055 55.3118 23.774 54.5545 25.8492C53.7973 27.9245 54.8657 30.2208 56.941 30.9781C62.0094 32.8275 65.8864 36.4827 68.1192 40.9607C69.105 42.9377 71.5068 43.7413 73.4838 42.7555C75.4608 41.7697 76.2643 39.3679 75.2785 37.3909C72.1688 31.1543 66.75 26.0414 59.6833 23.4627Z"
        fill="currentcolor" />
</svg>