<svg width="100" height="100" viewBox="0 0 100 100" fill="none" xmlns="http://www.w3.org/2000/svg">
    <path fill-rule="evenodd" clip-rule="evenodd"
        d="M38.8341 15L27.1422 85L52.7314 84.9994C59.9795 84.9994 65.6112 84.6491 69.6293 83.9479C73.6454 83.2479 77.7653 81.2813 81.9877 78.0507C86.2101 74.82 89.6037 70.453 92.1677 64.9482C94.7317 59.4441 96.014 53.2388 96.014 46.3329C96.014 40.9999 95.1757 36.2221 93.5009 31.9997C91.8255 27.7779 89.3471 24.2995 86.0648 21.5638C82.7826 18.8294 79.3891 17.0515 75.8855 16.2308C72.3807 15.41 67.8086 15 62.1674 15H38.8341ZM55.4275 69.3078H50.7164L57.2513 30.1803H63.3C71.126 30.1803 75.0397 35.336 75.0397 45.6474C75.0397 51.0075 74.1856 55.5921 72.4788 59.3989C70.772 63.2056 68.7413 65.8086 66.386 67.2085C64.0302 68.6084 60.3782 69.3078 55.4275 69.3078ZM27.7762 36.0938L31.3188 15.0761H9.48346L6 36.0938H27.7762Z"
        fill="#339933" />
</svg>