<svg width="100" height="100" viewBox="0 0 100 100" fill="none" xmlns="http://www.w3.org/2000/svg">
    <path fill-rule="evenodd" clip-rule="evenodd"
        d="M7.70687 64.8176L64.8756 7.6488C65.6787 6.91037 66.5871 6.55151 67.6206 6.55151C68.6539 6.55151 69.5622 6.91027 70.3652 7.64849L92.306 29.6923L92.3069 29.6931C93.1146 30.5009 93.5 31.4072 93.5 32.4309C93.5 33.4546 93.1146 34.3609 92.3069 35.1687L35.1037 92.2687L35.0911 92.2835C34.7184 92.7184 34.3315 93.0095 33.9342 93.1798C33.5317 93.3522 33.0188 93.4485 32.3794 93.4485H10.4309C9.23465 93.4485 8.30031 93.0904 7.58249 92.4025C6.87617 91.7255 6.5 90.785 6.5 89.5176V67.5691C6.5 66.9368 6.61112 66.4583 6.80089 66.1059C7.01846 65.7019 7.31849 65.2723 7.70687 64.8176ZM84.0924 32.4321L67.6218 15.8538L14.3618 69.1137V85.6897H30.8347L84.0924 32.4321Z"
        fill="currentcolor" />
</svg>