<svg width="100" height="100" viewBox="0 0 100 100" fill="none" xmlns="http://www.w3.org/2000/svg">
    <path fill-rule="evenodd" clip-rule="evenodd"
        d="M72 22C72 15.3726 66.6274 10 60 10H22C15.3726 10 10 15.3726 10 22V25C10 27.2091 11.7909 29 14 29C16.2091 29 18 27.2091 18 25V22C18 19.7909 19.7909 18 22 18H60C62.2091 18 64 19.7909 64 22V28H40C33.3726 28 28 33.3726 28 40V43C28 45.2091 29.7909 47 32 47C34.2091 47 36 45.2091 36 43V40C36 37.7909 37.7909 36 40 36H68H78C80.2091 36 82 37.7909 82 40V78C82 80.2091 80.2091 82 78 82H40C37.7909 82 36 80.2091 36 78V75C36 72.7909 34.2091 71 32 71C29.7909 71 28 72.7909 28 75V78C28 84.6274 33.3726 90 40 90H78C84.6274 90 90 84.6274 90 78V40C90 33.3726 84.6274 28 78 28H72V22ZM50.4216 43.6716C51.9837 42.1095 54.5163 42.1095 56.0784 43.6716L68.5784 56.1716C70.1405 57.7337 70.1405 60.2663 68.5784 61.8284L56.0784 74.3284C54.5163 75.8905 51.9837 75.8905 50.4216 74.3284C48.8595 72.7663 48.8595 70.2337 50.4216 68.6716L56.0931 63H14C11.7909 63 10 61.2091 10 59C10 56.7909 11.7909 55 14 55H56.0931L50.4216 49.3284C48.8595 47.7663 48.8595 45.2337 50.4216 43.6716Z"
        fill="currentcolor" />
</svg>