<svg width="100" height="100" viewBox="0 0 100 100" fill="none" xmlns="http://www.w3.org/2000/svg">
    <path fill-rule="evenodd" clip-rule="evenodd"
        d="M54 28C54 18.0589 62.0589 10 72 10C81.9411 10 90 18.0589 90 28C90 37.9411 81.9411 46 72 46C62.0589 46 54 37.9411 54 28ZM31.5777 55.6437C30.9001 54.2886 29.5151 53.4326 28 53.4326C26.4849 53.4326 25.0999 54.2886 24.4223 55.6437L20.8515 62.7853L12.9063 63.977C11.3964 64.2035 10.1471 65.2698 9.68625 66.7254C9.22539 68.181 9.63335 69.772 10.7378 70.8262L16.5395 76.3642L15.2209 84.2756C14.9709 85.7755 15.593 87.2875 16.8262 88.1771C18.0594 89.0668 19.6904 89.1803 21.035 88.4699L28 84.7903L34.965 88.4699C36.3096 89.1803 37.9406 89.0668 39.1738 88.1771C40.407 87.2875 41.0291 85.7755 40.7791 84.2756L39.4605 76.3642L45.2622 70.8262C46.3666 69.772 46.7746 68.181 46.3137 66.7254C45.8529 65.2698 44.6036 64.2035 43.0937 63.977L35.1485 62.7853L31.5777 55.6437ZM10 16.8718C10 13.0766 13.0766 10 16.8718 10H39.1282C42.9234 10 46 13.0766 46 16.8718V32.6667C46 36.4618 42.9234 39.5385 39.1282 39.5385H28H22.1184L16.8284 44.8284C15.6844 45.9724 13.964 46.3146 12.4693 45.6955C10.9746 45.0764 10 43.6179 10 42V16.8718ZM88.6329 57.5746C84.0539 52.9956 76.8261 52.68 71.8819 56.6276C66.9376 52.68 59.7098 52.9957 55.1308 57.5746C50.2438 62.4617 50.2129 70.3659 55.0383 75.291C55.0679 75.3225 55.098 75.3537 55.1288 75.3844L69.0524 89.3081C70.6145 90.8702 73.1472 90.8702 74.7093 89.3081L88.6329 75.3844C93.551 70.4664 93.551 62.4927 88.6329 57.5746Z"
        fill="currentcolor" />
</svg>