<svg width="100" height="100" viewBox="0 0 100 100" fill="none" xmlns="http://www.w3.org/2000/svg">
    <path fill-rule="evenodd" clip-rule="evenodd"
        d="M72.7586 9.10346C74.3583 10.627 74.4201 13.1589 72.8966 14.7586L60.2857 28H80C86.6274 28 92 33.3726 92 40V80C92 86.6274 86.6274 92 80 92H20C13.3726 92 8 86.6274 8 80V40C8 33.3726 13.3726 28 20 28H39.7143L27.1034 14.7586C25.5799 13.1589 25.6417 10.627 27.2414 9.10346C28.8411 7.57991 31.373 7.64167 32.8966 9.24139L50 27.2L67.1034 9.24139C68.627 7.64167 71.1589 7.57991 72.7586 9.10346ZM20 36C17.7909 36 16 37.7909 16 40V80C16 82.2091 17.7909 84 20 84H80C82.2091 84 84 82.2091 84 80V40C84 37.7909 82.2091 36 80 36H20ZM30 52C28.8954 52 28 52.8954 28 54V66C28 67.1046 28.8954 68 30 68H42C43.1046 68 44 67.1046 44 66V54C44 52.8954 43.1046 52 42 52H30ZM56 54C56 52.8954 56.8954 52 58 52H70C71.1046 52 72 52.8954 72 54V66C72 67.1046 71.1046 68 70 68H58C56.8954 68 56 67.1046 56 66V54Z"
        fill="currentcolor" />
</svg>