<svg width="100" height="100" viewBox="0 0 100 100" fill="none" xmlns="http://www.w3.org/2000/svg">
    <path fill-rule="evenodd" clip-rule="evenodd"
        d="M72.8966 14.7586C74.4201 13.1589 74.3583 10.627 72.7586 9.10346C71.1589 7.57991 68.627 7.64167 67.1034 9.24139L50 27.2L32.8966 9.24139C31.373 7.64167 28.8411 7.57991 27.2414 9.10346C25.6417 10.627 25.5799 13.1589 27.1034 14.7586L39.7143 28H20C13.3726 28 8 33.3726 8 40V80C8 86.6274 13.3726 92 20 92H80C86.6274 92 92 86.6274 92 80V40C92 33.3726 86.6274 28 80 28H60.2857L72.8966 14.7586ZM16 40C16 37.7909 17.7909 36 20 36H80C82.2091 36 84 37.7909 84 40V80C84 82.2091 82.2091 84 80 84H20C17.7909 84 16 82.2091 16 80V40ZM42 54C42 52.8954 42.8954 52 44 52H56C57.1046 52 58 52.8954 58 54V66C58 67.1046 57.1046 68 56 68H44C42.8954 68 42 67.1046 42 66V54Z"
        fill="currentcolor" />
</svg>