<svg width="100" height="100" viewBox="0 0 100 100" fill="none" xmlns="http://www.w3.org/2000/svg">
    <path fill-rule="evenodd" clip-rule="evenodd"
        d="M11.1091 5.45227C9.54703 3.89018 7.01437 3.89018 5.45227 5.45227C3.89018 7.01437 3.89018 9.54703 5.45227 11.1091L10 15.6569V42C10 43.6179 10.9746 45.0764 12.4693 45.6955C13.964 46.3146 15.6844 45.9724 16.8284 44.8284L22.1184 39.5385H28H33.8816L53.6688 59.3257C50.298 64.1984 50.7545 70.9187 55.0383 75.291C55.0679 75.3225 55.098 75.3537 55.1288 75.3844L69.0524 89.3081C70.6145 90.8702 73.1472 90.8702 74.7093 89.3081L79.1803 84.8371L88.8909 94.5477C90.453 96.1098 92.9856 96.1098 94.5477 94.5477C96.1098 92.9856 96.1098 90.453 94.5477 88.8909L11.1091 5.45227ZM73.5234 79.1803L59.6056 65.2625C59.1842 66.802 59.5782 68.5181 60.7876 69.7276C60.8129 69.7529 60.8378 69.7785 60.8623 69.8043L71.8809 80.8228L73.5234 79.1803ZM25.8816 31.5385L18 23.6569V32.3855C18.6994 31.8395 19.565 31.5385 20.4615 31.5385H25.8816ZM54 28C54 18.0589 62.0589 10 72 10C81.9411 10 90 18.0589 90 28C90 37.9411 81.9411 46 72 46C62.0589 46 54 37.9411 54 28ZM72 18C66.4772 18 62 22.4772 62 28C62 33.5228 66.4772 38 72 38C77.5228 38 82 33.5228 82 28C82 22.4772 77.5228 18 72 18ZM28 53.4326C29.5151 53.4326 30.9001 54.2886 31.5777 55.6437L35.1485 62.7853L43.0937 63.977C44.6036 64.2035 45.8529 65.2698 46.3137 66.7254C46.7746 68.181 46.3666 69.772 45.2622 70.8262L39.4605 76.3642L40.7791 84.2756C41.0291 85.7755 40.407 87.2875 39.1738 88.1771C37.9406 89.0668 36.3096 89.1803 34.965 88.4699L28 84.7903L21.035 88.4699C19.6904 89.1803 18.0594 89.0668 16.8262 88.1771C15.593 87.2875 14.9709 85.7755 15.2209 84.2756L16.5395 76.3642L10.7378 70.8262C9.63335 69.772 9.22539 68.181 9.68625 66.7254C10.1471 65.2698 11.3964 64.2035 12.9063 63.977L20.8515 62.7853L24.4223 55.6437C25.0999 54.2886 26.4849 53.4326 28 53.4326ZM28 66.3768L27.0776 68.2216C26.495 69.3868 25.3815 70.1953 24.0933 70.3885L22.168 70.6773L23.5951 72.0395C24.5533 72.9542 24.9965 74.2839 24.7787 75.5905L24.44 77.6233L26.1315 76.7296C27.3006 76.112 28.6994 76.112 29.8685 76.7296L31.56 77.6233L31.2212 75.5905C31.0035 74.2839 31.4467 72.9542 32.4049 72.0395L33.832 70.6773L31.9067 70.3885C30.6185 70.1953 29.505 69.3868 28.9224 68.2216L28 66.3768ZM37 10C34.7909 10 33 11.7909 33 14C33 16.2091 34.7909 18 37 18H38V18.7692C38 20.9784 39.7909 22.7692 42 22.7692C44.2091 22.7692 46 20.9784 46 18.7692V16.8718C46 13.0766 42.9234 10 39.1282 10H37ZM80.2113 61.9113C81.223 62.0172 82.199 62.4544 82.9761 63.2315C83.7532 64.0086 84.1904 64.9845 84.2963 65.9963C84.5261 68.1935 86.4937 69.7882 88.6908 69.5583C90.888 69.3284 92.4827 67.3609 92.2528 65.1638C91.9631 62.3944 90.7536 59.6953 88.6329 57.5746C86.5123 55.454 83.8132 54.2445 81.0438 53.9548C78.8466 53.7249 76.8791 55.3196 76.6492 57.5168C76.4193 59.7139 78.0141 61.6814 80.2113 61.9113Z"
        fill="currentcolor" />
</svg>