<svg width="100" height="100" viewBox="0 0 100 100" fill="none" xmlns="http://www.w3.org/2000/svg">
    <path fill-rule="evenodd" clip-rule="evenodd"
        d="M52.5858 15.2851C51.4258 13.3132 48.5741 13.3132 47.4142 15.2851L9.65311 79.4789C8.4767 81.4788 9.91867 84 12.2389 84H87.7611C90.0813 84 91.5233 81.4788 90.3469 79.479L52.5858 15.2851ZM40.5187 11.2289C44.7719 3.99855 55.2281 3.99857 59.4813 11.2289L97.2424 75.4228C101.556 82.7558 96.2686 92 87.7611 92H12.2389C3.73134 92 -1.55587 82.7557 2.75764 75.4228L40.5187 11.2289ZM50 31C52.2091 31 54 32.7909 54 35V53C54 55.2091 52.2091 57 50 57C47.7909 57 46 55.2091 46 53V35C46 32.7909 47.7909 31 50 31ZM50 74C52.7614 74 55 71.7614 55 69C55 66.2386 52.7614 64 50 64C47.2386 64 45 66.2386 45 69C45 71.7614 47.2386 74 50 74Z"
        fill="currentcolor" />
</svg>