<svg width="100" height="100" viewBox="0 0 100 100" fill="none" xmlns="http://www.w3.org/2000/svg">
    <path fill-rule="evenodd" clip-rule="evenodd"
        d="M5.45227 5.45227C7.01437 3.89018 9.54703 3.89018 11.1091 5.45227L23.6145 17.9577C23.694 18.0256 23.7714 18.0972 23.8465 18.1724C23.9211 18.247 23.9921 18.3238 24.0595 18.4027L81.5973 75.9405C81.6762 76.0079 81.753 76.0789 81.8276 76.1535C81.9028 76.2286 81.9743 76.306 82.0423 76.3855L94.5477 88.8909C96.1098 90.453 96.1098 92.9856 94.5477 94.5477C92.9856 96.1098 90.453 96.1098 88.8909 94.5477L78.8661 84.5229C71.055 91.0601 60.9846 95 50 95C25.1472 95 5 74.8528 5 50C5 39.0154 8.93993 28.945 15.4771 21.1339L5.45227 11.1091C3.89018 9.54703 3.89018 7.01437 5.45227 5.45227ZM13 50C13 41.222 16.0529 33.1627 21.1609 26.8177L36.7502 42.4071L28.8727 66.585C28.4063 68.0163 28.783 69.5881 29.8475 70.6526C30.9119 71.717 32.4838 72.0937 33.915 71.6274L58.0929 63.7498L73.1823 78.8391C66.8373 83.9471 58.778 87 50 87C29.5655 87 13 70.4345 13 50ZM38.916 61.584L43.0965 48.7533L51.7467 57.4036L38.916 61.584ZM36.2049 15.6561C40.4627 13.9441 45.1162 13 50 13C70.4345 13 87 29.5655 87 50C87 54.8953 86.0514 59.5592 84.3318 63.8251C83.5058 65.874 84.4973 68.2046 86.5462 69.0305C88.5951 69.8565 90.9257 68.8651 91.7516 66.8161C93.848 61.6156 95 55.9374 95 50C95 25.1472 74.8528 5 50 5C44.0765 5 38.411 6.14661 33.2204 8.23369C31.1707 9.05784 30.1773 11.3875 31.0014 13.4372C31.8256 15.4868 34.1553 16.4803 36.2049 15.6561ZM71.1695 34.2772C71.5697 32.8798 71.1804 31.3753 70.1525 30.3475C69.1247 29.3197 67.6202 28.9303 66.2228 29.3305L57.3332 31.8765C55.2095 32.4847 53.9809 34.6994 54.5891 36.8232C55.1974 38.9469 57.4121 40.1755 59.5358 39.5673L61.4934 39.0066L60.9328 40.9642C60.3245 43.088 61.5531 45.3027 63.6769 45.9109C65.8006 46.5191 68.0153 45.2906 68.6236 43.1668L71.1695 34.2772Z"
        fill="currentcolor" />
</svg>