<svg width="100" height="100" viewBox="0 0 100 100" fill="none" xmlns="http://www.w3.org/2000/svg">
    <path fill-rule="evenodd" clip-rule="evenodd"
        d="M11.1092 5.45227C9.54709 3.89018 7.01443 3.89018 5.45233 5.45227C3.89024 7.01437 3.89024 9.54703 5.45233 11.1091L10.3334 15.9902C7.83027 18.4384 5.82059 21.3295 4.30439 24.6636C2.76813 28.0418 2 31.4849 2 34.993C2 38.5012 2.70276 41.9443 4.10827 45.3225C5.51379 48.7007 7.45863 51.6242 9.9428 54.0928L46.8131 90.7332C47.2053 91.123 47.6302 91.4316 48.0878 91.6589C48.5455 91.8863 49.1011 92 49.7549 92C50.3432 92 50.8662 91.8863 51.3238 91.6589C51.7814 91.4316 52.239 91.123 52.6966 90.7332L68.9156 74.5724L88.8909 94.5477C90.453 96.1098 92.9857 96.1098 94.5478 94.5477C96.1099 92.9856 96.1099 90.453 94.5478 88.8909L11.1092 5.45227ZM63.2864 68.9432L16.1033 21.7601C12.4539 25.503 10.6292 29.914 10.6292 34.993C10.6292 40.1253 12.4923 44.5754 16.2186 48.3434L50.1471 81.9629L63.2864 68.9432ZM89.4688 54.0928L83.6947 59.8463L83.6826 59.8343C82.9587 60.5974 81.935 61.0733 80.8001 61.0733C78.6061 61.0733 76.8275 59.2947 76.8275 57.1007C76.8275 55.7533 77.4983 54.5626 78.5241 53.8443L84.0756 48.3434C85.9061 46.4594 87.3279 44.3805 88.3412 42.1067C89.3544 39.833 89.8611 37.4617 89.8611 34.993C89.8611 32.5244 89.3708 30.1531 88.3902 27.8794C87.4096 25.6056 86.1022 23.5266 84.4678 21.6427C82.572 20.0185 80.4964 18.7193 78.2411 17.7448C75.9857 16.7703 73.5833 16.2831 71.0337 16.2831C68.3535 16.2831 65.8529 16.7703 63.5322 17.7448C61.2114 18.7193 59.1359 20.0185 57.3054 21.6427L53.0889 26.2227C52.239 27.0673 51.2584 27.4896 50.1471 27.4896C49.0358 27.4896 48.0552 27.0673 47.2053 26.2227L42.5965 21.6427C40.7466 19.8676 38.7254 18.5411 36.533 17.663L36.5583 17.5684C34.5434 17.2856 32.993 15.5549 32.993 13.462C32.993 11.1718 34.8496 9.31519 37.1399 9.31519C37.6966 9.31519 38.2277 9.42491 38.7128 9.62391C39.0784 9.75661 39.4414 9.89744 39.8018 10.0464C43.1032 11.4107 45.9959 13.3596 48.4801 15.8933L50.1471 17.5499L51.8141 15.8933C54.2982 13.3596 57.24 11.4107 60.6394 10.0464C64.0388 8.68213 67.5036 8 71.0337 8C74.6292 8 78.0449 8.68213 81.2809 10.0464C84.5169 11.4107 87.3769 13.3596 89.8611 15.8933C92.6067 18.4919 94.666 21.4478 96.0388 24.761C97.3462 28.0742 98 31.4849 98 34.993C98 38.5012 97.2809 41.9118 95.8427 45.2251C94.4045 48.5383 92.2799 51.4942 89.4688 54.0928Z"
        fill="currentcolor" />
</svg>