<svg width="100" height="100" viewBox="0 0 100 100" fill="none" xmlns="http://www.w3.org/2000/svg">
<path d="M6 50C6 25.6995 25.6995 6 50 6V6C74.3005 6 94 25.6995 94 50V50C94 74.3005 74.3005 94 50 94V94C25.6995 94 6 74.3005 6 50V50Z" fill="#263D8D"/>
<path fill-rule="evenodd" clip-rule="evenodd" d="M52.5978 78.0429C60.7528 77.5273 68.322 72.9811 73.1026 66.3961C77.8831 60.1627 79.3361 51.7732 77.7894 44.1337C76.4302 36.7989 71.5559 30.4717 65.4865 26.3238C59.5811 22.34 52.0822 21.098 45.0989 22.2697C37.3422 23.4883 30.5229 28.4563 26.2579 34.9476C21.1024 42.8917 20.5165 53.5308 24.594 62.0608C29.4918 72.4655 41.0916 79.2849 52.5978 78.0429ZM69.0016 20.1372C76.5474 25.1287 82.5934 32.7682 84.5619 41.72C86.3663 50.2032 85.5227 59.4362 81.1639 67.0523C76.1959 75.676 67.6659 82.4485 57.8001 84.3935C48.4734 86.3854 38.2327 84.6981 30.3354 79.2146C24.0082 74.7855 18.8761 68.4349 16.5327 61.0531C13.8612 52.6169 14.3065 43.1729 18.0325 35.135C23.3052 24.0507 34.5535 15.7316 46.9502 14.9349C54.5897 14.3021 62.5338 15.8722 69.0016 20.1372ZM56.5053 41.341C52.8833 37.7219 49.2597 34.1012 45.6144 30.495C45.6613 43.5009 45.6379 56.5068 45.6144 69.5127C47.6265 67.5079 49.6319 65.5008 51.6361 63.4949C56.1445 58.9828 60.6468 54.4767 65.2053 50.0156C62.2995 47.1306 59.4029 44.2363 56.5053 41.341Z" fill="white"/>
</svg>
