<svg width="100" height="100" viewBox="0 0 100 100" fill="none" xmlns="http://www.w3.org/2000/svg">
    <g clip-path="url(#clip0_1998_12)">
        <circle cx="50" cy="50" r="48.2438" fill="#F9D396" stroke="white" stroke-width="3.4875" />
        <mask id="path-2-outside-1_1998_12" maskUnits="userSpaceOnUse" x="43.025" y="71.6" width="36" height="12"
            fill="black">
            <rect fill="white" x="43.025" y="71.6" width="36" height="12" />
            <path
                d="M46.4544 74.9735C46.9736 74.9735 47.4386 75.0975 47.8494 75.3455C48.2601 75.5935 48.5817 75.9384 48.8142 76.3801C49.0467 76.8219 49.163 77.3256 49.163 77.8914C49.163 78.4494 49.0467 78.9492 48.8142 79.391C48.5895 79.825 48.2717 80.166 47.861 80.414C47.458 80.662 46.9969 80.786 46.4776 80.786C46.0824 80.786 45.7181 80.7007 45.3849 80.5302C45.0594 80.352 44.7842 80.104 44.5595 79.7862V82.925H43.769V75.1595H44.5595V75.9616C44.7842 75.6516 45.0594 75.4114 45.3849 75.2409C45.7104 75.0626 46.0669 74.9735 46.4544 74.9735ZM46.4776 80.0652C46.8419 80.0652 47.1674 79.9722 47.4541 79.7862C47.7409 79.6002 47.9656 79.3445 48.1284 79.019C48.2911 78.6857 48.3725 78.3099 48.3725 77.8914C48.3725 77.4651 48.2911 77.0854 48.1284 76.7521C47.9656 76.4189 47.7409 76.1592 47.4541 75.9732C47.1674 75.7872 46.8419 75.6942 46.4776 75.6942C46.1056 75.6942 45.7724 75.7872 45.4779 75.9732C45.1911 76.1592 44.9664 76.4189 44.8036 76.7521C44.6409 77.0854 44.5595 77.4612 44.5595 77.8797C44.5595 78.2982 44.6409 78.6741 44.8036 79.0074C44.9664 79.3406 45.1911 79.6002 45.4779 79.7862C45.7724 79.9722 46.1056 80.0652 46.4776 80.0652ZM55.0981 75.1595V80.6H54.3076V79.7979C54.0829 80.1079 53.8077 80.352 53.4822 80.5302C53.1567 80.7007 52.8002 80.786 52.4127 80.786C51.8935 80.786 51.4285 80.662 51.0177 80.414C50.607 80.166 50.2854 79.8211 50.0529 79.3794C49.8204 78.9376 49.7041 78.4339 49.7041 77.8681C49.7041 77.3101 49.8165 76.8141 50.0412 76.3801C50.2737 75.9384 50.5915 75.5935 50.9945 75.3455C51.4052 75.0975 51.8702 74.9735 52.3895 74.9735C52.7847 74.9735 53.1451 75.0626 53.4706 75.2409C53.8039 75.4114 54.0829 75.6555 54.3076 75.9732V75.1595H55.0981ZM52.3895 80.0652C52.7615 80.0652 53.0909 79.9722 53.3776 79.7862C53.6721 79.6002 53.9007 79.3406 54.0635 79.0074C54.2262 78.6741 54.3076 78.2982 54.3076 77.8797C54.3076 77.4612 54.2262 77.0854 54.0635 76.7521C53.9007 76.4189 53.6721 76.1592 53.3776 75.9732C53.0909 75.7872 52.7615 75.6942 52.3895 75.6942C52.0252 75.6942 51.6997 75.7872 51.413 75.9732C51.1262 76.1592 50.9015 76.4189 50.7387 76.7521C50.576 77.0776 50.4946 77.4496 50.4946 77.8681C50.4946 78.2944 50.576 78.6741 50.7387 79.0074C50.9015 79.3406 51.1262 79.6002 51.413 79.7862C51.6997 79.9722 52.0252 80.0652 52.3895 80.0652ZM56.3832 80.6V72.1602H57.1737V80.6H56.3832ZM63.5108 75.1595V80.6H62.7203V79.7979C62.4955 80.1079 62.2204 80.352 61.8949 80.5302C61.5694 80.7007 61.2129 80.786 60.8254 80.786C60.3062 80.786 59.8412 80.662 59.4304 80.414C59.0197 80.166 58.698 79.8211 58.4655 79.3794C58.233 78.9376 58.1168 78.4339 58.1168 77.8681C58.1168 77.3101 58.2292 76.8141 58.4539 76.3801C58.6864 75.9384 59.0042 75.5935 59.4072 75.3455C59.8179 75.0975 60.2829 74.9735 60.8022 74.9735C61.1974 74.9735 61.5578 75.0626 61.8833 75.2409C62.2165 75.4114 62.4955 75.6555 62.7203 75.9732V75.1595H63.5108ZM60.8022 80.0652C61.1742 80.0652 61.5035 79.9722 61.7903 79.7862C62.0848 79.6002 62.3134 79.3406 62.4762 79.0074C62.6389 78.6741 62.7203 78.2982 62.7203 77.8797C62.7203 77.4612 62.6389 77.0854 62.4762 76.7521C62.3134 76.4189 62.0848 76.1592 61.7903 75.9732C61.5035 75.7872 61.1742 75.6942 60.8022 75.6942C60.4379 75.6942 60.1124 75.7872 59.8257 75.9732C59.5389 76.1592 59.3142 76.4189 59.1514 76.7521C58.9887 77.0776 58.9073 77.4496 58.9073 77.8681C58.9073 78.2944 58.9887 78.6741 59.1514 79.0074C59.3142 79.3406 59.5389 79.6002 59.8257 79.7862C60.1124 79.9722 60.4379 80.0652 60.8022 80.0652ZM68.2601 75.1595H69.0623L67.086 80.6H66.2141L64.2495 75.1595H65.0749L66.6791 79.7514L68.2601 75.1595ZM71.9168 74.9735C72.405 74.9735 72.8468 75.0936 73.242 75.3339C73.6373 75.5741 73.9473 75.9035 74.172 76.322C74.3968 76.7327 74.5091 77.1939 74.5091 77.7054C74.5091 77.8526 74.5053 77.965 74.4975 78.0425H70.0219C70.0529 78.6005 70.235 79.0771 70.5683 79.4724C70.9015 79.8676 71.3549 80.0652 71.9284 80.0652C72.3934 80.0652 72.777 79.98 73.0793 79.8095C73.3893 79.6312 73.6373 79.3871 73.8233 79.0771L74.451 79.4956C74.1953 79.8986 73.8581 80.2164 73.4396 80.4489C73.0211 80.6736 72.5251 80.786 71.9516 80.786C71.4246 80.786 70.9558 80.662 70.545 80.414C70.1343 80.166 69.8126 79.8211 69.5801 79.3794C69.3476 78.9376 69.2314 78.4377 69.2314 77.8797C69.2314 77.3217 69.3438 76.8219 69.5685 76.3801C69.801 75.9384 70.1188 75.5935 70.5218 75.3455C70.9325 75.0975 71.3975 74.9735 71.9168 74.9735ZM73.7186 77.3915C73.6411 76.8257 73.4513 76.4034 73.149 76.1244C72.8468 75.8376 72.436 75.6942 71.9168 75.6942C71.413 75.6942 70.9984 75.857 70.6729 76.1825C70.3551 76.5002 70.1536 76.9032 70.0684 77.3915H73.7186ZM78.1174 74.9735C78.3034 74.9735 78.4817 75.0006 78.6522 75.0549V75.7756C78.4894 75.6981 78.3112 75.6594 78.1174 75.6594C77.7842 75.6594 77.4742 75.7524 77.1874 75.9384C76.9007 76.1244 76.6682 76.3956 76.4899 76.7521C76.3194 77.1009 76.2342 77.5155 76.2342 77.996V80.6H75.4437V75.1595H76.2342V76.2522C76.4434 75.8492 76.7069 75.5354 77.0247 75.3106C77.3502 75.0859 77.7144 74.9735 78.1174 74.9735Z" />
        </mask>
        <path
            d="M46.4544 74.9735C46.9736 74.9735 47.4386 75.0975 47.8494 75.3455C48.2601 75.5935 48.5817 75.9384 48.8142 76.3801C49.0467 76.8219 49.163 77.3256 49.163 77.8914C49.163 78.4494 49.0467 78.9492 48.8142 79.391C48.5895 79.825 48.2717 80.166 47.861 80.414C47.458 80.662 46.9969 80.786 46.4776 80.786C46.0824 80.786 45.7181 80.7007 45.3849 80.5302C45.0594 80.352 44.7842 80.104 44.5595 79.7862V82.925H43.769V75.1595H44.5595V75.9616C44.7842 75.6516 45.0594 75.4114 45.3849 75.2409C45.7104 75.0626 46.0669 74.9735 46.4544 74.9735ZM46.4776 80.0652C46.8419 80.0652 47.1674 79.9722 47.4541 79.7862C47.7409 79.6002 47.9656 79.3445 48.1284 79.019C48.2911 78.6857 48.3725 78.3099 48.3725 77.8914C48.3725 77.4651 48.2911 77.0854 48.1284 76.7521C47.9656 76.4189 47.7409 76.1592 47.4541 75.9732C47.1674 75.7872 46.8419 75.6942 46.4776 75.6942C46.1056 75.6942 45.7724 75.7872 45.4779 75.9732C45.1911 76.1592 44.9664 76.4189 44.8036 76.7521C44.6409 77.0854 44.5595 77.4612 44.5595 77.8797C44.5595 78.2982 44.6409 78.6741 44.8036 79.0074C44.9664 79.3406 45.1911 79.6002 45.4779 79.7862C45.7724 79.9722 46.1056 80.0652 46.4776 80.0652ZM55.0981 75.1595V80.6H54.3076V79.7979C54.0829 80.1079 53.8077 80.352 53.4822 80.5302C53.1567 80.7007 52.8002 80.786 52.4127 80.786C51.8935 80.786 51.4285 80.662 51.0177 80.414C50.607 80.166 50.2854 79.8211 50.0529 79.3794C49.8204 78.9376 49.7041 78.4339 49.7041 77.8681C49.7041 77.3101 49.8165 76.8141 50.0412 76.3801C50.2737 75.9384 50.5915 75.5935 50.9945 75.3455C51.4052 75.0975 51.8702 74.9735 52.3895 74.9735C52.7847 74.9735 53.1451 75.0626 53.4706 75.2409C53.8039 75.4114 54.0829 75.6555 54.3076 75.9732V75.1595H55.0981ZM52.3895 80.0652C52.7615 80.0652 53.0909 79.9722 53.3776 79.7862C53.6721 79.6002 53.9007 79.3406 54.0635 79.0074C54.2262 78.6741 54.3076 78.2982 54.3076 77.8797C54.3076 77.4612 54.2262 77.0854 54.0635 76.7521C53.9007 76.4189 53.6721 76.1592 53.3776 75.9732C53.0909 75.7872 52.7615 75.6942 52.3895 75.6942C52.0252 75.6942 51.6997 75.7872 51.413 75.9732C51.1262 76.1592 50.9015 76.4189 50.7387 76.7521C50.576 77.0776 50.4946 77.4496 50.4946 77.8681C50.4946 78.2944 50.576 78.6741 50.7387 79.0074C50.9015 79.3406 51.1262 79.6002 51.413 79.7862C51.6997 79.9722 52.0252 80.0652 52.3895 80.0652ZM56.3832 80.6V72.1602H57.1737V80.6H56.3832ZM63.5108 75.1595V80.6H62.7203V79.7979C62.4955 80.1079 62.2204 80.352 61.8949 80.5302C61.5694 80.7007 61.2129 80.786 60.8254 80.786C60.3062 80.786 59.8412 80.662 59.4304 80.414C59.0197 80.166 58.698 79.8211 58.4655 79.3794C58.233 78.9376 58.1168 78.4339 58.1168 77.8681C58.1168 77.3101 58.2292 76.8141 58.4539 76.3801C58.6864 75.9384 59.0042 75.5935 59.4072 75.3455C59.8179 75.0975 60.2829 74.9735 60.8022 74.9735C61.1974 74.9735 61.5578 75.0626 61.8833 75.2409C62.2165 75.4114 62.4955 75.6555 62.7203 75.9732V75.1595H63.5108ZM60.8022 80.0652C61.1742 80.0652 61.5035 79.9722 61.7903 79.7862C62.0848 79.6002 62.3134 79.3406 62.4762 79.0074C62.6389 78.6741 62.7203 78.2982 62.7203 77.8797C62.7203 77.4612 62.6389 77.0854 62.4762 76.7521C62.3134 76.4189 62.0848 76.1592 61.7903 75.9732C61.5035 75.7872 61.1742 75.6942 60.8022 75.6942C60.4379 75.6942 60.1124 75.7872 59.8257 75.9732C59.5389 76.1592 59.3142 76.4189 59.1514 76.7521C58.9887 77.0776 58.9073 77.4496 58.9073 77.8681C58.9073 78.2944 58.9887 78.6741 59.1514 79.0074C59.3142 79.3406 59.5389 79.6002 59.8257 79.7862C60.1124 79.9722 60.4379 80.0652 60.8022 80.0652ZM68.2601 75.1595H69.0623L67.086 80.6H66.2141L64.2495 75.1595H65.0749L66.6791 79.7514L68.2601 75.1595ZM71.9168 74.9735C72.405 74.9735 72.8468 75.0936 73.242 75.3339C73.6373 75.5741 73.9473 75.9035 74.172 76.322C74.3968 76.7327 74.5091 77.1939 74.5091 77.7054C74.5091 77.8526 74.5053 77.965 74.4975 78.0425H70.0219C70.0529 78.6005 70.235 79.0771 70.5683 79.4724C70.9015 79.8676 71.3549 80.0652 71.9284 80.0652C72.3934 80.0652 72.777 79.98 73.0793 79.8095C73.3893 79.6312 73.6373 79.3871 73.8233 79.0771L74.451 79.4956C74.1953 79.8986 73.8581 80.2164 73.4396 80.4489C73.0211 80.6736 72.5251 80.786 71.9516 80.786C71.4246 80.786 70.9558 80.662 70.545 80.414C70.1343 80.166 69.8126 79.8211 69.5801 79.3794C69.3476 78.9376 69.2314 78.4377 69.2314 77.8797C69.2314 77.3217 69.3438 76.8219 69.5685 76.3801C69.801 75.9384 70.1188 75.5935 70.5218 75.3455C70.9325 75.0975 71.3975 74.9735 71.9168 74.9735ZM73.7186 77.3915C73.6411 76.8257 73.4513 76.4034 73.149 76.1244C72.8468 75.8376 72.436 75.6942 71.9168 75.6942C71.413 75.6942 70.9984 75.857 70.6729 76.1825C70.3551 76.5002 70.1536 76.9032 70.0684 77.3915H73.7186ZM78.1174 74.9735C78.3034 74.9735 78.4817 75.0006 78.6522 75.0549V75.7756C78.4894 75.6981 78.3112 75.6594 78.1174 75.6594C77.7842 75.6594 77.4742 75.7524 77.1874 75.9384C76.9007 76.1244 76.6682 76.3956 76.4899 76.7521C76.3194 77.1009 76.2342 77.5155 76.2342 77.996V80.6H75.4437V75.1595H76.2342V76.2522C76.4434 75.8492 76.7069 75.5354 77.0247 75.3106C77.3502 75.0859 77.7144 74.9735 78.1174 74.9735Z"
            fill="black" />
        <path
            d="M48.8142 76.3801L49.0714 76.2447L49.0714 76.2447L48.8142 76.3801ZM48.8142 79.391L48.5571 79.2556L48.5562 79.2573L48.8142 79.391ZM47.861 80.414L47.7108 80.1652L47.7087 80.1665L47.861 80.414ZM45.3849 80.5302L45.2452 80.7852L45.2525 80.789L45.3849 80.5302ZM44.5595 79.7862L44.7968 79.6184L44.2689 78.8721V79.7862H44.5595ZM44.5595 82.925V83.2156H44.8501V82.925H44.5595ZM43.769 82.925H43.4784V83.2156H43.769V82.925ZM43.769 75.1595V74.8689H43.4784V75.1595H43.769ZM44.5595 75.1595H44.8501V74.8689H44.5595V75.1595ZM44.5595 75.9616H44.2689V76.8576L44.7948 76.1322L44.5595 75.9616ZM45.3849 75.2409L45.5197 75.4983L45.5245 75.4958L45.3849 75.2409ZM47.4541 79.7862L47.6123 80.03L47.6123 80.03L47.4541 79.7862ZM48.1284 79.019L48.3883 79.149L48.3895 79.1465L48.1284 79.019ZM48.1284 76.7521L48.3895 76.6246L48.3895 76.6246L48.1284 76.7521ZM47.4541 75.9732L47.6123 75.7294L47.6123 75.7294L47.4541 75.9732ZM45.4779 75.9732L45.3227 75.7275L45.3197 75.7294L45.4779 75.9732ZM44.8036 76.7521L45.0648 76.8796L44.8036 76.7521ZM44.8036 79.0074L45.0648 78.8798L45.0648 78.8798L44.8036 79.0074ZM45.4779 79.7862L45.3197 80.0301L45.3227 80.0319L45.4779 79.7862ZM46.4544 75.2641C46.9252 75.2641 47.3374 75.3759 47.6992 75.5943L47.9996 75.0967C47.5398 74.8191 47.0221 74.6829 46.4544 74.6829V75.2641ZM47.6992 75.5943C48.0627 75.8138 48.3482 76.1186 48.5571 76.5155L49.0714 76.2447C48.8153 75.7581 48.4575 75.3732 47.9996 75.0967L47.6992 75.5943ZM48.5571 76.5155C48.7648 76.9102 48.8724 77.3664 48.8724 77.8914H49.4536C49.4536 77.2848 49.3287 76.7335 49.0714 76.2447L48.5571 76.5155ZM48.8724 77.8914C48.8724 78.4078 48.7651 78.8603 48.5571 79.2556L49.0714 79.5263C49.3284 79.0381 49.4536 78.4909 49.4536 77.8914H48.8724ZM48.5562 79.2573C48.3556 79.6447 48.0748 79.9454 47.7108 80.1652L48.0112 80.6628C48.4687 80.3865 48.8234 80.0053 49.0723 79.5246L48.5562 79.2573ZM47.7087 80.1665C47.3559 80.3836 46.9485 80.4954 46.4776 80.4954V81.0766C47.0452 81.0766 47.5601 80.9404 48.0133 80.6615L47.7087 80.1665ZM46.4776 80.4954C46.1258 80.4954 45.8072 80.4199 45.5172 80.2715L45.2525 80.789C45.629 80.9816 46.039 81.0766 46.4776 81.0766V80.4954ZM45.5245 80.2753C45.2396 80.1193 44.9973 79.9019 44.7968 79.6184L44.3222 79.9541C44.5712 80.3061 44.8791 80.5846 45.2453 80.7851L45.5245 80.2753ZM44.2689 79.7862V82.925H44.8501V79.7862H44.2689ZM44.5595 82.6344H43.769V83.2156H44.5595V82.6344ZM44.0596 82.925V75.1595H43.4784V82.925H44.0596ZM43.769 75.4501H44.5595V74.8689H43.769V75.4501ZM44.2689 75.1595V75.9616H44.8501V75.1595H44.2689ZM44.7948 76.1322C44.9944 75.8569 45.2356 75.6471 45.5197 75.4983L45.25 74.9834C44.8831 75.1756 44.5741 75.4463 44.3242 75.791L44.7948 76.1322ZM45.5245 75.4958C45.8053 75.342 46.1134 75.2641 46.4544 75.2641V74.6829C46.0203 74.6829 45.6155 74.7832 45.2453 74.9859L45.5245 75.4958ZM46.4776 80.3559C46.8941 80.3559 47.2753 80.2486 47.6123 80.03L47.296 79.5424C47.0594 79.6958 46.7896 79.7746 46.4776 79.7746V80.3559ZM47.6123 80.03C47.9453 79.814 48.2039 79.5177 48.3883 79.1489L47.8684 78.889C47.7273 79.1713 47.5364 79.3864 47.296 79.5424L47.6123 80.03ZM48.3895 79.1465C48.574 78.7687 48.6631 78.3483 48.6631 77.8914H48.0819C48.0819 78.2714 48.0082 78.6027 47.8672 78.8914L48.3895 79.1465ZM48.6631 77.8914C48.6631 77.4275 48.5744 77.0031 48.3895 76.6246L47.8672 76.8796C48.0079 77.1676 48.0819 77.5027 48.0819 77.8914H48.6631ZM48.3895 76.6246C48.2057 76.2481 47.947 75.9465 47.6123 75.7294L47.296 76.217C47.5347 76.3719 47.7256 76.5896 47.8672 76.8796L48.3895 76.6246ZM47.6123 75.7294C47.2753 75.5108 46.8941 75.4036 46.4776 75.4036V75.9849C46.7896 75.9849 47.0595 76.0636 47.296 76.217L47.6123 75.7294ZM46.4776 75.4036C46.0546 75.4036 45.6668 75.5102 45.3227 75.7275L45.6331 76.2189C45.8779 76.0643 46.1567 75.9849 46.4776 75.9849V75.4036ZM45.3197 75.7294C44.985 75.9465 44.7263 76.2481 44.5425 76.6246L45.0648 76.8796C45.2064 76.5896 45.3973 76.3719 45.636 76.217L45.3197 75.7294ZM44.5425 76.6246C44.358 77.0024 44.2689 77.4227 44.2689 77.8797H44.8501C44.8501 77.4997 44.9238 77.1683 45.0648 76.8796L44.5425 76.6246ZM44.2689 77.8797C44.2689 78.3367 44.358 78.7571 44.5425 79.1349L45.0648 78.8798C44.9238 78.5911 44.8501 78.2597 44.8501 77.8797H44.2689ZM44.5425 79.1349C44.7263 79.5114 44.985 79.8129 45.3197 80.03L45.636 79.5424C45.3973 79.3875 45.2064 79.1698 45.0648 78.8798L44.5425 79.1349ZM45.3227 80.0319C45.6668 80.2493 46.0546 80.3559 46.4776 80.3559V79.7746C46.1567 79.7746 45.8779 79.6952 45.6331 79.5405L45.3227 80.0319ZM55.0981 75.1595H55.3887V74.8689H55.0981V75.1595ZM55.0981 80.6V80.8906H55.3887V80.6H55.0981ZM54.3076 80.6H54.017V80.8906H54.3076V80.6ZM54.3076 79.7979H54.5982V78.9019L54.0723 79.6273L54.3076 79.7979ZM53.4822 80.5302L53.6171 80.7877L53.6218 80.7851L53.4822 80.5302ZM51.0177 80.414L50.8675 80.6628L50.8675 80.6628L51.0177 80.414ZM50.0529 79.3794L50.31 79.244L50.31 79.244L50.0529 79.3794ZM50.0412 76.3801L49.784 76.2447L49.7832 76.2465L50.0412 76.3801ZM50.9945 75.3455L50.8443 75.0967L50.8422 75.098L50.9945 75.3455ZM53.4706 75.2409L53.331 75.4959L53.3382 75.4996L53.4706 75.2409ZM54.3076 75.9732L54.0703 76.1411L54.5982 76.8874V75.9732H54.3076ZM54.3076 75.1595V74.8689H54.017V75.1595H54.3076ZM53.3776 79.7862L53.2224 79.5405L53.2194 79.5424L53.3776 79.7862ZM54.0635 79.0074L53.8023 78.8798L53.8023 78.8798L54.0635 79.0074ZM54.0635 76.7521L54.3246 76.6246L54.3246 76.6246L54.0635 76.7521ZM53.3776 75.9732L53.2194 76.2171L53.2224 76.2189L53.3776 75.9732ZM51.413 75.9732L51.2548 75.7294L51.2548 75.7294L51.413 75.9732ZM50.7387 76.7521L50.9987 76.8821L50.9999 76.8796L50.7387 76.7521ZM50.7387 79.0074L50.4776 79.1349L50.4776 79.1349L50.7387 79.0074ZM51.413 79.7862L51.2548 80.03L51.2548 80.03L51.413 79.7862ZM54.8075 75.1595V80.6H55.3887V75.1595H54.8075ZM55.0981 80.3094H54.3076V80.8906H55.0981V80.3094ZM54.5982 80.6V79.7979H54.017V80.6H54.5982ZM54.0723 79.6273C53.872 79.9036 53.6292 80.1184 53.3426 80.2753L53.6218 80.7851C53.9863 80.5855 54.2937 80.3121 54.5429 79.9684L54.0723 79.6273ZM53.3474 80.2728C53.0658 80.4203 52.7559 80.4954 52.4127 80.4954V81.0766C52.8446 81.0766 53.2477 80.9812 53.6171 80.7877L53.3474 80.2728ZM52.4127 80.4954C51.9419 80.4954 51.5297 80.3836 51.1679 80.1652L50.8675 80.6628C51.3273 80.9404 51.845 81.0766 52.4127 81.0766V80.4954ZM51.1679 80.1652C50.8044 79.9457 50.5189 79.6409 50.31 79.244L49.7957 79.5147C50.0518 80.0013 50.4096 80.3863 50.8675 80.6628L51.1679 80.1652ZM50.31 79.244C50.1023 78.8493 49.9947 78.393 49.9947 77.8681H49.4135C49.4135 78.4747 49.5384 79.0259 49.7957 79.5147L50.31 79.244ZM49.9947 77.8681C49.9947 77.35 50.0988 76.9009 50.2993 76.5137L49.7832 76.2465C49.5342 76.7273 49.4135 77.2702 49.4135 77.8681H49.9947ZM50.2984 76.5155C50.508 76.1172 50.7906 75.8122 51.1468 75.593L50.8422 75.098C50.3923 75.3748 50.0394 75.7595 49.7841 76.2447L50.2984 76.5155ZM51.1447 75.5943C51.5064 75.3759 51.9187 75.2641 52.3895 75.2641V74.6829C51.8218 74.6829 51.3041 74.8191 50.8443 75.0967L51.1447 75.5943ZM52.3895 75.2641C52.7392 75.2641 53.0511 75.3425 53.331 75.4958L53.6102 74.9859C53.2391 74.7827 52.8302 74.6829 52.3895 74.6829V75.2641ZM53.3382 75.4996C53.628 75.6478 53.8716 75.8601 54.0703 76.1411L54.5449 75.8054C54.2941 75.4509 53.9797 75.1749 53.603 74.9821L53.3382 75.4996ZM54.5982 75.9732V75.1595H54.017V75.9732H54.5982ZM54.3076 75.4501H55.0981V74.8689H54.3076V75.4501ZM52.3895 80.3559C52.8124 80.3559 53.1978 80.2493 53.5358 80.03L53.2194 79.5424C52.9839 79.6952 52.7105 79.7746 52.3895 79.7746V80.3559ZM53.5328 80.0319C53.8759 79.8153 54.1398 79.5133 54.3246 79.1349L53.8023 78.8798C53.6617 79.1679 53.4683 79.3852 53.2224 79.5405L53.5328 80.0319ZM54.3246 79.1349C54.5091 78.7571 54.5982 78.3367 54.5982 77.8797H54.017C54.017 78.2597 53.9433 78.5911 53.8023 78.8798L54.3246 79.1349ZM54.5982 77.8797C54.5982 77.4227 54.5091 77.0024 54.3246 76.6246L53.8023 76.8796C53.9433 77.1683 54.017 77.4997 54.017 77.8797H54.5982ZM54.3246 76.6246C54.1398 76.2461 53.8759 75.9442 53.5328 75.7275L53.2224 76.2189C53.4683 76.3743 53.6617 76.5916 53.8023 76.8796L54.3246 76.6246ZM53.5358 75.7294C53.1978 75.5102 52.8124 75.4036 52.3895 75.4036V75.9849C52.7105 75.9849 52.9839 76.0643 53.2194 76.217L53.5358 75.7294ZM52.3895 75.4036C51.973 75.4036 51.5918 75.5108 51.2548 75.7294L51.5711 76.217C51.8077 76.0636 52.0775 75.9849 52.3895 75.9849V75.4036ZM51.2548 75.7294C50.9201 75.9465 50.6614 76.2481 50.4776 76.6246L50.9999 76.8796C51.1415 76.5896 51.3324 76.3719 51.5711 76.217L51.2548 75.7294ZM50.4788 76.6221C50.293 76.9936 50.204 77.4113 50.204 77.8681H50.7852C50.7852 77.4879 50.8589 77.1616 50.9987 76.8821L50.4788 76.6221ZM50.204 77.8681C50.204 78.3319 50.2927 78.7564 50.4776 79.1349L50.9999 78.8798C50.8592 78.5918 50.7852 78.2568 50.7852 77.8681H50.204ZM50.4776 79.1349C50.6614 79.5114 50.9201 79.8129 51.2548 80.03L51.5711 79.5424C51.3324 79.3875 51.1415 79.1698 50.9999 78.8798L50.4776 79.1349ZM51.2548 80.03C51.5918 80.2486 51.973 80.3559 52.3895 80.3559V79.7746C52.0775 79.7746 51.8077 79.6958 51.5711 79.5424L51.2548 80.03ZM56.3832 80.6H56.0926V80.8906H56.3832V80.6ZM56.3832 72.1602V71.8696H56.0926V72.1602H56.3832ZM57.1737 72.1602H57.4643V71.8696H57.1737V72.1602ZM57.1737 80.6V80.8906H57.4643V80.6H57.1737ZM56.6738 80.6V72.1602H56.0926V80.6H56.6738ZM56.3832 72.4509H57.1737V71.8696H56.3832V72.4509ZM56.8831 72.1602V80.6H57.4643V72.1602H56.8831ZM57.1737 80.3094H56.3832V80.8906H57.1737V80.3094ZM63.5108 75.1595H63.8014V74.8689H63.5108V75.1595ZM63.5108 80.6V80.8906H63.8014V80.6H63.5108ZM62.7203 80.6H62.4297V80.8906H62.7203V80.6ZM62.7203 79.7979H63.0109V78.9019L62.485 79.6273L62.7203 79.7979ZM61.8949 80.5302L62.0298 80.7877L62.0345 80.7851L61.8949 80.5302ZM59.4304 80.414L59.2802 80.6628L59.2802 80.6628L59.4304 80.414ZM58.4655 79.3794L58.7227 79.244L58.7227 79.244L58.4655 79.3794ZM58.4539 76.3801L58.1967 76.2447L58.1958 76.2465L58.4539 76.3801ZM59.4072 75.3455L59.2569 75.0967L59.2548 75.098L59.4072 75.3455ZM61.8833 75.2409L61.7436 75.4959L61.7509 75.4996L61.8833 75.2409ZM62.7203 75.9732L62.483 76.1411L63.0109 76.8874V75.9732H62.7203ZM62.7203 75.1595V74.8689H62.4297V75.1595H62.7203ZM61.7903 79.7862L61.6351 79.5405L61.6321 79.5424L61.7903 79.7862ZM62.4762 79.0074L62.215 78.8798L62.215 78.8798L62.4762 79.0074ZM62.4762 76.7521L62.7373 76.6246L62.7373 76.6246L62.4762 76.7521ZM61.7903 75.9732L61.6321 76.2171L61.6351 76.2189L61.7903 75.9732ZM59.8257 75.9732L59.6675 75.7294L59.6675 75.7294L59.8257 75.9732ZM59.1514 76.7521L59.4114 76.8821L59.4126 76.8796L59.1514 76.7521ZM59.1514 79.0074L58.8903 79.1349L58.8903 79.1349L59.1514 79.0074ZM59.8257 79.7862L59.6675 80.03L59.6675 80.03L59.8257 79.7862ZM63.2202 75.1595V80.6H63.8014V75.1595H63.2202ZM63.5108 80.3094H62.7203V80.8906H63.5108V80.3094ZM63.0109 80.6V79.7979H62.4297V80.6H63.0109ZM62.485 79.6273C62.2847 79.9036 62.0419 80.1184 61.7553 80.2753L62.0345 80.7851C62.399 80.5855 62.7064 80.3121 62.9556 79.9684L62.485 79.6273ZM61.7601 80.2728C61.4785 80.4203 61.1686 80.4954 60.8254 80.4954V81.0766C61.2572 81.0766 61.6604 80.9812 62.0298 80.7877L61.7601 80.2728ZM60.8254 80.4954C60.3546 80.4954 59.9423 80.3836 59.5806 80.1652L59.2802 80.6628C59.74 80.9404 60.2577 81.0766 60.8254 81.0766V80.4954ZM59.5806 80.1652C59.2171 79.9457 58.9316 79.6409 58.7227 79.244L58.2084 79.5147C58.4645 80.0013 58.8222 80.3863 59.2802 80.6628L59.5806 80.1652ZM58.7227 79.244C58.515 78.8493 58.4074 78.393 58.4074 77.8681H57.8262C57.8262 78.4747 57.9511 79.0259 58.2084 79.5147L58.7227 79.244ZM58.4074 77.8681C58.4074 77.35 58.5115 76.9009 58.712 76.5137L58.1958 76.2465C57.9468 76.7273 57.8262 77.2702 57.8262 77.8681H58.4074ZM58.7111 76.5155C58.9207 76.1172 59.2033 75.8122 59.5595 75.593L59.2548 75.098C58.805 75.3748 58.4521 75.7595 58.1967 76.2447L58.7111 76.5155ZM59.5574 75.5943C59.9191 75.3759 60.3314 75.2641 60.8022 75.2641V74.6829C60.2345 74.6829 59.7167 74.8191 59.2569 75.0967L59.5574 75.5943ZM60.8022 75.2641C61.1519 75.2641 61.4638 75.3425 61.7437 75.4958L62.0229 74.9859C61.6518 74.7827 61.2429 74.6829 60.8022 74.6829V75.2641ZM61.7509 75.4996C62.0407 75.6478 62.2843 75.8601 62.483 76.1411L62.9576 75.8054C62.7068 75.4509 62.3924 75.1749 62.0157 74.9821L61.7509 75.4996ZM63.0109 75.9732V75.1595H62.4297V75.9732H63.0109ZM62.7203 75.4501H63.5108V74.8689H62.7203V75.4501ZM60.8022 80.3559C61.2251 80.3559 61.6104 80.2493 61.9484 80.03L61.6321 79.5424C61.3966 79.6952 61.1232 79.7746 60.8022 79.7746V80.3559ZM61.9455 80.0319C62.2886 79.8153 62.5525 79.5133 62.7373 79.1349L62.215 78.8798C62.0743 79.1679 61.881 79.3852 61.6351 79.5405L61.9455 80.0319ZM62.7373 79.1349C62.9218 78.7571 63.0109 78.3367 63.0109 77.8797H62.4297C62.4297 78.2597 62.356 78.5911 62.215 78.8798L62.7373 79.1349ZM63.0109 77.8797C63.0109 77.4227 62.9218 77.0024 62.7373 76.6246L62.215 76.8796C62.356 77.1683 62.4297 77.4997 62.4297 77.8797H63.0109ZM62.7373 76.6246C62.5525 76.2461 62.2886 75.9442 61.9455 75.7275L61.6351 76.2189C61.881 76.3743 62.0743 76.5916 62.215 76.8796L62.7373 76.6246ZM61.9484 75.7294C61.6104 75.5102 61.2251 75.4036 60.8022 75.4036V75.9849C61.1232 75.9849 61.3966 76.0643 61.6321 76.217L61.9484 75.7294ZM60.8022 75.4036C60.3856 75.4036 60.0045 75.5108 59.6675 75.7294L59.9838 76.217C60.2203 76.0636 60.4902 75.9849 60.8022 75.9849V75.4036ZM59.6675 75.7294C59.3328 75.9465 59.0741 76.2481 58.8903 76.6246L59.4126 76.8796C59.5542 76.5896 59.7451 76.3719 59.9838 76.217L59.6675 75.7294ZM58.8915 76.6221C58.7057 76.9936 58.6167 77.4113 58.6167 77.8681H59.1979C59.1979 77.4879 59.2716 77.1616 59.4114 76.8821L58.8915 76.6221ZM58.6167 77.8681C58.6167 78.3319 58.7054 78.7564 58.8903 79.1349L59.4126 78.8798C59.2719 78.5918 59.1979 78.2568 59.1979 77.8681H58.6167ZM58.8903 79.1349C59.0741 79.5114 59.3328 79.8129 59.6675 80.03L59.9838 79.5424C59.7451 79.3875 59.5542 79.1698 59.4126 78.8798L58.8903 79.1349ZM59.6675 80.03C60.0045 80.2486 60.3856 80.3559 60.8022 80.3559V79.7746C60.4902 79.7746 60.2203 79.6958 59.9838 79.5424L59.6675 80.03ZM68.2601 75.1595V74.8689H68.0528L67.9854 75.0649L68.2601 75.1595ZM69.0623 75.1595L69.3354 75.2587L69.477 74.8689H69.0623V75.1595ZM67.086 80.6V80.8906H67.2897L67.3592 80.6992L67.086 80.6ZM66.2141 80.6L65.9408 80.6987L66.0101 80.8906H66.2141V80.6ZM64.2495 75.1595V74.8689H63.8356L63.9762 75.2582L64.2495 75.1595ZM65.0749 75.1595L65.3493 75.0636L65.2812 74.8689H65.0749V75.1595ZM66.6791 79.7514L66.4048 79.8472L66.6811 80.6383L66.9539 79.846L66.6791 79.7514ZM68.2601 75.4501H69.0623V74.8689H68.2601V75.4501ZM68.7891 75.0603L66.8129 80.5008L67.3592 80.6992L69.3354 75.2587L68.7891 75.0603ZM67.086 80.3094H66.2141V80.8906H67.086V80.3094ZM66.4875 80.5013L64.5229 75.0608L63.9762 75.2582L65.9408 80.6987L66.4875 80.5013ZM64.2495 75.4501H65.0749V74.8689H64.2495V75.4501ZM64.8005 75.2553L66.4048 79.8472L66.9535 79.6555L65.3493 75.0636L64.8005 75.2553ZM66.9539 79.846L68.5349 75.2541L67.9854 75.0649L66.4044 79.6567L66.9539 79.846ZM73.242 75.3339L73.091 75.5822L73.091 75.5822L73.242 75.3339ZM74.172 76.322L73.916 76.4595L73.917 76.4615L74.172 76.322ZM74.4975 78.0425V78.3331H74.7605L74.7867 78.0714L74.4975 78.0425ZM70.0219 78.0425V77.7519H69.7147L69.7317 78.0586L70.0219 78.0425ZM70.5683 79.4724L70.3461 79.6597L70.5683 79.4724ZM73.0793 79.8095L73.222 80.0626L73.2241 80.0614L73.0793 79.8095ZM73.8233 79.0771L73.9845 78.8353L73.7309 78.6662L73.574 78.9276L73.8233 79.0771ZM74.451 79.4956L74.6964 79.6513L74.8486 79.4114L74.6122 79.2538L74.451 79.4956ZM73.4396 80.4489L73.5771 80.7049L73.5808 80.7029L73.4396 80.4489ZM70.545 80.414L70.3948 80.6628L70.3948 80.6628L70.545 80.414ZM69.5801 79.3794L69.8373 79.244L69.8373 79.244L69.5801 79.3794ZM69.5685 76.3801L69.3113 76.2447L69.3095 76.2483L69.5685 76.3801ZM70.5218 75.3455L70.3715 75.0967L70.3694 75.098L70.5218 75.3455ZM73.7186 77.3915V77.6821H74.0518L74.0066 77.352L73.7186 77.3915ZM73.149 76.1244L72.949 76.3352L72.9519 76.3379L73.149 76.1244ZM70.6729 76.1825L70.4674 75.977L70.4674 75.977L70.6729 76.1825ZM70.0684 77.3915L69.7821 77.3415L69.7226 77.6821H70.0684V77.3915ZM71.9168 75.2641C72.3549 75.2641 72.7439 75.3712 73.091 75.5822L73.393 75.0855C72.9496 74.816 72.4552 74.6829 71.9168 74.6829V75.2641ZM73.091 75.5822C73.4408 75.7948 73.715 76.0853 73.916 76.4595L74.428 76.1845C74.1795 75.7216 73.8337 75.3534 73.393 75.0855L73.091 75.5822ZM73.917 76.4615C74.1163 76.8256 74.2185 77.238 74.2185 77.7054H74.7998C74.7998 77.1497 74.6772 76.6399 74.427 76.1825L73.917 76.4615ZM74.2185 77.7054C74.2185 77.8498 74.2146 77.9507 74.2083 78.0136L74.7867 78.0714C74.7959 77.9793 74.7998 77.8554 74.7998 77.7054H74.2185ZM74.4975 77.7519H70.0219V78.3331H74.4975V77.7519ZM69.7317 78.0586C69.7659 78.6741 69.9688 79.2123 70.3461 79.6597L70.7904 79.285C70.5012 78.9419 70.3399 78.5268 70.3121 78.0264L69.7317 78.0586ZM70.3461 79.6597C70.741 80.1281 71.2798 80.3559 71.9284 80.3559V79.7746C71.43 79.7746 71.062 79.6071 70.7904 79.285L70.3461 79.6597ZM71.9284 80.3559C72.427 80.3559 72.8639 80.2646 73.222 80.0626L72.9365 79.5563C72.6901 79.6953 72.3597 79.7746 71.9284 79.7746V80.3559ZM73.2241 80.0614C73.5776 79.8582 73.8613 79.5786 74.0725 79.2266L73.574 78.9276C73.4132 79.1956 73.201 79.4043 72.9344 79.5575L73.2241 80.0614ZM73.662 79.3189L74.2898 79.7374L74.6122 79.2538L73.9845 78.8353L73.662 79.3189ZM74.2056 79.3399C73.9759 79.7018 73.6747 79.9858 73.2985 80.1948L73.5808 80.7029C74.0415 80.4469 74.4146 80.0954 74.6964 79.6513L74.2056 79.3399ZM73.3021 80.1928C72.9338 80.3906 72.487 80.4954 71.9516 80.4954V81.0766C72.5632 81.0766 73.1084 80.9566 73.5771 80.7049L73.3021 80.1928ZM71.9516 80.4954C71.4722 80.4954 71.0563 80.3832 70.6952 80.1652L70.3948 80.6628C70.8553 80.9408 71.3771 81.0766 71.9516 81.0766V80.4954ZM70.6952 80.1652C70.3317 79.9457 70.0462 79.6409 69.8373 79.244L69.3229 79.5147C69.5791 80.0013 69.9368 80.3863 70.3948 80.6628L70.6952 80.1652ZM69.8373 79.244C69.6293 78.8487 69.522 78.3962 69.522 77.8797H68.9408C68.9408 78.4793 69.066 79.0265 69.3229 79.5147L69.8373 79.244ZM69.522 77.8797C69.522 77.3617 69.626 76.9079 69.8275 76.5119L69.3095 76.2483C69.0615 76.7358 68.9408 77.2817 68.9408 77.8797H69.522ZM69.8257 76.5155C70.0353 76.1172 70.3179 75.8122 70.6741 75.593L70.3694 75.098C69.9196 75.3748 69.5667 75.7595 69.3113 76.2447L69.8257 76.5155ZM70.672 75.5943C71.0337 75.3759 71.4459 75.2641 71.9168 75.2641V74.6829C71.3491 74.6829 70.8313 74.8191 70.3715 75.0967L70.672 75.5943ZM74.0066 77.352C73.9234 76.7452 73.7141 76.2505 73.3461 75.9108L72.9519 76.3379C73.1884 76.5562 73.3588 76.9063 73.4307 77.4309L74.0066 77.352ZM73.349 75.9135C72.9803 75.5637 72.4912 75.4036 71.9168 75.4036V75.9849C72.3808 75.9849 72.7132 76.1115 72.949 76.3352L73.349 75.9135ZM71.9168 75.4036C71.3439 75.4036 70.8528 75.5916 70.4674 75.977L70.8784 76.388C71.144 76.1224 71.4821 75.9849 71.9168 75.9849V75.4036ZM70.4674 75.977C70.103 76.3414 69.8765 76.8007 69.7821 77.3415L70.3547 77.4415C70.4307 77.0058 70.6073 76.6591 70.8784 76.388L70.4674 75.977ZM70.0684 77.6821H73.7186V77.1009H70.0684V77.6821ZM78.6522 75.0549H78.9428V74.8423L78.7403 74.7779L78.6522 75.0549ZM78.6522 75.7756L78.5272 76.038L78.9428 76.2359V75.7756H78.6522ZM77.1874 75.9384L77.0293 75.6945L77.0293 75.6945L77.1874 75.9384ZM76.4899 76.7521L76.23 76.6221L76.2288 76.6245L76.4899 76.7521ZM76.2342 80.6V80.8906H76.5248V80.6H76.2342ZM75.4437 80.6H75.153V80.8906H75.4437V80.6ZM75.4437 75.1595V74.8689H75.153V75.1595H75.4437ZM76.2342 75.1595H76.5248V74.8689H76.2342V75.1595ZM76.2342 76.2522H75.9435L76.4921 76.3862L76.2342 76.2522ZM77.0247 75.3106L76.8595 75.0714L76.8568 75.0733L77.0247 75.3106ZM78.1174 75.2641C78.2747 75.2641 78.4232 75.287 78.5641 75.3318L78.7403 74.7779C78.5402 74.7142 78.3321 74.6829 78.1174 74.6829V75.2641ZM78.3615 75.0549V75.7756H78.9428V75.0549H78.3615ZM78.7771 75.5132C78.5725 75.4158 78.3511 75.3687 78.1174 75.3687V75.95C78.2712 75.95 78.4064 75.9804 78.5272 76.038L78.7771 75.5132ZM78.1174 75.3687C77.7265 75.3687 77.3618 75.4788 77.0293 75.6945L77.3456 76.1822C77.5865 76.0259 77.8418 75.95 78.1174 75.95V75.3687ZM77.0293 75.6945C76.6923 75.9131 76.4275 76.2271 76.23 76.6221L76.7499 76.8821C76.9088 76.5641 77.1091 76.3356 77.3456 76.1822L77.0293 75.6945ZM76.2288 76.6245C76.0348 77.0213 75.9435 77.4815 75.9435 77.996H76.5248C76.5248 77.5494 76.604 77.1804 76.751 76.8797L76.2288 76.6245ZM75.9435 77.996V80.6H76.5248V77.996H75.9435ZM76.2342 80.3094H75.4437V80.8906H76.2342V80.3094ZM75.7343 80.6V75.1595H75.153V80.6H75.7343ZM75.4437 75.4501H76.2342V74.8689H75.4437V75.4501ZM75.9435 75.1595V76.2522H76.5248V75.1595H75.9435ZM76.4921 76.3862C76.6835 76.0174 76.9184 75.7417 77.1925 75.5479L76.8568 75.0733C76.4954 75.329 76.2033 75.681 75.9762 76.1183L76.4921 76.3862ZM77.1898 75.5498C77.4658 75.3592 77.7722 75.2641 78.1174 75.2641V74.6829C77.6566 74.6829 77.2345 74.8125 76.8595 75.0714L77.1898 75.5498Z"
            fill="black" mask="url(#path-2-outside-1_1998_12)" />
        <path
            d="M23.0184 80.6V72.6717H27.3429V73.4041H23.8903V76.1709H26.4478V76.88H23.8903V80.6H23.0184ZM28.2749 80.6V75.1595H29.0654V80.6H28.2749ZM28.6701 74.1016C28.4919 74.1016 28.3407 74.0396 28.2167 73.9156C28.1005 73.7916 28.0424 73.6405 28.0424 73.4622C28.0424 73.2917 28.1005 73.1484 28.2167 73.0321C28.3407 72.9081 28.4919 72.8461 28.6701 72.8461C28.8406 72.8461 28.9879 72.9081 29.1119 73.0321C29.2359 73.1484 29.2979 73.2956 29.2979 73.4739C29.2979 73.6444 29.2359 73.7916 29.1119 73.9156C28.9879 74.0396 28.8406 74.1016 28.6701 74.1016ZM30.781 80.6V72.1602H31.5715V80.6H30.781ZM38.6409 74.9735C39.1447 74.9735 39.5632 75.1517 39.8964 75.5082C40.2297 75.857 40.3963 76.3414 40.3963 76.9614V80.6H39.6058V77.3101C39.6058 76.7366 39.4973 76.3259 39.2803 76.0779C39.0633 75.8221 38.7804 75.6942 38.4317 75.6942C38.0054 75.6942 37.6722 75.8609 37.4319 76.1941C37.1994 76.5196 37.0638 76.9652 37.025 77.531V80.6H36.2345V77.3101C36.2345 76.7366 36.126 76.3259 35.909 76.0779C35.692 75.8221 35.4092 75.6942 35.0604 75.6942C34.5877 75.6942 34.2312 75.8919 33.9909 76.2871C33.7584 76.6824 33.6422 77.2132 33.6422 77.8797V80.6H32.8517V75.1595H33.6422V76.0081C33.8204 75.6749 34.0452 75.4191 34.3164 75.2409C34.5954 75.0626 34.9132 74.9735 35.2697 74.9735C35.6649 74.9735 36.0098 75.082 36.3043 75.299C36.5988 75.5082 36.8042 75.8105 36.9204 76.2057C37.0909 75.8182 37.3234 75.516 37.6179 75.299C37.9124 75.082 38.2534 74.9735 38.6409 74.9735Z"
            fill="black" />
        <rect x="24.425" y="40.7" width="44.175" height="29.0625" rx="5.8125" fill="black" />
        <path d="M69.7625 50L74.4125 51.1625V58.1375L69.7625 59.3V50Z" fill="black" />
        <path d="M82.55 47.675L75.575 51.1625V58.1375L82.55 61.625V47.675Z" fill="black" />
        <path fill-rule="evenodd" clip-rule="evenodd"
            d="M93.6039 66.1902C95.4767 61.1484 96.5 55.6937 96.5 50C96.5 47.3011 96.2701 44.6559 95.8287 42.0829L83.7125 47.675V61.625L93.6039 66.1902Z"
            fill="white" />
        <circle cx="60.4625" cy="24.425" r="12.7875" stroke="black" stroke-width="3.4875" />
        <circle cx="34.3063" cy="30.8188" r="7.55625" stroke="black" stroke-width="3.4875" />
        <path d="M55.8125 36.05L48.8375 46.5125" stroke="black" stroke-width="8.1375" />
        <path d="M38.375 37.2125L45.35 46.5125" stroke="black" stroke-width="5.8125" />
        <path fill-rule="evenodd" clip-rule="evenodd"
            d="M43.025 95.9804C42.2435 95.8628 41.4683 95.7258 40.7 95.5699L40.7 60.4625L43.025 60.4625L43.025 95.9804Z"
            fill="white" />
        <path fill-rule="evenodd" clip-rule="evenodd"
            d="M44.0731 45.3498L47.3274 47.2286C47.8834 47.5496 48.0739 48.2606 47.7529 48.8166C47.4319 49.3726 46.7209 49.5632 46.1649 49.2421L42.6412 47.2078L42.06 48.2145L45.5836 50.2489C46.1396 50.5699 46.3301 51.2809 46.0091 51.8369C45.6881 52.3929 44.9771 52.5834 44.4211 52.2624L40.8975 50.228L40.3162 51.2348L43.8399 53.2692C44.3959 53.5902 44.5864 54.3011 44.2654 54.8572C43.9444 55.4132 43.2334 55.6037 42.6774 55.2827L39.1537 53.2483L38.5725 54.255C37.9304 55.3671 38.3115 56.789 39.4235 57.4311L40.4302 58.0123C39.7882 59.1243 40.1692 60.5463 41.2812 61.1883C42.3933 61.8303 43.8152 61.4493 44.4573 60.3373L45.464 60.9186C46.576 61.5606 47.998 61.1796 48.64 60.0675L49.2213 59.0608L45.6976 57.0264C45.1416 56.7054 44.9511 55.9944 45.2721 55.4384C45.5931 54.8824 46.3041 54.6919 46.8601 55.0129L50.3838 57.0473L50.965 56.0405L47.4414 54.0062C46.8854 53.6851 46.6949 52.9742 47.0159 52.4181C47.3369 51.8621 48.0479 51.6716 48.6039 51.9926L52.1275 54.027L52.7088 53.0203L49.1851 50.9859C48.6291 50.6649 48.4386 49.9539 48.7596 49.3979C49.0806 48.8419 49.7916 48.6514 50.3476 48.9724L53.6019 50.8512C53.6012 50.0484 53.1843 49.2678 52.439 48.8375L46.3985 45.35C45.6532 44.9197 44.7687 44.9489 44.0731 45.3498Z"
            fill="white" />
    </g>
</svg>