<svg width="100" height="100" viewBox="0 0 100 100" fill="none" xmlns="http://www.w3.org/2000/svg">
    <path fill-rule="evenodd" clip-rule="evenodd"
        d="M61.5209 19.1104C60.501 17.2186 59.4811 15.5019 58.5204 13.9858C73.4267 17.499 84.8531 30.0273 86.7291 45.5H69.8086C68.9306 35.1021 65.1743 25.8871 61.5209 19.1104ZM61.7752 45.5C60.9193 36.8436 57.7481 28.9705 54.4791 22.9068C52.8924 19.9637 51.3059 17.4898 50 15.6116C48.6941 17.4898 47.1076 19.9637 45.5209 22.9068C42.2519 28.9705 39.0807 36.8436 38.2248 45.5H61.7752ZM38.1367 53.5H61.8633C61.1626 62.5495 57.8736 70.7968 54.4791 77.0932C52.8924 80.0363 51.3059 82.5102 50 84.3884C48.6941 82.5102 47.1076 80.0363 45.5209 77.0932C42.1264 70.7968 38.8374 62.5495 38.1367 53.5ZM30.1914 45.5C31.0694 35.1021 34.8257 25.8871 38.4791 19.1104C39.499 17.2186 40.5189 15.5019 41.4796 13.9858C26.5733 17.499 15.1469 30.0273 13.2709 45.5H30.1914ZM13.1634 53.5H30.1162C30.8294 64.3067 34.709 73.8964 38.4791 80.8896C39.499 82.7814 40.5189 84.4981 41.4796 86.0142C26.2535 82.4256 14.6582 69.431 13.1634 53.5ZM5.00552 49.2881C5.00185 49.3583 5 49.4289 5 49.5C5 49.5384 5.00054 49.5766 5.00161 49.6148C5.00054 49.743 5 49.8715 5 50C5 74.8528 25.1472 95 50 95C74.8528 95 95 74.8528 95 50C95 49.8715 94.9995 49.743 94.9984 49.6148C94.9995 49.5766 95 49.5384 95 49.5C95 49.4289 94.9981 49.3583 94.9945 49.2881C94.6141 24.7636 74.6151 5 50 5C25.3849 5 5.38588 24.7636 5.00552 49.2881ZM86.8366 53.5C85.3418 69.431 73.7465 82.4256 58.5204 86.0142C59.4811 84.4981 60.501 82.7814 61.5209 80.8896C65.291 73.8964 69.1706 64.3067 69.8838 53.5H86.8366Z"
        fill="currentcolor" />
</svg>