<svg width="100" height="100" viewBox="0 0 100 100" fill="none" xmlns="http://www.w3.org/2000/svg">
    <path fill-rule="evenodd" clip-rule="evenodd"
        d="M11.1091 5.45227C9.54703 3.89018 7.01437 3.89018 5.45227 5.45227C3.89018 7.01437 3.89018 9.54703 5.45227 11.1091L15.4771 21.1339C9.08144 28.7759 5.1718 38.5804 5.00553 49.2879C5.00186 49.3582 5 49.4289 5 49.5C5 49.5384 5.00054 49.5767 5.00162 49.6148C5.00054 49.7431 5 49.8715 5 50C5 74.8528 25.1472 95 50 95C60.9846 95 71.055 91.0601 78.8661 84.5229L88.8909 94.5477C90.453 96.1098 92.9856 96.1098 94.5477 94.5477C96.1098 92.9856 96.1098 90.453 94.5477 88.8909L11.1091 5.45227ZM73.1823 78.8391L65.8317 71.4886C63.699 77.113 61.0756 81.9321 58.7817 85.5992C58.694 85.7394 58.6067 85.878 58.5199 86.015C63.9715 84.7308 68.957 82.2406 73.1823 78.8391ZM59.5466 65.2034L47.8431 53.5H38.1367C38.8374 62.5495 42.1264 70.7968 45.5209 77.0932C47.1076 80.0363 48.6941 82.5102 50 84.3884C50.6134 83.5061 51.2896 82.4911 51.9993 81.3567C54.5644 77.2558 57.5177 71.6704 59.5466 65.2034ZM39.8431 45.5L38.3907 44.0475C38.3283 44.5292 38.2729 45.0135 38.2248 45.5H39.8431ZM31.5167 37.1736L21.1609 26.8177C16.9393 32.0616 14.1215 38.4763 13.2706 45.5H30.1914C30.4346 42.6212 30.898 39.8364 31.5167 37.1736ZM58.5204 13.9858C59.0337 14.7959 59.5638 15.6631 60.1017 16.5834C63.7568 22.8375 67.8639 31.7048 69.3881 41.9091C69.7145 44.094 68.2079 46.1297 66.023 46.4561C63.8381 46.7825 61.8023 45.2758 61.4759 43.0909C60.1528 34.2332 56.5438 26.3505 53.1948 20.6201C52.0525 18.6655 50.9512 16.9797 50 15.6116C48.8389 17.2816 47.4551 19.4237 46.0464 21.9488C44.9701 23.878 42.5336 24.5695 40.6044 23.4932C38.6752 22.4169 37.9838 19.9804 39.06 18.0512C39.8846 16.5732 40.7018 15.2132 41.4803 13.9847C39.622 14.4224 37.8188 15.0002 36.082 15.7058C34.0353 16.5374 31.7021 15.5523 30.8705 13.5056C30.039 11.459 31.0241 9.12573 33.0707 8.29419C38.3019 6.16881 44.0194 5 50 5C74.6151 5 94.6141 24.7636 94.9945 49.2881C94.9981 49.3583 95 49.4289 95 49.5C95 49.5384 94.9995 49.5766 94.9984 49.6148C94.9995 49.743 95 49.8715 95 50C95 55.8035 93.8994 61.3596 91.8918 66.464C91.8616 66.5408 91.8312 66.6174 91.8007 66.6938C90.9808 68.7452 88.6532 69.7435 86.6018 68.9236C84.5505 68.1036 83.5522 65.776 84.3721 63.7247C84.3972 63.6618 84.4222 63.5989 84.4469 63.536C85.6872 60.3823 86.5076 57.0148 86.8369 53.5H72.5C70.2909 53.5 68.5 51.7091 68.5 49.5C68.5 47.2909 70.2909 45.5 72.5 45.5H86.7291C84.8531 30.0273 73.4267 17.499 58.5204 13.9858ZM41.4796 86.0142C26.2535 82.4256 14.6582 69.431 13.1634 53.5H30.1162C30.8294 64.3067 34.709 73.8964 38.4791 80.8896C39.499 82.7814 40.5189 84.4981 41.4796 86.0142Z"
        fill="currentcolor" />
</svg>