<svg width="100" height="100" viewBox="0 0 100 100" fill="none" xmlns="http://www.w3.org/2000/svg">
    <g clip-path="url(#clip0_1998_12)">
        <path
            d="M94 51.0417C94 47.7917 93.7083 44.6667 93.1667 41.6667H50V59.4167H74.6667C73.5833 65.125 70.3333 69.9584 65.4583 73.2084V84.75H80.3333C89 76.75 94 65 94 51.0417Z"
            fill="#4285F4" />
        <path
            d="M50 95.8333C62.375 95.8333 72.75 91.75 80.3333 84.75L65.4583 73.2083C61.375 75.9583 56.1667 77.625 50 77.625C38.0833 77.625 27.9583 69.5833 24.3333 58.75H9.08334V70.5833C16.625 85.5417 32.0833 95.8333 50 95.8333Z"
            fill="#34A853" />
        <path
            d="M24.3333 58.7083C23.4167 55.9583 22.875 53.0416 22.875 50C22.875 46.9583 23.4167 44.0416 24.3333 41.2916V29.4583H9.08333C5.95833 35.625 4.16667 42.5833 4.16667 50C4.16667 57.4166 5.95833 64.375 9.08333 70.5416L20.9583 61.2916L24.3333 58.7083Z"
            fill="#FBBC05" />
        <path
            d="M50 22.4167C56.75 22.4167 62.75 24.75 67.5417 29.25L80.6667 16.125C72.7083 8.70835 62.375 4.16669 50 4.16669C32.0833 4.16669 16.625 14.4584 9.08334 29.4584L24.3333 41.2917C27.9583 30.4584 38.0833 22.4167 50 22.4167Z"
            fill="#EA4335" />
    </g>
</svg>