<svg width="100" height="100" viewBox="0 0 100 100" fill="none" xmlns="http://www.w3.org/2000/svg">
    <path fill-rule="evenodd" clip-rule="evenodd"
        d="M93.4799 36.1932C92.5652 33.5685 91.3891 31.0751 89.9516 28.7129C88.5795 26.3507 86.9951 24.1526 85.1983 22.1185C83.4016 20.0843 81.3924 18.2471 79.1709 16.6067C77.0148 14.9662 74.6626 13.4899 72.1144 12.1776C69.6317 10.9308 67.0835 9.97945 64.47 9.32326C61.7911 8.60151 59.1122 8.17494 56.4334 8.04373C53.7546 7.91253 51.0431 8.07651 48.2989 8.53586C45.6201 8.92956 42.9739 9.58575 40.3604 10.5044C37.4202 11.5542 34.627 12.8993 31.9808 14.5398C29.3347 16.1802 26.9661 18.0503 24.8754 20.15L12.3305 31.9609V16.4098C12.3305 15.1631 11.9549 14.1461 11.2035 13.3587C10.4521 12.5713 9.45569 12.1776 8.21428 12.1776C6.90753 12.1776 5.87846 12.5713 5.12707 13.3587C4.37569 14.1461 4 15.1631 4 16.4098V41.6066V41.8034V42.0003V42.5908V42.8861C4 43.0829 4.06534 43.2141 4.19601 43.2798C4.32669 43.3454 4.39203 43.4766 4.39203 43.6735L4.44103 43.9195C4.4737 44.0836 4.62071 44.1656 4.88206 44.1656C5.07807 44.3624 5.20874 44.4773 5.27408 44.5101C5.33942 44.5429 5.4701 44.5593 5.66611 44.5593L5.86212 44.7561L6.05813 44.953H6.30315H6.54817H6.94019H7.33222H32.4219C33.6633 44.953 34.676 44.5757 35.4601 43.8211C36.2441 43.0665 36.6361 42.033 36.6361 40.7207C36.6361 39.474 36.3911 38.6046 35.9011 38.1125C35.4111 37.6204 34.5454 37.3743 33.3039 37.3743H18.603L30.3637 26.0555C31.9972 24.415 33.9246 22.8894 36.1461 21.4787C38.3676 20.068 40.6218 18.9361 42.9085 18.0831C47.0902 16.6395 51.3861 16.0161 55.7964 16.213C60.2067 16.4098 64.4046 17.4597 68.3902 19.3626C72.3758 21.2654 75.8713 23.8573 78.8769 27.1381C81.8825 30.4189 84.1039 34.2575 85.5413 38.6538C86.9788 42.8533 87.5995 47.184 87.4035 51.6459C87.2074 56.1078 86.162 60.3072 84.2672 64.2442C82.3725 68.2469 79.7916 71.7573 76.5247 74.7757C73.2579 77.7941 69.4356 80.025 65.058 81.4686C60.6803 83.0434 56.2701 83.6995 51.8271 83.437C47.4495 83.109 43.3332 82.0263 39.4783 80.189C35.6234 78.3517 32.2258 75.7927 29.2857 72.5119C26.2801 69.1655 23.9933 65.2941 22.4252 60.8978C21.9678 59.8479 21.2001 59.0605 20.1221 58.5356C19.044 58.0107 17.9823 57.9778 16.9368 58.4372C15.8914 58.8309 15.1074 59.5691 14.5847 60.6517C14.062 61.7344 14.0293 62.8006 14.4867 63.8505C16.0548 68.1812 18.1783 72.0854 20.8571 75.5631C23.6013 78.9752 26.7211 81.9115 30.2167 84.3721C33.7123 86.8327 37.5182 88.7192 41.6345 90.0315C45.6854 91.3438 49.867 92 54.1793 92C56.4661 92 58.7692 91.7867 61.0887 91.3602C63.4082 90.9338 65.7114 90.294 67.9982 89.441C73.4212 87.6037 78.1582 84.815 82.2091 81.0749C86.3254 77.2691 89.5432 72.9548 91.8627 68.132C94.1823 63.3092 95.538 58.1419 95.93 52.6301C96.2567 47.1183 95.44 41.6393 93.4799 36.1932ZM53.75 23.0725C55.9591 23.0725 57.75 24.8634 57.75 27.0725V49.0932L67.3763 58.7194C68.9384 60.2815 68.9384 62.8142 67.3763 64.3763C65.8142 65.9384 63.2815 65.9384 61.7194 64.3763L51.88 54.5369C50.6131 53.8657 49.75 52.5336 49.75 51V27.0725C49.75 24.8634 51.5409 23.0725 53.75 23.0725Z"
        fill="currentcolor" />
</svg>