<svg width="100" height="100" viewBox="0 0 100 100" fill="none" xmlns="http://www.w3.org/2000/svg">
    <path
        d="M88.4075 34.1617L52.4356 5.94681C51.6237 5.31561 50.7651 5.00001 49.8595 5C48.9539 5.00001 48.1889 5.31561 47.5644 5.94681L11.5925 34.1617C11.0304 34.6036 10.6245 35.1085 10.3747 35.6766C10.1249 36.2447 10 36.8128 10 37.3809V81.8809C10 85.2894 11.1553 88.1613 13.466 90.4968C15.7768 92.8323 18.6183 94 21.9906 94H78.0094C81.3817 94 84.2232 92.8323 86.534 90.4968C88.8447 88.1613 90 85.2894 90 81.8809V37.3809C90 36.8128 89.8751 36.2447 89.6253 35.6766C89.3755 35.1085 88.9696 34.6036 88.4075 34.1617ZM57.9625 85.8574H42.0375V53.5713H57.9625V85.8574ZM81.9438 81.8809C81.9438 83.0802 81.5847 84.0427 80.8665 84.7686C80.1483 85.4945 79.196 85.8574 78.0094 85.8574H66.0187V49.5C66.0187 48.3007 65.644 47.3382 64.8946 46.6122C64.1452 45.8863 63.1772 45.5234 61.9906 45.5234H38.0094C36.8228 45.5234 35.8548 45.8863 35.1054 46.6122C34.356 47.3382 33.9813 48.3007 33.9813 49.5V85.8574H21.9906C20.804 85.8574 19.8517 85.4945 19.1335 84.7686C18.4153 84.0427 18.0562 83.0802 18.0562 81.8809V39.4638L50 14.3734L81.9438 39.4638V81.8809Z"
        fill="currentcolor" />
</svg>