<svg width="100" height="100" viewBox="0 0 100 100" fill="none" xmlns="http://www.w3.org/2000/svg">
    <path fill-rule="evenodd" clip-rule="evenodd"
        d="M50 8C37.2975 8 27 18.2975 27 31C27 37.0926 29.3636 42.6243 33.2317 46.7425C33.6031 47.138 34.0372 47.5184 34.6565 48.0546L34.7097 48.1007C35.2697 48.5854 35.9967 49.2146 36.6764 49.9384C38.4952 51.8755 40.7917 55.1851 41.6529 60H58.3471C59.2083 55.1851 61.5048 51.8755 63.3236 49.9384C64.0032 49.2147 64.7302 48.5855 65.2902 48.1008L65.2902 48.1008L65.2903 48.1007L65.3435 48.0546C65.9628 47.5184 66.3969 47.138 66.7683 46.7425C70.6364 42.6243 73 37.0926 73 31C73 18.2975 62.7025 8 50 8ZM19 31C19 13.8792 32.8792 0 50 0C67.1208 0 81 13.8792 81 31C81 39.2072 77.8054 46.677 72.5995 52.2195C71.9203 52.9427 71.1937 53.5715 70.634 54.056L70.6339 54.056L70.6339 54.056L70.5799 54.1028C69.9607 54.6389 69.5268 55.0193 69.1555 55.4146C67.8997 56.752 66 59.4815 66 64C66 66.2091 64.2091 68 62 68H38C35.7909 68 34 66.2091 34 64C34 59.4815 32.1003 56.752 30.8445 55.4146C30.4732 55.0193 30.0393 54.6389 29.4201 54.1028L29.3661 54.056C28.8064 53.5716 28.0798 52.9427 27.4005 52.2195C22.1946 46.677 19 39.2072 19 31ZM38 76C35.7909 76 34 77.7909 34 80C34 82.2091 35.7909 84 38 84H62C64.2091 84 66 82.2091 66 80C66 77.7909 64.2091 76 62 76H38ZM44 92C41.7909 92 40 93.7909 40 96C40 98.2091 41.7909 100 44 100H50H56C58.2091 100 60 98.2091 60 96C60 93.7909 58.2091 92 56 92H50H44ZM39 31C39 24.9249 43.9249 20 50 20C52.2091 20 54 18.2091 54 16C54 13.7909 52.2091 12 50 12C39.5066 12 31 20.5066 31 31C31 33.2091 32.7909 35 35 35C37.2091 35 39 33.2091 39 31Z"
        fill="currentcolor" />
</svg>