<svg width="100" height="100" viewBox="0 0 100 100" fill="none" xmlns="http://www.w3.org/2000/svg">
    <path fill-rule="evenodd" clip-rule="evenodd"
        d="M19 7C12.3726 7 7 12.3726 7 19V81C7 87.6274 12.3726 93 19 93H82C88.6274 93 94 87.6274 94 81V19C94 12.3726 88.6274 7 82 7H19Z"
        fill="#F6C700" />
    <path fill-rule="evenodd" clip-rule="evenodd"
        d="M19.9067 61.8355H26.1378V37.8489H19.9067V61.8355ZM42.1333 61.8355H47.5689V37.8489H39.4267L37.9867 49.0533L37.0933 42.96C36.8311 41.0044 36.5822 39.3022 36.3556 37.8489H28.2711V61.8355H33.7245L33.7422 46L36.04 61.8355H39.9289L42.1067 45.6444L42.1333 61.8355ZM63.5333 59.0311C63.7333 58.3111 63.8533 56.8711 63.8533 54.72H63.8578V46.2933C63.8578 44.0267 63.7689 42.5067 63.6311 41.7333C63.4933 40.9555 63.1467 40.2533 62.5911 39.6222C62.0445 38.9911 61.2356 38.5378 60.1689 38.2622C59.1067 37.9867 57.3644 37.8489 54.3511 37.8489H49.6978V61.8355H57.2489C58.7422 61.8355 59.8622 61.7555 60.6 61.5911C61.284 61.4568 61.9266 61.1629 62.4756 60.7333C62.9994 60.2922 63.3698 59.6962 63.5333 59.0311ZM79.8 59.5422C79.9911 58.84 80.0933 57.7689 80.0933 56.3289V49.6C80.0933 48.1555 80.0622 47.2089 79.9911 46.7644C79.9027 46.2238 79.6763 45.7151 79.3337 45.2877C78.9911 44.8602 78.544 44.5284 78.0356 44.3244C77.4311 44.0667 76.7111 43.9378 75.8844 43.9378C75.1733 43.9378 74.2533 44.08 73.6444 44.3644C73.0015 44.6653 72.4325 45.1038 71.9778 45.6489V37.8489H65.9778V61.8311H71.5867L71.9778 60.3022C72.4297 60.8799 73.0013 61.3529 73.6533 61.6889C74.2622 61.9955 75.1822 62.1511 75.8844 62.1511C76.7931 62.1746 77.685 61.9033 78.4267 61.3778C79.0852 60.9456 79.5712 60.296 79.8 59.5422ZM55.9244 41.9511C56.6044 41.9511 57.0622 42.0222 57.3156 42.1644C57.4366 42.2367 57.5408 42.3339 57.6213 42.4496C57.7018 42.5654 57.7566 42.6969 57.7822 42.8356C57.8489 43.1422 57.8844 43.8356 57.8844 44.92V54.2178C57.8844 55.8133 57.7822 56.7911 57.5733 57.1511C57.3645 57.5111 56.8178 57.6933 55.9244 57.6933V41.9511ZM72.1467 47.8222C72.2578 47.5556 72.5022 47.4178 72.8667 47.4178C73.24 47.4178 73.7511 47.5733 73.8933 47.88C74.0222 48.1911 74.0844 48.8533 74.0844 49.8667V56.0178C74.0844 57.1778 74.0311 57.9111 73.9111 58.2178C73.7956 58.52 73.2933 58.6756 72.9111 58.6756C72.5467 58.6756 72.2933 58.5244 72.1644 58.2311C72.0444 57.9333 71.9822 57.2578 71.9822 56.2044V49.8667C71.9822 48.7733 72.0356 48.0933 72.1467 47.8222Z"
        fill="black" />
</svg>