<svg width="100" height="100" viewBox="0 0 100 100" fill="none" xmlns="http://www.w3.org/2000/svg">
    <path fill-rule="evenodd" clip-rule="evenodd"
        d="M5.45227 5.45227C7.01437 3.89018 9.54703 3.89018 11.1091 5.45227L94.5477 88.8909C96.1098 90.453 96.1098 92.9856 94.5477 94.5477C92.9856 96.1098 90.453 96.1098 88.8909 94.5477L86.4784 92.1353C85.0941 92.6926 83.5819 93 82 93H19C12.3726 93 7 87.6274 7 81V19C7 17.1493 7.42074 15.3939 8.17025 13.8271L5.45227 11.1091C3.89018 9.54703 3.89018 7.01437 5.45227 5.45227ZM56.1787 61.8355L79.3431 85H19C16.7909 85 15 83.2091 15 81V20.6569L32.192 37.8489H28.2711V61.8355H33.7245L33.7422 46L36.04 61.8355H39.9289L41.8554 47.5123L42.1102 47.767L42.1333 61.8355H47.5689V53.2257L49.6978 55.3546V61.8355H56.1787ZM37.0933 42.96L37.0607 42.7176L38.6028 44.2596L37.9867 49.0533L37.0933 42.96ZM55.2292 37.8531L63.8578 46.4817V46.2933C63.8578 44.0267 63.7689 42.5067 63.6311 41.7333C63.4933 40.9555 63.1467 40.2533 62.5911 39.6222C62.0445 38.9911 61.2356 38.5378 60.1689 38.2622C59.2144 38.0146 57.7108 37.8782 55.2292 37.8531ZM79.8 59.5422C79.594 60.2209 79.1795 60.8151 78.6183 61.2422L74.0771 56.7009C74.082 56.4926 74.0844 56.2649 74.0844 56.0178V49.8667C74.0844 48.8533 74.0222 48.1911 73.8933 47.88C73.7511 47.5733 73.24 47.4178 72.8667 47.4178C72.5022 47.4178 72.2578 47.5556 72.1467 47.8222C72.0356 48.0933 71.9822 48.7733 71.9822 49.8667V54.6061L65.9778 48.6017V37.8489H71.9778V45.6489C72.4325 45.1038 73.0015 44.6653 73.6444 44.3644C74.2533 44.08 75.1733 43.9378 75.8844 43.9378C76.7111 43.9378 77.4311 44.0667 78.0356 44.3244C78.544 44.5284 78.9911 44.8602 79.3337 45.2877C79.6763 45.7151 79.9027 46.2238 79.9911 46.7644C80.0622 47.2089 80.0933 48.1555 80.0933 49.6V56.3289C80.0933 57.7689 79.9911 58.84 79.8 59.5422ZM19.9067 61.8355H26.1378V37.8489H19.9067V61.8355ZM33.5 7C31.2909 7 29.5 8.79086 29.5 11C29.5 13.2091 31.2909 15 33.5 15H82C84.2091 15 86 16.7909 86 19V67C86 69.2091 87.7909 71 90 71C92.2091 71 94 69.2091 94 67V19C94 12.3726 88.6274 7 82 7H33.5Z"
        fill="currentcolor" />
</svg>