<svg width="100" height="100" viewBox="0 0 100 100" fill="none" xmlns="http://www.w3.org/2000/svg">
    <path fill-rule="evenodd" clip-rule="evenodd"
        d="M19 7C12.3726 7 7 12.3726 7 19V81C7 87.6274 12.3726 93 19 93H82C88.6274 93 94 87.6274 94 81V19C94 12.3726 88.6274 7 82 7H19ZM15 19C15 16.7909 16.7909 15 19 15H82C84.2091 15 86 16.7909 86 19V81C86 83.2091 84.2091 85 82 85H19C16.7909 85 15 83.2091 15 81V19ZM26.1378 61.8355H19.9067V37.8489H26.1378V61.8355ZM47.5689 61.8355H42.1333L42.1067 45.6444L39.9289 61.8355H36.04L33.7422 46L33.7245 61.8355H28.2711V37.8489H36.3556C36.5822 39.3022 36.8311 41.0044 37.0933 42.96L37.9867 49.0533L39.4267 37.8489H47.5689V61.8355ZM63.8533 54.72C63.8533 56.8711 63.7333 58.3111 63.5333 59.0311C63.3698 59.6962 62.9994 60.2922 62.4756 60.7333C61.9266 61.1629 61.284 61.4568 60.6 61.5911C59.8622 61.7555 58.7422 61.8355 57.2489 61.8355H49.6978V37.8489H54.3511C57.3644 37.8489 59.1067 37.9867 60.1689 38.2622C61.2356 38.5378 62.0445 38.9911 62.5911 39.6222C63.1467 40.2533 63.4933 40.9555 63.6311 41.7333C63.7689 42.5067 63.8578 44.0267 63.8578 46.2933V54.72H63.8533ZM80.0933 56.3289C80.0933 57.7689 79.9911 58.84 79.8 59.5422C79.5712 60.296 79.0852 60.9455 78.4267 61.3778C77.685 61.9033 76.7931 62.1746 75.8844 62.1511C75.1822 62.1511 74.2622 61.9955 73.6533 61.6889C73.0013 61.3529 72.4297 60.8799 71.9778 60.3022L71.5867 61.8311H65.9778V37.8489H71.9778V45.6489C72.4325 45.1038 73.0015 44.6653 73.6445 44.3644C74.2533 44.08 75.1733 43.9378 75.8844 43.9378C76.7111 43.9378 77.4311 44.0667 78.0356 44.3244C78.544 44.5284 78.9911 44.8602 79.3337 45.2877C79.6763 45.7151 79.9027 46.2238 79.9911 46.7644C80.0622 47.2089 80.0933 48.1555 80.0933 49.6V56.3289ZM57.3156 42.1644C57.0622 42.0222 56.6045 41.9511 55.9244 41.9511V57.6933C56.8178 57.6933 57.3645 57.5111 57.5733 57.1511C57.7822 56.7911 57.8844 55.8133 57.8844 54.2178V44.92C57.8844 43.8356 57.8489 43.1422 57.7822 42.8356C57.7566 42.6969 57.7018 42.5654 57.6213 42.4496C57.5408 42.3339 57.4366 42.2367 57.3156 42.1644ZM72.8667 47.4178C72.5022 47.4178 72.2578 47.5556 72.1467 47.8222C72.0356 48.0933 71.9822 48.7733 71.9822 49.8667V56.2044C71.9822 57.2578 72.0444 57.9333 72.1644 58.2311C72.2933 58.5244 72.5467 58.6756 72.9111 58.6756C73.2933 58.6756 73.7956 58.52 73.9111 58.2178C74.0311 57.9111 74.0844 57.1778 74.0844 56.0178V49.8667C74.0844 48.8533 74.0222 48.1911 73.8933 47.88C73.7511 47.5733 73.24 47.4178 72.8667 47.4178Z"
        fill="currentcolor" />
</svg>