<svg width="100" height="100" viewBox="0 0 100 100" fill="none" xmlns="http://www.w3.org/2000/svg">
    <path fill-rule="evenodd" clip-rule="evenodd"
        d="M11.1091 5.45227C9.54703 3.89018 7.01437 3.89018 5.45227 5.45227C3.89018 7.01437 3.89018 9.54703 5.45227 11.1091L15.4028 21.0596C12.5872 24.4418 10.271 28.2197 8.45416 32.3934C6.15139 37.8944 5 43.7473 5 49.952C5 56.2206 6.15139 62.0735 8.45416 67.5107C10.8209 73.0117 14.0352 77.7932 18.097 81.855C22.1588 85.9168 26.9403 89.1311 32.4414 91.4979C37.8785 93.8646 43.7314 95.048 50 95.048C56.2686 95.048 62.1215 93.8646 67.5586 91.4979C71.7672 89.6872 75.5546 87.3804 78.9208 84.5777L88.8909 94.5477C90.453 96.1098 92.9856 96.1098 94.5477 94.5477C96.1098 92.9856 96.1098 90.453 94.5477 88.8909L11.1091 5.45227ZM73.0871 78.744L54.1258 59.7827V66.3593C54.1258 67.5747 53.742 68.5661 52.9744 69.3337C52.2068 70.1013 51.2154 70.4851 50 70.4851C48.7846 70.4851 47.7932 70.1013 47.0256 69.3337C46.258 68.5661 45.8742 67.5747 45.8742 66.3593V51.5311L21.208 26.8649C19.1261 29.4709 17.4015 32.3691 16.0341 35.5597C14.1151 40.0373 13.1557 44.8348 13.1557 49.952C13.1557 55.0693 14.1151 59.8667 16.0341 64.3443C17.9531 68.822 20.5757 72.7238 23.9019 76.0501C27.2282 79.3764 31.13 81.9989 35.6077 83.9179C40.0853 85.8369 44.8828 86.7964 50 86.7964C55.1172 86.7964 59.9147 85.8369 64.3923 83.9179C67.5829 82.5505 70.4812 80.8259 73.0871 78.744ZM50 4.95203C43.9387 4.95203 38.266 6.05843 32.9821 8.27123L32.9859 8.27914C31.6212 8.93275 30.6787 10.3268 30.6787 11.9409C30.6787 14.182 32.4954 15.9987 34.7365 15.9987C35.351 15.9987 35.9336 15.8622 36.4555 15.6177L36.4627 15.6329C40.6946 13.9494 45.207 13.1077 50 13.1077C55.1172 13.1077 59.9147 14.0672 64.3923 15.9861C68.87 17.9051 72.7718 20.5277 76.0981 23.8539C79.4243 27.1802 82.0469 31.0821 83.9659 35.5597C85.8849 40.0373 86.8444 44.8348 86.8444 49.952C86.8444 54.9466 85.9303 59.6365 84.1022 64.0218L84.1639 64.048C84.0285 64.4528 83.9551 64.8861 83.9551 65.3365C83.9551 67.5776 85.7718 69.3943 88.0129 69.3943C89.5775 69.3943 90.9353 68.5088 91.6124 67.2116L91.6624 67.2328C93.8875 61.8742 95 56.114 95 49.952C95 43.7473 93.8486 37.8944 91.5458 32.3934C89.1791 26.9563 85.9648 22.1909 81.903 18.097C77.8412 14.0032 73.0597 10.8049 67.5586 8.50213C62.1215 6.1354 56.2686 4.95203 50 4.95203ZM47.1215 30.7623C46.7377 31.1461 46.4339 31.5618 46.21 32.0096C45.9862 32.4574 45.8742 33.001 45.8742 33.6407C45.8742 34.2164 45.9862 34.7281 46.21 35.1759C46.4339 35.6237 46.7377 36.0714 47.1215 36.5192C47.5693 36.903 48.0011 37.1908 48.4168 37.3827C48.8326 37.5746 49.3603 37.6706 50 37.6706C50.6397 37.6706 51.1674 37.5746 51.5832 37.3827C51.9989 37.1908 52.4307 36.903 52.8785 36.5192C53.2623 36.0714 53.5661 35.6237 53.79 35.1759C54.0138 34.7281 54.1258 34.2164 54.1258 33.6407C54.1258 33.001 54.0138 32.4574 53.79 32.0096C53.5661 31.5618 53.2623 31.1461 52.8785 30.7623C52.0469 29.9307 51.0874 29.5149 50 29.5149C48.9126 29.5149 47.9531 29.9307 47.1215 30.7623Z"
        fill="currentcolor" />
</svg>