<svg width="100" height="100" viewBox="0 0 100 100" fill="none" xmlns="http://www.w3.org/2000/svg">
    <path fill-rule="evenodd" clip-rule="evenodd"
        d="M88 15H58.0871C58.0277 14.9987 57.9682 14.9987 57.9086 15H42.0914C42.0318 14.9987 41.9723 14.9987 41.9129 15H12C5.37258 15 0 20.3726 0 27V54V73C0 79.6274 5.37258 85 12 85H23.9069C23.9678 85.0014 24.0289 85.0014 24.0901 85H75.9099C75.9711 85.0014 76.0322 85.0014 76.0931 85H88C94.6274 85 100 79.6274 100 73V54V27C100 20.3726 94.6274 15 88 15ZM84.9302 55.5646C78.8797 52.9011 73.5679 48.3672 69.2147 43.56C63.1186 36.8282 58.3591 28.9705 55.4504 23H44.5496C41.6409 28.9705 36.8814 36.8282 30.7853 43.56C26.4321 48.3672 21.1203 52.9011 15.0698 55.5646C16.8921 57.4753 18.5174 59.7201 19.9399 62.0226C22.9627 66.9151 25.3514 72.5316 26.9037 77H73.0963C74.6486 72.5316 77.0373 66.9151 80.0601 62.0226C81.4826 59.7201 83.1079 57.4753 84.9302 55.5646ZM81.6195 77C82.9716 73.5197 84.7638 69.6297 86.8659 66.2275C88.4888 63.6007 90.1909 61.4384 91.8782 59.9746C91.919 59.9392 91.9596 59.9044 92 59.8701V73C92 75.2092 90.2091 77 88 77H81.6195ZM75.1446 38.1901C80.3389 43.926 86.096 48.168 92 49.5321V27C92 24.7909 90.2091 23 88 23H64.4621C67.1015 27.794 70.7605 33.3488 75.1446 38.1901ZM8 59.8701V73C8 75.2092 9.79086 77 12 77H18.3805C17.0284 73.5197 15.2362 69.6297 13.1341 66.2275C11.5112 63.6007 9.8091 61.4384 8.12183 59.9746C8.08103 59.9392 8.04042 59.9044 8 59.8701ZM24.8554 38.1901C29.2395 33.3488 32.8985 27.794 35.5379 23H12C9.79086 23 8 24.7909 8 27V49.5321C13.904 48.168 19.6611 43.926 24.8554 38.1901Z"
        fill="currentcolor" />
</svg>