<svg width="100" height="100" viewBox="0 0 100 100" fill="none" xmlns="http://www.w3.org/2000/svg">
    <circle cx="50" cy="50" r="41" stroke="white" stroke-width="8" />
    <circle cx="50" cy="50" r="32" fill="url(#paint0_linear_1998_12)" />
    <g filter="url(#filter0_d_1998_12)">
        <path fill-rule="evenodd" clip-rule="evenodd"
            d="M46 31C44.8954 31 44 31.8954 44 33V44L33 44C31.8954 44 31 44.8954 31 46V54C31 55.1046 31.8954 56 33 56H44V67C44 68.1046 44.8954 69 46 69H54C55.1046 69 56 68.1046 56 67V56H67C68.1046 56 69 55.1046 69 54V46C69 44.8954 68.1046 44 67 44L56 44V33C56 31.8954 55.1046 31 54 31H46Z"
            fill="white" />
    </g>
    <defs>
        <filter id="filter0_d_1998_12" x="29" y="31" width="42" height="42" filterUnits="userSpaceOnUse"
            color-interpolation-filters="sRGB">
            <feFlood flood-opacity="0" result="BackgroundImageFix" />
            <feColorMatrix in="SourceAlpha" type="matrix" values="0 0 0 0 0 0 0 0 0 0 0 0 0 0 0 0 0 0 127 0"
                result="hardAlpha" />
            <feOffset dy="2" />
            <feGaussianBlur stdDeviation="1" />
            <feComposite in2="hardAlpha" operator="out" />
            <feColorMatrix type="matrix" values="0 0 0 0 0 0 0 0 0 0 0 0 0 0 0 0 0 0 0.25 0" />
            <feBlend mode="normal" in2="BackgroundImageFix" result="effect1_dropShadow_1998_12" />
            <feBlend mode="normal" in="SourceGraphic" in2="effect1_dropShadow_1998_12" result="shape" />
        </filter>
        <linearGradient id="paint0_linear_1998_12" x1="50" y1="18" x2="50" y2="82" gradientUnits="userSpaceOnUse">
            <stop stop-color="#E4101B" />
            <stop offset="1" stop-color="#34070C" />
        </linearGradient>
    </defs>
</svg>