<svg width="100" height="100" viewBox="0 0 100 100" fill="none" xmlns="http://www.w3.org/2000/svg">
<path d="M50 6C25.7021 6 6 25.7021 6 50C6 74.2979 25.7021 94 50 94C74.2979 94 94 74.2979 94 50C94 25.7021 74.2979 6 50 6Z" fill="white"/>
<path d="M36.0174 77.3797H69.0694C71.7965 77.3252 73.9963 75.1254 73.9963 72.3983C73.9963 70.8893 73.5055 69.8712 72.2874 68.6168L53.5797 50L72.2874 31.3833C73.5236 30.147 73.9963 29.1107 73.9963 27.6017C73.9963 24.8747 71.7965 22.6748 69.0694 22.6203H36.0174C30.4906 22.6203 26 27.0745 26 32.5832V67.4169C26 70.1803 27.1272 72.6892 28.9634 74.4891C30.7815 76.2707 33.2722 77.3797 36.0174 77.3797Z" fill="#039CFD"/>
<path d="M72.2874 68.6168L53.5797 50L28.9816 74.489C30.7996 76.2707 33.2722 77.3797 36.0356 77.3797H69.0876C71.8147 77.3252 74.0145 75.1254 74.0145 72.3983C73.9963 70.8893 73.5236 69.8712 72.2874 68.6168Z" fill="#191D24"/>
</svg>
