<svg width="100" height="100" viewBox="0 0 100 100" fill="none" xmlns="http://www.w3.org/2000/svg">
    <g clip-path="url(#clip0_1998_12)">
        <path fill-rule="evenodd" clip-rule="evenodd"
            d="M29.3754 11.3448C31.3942 10.4476 33.758 11.3567 34.6552 13.3755L37.5995 20H46.9211C46.9705 19.9991 47.02 19.9991 47.0697 20H57C59.2091 20 61 21.7909 61 24C61 26.2092 59.2091 28 57 28H50.2578C48.465 35.7394 45.171 43.7715 39.273 50.9206C38.5693 51.7736 37.8307 52.6113 37.0558 53.4322C39.8325 55.4331 43 57.2519 46.6121 58.8373C48.635 59.7252 49.5551 62.0848 48.6672 64.1076C47.7794 66.1305 45.4198 67.0506 43.3969 66.1628C38.6364 64.0733 34.5326 61.6198 30.9981 58.9001C25.0221 63.4994 17.4888 67.2855 8.05247 69.8591C5.92117 70.4403 3.72221 69.1838 3.14094 67.0525C2.55968 64.9212 3.81623 62.7222 5.94753 62.141C13.8065 59.9976 20.0196 56.9816 24.9437 53.435C17.6851 45.7435 13.7661 36.7253 11.7426 28H4C1.79086 28 0 26.2092 0 24C0 21.7909 1.79086 20 4 20H14.9303C14.98 19.9991 15.0295 19.9991 15.0789 20H28.845L27.3448 16.6246C26.4475 14.6058 27.3567 12.242 29.3754 11.3448ZM19.9828 28C21.8593 35.0791 25.1904 42.1353 31.0016 48.1892C31.7436 47.4159 32.4428 46.6285 33.102 45.8295C37.6025 40.3744 40.365 34.2197 42.016 28H35.0913C35.0318 28.0014 34.9724 28.0014 34.9131 28H19.9828ZM74 45.932L64.7301 67H83.2699L74 45.932ZM70.3339 34.4L48.3387 84.389C47.449 86.4111 48.367 88.7716 50.389 89.6613C52.4111 90.551 54.7716 89.633 55.6613 87.611L61.2101 75H86.7899L92.3387 87.611C93.2284 89.633 95.5889 90.551 97.611 89.6613C99.633 88.7716 100.551 86.4111 99.6613 84.389L77.6661 34.4C77.631 34.3196 77.5933 34.2403 77.553 34.1623C77.1839 33.4475 76.5979 32.8393 75.8377 32.447C75.7456 32.3994 75.6517 32.3554 75.5563 32.3152C75.0482 32.1004 74.52 31.9987 74 31.999C73.48 31.9987 72.9518 32.1004 72.4437 32.3152C72.3483 32.3554 72.2544 32.3994 72.1623 32.447C71.4475 32.8161 70.8393 33.4021 70.447 34.1623C70.4067 34.2403 70.369 34.3196 70.3339 34.4Z"
            fill="currentcolor" />
    </g>
</svg>