<svg width="100" height="100" viewBox="0 0 100 100" fill="none" xmlns="http://www.w3.org/2000/svg">
    <path fill-rule="evenodd" clip-rule="evenodd"
        d="M62.0128 13.9659V13.9619H68.3737L75.1331 7.21832C75.9454 6.40611 76.8825 6 77.9446 6C79.0067 6 79.9439 6.40611 80.7561 7.21832L96.7817 23.1502C97.5314 23.9624 97.9063 24.8996 97.9063 25.9617C97.9063 27.0238 97.5314 27.9609 96.7817 28.7732L56.7646 68.7902C56.3273 69.1651 55.9055 69.4619 55.4995 69.6805C55.0934 69.8992 54.578 70.0085 53.9531 70.0085H37.9276C36.7405 70.0085 35.7878 69.6337 35.0692 68.8839C34.3507 68.1342 33.9915 67.1658 33.9915 65.9787V49.9531C33.9915 49.3908 34.0852 48.891 34.2726 48.4537C34.4601 48.0163 34.7412 47.579 35.1161 47.1416L36.2433 46.017H18.0596V82.0043C18.0596 83.1914 18.4189 84.1441 19.1374 84.8626C19.8487 85.574 20.7897 85.9332 21.9603 85.9403C21.9721 85.9403 21.9839 85.9404 21.9957 85.9404L77.9446 85.9404C79.1317 85.9404 80.1001 85.5811 80.8498 84.8626C81.5893 84.1539 81.9641 83.2174 81.9742 82.0528C81.9744 82.0367 81.9744 82.0205 81.9744 82.0043V60.9871L81.9744 60.8243C81.9744 59.5748 82.3337 58.5907 83.0522 57.8722C83.7707 57.1537 84.7234 56.7945 85.9105 56.7945C87.1601 56.7945 88.1441 57.1537 88.8626 57.8722C89.5812 58.5907 89.9404 59.5748 89.9404 60.8243V62.7039L90.0341 62.7241V82.0043C90.0341 85.3781 88.8783 88.2208 86.5666 90.5325C84.2548 92.8442 81.4121 94 78.0383 94L77.9446 94L21.9957 94C21.9693 94 21.9429 93.9999 21.9166 93.9998C18.5155 93.9822 15.6835 92.8264 13.4207 90.5325C11.1402 88.2208 10 85.3781 10 82.0043V25.9617C10 22.5879 11.1402 19.7451 13.4207 17.4334C15.7011 15.1217 18.5594 13.9659 21.9957 13.9659H30.0554V10.0298C30.0554 8.78027 30.4146 7.79624 31.1331 7.07774C31.8516 6.35925 32.8044 6 33.9915 6C35.241 6 36.225 6.35925 36.9436 7.07774C37.6621 7.79624 38.0213 8.78027 38.0213 10.0298V13.9659L43.1757 13.9659C43.1768 13.9659 43.1779 13.9659 43.179 13.9659H62.0128ZM43.1757 22.0256L38.0213 22.0256V25.9617C38.0213 27.2112 37.6621 28.1952 36.9436 28.9137C36.225 29.6323 35.241 29.9915 33.9915 29.9915C32.8044 29.9915 31.8516 29.6323 31.1331 28.9137C30.4146 28.1952 30.0554 27.2112 30.0554 25.9617V22.0256H21.9957C20.8086 22.0256 19.8559 22.3848 19.1374 23.1033C18.4189 23.8218 18.0596 24.7746 18.0596 25.9617V37.9574H44.3219L60.2911 22.0256L43.1757 22.0256ZM41.9574 61.9489H52.36L88.3472 25.9617L77.9446 15.5591L41.9574 51.5463V61.9489Z"
        fill="currentcolor" />
</svg>