<svg width="100" height="100" viewBox="0 0 100 100" fill="none" xmlns="http://www.w3.org/2000/svg">
    <path fill-rule="evenodd" clip-rule="evenodd"
        d="M20.3015 14.6447C21.8636 16.2068 21.8636 18.7394 20.3015 20.3015C3.8995 36.7035 3.8995 63.2965 20.3015 79.6985C21.8636 81.2606 21.8636 83.7932 20.3015 85.3553C18.7394 86.9174 16.2068 86.9174 14.6447 85.3553C-4.88155 65.8291 -4.88155 34.1709 14.6447 14.6447C16.2068 13.0826 18.7394 13.0826 20.3015 14.6447ZM79.6985 14.6447C81.2606 13.0826 83.7932 13.0826 85.3553 14.6447C104.882 34.1709 104.882 65.8291 85.3553 85.3553C83.7932 86.9174 81.2606 86.9174 79.6985 85.3553C78.1364 83.7932 78.1364 81.2606 79.6985 79.6985C96.1005 63.2965 96.1005 36.7035 79.6985 20.3015C78.1364 18.7394 78.1364 16.2068 79.6985 14.6447ZM34.4437 34.4437C36.0058 32.8816 36.0058 30.3489 34.4437 28.7868C32.8816 27.2247 30.3489 27.2247 28.7868 28.7868C17.0711 40.5025 17.0711 59.4975 28.7868 71.2132C30.3489 72.7753 32.8816 72.7753 34.4437 71.2132C36.0058 69.6511 36.0058 67.1185 34.4437 65.5564C25.8521 56.9648 25.8521 43.0352 34.4437 34.4437ZM65.5563 28.7868C67.1184 27.2247 69.6511 27.2247 71.2132 28.7868C82.9289 40.5025 82.9289 59.4975 71.2132 71.2132C69.6511 72.7753 67.1184 72.7753 65.5563 71.2132C63.9942 69.6511 63.9942 67.1185 65.5563 65.5564C74.1479 56.9648 74.1479 43.0352 65.5563 34.4437C63.9942 32.8816 63.9942 30.3489 65.5563 28.7868ZM50 60C55.5228 60 60 55.5228 60 50C60 44.4772 55.5228 40 50 40C44.4772 40 40 44.4772 40 50C40 55.5228 44.4772 60 50 60Z"
        fill="currentcolor" />
</svg>