<svg width="100" height="100" viewBox="0 0 100 100" fill="none" xmlns="http://www.w3.org/2000/svg">
    <path fill-rule="evenodd" clip-rule="evenodd"
        d="M11.1091 5.45227C9.54703 3.89018 7.01437 3.89018 5.45227 5.45227C3.89018 7.01437 3.89018 9.54703 5.45227 11.1091L11.9277 17.5846C-4.83513 37.2292 -3.92948 66.7812 14.6447 85.3553C16.2068 86.9174 18.7394 86.9174 20.3015 85.3553C21.8636 83.7932 21.8636 81.2606 20.3015 79.6985C4.85348 64.2504 3.95499 39.7625 17.606 23.2629L26.1453 31.8021C17.1496 43.5635 18.0301 60.4565 28.7868 71.2132C30.3489 72.7753 32.8816 72.7753 34.4437 71.2132C36.0057 69.6511 36.0057 67.1185 34.4437 65.5564C26.818 57.9307 25.9607 46.0998 31.8717 37.5286L40.6888 46.3456C40.2442 47.4776 40 48.7103 40 50C40 55.5228 44.4772 60 50 60C51.2897 60 52.5224 59.7558 53.6544 59.3112L88.8909 94.5477C90.453 96.1098 92.9856 96.1098 94.5477 94.5477C96.1098 92.9856 96.1098 90.453 94.5477 88.8909L34.4437 28.7868L20.3063 14.6494C20.3047 14.6478 20.3031 14.6463 20.3015 14.6447C20.2999 14.6431 20.2983 14.6415 20.2967 14.6399L11.1091 5.45227ZM85.3553 14.6447C83.7932 13.0826 81.2606 13.0826 79.6985 14.6447C78.1364 16.2068 78.1364 18.7394 79.6985 20.3015C92.4155 33.0186 95.2781 51.8699 88.2631 67.3489C87.3512 69.361 88.2431 71.7314 90.2553 72.6433C92.2674 73.5552 94.6378 72.6633 95.5497 70.6511C103.895 52.2373 100.504 29.7938 85.3553 14.6447ZM71.2132 28.7868C69.6511 27.2247 67.1184 27.2247 65.5563 28.7868C63.9942 30.3489 63.9942 32.8816 65.5563 34.4437C70.4975 39.3848 72.5991 46.0874 71.8538 52.5411C71.6003 54.7356 73.1739 56.7201 75.3685 56.9736C77.563 57.227 79.5475 55.6535 79.801 53.4589C80.8145 44.6833 77.9544 35.528 71.2132 28.7868Z"
        fill="currentcolor" />
</svg>