<svg width="100" height="100" viewBox="0 0 100 100" fill="none" xmlns="http://www.w3.org/2000/svg">
    <path fill-rule="evenodd" clip-rule="evenodd"
        d="M77.1802 23.8198C62.7308 9.37038 39.3037 9.37038 24.8543 23.8198C24.7794 23.8946 24.7023 23.9659 24.6232 24.0336L15.6569 33H31C33.2091 33 35 34.7908 35 37C35 39.2091 33.2091 41 31 41H6C3.79086 41 2 39.2091 2 37V12C2 9.79083 3.79086 7.99997 6 7.99997C8.20914 7.99997 10 9.79083 10 12V27.3431L19.1716 18.1715C19.2495 18.0936 19.3298 18.0196 19.4123 17.9495C37.0025 0.589619 65.3349 0.660769 82.837 18.1629C87.944 23.2699 91.5724 29.3087 93.7122 35.7366C94.4099 37.8326 93.2764 40.0975 91.1803 40.7952C89.0842 41.493 86.8194 40.3594 86.1217 38.2634C84.3657 32.9882 81.3885 28.0281 77.1802 23.8198ZM22.7378 76.1629C37.1872 90.6124 60.6143 90.6124 75.0637 76.1629C75.1386 76.0881 75.2157 76.0168 75.2948 75.9491L84.2611 66.9828H68.918C66.7089 66.9828 64.918 65.1919 64.918 62.9828C64.918 60.7736 66.7089 58.9828 68.918 58.9828H93.918C96.1271 58.9828 97.918 60.7736 97.918 62.9828V87.9828C97.918 90.1919 96.1271 91.9828 93.918 91.9828C91.7089 91.9828 89.918 90.1919 89.918 87.9828V72.6396L80.7464 81.8112C80.6685 81.8891 80.5882 81.9631 80.5057 82.0333C62.9155 99.3931 34.5831 99.322 17.081 81.8198C11.974 76.7128 8.3456 70.674 6.20584 64.2461C5.5081 62.1501 6.64165 59.8853 8.7377 59.1875C10.8338 58.4898 13.0986 59.6233 13.7963 61.7194C15.5523 66.9945 18.5295 71.9546 22.7378 76.1629Z"
        fill="currentcolor" />
</svg>