<svg width="100" height="100" viewBox="0 0 100 100" fill="none" xmlns="http://www.w3.org/2000/svg">
    <path fill-rule="evenodd" clip-rule="evenodd"
        d="M22 10C15.3726 10 10 15.3726 10 22V78C10 84.6274 15.3726 90 22 90H78C84.6274 90 90 84.6274 90 78V22C90 15.3726 84.6274 10 78 10H22ZM18 22C18 19.7909 19.7909 18 22 18H78C80.2091 18 82 19.7909 82 22V78C82 80.2091 80.2091 82 78 82H22C19.7909 82 18 80.2091 18 78V22ZM44.2533 31.6951C43.0283 30.8599 41.4418 30.7707 40.131 31.4635C38.8201 32.1563 38 33.5173 38 35V65C38 66.4827 38.8201 67.8437 40.131 68.5365C41.4418 69.2293 43.0283 69.1401 44.2533 68.3049L66.2533 53.3049C67.3462 52.5598 68 51.3227 68 50C68 48.6773 67.3462 47.4402 66.2533 46.6951L44.2533 31.6951ZM56.8995 50L46 57.4314V42.5686L56.8995 50Z"
        fill="currentcolor" />
</svg>