<svg width="100" height="100" viewBox="0 0 100 100" fill="none" xmlns="http://www.w3.org/2000/svg">
    <path fill-rule="evenodd" clip-rule="evenodd"
        d="M5.63782 19.5947C6.39299 18.8745 7.37602 18.5 8.63232 18.5H91.3677C92.624 18.5 93.607 18.8745 94.3622 19.5947C95.1108 20.3087 95.5 21.2603 95.5 22.5025C95.5 23.8246 95.1056 24.8086 94.3622 25.5176C93.607 26.2378 92.624 26.6122 91.3677 26.6122H8.63232C7.37602 26.6122 6.39299 26.2378 5.63782 25.5176C4.89443 24.8086 4.5 23.8246 4.5 22.5025C4.5 21.2603 4.88916 20.3087 5.63782 19.5947ZM5.63782 47.0385C6.39299 46.3183 7.37602 45.9439 8.63232 45.9439H91.3677C92.624 45.9439 93.607 46.3183 94.3622 47.0385C95.1108 47.7525 95.5 48.7042 95.5 49.9464C95.5 51.2685 95.1056 52.2525 94.3622 52.9615C93.607 53.6817 92.624 54.0561 91.3677 54.0561H8.63232C7.37602 54.0561 6.39299 53.6817 5.63782 52.9615C4.89443 52.2525 4.5 51.2685 4.5 49.9464C4.5 48.7042 4.88916 47.7525 5.63782 47.0385ZM5.63782 74.4824C6.39299 73.7622 7.37602 73.3878 8.63232 73.3878H91.3677C92.624 73.3878 93.607 73.7622 94.3622 74.4824C95.1108 75.1964 95.5 76.1481 95.5 77.3903C95.5 78.7124 95.1056 79.6964 94.3622 80.4053C93.607 81.1255 92.624 81.5 91.3677 81.5H8.63232C7.37602 81.5 6.39299 81.1255 5.63782 80.4053C4.89443 79.6964 4.5 78.7124 4.5 77.3903C4.5 76.1481 4.88916 75.1964 5.63782 74.4824Z"
        fill="currentcolor" />
</svg>