<svg width="100" height="100" viewBox="0 0 100 100" fill="none" xmlns="http://www.w3.org/2000/svg">
    <path fill-rule="evenodd" clip-rule="evenodd"
        d="M5.45227 5.45227C7.01437 3.89018 9.54703 3.89018 11.1091 5.45227L94.5477 88.8909C96.1098 90.453 96.1098 92.9856 94.5477 94.5477C92.9856 96.1098 90.453 96.1098 88.8909 94.5477L78.8661 84.5229C71.055 91.0601 60.9846 95 50 95C25.1472 95 5 74.8528 5 50C5 39.0154 8.93993 28.945 15.4771 21.1339L5.45227 11.1091C3.89018 9.54703 3.89018 7.01437 5.45227 5.45227ZM54.7792 60.4361L73.1823 78.8391C66.8373 83.9471 58.778 87 50 87C29.5655 87 13 70.4345 13 50C13 41.222 16.0529 33.1627 21.1609 26.8177L34.7747 40.4316C34.0314 40.9457 33.3156 41.5666 32.6273 42.2943C29.7571 45.3291 28.6382 49.1961 29.2707 53.8954L25.7824 50.675L19.9747 56.8156L45.5231 80.4025L51.8242 73.7403L39.4108 62.28C36.957 60.0146 35.369 58.2155 34.6469 56.8826C33.9248 55.5497 33.6717 54.2132 33.8877 52.873C34.1038 51.5329 34.6976 50.3492 35.6693 49.3218C36.4766 48.4683 37.2921 47.9554 38.1158 47.7833C38.9395 47.6112 39.8244 47.7397 40.7703 48.1689C41.7162 48.5982 43.4322 49.9602 45.918 52.2552L54.7792 60.4361ZM54.0875 32.7067C52.9022 32.4981 51.8154 32.7462 50.8269 33.4507L45.8145 28.4383C46.0647 28.1158 46.3331 27.803 46.6198 27.4999C48.3688 25.6507 50.2297 24.4375 52.2024 23.8605C54.175 23.2836 56.1981 23.3601 58.2716 24.09C59.7957 24.6386 61.7766 26.0381 64.2144 28.2887L80.549 43.3692L74.248 50.0314L59.6454 36.55C57.1114 34.2106 55.2588 32.9295 54.0875 32.7067ZM36.464 15.5531C40.6511 13.9063 45.2149 13 50 13C70.4345 13 87 29.5655 87 50C87 54.7851 86.0936 59.3489 84.4469 63.536C83.6384 65.5918 84.6495 67.9139 86.7053 68.7225C88.7612 69.531 91.0833 68.5199 91.8918 66.464C93.8994 61.3596 95 55.8035 95 50C95 25.1472 74.8528 5 50 5C44.1965 5 38.6404 6.10063 33.536 8.10819C31.4801 8.91675 30.469 11.2388 31.2775 13.2947C32.0861 15.3505 34.4082 16.3616 36.464 15.5531Z"
        fill="currentcolor" />
</svg>