<svg width="100" height="100" viewBox="0 0 100 100" fill="none" xmlns="http://www.w3.org/2000/svg">
    <path fill-rule="evenodd" clip-rule="evenodd"
        d="M50 5C25.1472 5 5 25.1472 5 50C5 74.8528 25.1472 95 50 95C74.8528 95 95 74.8528 95 50C95 25.1472 74.8528 5 50 5ZM19.9747 56.8156L25.7824 50.675L29.2707 53.8954C28.6382 49.1961 29.7571 45.3291 32.6273 42.2943C34.1522 40.6821 35.8119 39.5942 37.6067 39.0306C39.4015 38.4671 41.3393 38.4352 43.4201 38.9351C43.1033 36.5701 43.2135 34.4366 43.7508 32.5344C44.2881 30.6323 45.2444 28.9541 46.6198 27.4999C48.3688 25.6507 50.2297 24.4376 52.2024 23.8605C54.175 23.2836 56.1981 23.3601 58.2716 24.09C59.7957 24.6386 61.7766 26.0381 64.2144 28.2887L80.549 43.3692L74.248 50.0314L59.6454 36.55C57.1114 34.2106 55.2588 32.9295 54.0875 32.7067C52.5422 32.4348 51.1641 32.939 49.9532 34.2192C49.0712 35.1518 48.5302 36.2955 48.3302 37.6504C48.1303 39.0054 48.4157 40.3792 49.1865 41.7717C49.9573 43.1644 51.5455 44.9712 53.9512 47.1921L66.2203 58.5192L59.9192 65.1814L45.918 52.2552C43.4322 49.9602 41.7162 48.5982 40.7703 48.1689C39.8244 47.7397 38.9395 47.6112 38.1158 47.7833C37.2921 47.9554 36.4766 48.4683 35.6693 49.3218C34.6976 50.3492 34.1038 51.5329 33.8877 52.8731C33.6717 54.2132 33.9248 55.5497 34.6469 56.8826C35.369 58.2155 36.957 60.0146 39.4108 62.28L51.8242 73.7403L45.5231 80.4025L19.9747 56.8156Z"
        fill="currentcolor" />
</svg>