<svg width="100" height="100" viewBox="0 0 100 100" fill="none" xmlns="http://www.w3.org/2000/svg">
    <path fill-rule="evenodd" clip-rule="evenodd"
        d="M13 50C13 29.5655 29.5655 13 50 13C70.4345 13 87 29.5655 87 50C87 70.4345 70.4345 87 50 87C29.5655 87 13 70.4345 13 50ZM50 5C25.1472 5 5 25.1472 5 50C5 74.8528 25.1472 95 50 95C74.8528 95 95 74.8528 95 50C95 25.1472 74.8528 5 50 5ZM25.7824 50.675L19.9747 56.8156L45.5231 80.4025L51.8242 73.7403L39.4108 62.28C36.957 60.0146 35.369 58.2155 34.6469 56.8826C33.9248 55.5497 33.6717 54.2132 33.8877 52.8731C34.1038 51.5329 34.6976 50.3492 35.6693 49.3218C36.4766 48.4683 37.2921 47.9554 38.1158 47.7833C38.9395 47.6112 39.8244 47.7397 40.7703 48.1689C41.7162 48.5982 43.4322 49.9602 45.918 52.2552L59.9192 65.1814L66.2203 58.5192L53.9512 47.1921C51.5455 44.9712 49.9573 43.1644 49.1865 41.7717C48.4157 40.3792 48.1303 39.0054 48.3302 37.6504C48.5302 36.2955 49.0712 35.1518 49.9532 34.2192C51.1641 32.939 52.5422 32.4348 54.0875 32.7067C55.2588 32.9295 57.1114 34.2106 59.6454 36.55L74.248 50.0314L80.549 43.3692L64.2144 28.2887C61.7766 26.0381 59.7957 24.6386 58.2716 24.09C56.1981 23.3601 54.175 23.2836 52.2024 23.8605C50.2297 24.4376 48.3688 25.6507 46.6198 27.4999C45.2444 28.9541 44.2881 30.6323 43.7508 32.5344C43.2135 34.4366 43.1033 36.5701 43.4201 38.9351C41.3393 38.4352 39.4015 38.4671 37.6067 39.0306C35.8119 39.5942 34.1522 40.6821 32.6273 42.2943C29.7571 45.3291 28.6382 49.1961 29.2707 53.8954L25.7824 50.675Z"
        fill="currentcolor" />
</svg>