<svg width="100" height="100" viewBox="0 0 100 100" fill="none" xmlns="http://www.w3.org/2000/svg">
    <path fill-rule="evenodd" clip-rule="evenodd"
        d="M50 18C29.5655 18 13 34.5655 13 55C13 65.2144 17.1338 74.4557 23.8293 81.1552C25.3909 82.7177 25.3902 85.2504 23.8276 86.812C22.265 88.3736 19.7324 88.3729 18.1707 86.8103C10.0373 78.6721 5 67.4205 5 55C5 30.1472 25.1472 10 50 10C74.8528 10 95 30.1472 95 55C95 67.4205 89.9627 78.6721 81.8293 86.8103C80.2676 88.3729 77.735 88.3736 76.1724 86.812C74.6098 85.2504 74.6091 82.7177 76.1707 81.1552C82.8662 74.4557 87 65.2144 87 55C87 34.5655 70.4345 18 50 18ZM47.9278 62.729L34.8284 75.8284C33.2663 77.3905 30.7337 77.3905 29.1716 75.8284C27.6095 74.2663 27.6095 71.7337 29.1716 70.1716L42.271 57.0722C42.0942 56.4113 42 55.7166 42 55C42 50.5817 45.5817 47 50 47C54.4183 47 58 50.5817 58 55C58 59.4183 54.4183 63 50 63C49.2834 63 48.5887 62.9058 47.9278 62.729Z"
        fill="currentcolor" />
</svg>