<svg width="100" height="100" viewBox="0 0 100 100" fill="none" xmlns="http://www.w3.org/2000/svg">
    <path fill-rule="evenodd" clip-rule="evenodd"
        d="M19 24.5L19.0001 24.4984C19.0003 24.497 19.001 24.4923 19.0031 24.4837C19.0071 24.4674 19.0189 24.4271 19.0515 24.3611C19.1194 24.2241 19.2744 23.984 19.6021 23.664C20.2806 23.0014 21.4696 22.2205 23.2636 21.4795C26.8331 20.0052 32.041 19 38 19C43.959 19 49.1669 20.0052 52.7364 21.4795C54.5304 22.2205 55.7194 23.0014 56.3979 23.664C56.7256 23.984 56.8806 24.2241 56.9485 24.3611C56.9811 24.4271 56.9929 24.4674 56.9969 24.4837L56.999 24.4932L56.9999 24.4984L57 24.5L56.9999 24.5016L56.9991 24.5062C56.9987 24.5086 56.998 24.5119 56.9969 24.5163C56.9929 24.5326 56.9811 24.5729 56.9485 24.6389C56.8806 24.7759 56.7256 25.016 56.3979 25.336C55.7194 25.9986 54.5304 26.7795 52.7364 27.5205C49.1669 28.9948 43.959 30 38 30C32.041 30 26.8331 28.9948 23.2636 27.5205C21.4696 26.7795 20.2806 25.9986 19.6021 25.336C19.2744 25.016 19.1194 24.7759 19.0515 24.6389C19.0189 24.5729 19.0071 24.5326 19.0031 24.5163L19.0016 24.5099C19.0006 24.5053 19.0003 24.5026 19.0001 24.5016L19 24.5ZM38 11C31.2564 11 24.9643 12.1215 20.2095 14.0854C17.8413 15.0636 15.6621 16.3298 14.0128 17.9404C12.3505 19.5637 11 21.7821 11 24.5C11 26.8441 12.0045 28.8166 13.3473 30.3563C11.9628 30.9853 11 32.3802 11 34V45.7714C11 47.7003 11.6983 49.3633 12.6962 50.7297C11.6701 51.4538 11 52.6487 11 54V65.7714C11 68.4986 12.397 70.6929 14.0618 72.2686C15.718 73.8363 17.9001 75.0637 20.265 76.0105C25.0168 77.9129 31.3071 79 38.0515 79C40.7652 79 43.3918 78.8242 45.866 78.4945C49.6041 87.5931 58.5539 94 69 94C82.8071 94 94 82.8071 94 69C94 55.1929 82.8071 44 69 44C67.6385 44 66.3024 44.1088 65 44.3183V44.3028V44.2868V44.2706V44.2544V44.238V44.2216V44.2051V44.1885V44.1718V44.155V44.1381V44.1211V44.104V44.0869V44.0696V44.0523V44.0349V44.0173V43.9997V43.982V43.9642V43.9463V43.9284V43.9103V43.8921V43.8739V43.8555V43.8371V43.8185V43.7999V43.7812V43.7624V43.7435V43.7245V43.7054V43.6862V43.6669V43.6476V43.6281V43.6086V43.5889V43.5692V43.5494V43.5294V43.5094V43.4893V43.4691V43.4488V43.4284V43.4079V43.3874V43.3667V43.3459V43.3251V43.3041V43.2831V43.262V43.2407V43.2194V43.198V43.1765V43.1549V43.1332V43.1114V43.0895V43.0675V43.0454V43.0233V43.001V42.9787V42.9562V42.9337V42.911V42.8883V42.8654V42.8425V42.8195V42.7964V42.7732V42.7499V42.7265V42.703V42.6794V42.6557V42.6319V42.6081V42.5841V42.56V42.5359V42.5116V42.4873V42.4628V42.4383V42.4136V42.3889V42.3641V42.3391V42.3141V42.289V42.2638V42.2385V42.2131V42.1876V42.162V42.1363V42.1105V42.0846V42.0586V42.0326V42.0064V41.9801V41.9537V41.9273V41.9007V41.8741V41.8473V41.8204V41.7935V41.7664V41.7393V41.7121V41.6847V41.6573V41.6298V41.6021V41.5744V41.5466V41.5187V41.4906V41.4625V41.4343V41.406V41.3776V41.3491V41.3205V41.2918V41.263V41.2341V41.2051V41.176V41.1468V41.1175V41.0881V41.0586V41.029V40.9994V40.9696V40.9397V40.9097V40.8796V40.8495V40.8192V40.7888V40.7583V40.7278V40.6971V40.6663V40.6355V40.6045V40.5734V40.5423V40.511V40.4796V40.4482V40.4166V40.3849V40.3532V40.3213V40.2893V40.2573V40.2251V40.1929V40.1605V40.128V40.0955V40.0628V40.03V39.9972V39.9642V39.9312V39.898V39.8647V39.8314V39.7979V39.7643V39.7307V39.6969V39.663V39.6291V39.595V39.5608V39.5266V39.4922V39.4577V39.4232V39.3885V39.3537V39.3188V39.2839V39.2488V39.2136V39.1783V39.1429V39.1075V39.0719V39.0362V39.0004V38.9645V38.9285V38.8924V38.8562V38.8199V38.7835V38.747V38.7104V38.6737V38.6369V38.6V38.563V38.5259V38.4886V38.4513V38.4139V38.3764V38.3387V38.301V38.2632V38.2252V38.1872V38.1491V38.1108V38.0725V38.034V37.9955V37.9568V37.918V37.8792V37.8402V37.8011V37.762V37.7227V37.6833V37.6438V37.6042V37.5645V37.5247V37.4848V37.4448V37.4047V37.3645V37.3242V37.2838V37.2433V37.2026V37.1619V37.1211V37.0801V37.0391V36.9979V36.9567V36.9153V36.8738V36.8323V36.7906V36.7488V36.7069V36.6649V36.6228V36.5806V36.5383V36.4959V36.4534V36.4108V36.3681V36.3252V36.2823V36.2393V36.1961V36.1529V36.1095V36.0661V36.0225V35.9788V35.935V35.8911V35.8472V35.8031V35.7589V35.7145V35.6701V35.6256V35.581V35.5362V35.4914V35.4465V35.4014V35.3562V35.311V35.2656V35.2201V35.1745V35.1288V35.083V35.0371V34.9911V34.945V34.8988V34.8524V34.806V34.7594V34.7128V34.666V34.6191V34.5722V34.5251V34.4779V34.4306V34.3832V34.3356V34.288V34.2403V34.1924V34.1445V34.0964V34.0483V34C65 32.3802 64.0372 30.9853 62.6527 30.3563C63.9955 28.8166 65 26.8441 65 24.5C65 21.7821 63.6495 19.5637 61.9872 17.9404C60.3379 16.3298 58.1587 15.0636 55.7905 14.0854C51.0357 12.1215 44.7436 11 38 11ZM57 34.3811C56.6037 34.5678 56.1999 34.7455 55.7905 34.9146C51.0357 36.8785 44.7436 38 38 38C31.2564 38 24.9643 36.8785 20.2095 34.9146C19.8001 34.7455 19.3963 34.5678 19 34.3811V45.7407C19.0242 45.8162 19.1345 46.0576 19.5604 46.4616C20.2348 47.1014 21.4247 47.8619 23.2261 48.5847C26.807 50.0215 32.0286 51 38 51C43.9714 51 49.193 50.0215 52.7739 48.5847C54.5753 47.8619 55.7652 47.1014 56.4396 46.4616C56.8655 46.0576 56.9758 45.8162 57 45.7407V45.7396V45.7373V45.7349V45.7324V45.7298V45.7272V45.7245V45.7216V45.7188V45.7158V45.7127V45.7096V45.7063V45.703V45.6996V45.6962V45.6926V45.689V45.6852V45.6814V45.6775V45.6736V45.6695V45.6654V45.6611V45.6568V45.6524V45.648V45.6434V45.6388V45.634V45.6292V45.6243V45.6194V45.6143V45.6091V45.6039V45.5986V45.5932V45.5877V45.5822V45.5765V45.5708V45.565V45.559V45.5531V45.547V45.5408V45.5346V45.5283V45.5219V45.5154V45.5088V45.5021V45.4954V45.4885V45.4816V45.4746V45.4675V45.4603V45.4531V45.4457V45.4383V45.4308V45.4232V45.4155V45.4077V45.3998V45.3919V45.3839V45.3757V45.3675V45.3592V45.3509V45.3424V45.3339V45.3252V45.3165V45.3077V45.2988V45.2898V45.2808V45.2716V45.2624V45.253V45.2436V45.2341V45.2245V45.2149V45.2051V45.1953V45.1853V45.1753V45.1652V45.155V45.1447V45.1343V45.1239V45.1133V45.1027V45.092V45.0812V45.0703V45.0593V45.0482V45.0371V45.0258V45.0145V45.0031V44.9916V44.98V44.9683V44.9565V44.9447V44.9327V44.9207V44.9086V44.8963V44.884V44.8716V44.8592V44.8466V44.8339V44.8212V44.8084V44.7954V44.7824V44.7693V44.7561V44.7429V44.7295V44.716V44.7025V44.6889V44.6751V44.6613V44.6474V44.6334V44.6193V44.6052V44.5909V44.5765V44.5621V44.5476V44.533V44.5182V44.5034V44.4886V44.4736V44.4585V44.4433V44.4281V44.4128V44.3973V44.3818V44.3662V44.3505V44.3347V44.3188V44.3028V44.2868V44.2706V44.2544V44.238V44.2216V44.2051V44.1885V44.1718V44.155V44.1381V44.1211V44.104V44.0869V44.0696V44.0523V44.0349V44.0173V43.9997V43.982V43.9642V43.9463V43.9284V43.9103V43.8921V43.8739V43.8555V43.8371V43.8185V43.7999V43.7812V43.7624V43.7435V43.7245V43.7054V43.6862V43.6669V43.6476V43.6281V43.6086V43.5889V43.5692V43.5494V43.5294V43.5094V43.4893V43.4691V43.4488V43.4284V43.4079V43.3874V43.3667V43.3459V43.3251V43.3041V43.2831V43.262V43.2407V43.2194V43.198V43.1765V43.1549V43.1332V43.1114V43.0895V43.0675V43.0454V43.0233V43.001V42.9787V42.9562V42.9337V42.911V42.8883V42.8654V42.8425V42.8195V42.7964V42.7732V42.7499V42.7265V42.703V42.6794V42.6557V42.6319V42.6081V42.5841V42.56V42.5359V42.5116V42.4873V42.4628V42.4383V42.4136V42.3889V42.3641V42.3391V42.3141V42.289V42.2638V42.2385V42.2131V42.1876V42.162V42.1363V42.1105V42.0846V42.0586V42.0326V42.0064V41.9801V41.9537V41.9273V41.9007V41.8741V41.8473V41.8204V41.7935V41.7664V41.7393V41.7121V41.6847V41.6573V41.6298V41.6021V41.5744V41.5466V41.5187V41.4906V41.4625V41.4343V41.406V41.3776V41.3491V41.3205V41.2918V41.263V41.2341V41.2051V41.176V41.1468V41.1175V41.0881V41.0586V41.029V40.9994V40.9696V40.9397V40.9097V40.8796V40.8495V40.8192V40.7888V40.7583V40.7278V40.6971V40.6663V40.6355V40.6045V40.5734V40.5423V40.511V40.4796V40.4482V40.4166V40.3849V40.3532V40.3213V40.2893V40.2573V40.2251V40.1929V40.1605V40.128V40.0955V40.0628V40.03V39.9972V39.9642V39.9312V39.898V39.8647V39.8314V39.7979V39.7643V39.7307V39.6969V39.663V39.6291V39.595V39.5608V39.5266V39.4922V39.4577V39.4232V39.3885V39.3537V39.3188V39.2839V39.2488V39.2136V39.1783V39.1429V39.1075V39.0719V39.0362V39.0004V38.9645V38.9285V38.8924V38.8562V38.8199V38.7835V38.747V38.7104V38.6737V38.6369V38.6V38.563V38.5259V38.4886V38.4513V38.4139V38.3764V38.3387V38.301V38.2632V38.2252V38.1872V38.1491V38.1108V38.0725V38.034V37.9955V37.9568V37.918V37.8792V37.8402V37.8011V37.762V37.7227V37.6833V37.6438V37.6042V37.5645V37.5247V37.4848V37.4448V37.4047V37.3645V37.3242V37.2838V37.2433V37.2026V37.1619V37.1211V37.0801V37.0391V36.9979V36.9567V36.9153V36.8738V36.8323V36.7906V36.7488V36.7069V36.6649V36.6228V36.5806V36.5383V36.4959V36.4534V36.4108V36.3681V36.3252V36.2823V36.2393V36.1961V36.1529V36.1095V36.0661V36.0225V35.9788V35.935V35.8911V35.8472V35.8031V35.7589V35.7145V35.6701V35.6256V35.581V35.5362V35.4914V35.4465V35.4014V35.3562V35.311V35.2656V35.2201V35.1745V35.1288V35.083V35.0371V34.9911V34.945V34.8988V34.8524V34.806V34.7594V34.7128V34.666V34.6191V34.5722V34.5251V34.4779V34.4306V34.3832V34.3811ZM46.3431 58.4188C43.703 58.7991 40.8933 59 38 59C31.2688 59 24.9904 57.9126 20.247 56.0093C19.8249 55.8399 19.4085 55.6616 19 55.4739V65.7394C19.0248 65.8154 19.1361 66.0562 19.5612 66.4586C20.2379 67.0991 21.4317 67.8603 23.2383 68.5835C26.8295 70.0213 32.065 71 38.0515 71C40.1487 71 42.1635 70.8797 44.0542 70.6589C44.0182 70.1106 44 69.5574 44 69C44 65.218 44.8398 61.6322 46.3431 58.4188ZM52 69C52 59.6112 59.6112 52 69 52C78.3888 52 86 59.6112 86 69C86 78.3888 78.3888 86 69 86C59.6112 86 52 78.3888 52 69ZM18.9939 65.7132C18.9945 65.7131 18.9965 65.7198 18.998 65.7331C18.9941 65.7198 18.9933 65.7132 18.9939 65.7132ZM57.0059 45.715C57.0065 45.715 57.0057 45.7216 57.0018 45.7348C57.0033 45.7216 57.0053 45.715 57.0059 45.715ZM18.9941 45.715C18.9947 45.715 18.9967 45.7216 18.9982 45.7348C18.9943 45.7216 18.9935 45.715 18.9941 45.715Z"
        fill="currentcolor" />
</svg>