<svg width="100" height="100" viewBox="0 0 100 100" fill="none" xmlns="http://www.w3.org/2000/svg">
    <path fill-rule="evenodd" clip-rule="evenodd"
        d="M47.7864 3.2273C48.0511 3.11407 48.2933 2.95396 48.5133 2.75297C49.115 2.58245 49.6783 2.5 50.2051 2.5C50.7683 2.5 51.199 2.59409 51.5204 2.75444L51.6258 2.80704H51.7436C51.7801 2.80704 51.8902 2.82714 52.0852 2.99402C52.3157 3.19113 52.5284 3.38717 52.7237 3.58208L65.852 16.6823C66.6554 17.4841 67.0385 18.3833 67.0385 19.3987C67.0385 20.4085 66.6597 21.3033 65.8654 22.1017C65.4178 22.4827 64.9997 22.7572 64.6113 22.936C64.2532 23.101 63.7666 23.1972 63.1282 23.1972C62.4898 23.1972 62.0032 23.101 61.6451 22.936C61.2571 22.7574 60.8394 22.4832 60.3923 22.1028L53.9103 15.5169V46.0991H84.4244L77.9461 39.5171L77.9429 39.5139C77.1394 38.7121 76.7564 37.8129 76.7564 36.7974C76.7564 35.785 77.1372 34.8881 77.9358 34.0882C78.7346 33.3552 79.6383 32.9989 80.6667 32.9989C81.695 32.9989 82.5988 33.3553 83.3977 34.0882L96.4928 47.1554C96.6689 47.3936 96.7651 47.5742 96.8078 47.7022C96.8947 47.9621 97.0489 48.1991 97.2467 48.4153C97.4175 49.0154 97.5 49.5771 97.5 50.1023C97.5 50.664 97.4058 51.0932 97.2453 51.4135L97.1923 51.5193V51.6375C97.1923 51.7964 97.1461 51.9209 97.0522 52.0334C96.8916 52.2256 96.7139 52.4192 96.5186 52.6141L83.3904 65.7143C82.9593 66.1445 82.492 66.4425 81.9878 66.6201C81.4358 66.8145 80.9995 66.8987 80.6667 66.8987C80.2582 66.8987 79.7855 66.8111 79.243 66.6201C78.7463 66.4451 78.3235 66.1552 77.969 65.7424L77.9565 65.7279L77.9429 65.7143C77.1394 64.9125 76.7564 64.0133 76.7564 62.9979C76.7564 61.9824 77.1394 61.0832 77.9429 60.2814L84.4397 53.7985H53.9103V84.3807L60.4045 77.7825L60.406 77.781C61.2091 76.9802 62.1102 76.5981 63.1282 76.5981C64.1469 76.5981 65.0485 76.9807 65.852 77.7825C66.6554 78.5843 67.0385 79.4835 67.0385 80.4989C67.0385 81.5144 66.6554 82.4136 65.852 83.2154L52.7237 96.3156C52.5688 96.4702 52.4183 96.5566 52.2731 96.5981C51.9398 96.6932 51.6457 96.8796 51.3904 97.1343L51.3651 97.1596L51.3437 97.1881C51.2331 97.3355 51.0786 97.4282 50.8271 97.4508C50.455 97.4842 50.1823 97.5 50 97.5C49.8177 97.5 49.545 97.4842 49.1729 97.4508C48.9214 97.4282 48.7669 97.3355 48.6563 97.1881L48.5063 96.9883H48.2564C48.1915 96.9883 48.0697 96.9606 47.88 96.8253C47.6627 96.6704 47.4616 96.5005 47.2763 96.3156L34.148 83.2154C33.3446 82.4136 32.9615 81.5144 32.9615 80.4989C32.9615 79.4835 33.3446 78.5843 34.148 77.7825C34.9515 76.9807 35.8531 76.5981 36.8718 76.5981C37.8898 76.5981 38.7909 76.9802 39.594 77.781L39.5955 77.7825L46.0897 84.3807V53.7985H15.5603L22.0571 60.2814C22.8606 61.0832 23.2436 61.9824 23.2436 62.9979C23.2436 64.0133 22.8606 64.9125 22.0571 65.7143L22.0435 65.7279L22.031 65.7424C21.6603 66.174 21.2754 66.463 20.8803 66.632C20.48 66.8032 19.9697 66.8987 19.3333 66.8987C18.7734 66.8987 18.2952 66.8057 17.8889 66.632C17.4833 66.4585 17.0561 66.1598 16.6096 65.7143L3.48138 52.6141C3.31327 52.4463 3.229 52.3057 3.19219 52.1955C3.10696 51.9404 2.95439 51.6756 2.75782 51.4053C2.58503 50.8646 2.5 50.3284 2.5 49.7953C2.5 49.237 2.59316 48.7602 2.76712 48.3551L2.80769 48.2606V48.1578C2.80769 48.1018 2.82895 48.0066 2.94787 47.8642C3.11945 47.6588 3.3057 47.4226 3.50643 47.1562L16.6023 34.0883C17.4012 33.3553 18.3049 32.9989 19.3333 32.9989C20.3617 32.9989 21.2653 33.3552 22.0642 34.0881C22.8628 34.8881 23.2436 35.785 23.2436 36.7974C23.2436 37.8129 22.8606 38.7121 22.0571 39.5139L22.0539 39.5171L15.5756 46.0991H46.0897V15.5169L39.6012 22.1094C38.8027 22.8414 37.8995 23.1972 36.8718 23.1972C35.8435 23.1972 34.9398 22.841 34.141 22.1081C33.3423 21.3081 32.9615 20.4112 32.9615 19.3987C32.9615 18.3833 33.3446 17.4841 34.148 16.6823L47.2763 3.58208C47.4415 3.41721 47.6118 3.30199 47.7864 3.2273Z"
        fill="currentcolor" />
</svg>