<svg width="100" height="100" viewBox="0 0 100 100" fill="none" xmlns="http://www.w3.org/2000/svg">
    <path fill-rule="evenodd" clip-rule="evenodd"
        d="M22 10C15.3726 10 10 15.3726 10 22V32V50V68V78C10 84.6274 15.3726 90 22 90H32H68H78C84.6274 90 90 84.6274 90 78V68V50V32V22C90 15.3726 84.6274 10 78 10H68H32H22ZM64 18H36V32V46L64 46V32V18ZM72 28V18H78C80.2091 18 82 19.7909 82 22V28H72ZM72 36V46H82V36H72ZM64 54L36 54V68V82H64V68V54ZM72 64V54H82V64H72ZM72 72V82H78C80.2091 82 82 80.2091 82 78V72H72ZM18 78V72H28V82H22C19.7909 82 18 80.2091 18 78ZM18 64H28V54H18V64ZM18 46V36H28V46H18ZM18 28H28V18H22C19.7909 18 18 19.7909 18 22V28Z"
        fill="currentcolor" />
</svg>