<svg width="100" height="100" viewBox="0 0 100 100" fill="none" xmlns="http://www.w3.org/2000/svg">
<path d="M78.6142 11.3594C76.7529 10.5617 74.7586 10.0964 72.6979 10.0964C69.5071 10.0964 66.3162 11.2265 64.0561 13.2872L51.8911 24.7875C51.4257 25.2528 50.9604 25.4523 50.2956 25.5852C49.365 25.5852 48.7002 24.6546 48.0355 23.9898L45.31 21.7296L41.3214 18.2064L37.6653 15.0156C36.4023 13.5531 35.1392 12.2901 33.3444 11.3594C29.2894 9.43165 24.6361 9.5646 20.714 11.6918C16.5925 13.819 14 18.0735 14 22.7268V77.0373C14 83.8843 20.714 90 28.4252 90H34.4745C37.067 89.9335 39.1278 87.8063 39.1278 85.2138V48.4528H52.0905C56.4114 48.4528 58.1398 49.2505 60.0675 50.8459C64.1226 54.5021 64.5214 60.7508 60.8652 64.8723C60.4664 65.3376 60.0675 65.7364 59.6022 66.0688C57.6744 67.6642 54.9489 68.329 50.0297 68.1296C48.7667 68.1296 47.1713 68.1296 45.8418 69.3926C44.3793 70.855 44.3793 71.6527 44.3793 73.2482V84.9479C44.3793 86.2109 45.0441 87.6734 45.9747 88.4711C46.7724 89.4017 47.9025 89.9335 49.1656 89.9335H73.1632C76.8194 89.9335 80.3426 88.4711 82.9351 85.945C85.2618 83.6848 86.5913 80.5605 86.5913 77.3032V22.9262C86.5913 17.6746 83.4004 13.3537 78.6142 11.2265V11.3594ZM69.5071 57.8923C69.1747 49.0511 61.7959 42.1376 52.9547 42.47C52.6888 42.47 52.3564 42.47 52.0905 42.5365H37.9977C35.1392 42.5365 33.2114 44.5972 33.2114 47.5221V84.0172H28.4252C24.2372 84.0172 20.2487 80.627 20.2487 77.1702V22.7932C20.2487 20.4666 21.5782 18.3394 23.639 17.2093C26.3644 15.7468 29.5553 15.9463 31.9484 17.6746L44.7117 29.1749C46.3071 30.7703 48.3679 31.568 50.628 31.568C52.5558 31.568 54.4836 30.7703 56.212 29.1749L68.1776 18.007L68.3105 17.874C69.5071 16.8104 71.036 16.2786 72.6314 16.2786C73.8944 16.2786 75.1575 16.4116 76.2876 16.9434C78.5477 17.8741 80.7414 20.1342 80.7414 22.9927V77.3697C80.7414 79.098 80.0767 80.7599 78.8136 82.0229C77.2847 83.4189 75.2904 84.1502 73.2297 84.0837H50.3621V74.3783C56.2784 74.7106 60.267 73.4476 63.1254 71.1874C67.4463 68.0631 69.8394 63.0774 69.5071 57.8923Z" fill="#F4645A"/>
</svg>
