<svg width="100" height="100" viewBox="0 0 100 100" fill="none" xmlns="http://www.w3.org/2000/svg">
    <path fill-rule="evenodd" clip-rule="evenodd"
        d="M11.1091 5.45227C9.54703 3.89018 7.01437 3.89018 5.45227 5.45227C3.89018 7.01437 3.89018 9.54703 5.45227 11.1091L8.17367 13.8305C8.06075 14.2004 8 14.5931 8 15V73C8 81.8366 15.1634 89 24 89H77C79.3469 89 81.1111 88.5115 82.3551 88.0119L88.8909 94.5477C90.453 96.1098 92.9856 96.1098 94.5477 94.5477C96.1098 92.9856 96.1098 90.453 94.5477 88.8909L11.1091 5.45227ZM75.0752 80.732L70.268 75.9248C70.9296 78.2433 72.7567 80.0704 75.0752 80.732ZM62 67.6569L46.3431 52H29C26.7909 52 25 50.2091 25 48V32C25 31.5931 25.0607 31.2004 25.1737 30.8305L16 21.6569V73C16 77.4183 19.5817 81 24 81H63.7301C62.6255 78.9103 62 76.5282 62 74V67.6569ZM33 38.6569V44H38.3431L33 38.6569ZM38 11C35.7909 11 34 12.7909 34 15C34 17.2091 35.7909 19 38 19H62V30V43C62 45.2091 63.7909 47 66 47C68.2091 47 70 45.2091 70 43V34H84V65C84 67.2091 85.7909 69 88 69C90.2091 69 92 67.2091 92 65V30C92 27.7909 90.2091 26 88 26H70V15C70 12.7909 68.2091 11 66 11H38ZM25 66C25 63.7909 26.7909 62 29 62H49C51.2091 62 53 63.7909 53 66C53 68.2091 51.2091 70 49 70H29C26.7909 70 25 68.2091 25 66Z"
        fill="currentcolor" />
</svg>