<svg width="100" height="100" viewBox="0 0 100 100" fill="none" xmlns="http://www.w3.org/2000/svg">
    <path
        d="M59.0096 83.115C57.9872 82.476 56.9329 82.3322 55.8466 82.6837C54.7604 83.0352 53.8978 83.722 53.2588 84.7444C52.6837 85.7668 51.8371 86.3898 50.7189 86.6134C49.6006 86.837 48.5304 86.7572 47.508 86.3738C47.1246 86.1821 46.8211 85.9585 46.5974 85.7029C46.3738 85.4473 46.1342 85.1278 45.8786 84.7444C45.3035 83.722 44.4728 83.099 43.3866 82.8754C42.3004 82.6518 41.246 82.7316 40.2236 83.115C39.2013 83.754 38.5623 84.6166 38.3067 85.7029C38.0511 86.7891 38.1469 87.8434 38.5943 88.8658C39.1693 89.8882 39.7923 90.7348 40.4633 91.4058C41.1342 92.0767 41.9808 92.7316 43.0032 93.3706C44.0256 93.9457 45.0479 94.361 46.0703 94.6166C47.0927 94.8725 48.115 95 49.1374 95C51.1821 95 53.1629 94.4888 55.0799 93.4665C56.9968 92.4441 58.5623 90.9105 59.7764 88.8658C60.7988 87.8434 61.1821 86.7891 60.9265 85.7029C60.6709 84.6166 60.032 83.754 59.0096 83.115ZM90.9265 66.3419C88.6262 66.3419 86.6774 65.5432 85.0799 63.9457C83.4824 62.3482 82.6837 60.4313 82.6837 58.1949V37.6837C82.6837 33.2108 81.8211 28.9936 80.0959 25.0319C78.3706 21.0703 76.0384 17.6038 73.099 14.6326C70.1597 11.6613 66.7092 9.3131 62.7476 7.58786C58.722 5.86262 54.4729 5 50 5C45.5271 5 41.278 5.86262 37.2524 7.58786C33.2908 9.3131 29.8403 11.6613 26.901 14.6326C23.9616 17.6038 21.6294 21.0703 19.9042 25.0319C18.1789 28.9936 17.3163 33.2108 17.3163 37.6837V58.1949C17.3163 60.4313 16.5176 62.3482 14.9201 63.9457C13.3227 65.5432 11.3738 66.3419 9.07349 66.3419C7.85943 66.3419 6.88499 66.7092 6.15016 67.4441C5.41534 68.1789 5.04793 69.1853 5.04793 70.4633C5.04793 71.6773 5.41534 72.6517 6.15016 73.3866C6.88499 74.1214 7.85943 74.4888 9.07349 74.4888H90.9265C92.1406 74.4888 93.115 74.1214 93.8498 73.3866C94.5847 72.6517 94.9521 71.6773 94.9521 70.4633C94.9521 69.1853 94.5847 68.1789 93.8498 67.4441C93.115 66.7092 92.1406 66.3419 90.9265 66.3419ZM23.4505 66.3419C24.0256 65.1278 24.5048 63.8179 24.8882 62.4121C25.2716 61.0064 25.4633 59.6007 25.4633 58.1949V37.6837C25.4633 34.361 26.1023 31.1981 27.3802 28.1949C28.6581 25.1917 30.4154 22.5879 32.6518 20.3834C34.8882 18.1789 37.508 16.4377 40.5112 15.1597C43.4505 13.8179 46.6135 13.147 50 13.147C53.3866 13.147 56.5495 13.8179 59.4888 15.1597C62.492 16.4377 65.1119 18.1789 67.3482 20.3834C69.5846 22.5879 71.3419 25.1917 72.6198 28.1949C73.8977 31.1981 74.5367 34.361 74.5367 37.6837V58.1949C74.5367 59.6007 74.7284 61.0064 75.1118 62.4121C75.4952 63.8179 75.9744 65.1278 76.5495 66.3419H23.4505Z"
        fill="currentcolor" />
</svg>