<svg width="100" height="100" viewBox="0 0 100 100" fill="none" xmlns="http://www.w3.org/2000/svg">
    <g clip-path="url(#clip0_1998_12)">
        <path fill-rule="evenodd" clip-rule="evenodd"
            d="M82.8284 7.17157C81.2663 5.60948 78.7337 5.60948 77.1716 7.17157C75.6095 8.73367 75.6095 11.2663 77.1716 12.8284L86.3431 22L24 22C21.7909 22 20 23.7909 20 26C20 28.2091 21.7909 30 24 30L86.3431 30L77.1716 39.1716C75.6095 40.7337 75.6095 43.2663 77.1716 44.8284C78.7337 46.3905 81.2663 46.3905 82.8284 44.8284L98.8284 28.8284C99.2133 28.4435 99.5034 27.9997 99.6986 27.5259C99.8891 27.0647 99.9959 26.56 99.9999 26.0309C100 26.0103 100 25.9897 99.9999 25.9691C99.9922 24.9675 99.6106 23.9682 98.8552 23.1986L98.8251 23.1683L82.8284 7.17157ZM62.8284 55.1716C61.2663 53.6095 58.7337 53.6095 57.1716 55.1716C55.6095 56.7337 55.6095 59.2663 57.1716 60.8284L66.3431 70L4 70C1.79086 70 0 71.7909 0 74C0 76.2091 1.79086 78 4 78L66.3432 78L57.1716 87.1716C55.6095 88.7337 55.6095 91.2663 57.1716 92.8284C58.7337 94.3905 61.2663 94.3905 62.8284 92.8284L78.8284 76.8284C79.2137 76.4431 79.504 75.9988 79.6992 75.5245C79.875 75.0975 79.9737 74.6462 79.9954 74.1919C79.9985 74.128 80 74.064 80 74C80 73.9897 80 73.9794 79.9999 73.9691C79.9959 73.438 79.8883 72.9315 79.6965 72.4689C79.5013 71.9971 79.2119 71.5551 78.8284 71.1716M62.8284 55.1716L78.8283 71.1714Z"
            fill="currentcolor" />
    </g>
</svg>