<svg width="100" height="100" viewBox="0 0 100 100" fill="none" xmlns="http://www.w3.org/2000/svg">
    <g clip-path="url(#clip0_1998_12)">
        <path fill-rule="evenodd" clip-rule="evenodd"
            d="M43 17C43 12.0294 47.0294 8 52 8C56.9706 8 61 12.0294 61 17C61 21.9706 56.9706 26 52 26C47.0294 26 43 21.9706 43 17ZM66.9848 25.0355C68.2706 22.6427 69 19.9065 69 17C69 7.61116 61.3888 0 52 0C45.6479 0 40.1094 3.48391 37.1913 8.64518C34.8882 6.98086 32.0586 6 29 6C21.268 6 15 12.268 15 20C15 26.342 19.217 31.6991 25 33.4202V53C25 55.2091 26.7909 57 29 57H41.3683L28.2232 94.6825C27.4956 96.7684 28.5966 99.0492 30.6825 99.7768C32.7684 100.504 35.0492 99.4034 35.7768 97.3175L47 65.1443L58.2232 97.3175C58.9508 99.4034 61.2316 100.504 63.3175 99.7768C65.4034 99.0492 66.5044 96.7684 65.7768 94.6825L52.6317 57H65.0557L84.2111 66.5777C85.4511 67.1977 86.9237 67.1314 88.1029 66.4026C89.2822 65.6738 90 64.3863 90 63V20C90 18.6137 89.2822 17.3262 88.1029 16.5974C86.9237 15.8686 85.4511 15.8023 84.2111 16.4223L66.9848 25.0355ZM52 34H33V49H46.9069C46.9399 48.9992 46.9729 48.9989 47.006 48.9989C47.0351 48.999 47.0641 48.9993 47.0931 49H62V34H52ZM35 20C35 23.3137 32.3137 26 29 26C25.6863 26 23 23.3137 23 20C23 16.6863 25.6863 14 29 14C32.3137 14 35 16.6863 35 20ZM70 50.5279L82 56.5279V26.4721L70 32.4721V50.5279Z"
            fill="currentcolor" />
    </g>
</svg>