<svg width="100" height="100" viewBox="0 0 100 100" fill="none" xmlns="http://www.w3.org/2000/svg">
    <path fill-rule="evenodd" clip-rule="evenodd"
        d="M76.1629 23.837C61.7135 9.38765 38.2864 9.38765 23.837 23.837C9.38765 38.2864 9.38765 61.7136 23.837 76.1629C38.2864 90.6124 61.7135 90.6124 76.1629 76.1629C77.7251 74.6009 80.2577 74.6009 81.8198 76.1629C83.3819 77.725 83.3819 80.2577 81.8198 81.8198C64.2462 99.3934 35.7538 99.3934 18.1802 81.8198C0.606602 64.2462 0.606602 35.7538 18.1802 18.1802C35.7538 0.606602 64.2462 0.606602 81.8198 18.1802C83.3819 19.7423 83.3819 22.275 81.8198 23.837C80.2577 25.3991 77.7251 25.3991 76.1629 23.837ZM50.9981 29.1246C51.0287 28.1485 50.7041 27.1589 50.0103 26.366C48.5556 24.7034 46.0285 24.535 44.366 25.9897L29.366 39.1147C27.7034 40.5694 27.535 43.0965 28.9897 44.759C30.4444 46.4216 32.9715 46.59 34.634 45.1353L43 37.8151V70.25C43 72.4591 44.7909 74.25 47 74.25C49.2091 74.25 51 72.4591 51 70.25V29.25C51 29.2081 50.9994 29.1663 50.9981 29.1246ZM65.1716 34.1715C66.7337 32.6094 69.2663 32.6094 70.8284 34.1715L80 43.3431L89.1716 34.1715C90.7337 32.6094 93.2663 32.6094 94.8284 34.1715C96.3905 35.7336 96.3905 38.2663 94.8284 39.8284L85.6569 49L94.8284 58.1715C96.3905 59.7336 96.3905 62.2663 94.8284 63.8284C93.2663 65.3905 90.7337 65.3905 89.1716 63.8284L80 54.6568L70.8284 63.8284C69.2663 65.3905 66.7337 65.3905 65.1716 63.8284C63.6095 62.2663 63.6095 59.7336 65.1716 58.1715L74.3431 49L65.1716 39.8284C63.6095 38.2663 63.6095 35.7336 65.1716 34.1715Z"
        fill="currentcolor" />
</svg>