<svg width="100" height="100" viewBox="0 0 100 100" fill="none" xmlns="http://www.w3.org/2000/svg">
    <path fill-rule="evenodd" clip-rule="evenodd"
        d="M7 19C7 12.3726 12.3726 7 19 7H81C87.6274 7 93 12.3726 93 19V63C93 69.6274 87.6274 75 81 75H66C63.7909 75 62 73.2091 62 71C62 68.7909 63.7909 67 66 67H81C83.2091 67 85 65.2091 85 63V19C85 16.7909 83.2091 15 81 15H19C16.7909 15 15 16.7909 15 19V63C15 65.2091 16.7909 67 19 67H34C36.2091 67 38 68.7909 38 71C38 73.2091 36.2091 75 34 75H19C12.3726 75 7 69.6274 7 63V19ZM50 93C47.7909 93 46 91.2091 46 89L46 37.4069L29.2034 54.2034C27.6413 55.7655 25.1087 55.7655 23.5466 54.2034C21.9845 52.6413 21.9845 50.1087 23.5466 48.5466L47.1716 24.9216C48.7337 23.3595 51.2663 23.3595 52.8284 24.9216L76.4534 48.5466C78.0155 50.1087 78.0155 52.6413 76.4534 54.2034C74.8913 55.7655 72.3587 55.7655 70.7966 54.2034L54 37.4068L54 89C54 91.2091 52.2091 93 50 93Z"
        fill="currentcolor" />
</svg>