<svg width="100" height="100" viewBox="0 0 100 100" fill="none" xmlns="http://www.w3.org/2000/svg">
    <path fill-rule="evenodd" clip-rule="evenodd"
        d="M35 27C35 18.7157 41.7157 12 50 12C58.2843 12 65 18.7157 65 27C65 35.2843 58.2843 42 50 42C41.7157 42 35 35.2843 35 27ZM50 4C37.2975 4 27 14.2975 27 27C27 39.7025 37.2975 50 50 50C62.7025 50 73 39.7025 73 27C73 14.2975 62.7025 4 50 4ZM32 58C19.8497 58 10 67.8497 10 80V92C10 94.2091 11.7909 96 14 96C16.2091 96 18 94.2091 18 92V80C18 72.268 24.268 66 32 66H68C75.732 66 82 72.268 82 80V92C82 94.2091 83.7909 96 86 96C88.2091 96 90 94.2091 90 92V80C90 67.8497 80.1503 58 68 58H32Z"
        fill="currentcolor" />
</svg>