<svg width="100" height="100" viewBox="0 0 100 100" fill="none" xmlns="http://www.w3.org/2000/svg">
    <path fill-rule="evenodd" clip-rule="evenodd"
        d="M11 50C11 28.4609 28.4609 11 50 11C71.5391 11 89 28.4609 89 50C89 71.5391 71.5391 89 50 89C28.4609 89 11 71.5391 11 50ZM50 7C26.2518 7 7 26.2518 7 50C7 73.7482 26.2518 93 50 93C73.7482 93 93 73.7482 93 50C93 26.2518 73.7482 7 50 7ZM43.0825 32.3183C42.4671 31.9222 41.6846 31.8938 41.0421 32.2443C40.3997 32.5948 40 33.2682 40 34V66C40 66.7432 40.4122 67.4252 41.0702 67.7707C41.7282 68.1163 42.5236 68.0684 43.1355 67.6464L67.1355 51.0947C67.6861 50.715 68.0104 50.0852 67.9997 49.4164C67.9891 48.7477 67.6449 48.1285 67.0825 47.7665L43.0825 32.3183ZM44 62.1912V37.6659L62.394 49.5057L44 62.1912Z"
        fill="currentcolor" />
</svg>