<svg width="100" height="100" viewBox="0 0 100 100" fill="none" xmlns="http://www.w3.org/2000/svg">
    <path fill-rule="evenodd" clip-rule="evenodd"
        d="M14 22C11.7909 22 10 23.7909 10 26C10 28.2091 11.7909 30 14 30H86C88.2091 30 90 28.2091 90 26C90 23.7909 88.2091 22 86 22H14ZM44 46C41.7909 46 40 47.7909 40 50C40 52.2091 41.7909 54 44 54H86C88.2091 54 90 52.2091 90 50C90 47.7909 88.2091 46 86 46H44ZM40 74C40 71.7909 41.7909 70 44 70H86C88.2091 70 90 71.7909 90 74C90 76.2091 88.2091 78 86 78H44C41.7909 78 40 76.2091 40 74ZM16.2861 46.7176C15.0636 45.8662 13.4692 45.7647 12.1486 46.4543C10.828 47.1438 10 48.5102 10 50V74C10 75.4988 10.8379 76.8719 12.1709 77.5573C13.5038 78.2427 15.1081 78.1254 16.3271 77.2534L33.3271 65.0934C34.3843 64.3372 35.0081 63.1146 34.9999 61.8149C34.9918 60.5152 34.3526 59.3005 33.2861 58.5576L16.2861 46.7176ZM18 66.2209V57.6604L24.0636 61.8836L18 66.2209Z"
        fill="currentcolor" />
</svg>