<svg width="100" height="100" viewBox="0 0 100 100" fill="none" xmlns="http://www.w3.org/2000/svg">
    <path fill-rule="evenodd" clip-rule="evenodd"
        d="M13 50C13 29.5655 29.5655 13 50 13C70.4345 13 87 29.5655 87 50C87 70.4345 70.4345 87 50 87C29.5655 87 13 70.4345 13 50ZM50 5C25.1472 5 5 25.1472 5 50C5 74.8528 25.1472 95 50 95C74.8528 95 95 74.8528 95 50C95 25.1472 74.8528 5 50 5ZM44.165 30.6365C42.9343 29.8444 41.3691 29.7876 40.0843 30.4886C38.7994 31.1896 38 32.5364 38 34V66C38 67.4865 38.8243 68.8504 40.1404 69.5415C41.4565 70.2325 43.0472 70.1368 44.2709 69.2928L68.2709 52.7411C69.3721 51.9817 70.0208 50.7221 69.9995 49.3846C69.9782 48.0471 69.2898 46.8088 68.165 46.0848L44.165 30.6365ZM46 58.3824V41.3317L58.788 49.5631L46 58.3824Z"
        fill="currentcolor" />
</svg>