<svg width="100" height="100" viewBox="0 0 100 100" fill="none" xmlns="http://www.w3.org/2000/svg">
    <path fill-rule="evenodd" clip-rule="evenodd"
        d="M52 16C42.6888 16 34.6186 19.7642 27.8586 26.0544C22.2218 31.2996 18.5317 34.7202 16.0664 37H30.5C32.7091 37 34.5 38.7909 34.5 41C34.5 43.2091 32.7091 45 30.5 45H6C3.79086 45 2 43.2091 2 41V16C2 13.7909 3.79086 12 6 12C8.20914 12 10 13.7909 10 16V31.7128C12.4686 29.4314 16.2954 25.8865 22.4089 20.1978C30.3814 12.7792 40.3283 8 52 8C75.196 8 94 26.804 94 50C94 55.4571 92.9572 60.6803 91.0563 65.4744C90.2421 67.528 87.9172 68.5326 85.8636 67.7184C83.81 66.9041 82.8053 64.5792 83.6196 62.5256C85.1544 58.6547 86 54.4309 86 50C86 31.2223 70.7777 16 52 16ZM14.9135 59.2413C16.9894 58.4856 19.2848 59.5558 20.0405 61.6317C24.7933 74.687 37.3142 84 52 84C59.9495 84 67.2566 81.2758 73.0474 76.7043L63.1716 66.8284C61.6095 65.2663 61.6095 62.7337 63.1716 61.1716C64.7337 59.6095 67.2663 59.6095 68.8284 61.1716L92.8284 85.1716C94.3905 86.7337 94.3905 89.2663 92.8284 90.8284C91.2663 92.3905 88.7337 92.3905 87.1716 90.8284L78.7358 82.3926C71.4748 88.3913 62.1556 92 52 92C33.8446 92 18.3895 80.4825 12.5232 64.3683C11.7675 62.2925 12.8377 59.997 14.9135 59.2413ZM52 25C54.2091 25 56 26.7909 56 29V41C56 43.2091 54.2091 45 52 45C49.7909 45 48 43.2091 48 41V29C48 26.7909 49.7909 25 52 25ZM56 59C56 56.7909 54.2091 55 52 55C49.7909 55 48 56.7909 48 59V71C48 73.2091 49.7909 75 52 75C54.2091 75 56 73.2091 56 71V59ZM77 50C77 52.2091 75.2091 54 73 54H61C58.7909 54 57 52.2091 57 50C57 47.7909 58.7909 46 61 46H73C75.2091 46 77 47.7909 77 50ZM43 54C45.2091 54 47 52.2091 47 50C47 47.7909 45.2091 46 43 46H31C28.7909 46 27 47.7909 27 50C27 52.2091 28.7909 54 31 54H43Z"
        fill="currentcolor" />
</svg>