<svg width="100" height="100" viewBox="0 0 100 100" fill="none" xmlns="http://www.w3.org/2000/svg">
    <path fill-rule="evenodd" clip-rule="evenodd"
        d="M5.17157 5.17157C6.73367 3.60948 9.26633 3.60948 10.8284 5.17157L71.6029 65.9461L90.8284 85.1716L90.8331 85.1762L94.267 88.6102C95.8291 90.1723 95.8291 92.7049 94.267 94.267C92.7049 95.8291 90.1723 95.8291 88.6102 94.267L85.1762 90.8331L85.1716 90.8284L61.1716 66.8284L61.1685 66.8254L54 59.6569V71C54 73.2091 52.2091 75 50 75C47.7909 75 46 73.2091 46 71V59C46 56.9985 47.4701 55.3403 49.3895 55.0463L44.9537 50.6105C44.6597 52.5299 43.0015 54 41 54H29C26.7909 54 25 52.2091 25 50C25 47.7909 26.7909 46 29 46H40.3431L19 24.6569V77C19 79.2091 20.7909 81 23 81H63C65.2091 81 67 82.7909 67 85C67 87.2091 65.2091 89 63 89H23C16.3726 89 11 83.6274 11 77V23C11 21.1474 11.4198 19.3929 12.1695 17.8263L5.17157 10.8284C3.60948 9.26633 3.60948 6.73367 5.17157 5.17157ZM73.8186 47.1777L73.8203 47.1634C74.5489 47.8879 75 48.8913 75 50C75 51.4464 74.2323 52.7135 73.0821 53.416L73.0822 53.4151C72.4622 53.8044 71.7286 54.0295 70.9425 54.0295C68.717 54.0295 66.9129 52.2255 66.9129 50C66.9129 47.7745 68.717 45.9705 70.9425 45.9705C72.0689 45.9705 73.0874 46.4326 73.8186 47.1777ZM37.8371 19C37.7761 19.0028 37.7149 19.0042 37.6533 19.0042C35.4455 19.0042 33.6557 17.2144 33.6557 15.0066C33.6557 12.8211 35.4096 11.0452 37.5866 11.0096V11H77C83.6274 11 89 16.3726 89 23V63C89 65.2091 87.2091 67 85 67C82.7909 67 81 65.2091 81 63V23C81 20.7909 79.2091 19 77 19H37.8371ZM54.0295 28.8647C54.0295 31.0901 52.2255 32.8942 50 32.8942C47.7745 32.8942 45.9705 31.0901 45.9705 28.8647C45.9705 26.6392 47.7745 24.8351 50 24.8351C52.2255 24.8351 54.0295 26.6392 54.0295 28.8647Z"
        fill="currentcolor" />
</svg>