<svg width="100" height="100" viewBox="0 0 100 100" fill="none" xmlns="http://www.w3.org/2000/svg">
    <g clip-path="url(#clip0_1998_12)">
        <path
            d="M49.944 99.3385C77.2238 99.3385 99.3385 77.2238 99.3385 49.944C99.3385 22.6641 77.2238 0.549438 49.944 0.549438C22.6641 0.549438 0.549451 22.6641 0.549451 49.944C0.549451 77.2238 22.6641 99.3385 49.944 99.3385Z"
            fill="#FF4500" />
        <path
            d="M82.8858 49.9439C82.7387 45.966 79.3985 42.8597 75.4085 42.9947C73.6402 43.0561 71.9586 43.7806 70.682 44.9957C65.0587 41.1649 58.453 39.0651 51.6629 38.918L54.867 23.5091L65.4385 25.7318C65.7327 28.4452 68.164 30.4101 70.8774 30.1148C73.5908 29.8206 75.5556 27.3893 75.2603 24.6759C74.9651 21.9625 72.5349 19.9977 69.8214 20.293C68.2617 20.4521 66.8622 21.361 66.0894 22.7122L53.9834 20.293C53.1612 20.1085 52.338 20.6244 52.1536 21.4598C52.1536 21.4718 52.1536 21.4718 52.1536 21.4839L48.5072 38.6238C41.6314 38.7347 34.9401 40.8466 29.2433 44.7015C26.3455 41.9761 21.7781 42.1111 19.0526 45.021C16.3272 47.9188 16.4622 52.4861 19.3721 55.2116C19.9374 55.7396 20.5872 56.194 21.3116 56.5134C21.2622 57.2379 21.2622 57.9623 21.3116 58.6868C21.3116 69.749 34.2036 78.7486 50.1031 78.7486C66.0027 78.7486 78.8947 69.761 78.8947 58.6868C78.9441 57.9623 78.9441 57.2379 78.8947 56.5134C81.3754 55.2731 82.9351 52.7188 82.8858 49.9439ZM33.4912 54.8922C33.4912 52.1667 35.714 49.9439 38.4395 49.9439C41.1649 49.9439 43.3877 52.1667 43.3877 54.8922C43.3877 57.6177 41.1649 59.8404 38.4395 59.8404C35.7019 59.8152 33.4912 57.6177 33.4912 54.8922ZM62.1851 68.6678V68.4713C58.6736 71.1111 54.3763 72.4613 49.9802 72.278C45.5841 72.4624 41.2879 71.1111 37.7754 68.4713C37.3089 67.906 37.3945 67.0597 37.9598 66.5932C38.4504 66.1882 39.1507 66.1882 39.6546 66.5932C42.6259 68.7666 46.2482 69.8719 49.9308 69.6996C53.6145 69.896 57.2489 68.8401 60.2565 66.692C60.7965 66.164 61.6801 66.1761 62.2092 66.7161C62.7372 67.2562 62.7251 68.1398 62.1851 68.6678ZM61.51 60.1961C61.4244 60.1961 61.3508 60.1961 61.2641 60.1961L61.3014 60.0116C58.576 60.0116 56.3532 57.7889 56.3532 55.0634C56.3532 52.3379 58.576 50.1152 61.3014 50.1152C64.0269 50.1152 66.2497 52.3379 66.2497 55.0634C66.3594 57.79 64.2355 60.0852 61.51 60.1961Z"
            fill="white" />
    </g>
</svg>