<svg width="100" height="100" viewBox="0 0 100 100" fill="none" xmlns="http://www.w3.org/2000/svg">
    <path fill-rule="evenodd" clip-rule="evenodd"
        d="M74.1629 23.8198C59.7136 9.37038 36.2864 9.37038 21.837 23.8198C7.38765 38.2692 7.38765 61.6963 21.837 76.1457C36.2864 90.5951 59.7136 90.5951 74.1629 76.1457C77.7922 72.5164 80.5046 68.3293 82.3085 63.8647C83.1361 61.8164 85.4675 60.8268 87.5157 61.6544C89.564 62.482 90.5535 64.8133 89.726 66.8616C87.527 72.304 84.2222 77.4001 79.8198 81.8025C62.2462 99.3761 33.7538 99.3761 16.1802 81.8025C-1.3934 64.2289 -1.3934 35.7365 16.1802 18.1629C33.6823 0.660769 62.0147 0.58962 79.6049 17.9495C79.6874 18.0196 79.7678 18.0936 79.8457 18.1715L89.0172 27.3431V12C89.0172 9.79083 90.8081 7.99997 93.0172 7.99997C95.2264 7.99997 97.0172 9.79083 97.0172 12V37C97.0172 39.2091 95.2264 41 93.0172 41H68.0172C65.8081 41 64.0172 39.2091 64.0172 37C64.0172 34.7908 65.8081 33 68.0172 33H83.3604L74.394 24.0336C74.3149 23.9659 74.2378 23.8946 74.1629 23.8198Z"
        fill="currentcolor" />
</svg>