<svg width="100" height="100" viewBox="0 0 100 100" fill="none" xmlns="http://www.w3.org/2000/svg">
    <path fill-rule="evenodd" clip-rule="evenodd"
        d="M25.8543 23.8198C40.3037 9.37038 63.7308 9.37038 78.1802 23.8198C92.6296 38.2692 92.6296 61.6963 78.1802 76.1457C63.7308 90.5951 40.3037 90.5951 25.8543 76.1457C22.225 72.5164 19.5126 68.3293 17.7087 63.8647C16.8811 61.8164 14.5498 60.8268 12.5015 61.6544C10.4533 62.482 9.4637 64.8133 10.2913 66.8616C12.4902 72.304 15.795 77.4001 20.1974 81.8025C37.771 99.3761 66.2635 99.3761 83.837 81.8025C101.411 64.2289 101.411 35.7365 83.837 18.1629C66.3349 0.660769 38.0025 0.58962 20.4123 17.9495C20.3298 18.0196 20.2495 18.0936 20.1716 18.1715L11 27.3431V12C11 9.79083 9.20914 7.99997 7 7.99997C4.79086 7.99997 3 9.79083 3 12V37C3 39.2091 4.79086 41 7 41H32C34.2091 41 36 39.2091 36 37C36 34.7908 34.2091 33 32 33H16.6569L25.6232 24.0336C25.7023 23.9659 25.7794 23.8946 25.8543 23.8198Z"
        fill="currentcolor" />
</svg>