<svg width="100" height="100" viewBox="0 0 100 100" fill="none" xmlns="http://www.w3.org/2000/svg">
    <path fill-rule="evenodd" clip-rule="evenodd"
        d="M10 22C10 15.3726 15.3726 10 22 10H78C84.6274 10 90 15.3726 90 22V78C90 84.6274 84.6274 90 78 90H22C15.3726 90 10 84.6274 10 78V68C10 65.7909 11.7909 64 14 64C16.2091 64 18 65.7909 18 68V78C18 80.2091 19.7909 82 22 82H78C80.2091 82 82 80.2091 82 78V22C82 19.7909 80.2091 18 78 18H22C19.7909 18 18 19.7909 18 22V32C18 34.2091 16.2091 36 14 36C11.7909 36 10 34.2091 10 32V22ZM74 50C74 53.866 70.866 57 67 57C63.134 57 60 53.866 60 50C60 46.134 63.134 43 67 43C70.866 43 74 46.134 74 50ZM34.8284 31.1716C33.2663 29.6095 30.7337 29.6095 29.1716 31.1716C27.6095 32.7337 27.6095 35.2663 29.1716 36.8284L38.3431 46L4 46C1.79086 46 0 47.7909 0 50C0 52.2091 1.79086 54 4 54L38.3432 54L29.1716 63.1716C27.6095 64.7337 27.6095 67.2663 29.1716 68.8284C30.7337 70.3905 33.2663 70.3905 34.8284 68.8284L50.8284 52.8284C51.2119 52.4449 51.5013 52.0029 51.6965 51.5311C51.8898 51.0649 51.9975 50.5541 52 50.0185L52 50L52 49.9815C51.9951 48.8999 51.5609 47.9196 50.8589 47.2024L50.825 47.1682L34.8284 31.1716Z"
        fill="currentcolor" />
</svg>