<svg width="100" height="100" viewBox="0 0 100 100" fill="none" xmlns="http://www.w3.org/2000/svg">
    <g clip-path="url(#clip0_1998_12)">
        <path fill-rule="evenodd" clip-rule="evenodd"
            d="M55 50C55 41.7157 61.7157 35 70 35C78.2843 35 85 41.7157 85 50C85 58.2843 78.2843 65 70 65C61.7157 65 55 58.2843 55 50ZM70 27C57.2975 27 47 37.2975 47 50C47 62.7025 57.2975 73 70 73C74.9067 73 79.4545 71.4635 83.1886 68.8455L93.1716 78.8284C94.7337 80.3905 97.2663 80.3905 98.8284 78.8284C100.391 77.2663 100.391 74.7337 98.8284 73.1716L88.8455 63.1886C91.4635 59.4545 93 54.9067 93 50C93 37.2975 82.7025 27 70 27ZM8 42C8 38.6863 10.6863 36 14 36H40C42.2091 36 44 34.2091 44 32C44 29.7909 42.2091 28 40 28H14C6.26801 28 0 34.268 0 42V58C0 65.732 6.26801 72 14 72H40C42.2091 72 44 70.2091 44 68C44 65.7909 42.2091 64 40 64H14C10.6863 64 8 61.3137 8 58V42ZM20 44C20 41.7909 18.2091 40 16 40C13.7909 40 12 41.7909 12 44V56C12 58.2091 13.7909 60 16 60C18.2091 60 20 58.2091 20 56V44Z"
            fill="currentcolor" />
    </g>
</svg>