<svg width="100" height="100" viewBox="0 0 100 100" fill="none" xmlns="http://www.w3.org/2000/svg">
    <path fill-rule="evenodd" clip-rule="evenodd"
        d="M12 45C12 26.7746 26.7746 12 45 12C63.2254 12 78 26.7746 78 45C78 63.2254 63.2254 78 45 78C26.7746 78 12 63.2254 12 45ZM45 4C22.3563 4 4 22.3563 4 45C4 67.6437 22.3563 86 45 86C54.8813 86 63.9462 82.5044 71.0255 76.6823L89.1716 94.8284C90.7337 96.3905 93.2663 96.3905 94.8284 94.8284C96.3905 93.2663 96.3905 90.7337 94.8284 89.1716L76.6823 71.0255C82.5044 63.9462 86 54.8813 86 45C86 22.3563 67.6437 4 45 4Z"
        fill="currentcolor" />
</svg>