<svg width="100" height="100" viewBox="0 0 100 100" fill="none" xmlns="http://www.w3.org/2000/svg">
    <g clip-path="url(#clip0_1998_12)">
        <path fill-rule="evenodd" clip-rule="evenodd"
            d="M45 12C38.3439 12 32.1592 13.9664 26.9806 17.3489C25.3083 18.4412 22.5805 20.7319 18.9751 23.9953C17.2989 25.5125 15.4804 27.1959 13.5514 29H28.5C30.7091 29 32.5 30.7909 32.5 33C32.5 35.2091 30.7091 37 28.5 37H4C1.79086 37 0 35.2091 0 33L0 32.5098C-1.36828e-05 32.5037 -1.36823e-05 32.4977 0 32.4916L0 8C0 5.79086 1.79086 4 4 4C6.20914 4 8 5.79086 8 8V23.2385C9.98532 21.3811 11.8684 19.6374 13.6066 18.0641C17.1605 14.8473 20.3294 12.1379 22.6058 10.6511C29.0456 6.4448 36.7434 4 45 4C67.6437 4 86 22.3563 86 45C86 54.8813 82.5044 63.9462 76.6824 71.0255L94.8284 89.1716C96.3905 90.7337 96.3905 93.2663 94.8284 94.8284C93.2663 96.3905 90.7337 96.3905 89.1716 94.8284L71.0255 76.6824C63.9462 82.5044 54.8813 86 45 86C27.6289 86 12.7905 75.1985 6.8161 59.96C6.00974 57.9033 7.02335 55.5823 9.08007 54.776C11.1368 53.9696 13.4578 54.9832 14.2641 57.04C19.0777 69.3176 31.0298 78 45 78C63.2254 78 78 63.2254 78 45C78 26.7746 63.2254 12 45 12Z"
            fill="currentcolor" />
    </g>
</svg>