<svg width="100" height="100" viewBox="0 0 100 100" fill="none" xmlns="http://www.w3.org/2000/svg">
    <path fill-rule="evenodd" clip-rule="evenodd"
        d="M54 5C54 2.79086 52.2091 1 50 1C47.7909 1 46 2.79086 46 5V40.3432L21.0086 15.3518C19.4465 13.7897 16.9139 13.7897 15.3518 15.3518C13.7897 16.9139 13.7897 19.4465 15.3518 21.0086L40.3431 46H5C2.79086 46 1 47.7909 1 50C1 52.2091 2.79086 54 5 54H40.3431L15.3518 78.9914C13.7897 80.5535 13.7897 83.0861 15.3518 84.6482C16.9139 86.2103 19.4465 86.2103 21.0086 84.6482L46 59.6568V95C46 97.2091 47.7909 99 50 99C52.2091 99 54 97.2091 54 95V59.6569L78.9914 84.6483C80.5535 86.2104 83.0861 86.2104 84.6482 84.6483C86.2103 83.0862 86.2103 80.5535 84.6482 78.9914L59.6568 54H95C97.2091 54 99 52.2091 99 50C99 47.7909 97.2091 46 95 46H59.6568L84.6482 21.0086C86.2103 19.4465 86.2103 16.9138 84.6482 15.3517C83.0861 13.7897 80.5535 13.7897 78.9914 15.3517L54 40.3431V5Z"
        fill="currentcolor" />
</svg>