<svg width="100" height="100" viewBox="0 0 100 100" fill="none" xmlns="http://www.w3.org/2000/svg">
    <path fill-rule="evenodd" clip-rule="evenodd"
        d="M40 10C33.3726 10 28 15.3726 28 22V28H22C15.3726 28 10 33.3726 10 40V78C10 84.6274 15.3726 90 22 90H60C66.6274 90 72 84.6274 72 78V72H78C84.6274 72 90 66.6274 90 60V22C90 15.3726 84.6274 10 78 10H40ZM72 64H78C80.2091 64 82 62.2091 82 60V22C82 19.7909 80.2091 18 78 18H40C37.7909 18 36 19.7909 36 22V28H60C66.6274 28 72 33.3726 72 40V64ZM18 40C18 37.7909 19.7909 36 22 36H60C62.2091 36 64 37.7909 64 40V78C64 80.2091 62.2091 82 60 82H22C19.7909 82 18 80.2091 18 78V40Z"
        fill="currentcolor" />
</svg>