<svg width="100" height="100" viewBox="0 0 100 100" fill="none" xmlns="http://www.w3.org/2000/svg">
    <path fill-rule="evenodd" clip-rule="evenodd"
        d="M11 9C9.89543 9 9 9.89543 9 11V23C9 24.1046 9.89543 25 11 25H23C24.1046 25 25 24.1046 25 23V11C25 9.89543 24.1046 9 23 9H11ZM11 42C9.89543 42 9 42.8954 9 44V56C9 57.1046 9.89543 58 11 58H23C24.1046 58 25 57.1046 25 56V44C25 42.8954 24.1046 42 23 42H11ZM9 77C9 75.8954 9.89543 75 11 75H23C24.1046 75 25 75.8954 25 77V89C25 90.1046 24.1046 91 23 91H11C9.89543 91 9 90.1046 9 89V77ZM55 9C53.8954 9 53 9.89543 53 11V23C53 24.1046 53.8954 25 55 25H67C68.1046 25 69 24.1046 69 23V11C69 9.89543 68.1046 9 67 9H55ZM53 44C53 42.8954 53.8954 42 55 42H67C68.1046 42 69 42.8954 69 44V56C69 57.1046 68.1046 58 67 58H55C53.8954 58 53 57.1046 53 56V44ZM55 75C53.8954 75 53 75.8954 53 77V89C53 90.1046 53.8954 91 55 91H67C68.1046 91 69 90.1046 69 89V77C69 75.8954 68.1046 75 67 75H55ZM75 11C75 9.89543 75.8954 9 77 9H89C90.1046 9 91 9.89543 91 11V23C91 24.1046 90.1046 25 89 25H77C75.8954 25 75 24.1046 75 23V11ZM77 42C75.8954 42 75 42.8954 75 44V56C75 57.1046 75.8954 58 77 58H89C90.1046 58 91 57.1046 91 56V44C91 42.8954 90.1046 42 89 42H77ZM75 77C75 75.8954 75.8954 75 77 75H89C90.1046 75 91 75.8954 91 77V89C91 90.1046 90.1046 91 89 91H77C75.8954 91 75 90.1046 75 89V77ZM33 9C31.8954 9 31 9.89543 31 11V23C31 24.1046 31.8954 25 33 25H45C46.1046 25 47 24.1046 47 23V11C47 9.89543 46.1046 9 45 9H33ZM31 44C31 42.8954 31.8954 42 33 42H45C46.1046 42 47 42.8954 47 44V56C47 57.1046 46.1046 58 45 58H33C31.8954 58 31 57.1046 31 56V44ZM33 75C31.8954 75 31 75.8954 31 77V89C31 90.1046 31.8954 91 33 91H45C46.1046 91 47 90.1046 47 89V77C47 75.8954 46.1046 75 45 75H33Z"
        fill="currentcolor" />
</svg>