<svg width="100" height="100" viewBox="0 0 100 100" fill="none" xmlns="http://www.w3.org/2000/svg">
    <path fill-rule="evenodd" clip-rule="evenodd"
        d="M5.45227 5.45227C7.01437 3.89018 9.54703 3.89018 11.1091 5.45227L94.5477 88.8909C96.1098 90.453 96.1098 92.9856 94.5477 94.5477C92.9856 96.1098 90.453 96.1098 88.8909 94.5477L72 77.6569V78C72 84.6274 66.6274 90 60 90H22C15.3726 90 10 84.6274 10 78V40C10 33.3726 15.3726 28 22 28H22.3431L5.45227 11.1091C3.89018 9.54703 3.89018 7.01437 5.45227 5.45227ZM30.3431 36L64 69.6569V78C64 80.2091 62.2091 82 60 82H22C19.7909 82 18 80.2091 18 78V40C18 37.7909 19.7909 36 22 36H30.3431ZM37 10C34.7909 10 33 11.7909 33 14C33 16.2091 34.7909 18 37 18H78C80.2091 18 82 19.7909 82 22V63C82 65.2091 83.7909 67 86 67C88.2091 67 90 65.2091 90 63V22C90 15.3726 84.6274 10 78 10H37ZM54.5 28C52.2909 28 50.5 29.7909 50.5 32C50.5 34.2091 52.2909 36 54.5 36H60C62.2091 36 64 37.7909 64 40V45.5C64 47.7091 65.7909 49.5 68 49.5C70.2091 49.5 72 47.7091 72 45.5V40C72 33.3726 66.6274 28 60 28H54.5Z"
        fill="currentcolor" />
</svg>