<svg width="100" height="100" viewBox="0 0 100 100" fill="none" xmlns="http://www.w3.org/2000/svg">
    <path fill-rule="evenodd" clip-rule="evenodd"
        d="M11 20C9.89543 20 9 20.8954 9 22V34C9 35.1046 9.89543 36 11 36H23C24.1046 36 25 35.1046 25 34V22C25 20.8954 24.1046 20 23 20H11ZM55 20C53.8954 20 53 20.8954 53 22V34C53 35.1046 53.8954 36 55 36H67C68.1046 36 69 35.1046 69 34V22C69 20.8954 68.1046 20 67 20H55ZM53 44C53 42.8954 53.8954 42 55 42H67C68.1046 42 69 42.8954 69 44V56C69 57.1046 68.1046 58 67 58H55C53.8954 58 53 57.1046 53 56V44ZM55 64C53.8954 64 53 64.8954 53 66V78C53 79.1046 53.8954 80 55 80H67C68.1046 80 69 79.1046 69 78V66C69 64.8954 68.1046 64 67 64H55ZM75 22C75 20.8954 75.8954 20 77 20H89C90.1046 20 91 20.8954 91 22V34C91 35.1046 90.1046 36 89 36H77C75.8954 36 75 35.1046 75 34V22ZM77 42C75.8954 42 75 42.8954 75 44V56C75 57.1046 75.8954 58 77 58H89C90.1046 58 91 57.1046 91 56V44C91 42.8954 90.1046 42 89 42H77ZM75 66C75 64.8954 75.8954 64 77 64H89C90.1046 64 91 64.8954 91 66V78C91 79.1046 90.1046 80 89 80H77C75.8954 80 75 79.1046 75 78V66ZM33 20C31.8954 20 31 20.8954 31 22V34C31 35.1046 31.8954 36 33 36H45C46.1046 36 47 35.1046 47 34V22C47 20.8954 46.1046 20 45 20H33ZM31 44C31 42.8954 31.8954 42 33 42H45C46.1046 42 47 42.8954 47 44V56C47 57.1046 46.1046 58 45 58H33C31.8954 58 31 57.1046 31 56V44ZM33 64C31.8954 64 31 64.8954 31 66V78C31 79.1046 31.8954 80 33 80H45C46.1046 80 47 79.1046 47 78V66C47 64.8954 46.1046 64 45 64H33Z"
        fill="currentcolor" />
</svg>