<svg width="100" height="100" viewBox="0 0 100 100" fill="none" xmlns="http://www.w3.org/2000/svg">
    <path fill-rule="evenodd" clip-rule="evenodd"
        d="M10 22C10 15.3726 15.3726 10 22 10H78C84.6274 10 90 15.3726 90 22V78C90 84.6274 84.6274 90 78 90H22C15.3726 90 10 84.6274 10 78V22ZM22 18C19.7909 18 18 19.7909 18 22V78C18 80.2091 19.7909 82 22 82H78C80.2091 82 82 80.2091 82 78V22C82 19.7909 80.2091 18 78 18H22ZM34.9144 34.9144C36.6185 33.2103 39.3815 33.2103 41.0856 34.9144L50 43.8289L58.9144 34.9144C60.6185 33.2103 63.3815 33.2103 65.0856 34.9144C66.7897 36.6185 66.7897 39.3815 65.0856 41.0856L56.1711 50L65.0856 58.9144C66.7897 60.6185 66.7897 63.3815 65.0856 65.0856C63.3815 66.7897 60.6185 66.7897 58.9144 65.0856L50 56.1711L41.0856 65.0856C39.3815 66.7897 36.6185 66.7897 34.9144 65.0856C33.2103 63.3815 33.2103 60.6185 34.9144 58.9144L43.8289 50L34.9144 41.0856C33.2103 39.3815 33.2103 36.6185 34.9144 34.9144Z"
        fill="currentcolor" />
</svg>