<svg width="100" height="100" viewBox="0 0 100 100" fill="none" xmlns="http://www.w3.org/2000/svg">
<path fill-rule="evenodd" clip-rule="evenodd" d="M16.7908 25.3806C39.0548 22.5976 61.1978 22.5976 83.1593 25.3806C92.1738 25.3806 99.5547 33.3666 99.5547 43.2281V57.8691C99.5547 67.7306 92.2343 75.7166 83.1593 75.7166C61.6213 78.1366 39.4783 78.1366 16.7908 75.7166C7.77625 75.7166 0.395248 67.7306 0.395248 57.8691V43.2281C0.455748 33.3666 7.77625 25.3806 16.7908 25.3806Z" fill="url(#paint0_linear_1998_12)" stroke="#D1D1D0" stroke-width="0.396275" stroke-miterlimit="3.864"/>
<path fill-rule="evenodd" clip-rule="evenodd" d="M20.1787 29.903C40.5067 27.5435 60.7742 27.5435 80.9207 29.903C89.2092 29.903 95.8642 36.6185 95.8642 44.8465V57.1281C95.8642 65.4166 89.1487 72.0715 80.9207 72.0715C61.1977 74.1285 40.9907 74.1285 20.1787 72.0715C11.8902 72.0715 5.23525 65.3561 5.23525 57.1281V44.907C5.23525 36.6185 11.9507 29.903 20.1787 29.903Z" fill="url(#paint1_linear_1998_12)"/>
<path d="M50.7312 56.2659C50.7312 59.5329 49.8842 61.8319 48.1902 63.2234C46.6777 64.4334 44.3182 64.9779 40.9907 64.9779H26.1077C19.5737 64.9779 16.3672 62.1949 16.3672 56.5684H21.4492C21.4492 59.1699 23.2642 60.4404 26.9547 60.4404H39.7807C41.5352 60.4404 42.8662 60.1984 43.7737 59.7144C44.9232 59.0489 45.5282 57.8994 45.5282 56.2659C45.5282 54.3904 44.4997 53.1199 42.5032 52.3939C41.2932 51.9704 39.4782 51.7889 37.1187 51.7889C36.1507 51.7889 34.7592 51.8494 32.8232 51.9099C30.9477 51.9704 29.4957 52.0309 28.5277 52.0309C24.7767 52.0309 21.9937 51.5469 20.0577 50.6394C17.4562 49.3084 16.1252 46.9489 16.1252 43.6214C16.1252 40.5964 17.0327 38.4184 18.8477 37.0874C20.4207 35.9379 22.7802 35.3934 25.9262 35.3934H40.0227C46.9802 35.3934 50.4287 38.1764 50.4287 43.7424H45.1047C45.1047 41.1409 43.2292 39.8704 39.5387 39.8704H26.2287C23.1432 39.8704 21.6307 41.1409 21.6307 43.7424C21.6307 46.4044 24.4137 47.7354 30.0402 47.7354C30.8872 47.7354 32.2182 47.6749 33.9727 47.6144C35.7272 47.4934 36.9977 47.4934 37.9052 47.4934C41.7167 47.4934 44.6207 48.0379 46.6172 49.0664C49.4002 50.3974 50.7312 52.8174 50.7312 56.2659ZM82.9173 53.9669C82.9173 57.8994 82.1308 60.7429 80.4973 62.4369C78.8638 64.1309 76.0808 64.9779 72.2088 64.9779H64.2832C60.1692 64.9779 57.3257 64.1309 55.7527 62.4369C54.1797 60.7429 53.4537 57.8389 53.4537 53.6644H58.4752C58.4752 56.5684 59.0198 58.4439 60.2298 59.3514C61.1978 60.1379 63.1942 60.5009 66.2192 60.4404C66.7032 60.4404 67.4898 60.4404 68.4578 60.5009C69.4863 60.5614 70.2123 60.5614 70.6358 60.5614C72.9953 60.5614 74.6892 60.1984 75.7177 59.5329C77.1697 58.6254 77.8958 56.8709 77.8958 54.4509V39.8704H62.8312V35.3934H82.9777V53.9669H82.9173Z" fill="white"/>
<defs>
<linearGradient id="paint0_linear_1998_12" x1="68.1994" y1="97.9437" x2="38.3596" y2="20.2078" gradientUnits="userSpaceOnUse">
<stop stop-color="#181716"/>
<stop offset="0.383" stop-color="#D1D1D0"/>
<stop offset="0.566" stop-color="white"/>
<stop offset="1" stop-color="white"/>
</linearGradient>
<linearGradient id="paint1_linear_1998_12" x1="5.22738" y1="50.9389" x2="106.596" y2="50.9389" gradientUnits="userSpaceOnUse">
<stop stop-color="#0F52BA"/>
<stop offset="0.083" stop-color="#0A5EC2"/>
<stop offset="0.23" stop-color="#026ECC"/>
<stop offset="0.347" stop-color="#0073CF"/>
<stop offset="0.622" stop-color="#0073CF"/>
<stop offset="0.724" stop-color="#0665C6"/>
<stop offset="0.873" stop-color="#0D57BD"/>
<stop offset="1" stop-color="#0F52BA"/>
</linearGradient>
</defs>
</svg>
