<svg width="100" height="100" viewBox="0 0 100 100" fill="none" xmlns="http://www.w3.org/2000/svg">
    <path fill-rule="evenodd" clip-rule="evenodd"
        d="M40 10C33.3726 10 28 15.3726 28 22V28H22C15.3726 28 10 33.3726 10 40V78C10 84.6274 15.3726 90 22 90H60C66.6274 90 72 84.6274 72 78V72H78C84.6274 72 90 66.6274 90 60V22C90 15.3726 84.6274 10 78 10H40ZM72 64H78C80.2091 64 82 62.2091 82 60V22C82 19.7909 80.2091 18 78 18H40C37.7909 18 36 19.7909 36 22V28H60C66.6274 28 72 33.3726 72 40V64ZM22 36C19.7909 36 18 37.7909 18 40V78C18 80.2091 19.7909 82 22 82H60C62.2091 82 64 80.2091 64 78V40C64 37.7909 62.2091 36 60 36H22ZM32.1126 43.4733C33.4132 42.7772 34.9914 42.8535 36.2188 43.6718L54.2188 55.6718C55.3316 56.4137 56 57.6626 56 59C56 60.3374 55.3316 61.5863 54.2188 62.3282L36.2188 74.3282C34.9914 75.1465 33.4132 75.2228 32.1126 74.5267C30.8119 73.8306 30 72.4752 30 71V47C30 45.5248 30.8119 44.1694 32.1126 43.4733ZM38 63.5259L44.7889 59L38 54.4741V63.5259Z"
        fill="currentcolor" />
</svg>