<svg width="100" height="100" viewBox="0 0 100 100" fill="none" xmlns="http://www.w3.org/2000/svg">
    <path
        d="M73.9813 61.9489C71.7955 61.9489 69.7346 62.4018 67.7986 63.3078C65.8626 64.2137 64.2077 65.3852 62.8337 66.8222L41.5691 54.3578C41.5691 53.5456 41.6471 52.8115 41.8033 52.1555C41.9594 51.4995 42.0375 50.7654 42.0375 49.9531C42.0375 49.2034 41.9438 48.4849 41.7564 47.7977C41.5691 47.1104 41.3817 46.3607 41.1944 45.5485L62.3653 33.1778C63.989 34.6148 65.7845 35.7707 67.7518 36.6454C69.719 37.52 71.7955 37.9574 73.9813 37.9574C78.3529 37.9574 82.1155 36.3954 85.2693 33.2716C88.4231 30.1477 90 26.399 90 22.0256C90 17.5897 88.4231 13.8097 85.2693 10.6858C82.1155 7.56195 78.3529 6 73.9813 6C69.6096 6 65.847 7.56195 62.6932 10.6858C59.5394 13.8097 57.9625 17.5897 57.9625 22.0256C57.9625 22.7753 58.0562 23.4938 58.2436 24.181C58.4309 24.8683 58.6183 25.618 58.8056 26.4302L37.1663 38.8009C35.7923 37.3639 34.1374 36.208 32.2014 35.3333C30.2654 34.4587 28.2045 34.0213 26.0187 34.0213C21.6471 34.0213 17.8845 35.5833 14.7307 38.7071C11.5769 41.831 10 45.5797 10 49.9531C10 54.389 11.5769 58.169 14.7307 61.2929C17.8845 64.4167 21.6471 65.9787 26.0187 65.9787C28.2045 65.9787 30.2654 65.5258 32.2014 64.6198C34.1374 63.7138 35.7923 62.5737 37.1663 61.1991L58.4309 73.5698C58.4309 74.382 58.3529 75.1161 58.1967 75.7721C58.0406 76.4281 57.9625 77.1622 57.9625 77.9744C57.9625 82.3479 59.5394 86.1121 62.6932 89.2673C65.847 92.4225 69.6096 94 73.9813 94C78.3529 94 82.1155 92.4225 85.2693 89.2673C88.4231 86.1121 90 82.3479 90 77.9744C90 73.601 88.4231 69.8367 85.2693 66.6816C82.1155 63.5264 78.3529 61.9489 73.9813 61.9489ZM73.9813 13.9659C76.167 13.9659 78.0406 14.7469 79.6019 16.3088C81.1632 17.8708 81.9438 19.7764 81.9438 22.0256C81.9438 24.2123 81.1632 26.0866 79.6019 27.6486C78.0406 29.2105 76.167 29.9915 73.9813 29.9915C71.7955 29.9915 69.922 29.2105 68.3607 27.6486C66.7993 26.0866 66.0187 24.2123 66.0187 22.0256C66.0187 19.7764 66.7993 17.8708 68.3607 16.3088C69.922 14.7469 71.7955 13.9659 73.9813 13.9659ZM26.0187 58.0128C23.833 58.0128 21.9594 57.2318 20.3981 55.6699C18.8368 54.1079 18.0562 52.2023 18.0562 49.9531C18.0562 47.7664 18.8368 45.8921 20.3981 44.3301C21.9594 42.7682 23.833 41.9872 26.0187 41.9872C28.2045 41.9872 30.078 42.7682 31.6393 44.3301C33.2007 45.8921 33.9813 47.7664 33.9813 49.9531C33.9813 52.2023 33.2007 54.1079 31.6393 55.6699C30.078 57.2318 28.2045 58.0128 26.0187 58.0128ZM73.9813 85.9404C71.7955 85.9404 69.922 85.1594 68.3607 83.5974C66.7993 82.0355 66.0187 80.1611 66.0187 77.9744C66.0187 77.1622 66.1124 76.4438 66.2998 75.819C66.4871 75.1941 66.7681 74.5694 67.1429 73.9446C67.7674 72.7575 68.7197 71.8048 70 71.0863C71.2803 70.3677 72.6073 70.0085 73.9813 70.0085C76.167 70.0085 78.0406 70.7895 79.6019 72.3514C81.1632 73.9134 81.9438 75.7877 81.9438 77.9744C81.9438 80.1611 81.1632 82.0355 79.6019 83.5974C78.0406 85.1594 76.167 85.9404 73.9813 85.9404Z"
        fill="currentcolor" />
</svg>