<svg width="100" height="100" viewBox="0 0 100 100" fill="none" xmlns="http://www.w3.org/2000/svg">
    <path d="M7.99997 72.4C7.99997 72.4 20.1895 84.3457 28 92C35.8105 84.3457 48 72.4 48 72.4" stroke="currentcolor"
        stroke-width="8" stroke-linecap="round" stroke-linejoin="round" />
    <path d="M27.9999 92L27.9999 8" stroke="currentcolor" stroke-width="8" stroke-linecap="round"
        stroke-linejoin="round" />
    <path fill-rule="evenodd" clip-rule="evenodd"
        d="M57.5629 10.6098C60.0659 9.53715 62.749 9 65.6147 9C68.4805 9 71.1636 9.53715 73.6666 10.6098C76.1741 11.6845 78.3568 13.152 80.2172 15.0123C82.0775 16.8727 83.545 19.0554 84.6197 21.5629C85.6924 24.0659 86.2295 26.749 86.2295 29.6148C86.2295 32.0118 85.8093 34.3181 84.9689 36.5354C84.1259 38.7592 83.0243 40.7287 81.665 42.4457L81.5251 42.6224L90.2703 51.3122C90.6982 51.7401 90.9028 52.2209 90.9028 52.764C90.9028 53.3072 90.6982 53.788 90.2703 54.2159C90.0406 54.4456 89.7914 54.6049 89.5224 54.6998C89.2292 54.8033 88.9966 54.8485 88.8184 54.8485C88.6402 54.8485 88.4075 54.8033 88.1144 54.6998C87.8453 54.6049 87.5961 54.4456 87.3665 54.2159L78.6138 45.4632L78.4362 45.6186C76.7217 47.1188 74.7659 48.2621 72.567 49.0487C70.3674 49.8356 68.0504 50.2295 65.6147 50.2295C62.749 50.2295 60.0659 49.6924 57.5629 48.6197C55.0554 47.545 52.8727 46.0775 51.0123 44.2172C49.152 42.3568 47.6845 40.1741 46.6098 37.6666C45.5371 35.1636 45 32.4805 45 29.6148C45 26.749 45.5371 24.0659 46.6098 21.5629C47.6845 19.0554 49.152 16.8727 51.0123 15.0123C52.8727 13.152 55.0554 11.6845 57.5629 10.6098ZM65.6147 13.1146C63.3366 13.1146 61.1841 13.5373 59.1595 14.3839L59.1544 14.3861C57.1714 15.2675 55.4341 16.4437 53.9444 17.915C52.4525 19.3885 51.284 21.1373 50.4386 23.1588C49.5913 25.1483 49.1689 27.3013 49.1689 29.6148C49.1689 31.8926 49.5916 34.0274 50.4386 36.0164C51.2843 38.0386 52.4623 39.7877 53.9727 41.2612C55.4823 42.7341 57.2492 43.8748 59.271 44.6837C61.3329 45.5303 63.5404 45.9161 65.8904 45.8432C68.0942 45.8428 70.1815 45.4383 72.1501 44.6288C74.1186 43.8193 75.8756 42.6601 77.42 41.1526L77.4244 41.148C78.8247 39.7108 79.9553 37.9814 80.8176 35.9631C81.6824 33.9391 82.1149 31.8223 82.1149 29.6148C82.1149 27.301 81.6924 25.1478 80.8449 23.158L80.844 23.156C79.9628 21.1363 78.7861 19.3888 77.3134 17.9161C75.8407 16.4434 74.0932 15.2667 72.0735 14.3854L72.0715 14.3846C70.0817 13.5371 67.9285 13.1146 65.6147 13.1146Z"
        fill="currentcolor" />
    <path
        d="M57.5629 10.6098L56.7751 8.77155L56.7751 8.77155L57.5629 10.6098ZM73.6666 10.6098L74.4544 8.77155L74.4544 8.77155L73.6666 10.6098ZM80.2172 15.0123L78.803 16.4265L78.803 16.4265L80.2172 15.0123ZM84.6197 21.5629L86.458 20.7751L86.458 20.7751L84.6197 21.5629ZM84.9689 36.5354L86.839 37.2442L86.839 37.2442L84.9689 36.5354ZM81.665 42.4457L83.2331 43.6871L83.2331 43.6871L81.665 42.4457ZM81.5251 42.6224L79.957 41.381L78.8481 42.7818L80.1154 44.0411L81.5251 42.6224ZM90.2703 51.3122L91.6845 49.8979L91.68 49.8935L90.2703 51.3122ZM89.5224 54.6998L88.8568 52.8138L88.8568 52.8139L89.5224 54.6998ZM88.1144 54.6998L88.78 52.8139L88.7799 52.8138L88.1144 54.6998ZM87.3665 54.2159L85.9523 55.6301L85.9523 55.6302L87.3665 54.2159ZM78.6138 45.4632L80.028 44.049L78.7049 42.7259L77.2968 43.958L78.6138 45.4632ZM78.4362 45.6186L77.1192 44.1134L77.1192 44.1134L78.4362 45.6186ZM72.567 49.0487L73.2406 50.9319L73.2406 50.9319L72.567 49.0487ZM57.5629 48.6197L56.7751 50.458L56.7751 50.458L57.5629 48.6197ZM51.0123 44.2172L52.4265 42.803L52.4265 42.803L51.0123 44.2172ZM46.6098 37.6666L48.4481 36.8787L48.4481 36.8787L46.6098 37.6666ZM46.6098 21.5629L44.7715 20.7751L44.7715 20.7751L46.6098 21.5629ZM51.0123 15.0123L52.4265 16.4265L52.4265 16.4265L51.0123 15.0123ZM59.1595 14.3839L58.388 12.5388L58.3777 12.5431L58.3675 12.5475L59.1595 14.3839ZM59.1544 14.3861L58.3623 12.5497L58.3522 12.554L58.3421 12.5585L59.1544 14.3861ZM53.9444 17.915L52.539 16.492L52.539 16.492L53.9444 17.915ZM50.4386 23.1588L52.2787 23.9424L52.2837 23.9304L50.4386 23.1588ZM50.4386 36.0164L52.2838 35.2447L52.2787 35.2328L50.4386 36.0164ZM53.9727 41.2612L55.3693 39.8297L55.3693 39.8297L53.9727 41.2612ZM59.271 44.6837L60.0307 42.8336L60.0223 42.8301L60.0139 42.8268L59.271 44.6837ZM65.8904 45.8432L65.89 43.8432L65.8592 43.8432L65.8284 43.8442L65.8904 45.8432ZM72.1501 44.6288L71.3894 42.7791L71.3894 42.7791L72.1501 44.6288ZM77.42 41.1526L78.817 42.5837L78.8345 42.5667L78.8516 42.5492L77.42 41.1526ZM77.4244 41.148L78.856 42.5446L78.8569 42.5438L77.4244 41.148ZM80.8176 35.9631L82.6568 36.7489L82.6568 36.7489L80.8176 35.9631ZM80.8449 23.158L82.685 22.3743L82.6821 22.3675L82.6792 22.3608L80.8449 23.158ZM80.844 23.156L82.6783 22.3587L82.6771 22.3561L80.844 23.156ZM77.3134 17.9161L75.8992 19.3303L75.8992 19.3303L77.3134 17.9161ZM72.0735 14.3854L72.8734 12.5524L72.8657 12.549L72.858 12.5457L72.0735 14.3854ZM72.0715 14.3846L72.856 12.5448L72.8552 12.5445L72.0715 14.3846ZM65.6147 7C62.492 7 59.5395 7.58682 56.7751 8.77155L58.3508 12.4481C60.5923 11.4875 63.0059 11 65.6147 11V7ZM74.4544 8.77155C71.69 7.58682 68.7375 7 65.6147 7V11C68.2236 11 70.6372 11.4875 72.8787 12.4481L74.4544 8.77155ZM81.6314 13.5981C79.5847 11.5514 77.1873 9.94278 74.4544 8.77155L72.8787 12.4481C75.1608 13.4262 77.1289 14.7525 78.803 16.4265L81.6314 13.5981ZM86.458 20.7751C85.2867 18.0422 83.6781 15.6448 81.6314 13.5981L78.803 16.4265C80.477 18.1006 81.8033 20.0687 82.7814 22.3508L86.458 20.7751ZM88.2295 29.6148C88.2295 26.492 87.6427 23.5395 86.458 20.7751L82.7814 22.3508C83.742 24.5923 84.2295 27.0059 84.2295 29.6148H88.2295ZM86.839 37.2442C87.7662 34.7981 88.2295 32.2514 88.2295 29.6148H84.2295C84.2295 31.7722 83.8523 33.8382 83.0987 35.8265L86.839 37.2442ZM83.2331 43.6871C84.7299 41.7964 85.9293 39.6442 86.839 37.2442L83.0987 35.8265C82.3225 37.8743 81.3186 39.6611 80.0969 41.2043L83.2331 43.6871ZM83.0932 43.8638L83.2331 43.6871L80.0969 41.2043L79.957 41.381L83.0932 43.8638ZM91.68 49.8935L82.9348 41.2037L80.1154 44.0411L88.8606 52.7309L91.68 49.8935ZM92.9028 52.764C92.9028 51.6449 92.454 50.6675 91.6845 49.8979L88.8561 52.7264C88.8869 52.7572 88.9028 52.778 88.9094 52.7876C88.9158 52.7968 88.9151 52.7973 88.9118 52.7899C88.9085 52.7821 88.9055 52.7727 88.9037 52.764C88.902 52.7556 88.9028 52.7546 88.9028 52.764H92.9028ZM91.6845 55.6301C92.454 54.8606 92.9028 53.8832 92.9028 52.764H88.9028C88.9028 52.7735 88.902 52.7725 88.9037 52.7641C88.9055 52.7554 88.9085 52.746 88.9118 52.7382C88.9151 52.7307 88.9158 52.7313 88.9094 52.7405C88.9028 52.75 88.8869 52.7709 88.8561 52.8017L91.6845 55.6301ZM90.188 56.5859C90.7654 56.3821 91.2647 56.05 91.6845 55.6301L88.8561 52.8017C88.8339 52.8239 88.8237 52.8298 88.8269 52.8278C88.8283 52.8269 88.8318 52.8247 88.8375 52.8219C88.8431 52.8192 88.8497 52.8164 88.8568 52.8138L90.188 56.5859ZM88.8184 56.8485C89.3071 56.8485 89.7777 56.7307 90.188 56.5858L88.8568 52.8139C88.8185 52.8274 88.788 52.8369 88.7649 52.8435C88.7417 52.8501 88.7276 52.8533 88.722 52.8545C88.7162 52.8557 88.7213 52.8543 88.7363 52.8526C88.7511 52.851 88.779 52.8485 88.8184 52.8485V56.8485ZM87.4488 56.5858C87.8591 56.7307 88.3297 56.8485 88.8184 56.8485V52.8485C88.8577 52.8485 88.8857 52.851 88.9005 52.8526C88.9154 52.8543 88.9205 52.8557 88.9148 52.8545C88.9092 52.8533 88.8951 52.8501 88.8719 52.8435C88.8488 52.8369 88.8183 52.8274 88.78 52.8139L87.4488 56.5858ZM85.9523 55.6302C86.3721 56.0499 86.8713 56.3821 87.4488 56.5859L88.7799 52.8138C88.7871 52.8164 88.7936 52.8192 88.7993 52.8219C88.8049 52.8247 88.8085 52.8269 88.8099 52.8278C88.8131 52.8298 88.8029 52.8239 88.7807 52.8017L85.9523 55.6302ZM77.1995 46.8774L85.9523 55.6301L88.7807 52.8017L80.028 44.049L77.1995 46.8774ZM79.7531 47.1238L79.9307 46.9684L77.2968 43.958L77.1192 44.1134L79.7531 47.1238ZM73.2406 50.9319C75.67 50.0628 77.8452 48.7932 79.7532 47.1237L77.1192 44.1134C75.5981 45.4444 73.8618 46.4614 71.8933 47.1656L73.2406 50.9319ZM65.6147 52.2295C68.2705 52.2295 70.816 51.7992 73.2406 50.9319L71.8933 47.1656C69.9187 47.872 67.8304 48.2295 65.6147 48.2295V52.2295ZM56.7751 50.458C59.5395 51.6427 62.492 52.2295 65.6147 52.2295V48.2295C63.0059 48.2295 60.5923 47.742 58.3508 46.7814L56.7751 50.458ZM49.5981 45.6314C51.6448 47.6781 54.0422 49.2867 56.7751 50.458L58.3508 46.7814C56.0687 45.8033 54.1006 44.477 52.4265 42.803L49.5981 45.6314ZM44.7715 38.4544C45.9428 41.1873 47.5514 43.5847 49.5981 45.6314L52.4265 42.803C50.7525 41.1289 49.4262 39.1608 48.4481 36.8787L44.7715 38.4544ZM43 29.6148C43 32.7375 43.5868 35.69 44.7715 38.4544L48.4481 36.8787C47.4875 34.6372 47 32.2236 47 29.6148H43ZM44.7715 20.7751C43.5868 23.5395 43 26.492 43 29.6148H47C47 27.0059 47.4875 24.5923 48.4481 22.3508L44.7715 20.7751ZM49.5981 13.5981C47.5514 15.6448 45.9428 18.0422 44.7715 20.7751L48.4481 22.3508C49.4262 20.0687 50.7525 18.1006 52.4265 16.4265L49.5981 13.5981ZM56.7751 8.77155C54.0422 9.94278 51.6448 11.5514 49.5981 13.5981L52.4265 16.4265C54.1006 14.7525 56.0687 13.4262 58.3508 12.4481L56.7751 8.77155ZM59.9311 16.2291C61.7015 15.4888 63.5907 15.1146 65.6147 15.1146V11.1146C63.0825 11.1146 60.6667 11.5859 58.388 12.5388L59.9311 16.2291ZM59.9465 16.2226L59.9516 16.2204L58.3675 12.5475L58.3623 12.5497L59.9465 16.2226ZM55.3498 19.338C56.6613 18.0427 58.1956 17.0009 59.9667 16.2138L58.3421 12.5585C56.1472 13.5341 54.2069 14.8447 52.539 16.492L55.3498 19.338ZM52.2837 23.9304C53.032 22.1413 54.055 20.6168 55.3498 19.338L52.539 16.492C50.8501 18.1601 49.5361 20.1333 48.5935 22.3871L52.2837 23.9304ZM51.1689 29.6148C51.1689 27.5506 51.5445 25.6664 52.2787 23.9424L48.5985 22.3751C47.6382 24.6302 47.1689 27.052 47.1689 29.6148H51.1689ZM52.2787 35.2328C51.543 33.5053 51.1689 31.6387 51.1689 29.6148H47.1689C47.1689 32.1465 47.6401 34.5494 48.5985 36.8L52.2787 35.2328ZM55.3693 39.8297C54.0591 38.5514 53.0301 37.0293 52.2837 35.2447L48.5935 36.7881C49.5386 39.0478 50.8656 41.024 52.576 42.6928L55.3693 39.8297ZM60.0139 42.8268C58.2273 42.112 56.6846 41.1129 55.3693 39.8297L52.576 42.6928C54.28 44.3552 56.2711 45.6376 58.5281 46.5406L60.0139 42.8268ZM65.8284 43.8442C63.7431 43.9089 61.8174 43.5672 60.0307 42.8336L58.5113 46.5338C60.8485 47.4935 63.3376 47.9234 65.9524 47.8423L65.8284 43.8442ZM71.3894 42.7791C69.671 43.4857 67.8429 43.8428 65.89 43.8432L65.8908 47.8432C68.3456 47.8427 70.692 47.3909 72.9107 46.4785L71.3894 42.7791ZM76.0229 39.7214C74.6592 41.0526 73.1175 42.0685 71.3894 42.7791L72.9107 46.4785C75.1197 45.5701 77.0921 44.2676 78.817 42.5837L76.0229 39.7214ZM75.9928 39.7514L75.9884 39.756L78.8516 42.5492L78.856 42.5446L75.9928 39.7514ZM78.9785 35.1772C78.2034 36.9912 77.2041 38.5082 75.9919 39.7523L78.8569 42.5438C80.4453 40.9135 81.7071 38.9715 82.6568 36.7489L78.9785 35.1772ZM80.1149 29.6148C80.1149 31.5531 79.7368 33.4025 78.9785 35.1772L82.6568 36.7489C83.6281 34.4757 84.1149 32.0916 84.1149 29.6148H80.1149ZM79.0049 23.9417C79.7392 25.6659 80.1149 27.5503 80.1149 29.6148H84.1149C84.1149 27.0516 83.6456 24.6296 82.685 22.3743L79.0049 23.9417ZM79.0098 23.9532L79.0107 23.9553L82.6792 22.3608L82.6783 22.3587L79.0098 23.9532ZM75.8992 19.3303C77.1846 20.6157 78.2235 22.1513 79.011 23.9559L82.6771 22.3561C81.702 20.1214 80.3877 18.162 78.7276 16.5019L75.8992 19.3303ZM71.2736 16.2185C73.0782 17.006 74.6138 18.0449 75.8992 19.3303L78.7276 16.5019C77.0675 14.8418 75.1081 13.5275 72.8734 12.5524L71.2736 16.2185ZM71.287 16.2243L71.2891 16.2252L72.858 12.5457L72.856 12.5448L71.287 16.2243ZM65.6147 15.1146C67.6792 15.1146 69.5636 15.4903 71.2878 16.2246L72.8552 12.5445C70.5999 11.5839 68.1779 11.1146 65.6147 11.1146V15.1146Z"
        fill="currentcolor" />
</svg>