<svg width="100" height="100" viewBox="0 0 100 100" fill="none" xmlns="http://www.w3.org/2000/svg">
    <path fill-rule="evenodd" clip-rule="evenodd"
        d="M27.9999 4C25.7908 4 23.9999 5.79086 23.9999 8L23.9999 82.4794L17.8707 76.4728L12.8263 71.5293L11.3387 70.0714L10.9385 69.6792L10.8349 69.5777L10.8085 69.5519L10.8019 69.5453L10.8002 69.5437L10.7998 69.5433C10.7997 69.5432 10.7997 69.5432 7.99997 72.4L10.7997 69.5432C9.22189 67.9969 6.68936 68.0225 5.14312 69.6003C3.59688 71.1781 3.62246 73.7106 5.20025 75.2569L7.99997 72.4C5.20025 75.2569 5.2003 75.2569 5.20039 75.257L5.20081 75.2574L5.20248 75.2591L5.20912 75.2656L5.23546 75.2914L5.33905 75.3929L5.73928 75.7851L7.2269 77.243L12.2713 82.1865L25.1935 94.8502C25.2216 94.8779 25.2502 94.9052 25.2791 94.9321C25.9671 95.5708 26.8803 95.9704 27.8863 95.9984C27.9242 95.9995 27.9621 96 27.9999 96C28.069 96 28.1376 95.9983 28.2058 95.9948C28.6888 95.9703 29.1493 95.8601 29.5722 95.6792C30.0168 95.4893 30.434 95.2152 30.7997 94.8569L43.7286 82.1865L48.773 77.243L50.2607 75.7851L50.6609 75.3929L50.7645 75.2914L50.7908 75.2656L50.7975 75.2591L50.7991 75.2574L50.7995 75.257C50.7996 75.2569 50.7997 75.2569 48 72.4L50.7997 75.2569C52.3775 73.7106 52.4031 71.1781 50.8568 69.6003C49.3106 68.0225 46.778 67.9969 45.2003 69.5432L48 72.4C45.2003 69.5432 45.2002 69.5432 45.2001 69.5433L45.1997 69.5437L45.198 69.5453L45.1914 69.5519L45.165 69.5777L45.0614 69.6792L44.6612 70.0714L43.1736 71.5293L38.1292 76.4728L31.9999 82.4795L31.9999 8C31.9999 5.79086 30.2091 4 27.9999 4ZM45 13C42.7909 13 41 14.7909 41 17C41 19.2091 42.7909 21 45 21H87C89.2091 21 91 19.2091 91 17C91 14.7909 89.2091 13 87 13H45ZM41 35C41 32.7909 42.7909 31 45 31H77C79.2091 31 81 32.7909 81 35C81 37.2091 79.2091 39 77 39H45C42.7909 39 41 37.2091 41 35ZM45 49C42.7909 49 41 50.7909 41 53C41 55.2091 42.7909 57 45 57H67C69.2091 57 71 55.2091 71 53C71 50.7909 69.2091 49 67 49H45Z"
        fill="currentcolor" />
</svg>