<svg width="100" height="100" viewBox="0 0 100 100" fill="none" xmlns="http://www.w3.org/2000/svg">
    <path fill-rule="evenodd" clip-rule="evenodd"
        d="M50 95C74.8528 95 95 74.8528 95 50C95 25.1472 74.8528 5 50 5C25.1472 5 5 25.1472 5 50C5 74.8528 25.1472 95 50 95ZM46.9223 24.6209L40.7241 37.0172L27.0749 39.0646C23.7855 39.558 22.5004 43.6171 24.9064 45.9138L34.931 55.4828L32.6383 69.2394C32.094 72.5047 35.5253 74.9801 38.4523 73.4338L50.5 67.069L62.5477 73.4338C65.4747 74.9801 68.906 72.5047 68.3617 69.2394L66.069 55.4828L76.0936 45.9138C78.4996 43.6171 77.2145 39.558 73.9251 39.0646L60.2759 37.0172L54.0777 24.6209C52.6036 21.6727 48.3964 21.6727 46.9223 24.6209Z"
        fill="currentcolor" />
</svg>