<svg width="100" height="100" viewBox="0 0 100 100" fill="none" xmlns="http://www.w3.org/2000/svg">
    <path fill-rule="evenodd" clip-rule="evenodd"
        d="M13 50C13 29.5655 29.5655 13 50 13C70.4345 13 87 29.5655 87 50C87 70.4345 70.4345 87 50 87C29.5655 87 13 70.4345 13 50ZM50 5C25.1472 5 5 25.1472 5 50C5 74.8528 25.1472 95 50 95C74.8528 95 95 74.8528 95 50C95 25.1472 74.8528 5 50 5ZM54.0777 25.2111C53.4001 23.856 52.0151 23 50.5 23C48.9849 23 47.5999 23.856 46.9223 25.2111L40.8689 37.318L27.4066 39.3374C25.8967 39.5638 24.6474 40.6301 24.1866 42.0857C23.7257 43.5413 24.1337 45.1323 25.2381 46.1865L35.0856 55.5864L32.8475 69.0148C32.5975 70.5148 33.2196 72.0267 34.4529 72.9164C35.6861 73.806 37.3171 73.9195 38.6616 73.2092L50.5 66.9549L62.3384 73.2092C63.6829 73.9195 65.3139 73.806 66.5471 72.9164C67.7803 72.0267 68.4025 70.5148 68.1525 69.0148L65.9144 55.5864L75.7619 46.1865C76.8663 45.1323 77.2743 43.5413 76.8134 42.0857C76.3526 40.6301 75.1033 39.5638 73.5934 39.3374L60.1311 37.318L54.0777 25.2111ZM47.0949 42.7544L50.5 35.9443L53.905 42.7544C54.4876 43.9195 55.6011 44.728 56.8894 44.9213L64.3317 46.0376L58.8588 51.2618C57.9006 52.1764 57.4573 53.5061 57.6751 54.8128L58.9334 62.3625L52.3685 58.8943C51.1994 58.2766 49.8006 58.2766 48.6315 58.8943L42.0666 62.3625L43.3249 54.8128C43.5427 53.5061 43.0994 52.1764 42.1412 51.2618L36.6683 46.0376L44.1106 44.9213C45.3989 44.728 46.5124 43.9195 47.0949 42.7544Z"
        fill="currentcolor" />
</svg>