<svg width="100" height="100" viewBox="0 0 100 100" fill="none" xmlns="http://www.w3.org/2000/svg">
    <path fill-rule="evenodd" clip-rule="evenodd"
        d="M11.1091 5.45227C9.54703 3.89018 7.01437 3.89018 5.45227 5.45227C3.89018 7.01437 3.89018 9.54703 5.45227 11.1091L15.4771 21.1339C8.93993 28.945 5 39.0154 5 50C5 74.8528 25.1472 95 50 95C60.9846 95 71.055 91.0601 78.8661 84.5229L88.8909 94.5477C90.453 96.1098 92.9856 96.1098 94.5477 94.5477C96.1098 92.9856 96.1098 90.453 94.5477 88.8909L11.1091 5.45227ZM73.1823 78.8391L66.9381 72.5949C66.8157 72.7093 66.6852 72.8167 66.5471 72.9164C65.3139 73.806 63.6829 73.9195 62.3384 73.2092L50.5 66.9549L38.6616 73.2092C37.3171 73.9195 35.6861 73.806 34.4529 72.9164C33.2196 72.0267 32.5975 70.5148 32.8475 69.0148L35.0856 55.5864L25.2381 46.1865C24.1337 45.1323 23.7257 43.5413 24.1866 42.0857C24.6474 40.6301 25.8967 39.5638 27.4066 39.3374L32.8622 38.519L21.1609 26.8177C16.0529 33.1627 13 41.222 13 50C13 70.4345 29.5655 87 50 87C58.778 87 66.8373 83.9471 73.1823 78.8391ZM39.8965 45.5534L36.6683 46.0376L42.1412 51.2618C43.0994 52.1764 43.5427 53.5061 43.3249 54.8128L42.0666 62.3625L48.6315 58.8943C49.8006 58.2766 51.1994 58.2766 52.3685 58.8943L54.2106 59.8675L39.8965 45.5534ZM50 13C45.0692 13 40.3731 13.9624 36.082 15.7058C34.0353 16.5374 31.7021 15.5523 30.8705 13.5056C30.039 11.459 31.0241 9.12573 33.0707 8.29419C38.3019 6.16881 44.0194 5 50 5C74.8528 5 95 25.1472 95 50C95 55.9806 93.8312 61.6981 91.7058 66.9293C90.8743 68.9759 88.541 69.961 86.4944 69.1294C84.4477 68.2979 83.4626 65.9647 84.2942 63.918C86.0376 59.6269 87 54.9308 87 50C87 29.5655 70.4345 13 50 13ZM50.5 23C52.0151 23 53.4001 23.856 54.0777 25.2111L55.0777 27.2111C56.0657 29.1871 55.2648 31.5898 53.2889 32.5777C51.3129 33.5657 48.9102 32.7648 47.9223 30.7889L47.8948 30.7339C46.3407 29.6049 45.7849 27.4859 46.6723 25.7111L46.9223 25.2111C47.5999 23.856 48.9849 23 50.5 23ZM61.2856 41.5359C61.6133 39.3512 63.65 37.8459 65.8347 38.1736L73.5934 39.3374C75.1033 39.5638 76.3526 40.6301 76.8134 42.0857C77.2743 43.5413 76.8663 45.1323 75.7619 46.1865L72.9171 48.902L72.2059 49.5809C70.6079 51.1063 68.0759 51.0474 66.5505 49.4494C65.6918 48.5498 65.3352 47.3541 65.4726 46.2087L64.648 46.0851C62.4633 45.7574 60.9579 43.7206 61.2856 41.5359Z"
        fill="currentcolor" />
</svg>