<svg width="100" height="100" viewBox="0 0 100 100" fill="none" xmlns="http://www.w3.org/2000/svg">
    <path fill-rule="evenodd" clip-rule="evenodd"
        d="M14 10C11.7909 10 10 11.7909 10 14V42C10 44.2091 11.7909 46 14 46H42C44.2091 46 46 44.2091 46 42V14C46 11.7909 44.2091 10 42 10H14ZM18 38V18H38V38H18ZM58 54C55.7909 54 54 55.7909 54 58V86C54 88.2091 55.7909 90 58 90H86C88.2091 90 90 88.2091 90 86V58C90 55.7909 88.2091 54 86 54H58ZM62 82V62H82V82H62ZM10 58C10 55.7909 11.7909 54 14 54H42C44.2091 54 46 55.7909 46 58V86C46 88.2091 44.2091 90 42 90H14C11.7909 90 10 88.2091 10 86V58ZM18 62V82H38V62H18ZM58 10C55.7909 10 54 11.7909 54 14V42C54 44.2091 55.7909 46 58 46H86C88.2091 46 90 44.2091 90 42V14C90 11.7909 88.2091 10 86 10H58ZM62 38V18H82V38H62Z"
        fill="currentcolor" />
</svg>