<svg width="100" height="100" viewBox="0 0 100 100" fill="none" xmlns="http://www.w3.org/2000/svg">
    <path fill-rule="evenodd" clip-rule="evenodd"
        d="M14 10C11.7909 10 10 11.7909 10 14V42C10 44.2091 11.7909 46 14 46H42C44.2091 46 46 44.2091 46 42V14C46 11.7909 44.2091 10 42 10H14ZM18 38V18H38V38H18ZM57.281 54.0722C58.1118 53.9064 58.9268 54.0314 59.6611 54.3921L96.7141 71.8953L96.7596 71.9198C97.4469 72.289 98.038 72.8227 98.4434 73.5384C98.8086 74.1829 99 74.8937 99 75.64C99 76.5418 98.6732 77.3458 98.1356 78.0014C97.537 78.7312 96.7395 79.1486 95.8891 79.3222L82.6649 82.7041L79.2667 95.9301C79.0581 96.8021 78.5607 97.5091 77.8936 98.0299C77.3352 98.4659 76.6994 98.7864 75.9931 98.949L75.7716 99H75.3618C74.618 99 73.8706 98.8087 73.2071 98.3558C72.5941 97.9374 72.1488 97.3755 71.8391 96.7575L71.8294 96.7383L54.2056 59.604L54.1574 59.4117C53.9712 58.6686 53.9303 57.8742 54.1436 57.0837C54.3361 56.3703 54.6963 55.7219 55.2327 55.1869C55.7848 54.6361 56.4725 54.2335 57.281 54.0722ZM74.4006 83.1314L66.3498 66.2414L83.401 74.3311L78.334 75.6732L78.3034 75.6824C77.7311 75.8537 77.2153 76.1367 76.7627 76.5085C76.1328 77.026 75.7495 77.706 75.5673 78.433L74.4006 83.1314ZM10 58C10 55.7909 11.7909 54 14 54H42C44.2091 54 46 55.7909 46 58V86C46 88.2091 44.2091 90 42 90H14C11.7909 90 10 88.2091 10 86V58ZM18 62V82H38V62H18ZM58 10C55.7909 10 54 11.7909 54 14V42C54 44.2091 55.7909 46 58 46H86C88.2091 46 90 44.2091 90 42V14C90 11.7909 88.2091 10 86 10H58ZM62 38V18H82V38H62Z"
        fill="currentcolor" />
</svg>