<svg width="100" height="100" viewBox="0 0 100 100" fill="none" xmlns="http://www.w3.org/2000/svg">
    <path fill-rule="evenodd" clip-rule="evenodd"
        d="M11.1091 5.45227C9.54703 3.89018 7.01437 3.89018 5.45227 5.45227C3.89018 7.01437 3.89018 9.54703 5.45227 11.1091L8.18267 13.8395C6.35653 15.8495 5 18.8287 5 23V64.0159C5 70.6537 10.383 76 17 76H46V84H33C30.7909 84 29 85.7909 29 88C29 90.2091 30.7909 92 33 92H50H67C69.2091 92 71 90.2091 71 88C71 85.7909 69.2091 84 67 84H54V76H70.3431L88.8909 94.5477C90.453 96.1098 92.9856 96.1098 94.5477 94.5477C96.1098 92.9856 96.1098 90.453 94.5477 88.8909L17.369 11.7121C17.3439 11.6864 17.3186 11.661 17.2929 11.636L11.1091 5.45227ZM13.8627 19.5196C13.4397 20.1186 13 21.1627 13 23V64.0159C13 66.2147 14.7805 68 17 68H50H62.3431L13.8627 19.5196ZM37 10C34.7909 10 33 11.7909 33 14C33 16.2091 34.7909 18 37 18H83C85.2199 18 87 19.7851 87 21.9835V22.0614V22.1395V22.2179V22.2966V22.3755V22.4547V22.5342V22.614V22.694V22.7743V22.8548V22.9356V23.0167V23.098V23.1796V23.2615V23.3436V23.4259V23.5085V23.5914V23.6745V23.7578V23.8414V23.9253V24.0093V24.0937V24.1782V24.263V24.348V24.4333V24.5188V24.6045V24.6905V24.7767V24.8631V24.9497V25.0366V25.1237V25.211V25.2985V25.3863V25.4742V25.5624V25.6508V25.7394V25.8282V25.9172V26.0064V26.0959V26.1855V26.2753V26.3654V26.4556V26.546V26.6367V26.7275V26.8185V26.9097V27.0011V27.0927V27.1845V27.2764V27.3686V27.4609V27.5534V27.6461V27.7389V27.832V27.9252V28.0186V28.1121V28.2059V28.2997V28.3938V28.488V28.5824V28.677V28.7717V28.8666V28.9616V29.0568V29.1521V29.2476V29.3433V29.4391V29.535V29.6311V29.7273V29.8237V29.9202V30.0169V30.1137V30.2106V30.3077V30.4049V30.5023V30.5998V30.6974V30.7951V30.893V30.9909V31.0891V31.1873V31.2856V31.3841V31.4827V31.5814V31.6802V31.7792V31.8782V31.9774V32.0766V32.176V32.2755V32.3751V32.4748V32.5746V32.6744V32.7744V32.8745V32.9747V33.0749V33.1753V33.2758V33.3763V33.4769V33.5776V33.6784V33.7793V33.8803V33.9813V34.0824V34.1836V34.2849V34.3862V34.4876V34.5891V34.6907V34.7923V34.894V34.9957V35.0975V35.1994V35.3013V35.4033V35.5053V35.6074V35.7096V35.8118V35.9141V36.0164V36.1187V36.2211V36.3236V36.426V36.5286V36.6311V36.7337V36.8364V36.939V37.0417V37.1445V37.2473V37.3501V37.4529V37.5557V37.6586V37.7615V37.8644V37.9674V38.0703V38.1733V38.2763V38.3793V38.4823V38.5853V38.6883V38.7914V38.8944V38.9975V39.1005V39.2036V39.3066V39.4097V39.5127V39.6158V39.7188V39.8218V39.9249V40.0279V40.1309V40.2338V40.3368V40.4398V40.5427V40.6456V40.7485V40.8513V40.9542V41.057V41.1598V41.2625V41.3653V41.4679V41.5706V41.6732V41.7758V41.8784V41.9809V42.0833V42.1857V42.2881V42.3904V42.4927V42.595V42.6971V42.7993V42.9013V43.0034V43.1053V43.2072V43.3091V43.4108V43.5126V43.6142V43.7158V43.8173V43.9188V44.0201V44.1214V44.2227V44.3238V44.4249V44.5259V44.6268V44.7277V44.8284V44.9291V45.0297V45.1302V45.2306V45.3309V45.4311V45.5312V45.6313V45.7312V45.831V45.9308V46.0304V46.1299V46.2294V46.3287V46.4279V46.527V46.626V46.7249V46.8237V46.9223V47.0208V47.1193V47.2176V47.3157V47.4138V47.5117V47.6095V47.7072V47.8047V47.9021V47.9994V48.0966V48.1936V48.2905V48.3872V48.4838V48.5802V48.6765V48.7727V48.8687V48.9646V49.0603V49.1559V49.2513V49.3466V49.4417V49.5367V49.6315V49.7261V49.8206V49.9149V50.009V50.103V50.1968V50.2905V50.3839V50.4772V50.5704V50.6633V50.7561V50.8487V50.9411V51.0333V51.1254V51.2173V51.3089V51.4004V51.4917V51.5829V51.6738V51.7645V51.855V51.9454V52.0355V52.1255V52.2152V52.3047V52.3941V52.4832V52.5721V52.6608V52.7493V52.8376V52.9256V53.0135V53.1011V53.1886V53.2758V53.3627V53.4495V53.536V53.6223V53.7084V53.7943V53.8799V53.9653V54.0504V54.1353V54.22V54.3045V54.3887V54.4726V54.5564V54.6398V54.7231V54.806V54.8888V54.9713V55.0535V55.1355V55.2172V55.2986V55.3798V55.4608V55.5415V55.6219V55.7021V55.782V55.8616V55.9409V56.02V56.0988V56.1774V56.2556V56.3336V56.4113V56.4888V56.5659V56.6428V56.7194V56.7957V56.8717V56.9474V57.0228V57.098V57.1728V57.2474V57.3216V57.3956V57.4692V57.5426V57.6156V57.6884V57.7608V57.833V57.9048V57.9763V58.0475V58.1184V58.189V58.2592V58.3292V58.3988V58.4681V58.5371V58.6057V58.6741V58.7421V58.8097V58.8771V58.9441V59.0108V59.0771V59.1431V59.2088V59.2741V59.3391V59.4037V59.468V59.532V59.5956V59.6588V59.7218V59.7843V59.8465V59.9084V59.9699V60.031V60.0918V60.1522V60.2122V60.2719V60.3312V60.3902V60.4488V60.507V60.5648V60.6223V60.6794V60.7361V60.7925V60.8484V60.904V60.9592V61.014V61.0684V61.1225V61.1761V61.2294V61.2823V61.3348V61.3868V61.4385V61.4898V61.5407V61.5912V61.6413V61.691V61.7402V61.7891V61.8376V61.8856V61.9333V61.9805V62.0273V62.0737V62.1197V62.1652V62.2104V62.2551V62.2994V62.3433V62.3867V62.4297V62.4723V62.5144V62.5562V62.5974V62.6383V62.6787V62.7187V62.7582V62.7973V62.8359V62.8741V62.9119V62.9492V62.986V63.0224V63.0583V63.0938V63.1289V63.1635V63.1976V63.2312V63.2644V63.2972V63.3294V63.3612V63.3926V63.4234V63.4538V63.4837V63.5132V63.5421V63.5706V63.5986V63.6262V63.6532V63.6798V63.7058V63.7314V63.7565V63.7812V63.8053V63.8289V63.852V63.8747V63.8968V63.9185V63.9396V63.9602V63.9804V64C87 64.6665 86.8576 65.26 86.6209 65.7686C85.6887 67.7714 86.5566 70.1507 88.5594 71.0829C90.5623 72.0151 92.9416 71.1472 93.8738 69.1444C94.6052 67.573 95 65.8268 95 64V63.9804V63.9602V63.9396V63.9185V63.8968V63.8747V63.852V63.8289V63.8053V63.7812V63.7565V63.7314V63.7058V63.6798V63.6532V63.6262V63.5986V63.5706V63.5421V63.5132V63.4837V63.4538V63.4234V63.3926V63.3612V63.3294V63.2972V63.2644V63.2312V63.1976V63.1635V63.1289V63.0938V63.0583V63.0224V62.986V62.9492V62.9119V62.8741V62.8359V62.7973V62.7582V62.7187V62.6787V62.6383V62.5974V62.5562V62.5144V62.4723V62.4297V62.3867V62.3433V62.2994V62.2551V62.2104V62.1652V62.1197V62.0737V62.0273V61.9805V61.9333V61.8856V61.8376V61.7891V61.7402V61.691V61.6413V61.5912V61.5407V61.4898V61.4385V61.3868V61.3348V61.2823V61.2294V61.1761V61.1225V61.0684V61.014V60.9592V60.904V60.8484V60.7925V60.7361V60.6794V60.6223V60.5648V60.507V60.4488V60.3902V60.3312V60.2719V60.2122V60.1522V60.0918V60.031V59.9699V59.9084V59.8465V59.7843V59.7218V59.6588V59.5956V59.532V59.468V59.4037V59.3391V59.2741V59.2088V59.1431V59.0771V59.0108V58.9441V58.8771V58.8097V58.7421V58.6741V58.6057V58.5371V58.4681V58.3988V58.3292V58.2592V58.189V58.1184V58.0475V57.9763V57.9048V57.833V57.7608V57.6884V57.6156V57.5426V57.4692V57.3956V57.3216V57.2474V57.1728V57.098V57.0228V56.9474V56.8717V56.7957V56.7194V56.6428V56.5659V56.4888V56.4113V56.3336V56.2556V56.1774V56.0988V56.02V55.9409V55.8616V55.782V55.7021V55.6219V55.5415V55.4608V55.3798V55.2986V55.2172V55.1355V55.0535V54.9713V54.8888V54.806V54.7231V54.6398V54.5564V54.4726V54.3887V54.3045V54.22V54.1353V54.0504V53.9653V53.8799V53.7943V53.7084V53.6223V53.536V53.4495V53.3627V53.2758V53.1886V53.1011V53.0135V52.9256V52.8376V52.7493V52.6608V52.5721V52.4832V52.3941V52.3047V52.2152V52.1255V52.0355V51.9454V51.855V51.7645V51.6738V51.5829V51.4917V51.4004V51.3089V51.2173V51.1254V51.0333V50.9411V50.8487V50.7561V50.6633V50.5704V50.4772V50.3839V50.2905V50.1968V50.103V50.009V49.9149V49.8206V49.7261V49.6315V49.5367V49.4417V49.3466V49.2513V49.1559V49.0603V48.9646V48.8687V48.7727V48.6765V48.5802V48.4838V48.3872V48.2905V48.1936V48.0966V47.9994V47.9021V47.8047V47.7072V47.6095V47.5117V47.4138V47.3157V47.2176V47.1193V47.0208V46.9223V46.8237V46.7249V46.626V46.527V46.4279V46.3287V46.2294V46.1299V46.0304V45.9308V45.831V45.7312V45.6313V45.5312V45.4311V45.3309V45.2306V45.1302V45.0297V44.9291V44.8284V44.7277V44.6268V44.5259V44.4249V44.3238V44.2227V44.1214V44.0201V43.9188V43.8173V43.7158V43.6142V43.5126V43.4108V43.3091V43.2072V43.1053V43.0034V42.9013V42.7993V42.6971V42.595V42.4927V42.3904V42.2881V42.1857V42.0833V41.9809V41.8784V41.7758V41.6732V41.5706V41.4679V41.3653V41.2625V41.1598V41.057V40.9542V40.8513V40.7485V40.6456V40.5427V40.4398V40.3368V40.2338V40.1309V40.0279V39.9249V39.8218V39.7188V39.6158V39.5127V39.4097V39.3066V39.2036V39.1005V38.9975V38.8944V38.7914V38.6883V38.5853V38.4823V38.3793V38.2763V38.1733V38.0703V37.9674V37.8644V37.7615V37.6586V37.5557V37.4529V37.3501V37.2473V37.1445V37.0417V36.939V36.8364V36.7337V36.6311V36.5286V36.426V36.3236V36.2211V36.1187V36.0164V35.9141V35.8118V35.7096V35.6074V35.5053V35.4033V35.3013V35.1994V35.0975V34.9957V34.894V34.7923V34.6907V34.5891V34.4876V34.3862V34.2849V34.1836V34.0824V33.9813V33.8803V33.7793V33.6784V33.5776V33.4769V33.3763V33.2758V33.1753V33.0749V32.9747V32.8745V32.7744V32.6744V32.5746V32.4748V32.3751V32.2755V32.176V32.0766V31.9774V31.8782V31.7792V31.6802V31.5814V31.4827V31.3841V31.2856V31.1873V31.0891V30.9909V30.893V30.7951V30.6974V30.5998V30.5023V30.4049V30.3077V30.2106V30.1137V30.0169V29.9202V29.8237V29.7273V29.6311V29.535V29.4391V29.3433V29.2476V29.1521V29.0568V28.9616V28.8666V28.7717V28.677V28.5824V28.488V28.3938V28.2997V28.2059V28.1121V28.0186V27.9252V27.832V27.7389V27.6461V27.5534V27.4609V27.3686V27.2764V27.1845V27.0927V27.0011V26.9097V26.8185V26.7275V26.6367V26.546V26.4556V26.3654V26.2753V26.1855V26.0959V26.0064V25.9172V25.8282V25.7394V25.6508V25.5624V25.4742V25.3863V25.2985V25.211V25.1237V25.0366V24.9497V24.8631V24.7767V24.6905V24.6045V24.5188V24.4333V24.348V24.263V24.1782V24.0937V24.0093V23.9253V23.8414V23.7578V23.6745V23.5914V23.5085V23.4259V23.3436V23.2615V23.1796V23.098V23.0167V22.9356V22.8548V22.7743V22.694V22.614V22.5342V22.4547V22.3755V22.2966V22.2179V22.1395V22.0614V21.9835C95 15.3453 89.6167 10 83 10H37Z"
        fill="currentcolor" />
</svg>