<svg width="100" height="100" viewBox="0 0 100 100" fill="none" xmlns="http://www.w3.org/2000/svg">
    <path fill-rule="evenodd" clip-rule="evenodd"
        d="M5 22C5 15.3726 10.3726 10 17 10H83C89.6274 10 95 15.3726 95 22V64C95 70.6274 89.6274 76 83 76H54V84H67C69.2091 84 71 85.7909 71 88C71 90.2091 69.2091 92 67 92H50H33C30.7909 92 29 90.2091 29 88C29 85.7909 30.7909 84 33 84H46V76H17C10.3726 76 5 70.6274 5 64V22ZM83 68H50H17C14.7909 68 13 66.2091 13 64V22C13 19.7909 14.7909 18 17 18H83C85.2091 18 87 19.7909 87 22V64C87 66.2091 85.2091 68 83 68Z"
        fill="currentcolor" />
</svg>