<svg width="100" height="100" viewBox="0 0 100 100" fill="none" xmlns="http://www.w3.org/2000/svg">
    <g clip-path="url(#clip0_1998_12)">
        <path fill-rule="evenodd" clip-rule="evenodd"
            d="M90.2678 0.705004C91.757 1.72998 92.3737 3.62648 91.772 5.3313L87.6003 17.151C94.6131 18.1685 100 24.2052 100 31.5C100 39.5081 93.5081 46 85.5 46H82C72.0589 46 64 37.9411 64 28V27.6405C64 22.2543 66.3651 17.1399 70.469 13.6516L85.4094 0.952258C86.7869 -0.218618 88.7785 -0.319976 90.2678 0.705004ZM9.7322 99.295C8.24295 98.2701 7.62634 96.3736 8.22804 94.6687L12.3997 82.849C5.38689 81.8315 0 75.7948 0 68.5C0 60.4919 6.49187 54 14.5 54H18C27.9411 54 36 62.0589 36 72V72.3596C36 77.7457 33.6349 82.8601 29.531 86.3484L14.5906 99.0478C13.2131 100.219 11.2215 100.32 9.7322 99.295ZM47.772 5.3313C48.3737 3.62648 47.757 1.72998 46.2678 0.705004C44.7785 -0.319976 42.7869 -0.218618 41.4094 0.952258L26.469 13.6516C22.3651 17.1399 20 22.2543 20 27.6405V28C20 37.9411 28.0589 46 38 46H41.5C49.5081 46 56 39.5081 56 31.5C56 24.2052 50.6131 18.1685 43.6003 17.151L47.772 5.3313ZM53.7322 99.295C52.243 98.2701 51.6263 96.3736 52.228 94.6687L56.3997 82.849C49.3869 81.8315 44 75.7948 44 68.5C44 60.4919 50.4919 54 58.5 54H62C71.9411 54 80 62.0589 80 72V72.3596C80 77.7457 77.6349 82.8601 73.531 86.3484L58.5906 99.0478C57.2131 100.219 55.2215 100.32 53.7322 99.295Z"
            fill="currentcolor" />
    </g>
</svg>