<svg width="100" height="100" viewBox="0 0 100 100" fill="none" xmlns="http://www.w3.org/2000/svg">
    <g clip-path="url(#clip0_1998_12)">
        <path fill-rule="evenodd" clip-rule="evenodd"
            d="M91.772 5.33128C92.3737 3.62646 91.757 1.72997 90.2678 0.704989C88.7785 -0.319991 86.7869 -0.218633 85.4094 0.952243L70.469 13.6516C66.3651 17.1399 64 22.2543 64 27.6404V28C64 37.9411 72.0589 46 82 46H85.5C93.5081 46 100 39.5081 100 31.5C100 24.2052 94.6131 18.1685 87.6003 17.151L91.772 5.33128ZM75.6502 19.7471L79.2933 16.6504L78.228 19.6687C77.796 20.8929 77.9849 22.2506 78.7346 23.3103C79.4844 24.37 80.7018 25 82 25H85.5C89.0899 25 92 27.9101 92 31.5C92 35.0899 89.0899 38 85.5 38H82C76.4771 38 72 33.5228 72 28V27.6404C72 24.6013 73.3345 21.7154 75.6502 19.7471ZM8.22804 94.6687C7.62634 96.3735 8.24295 98.27 9.7322 99.295C11.2215 100.32 13.2131 100.219 14.5906 99.0478L29.531 86.3484C33.6349 82.8601 36 77.7457 36 72.3596V72C36 62.0589 27.9411 54 18 54H14.5C6.49187 54 0 60.4919 0 68.5C0 75.7948 5.38689 81.8315 12.3997 82.849L8.22804 94.6687ZM24.3498 80.2529L20.7067 83.3495L21.772 80.3313C22.204 79.1071 22.0151 77.7494 21.2654 76.6897C20.5156 75.63 19.2982 75 18 75H14.5C10.9101 75 8 72.0899 8 68.5C8 64.9101 10.9101 62 14.5 62H18C23.5228 62 28 66.4772 28 72V72.3596C28 75.3987 26.6655 78.2846 24.3498 80.2529ZM46.2678 0.704989C47.757 1.72997 48.3737 3.62646 47.772 5.33128L43.6003 17.151C50.6131 18.1685 56 24.2052 56 31.5C56 39.5081 49.5081 46 41.5 46H38C28.0589 46 20 37.9411 20 28V27.6404C20 22.2543 22.3651 17.1399 26.469 13.6516L41.4094 0.952243C42.7869 -0.218633 44.7785 -0.319991 46.2678 0.704989ZM35.2933 16.6504L31.6502 19.7471C29.3345 21.7154 28 24.6013 28 27.6404V28C28 33.5228 32.4772 38 38 38H41.5C45.0899 38 48 35.0899 48 31.5C48 27.9101 45.0899 25 41.5 25H38C36.7018 25 35.4844 24.37 34.7346 23.3103C33.9849 22.2506 33.796 20.8929 34.228 19.6687L35.2933 16.6504ZM52.228 94.6687C51.6263 96.3735 52.243 98.27 53.7322 99.295C55.2215 100.32 57.2131 100.219 58.5906 99.0478L73.531 86.3484C77.6349 82.8601 80 77.7457 80 72.3596V72C80 62.0589 71.9411 54 62 54H58.5C50.4919 54 44 60.4919 44 68.5C44 75.7948 49.3869 81.8315 56.3997 82.849L52.228 94.6687ZM68.3498 80.2529L64.7067 83.3495L65.772 80.3313C66.204 79.1071 66.0151 77.7494 65.2654 76.6897C64.5156 75.63 63.2982 75 62 75H58.5C54.9101 75 52 72.0899 52 68.5C52 64.9101 54.9101 62 58.5 62H62C67.5229 62 72 66.4772 72 72V72.3596C72 75.3987 70.6655 78.2846 68.3498 80.2529Z"
            fill="currentcolor" />
    </g>
</svg>