<svg width="100" height="100" viewBox="0 0 100 100" fill="none" xmlns="http://www.w3.org/2000/svg">
    <path
        d="M19.5857 66.5543C62.4217 56.6828 80.6998 41.4021 94.9979 14.8954C95.627 15.995 96.2367 17.164 96.8246 18.405C103.392 32.2685 98.6417 51.6527 86.7895 61.9798C84.2894 64.1581 81.35 66.4524 78.2337 68.8848C67.4565 77.2965 54.5625 87.3605 50.3976 100C46.2326 87.3605 33.3387 77.2965 22.5616 68.8848C21.5479 68.0936 20.5529 67.317 19.5857 66.5543Z"
        fill="#FF9801" />
    <path
        d="M91.3132 9.47472C75.854 -9.54036 53.0424 3.53187 50.3976 18.405C47.4146 1.63027 18.7784 -12.8536 3.97054 18.405C0.183835 26.3986 0.15977 36.2275 3.09022 45.0974C44.4898 43.8977 71.4988 30.0878 91.3132 9.47472Z"
        fill="#FFC201" />
</svg>