<svg width="100" height="100" viewBox="0 0 100 100" fill="none" xmlns="http://www.w3.org/2000/svg">
    <path fill-rule="evenodd" clip-rule="evenodd"
        d="M72.7586 9.10345C74.3583 10.627 74.4201 13.1589 72.8966 14.7586L60.2857 28H80C86.6274 28 92 33.3726 92 40V80C92 86.6274 86.6274 92 80 92H20C13.3726 92 8 86.6274 8 80V40C8 33.3726 13.3726 28 20 28H39.7143L27.1034 14.7586C25.5799 13.1589 25.6417 10.627 27.2414 9.10345C28.8411 7.5799 31.373 7.64166 32.8966 9.24138L50 27.2L67.1034 9.24138C68.627 7.64166 71.1589 7.5799 72.7586 9.10345Z"
        fill="currentcolor" />
</svg>