<svg width="100" height="100" viewBox="0 0 100 100" fill="none" xmlns="http://www.w3.org/2000/svg">
    <path fill-rule="evenodd" clip-rule="evenodd"
        d="M72.7586 9.10346C74.3583 10.627 74.4201 13.1589 72.8966 14.7586L60.2857 28H80C86.6274 28 92 33.3726 92 40V80C92 86.6274 86.6274 92 80 92H20C13.3726 92 8 86.6274 8 80V40C8 33.3726 13.3726 28 20 28H39.7143L27.1034 14.7586C25.5799 13.1589 25.6417 10.627 27.2414 9.10346C28.8411 7.57991 31.373 7.64167 32.8965 9.24139L50 27.2L67.1034 9.24139C68.627 7.64167 71.1589 7.57991 72.7586 9.10346ZM20 36C17.7909 36 16 37.7909 16 40V80C16 82.2091 17.7909 84 20 84H80C82.2091 84 84 82.2092 84 80V40C84 37.7909 82.2091 36 80 36H20ZM24 64C24 61.7909 25.7909 60 28 60H33C35.2091 60 37 61.7909 37 64V72C37 74.2091 35.2091 76 33 76H28C25.7909 76 24 74.2091 24 72V64ZM28 44C25.7909 44 24 45.7909 24 48C24 50.2091 25.7909 52 28 52H33C35.2091 52 37 50.2091 37 48C37 45.7909 35.2091 44 33 44H28ZM63 64C63 61.7909 64.7909 60 67 60H72C74.2091 60 76 61.7909 76 64V72C76 74.2091 74.2091 76 72 76H67C64.7909 76 63 74.2091 63 72V64ZM67 44C64.7909 44 63 45.7909 63 48C63 50.2091 64.7909 52 67 52H72C74.2091 52 76 50.2091 76 48C76 45.7909 74.2091 44 72 44H67ZM44 64C44 61.7909 45.7909 60 48 60H53C55.2091 60 57 61.7909 57 64V72C57 74.2091 55.2091 76 53 76H48C45.7909 76 44 74.2091 44 72V64ZM48 44C45.7909 44 44 45.7909 44 48C44 50.2091 45.7909 52 48 52H53C55.2091 52 57 50.2091 57 48C57 45.7909 55.2091 44 53 44H48Z"
        fill="currentcolor" />
</svg>