<svg width="100" height="100" viewBox="0 0 100 100" fill="none" xmlns="http://www.w3.org/2000/svg">
    <path fill-rule="evenodd" clip-rule="evenodd"
        d="M72.7586 9.10346C74.3583 10.627 74.4201 13.1589 72.8966 14.7586L60.2857 28H80C86.6274 28 92 33.3726 92 40V80C92 86.6274 86.6274 92 80 92H20C13.3726 92 8 86.6274 8 80V40C8 33.3726 13.3726 28 20 28H39.7143L27.1034 14.7586C25.5799 13.1589 25.6417 10.627 27.2414 9.10346C28.8411 7.57991 31.373 7.64167 32.8966 9.24139L50 27.2L67.1034 9.24139C68.627 7.64167 71.1589 7.57991 72.7586 9.10346ZM20 36C17.7909 36 16 37.7909 16 40V80C16 82.2091 17.7909 84 20 84H80C82.2091 84 84 82.2091 84 80V40C84 37.7909 82.2091 36 80 36H20ZM37.1716 47.1716C35.6095 48.7337 35.6095 51.2663 37.1716 52.8284L44.3431 60L37.1716 67.1716C35.6095 68.7337 35.6095 71.2663 37.1716 72.8284C38.7337 74.3905 41.2663 74.3905 42.8284 72.8284L50 65.6569L57.1716 72.8284C58.7337 74.3905 61.2663 74.3905 62.8284 72.8284C64.3905 71.2663 64.3905 68.7337 62.8284 67.1716L55.6569 60L62.8284 52.8284C64.3905 51.2663 64.3905 48.7337 62.8284 47.1716C61.2663 45.6095 58.7337 45.6095 57.1716 47.1716L50 54.3432L42.8284 47.1716C41.2663 45.6095 38.7337 45.6095 37.1716 47.1716Z"
        fill="currentcolor" />
</svg>