<svg width="100" height="100" viewBox="0 0 100 100" fill="none" xmlns="http://www.w3.org/2000/svg">
    <path fill-rule="evenodd" clip-rule="evenodd"
        d="M11.1091 5.45227C9.54703 3.89018 7.01437 3.89018 5.45227 5.45227C3.89018 7.01437 3.89018 9.54703 5.45227 11.1091L22.3431 28H20C13.3726 28 8 33.3726 8 40V80C8 86.6252 13.367 92 19.9966 92H20.0986H20.201H20.304H20.4075H20.5114H20.6159H20.7209H20.8263H20.9323H21.0387H21.1456H21.2531H21.361H21.4693H21.5782H21.6875H21.7973H21.9076H22.0183H22.1295H22.2411H22.3533H22.4658H22.5788H22.6923H22.8062H22.9206H23.0354H23.1506H23.2663H23.3824H23.499H23.6159H23.7333H23.8512H23.9694H24.0881H24.2071H24.3266H24.4465H24.5668H24.6875H24.8087H24.9302H25.0521H25.1744H25.2971H25.4202H25.5436H25.6675H25.7917H25.9163H26.0413H26.1667H26.2924H26.4185H26.545H26.6718H26.799H26.9265H27.0544H27.1827H27.3113H27.4402H27.5695H27.6991H27.8291H27.9594H28.09H28.221H28.3523H28.4839H28.6159H28.7481H28.8807H29.0136H29.1468H29.2803H29.4141H29.5483H29.6827H29.8174H29.9524H30.0878H30.2234H30.3593H30.4954H30.6319H30.7686H30.9057H31.0429H31.1805H31.3183H31.4564H31.5948H31.7334H31.8723H32.0115H32.1509H32.2905H32.4304H32.5705H32.7109H32.8515H32.9924H33.1335H33.2748H33.4164H33.5582H33.7002H33.8424H33.9849H34.1275H34.2704H34.4135H34.5568H34.7003H34.844H34.9879H35.132H35.2763H35.4208H35.5655H35.7103H35.8554H36.0006H36.146H36.2916H36.4374H36.5833H36.7294H36.8757H37.0221H37.1687H37.3155H37.4624H37.6095H37.7567H37.904H38.0515H38.1992H38.347H38.4949H38.6429H38.7911H38.9394H39.0879H39.2364H39.3851H39.5339H39.6828H39.8319H39.981H40.1303H40.2796H40.4291H40.5786H40.7283H40.878H41.0278H41.1778H41.3278H41.4779H41.6281H41.7783H41.9286H42.079H42.2295H42.3801H42.5307H42.6813H42.8321H42.9829H43.1337H43.2846H43.4355H43.5865H43.7375H43.8886H44.0397H44.1909H44.3421H44.4933H44.6445H44.7958H44.9471H45.0984H45.2497H45.401H45.5524H45.7037H45.8551H46.0065H46.1578H46.3092H46.4606H46.6119H46.7633H46.9146H47.0659H47.2172H47.3685H47.5198H47.671H47.8222H47.9734H48.1246H48.2757H48.4268H48.5778H48.7288H48.8797H49.0306H49.1814H49.3322H49.483H49.6336H49.7842H49.9348H50.0852H50.2356H50.386H50.5362H50.6864H50.8365H50.9865H51.1364H51.2863H51.436H51.5857H51.7352H51.8847H52.034H52.1833H52.3324H52.4814H52.6304H52.7792H52.9278H53.0764H53.2248H53.3731H53.5213H53.6694H53.8173H53.9651H54.1127H54.2602H54.4076H54.5548H54.7018H54.8488H54.9955H55.1421H55.2885H55.4348H55.5809H55.7268H55.8726H56.0182H56.1636H56.3088H56.4539H56.5987H56.7434H56.8879H57.0322H57.1763H57.3202H57.4639H57.6074H57.7507H57.8938H58.0367H58.1793H58.3218H58.464H58.606H58.7478H58.8894H59.0307H59.1718H59.3126H59.4532H59.5936H59.7338H59.8736H60.0133H60.1527H60.2918H60.4307H60.5693H60.7077H60.8458H60.9836H61.1212H61.2585H61.3955H61.5322H61.6687H61.8049H61.9407H62.0763H62.2117H62.3467H62.4814H62.6158H62.7499H62.8838H63.0173H63.1505H63.2834H63.4159H63.5482H63.6801H63.8117H63.943H64.074H64.2046H64.3349H64.4649H64.5945H64.7238H64.8527H64.9813H65.1096H65.2375H65.365H65.4922H65.619H65.7455H65.8716H65.9973H66.1227H66.2476H66.3722H66.4965H66.6203H66.7438H66.8669H66.9896H67.1119H67.2338H67.3553H67.4764H67.5971H67.7174H67.8373H67.9568H68.0758H68.1945H68.3127H68.4305H68.5479H68.6649H68.7814H68.8976H69.0132H69.1285H69.2433H69.3576H69.4715H69.585H69.698H69.8106H69.9227H70.0343H70.1455H70.2562H70.3665H70.4763H70.5856H70.6944H70.8028H70.9107H71.0181H71.125H71.2315H71.3374H71.4429H71.5478H71.6523H71.7563H71.8597H71.9627H72.0651H72.167H72.2685H72.3694H72.4697H72.5696H72.6689H72.7678H72.866H72.9638H73.061H73.1577H73.2538H73.3494H73.4445H73.539H73.6329H73.7263H73.8192H73.9114H74.0032H74.0943H74.1849H74.2749H74.3644H74.4532H74.5415H74.6293H74.7164H74.8029H74.8889H74.9743H75.0591H75.1432H75.2268H75.3098H75.3922H75.4739H75.5551H75.6357H75.7156H75.7949H75.8736H75.9517H76.0291H76.106H76.1822H76.2577H76.3326H76.4069H76.4806H76.5536H76.6259H76.6976H76.7687H76.8391H76.9088H76.9779H77.0463H77.1141H77.1812H77.2476H77.3133H77.3784H77.4428H77.5065H77.5695H77.6319H77.6935H77.7545H77.8148H77.8743H77.9332H77.9914H78.0488H78.1056H78.1616H78.217H78.2716H78.3255H78.3787H78.4311H78.4828H78.5339H78.5841H78.6337H78.6825H78.7305H78.7778H78.8244H78.8702H78.9153H78.9596H79.0032H79.046H79.0881H79.1294H79.1699H79.2096H79.2486H79.2868H79.3243H79.3609H79.3968H79.4319H79.4662H79.4997H79.5324H79.5643H79.5955H79.6258H79.6553H79.684H79.7119H79.739H79.7653H79.7908H79.8154H79.8393H79.8623H79.8844H79.9058H79.9263H79.946H79.9648H79.9828H80C82.0913 92 83.8337 91.4817 85.1835 90.8404L88.8909 94.5477C90.453 96.1098 92.9856 96.1098 94.5477 94.5477C96.1098 92.9856 96.1098 90.453 94.5477 88.8909L34.8292 29.1724C34.8287 29.1718 34.8282 29.1713 34.8276 29.1708L11.1091 5.45227ZM30.3431 36H20C17.7909 36 16 37.7909 16 40V80C16 82.2113 17.7897 84 19.9966 84H20.0986H20.201H20.304H20.4075H20.5114H20.6159H20.7209H20.8263H20.9323H21.0387H21.1456H21.2531H21.361H21.4693H21.5782H21.6875H21.7973H21.9076H22.0183H22.1295H22.2411H22.3533H22.4658H22.5788H22.6923H22.8062H22.9206H23.0354H23.1506H23.2663H23.3824H23.499H23.6159H23.7333H23.8512H23.9694H24.0881H24.2071H24.3266H24.4465H24.5668H24.6875H24.8087H24.9302H25.0521H25.1744H25.2971H25.4202H25.5436H25.6675H25.7917H25.9163H26.0413H26.1667H26.2924H26.4185H26.545H26.6718H26.799H26.9265H27.0544H27.1827H27.3113H27.4402H27.5695H27.6991H27.8291H27.9594H28.09H28.221H28.3523H28.4839H28.6159H28.7481H28.8807H29.0136H29.1468H29.2803H29.4141H29.5483H29.6827H29.8174H29.9524H30.0878H30.2234H30.3593H30.4954H30.6319H30.7686H30.9057H31.0429H31.1805H31.3183H31.4564H31.5948H31.7334H31.8723H32.0115H32.1509H32.2905H32.4304H32.5705H32.7109H32.8515H32.9924H33.1335H33.2748H33.4164H33.5582H33.7002H33.8424H33.9849H34.1275H34.2704H34.4135H34.5568H34.7003H34.844H34.9879H35.132H35.2763H35.4208H35.5655H35.7103H35.8554H36.0006H36.146H36.2916H36.4374H36.5833H36.7294H36.8757H37.0221H37.1687H37.3155H37.4624H37.6095H37.7567H37.904H38.0515H38.1992H38.347H38.4949H38.6429H38.7911H38.9394H39.0879H39.2364H39.3851H39.5339H39.6828H39.8319H39.981H40.1303H40.2796H40.4291H40.5786H40.7283H40.878H41.0278H41.1778H41.3278H41.4779H41.6281H41.7783H41.9286H42.079H42.2295H42.3801H42.5307H42.6813H42.8321H42.9829H43.1337H43.2846H43.4355H43.5865H43.7375H43.8886H44.0397H44.1909H44.3421H44.4933H44.6445H44.7958H44.9471H45.0984H45.2497H45.401H45.5524H45.7037H45.8551H46.0065H46.1578H46.3092H46.4606H46.6119H46.7633H46.9146H47.0659H47.2172H47.3685H47.5198H47.671H47.8222H47.9734H48.1246H48.2757H48.4268H48.5778H48.7288H48.8797H49.0306H49.1814H49.3322H49.483H49.6336H49.7842H49.9348H50.0852H50.2356H50.386H50.5362H50.6864H50.8365H50.9865H51.1364H51.2863H51.436H51.5857H51.7352H51.8847H52.034H52.1833H52.3324H52.4814H52.6304H52.7792H52.9278H53.0764H53.2248H53.3731H53.5213H53.6694H53.8173H53.9651H54.1127H54.2602H54.4076H54.5548H54.7018H54.8488H54.9955H55.1421H55.2885H55.4348H55.5809H55.7268H55.8726H56.0182H56.1636H56.3088H56.4539H56.5987H56.7434H56.8879H57.0322H57.1763H57.3202H57.4639H57.6074H57.7507H57.8938H58.0367H58.1793H58.3218H58.464H58.606H58.7478H58.8894H59.0307H59.1718H59.3126H59.4532H59.5936H59.7338H59.8736H60.0133H60.1527H60.2918H60.4307H60.5693H60.7077H60.8458H60.9836H61.1212H61.2585H61.3955H61.5322H61.6687H61.8049H61.9407H62.0763H62.2117H62.3467H62.4814H62.6158H62.7499H62.8838H63.0173H63.1505H63.2834H63.4159H63.5482H63.6801H63.8117H63.943H64.074H64.2046H64.3349H64.4649H64.5945H64.7238H64.8527H64.9813H65.1096H65.2375H65.365H65.4922H65.619H65.7455H65.8716H65.9973H66.1227H66.2476H66.3722H66.4965H66.6203H66.7438H66.8669H66.9896H67.1119H67.2338H67.3553H67.4764H67.5971H67.7174H67.8373H67.9568H68.0758H68.1945H68.3127H68.4305H68.5479H68.6649H68.7814H68.8976H69.0132H69.1285H69.2433H69.3576H69.4715H69.585H69.698H69.8106H69.9227H70.0343H70.1455H70.2562H70.3665H70.4763H70.5856H70.6944H70.8028H70.9107H71.0181H71.125H71.2315H71.3374H71.4429H71.5478H71.6523H71.7563H71.8597H71.9627H72.0651H72.167H72.2685H72.3694H72.4697H72.5696H72.6689H72.7678H72.866H72.9638H73.061H73.1577H73.2538H73.3494H73.4445H73.539H73.6329H73.7263H73.8192H73.9114H74.0032H74.0943H74.1849H74.2749H74.3644H74.4532H74.5415H74.6293H74.7164H74.8029H74.8889H74.9743H75.0591H75.1432H75.2268H75.3098H75.3922H75.4739H75.5551H75.6357H75.7156H75.7949H75.8736H75.9517H76.0291H76.106H76.1822H76.2577H76.3326H76.4069H76.4806H76.5536H76.6259H76.6976H76.7687H76.8391H76.9088H76.9779H77.0463H77.1141H77.1812H77.2476H77.3133H77.3784H77.4428H77.5065H77.5695H77.6319H77.6935H77.7545H77.8148H77.8743H77.9332H77.9914H78.0488H78.1056H78.1616H78.217H78.2716H78.3255H78.3431L30.3431 36ZM72.7465 9.09195C74.3526 10.6088 74.4249 13.1404 72.9081 14.7465L60.3909 28H80C86.6274 28 92 33.3726 92 40V65C92 67.2091 90.2091 69 88 69C85.7909 69 84 67.2091 84 65V40C84 37.7909 82.2091 36 80 36H55C53.3779 36 51.9812 35.0344 51.3536 33.6466C50.9587 33.4683 50.5862 33.2223 50.2535 32.9081C48.6474 31.3912 48.5751 28.8596 50.0919 27.2535L67.0919 9.25351C68.6088 7.64743 71.1404 7.5751 72.7465 9.09195Z"
        fill="currentcolor" />
</svg>