<svg width="100" height="100" viewBox="0 0 100 100" fill="none" xmlns="http://www.w3.org/2000/svg">
    <g clip-path="url(#clip0_1998_12)">
        <path
            d="M40.2879 39.4482V35.5954C38.951 35.4055 37.6019 35.3078 36.2518 35.3012C19.7354 35.3012 6.29788 48.7409 6.29788 65.2573C6.29788 75.3887 11.3614 84.3577 19.0856 89.7812C13.9134 84.2501 11.0376 76.9595 11.0419 69.3867C11.0419 53.1052 24.0975 39.8279 40.2879 39.4482Z"
            fill="#00F2EA" />
        <path
            d="M40.9948 83.0658C48.3645 83.0658 54.3752 77.2032 54.6496 69.8972L54.6749 4.67772H66.5899C66.3353 3.31553 66.2069 1.93358 66.2058 0.54834H49.9319L49.9045 65.77C49.6333 73.0738 43.6193 78.9342 36.2518 78.9342C34.04 78.9353 31.8612 78.3963 29.9052 77.3634C32.4682 80.9396 36.5954 83.0614 40.9948 83.0658ZM88.846 26.8164V23.1919C84.4675 23.1963 80.1822 21.9219 76.5171 19.5268C79.7311 23.227 84.0569 25.7846 88.8482 26.8164"
            fill="#00F2EA" />
        <path
            d="M76.5171 19.5235C72.9256 15.4139 70.9465 10.1397 70.9487 4.68103H66.5888C67.7293 10.7774 71.3175 16.1417 76.5171 19.5235ZM36.2518 51.5751C28.6999 51.5839 22.5805 57.7033 22.5717 65.2552C22.5761 70.3395 25.3993 75.0024 29.903 77.3645C28.2203 75.0441 27.3147 72.2528 27.3147 69.3868C27.3224 61.8349 33.4418 55.7133 40.9948 55.7045C42.4042 55.7045 43.7554 55.9372 45.0309 56.3378V39.7237C43.6939 39.5338 42.3449 39.4361 40.9948 39.4295C40.7577 39.4295 40.5239 39.4427 40.289 39.4471V52.2084C38.9828 51.7935 37.6217 51.5795 36.2518 51.5751Z"
            fill="#FF004F" />
        <path
            d="M88.846 26.8163V39.4646C80.4061 39.4646 72.5897 36.7655 66.2047 32.1839V65.2563C66.2047 81.7727 52.7693 95.2102 36.2529 95.2102C29.87 95.2102 23.9515 93.196 19.0867 89.7801C24.7407 95.8776 32.68 99.3418 40.9948 99.3396C57.5112 99.3396 70.9487 85.9021 70.9487 69.3878V36.3155C77.5445 41.0584 85.4663 43.6061 93.5901 43.5962V27.318C91.9612 27.318 90.3773 27.1412 88.8449 26.813"
            fill="#FF004F" />
        <path
            d="M66.2036 65.2552V32.1828C72.7994 36.9269 80.7212 39.4734 88.8449 39.4636V26.8164C84.0548 25.7835 79.7289 23.2248 76.516 19.5235C71.3165 16.1417 67.7282 10.7774 66.5877 4.68103H54.6738L54.6485 69.9005C54.3752 77.2043 48.3634 83.0669 40.9937 83.0669C36.5954 83.0625 32.4671 80.9396 29.9052 77.3656C25.4015 75.0046 22.5772 70.3417 22.5717 65.2563C22.5805 57.7044 28.6999 51.585 36.2518 51.5762C37.659 51.5762 39.0102 51.8067 40.2879 52.2095V39.4482C24.0975 39.828 11.0419 53.1052 11.0419 69.3868C11.0419 77.2603 14.1011 84.428 19.0856 89.7812C24.1106 93.319 30.1071 95.2146 36.2518 95.2091C52.7694 95.2091 66.2036 81.7716 66.2036 65.2552Z"
            fill="black" />
    </g>
</svg>