<svg width="100" height="100" viewBox="0 0 100 100" fill="none" xmlns="http://www.w3.org/2000/svg">
    <path fill-rule="evenodd" clip-rule="evenodd"
        d="M13 50C13 29.5655 29.5655 13 50 13C70.4345 13 87 29.5655 87 50C87 70.4345 70.4345 87 50 87C29.5655 87 13 70.4345 13 50ZM50 5C25.1472 5 5 25.1472 5 50C5 74.8528 25.1472 95 50 95C74.8528 95 95 74.8528 95 50C95 25.1472 74.8528 5 50 5ZM54 25C54 22.7909 52.2091 21 50 21C47.7909 21 46 22.7909 46 25V50C46 51.5151 46.856 52.9001 48.2111 53.5777L64.2111 61.5777C66.1871 62.5657 68.5898 61.7648 69.5777 59.7889C70.5657 57.8129 69.7648 55.4102 67.7889 54.4223L54 47.5279V25Z"
        fill="currentcolor" />
</svg>