<svg width="100" height="100" viewBox="0 0 100 100" fill="none" xmlns="http://www.w3.org/2000/svg">
    <path fill-rule="evenodd" clip-rule="evenodd"
        d="M50 13C29.5655 13 13 29.5655 13 50C13 70.4345 29.5655 87 50 87C51.5308 87 53.0382 86.9072 54.5172 86.7274C56.7102 86.4608 58.7041 88.0224 58.9708 90.2154C59.2374 92.4084 57.6758 94.4023 55.4828 94.6689C53.6842 94.8876 51.8543 95 50 95C25.1472 95 5 74.8528 5 50C5 25.1472 25.1472 5 50 5C74.8528 5 95 25.1472 95 50C95 51.8543 94.8876 53.6842 94.6689 55.4828C94.4023 57.6758 92.4084 59.2374 90.2154 58.9708C88.0224 58.7041 86.4608 56.7102 86.7274 54.5172C86.9072 53.0382 87 51.5308 87 50C87 29.5655 70.4345 13 50 13ZM50 21C52.2091 21 54 22.7909 54 25V44C54 46.2091 52.2091 48 50 48C47.7909 48 46 46.2091 46 44V25C46 22.7909 47.7909 21 50 21ZM58.281 55.0722C59.1118 54.9064 59.9268 55.0314 60.6611 55.3921L97.7141 72.8953L97.7596 72.9198C98.4469 73.289 99.038 73.8227 99.4434 74.5384C99.8086 75.1829 100 75.8937 100 76.64C100 77.5418 99.6732 78.3458 99.1356 79.0014C98.537 79.7312 97.7395 80.1486 96.8891 80.3222L83.6649 83.7041L80.2667 96.9301C80.0581 97.8021 79.5607 98.5091 78.8936 99.0299C78.3352 99.4659 77.6994 99.7864 76.9931 99.949L76.7716 100H76.3618C75.618 100 74.8706 99.8087 74.2071 99.3558C73.5941 98.9374 73.1488 98.3755 72.8391 97.7575L72.8294 97.7383L55.2056 60.604L55.1574 60.4117C54.9712 59.6686 54.9303 58.8742 55.1436 58.0837C55.3361 57.3703 55.6963 56.7219 56.2327 56.1869C56.7848 55.6361 57.4725 55.2335 58.281 55.0722ZM75.4006 84.1314L67.3498 67.2414L84.401 75.3311L79.334 76.6732L79.3034 76.6824C78.7311 76.8537 78.2153 77.1367 77.7627 77.5085C77.1328 78.026 76.7495 78.706 76.5673 79.433L75.4006 84.1314Z"
        fill="currentcolor" />
</svg>