<svg width="100" height="100" viewBox="0 0 100 100" fill="none" xmlns="http://www.w3.org/2000/svg">
    <path fill-rule="evenodd" clip-rule="evenodd"
        d="M11.1091 5.45227C9.54703 3.89018 7.01437 3.89018 5.45227 5.45227C3.89018 7.01437 3.89018 9.54703 5.45227 11.1091L15.4771 21.1339C8.93993 28.945 5 39.0154 5 50C5 74.8528 25.1472 95 50 95C60.9846 95 71.055 91.0601 78.8661 84.5229L88.8909 94.5477C90.453 96.1098 92.9856 96.1098 94.5477 94.5477C96.1098 92.9856 96.1098 90.453 94.5477 88.8909L82.0423 76.3855C81.9743 76.306 81.9028 76.2286 81.8276 76.1535C81.753 76.0789 81.6762 76.0079 81.5973 75.9405L24.0595 18.4027C23.9921 18.3238 23.9211 18.247 23.8465 18.1724C23.7714 18.0972 23.694 18.0256 23.6145 17.9577L11.1091 5.45227ZM21.1609 26.8177C16.0529 33.1627 13 41.222 13 50C13 70.4345 29.5655 87 50 87C58.778 87 66.8373 83.9471 73.1823 78.8391L21.1609 26.8177ZM50 13C45.1162 13 40.4627 13.9441 36.2049 15.6561C34.1553 16.4803 31.8256 15.4868 31.0014 13.4372C30.1773 11.3875 31.1707 9.05784 33.2204 8.23369C38.411 6.14661 44.0765 5 50 5C74.8528 5 95 25.1472 95 50C95 55.9374 93.848 61.6156 91.7516 66.8161C90.9257 68.8651 88.5951 69.8565 86.5462 69.0305C84.4973 68.2046 83.5058 65.874 84.3318 63.8251C86.0514 59.5592 87 54.8953 87 50C87 29.5655 70.4345 13 50 13ZM50 21C52.2091 21 54 22.7909 54 25V27.2812C54 29.4904 52.2091 31.2812 50 31.2812C47.7909 31.2812 46 29.4904 46 27.2812V25C46 22.7909 47.7909 21 50 21Z"
        fill="currentcolor" />
</svg>