<svg width="100" height="100" viewBox="0 0 100 100" fill="none" xmlns="http://www.w3.org/2000/svg">
    <path fill-rule="evenodd" clip-rule="evenodd"
        d="M13 50C13 29.5655 29.5655 13 50 13C70.4345 13 87 29.5655 87 50C87 70.4345 70.4345 87 50 87C36.3648 87 24.4455 79.6247 18.0254 68.6314L31 55.6569L40.1716 64.8284C41.7337 66.3905 44.2663 66.3905 45.8284 64.8284L63 47.6569V54C63 56.2091 64.7909 58 67 58C69.2091 58 71 56.2091 71 54V38C71 35.7909 69.2091 34 67 34H51C48.7909 34 47 35.7909 47 38C47 40.2091 48.7909 42 51 42H57.3431L43 56.3431L33.8284 47.1716C33.0783 46.4214 32.0609 46 31 46C29.9391 46 28.9217 46.4214 28.1716 47.1716L11.063 64.2802C9.24501 65.3084 8.51251 67.5856 9.43154 69.4949C16.6912 84.577 32.1245 95 50 95C74.8528 95 95 74.8528 95 50C95 25.1472 74.8528 5 50 5C25.1472 5 5 25.1472 5 50C5 52.2091 6.79086 54 9 54C11.2091 54 13 52.2091 13 50Z"
        fill="currentcolor" />
</svg>