<svg width="100" height="100" viewBox="0 0 100 100" fill="none" xmlns="http://www.w3.org/2000/svg">
    <path fill-rule="evenodd" clip-rule="evenodd"
        d="M88.5306 10.3046C90.0253 10.9237 90.9999 12.3823 90.9999 14.0001V82.0001C90.9999 83.618 90.0253 85.0765 88.5306 85.6956C87.0386 86.3137 85.3216 85.9738 84.1776 84.8347L84.1714 84.8285L84.1548 84.8124C84.1301 84.7885 84.0864 84.7463 84.0236 84.6872C83.8981 84.569 83.6967 84.3829 83.4202 84.1387C82.867 83.6501 82.0142 82.9294 80.8677 82.0531C78.5737 80.2998 75.1121 77.9296 70.531 75.5497C63.7563 72.0304 54.5342 68.4895 43 66.8867V86C43 88.2091 41.2091 90 39 90H23C20.7909 90 19 88.2091 19 86V66H8C5.79086 66 4 64.2091 4 62V34C4 31.7909 5.79086 30 8 30H30L30.0305 30.0001C47.7714 29.9946 61.3825 25.2029 70.5309 20.4505C75.1121 18.0707 78.5737 15.7005 80.8677 13.9471C82.0142 13.0708 82.867 12.3501 83.4202 11.8615C83.6967 11.6173 83.8981 11.4312 84.0236 11.313C84.0864 11.2539 84.1302 11.2118 84.1548 11.1878L84.1738 11.1694C85.3178 10.0272 87.0369 9.68589 88.5306 10.3046ZM27 66V82H35V66.1284C33.3716 66.0443 31.7049 66.0001 30 66.0001L29.9692 66H27ZM82.9999 22.2825C80.6608 23.8985 77.7287 25.7265 74.2189 27.5497C64.8334 32.4253 51.3156 37.2669 34 37.9245V58.0757C51.3157 58.7334 64.8335 63.5749 74.2189 68.4505C77.7287 70.2738 80.6608 72.1017 82.9999 73.7177V22.2825ZM12 38V58H26V38H12Z"
        fill="currentcolor" />
</svg>