<svg width="100" height="100" viewBox="0 0 100 100" fill="none" xmlns="http://www.w3.org/2000/svg">
    <path fill-rule="evenodd" clip-rule="evenodd"
        d="M5.45233 5.45227C7.01443 3.89018 9.54709 3.89018 11.1092 5.45227L94.5478 88.8909C96.1099 90.453 96.1099 92.9856 94.5478 94.5477C92.9857 96.1098 90.453 96.1098 88.8909 94.5477L68.3432 74H61.5C60.3619 74 59.4336 73.6556 58.7148 72.9668C57.9961 72.278 57.6367 71.3646 57.6367 70.2266C57.6367 69.0287 57.9961 68.0853 58.7148 67.3965C59.2709 66.8636 59.9524 66.5368 60.7594 66.4162L49.2065 54.8633H34.6367C33.4987 54.8633 32.5853 54.5189 31.8965 53.8301C31.2077 53.1412 30.8633 52.1979 30.8633 51C30.8633 49.8619 31.2077 48.9486 31.8965 48.2598C32.5853 47.5709 33.4987 47.2266 34.6367 47.2266H41.5698L30.0698 35.7266H27C22.8073 35.7266 19.1986 37.224 16.1738 40.2187C13.1491 43.2135 11.6367 46.8073 11.6367 51C11.6367 55.2526 13.1491 58.8763 16.1738 61.8711C19.1986 64.8659 22.8073 66.3633 27 66.3633H38.5C39.6381 66.3633 40.5664 66.7077 41.2852 67.3965C42.0039 68.0853 42.3633 69.0287 42.3633 70.2266C42.3633 71.3646 42.0039 72.278 41.2852 72.9668C40.5664 73.6556 39.6381 74 38.5 74H27C23.8256 74 20.8607 73.401 18.1055 72.2031C15.2904 71.0052 12.8346 69.358 10.7383 67.2617C8.64193 65.1654 6.99479 62.7396 5.79688 59.9844C4.59896 57.1693 4 54.1744 4 51C4 47.8854 4.59896 44.9205 5.79688 42.1055C6.99479 39.2904 8.64193 36.8496 10.7383 34.7832C12.8346 32.7168 15.2904 31.0846 18.1055 29.8867C19.5907 29.2087 21.1369 28.7134 22.744 28.4008L5.45233 11.1091C3.89024 9.54703 3.89024 7.01437 5.45233 5.45227ZM61.5 28H73C76.1744 28 79.1393 28.6289 81.8945 29.8867C84.7096 31.0846 87.1654 32.7168 89.2617 34.7832C91.358 36.8496 93.0052 39.2904 94.2031 42.1055C95.4007 44.9205 96 47.8854 96 51C96 54.1744 95.4007 57.1693 94.2031 59.9844C93.0458 62.6464 91.469 65.0009 89.4729 67.0478C88.7684 67.9696 87.6575 68.5642 86.4077 68.5642C84.2783 68.5642 82.552 66.8379 82.552 64.7085C82.552 63.4902 83.117 62.404 83.9992 61.6974C86.9086 58.7365 88.3633 55.1707 88.3633 51C88.3633 46.8073 86.8509 43.2135 83.8262 40.2187C80.8014 37.224 77.1927 35.7266 73 35.7266H61.5C60.3619 35.7266 59.4336 35.3672 58.7148 34.6484C57.9961 33.9297 57.6367 33.0013 57.6367 31.8633C57.6367 30.7252 57.9961 29.7969 58.7148 29.0781C59.4336 28.3594 60.3619 28 61.5 28Z"
        fill="currentcolor" />
</svg>