<svg width="100" height="100" viewBox="0 0 100 100" fill="none" xmlns="http://www.w3.org/2000/svg">
    <path
        d="M38.5 66.3633H27C22.8073 66.3633 19.1986 64.8659 16.1738 61.8711C13.1491 58.8763 11.6367 55.2526 11.6367 51C11.6367 46.8073 13.1491 43.2135 16.1738 40.2188C19.1986 37.224 22.8073 35.7266 27 35.7266H38.5C39.6381 35.7266 40.5664 35.3672 41.2852 34.6484C42.0039 33.9297 42.3633 33.0013 42.3633 31.8633C42.3633 30.7252 42.0039 29.7969 41.2852 29.0781C40.5664 28.3594 39.6381 28 38.5 28H27C23.8256 28 20.8607 28.6289 18.1055 29.8867C15.2904 31.0846 12.8346 32.7168 10.7383 34.7832C8.64193 36.8496 6.99479 39.2904 5.79688 42.1055C4.59896 44.9205 4 47.8854 4 51C4 54.1744 4.59896 57.1693 5.79688 59.9844C6.99479 62.7396 8.64193 65.1654 10.7383 67.2617C12.8346 69.358 15.2904 71.0052 18.1055 72.2031C20.8607 73.401 23.8256 74 27 74H38.5C39.6381 74 40.5664 73.6556 41.2852 72.9668C42.0039 72.278 42.3633 71.3646 42.3633 70.2266C42.3633 69.0287 42.0039 68.0853 41.2852 67.3965C40.5664 66.7077 39.6381 66.3633 38.5 66.3633ZM73 28H61.5C60.3619 28 59.4336 28.3594 58.7148 29.0781C57.9961 29.7969 57.6367 30.7252 57.6367 31.8633C57.6367 33.0013 57.9961 33.9297 58.7148 34.6484C59.4336 35.3672 60.3619 35.7266 61.5 35.7266H73C77.1927 35.7266 80.8014 37.224 83.8262 40.2188C86.8509 43.2135 88.3633 46.8073 88.3633 51C88.3633 55.2526 86.8509 58.8763 83.8262 61.8711C80.8014 64.8659 77.1927 66.3633 73 66.3633H61.5C60.3619 66.3633 59.4336 66.7077 58.7148 67.3965C57.9961 68.0853 57.6367 69.0287 57.6367 70.2266C57.6367 71.3646 57.9961 72.278 58.7148 72.9668C59.4336 73.6556 60.3619 74 61.5 74H73C76.1744 74 79.1393 73.401 81.8945 72.2031C84.7096 71.0052 87.1654 69.358 89.2617 67.2617C91.358 65.1654 93.0052 62.7396 94.2031 59.9844C95.4007 57.1693 96 54.1744 96 51C96 47.8854 95.4007 44.9205 94.2031 42.1055C93.0052 39.2904 91.358 36.8496 89.2617 34.7832C87.1654 32.7168 84.7096 31.0846 81.8945 29.8867C79.1393 28.6289 76.1744 28 73 28ZM30.8633 51C30.8633 52.1979 31.2077 53.1412 31.8965 53.8301C32.5853 54.5189 33.4987 54.8633 34.6367 54.8633H65.3633C66.5013 54.8633 67.4147 54.5189 68.1035 53.8301C68.7923 53.1412 69.1367 52.1979 69.1367 51C69.1367 49.8619 68.7923 48.9486 68.1035 48.2598C67.4147 47.5709 66.5013 47.2266 65.3633 47.2266H34.6367C33.4987 47.2266 32.5853 47.5709 31.8965 48.2598C31.2077 48.9486 30.8633 49.8619 30.8633 51Z"
        fill="currentcolor" />
</svg>