<svg width="100" height="100" viewBox="0 0 100 100" fill="none" xmlns="http://www.w3.org/2000/svg">
    <path fill-rule="evenodd" clip-rule="evenodd"
        d="M12 15C5.37258 15 0 20.3726 0 27V73C0 79.6274 5.37258 85 12 85H88C94.6274 85 100 79.6274 100 73V27C100 20.3726 94.6274 15 88 15H12ZM8 27C8 24.7909 9.79086 23 12 23H88C90.2091 23 92 24.7909 92 27V73C92 75.2091 90.2091 77 88 77H12C9.79086 77 8 75.2091 8 73V27ZM41.165 30.6365C39.9343 29.8444 38.3691 29.7876 37.0843 30.4886C35.7994 31.1896 35 32.5364 35 34V66C35 67.4865 35.8243 68.8504 37.1404 69.5415C38.4565 70.2325 40.0472 70.1368 41.2709 69.2929L65.2709 52.7411C66.3721 51.9817 67.0208 50.7221 66.9995 49.3846C66.9782 48.0471 66.2898 46.8088 65.165 46.0848L41.165 30.6365ZM43 58.3824V41.3317L55.788 49.5631L43 58.3824Z"
        fill="currentcolor" />
</svg>