<svg width="100" height="100" viewBox="0 0 100 100" fill="none" xmlns="http://www.w3.org/2000/svg">
    <path fill-rule="evenodd" clip-rule="evenodd"
        d="M11.1091 5.45227C9.54703 3.89018 7.01437 3.89018 5.45227 5.45227C3.89018 7.01437 3.89018 9.54703 5.45227 11.1091L9.58603 15.2429C4.11562 16.3601 0 21.1994 0 27V73C0 79.6274 5.37258 85 12 85H79.3431L88.8909 94.5477C90.453 96.1098 92.9856 96.1098 94.5477 94.5477C96.1098 92.9856 96.1098 90.453 94.5477 88.8909L58.1241 52.4672C57.9344 52.2296 57.7222 52.0188 57.4926 51.8358L41.8307 36.1738C41.8292 36.1723 41.8277 36.1708 41.8262 36.1693L11.1091 5.45227ZM35 40.6569L17.3431 23H12C9.79086 23 8 24.7909 8 27V73C8 75.2091 9.79086 77 12 77H71.3431L54.5074 60.1643L53.2709 61.017L41.2709 69.2928C40.0472 70.1368 38.4565 70.2325 37.1404 69.5415C35.8243 68.8504 35 67.4865 35 66V40.6569ZM48.7559 54.4128L43 48.6569V58.3824L48.7291 54.4313L48.7559 54.4128ZM88 15H42C39.7909 15 38 16.7909 38 19C38 21.2091 39.7909 23 42 23H88C90.2091 23 92 24.7909 92 27V73C92 75.2091 93.7909 77 96 77C98.2091 77 100 75.2091 100 73V27C100 20.3726 94.6274 15 88 15Z"
        fill="currentcolor" />
</svg>