<svg width="100" height="100" viewBox="0 0 100 100" fill="none" xmlns="http://www.w3.org/2000/svg">
    <g clip-path="url(#clip0_1998_12)">
        <path fill-rule="evenodd" clip-rule="evenodd"
            d="M96 49C99.6288 50.6829 99.6281 50.6843 99.6274 50.6858L99.6257 50.6896L99.6211 50.6994L99.6075 50.7284C99.5964 50.7519 99.5814 50.7837 99.5624 50.8234C99.5244 50.9029 99.4706 51.0143 99.401 51.1555C99.2619 51.4378 99.0595 51.8398 98.7942 52.3442C98.264 53.3525 97.4809 54.7737 96.448 56.4704C94.3874 59.8557 91.3067 64.3813 87.2253 68.9235C79.1279 77.9351 66.6314 87.5 50 87.5C33.3686 87.5 20.8721 77.9351 12.7747 68.9235C8.69328 64.3813 5.61259 59.8557 3.55196 56.4704C2.51914 54.7737 1.73602 53.3525 1.20579 52.3442C0.94052 51.8398 0.738103 51.4378 0.598963 51.1555C0.529381 51.0143 0.475581 50.9029 0.437621 50.8234C0.418639 50.7837 0.403613 50.7519 0.39255 50.7284L0.378926 50.6994L0.374343 50.6896L0.372609 50.6858C0.371898 50.6843 0.371247 50.6829 4 49C0.400744 47.2549 0.401433 47.2535 0.402184 47.2519L0.403997 47.2482L0.408738 47.2385L0.422681 47.2101C0.433959 47.1871 0.449203 47.1563 0.468406 47.1179C0.506809 47.041 0.561063 46.9335 0.631114 46.7976C0.771189 46.5257 0.974597 46.1393 1.24091 45.6549C1.77323 44.6867 2.5587 43.3233 3.5941 41.6962C5.66004 38.4498 8.74682 34.1128 12.8346 29.7613C20.9574 21.1144 33.439 12 50 12C66.561 12 79.0426 21.1144 87.1654 29.7613C91.2532 34.1128 94.34 38.4498 96.4059 41.6962C97.4413 43.3233 98.2268 44.6867 98.7591 45.6549C99.0254 46.1393 99.2288 46.5257 99.3689 46.7976C99.4389 46.9335 99.4932 47.041 99.5316 47.1179C99.5426 47.1399 99.5523 47.1594 99.5607 47.1763C99.5669 47.189 99.5725 47.2002 99.5773 47.2101L99.5913 47.2385L99.596 47.2482L99.5978 47.2519C99.5986 47.2535 99.5993 47.2549 96 49ZM4 49L0.371247 50.6829C-0.133882 49.5937 -0.123053 48.3352 0.400744 47.2549L4 49ZM99.6288 50.6829L96 49L99.5993 47.2549C100.123 48.3352 100.134 49.5937 99.6288 50.6829ZM41 50C41 45.0294 45.0294 41 50 41C54.9706 41 59 45.0294 59 50C59 54.9706 54.9706 59 50 59C45.0294 59 41 54.9706 41 50ZM50 33C40.6112 33 33 40.6112 33 50C33 59.3888 40.6112 67 50 67C59.3888 67 67 59.3888 67 50C67 40.6112 59.3888 33 50 33Z"
            fill="currentcolor" />
    </g>
</svg>