<svg width="100" height="100" viewBox="0 0 100 100" fill="none" xmlns="http://www.w3.org/2000/svg">
    <g clip-path="url(#clip0_1998_12)">
        <path fill-rule="evenodd" clip-rule="evenodd"
            d="M11.1091 5.45227C9.54703 3.89018 7.01437 3.89018 5.45227 5.45227C3.89018 7.01437 3.89018 9.54703 5.45227 11.1091L18.6108 24.2677C13.1471 28.8806 8.91582 34.0193 5.93641 38.215C4.13083 40.7576 2.76337 42.9847 1.84109 44.5884C1.3795 45.391 1.02814 46.0396 0.788 46.4963C0.667894 46.7246 0.575497 46.9052 0.510938 47.0332C0.478655 47.0972 0.453322 47.148 0.434953 47.1852L0.412623 47.2305L0.405377 47.2454L0.402734 47.2508L0.401657 47.253C0.401187 47.254 0.400744 47.2549 4 49L0.400744 47.2549C-0.123053 48.3352 -0.133882 49.5937 0.371248 50.6829L4 49C0.371248 50.6829 0.371898 50.6843 0.37261 50.6858L0.374343 50.6896L0.378926 50.6994L0.39255 50.7284C0.403613 50.7519 0.418639 50.7837 0.437621 50.8234C0.475582 50.9029 0.529381 51.0143 0.598964 51.1555C0.738103 51.4378 0.94052 51.8398 1.20579 52.3442C1.73602 53.3525 2.51914 54.7737 3.55196 56.4704C5.61259 59.8557 8.69328 64.3813 12.7747 68.9235C20.8721 77.9351 33.3686 87.5 50 87.5C59.4847 87.5 67.6416 84.3784 74.3814 80.0382L88.8909 94.5477C90.453 96.1098 92.9856 96.1098 94.5477 94.5477C96.1098 92.9856 96.1098 90.453 94.5477 88.8909L62.0241 56.3673C62.023 56.3662 62.0219 56.3651 62.0208 56.364C62.0197 56.3629 62.0186 56.3617 62.0175 56.3606L43.6394 37.9825C43.6383 37.9814 43.6371 37.9803 43.636 37.9792C43.6349 37.9781 43.6338 37.977 43.6327 37.9759L11.1091 5.45227ZM35.4854 41.1423L24.2907 29.9475C19.2519 34.0977 15.2845 38.8681 12.4591 42.8468C10.8238 45.1498 9.59236 47.1572 8.77599 48.5767C8.682 48.7402 8.59359 48.8957 8.51075 49.0428C8.96432 49.8878 9.59019 51.0042 10.3855 52.3108C12.2624 55.3943 15.0567 59.4937 18.7253 63.5765C26.1279 71.8149 36.6314 79.5 50 79.5C56.9881 79.5 63.1789 77.4092 68.5695 74.2264L58.8577 64.5146C52.3117 68.5168 43.6439 67.6855 37.9792 62.0208C32.3145 56.3561 31.4832 47.6883 35.4854 41.1423ZM52.874 58.5309L41.4691 47.126C40.415 50.2628 41.1373 53.8652 43.636 56.364C46.1348 58.8627 49.7372 59.585 52.874 58.5309ZM50 20C46.8208 20 43.8204 20.4108 40.9946 21.1362C38.8548 21.6855 36.6749 20.3962 36.1256 18.2564C35.5763 16.1167 36.8657 13.9368 39.0054 13.3875C42.4547 12.502 46.1231 12 50 12C66.561 12 79.0426 21.1144 87.1654 29.7613C91.2532 34.1128 94.34 38.4498 96.4059 41.6962C97.4413 43.3233 98.2268 44.6867 98.7591 45.6549C99.0254 46.1393 99.2288 46.5257 99.3689 46.7976C99.4389 46.9335 99.4932 47.041 99.5316 47.1179C99.5508 47.1563 99.566 47.1871 99.5773 47.2101L99.5913 47.2385L99.596 47.2482L99.5978 47.2519C99.5986 47.2535 99.5993 47.2549 96 49C99.6288 50.6829 99.6285 50.6835 99.6282 50.6841L99.6276 50.6855L99.626 50.6887L99.6221 50.6971L99.6107 50.7215L99.5735 50.8001C99.5423 50.8657 99.4983 50.9571 99.4416 51.0729C99.3281 51.3046 99.1637 51.6341 98.9484 52.049C98.5182 52.8784 97.8839 54.0516 97.0479 55.4693C95.3792 58.2993 92.89 62.1319 89.5958 66.158C88.1969 67.8678 85.6768 68.1198 83.967 66.7208C82.2572 65.3219 82.0053 62.8018 83.4042 61.092C86.3829 57.4515 88.6438 53.9716 90.1568 51.4058C90.6999 50.4847 91.1445 49.6852 91.4893 49.0428C91.0406 48.2458 90.4288 47.2048 89.6566 45.9913C87.785 43.0502 84.9968 39.1372 81.3346 35.2387C73.9574 27.3856 63.439 20 50 20ZM96 49L99.5993 47.2549C100.123 48.3352 100.134 49.5937 99.6288 50.6829L96 49Z"
            fill="currentcolor" />
    </g>
</svg>