<svg width="100" height="100" viewBox="0 0 100 100" fill="none" xmlns="http://www.w3.org/2000/svg">
    <g clip-path="url(#clip0_1998_12)">
        <path fill-rule="evenodd" clip-rule="evenodd"
            d="M10.3434 45.9913C9.57115 47.2048 8.9594 48.2458 8.51075 49.0428C8.96432 49.8878 9.59019 51.0042 10.3855 52.3108C12.2624 55.3943 15.0567 59.4937 18.7253 63.5765C26.1279 71.8149 36.6314 79.5 50 79.5C63.3686 79.5 73.8721 71.8149 81.2747 63.5765C84.9433 59.4937 87.7376 55.3943 89.6145 52.3108C90.4098 51.0042 91.0357 49.8878 91.4893 49.0428C90.9568 48.0969 90.195 46.8081 89.2083 45.2956C87.5343 42.7295 85.234 39.5521 82.3324 36.3245L52.8284 65.8284C51.2663 67.3905 48.7337 67.3905 47.1716 65.8284L28.1716 46.8284C26.6095 45.2663 26.6095 42.7337 28.1716 41.1716C29.7337 39.6095 32.2663 39.6095 33.8284 41.1716L50 57.3431L79.3646 27.9786C79.4207 27.9138 79.4793 27.8503 79.5403 27.7884C79.6161 27.7115 79.6941 27.6383 79.7743 27.5688L90.1716 17.1716C91.7337 15.6095 94.2663 15.6095 95.8284 17.1716C97.3905 18.7337 97.3905 21.2663 95.8284 22.8284L87.9963 30.6605C91.3724 34.3739 94.0137 38.0198 95.9087 40.9246C97.1073 42.762 98.0162 44.3166 98.6314 45.4238C98.9391 45.9778 99.174 46.4209 99.3353 46.7326C99.416 46.8885 99.4784 47.0117 99.5224 47.0995C99.5444 47.1435 99.5618 47.1786 99.5746 47.2046L99.5904 47.2367L99.5957 47.2476L99.5977 47.2517L99.5985 47.2534C99.5989 47.2542 99.5993 47.2549 96 49C99.6288 50.6829 99.6281 50.6843 99.6274 50.6858L99.6257 50.6896L99.6211 50.6994L99.6075 50.7284C99.5964 50.7519 99.5814 50.7837 99.5624 50.8234C99.5244 50.9029 99.4706 51.0143 99.401 51.1555C99.2619 51.4378 99.0595 51.8398 98.7942 52.3442C98.264 53.3525 97.4809 54.7737 96.448 56.4704C94.3874 59.8557 91.3067 64.3813 87.2253 68.9235C79.1279 77.9351 66.6314 87.5 50 87.5C33.3686 87.5 20.8721 77.9351 12.7747 68.9235C8.69328 64.3813 5.61259 59.8557 3.55196 56.4704C2.51914 54.7737 1.73602 53.3525 1.20579 52.3442C0.94052 51.8398 0.738103 51.4378 0.598963 51.1555C0.529381 51.0143 0.475581 50.9029 0.437621 50.8234C0.418639 50.7837 0.403613 50.7519 0.39255 50.7284L0.378926 50.6994L0.374343 50.6896L0.372609 50.6858C0.371897 50.6843 0.371247 50.6829 4 49C0.400743 47.2549 0.401433 47.2535 0.402184 47.2519L0.403996 47.2482L0.408737 47.2385L0.422681 47.2101C0.433959 47.1871 0.449203 47.1563 0.468406 47.1179C0.506809 47.041 0.561063 46.9335 0.631114 46.7976C0.771188 46.5257 0.974597 46.1393 1.24091 45.6549C1.77323 44.6867 2.5587 43.3233 3.5941 41.6962C5.66004 38.4498 8.74682 34.1128 12.8346 29.7613C20.9574 21.1144 33.439 12 50 12C57.9151 12 64.9258 14.0909 70.9645 17.2235C72.9255 18.2407 73.6906 20.6551 72.6733 22.6161C71.656 24.5771 69.2417 25.3421 67.2807 24.3248C62.2146 21.6968 56.4585 20 50 20C36.561 20 26.0426 27.3856 18.6654 35.2387C15.0032 39.1372 12.215 43.0502 10.3434 45.9913ZM96 49L99.5993 47.2549C100.123 48.3352 100.134 49.5937 99.6288 50.6829L96 49ZM0.400743 47.2549L4 49L0.371247 50.6829C-0.133882 49.5937 -0.123054 48.3352 0.400743 47.2549Z"
            fill="currentcolor" />
    </g>
</svg>