<svg width="100" height="100" viewBox="0 0 100 100" fill="none" xmlns="http://www.w3.org/2000/svg">
    <g clip-path="url(#clip0_1998_12)">
        <g clip-path="url(#clip1_1998_12)">
            <path
                d="M97.9093 25.9319C96.7571 21.6266 93.3735 18.2433 89.0683 17.0909C81.273 15 50 15 50 15C50 15 18.7274 15 10.9319 17.0909C6.62664 18.2433 3.24334 21.6266 2.09089 25.9319C6.2588e-07 33.7274 0 50.0017 0 50.0017C0 50.0017 6.2588e-07 66.2762 2.09089 74.0718C3.24334 78.377 6.62664 81.7602 10.9319 82.9125C18.7274 85.0035 50 85.0035 50 85.0035C50 85.0035 81.273 85.0035 89.0683 82.9125C93.3735 81.7602 96.7571 78.377 97.9093 74.0718C100 66.2762 100 50.0017 100 50.0017C100 50.0017 99.9919 33.7274 97.9093 25.9319Z"
                fill="#FF0000" />
            <path d="M39.9905 65.0014L65.9702 50.0032L39.9905 35.0047V65.0014Z" fill="white" />
        </g>
    </g>
</svg>