<svg width="100" height="100" viewBox="0 0 100 100" fill="none" xmlns="http://www.w3.org/2000/svg">
    <g clip-path="url(#clip0_1998_12)">
        <path fill-rule="evenodd" clip-rule="evenodd"
            d="M7 25C4.79086 25 3 26.7909 3 29V49C3 51.2091 4.79086 53 7 53H10.0548C10.1169 53.0418 10.1837 53.0894 10.2538 53.1432C10.7186 53.4995 11.3457 54.1345 11.7861 55.2356C12.0022 55.7759 11.9878 56.8301 11.5109 58.2871C11.3011 58.9282 11.051 59.4958 10.8518 59.9033C10.7537 60.1039 10.672 60.2574 10.6199 60.3524C10.5939 60.3997 10.5756 60.4319 10.5666 60.4475L10.5615 60.4563C10.5208 60.5248 10.4821 60.5946 10.4455 60.6654L2.44552 76.1654C1.94628 77.1327 1.86281 78.2616 2.21434 79.2918C2.56588 80.322 3.32207 81.1644 4.30846 81.6247L19.3085 88.6247C21.2413 89.5267 23.5419 88.7534 24.5375 86.867L35.5507 66H52C52.1684 66 52.3344 65.9896 52.4974 65.9694C54.0903 66.1708 55.7151 65.3948 56.5219 63.8964L62.3892 53H96C98.2091 53 100 51.2091 100 49V29C100 26.7909 98.2091 25 96 25H7ZM50.6108 58L53.3031 53H42.4118L39.7729 58H50.6108ZM59.9261 45C59.9776 44.999 60.0292 44.999 60.0809 45L92 45V33H11V45L40 45H59.9261ZM33.366 53H19.4733C20.3861 55.9728 19.7128 58.9459 19.1141 60.7754C18.7614 61.853 18.3553 62.7698 18.0388 63.417C17.8791 63.7438 17.7381 64.0101 17.6321 64.2032C17.5832 64.2922 17.5415 64.3662 17.5084 64.4238L11.4636 76.1356L19.2402 79.7646L33.366 53Z"
            fill="currentColor" />
    </g>
</svg>