<svg width="100" height="100" viewBox="0 0 100 100" fill="none" xmlns="http://www.w3.org/2000/svg">
    <g clip-path="url(#clip0_1998_12)">
        <path fill-rule="evenodd" clip-rule="evenodd"
            d="M19.0001 20.5C19.0001 17.4624 21.4626 15 24.5001 15C27.5377 15 30.0001 17.4624 30.0001 20.5C30.0001 23.5376 27.5377 26 24.5001 26C21.4626 26 19.0001 23.5376 19.0001 20.5ZM24.5001 7C17.0443 7 11.0001 13.0442 11.0001 20.5C11.0001 27.9558 17.0443 34 24.5001 34C31.956 34 38.0001 27.9558 38.0001 20.5C38.0001 13.0442 31.956 7 24.5001 7ZM79.0726 17.0007C80.7495 17.031 82.2294 18.1044 82.7792 19.6889L99.7792 68.6889C100.503 70.776 99.3983 73.0549 97.3112 73.779C95.2241 74.5031 92.9452 73.3982 92.2211 71.3111L78.79 32.598L69.7292 55.9471C69.1572 57.4211 67.7707 58.4198 66.1915 58.4954C64.6122 58.571 63.1366 57.7094 62.4264 56.2968L55.4105 42.3426L43.0176 73.2361L70.8598 78.6571C72.1463 78.9075 73.2285 79.7724 73.7565 80.9721L79.6613 94.3887C80.5511 96.4107 79.6334 98.7712 77.6114 99.6611C75.5894 100.551 73.2289 99.6333 72.339 97.6113L67.2771 86.1097L35.8207 79.9851C34.7313 79.773 33.7789 79.1177 33.1915 78.1761L23.4032 62.4866L7.65032 97.6359C6.74683 99.6518 4.38017 100.554 2.36423 99.6502C0.348295 98.7467 -0.553529 96.38 0.349954 94.3641L19.1731 52.3641C19.7775 51.0155 21.0762 50.1101 22.5506 50.0093C24.0249 49.9086 25.4348 50.6289 26.217 51.8828L36.4098 68.2207L51.2877 31.1326C51.8733 29.6728 53.26 28.6917 54.8314 28.6254C56.4029 28.559 57.8673 29.4198 58.5739 30.825L65.5288 44.6579L75.2711 19.5529C75.8778 17.9893 77.3957 16.9703 79.0726 17.0007Z"
            fill="currentcolor" />
    </g>
</svg>