<svg width="100" height="100" viewBox="0 0 100 100" fill="none" xmlns="http://www.w3.org/2000/svg">
    <path fill-rule="evenodd" clip-rule="evenodd"
        d="M80.4558 11.8426C78.712 10.4863 76.1989 10.8004 74.8426 12.5442L67.8426 21.5442C66.4863 23.288 66.8004 25.8011 68.5442 27.1574C70.288 28.5137 72.8011 28.1996 74.1574 26.4558L81.1574 17.4558C82.5137 15.712 82.1996 13.1989 80.4558 11.8426ZM27.2 13.6C25.8745 11.8327 23.3673 11.4745 21.6 12.8C19.8327 14.1255 19.4745 16.6327 20.8 18.4L26.8 26.4C28.1255 28.1673 30.6327 28.5255 32.4 27.2C34.1673 25.8745 34.5255 23.3673 33.2 21.6L27.2 13.6ZM54.0777 16.5236C53.4001 15.1685 52.0151 14.3125 50.5 14.3125C48.9849 14.3125 47.5999 15.1685 46.9223 16.5236L37.7266 34.915L17.2816 37.9817C15.7717 38.2082 14.5224 39.2745 14.0616 40.7301C13.6007 42.1857 14.0087 43.7767 15.1131 44.8309L30.0813 59.1187L26.6794 79.5299C26.4294 81.0298 27.0515 82.5418 28.2847 83.4314C29.518 84.3211 31.149 84.4346 32.4935 83.7243L50.5 74.2114L68.5065 83.7243C69.851 84.4346 71.482 84.3211 72.7152 83.4314C73.9485 82.5418 74.5706 81.0298 74.3206 79.5299L70.9187 59.1187L85.8869 44.8309C86.9913 43.7767 87.3993 42.1857 86.9384 40.7301C86.4776 39.2745 85.2283 38.2082 83.7184 37.9817L63.2734 34.915L54.0777 16.5236ZM43.9527 40.3513L50.5 27.2568L57.0473 40.3513C57.6299 41.5165 58.7434 42.325 60.0316 42.5182L74.4567 44.682L63.8631 54.7941C62.9049 55.7087 62.4617 57.0384 62.6794 58.3451L65.1015 72.8776L52.3685 66.1507C51.1994 65.5331 49.8006 65.5331 48.6315 66.1507L35.8985 72.8776L38.3206 58.3451C38.5383 57.0384 38.0951 55.7087 37.1369 54.7941L26.5433 44.682L40.9684 42.5182C42.2566 42.325 43.3701 41.5165 43.9527 40.3513ZM54.5 88C54.5 85.7908 52.7091 84 50.5 84C48.2909 84 46.5 85.7908 46.5 88V89.0488V90.439V96C46.5 98.2091 48.2909 100 50.5 100C52.7091 100 54.5 98.2091 54.5 96V90.439V89.0488V88ZM80.3448 61.3754C81.242 59.3567 83.6058 58.4475 85.6246 59.3447L85.7513 59.4011L86.0048 59.5137L86.5119 59.7391L94.6245 63.3447C96.6433 64.242 97.5525 66.6058 96.6552 68.6245C95.758 70.6433 93.3942 71.5524 91.3754 70.6552L83.2628 67.0496L82.7557 66.8242L82.5022 66.7116L82.3754 66.6552C80.3567 65.758 79.4475 63.3942 80.3448 61.3754ZM15.5144 59.2861C17.5656 58.4656 19.8935 59.4633 20.7139 61.5144C21.5344 63.5656 20.5367 65.8934 18.4856 66.7139L18.3447 66.7702L18.063 66.8829L17.4996 67.1083L8.48556 70.7139C6.43443 71.5343 4.10654 70.5367 3.28609 68.4855C2.46564 66.4344 3.4633 64.1065 5.51444 63.2861L14.5285 59.6804L15.0919 59.4551L15.3736 59.3424L15.5144 59.2861Z"
        fill="currentColor" />
</svg>
