<svg width="100" height="100" viewBox="0 0 100 100" fill="none" xmlns="http://www.w3.org/2000/svg">
    <path fill-rule="evenodd" clip-rule="evenodd"
        d="M77.7108 22.1924L69.9326 14.4142L74.1752 10.1716C75.7373 8.60948 78.27 8.60948 79.8321 10.1716L89.7316 20.0711C91.2937 21.6332 91.2937 24.1658 89.7316 25.7279L85.489 29.9706L77.7108 22.1924ZM64.2758 20.0711L69.2255 25.0208L31.0934 63.1529L24.8238 59.5231L64.2758 20.0711ZM15.4952 57.5379L61.4339 11.5993L61.4473 11.5858L68.5184 4.51472C73.2047 -0.171574 80.8027 -0.171572 85.489 4.51472L95.3885 14.4142C100.075 19.1005 100.075 26.6985 95.3885 31.3848L88.3311 38.4422L88.3174 38.4559L42.3555 84.4178C41.9436 84.8297 41.4529 85.1409 40.9209 85.3387C40.8902 85.3501 40.8594 85.3611 40.8285 85.3717L8.31419 96.6811C6.86551 97.185 5.25626 96.8161 4.17168 95.7315C3.08711 94.6469 2.71823 93.0377 3.22212 91.589L14.5358 59.0621C14.5358 59.0621 14.5359 59.0621 14.5359 59.062C14.7316 58.4994 15.053 57.9802 15.4854 57.5478M20.5008 66.2643L13.4939 86.4093L33.6389 79.4024L28.8216 71.0816L20.5008 66.2643ZM40.3801 75.0795L79.8321 35.6275L74.8824 30.6777L36.7503 68.8098L40.3801 75.0795Z"
        fill="currentcolor" />
</svg>