<svg width="100" height="100" viewBox="0 0 100 100" fill="none" xmlns="http://www.w3.org/2000/svg">
    <path fill-rule="evenodd" clip-rule="evenodd"
        d="M17 50C17 31.7746 31.7746 17 50 17C68.2254 17 83 31.7746 83 50C83 68.2254 68.2254 83 50 83C31.7746 83 17 68.2254 17 50ZM50 9C27.3563 9 9 27.3563 9 50C9 72.6437 27.3563 91 50 91C72.6437 91 91 72.6437 91 50C91 27.3563 72.6437 9 50 9ZM43.8725 60.9983C44.3149 62.7086 46.311 65 51 65C55.689 65 57.6851 62.7086 58.1275 60.9983C58.6807 58.8596 60.8629 57.5742 63.0017 58.1275C65.1404 58.6807 66.4258 60.8629 65.8725 63.0017C64.3149 69.0234 58.4613 73 51 73C43.5387 73 37.6851 69.0234 36.1275 63.0017C35.5742 60.8629 36.8596 58.6807 38.9983 58.1275C41.1371 57.5742 43.3193 58.8596 43.8725 60.9983ZM45 39C45 42.866 41.866 46 38 46C34.134 46 31 42.866 31 39C31 35.134 34.134 32 38 32C41.866 32 45 35.134 45 39ZM63 46C66.866 46 70 42.866 70 39C70 35.134 66.866 32 63 32C59.134 32 56 35.134 56 39C56 42.866 59.134 46 63 46Z"
        fill="currentcolor" />
</svg>