<svg width="100" height="100" viewBox="0 0 100 100" fill="none" xmlns="http://www.w3.org/2000/svg">
    <path fill-rule="evenodd" clip-rule="evenodd"
        d="M58.9166 29.1617C61.1036 29.1359 62.8685 27.3551 62.8685 25.162C62.8685 21.5213 59.8492 19.4838 57.9212 18.59C55.6595 17.5415 52.816 17 49.8904 17C46.9649 17 44.1214 17.5415 41.8597 18.59C39.9317 19.4838 36.9124 21.5213 36.9124 25.162C36.9124 27.3551 38.6773 29.1359 40.8643 29.1617L40.8687 29.1619L40.8845 29.1627L40.9052 29.164C40.9702 29.1683 41.0871 29.1786 41.2367 29.2017C41.556 29.2511 41.9156 29.3422 42.2227 29.4846C42.5215 29.6231 42.6549 29.7547 42.7149 29.8382L42.7155 29.839C42.7426 29.8767 42.8544 30.0321 42.8881 30.4542C42.8147 30.4896 42.7174 30.5311 42.5915 30.5748C42.209 30.7078 41.7697 30.7905 41.3871 30.8348C41.2061 30.8558 41.0607 30.8656 40.9711 30.87C40.9476 30.8712 40.9284 30.872 40.9139 30.8725L40.8916 30.8732H10.9854C9.54628 30.8732 8.2181 31.6462 7.50732 32.8976C6.79654 34.1489 6.81275 35.6856 7.54976 36.9217L12.9708 46.0135V48.4676C10.7948 47.2627 8.15027 46.461 5 46.461C2.79086 46.461 1 48.2519 1 50.461C1 52.6701 2.79086 54.461 5 54.461C9.40198 54.461 12.0174 57.5793 12.9708 59.5777V70.2896C12.9708 77.4572 18.7813 83.2677 25.9489 83.2677H73.832C80.9996 83.2677 86.8101 77.4572 86.8101 70.2896V59.5777C87.7635 57.5793 90.3789 54.461 94.7809 54.461C96.99 54.461 98.7809 52.6701 98.7809 50.461C98.7809 48.2519 96.99 46.461 94.7809 46.461C91.6306 46.461 88.9861 47.2627 86.8101 48.4676V46.0135L92.2311 36.9217C92.9681 35.6856 92.9843 34.1489 92.2736 32.8976C91.5628 31.6462 90.2346 30.8732 88.7955 30.8732H58.8892C58.8758 30.8728 58.8487 30.872 58.8098 30.87C58.7202 30.8656 58.5748 30.8558 58.3938 30.8348C58.0112 30.7905 57.5718 30.7078 57.1894 30.5748C57.0635 30.5311 56.9662 30.4896 56.8928 30.4542C56.9265 30.0321 57.0382 29.8767 57.0654 29.839L57.0659 29.8382C57.126 29.7547 57.2594 29.6231 57.5581 29.4846C57.8653 29.3422 58.2248 29.2511 58.5441 29.2017C58.6938 29.1786 58.8106 29.1683 58.8756 29.164C58.8915 29.163 58.9038 29.1623 58.9122 29.1619L58.9166 29.1617ZM78.8101 58.6922V44.9115C78.8101 44.1903 79.0051 43.4825 79.3745 42.863L81.7534 38.8732H58.8685H58.8658L58.8657 38.8732L58.8628 38.8732L58.8565 38.8732L58.8421 38.8732L58.8065 38.8728L58.7612 38.8722L58.7086 38.8711C58.6319 38.8694 58.5323 38.8661 58.4129 38.8602C58.1752 38.8484 57.8529 38.8257 57.4728 38.7816C56.8158 38.7055 55.9086 38.557 54.9334 38.2534C49.8905 35.7355 49.8904 32.1328 49.8904 32.1328C49.8904 32.1328 49.8904 35.7355 44.8475 38.2534C43.8723 38.557 42.965 38.7055 42.3081 38.7816C41.9279 38.8257 41.6057 38.8484 41.368 38.8602C41.2486 38.8661 41.1489 38.8694 41.0723 38.8711C41.0339 38.872 41.0011 38.8726 40.9744 38.8728L40.9388 38.8732L40.9244 38.8732L40.9181 38.8732L40.9151 38.8732L40.915 38.8732H40.9124H18.0275L20.4064 42.863C20.7758 43.4825 20.9708 44.1903 20.9708 44.9115V58.6919C20.9722 58.754 20.9722 58.8159 20.9708 58.8777V70.2896C20.9708 73.0389 23.1996 75.2677 25.9489 75.2677H73.832C76.5813 75.2677 78.8101 73.0389 78.8101 70.2896V58.8774C78.8087 58.8158 78.8087 58.7541 78.8101 58.6922ZM56.624 24.2769C56.624 25.5165 53.6093 26.5215 49.8904 26.5215C46.1716 26.5215 43.1569 25.5165 43.1569 24.2769C43.1569 23.0373 46.1716 22.0324 49.8904 22.0324C53.6093 22.0324 56.624 23.0373 56.624 24.2769Z"
        fill="currentColor" />
</svg>
