<svg width="100" height="100" viewBox="0 0 100 100" fill="none" xmlns="http://www.w3.org/2000/svg">
    <path fill-rule="evenodd" clip-rule="evenodd"
        d="M50 0C52.2091 0 54 1.79086 54 4V14C54 16.2091 52.2091 18 50 18C47.7909 18 46 16.2091 46 14V4C46 1.79086 47.7909 0 50 0ZM16 74C16 69.5817 19.5817 66 24 66H26V46C26 32.7452 36.7452 22 50 22C63.2548 22 74 32.7452 74 46V66H76C80.4183 66 84 69.5817 84 74V82C84 86.4183 80.4183 90 76 90H24C19.5817 90 16 86.4183 16 82V74ZM66 66V46C66 37.1634 58.8366 30 50 30C41.1634 30 34 37.1634 34 46V66H66ZM24 74H30H70H76V82H24V74ZM92 54C94.2091 54 96 52.2091 96 50C96 47.7909 94.2091 46 92 46H82C79.7909 46 78 47.7909 78 50C78 52.2091 79.7909 54 82 54H92ZM22 50C22 52.2091 20.2091 54 18 54H8C5.79086 54 4 52.2091 4 50C4 47.7909 5.79086 46 8 46H18C20.2091 46 22 47.7909 22 50ZM85.3553 20.3015C86.9174 18.7394 86.9174 16.2068 85.3553 14.6447C83.7932 13.0826 81.2606 13.0826 79.6985 14.6447L72.6274 21.7157C71.0653 23.2778 71.0653 25.8105 72.6274 27.3726C74.1895 28.9347 76.7222 28.9347 78.2843 27.3726L85.3553 20.3015ZM27.3726 27.3726C25.8105 28.9347 23.2778 28.9347 21.7157 27.3726L14.6447 20.3015C13.0826 18.7394 13.0826 16.2067 14.6447 14.6446C16.2068 13.0825 18.7394 13.0825 20.3015 14.6446L27.3726 21.7157C28.9347 23.2778 28.9347 25.8105 27.3726 27.3726Z"
        fill="currentcolor" />
</svg>