<svg width="100" height="100" viewBox="0 0 100 100" fill="none" xmlns="http://www.w3.org/2000/svg">
    <path fill-rule="evenodd" clip-rule="evenodd"
        d="M51.9277 6.49514C50.7273 5.83495 49.2727 5.83495 48.0723 6.49514L8.07233 28.4951C6.47247 29.3751 5.67152 31.2267 6.12576 32.9951C6.58 34.7636 8.17413 36 10 36H16V71H10C7.79086 71 6 72.7909 6 75V87C6 89.2091 7.79086 91 10 91H90C92.2091 91 94 89.2091 94 87V75C94 72.7909 92.2091 71 90 71H84V36H90C91.8259 36 93.42 34.7636 93.8742 32.9951C94.3285 31.2267 93.5275 29.3751 91.9277 28.4951L51.9277 6.49514ZM76 36H64V71H76V36ZM56 71V36H44V71H56ZM60 28H40H25.5729L50 14.5651L74.4271 28H60ZM36 71V36H24V71H36ZM20 79H40H60H80H86V83H14V79H20Z"
        fill="currentcolor" />
</svg>

