<svg width="100" height="100" viewBox="0 0 100 100" fill="none" xmlns="http://www.w3.org/2000/svg">
    <path fill-rule="evenodd" clip-rule="evenodd"
        d="M30.1739 7C22.3459 7 16 13.3459 16 21.1739V59C16 77.7777 31.2223 93 50 93C68.7777 93 84 77.7777 84 59V21.1739C84 13.3459 77.6541 7 69.8261 7H30.1739ZM24 21.1739C24 17.7642 26.7642 15 30.1739 15H69.8261C73.2358 15 76 17.7642 76 21.1739V59C76 73.3594 64.3594 85 50 85C35.6406 85 24 73.3594 24 59V21.1739ZM61 29C61 30.6569 62.3431 32 64 32C64.8403 32 65.5939 31.6598 66.143 31.0994C67.6892 29.5215 70.2217 29.4958 71.7996 31.042C73.3775 32.5882 73.4031 35.1207 71.857 36.6986C69.8651 38.7313 67.0771 40 64 40C57.9249 40 53 35.0751 53 29C53 26.7909 54.7909 25 57 25C59.2091 25 61 26.7909 61 29ZM37 32C38.6569 32 40 30.6569 40 29C40 26.7909 41.7909 25 44 25C46.2091 25 48 26.7909 48 29C48 35.0751 43.0751 40 37 40C33.9229 40 31.1349 38.7313 29.143 36.6986C27.5969 35.1207 27.6225 32.5882 29.2004 31.042C30.7783 29.4958 33.3108 29.5215 34.857 31.0994C35.4061 31.6598 36.1597 32 37 32ZM48 67C48 65.3431 49.3431 64 51 64C52.6569 64 54 65.3431 54 67C54 69.2091 55.7909 71 58 71C60.2091 71 62 69.2091 62 67C62 60.9249 57.0751 56 51 56C44.9249 56 40 60.9249 40 67C40 69.2091 41.7909 71 44 71C46.2091 71 48 69.2091 48 67Z"
        fill="currentColor" />
</svg>
