<svg width="100" height="100" viewBox="0 0 100 100" fill="none" xmlns="http://www.w3.org/2000/svg">
    <path fill-rule="evenodd" clip-rule="evenodd"
        d="M72.5747 16.6845C76.0978 15.2524 79.2325 14.4909 81.9205 14.1767C72.1421 20.1626 66.6117 29.3041 64.514 38.9807C61.7316 51.8156 64.9502 65.7394 72.1633 74.5362C73.564 76.2445 76.0844 76.4938 77.7927 75.0931C79.5009 73.6924 79.7503 71.172 78.3495 69.4637C77.8552 68.8608 77.3825 68.2206 76.9332 67.5468C81.0583 68.431 84.5174 69.4956 87.1546 70.6599C89.2185 71.571 90.5696 72.4527 91.3444 73.1898C91.7873 73.6111 91.9376 73.8787 91.9854 73.9939C91.9179 74.1632 91.5972 74.7758 90.1628 75.7343C88.3268 76.961 85.4066 78.2219 81.4391 79.3431C73.5592 81.57 62.4425 83 50 83C37.5575 83 26.4408 81.57 18.5609 79.3431C14.5934 78.2219 11.6732 76.961 9.83715 75.7343C8.40216 74.7755 8.08187 74.1627 8.0145 73.9936C8.06054 73.8829 8.20189 73.6309 8.60872 73.2349C9.33636 72.5266 10.6146 71.6698 12.585 70.7763C15.134 69.6206 18.4955 68.5568 22.5224 67.6654C22.122 68.5744 21.7225 69.4937 21.3238 70.4235C20.4531 72.4538 21.3932 74.8055 23.4235 75.6762C25.4538 76.5469 27.8055 75.6068 28.6762 73.5765C42.9598 40.2691 57.3785 22.8621 72.5747 16.6845ZM26.6404 58.7452C39.5688 32.0747 53.4805 15.8109 69.562 9.27349C76.1587 6.59183 81.9966 5.75088 86.7539 6.06102C91.3843 6.36288 95.3442 7.79221 97.7528 10.0769C98.8048 11.0748 99.2344 12.5639 98.8756 13.9689C98.5168 15.3738 97.4257 16.4745 96.024 16.8457C81.681 20.6441 74.5894 30.264 72.3324 40.6756C71.0081 46.7844 71.3615 53.1171 72.9372 58.678C79.828 59.7605 85.8543 61.3409 90.3856 63.3413C92.8983 64.4506 95.1622 65.7801 96.8582 67.3934C98.5586 69.0109 100 71.2327 100 74C100 77.8455 97.2784 80.6014 94.6073 82.3861C91.7879 84.2699 87.9716 85.8103 83.6147 87.0416C74.8459 89.5198 62.9626 91 50 91C37.0374 91 25.1541 89.5198 16.3853 87.0416C12.0284 85.8103 8.2121 84.2699 5.39267 82.3861C2.72162 80.6014 0 77.8455 0 74C0 71.2941 1.37991 69.1071 3.02867 67.5023C4.66902 65.9056 6.85741 64.5895 9.28132 63.4904C13.766 61.4569 19.7688 59.8507 26.6404 58.7452ZM92.0059 74.0592C92.0053 74.0592 92.0035 74.0528 92.0021 74.0402C92.0057 74.0529 92.0064 74.0592 92.0059 74.0592ZM7.99453 74.0534C7.99383 74.0571 7.99376 74.0589 7.99406 74.0589C7.99462 74.0589 7.9965 74.0524 7.99799 74.0395C7.99624 74.0455 7.99514 74.0502 7.99453 74.0534Z"
        fill="currentColor" />
</svg>
