<svg width="100" height="100" viewBox="0 0 100 100" fill="none" xmlns="http://www.w3.org/2000/svg">
    <path fill-rule="evenodd" clip-rule="evenodd"
        d="M25.0905 18C15.3488 18 7.02411 25.019 5.3781 34.6207L0.23215 64.6387C-1.32323 73.7118 5.66506 82 14.8704 82C19.3149 82 23.5258 80.0096 26.3468 76.5752L45.3636 53.4243C47.7639 50.5022 52.2361 50.5022 54.6363 53.4243L73.6532 76.5752C76.4742 80.0096 80.6851 82 85.1296 82C94.3349 82 101.323 73.7118 99.7678 64.6387L94.6219 34.6207C92.9759 25.019 84.6513 18 74.9095 18H25.0905ZM13.2631 35.9724C14.2507 30.2114 19.2455 26 25.0905 26H74.9095C80.7545 26 85.7493 30.2114 86.7369 35.9724L91.8829 65.9905C92.6004 70.1763 89.3764 74 85.1296 74C83.0791 74 81.1365 73.0817 79.835 71.4973L60.8182 48.3464C55.2175 41.5282 44.7825 41.5282 39.1818 48.3464L20.165 71.4973C18.8635 73.0817 16.9209 74 14.8704 74C10.6236 74 7.39956 70.1763 8.11713 65.9905L13.2631 35.9724ZM78 35C78 32.7909 76.2091 31 74 31C71.7909 31 70 32.7909 70 35V38H67C64.7909 38 63 39.7909 63 42C63 44.2091 64.7909 46 67 46H70V49C70 51.2091 71.7909 53 74 53C76.2091 53 78 51.2091 78 49V46H81C83.2091 46 85 44.2091 85 42C85 39.7909 83.2091 38 81 38H78V35ZM27 49C31.4183 49 35 45.4183 35 41C35 36.5817 31.4183 33 27 33C22.5817 33 19 36.5817 19 41C19 45.4183 22.5817 49 27 49Z"
        fill="currentColor" />
</svg>
