<svg width="100" height="100" viewBox="0 0 100 100" fill="none" xmlns="http://www.w3.org/2000/svg">
    <path fill-rule="evenodd" clip-rule="evenodd"
        d="M50 6C31.2223 6 16 21.2223 16 40V78C16 78.1693 16.0105 78.3362 16.0309 78.5C16.0105 78.6638 16 78.8307 16 79C16 86.732 22.268 93 30 93C33.9174 93 37.459 91.3911 40 88.798C42.541 91.3911 46.0826 93 50 93C53.9174 93 57.459 91.3911 60 88.798C62.541 91.3911 66.0826 93 70 93C77.732 93 84 86.732 84 79C84 78.8307 83.9895 78.6638 83.969 78.5C83.9895 78.3362 84 78.1693 84 78V40C84 21.2223 68.7777 6 50 6ZM76.0309 78.5C76.0105 78.3362 76 78.1693 76 78V40C76 25.6406 64.3594 14 50 14C35.6406 14 24 25.6406 24 40V78C24 78.1693 23.9895 78.3362 23.9691 78.5C23.9895 78.6638 24 78.8307 24 79C24 82.3137 26.6863 85 30 85C33.3137 85 36 82.3137 36 79C36 76.7909 37.7909 75 40 75C42.2091 75 44 76.7909 44 79C44 82.3137 46.6863 85 50 85C53.3137 85 56 82.3137 56 79C56 76.7909 57.7909 75 60 75C62.2091 75 64 76.7909 64 79C64 82.3137 66.6863 85 70 85C73.3137 85 76 82.3137 76 79C76 78.8307 76.0105 78.6638 76.0309 78.5ZM47 41C47 44.866 43.866 48 40 48C36.134 48 33 44.866 33 41C33 37.134 36.134 34 40 34C43.866 34 47 37.134 47 41ZM60 48C63.866 48 67 44.866 67 41C67 37.134 63.866 34 60 34C56.134 34 53 37.134 53 41C53 44.866 56.134 48 60 48Z"
        fill="currentColor" />
</svg>
