<svg width="100" height="100" viewBox="0 0 100 100" fill="none" xmlns="http://www.w3.org/2000/svg">
    <path fill-rule="evenodd" clip-rule="evenodd"
        d="M15 90C15 49.1309 48.1309 16 89 16C91.2091 16 93 14.2091 93 12C93 9.79086 91.2091 8 89 8C43.7126 8 7 44.7126 7 90C7 92.2091 8.79086 94 11 94C13.2091 94 15 92.2091 15 90ZM31.7143 90C31.7143 58.3619 57.362 32.7142 89 32.7142C91.2091 32.7142 93 30.9234 93 28.7142C93 26.5051 91.2091 24.7142 89 24.7142C52.9437 24.7142 23.7143 53.9437 23.7143 90C23.7143 92.2091 25.5051 94 27.7143 94C29.9234 94 31.7143 92.2091 31.7143 90ZM89 49.4285C66.593 49.4285 48.4286 67.5929 48.4286 89.9999C48.4286 92.209 46.6377 93.9999 44.4286 93.9999C42.2194 93.9999 40.4286 92.209 40.4286 89.9999C40.4286 63.1747 62.1747 41.4285 89 41.4285C91.2091 41.4285 93 43.2193 93 45.4285C93 47.6376 91.2091 49.4285 89 49.4285ZM65.1429 89.9999C65.1429 76.8239 75.8241 66.1427 89 66.1427C91.2092 66.1427 93 64.3519 93 62.1427C93 59.9336 91.2092 58.1427 89 58.1427C71.4058 58.1427 57.1429 72.4057 57.1429 89.9999C57.1429 92.209 58.9337 93.9999 61.1429 93.9999C63.352 93.9999 65.1429 92.209 65.1429 89.9999Z"
        fill="currentcolor" />
</svg>

