<svg width="100" height="100" viewBox="0 0 100 100" fill="none" xmlns="http://www.w3.org/2000/svg">
    <path fill-rule="evenodd" clip-rule="evenodd"
        d="M35 12C22.2975 12 12 22.2975 12 35C12 47.7025 22.2975 58 35 58C47.7025 58 58 47.7025 58 35C58 22.2975 47.7025 12 35 12ZM4 35C4 17.8792 17.8792 4 35 4C52.1208 4 66 17.8792 66 35C66 42.1185 63.6007 48.6766 59.5666 53.9097L66.2721 60.6152C69.3963 57.4911 74.4616 57.4911 77.5858 60.6152L97.3848 80.4142C100.509 83.5384 100.509 88.6038 97.3848 91.7279L91.7279 97.3848C88.6037 100.509 83.5384 100.509 80.4142 97.3848L60.6152 77.5858C57.491 74.4616 57.491 69.3963 60.6152 66.2721L53.9097 59.5666C48.6766 63.6007 42.1185 66 35 66C17.8792 66 4 52.1208 4 35ZM71.9289 66.2721L66.2721 71.929L86.0711 91.7279L91.7279 86.0711L71.9289 66.2721Z"
        fill="currentcolor" />
</svg>