<svg width="100" height="100" viewBox="0 0 100 100" fill="none" xmlns="http://www.w3.org/2000/svg">
    <path fill-rule="evenodd" clip-rule="evenodd"
        d="M8 15C8 12.7909 9.79086 11 12 11H66C68.2091 11 70 12.7909 70 15V26H88C90.2091 26 92 27.7909 92 30V74C92 82.2843 85.2843 89 77 89H24C15.1634 89 8 81.8366 8 73V15ZM84 34H70V74C70 77.866 73.134 81 77 81C80.866 81 84 77.866 84 74V34ZM62 30V19H16V73C16 77.4183 19.5817 81 24 81H63.7301C62.6255 78.9103 62 76.5282 62 74V30ZM25 32C25 29.7909 26.7909 28 29 28H49C51.2091 28 53 29.7909 53 32V48C53 50.2091 51.2091 52 49 52H29C26.7909 52 25 50.2091 25 48V32ZM33 36V44H45V36H33ZM29 62C26.7909 62 25 63.7909 25 66C25 68.2091 26.7909 70 29 70H49C51.2091 70 53 68.2091 53 66C53 63.7909 51.2091 62 49 62H29Z"
        fill="currentcolor" />
</svg>