<svg width="100" height="100" viewBox="0 0 100 100" fill="none" xmlns="http://www.w3.org/2000/svg">
    <path fill-rule="evenodd" clip-rule="evenodd"
        d="M50 3C41.7157 3 35 9.71573 35 18V45C35 53.2843 41.7157 60 50 60C58.2843 60 65 53.2843 65 45V18C65 9.71573 58.2843 3 50 3ZM43 18C43 14.134 46.134 11 50 11C53.866 11 57 14.134 57 18V45C57 48.866 53.866 52 50 52C46.134 52 43 48.866 43 45V18ZM29 38C29 35.7909 27.2091 34 25 34C22.7909 34 21 35.7909 21 38V45C21 59.6591 31.8766 71.7779 46 73.7264L46 92H33C30.7909 92 29 93.7909 29 96C29 98.2091 30.7909 100 33 100H50H67C69.2091 100 71 98.2091 71 96C71 93.7909 69.2091 92 67 92H54V73.7264C68.1234 71.7779 79 59.6591 79 45V38C79 35.7909 77.2091 34 75 34C72.7909 34 71 35.7909 71 38V45C71 56.598 61.598 66 50 66C38.402 66 29 56.598 29 45V38Z"
        fill="currentcolor" />
</svg>