<svg width="100" height="100" viewBox="0 0 100 100" fill="none" xmlns="http://www.w3.org/2000/svg">
    <path fill-rule="evenodd" clip-rule="evenodd"
        d="M52 17C55.866 17 59 13.866 59 10C59 6.13401 55.866 3 52 3C48.4008 3 45.4361 5.71635 45.044 9.21082L33.0279 16.0199C31.1059 17.109 30.4308 19.5501 31.5199 21.472C32.609 23.3941 35.0501 24.0692 36.9721 22.9801L38 22.3976V31H25C22.7909 31 21 32.7909 21 35V53C21 55.2091 22.7909 57 25 57H29.4382L34.0268 96.462C34.2613 98.4788 35.9696 100 38 100H62C64.0304 100 65.7387 98.4788 65.9732 96.462L70.5618 57H75C77.2091 57 79 55.2091 79 53V35C79 32.7909 77.2091 31 75 31H46V17.8643L48.8466 16.2512C49.7943 16.7302 50.8656 17 52 17ZM42 39H29V49H33H67H71V39H42ZM37.4921 57H62.5079L58.4382 92H41.5618L37.4921 57Z"
        fill="currentColor" />
</svg>