<svg width="100" height="100" viewBox="0 0 100 100" fill="none" xmlns="http://www.w3.org/2000/svg">
    <path
        d="M89.8611 15.8933C87.3769 13.3596 84.5169 11.4107 81.2809 10.0464C78.0449 8.68213 74.6292 8 71.0337 8C67.5036 8 64.0388 8.68213 60.6394 10.0464C57.24 11.4107 54.2982 13.3596 51.8141 15.8933L50.1471 17.5499L48.4801 15.8933C45.9959 13.3596 43.1032 11.4107 39.8018 10.0464C36.5005 8.68213 32.9867 8 29.2605 8C25.6649 8 22.2492 8.68213 19.0133 10.0464C15.7773 11.4107 12.9172 13.3596 10.4331 15.8933C7.88355 18.3619 5.84066 21.2854 4.30439 24.6636C2.76813 28.0418 2 31.4849 2 34.993C2 38.5012 2.70276 41.9443 4.10827 45.3225C5.51379 48.7007 7.45863 51.6242 9.9428 54.0928L46.8131 90.7332C47.2053 91.123 47.6302 91.4316 48.0878 91.6589C48.5455 91.8863 49.1011 92 49.7549 92C50.3432 92 50.8662 91.8863 51.3238 91.6589C51.7814 91.4316 52.239 91.123 52.6966 90.7332L89.4688 54.0928C92.2799 51.4942 94.4045 48.5383 95.8427 45.2251C97.2809 41.9118 98 38.5012 98 34.993C98 31.4849 97.3462 28.0742 96.0388 24.761C94.666 21.4478 92.6067 18.4919 89.8611 15.8933ZM84.0756 48.3434L50.1471 81.9629L16.2186 48.3434C12.4923 44.5754 10.6292 40.1253 10.6292 34.993C10.6292 29.8608 12.4923 25.4107 16.2186 21.6427C17.9183 19.8236 19.9285 18.4756 22.2492 17.5986C24.57 16.7216 26.907 16.2831 29.2605 16.2831C31.7446 16.2831 34.1144 16.7216 36.3698 17.5986C38.6251 18.4756 40.7007 19.8236 42.5965 21.6427L47.2053 26.2227C48.0552 27.0673 49.0358 27.4896 50.1471 27.4896C51.2584 27.4896 52.239 27.0673 53.0889 26.2227L57.3054 21.6427C59.1359 20.0185 61.2114 18.7193 63.5322 17.7448C65.8529 16.7703 68.3535 16.2831 71.0337 16.2831C73.5832 16.2831 75.9857 16.7703 78.2411 17.7448C80.4964 18.7193 82.572 20.0185 84.4678 21.6427C86.1022 23.5266 87.4096 25.6056 88.3902 27.8794C89.3708 30.1531 89.8611 32.5244 89.8611 34.993C89.8611 37.4617 89.3544 39.833 88.3412 42.1067C87.3279 44.3805 85.9061 46.4594 84.0756 48.3434Z"
        fill="currentColor" />
</svg>
