<svg width="100" height="100" viewBox="0 0 100 100" fill="none" xmlns="http://www.w3.org/2000/svg">
    <g clip-path="url(#clip0_1998_12)">
        <path fill-rule="evenodd" clip-rule="evenodd"
            d="M40.8135 24.9116C46.6125 14.8674 59.4559 11.426 69.5 17.225C79.5442 23.024 82.9855 35.8674 77.1865 45.9116C76.3322 47.3912 74.2028 48.675 69.8266 48.4217C65.5581 48.1746 60.1009 46.4395 54.5 43.2058C48.6849 39.8484 44.2529 36.3723 41.8422 33.0416C40.6648 31.4149 40.0886 29.9852 39.9366 28.7482C39.7923 27.5741 39.9962 26.3272 40.8135 24.9116ZM35.5624 18.3289C34.9649 19.1508 34.4046 20.012 33.8853 20.9116C32.2508 23.7425 31.6279 26.7258 31.9963 29.7239C32.357 32.6592 33.633 35.3438 35.3615 37.7321C38.7628 42.4314 44.3578 46.5878 50.5 50.134C56.8564 53.8039 63.5228 56.0702 69.3643 56.4083C75.0982 56.7402 81.0655 55.193 84.1147 49.9116C84.6341 49.012 85.0998 48.0962 85.5128 47.1678C87.5448 50.1612 89.001 53.0898 89.8565 55.8235C91.2708 60.3431 90.9733 64.0322 89.3731 66.8038C87 70.9141 81.2927 73.6063 72.4334 73.3779C63.7498 73.1541 53.0373 70.0741 42.5 63.9904C31.9627 57.9067 23.9391 50.1693 19.4034 42.7611C14.776 35.2029 14.2539 28.9141 16.6269 24.8038C18.191 22.0948 21.1325 20.0283 25.578 18.9682C28.4394 18.2859 31.8133 18.0555 35.5624 18.3289ZM42.9324 11.2619C36.0095 9.9284 29.3871 9.83559 23.7223 11.1864C17.8001 12.5986 12.6614 15.6723 9.69874 20.8038C5.61656 27.8744 6.95471 36.4373 11.1123 44.3556L8.42194 49.0153C5.65948 49.0177 2.97353 50.4523 1.49297 53.0167C-0.716167 56.843 0.594832 61.7357 4.42117 63.9449C8.24751 66.154 13.1402 64.843 15.3494 61.0167C16.8299 58.4523 16.7294 55.4089 15.3501 53.0153L16.0099 51.8726C20.7789 57.9963 27.2989 63.8725 35.0805 68.8414L30.5008 76.7737C27.7383 76.776 25.0524 78.2106 23.5718 80.775C21.3627 84.6013 22.6737 89.4941 26.5 91.7032C30.3264 93.9123 35.2191 92.6013 37.4282 88.775C38.9088 86.2106 38.8082 83.1672 37.429 80.7737L42.0087 72.8414C50.2026 77.096 58.5516 79.8044 66.2394 80.8726L65.5796 82.0153C62.8172 82.0177 60.1312 83.4523 58.6506 86.0167C56.4415 89.843 57.7525 94.7357 61.5788 96.9449C65.4052 99.154 70.2979 97.843 72.5071 94.0167C73.9876 91.4523 73.887 88.4089 72.5078 86.0153L75.1981 81.3556C84.1343 80.997 92.2191 77.8744 96.3013 70.8038C99.3351 65.5492 99.3589 59.4022 97.4913 53.4343C95.7885 47.9927 92.4555 42.4549 87.948 37.2517C88.6165 26.6063 83.3639 15.9917 73.5 10.2968C63.6361 4.60192 51.8174 5.36027 42.9324 11.2619Z"
            fill="currentColor" />
    </g>
</svg>
