<svg width="100" height="100" viewBox="0 0 100 100" fill="none" xmlns="http://www.w3.org/2000/svg">
    <path fill-rule="evenodd" clip-rule="evenodd"
        d="M10.3297 71.9037C7.88572 67.6707 8.32463 60.2375 13.1262 51.3895C17.7986 42.7796 26.1512 33.8037 37.4576 27.276C48.764 20.7483 60.7137 18.0026 70.5063 18.2611C80.5697 18.5269 87.2264 21.8633 89.6703 26.0963C92.1143 30.3293 91.6754 37.7625 86.8738 46.6105C82.2014 55.2204 73.8487 64.1963 62.5424 70.724C51.236 77.2518 39.2863 79.9974 29.4937 79.7389C19.4303 79.4732 12.7736 76.1367 10.3297 71.9037ZM33.4576 20.3478C20.9415 27.574 11.508 37.5988 6.09485 47.5738C0.81094 57.3106 -1.13494 68.0464 3.40146 75.9037C7.93785 83.761 18.2083 87.4437 29.2826 87.7361C40.6277 88.0356 54.0262 84.8784 66.5424 77.6522C79.0585 70.426 88.492 60.4012 93.9051 50.4262C99.189 40.6894 101.135 29.9536 96.5985 22.0963C92.0621 14.2391 81.7917 10.5563 70.7174 10.2639C59.3723 9.96437 45.9737 13.1216 33.4576 20.3478ZM31.3179 57.1614C32.9957 55.2031 34.8292 53.2785 36.8125 51.416C36.9767 51.8969 37.0896 52.4301 37.1389 53.0149C37.3245 55.2163 39.2595 56.8504 41.4608 56.6648C43.6621 56.4792 45.2962 54.5442 45.1106 52.3429C44.9202 50.0836 44.2023 47.9597 43.0823 46.1363C43.2237 46.0297 43.3657 45.9234 43.5083 45.8174C45.5732 44.2827 47.6756 42.8815 49.7944 41.6119C49.899 41.9947 49.9726 42.4073 50.0099 42.8494C50.1955 45.0507 52.1305 46.6848 54.3318 46.4993C56.5331 46.3137 58.1672 44.3787 57.9816 42.1774C57.8535 40.657 57.4865 39.198 56.9188 37.8506C57.9393 37.3817 58.958 36.9425 59.9728 36.5328C62.0213 35.7057 63.0115 33.3747 62.1845 31.3262C61.3574 29.2777 59.0264 28.2875 56.9779 29.1145C55.1605 29.8483 53.3351 30.6655 51.5118 31.567C49.0916 30.1447 46.1703 29.5651 43.0532 30.2301C40.8927 30.691 39.5149 32.8161 39.9759 34.9767C40.192 35.9896 40.7739 36.8305 41.5538 37.3905C40.6082 38.035 39.6684 38.7037 38.7361 39.3967C38.0878 39.8785 37.4498 40.3671 36.8221 40.862C34.8118 40.1041 32.5537 39.8897 30.1822 40.3956C28.0217 40.8566 26.6439 42.9817 27.1049 45.1422C27.3551 46.3149 28.0955 47.257 29.0659 47.7996C27.7223 49.1621 26.4473 50.5504 25.2427 51.9564C23.8054 53.634 24.0002 56.1592 25.6778 57.5965C27.3554 59.0338 29.8806 58.839 31.3179 57.1614Z"
        fill="currentColor" />
</svg>
