<svg width="100" height="100" viewBox="0 0 100 100" fill="none" xmlns="http://www.w3.org/2000/svg">
    <g clip-path="url(#clip0_1998_12)">
        <path fill-rule="evenodd" clip-rule="evenodd"
            d="M34.1499 9.97594C34.868 8.75191 36.1809 8 37.6 8H62.4C63.8191 8 65.132 8.75191 65.8501 9.97594L82.5842 38.5H96C98.2091 38.5 100 40.2909 100 42.5C100 44.7091 98.2091 46.5 96 46.5H4C1.79086 46.5 0 44.7091 0 42.5C0 40.2909 1.79086 38.5 4 38.5H17.4158L34.1499 9.97594ZM60.1091 16L73.3091 38.5H26.6909L39.8909 16H60.1091ZM18 71C18 65.4772 22.4772 61 28 61C33.5229 61 38 65.4772 38 71C38 76.5229 33.5229 81 28 81C22.4772 81 18 76.5229 18 71ZM28 53C18.0589 53 10 61.0589 10 71C10 80.9411 18.0589 89 28 89C36.4816 89 43.5931 83.1337 45.4984 75.2373C45.8245 74.968 46.2419 74.6462 46.7188 74.3282C48.0196 73.461 49.2023 73 50 73C50.7977 73 51.9804 73.461 53.2812 74.3282C53.7581 74.6462 54.1755 74.968 54.5016 75.2373C56.4069 83.1337 63.5184 89 72 89C81.9411 89 90 80.9411 90 71C90 61.0589 81.9411 53 72 53C63.7852 53 56.8557 58.5029 54.6967 66.0236C53.3162 65.4405 51.7132 65 50 65C48.2868 65 46.6838 65.4405 45.3033 66.0236C43.1443 58.5029 36.2148 53 28 53ZM72 61C66.4771 61 62 65.4772 62 71C62 76.5229 66.4771 81 72 81C77.5229 81 82 76.5229 82 71C82 65.4772 77.5229 61 72 61Z"
            fill="currentColor" />
    </g>
</svg>
