<svg width="100" height="100" viewBox="0 0 100 100" fill="none" xmlns="http://www.w3.org/2000/svg">
    <path fill-rule="evenodd" clip-rule="evenodd"
        d="M14 43C14 37.3437 17.5275 31.6909 24.3364 27.261C31.1078 22.8555 40.7003 20 51.5 20C62.2997 20 71.8922 22.8555 78.6636 27.261C85.4725 31.6909 89 37.3437 89 43C89 48.6563 85.4725 54.3091 78.6636 58.739C71.8922 63.1445 62.2997 66 51.5 66C50.5531 66 49.6146 65.978 48.6857 65.9348C48.4461 65.9237 48.2104 65.9339 47.9805 65.9637C40.871 66.1139 36.1771 70.2494 32.2466 73.7123L32.246 73.7128C31.8062 74.1003 31.376 74.4793 30.953 74.8434C28.0663 77.3281 25.0491 79.6903 20.9197 81.1172C22.7667 77.9301 23.9964 74.835 24.7101 71.9751C25.954 66.991 25.7828 61.9797 23.5857 58.7501C23.3458 58.3974 23.0595 58.0952 22.7404 57.846C22.528 57.5531 22.2721 57.2844 21.9737 57.0495C16.7004 52.8998 14 47.9665 14 43ZM17.0202 63.3316C10.4284 58.142 6 51.096 6 43C6 33.7446 11.7626 25.8974 19.9737 20.5553C28.2224 15.1886 39.3799 12 51.5 12C63.6202 12 74.7776 15.1886 83.0263 20.5553C91.2374 25.8974 97 33.7446 97 43C97 52.2554 91.2374 60.1026 83.0263 65.4447C74.7776 70.8114 63.6202 74 51.5 74C50.9622 74 50.4265 73.9937 49.8931 73.9813C49.6713 74.0029 49.4447 74.0062 49.215 73.9898C44.5478 73.6565 41.9202 75.9315 37.2692 79.9585L37.2659 79.9614C36.9135 80.2665 36.5494 80.5817 36.172 80.9066C30.9278 85.4206 24.1445 90.5 12 90.5C10.4167 90.5 8.98246 89.5661 8.34194 88.1182C7.70143 86.6703 7.97522 84.9808 9.04024 83.8093C13.6403 78.7493 15.9907 73.8746 16.9482 70.038C17.9189 66.1481 17.3452 63.9333 17.0202 63.3316Z"
        fill="currentcolor" />
</svg>