<svg width="100" height="100" viewBox="0 0 100 100" fill="none" xmlns="http://www.w3.org/2000/svg">
    <path fill-rule="evenodd" clip-rule="evenodd"
        d="M62.5359 6.4641C64.745 2.63776 69.6378 1.32676 73.4641 3.5359L77.448 5.83598C80.8434 7.79632 82.3178 11.9285 80.9302 15.5954L76.5598 27.1453C79.995 32.2453 82 38.3885 82 45V88C82 92.4183 78.4183 96 74 96H26C21.5817 96 18 92.4183 18 88V45C18 38.3885 20.005 32.2453 23.4402 27.1453L19.0698 15.5954C17.6822 11.9285 19.1566 7.79632 22.552 5.83598L26.5359 3.5359C30.3622 1.32676 35.255 2.63776 37.4641 6.4641L41.8432 14.0489C44.4473 13.3645 47.1811 13 50 13C52.8189 13 55.5527 13.3645 58.1568 14.0489L62.5359 6.4641ZM34.3549 17.0788L30.5359 10.4641L26.552 12.7642L29.4634 20.4582C30.9807 19.1872 32.6177 18.0543 34.3549 17.0788ZM73.448 12.7642L70.5366 20.4582C69.0193 19.1872 67.3823 18.0543 65.6451 17.0788L69.4641 10.4641L73.448 12.7642ZM26 45C26 31.7452 36.7452 21 50 21C63.2548 21 74 31.7452 74 45V88H26V45ZM39 56C34.5817 56 31 59.5817 31 64V66C31 74.8366 38.1634 82 47 82H53C61.8366 82 69 74.8366 69 66V64C69 59.5817 65.4183 56 61 56H39ZM39 66V64H61V66C61 70.4183 57.4183 74 53 74H47C42.5817 74 39 70.4183 39 66Z"
        fill="currentcolor" />
</svg>