<svg width="100" height="100" viewBox="0 0 100 100" fill="none" xmlns="http://www.w3.org/2000/svg">
    <path fill-rule="evenodd" clip-rule="evenodd"
        d="M25.3103 2.59508C27.4205 2.45234 29.3987 3.40111 30.7185 4.93924L93.7189 78.3642C97.5339 82.8104 97.103 89.4887 92.7484 93.4079C88.3031 97.4087 81.4515 97.0298 77.4744 92.5632L52.2418 64.225L49.3549 66.9314C46.6361 69.4803 42.2097 69.5306 39.5356 66.5862C35.3297 61.9552 31.7806 56.7296 28.8757 51.3369C28.4956 51.5961 27.9671 51.9263 27.3583 52.1744C26.7374 52.4274 25.4191 52.8512 23.8946 52.3536C22.1675 51.79 21.2912 50.4375 20.9044 49.4136C18.2313 42.3379 17.2328 33.7773 17.2608 26.0794C17.2886 18.4359 18.3321 11.0858 20.137 6.44556C21.0304 4.1488 23.0536 2.74773 25.3103 2.59508ZM26.6547 12.4884C25.8382 15.9793 25.2801 20.7851 25.2607 26.1085C25.2406 31.6364 25.8039 37.3888 27.0881 42.4203C27.7668 41.2688 28.4841 39.7194 29.2016 37.844C30.1668 35.3215 31.0328 32.4786 31.763 29.771C32.4906 27.0729 33.0686 24.5637 33.465 22.7267C33.6244 21.9877 33.7539 21.3602 33.8513 20.8759L26.6547 12.4884ZM40.3569 28.458C40.0961 29.5297 39.8054 30.6734 39.487 31.8539C38.7172 34.7089 37.7707 37.8348 36.6734 40.7028C36.0908 42.2254 35.4341 43.7611 34.6972 45.182C37.3839 50.5915 40.7235 55.802 44.6868 60.3419L47.5187 57.687C50.3904 54.9948 54.9166 55.199 57.5342 58.1388L83.4492 87.2433C84.477 88.3976 86.2478 88.4955 87.3967 87.4616C88.5221 86.4487 88.6334 84.7227 87.6475 83.5736L40.3569 28.458ZM24.9558 71.1574C23.888 72.823 22.7175 74.7583 21.6871 76.7099C20.8625 78.2716 20.1638 79.7763 19.6795 81.1146C19.1754 82.5075 19 83.461 19 84C19 86.2799 19.7551 87.6711 20.6569 88.5121C21.6034 89.3946 23.07 90 25 90C28.4411 90 31 87.6656 31 84C31 83.586 30.8423 82.7081 30.3246 81.3113C29.8338 79.987 29.1256 78.4731 28.2909 76.8879C27.2371 74.8866 26.0403 72.8815 24.9558 71.1574ZM20.115 63.9833C22.4915 60.5147 27.5646 60.5744 29.8813 64.0483C31.3187 66.2038 33.5162 69.641 35.3695 73.1606C36.2953 74.9188 37.172 76.7666 37.826 78.5312C38.4531 80.2233 39 82.1615 39 84C39 92.3344 32.6046 98 25 98C21.4072 98 17.8738 96.8553 15.201 94.3629C12.4835 91.8289 11 88.2201 11 84C11 82.108 11.524 80.1411 12.157 78.392C12.8098 76.5884 13.686 74.7297 14.6126 72.9747C16.4663 69.4638 18.6663 66.0976 20.115 63.9833Z"
        fill="currentColor" />
</svg>
