<svg width="100" height="100" viewBox="0 0 100 100" fill="none" xmlns="http://www.w3.org/2000/svg">
    <path fill-rule="evenodd" clip-rule="evenodd"
        d="M62.5 15.1647V84.8353C76.7836 79.7092 87 66.0477 87 50C87 33.9523 76.7836 20.2908 62.5 15.1647Z"
        fill="#ED2939" />
    <path fill-rule="evenodd" clip-rule="evenodd"
        d="M62.5 84.8353C58.5954 86.2365 54.3869 87 50 87C45.6131 87 41.4046 86.2365 37.5 84.8353L37.5 15.1647C41.4046 13.7634 45.6131 13 50 13C54.3869 13 58.5954 13.7634 62.5 15.1647V84.8353Z"
        fill="#F0F0F0" />
    <path fill-rule="evenodd" clip-rule="evenodd"
        d="M37.5 84.8353V15.1647C23.2164 20.2908 13 33.9523 13 50C13 66.0477 23.2164 79.7092 37.5 84.8353Z"
        fill="#04257C" />
    <circle cx="50" cy="50" r="41" stroke="currentcolor" stroke-width="8" />
</svg>