<svg width="100" height="100" viewBox="0 0 100 100" fill="none" xmlns="http://www.w3.org/2000/svg">
    <path fill-rule="evenodd" clip-rule="evenodd"
        d="M50.5 4C52.0151 4 53.4001 4.85601 54.0777 6.21115L66.6484 31.3525L94.5934 35.5443C96.1033 35.7707 97.3526 36.837 97.8134 38.2926C98.2743 39.7482 97.8663 41.3392 96.7619 42.3934L76.2937 61.9312L80.9456 89.8424C81.1956 91.3423 80.5735 92.8543 79.3402 93.744C78.107 94.6336 76.476 94.7471 75.1315 94.0368L50.5 81.0239L25.8685 94.0368C24.524 94.7471 22.893 94.6336 21.6598 93.744C20.4265 92.8543 19.8044 91.3423 20.0544 89.8424L24.7063 61.9312L4.2381 42.3934C3.13367 41.3392 2.72571 39.7482 3.18657 38.2926C3.64743 36.837 4.89672 35.7707 6.40664 35.5443L34.3516 31.3525L46.9223 6.21115C47.5999 4.85601 48.9849 4 50.5 4ZM50.5 16.9443L40.5777 36.7889C39.9951 37.954 38.8816 38.7625 37.5934 38.9557L15.6683 42.2445L31.7619 57.6066C32.7201 58.5212 33.1634 59.8509 32.9456 61.1576L29.2735 83.1901L48.6315 72.9632C49.8006 72.3456 51.1994 72.3456 52.3685 72.9632L71.7265 83.1901L68.0544 61.1576C67.8367 59.8509 68.2799 58.5212 69.2381 57.6066L85.3317 42.2445L63.4066 38.9557C62.1184 38.7625 61.0049 37.954 60.4223 36.7889L50.5 16.9443Z"
        fill="currentcolor" />
</svg>