<svg width="100" height="100" viewBox="0 0 100 100" fill="none" xmlns="http://www.w3.org/2000/svg">
    <path fill-rule="evenodd" clip-rule="evenodd"
        d="M54.0777 6.21115C53.4001 4.85601 52.0151 4 50.5 4C48.9849 4 47.5999 4.85601 46.9223 6.21115L40.3017 19.4523C39.3138 21.4282 40.1147 23.8309 42.0906 24.8189C44.0665 25.8068 46.4692 25.0059 47.4571 23.03L50.5 16.9443L60.4223 36.7889C61.0049 37.954 62.1184 38.7625 63.4066 38.9557L85.3317 42.2445L75.0818 52.0285C73.4839 53.5538 73.425 56.0858 74.9503 57.6838C76.4757 59.2818 79.0077 59.3407 80.6057 57.8153L96.7619 42.3934C97.8663 41.3392 98.2743 39.7482 97.8134 38.2926C97.3526 36.837 96.1033 35.7707 94.5934 35.5443L66.6484 31.3525L54.0777 6.21115ZM33.859 39.5159L15.6683 42.2445L31.7619 57.6066C32.7201 58.5212 33.1634 59.8509 32.9456 61.1576L29.2735 83.1901L48.6315 72.9632C49.8006 72.3456 51.1994 72.3456 52.3685 72.9632L71.7265 83.1901L70.5652 76.222L33.859 39.5159ZM80.2976 85.9544L80.9456 89.8424C81.1956 91.3423 80.5735 92.8543 79.3402 93.744C78.107 94.6336 76.476 94.7471 75.1315 94.0368L50.5 81.0239L25.8685 94.0368C24.524 94.7471 22.893 94.6336 21.6598 93.744C20.4265 92.8543 19.8044 91.3423 20.0544 89.8424L24.7063 61.9312L4.2381 42.3934C3.13367 41.3392 2.72571 39.7482 3.18657 38.2926C3.64743 36.837 4.89672 35.7707 6.40664 35.5443L26.8247 32.4815L5.45227 11.1091C3.89018 9.54703 3.89018 7.01437 5.45227 5.45227C7.01437 3.89018 9.54703 3.89018 11.1091 5.45227L94.5477 88.8909C96.1098 90.453 96.1098 92.9856 94.5477 94.5477C92.9856 96.1098 90.453 96.1098 88.8909 94.5477L80.2976 85.9544Z"
        fill="currentcolor" />
</svg>