<svg width="100" height="100" viewBox="0 0 100 100" fill="none" xmlns="http://www.w3.org/2000/svg">
    <path fill-rule="evenodd" clip-rule="evenodd"
        d="M54.0777 6.21115C53.4001 4.85601 52.0151 4 50.5 4C48.9849 4 47.5999 4.85601 46.9223 6.21115L34.3516 31.3525L6.40664 35.5443C4.89672 35.7707 3.64743 36.837 3.18657 38.2926C2.72571 39.7482 3.13367 41.3392 4.2381 42.3934L24.7063 61.9312L20.0544 89.8424C19.8044 91.3423 20.4265 92.8543 21.6598 93.744C22.893 94.6336 24.524 94.7471 25.8685 94.0368L50.5 81.0239L75.1315 94.0368C76.476 94.7471 78.107 94.6336 79.3402 93.744C80.5735 92.8543 81.1956 91.3423 80.9456 89.8424L76.2937 61.9312L96.7619 42.3934C97.8663 41.3392 98.2743 39.7482 97.8134 38.2926C97.3526 36.837 96.1033 35.7707 94.5934 35.5443L66.6484 31.3525L54.0777 6.21115ZM50.5 16.9443V72.5C51.142 72.5 51.7839 72.6544 52.3685 72.9632L71.7265 83.1901L68.0544 61.1576C67.8367 59.8509 68.2799 58.5212 69.2381 57.6066L85.3317 42.2445L63.4066 38.9557C62.1184 38.7625 61.0049 37.954 60.4223 36.7889L50.5 16.9443Z"
        fill="currentcolor" />
</svg>