<svg width="100" height="100" viewBox="0 0 100 100" fill="none" xmlns="http://www.w3.org/2000/svg">
    <g clip-path="url(#clip0_1998_12)">
        <path fill-rule="evenodd" clip-rule="evenodd"
            d="M50 4L52.5607 0.92706C51.0773 -0.30902 48.9227 -0.30902 47.4393 0.92706L50 4ZM47.6623 11.6292C48.537 10.7606 49.3247 10.0056 50 9.37328C50.6753 10.0056 51.463 10.7606 52.3377 11.6292C55.3353 14.6059 59.3305 18.8933 63.3182 24.1275C71.3817 34.7113 79 48.6258 79 63.1304C79 79.0597 66.0312 92 50 92C33.9688 92 21 79.0597 21 63.1304C21 48.6258 28.6183 34.7113 36.6818 24.1275C40.6695 18.8933 44.6647 14.6059 47.6623 11.6292ZM50 4C47.4393 0.92706 47.4384 0.927874 47.4372 0.928792L47.4344 0.931157L47.4265 0.937785L47.4017 0.958597L47.3169 1.03022C47.2451 1.09122 47.1428 1.17861 47.0121 1.29167C46.7508 1.51777 46.3758 1.84672 45.9033 2.2728C44.9586 3.12468 43.6224 4.36655 42.0252 5.95266C38.8353 9.12045 34.5805 13.6848 30.3182 19.2793C21.8817 30.3527 13 46.0035 13 63.1304C13 83.5079 29.5804 100 50 100C70.4196 100 87 83.5079 87 63.1304C87 46.0035 78.1183 30.3527 69.6818 19.2793C65.4195 13.6848 61.1647 9.12045 57.9748 5.95266C56.3776 4.36655 55.0414 3.12468 54.0967 2.2728C53.6242 1.84672 53.2492 1.51777 52.9879 1.29167C52.8572 1.17861 52.7549 1.09122 52.6831 1.03022L52.5983 0.958597L52.5735 0.937785L52.5656 0.931157L52.5627 0.928792C52.5616 0.927874 52.5607 0.92706 50 4ZM64 65C64 62.7909 65.7909 61 68 61C70.2091 61 72 62.7909 72 65C72 75.4934 63.4934 84 53 84C50.7909 84 49 82.2091 49 80C49 77.7909 50.7909 76 53 76C59.0751 76 64 71.0751 64 65Z"
            fill="currentcolor" />
    </g>
</svg>