<svg width="100" height="100" viewBox="0 0 100 100" fill="none" xmlns="http://www.w3.org/2000/svg">
    <path fill-rule="evenodd" clip-rule="evenodd"
        d="M52.7412 6.08665C62.6167 15.2142 67.2768 26.0433 66.9873 36.8625C66.6993 47.6294 61.5245 57.8658 52.7309 65.9229C52.424 66.2102 52.0816 66.4406 51.7179 66.6134C50.6386 67.126 49.3709 67.1315 48.2821 66.6134C47.9183 66.4406 47.5759 66.2102 47.269 65.9227C38.4754 57.8657 33.3007 47.6294 33.0127 36.8625C32.7232 26.0434 37.3833 15.2144 47.2586 6.08683C47.5683 5.79476 47.9144 5.56107 48.2822 5.38634C48.8254 5.12794 49.4132 4.99973 50 4.99988C50.9895 5.00012 51.9762 5.3653 52.7412 6.08665ZM50 57.3533C55.7442 51.0798 58.7975 43.8535 58.9902 36.6485C59.1847 29.3796 56.4796 21.7236 50 14.6566C43.5204 21.7236 40.8153 29.3796 41.0098 36.6485C41.2025 43.8535 44.2558 51.0798 50 57.3533ZM97.1413 45.3965C96.7814 45.2765 96.3993 45.2064 96.0038 45.1942C82.5639 44.6638 71.6092 49.0261 64.1625 56.8822C56.7526 64.6994 53.1735 75.5971 53.6945 87.5126C53.7085 87.9368 53.7892 88.3455 53.9266 88.728C54.1221 89.2729 54.4319 89.7615 54.826 90.1661C55.525 90.8836 56.4891 91.3373 57.5508 91.3737C69.4683 91.896 80.3679 88.3169 88.1862 80.906C96.0414 73.4601 100.404 62.5072 99.8744 49.0695C99.8617 48.6424 99.7816 48.231 99.6439 47.8461C99.2333 46.6979 98.3108 45.7857 97.1413 45.3965ZM61.6851 83.3834C70.1829 83.0091 77.4517 80.0583 82.6827 75.0999C87.9601 70.0975 91.4609 62.7711 91.8763 53.1922C82.2974 53.6075 74.971 57.1083 69.9686 62.3858C65.0102 67.6167 62.0594 74.8855 61.6851 83.3834ZM38.3763 83.3762C37.9609 73.7973 34.4601 66.4709 29.1827 61.4685C23.9517 56.5101 16.6829 53.5593 8.18511 53.185C8.5594 61.6829 11.5102 68.9517 16.4686 74.1826C21.471 79.4601 28.7974 82.9609 38.3763 83.3762ZM0.430816 47.8289C0.290751 48.2149 0.208624 48.6277 0.194511 49.0564C-0.326353 60.9717 3.25273 71.8691 10.6625 79.6862C18.1093 87.5424 29.0641 91.9047 42.5042 91.3742C42.8954 91.3621 43.2733 91.2934 43.6296 91.1757C44.7989 90.7907 45.7228 89.8834 46.1378 88.7394C46.2793 88.3492 46.3617 87.9316 46.3745 87.4978C46.9033 74.0606 42.5412 63.1081 34.6862 55.6624C26.868 48.2515 15.9685 44.6725 4.05115 45.1946C2.98507 45.2311 2.01736 45.6883 1.31768 46.4109C0.930307 46.811 0.625089 47.2924 0.430816 47.8289Z"
        fill="currentcolor" />
</svg>