<svg width="100" height="100" viewBox="0 0 100 100" fill="none" xmlns="http://www.w3.org/2000/svg">
    <path fill-rule="evenodd" clip-rule="evenodd"
        d="M45.0503 21.4228C44.1255 22.3476 43.7112 23.6661 43.9408 24.9536C43.9867 25.2106 44.057 25.4599 44.1497 25.6987L47.8243 35.3226L44.0132 33.5636C39.4484 31.4568 34.0542 32.4189 30.4992 35.9739L23.1299 43.3431C22.2052 44.2679 21.7909 45.5864 22.0205 46.8739C22.0664 47.131 22.1367 47.3804 22.2295 47.6192L25.904 57.2429L22.0929 55.4839C17.5281 53.3771 12.1339 54.3392 8.57889 57.8941L1.20963 65.2634C0.284856 66.1882 -0.12943 67.5066 0.100199 68.7942C0.329828 70.0817 1.17437 71.1756 2.36183 71.7237L39.1089 88.6839C39.3818 88.8119 39.6711 88.9099 39.9725 88.9743C41.2984 89.2573 42.6774 88.8495 43.636 87.8908L51.2833 80.2436C54.6291 76.8978 55.6964 71.8983 54.0087 67.4779L52.1757 62.6774L61.0286 66.7633C61.3016 66.8914 61.5911 66.9896 61.8928 67.054C63.2187 67.337 64.5977 66.9292 65.5563 65.9705L73.2036 58.3233C76.5494 54.9775 77.6167 49.978 75.929 45.5576L74.096 40.7571L77.9071 42.516C82.4719 44.6229 87.8661 43.6608 91.4211 40.1058L98.7904 32.7365C99.7151 31.8118 100.129 30.4933 99.8998 29.2058C99.6702 27.9183 98.8256 26.8243 97.6382 26.2763L65.9335 11.6433C61.3687 9.53652 55.9745 10.4986 52.4195 14.0536L45.0503 21.4228ZM63.7009 35.9593L55.1182 31.9981L64.2634 55.9498L67.5468 52.6664C68.662 51.5512 69.0178 49.8846 68.4552 48.4112L63.7009 35.9593ZM81.2596 35.2524L54.7634 23.0234L58.0764 19.7104C59.2614 18.5254 61.0594 18.2047 62.581 18.907L89.0772 31.136L85.7643 34.4489C84.5793 35.6339 82.7812 35.9546 81.2596 35.2524ZM51.9081 46.0184L55.4884 55.3953L32.8431 44.9436L36.1561 41.6307C37.3411 40.4457 39.1391 40.125 40.6607 40.8273L51.9081 46.0184ZM33.1979 53.9184L41.7805 57.8796L46.5349 70.3315C47.0975 71.8049 46.7417 73.4714 45.6265 74.5867L42.3431 77.8701L33.1979 53.9184ZM29.9878 67.9387L33.5681 77.3156L10.9228 66.8639L14.2357 63.551C15.4207 62.366 17.2188 62.0453 18.7404 62.7476L29.9878 67.9387Z"
        fill="currentcolor" />
</svg>