<svg width="100" height="100" viewBox="0 0 100 100" fill="none" xmlns="http://www.w3.org/2000/svg">
    <g clip-path="url(#clip0_1998_12)">
        <path fill-rule="evenodd" clip-rule="evenodd"
            d="M52.3549 0.766553C51.5231 0.16002 50.5135 -0.086575 49.5372 0.0267687C48.7391 0.120161 47.9729 0.452322 47.3534 0.999438L47.3169 1.03022C47.2451 1.09122 47.1428 1.17861 47.0121 1.29167C46.7508 1.51777 46.3758 1.84672 45.9033 2.2728C44.9586 3.12468 43.6224 4.36655 42.0252 5.95267C38.8353 9.12045 34.5805 13.6848 30.3182 19.2793C21.8817 30.3527 13 46.0035 13 63.1304C13 83.5079 29.5804 100 50 100C70.4196 100 87 83.5079 87 63.1304C87 46.0035 78.1183 30.3527 69.6818 19.2793C65.4195 13.6848 61.1647 9.12045 57.9748 5.95267C56.3776 4.36655 55.0414 3.12468 54.0967 2.2728C53.6242 1.84672 53.2492 1.51777 52.9879 1.29167C52.8572 1.17861 52.7549 1.09122 52.6831 1.03022L52.623 0.979442C52.5374 0.905303 52.448 0.834248 52.3549 0.766553ZM28 63C28 49.5767 31.1066 36.9501 34.7493 26.7433C27.4426 36.9525 21 49.7919 21 63.1304C21 79.0597 33.9688 92 50 92C66.0312 92 79 79.0597 79 63.1304C79 48.6258 71.3817 34.7113 63.3182 24.1275C59.3305 18.8933 55.3353 14.6059 52.3377 11.6292C51.8418 11.1368 51.3739 10.6809 50.9386 10.2631C50.8578 10.4083 50.7755 10.5571 50.6916 10.7093C49.0609 13.6717 46.8774 17.9563 44.6925 23.2022C40.3063 33.7339 36 47.9379 36 63C36 65.2091 34.2091 67 32 67C29.7909 67 28 65.2091 28 63ZM64 65C64 62.7909 65.7909 61 68 61C70.2091 61 72 62.7909 72 65C72 75.4934 63.4934 84 53 84C50.7909 84 49 82.2091 49 80C49 77.7909 50.7909 76 53 76C59.0751 76 64 71.0751 64 65Z"
            fill="currentcolor" />
    </g>
</svg>