<svg width="100" height="100" viewBox="0 0 100 100" fill="none" xmlns="http://www.w3.org/2000/svg">
    <g clip-path="url(#clip0_1998_12)">
        <path fill-rule="evenodd" clip-rule="evenodd"
            d="M5 82C7.76142 82 10 79.7614 10 77C10 74.2386 7.76142 72 5 72C2.23858 72 2.97752e-07 74.2386 5.64979e-07 77C4.53695e-07 79.7614 2.23858 82 5 82ZM28.4816 53.5592C29.7718 54.4761 31.7006 55.1595 34.7735 54.8953L28.7259 32.3255C25.9327 33.6331 24.604 35.1894 23.945 36.6286C22.9563 38.788 22.9686 41.7485 24.0223 45.6809C25.076 49.6134 26.5456 52.1834 28.4816 53.5592ZM23.8475 60.0803C27.3476 62.5676 31.703 63.4241 36.8656 62.703L37.4437 64.8608C38.0155 66.9946 40.2089 68.261 42.3427 67.6892C44.4766 67.1174 45.7429 64.9241 45.1711 62.7902L44.8119 61.4495L96.3954 55.2348C97.5466 55.0961 98.581 54.4646 99.2305 53.504C99.88 52.5434 100.081 51.3482 99.7806 50.2282L87.3573 3.86375C87.0572 2.7437 86.2858 1.80901 85.243 1.30187C84.2002 0.794732 82.9887 0.765067 81.9223 1.22057L34.1423 21.6301L33.7831 20.2895C33.2113 18.1556 31.018 16.8893 28.8841 17.461C26.7503 18.0328 25.4839 20.2262 26.0557 22.36L26.6339 24.5178C21.8024 26.4746 18.4588 29.394 16.6712 33.2981C14.5311 37.9722 15.0615 43.1485 16.2949 47.7515C17.5283 52.3545 19.657 57.1025 23.8475 60.0803ZM42.7203 53.6437L90.8595 47.8439L80.8236 10.3892L36.2339 29.436L42.7203 53.6437ZM16 61C16 63.7614 13.7614 66 11 66C8.23858 66 6 63.7614 6 61C6 58.2386 8.23858 56 11 56C13.7614 56 16 58.2386 16 61ZM16 100C18.7614 100 21 97.7614 21 95C21 92.2386 18.7614 90 16 90C13.2386 90 11 92.2386 11 95C11 97.7614 13.2386 100 16 100Z"
            fill="currentcolor" />
    </g>
</svg>