<svg width="100" height="100" viewBox="0 0 100 100" fill="none" xmlns="http://www.w3.org/2000/svg">
    <path fill-rule="evenodd" clip-rule="evenodd"
        d="M52.918 4.12389C52.1027 3.85437 51.2223 3.85437 50.407 4.12389L33.3935 9.74819C32.9762 9.87565 32.5878 10.0695 32.2408 10.3175C31.2254 11.0429 30.5636 12.2313 30.5636 13.5743V36.3729C30.5636 38.0946 31.6653 39.6232 33.2986 40.1676L43.9855 43.7299C46.0813 44.4285 48.3465 43.2959 49.0451 41.2001C49.7437 39.1043 48.6111 36.839 46.5153 36.1404L38.5636 33.4899V19.1095L47.6625 22.1174V30.5319C47.6625 32.7411 49.4534 34.5319 51.6625 34.5319C53.8716 34.5319 55.6625 32.7411 55.6625 30.5319V22.1174L64.7614 19.1095V24.8794C64.7614 27.0885 66.5523 28.8794 68.7614 28.8794C70.9706 28.8794 72.7614 27.0885 72.7614 24.8794V13.6657C72.7761 13.0352 72.64 12.4186 72.3768 11.8628C72.3494 11.805 72.3206 11.7478 72.2905 11.6914C71.8389 10.8445 71.0836 10.1579 70.1145 9.81007C70.0822 9.79848 70.0497 9.78726 70.0169 9.77643M52.918 4.12389L70.0051 9.77253ZM56.0174 13.5743L51.6625 15.0139L47.3076 13.5743L51.6625 12.1347L56.0174 13.5743ZM81.2625 35.8284C82.1105 36.0019 82.8792 36.4457 83.4534 37.0933L95.405 50.5712C95.6732 50.8721 95.8975 51.2152 96.0669 51.5919C96.5943 52.7645 96.5259 54.1192 95.883 55.2327L84.4837 74.9768C83.6229 76.4679 81.9045 77.2408 80.2177 76.8956L62.5598 73.2822L62.5598 73.2821C61.7222 73.1107 60.9502 72.6728 60.3689 72.0172L48.4106 58.5317C47.2683 57.2435 47.0785 55.3689 47.9393 53.8778L59.3386 34.1337L59.3386 34.1337C60.1995 32.6426 61.9179 31.8698 63.6046 32.2149L81.2625 35.8284ZM69.6006 66.5572L78.997 68.48L86.18 56.0389L76.7835 54.116L69.6006 66.5572ZM76.8692 45.9678L81.4645 46.9081L78.3524 43.3986L73.7572 42.4583L76.8692 45.9678ZM63.4919 42.9399L69.8554 50.116L62.6725 62.5571L56.3091 55.381L63.4919 42.9399ZM16.8443 55.7875C17.4186 55.1399 18.1873 54.6961 19.0352 54.5226L36.6682 50.9143C37.0675 50.8299 37.4819 50.8061 37.8981 50.8483C39.1773 50.9778 40.3163 51.7144 40.9592 52.8279L52.3585 72.572C53.2193 74.0631 53.0295 75.9377 51.8872 77.2259L39.9392 90.6998C39.3708 91.3457 38.6016 91.7996 37.738 91.9763L20.0801 95.5897C18.3933 95.9349 16.6749 95.162 15.8141 93.671L4.42274 73.9406L4.41478 73.9269C3.55391 72.4358 3.74376 70.5612 4.88607 69.273L16.8443 55.7875ZM37.6253 81.2513L43.9888 74.0753L36.8058 61.6341L30.4424 68.8102L37.6253 81.2513ZM23.4286 64.662L26.5406 61.1525L21.9453 62.0929L18.8333 65.6023L23.4286 64.662ZM14.1179 74.733L23.5143 72.8102L30.6971 85.2513L21.3008 87.1742L14.1179 74.733Z"
        fill="currentcolor" />
</svg>