<svg width="100" height="100" viewBox="0 0 100 100" fill="none" xmlns="http://www.w3.org/2000/svg">
    <path
        d="M74.8673 71.189L91.51 71.175C92.1482 71.1745 92.6761 70.9654 93.0938 70.5478C93.5114 70.1301 93.7205 69.6022 93.721 68.964C93.697 68.3503 93.4765 67.835 93.0596 67.4181C92.6426 67.0012 92.1273 66.7807 91.5137 66.7566L74.8341 66.8074L74.8849 50.1278C74.8608 49.5142 74.6404 48.9989 74.2234 48.5819C73.8065 48.165 73.2912 47.9445 72.6775 47.9205C72.0393 47.921 71.5114 48.1301 71.0937 48.5477C70.6761 48.9654 70.467 49.4933 70.4665 50.1315L70.4525 66.7742L53.8098 66.7882C53.1716 66.7887 52.6437 66.9978 52.226 67.4154C51.8084 67.8331 51.5993 68.361 51.5988 68.9992C51.5985 69.3429 51.6412 69.6313 51.7269 69.8644C51.8126 70.0975 51.9781 70.3367 52.2234 70.582C52.4687 70.8273 52.7079 70.9927 52.941 71.0785C53.1741 71.1642 53.4625 71.2069 53.8061 71.2066L70.4488 71.1927L70.4349 87.8354C70.4346 88.1791 70.5019 88.4919 70.6366 88.7741C70.7714 89.0563 70.9124 89.271 71.0595 89.4181C71.2067 89.5653 71.4213 89.7062 71.7035 89.841C71.9857 89.9758 72.2986 90.043 72.6423 90.0427C73.2805 90.0422 73.8084 89.8331 74.2261 89.4155C74.6437 88.9978 74.8528 88.4699 74.8533 87.8317L74.8673 71.189Z"
        fill="currentcolor" stroke="currentcolor" stroke-width="3.5" />
    <path fill-rule="evenodd" clip-rule="evenodd"
        d="M5.63782 19.5947C6.39299 18.8745 7.37602 18.5 8.63232 18.5H91.3677C92.624 18.5 93.607 18.8745 94.3622 19.5947C95.1108 20.3087 95.5 21.2603 95.5 22.5025C95.5 23.8246 95.1056 24.8086 94.3622 25.5176C93.607 26.2378 92.624 26.6122 91.3677 26.6122H8.63232C7.37602 26.6122 6.39299 26.2378 5.63782 25.5176C4.89443 24.8086 4.5 23.8246 4.5 22.5025C4.5 21.2603 4.88916 20.3087 5.63782 19.5947ZM5.63782 47.0385C6.39299 46.3183 7.37602 45.9439 8.63232 45.9439H55.3677C56.624 45.9439 57.607 46.3183 58.3622 47.0385C59.1108 47.7525 59.5 48.7042 59.5 49.9464C59.5 51.2685 59.1056 52.2525 58.3622 52.9615C57.607 53.6817 56.624 54.0561 55.3677 54.0561H8.63232C7.37602 54.0561 6.39299 53.6817 5.63782 52.9615C4.89443 52.2525 4.5 51.2685 4.5 49.9464C4.5 48.7042 4.88916 47.7525 5.63782 47.0385ZM5.63782 74.4824C6.39299 73.7622 7.37602 73.3878 8.63232 73.3878H38.3677C39.624 73.3878 40.607 73.7622 41.3622 74.4824C42.1108 75.1964 42.5 76.1481 42.5 77.3903C42.5 78.7124 42.1056 79.6964 41.3622 80.4053C40.607 81.1255 39.624 81.5 38.3677 81.5H8.63232C7.37602 81.5 6.39299 81.1255 5.63782 80.4053C4.89443 79.6964 4.5 78.7124 4.5 77.3903C4.5 76.1481 4.88916 75.1964 5.63782 74.4824Z"
        fill="currentcolor" />
</svg>