<svg width="100" height="100" viewBox="0 0 100 100" fill="none" xmlns="http://www.w3.org/2000/svg">
    <g clip-path="url(#clip0_1998_12)">
        <path fill-rule="evenodd" clip-rule="evenodd"
            d="M19.2808 24.5278C19.8847 23.0021 21.3592 22 23 22C24.6409 22 26.1153 23.0021 26.7193 24.5278L45.7192 72.5278C46.5323 74.5819 45.5263 76.9062 43.4722 77.7192C41.4181 78.5323 39.0939 77.5263 38.2808 75.4722L33.3439 63H12.6562L7.71925 75.4722C6.90618 77.5263 4.5819 78.5323 2.52783 77.7192C0.47376 76.9062 -0.532271 74.5819 0.280798 72.5278L19.2808 24.5278ZM23 36.8681L30.1772 55H15.8228L23 36.8681ZM96 22C97.4323 22 98.7552 22.7658 99.4686 24.0078C100.182 25.2497 100.177 26.7783 99.4551 28.0155L74.9642 70H96C98.2092 70 100 71.7909 100 74C100 76.2091 98.2092 78 96 78H68C66.5678 78 65.2448 77.2342 64.5315 75.9922C63.8181 74.7503 63.8232 73.2217 64.5449 71.9845L89.0359 30H68C65.7909 30 64 28.2091 64 26C64 23.7909 65.7909 22 68 22H96ZM50 46C47.7909 46 46 47.7909 46 50C46 52.2091 47.7909 54 50 54H62C64.2092 54 66 52.2091 66 50C66 47.7909 64.2092 46 62 46H50Z"
            fill="currentcolor" />
    </g>
</svg>