<svg width="100" height="100" viewBox="0 0 100 100" fill="none" xmlns="http://www.w3.org/2000/svg">
    <path fill-rule="evenodd" clip-rule="evenodd"
        d="M95.5119 46.4348C93.3259 42.6248 90.3434 39.6112 86.5647 37.3939C82.7859 35.1765 78.7105 34.0679 74.3383 34.0679H72.3709C70.8718 29.6334 68.6233 25.7296 65.6253 22.3569C62.6897 18.9841 59.3013 16.2827 55.4601 14.2528C51.6188 12.2228 47.4497 10.8957 42.9526 10.271C38.5181 9.7089 34.0522 10.0212 29.5552 11.2079C24.7459 12.4571 20.4674 14.5027 16.7199 17.3445C12.9723 20.1864 9.7869 23.606 7.16362 27.6034C4.6028 31.6008 2.99448 35.9885 2.33866 40.7667C1.68284 45.5448 1.97952 50.2448 3.2287 54.8668C3.97821 57.615 4.99317 60.207 6.27358 62.6429C7.55399 65.0788 9.19354 67.3899 11.1922 69.5759C12.0042 70.3879 12.9411 70.8563 14.0029 70.9812C15.0647 71.1061 16.0015 70.7938 16.8135 70.0443C17.5631 69.2323 18.0158 68.2955 18.172 67.2337C18.3282 66.1719 18.0003 65.235 17.1883 64.423C15.7518 62.7991 14.487 61.0034 13.3939 59.0359C12.3008 57.0685 11.567 54.9917 11.1922 52.8056C10.1929 49.2455 9.97428 45.6697 10.5364 42.0783C11.0985 38.4869 12.379 35.0048 14.3776 31.632C16.1889 28.4466 18.6093 25.714 21.6385 23.4343C24.6677 21.1546 27.9625 19.6399 31.5226 18.8904C35.2702 17.891 38.9552 17.6724 42.5779 18.2346C46.2629 18.7967 49.6514 19.9834 52.7431 21.7947C55.8348 23.606 58.505 25.9795 60.7535 28.9151C63.0645 31.8506 64.6572 35.161 65.5316 38.846C65.719 39.658 66.1874 40.3294 66.9369 40.8603C67.6864 41.3913 68.5608 41.6567 69.5602 41.6567H74.3383C77.3363 41.6567 80.069 42.4062 82.5361 43.9052C85.0032 45.4042 86.9238 47.4342 88.2979 49.995C89.2973 51.8063 89.9063 53.7582 90.1248 55.8505C90.3434 57.9429 90.1405 59.9885 89.5159 61.9871C89.222 63.0321 88.8213 64.0387 88.314 65.0069L88.3284 65.0142C87.9996 65.6099 87.8125 66.2948 87.8125 67.0234C87.8125 69.3232 89.6768 71.1875 91.9766 71.1875C93.8382 71.1875 95.4144 69.9659 95.9475 68.2806C96.543 67.0655 97.0536 65.7797 97.4794 64.423C98.2917 61.6124 98.5259 58.6143 98.1821 55.4289C97.8382 52.2435 96.9482 49.2455 95.5119 46.4348ZM33 58C34.6148 58 36.0712 58.971 36.6923 60.4615L46.6923 84.4615C47.542 86.5007 46.5777 88.8426 44.5385 89.6923C42.4993 90.542 40.1574 89.5777 39.3077 87.5385L38.25 85H27.75L26.6923 87.5385C25.8426 89.5777 23.5007 90.542 21.4615 89.6923C19.4223 88.8426 18.458 86.5007 19.3077 84.4615L29.3077 60.4615C29.9288 58.971 31.3852 58 33 58ZM51 74V62C51 59.7909 52.7909 58 55 58H61C66.5229 58 71 62.4772 71 68C71 73.5228 66.5229 78 61 78H59V86C59 88.2091 57.2091 90 55 90C52.7909 90 51 88.2091 51 86V74ZM79 58C81.2091 58 83 59.7909 83 62V86C83 88.2091 81.2091 90 79 90C76.7909 90 75 88.2091 75 86V62C75 59.7909 76.7909 58 79 58ZM57 64H61C63.2091 64 65 65.7909 65 68C65 70.2091 63.2091 72 61 72H57V64ZM33 66.5L28.5 78.5H37.5L33 66.5Z"
        fill="currentcolor" />
</svg>