<svg width="100" height="100" viewBox="0 0 100 100" fill="none" xmlns="http://www.w3.org/2000/svg">
    <g clip-path="url(#clip0_1998_12)">
        <circle cx="50" cy="50" r="50" fill="#55AA00" />
        <rect width="100" height="100" rx="15" fill="#55AA00" />
        <path
            d="M45.8887 64.6007C45.8887 65.465 45.5886 66.1972 44.9884 66.7973C44.3882 67.3975 43.668 67.6976 42.8278 67.6976C41.9876 67.6976 41.2674 67.3975 40.6672 66.7973C40.067 66.1972 39.767 65.465 39.767 64.6007C39.767 63.7605 40.067 63.0403 40.6672 62.4401C41.2674 61.84 41.9876 61.5399 42.8278 61.5399C43.668 61.5399 44.3882 61.84 44.9884 62.4401C45.5886 63.0403 45.8887 63.7605 45.8887 64.6007ZM62.8133 64.6007C62.8133 65.465 62.5133 66.1972 61.9131 66.7973C61.3129 67.3975 60.5807 67.6976 59.7165 67.6976C58.8763 67.6976 58.1561 67.3975 57.5559 66.7973C56.9557 66.1972 56.6556 65.465 56.6556 64.6007C56.6556 63.7605 56.9557 63.0403 57.5559 62.4401C58.1561 61.84 58.8763 61.5399 59.7165 61.5399C60.5807 61.5399 61.3129 61.84 61.9131 62.4401C62.5133 63.0403 62.8133 63.7605 62.8133 64.6007ZM65.5501 37.3183C65.406 37.0782 65.226 36.9162 65.0099 36.8322C64.7939 36.7481 64.5658 36.7061 64.3257 36.7061H39.4429L38.2185 30.2243C38.1465 29.8402 37.9665 29.5402 37.6784 29.3241C37.3903 29.108 37.0542 29 36.6701 29H30.5484C30.0683 29 29.6902 29.144 29.4141 29.4321C29.138 29.7202 29 30.0923 29 30.5484C29 31.0046 29.138 31.3767 29.4141 31.6647C29.6902 31.9528 30.0683 32.0969 30.5484 32.0969H35.4458L36.6701 38.5426C36.6701 38.5426 36.6701 38.5667 36.6701 38.6147C36.6701 38.6627 36.6701 38.6867 36.6701 38.6867L39.2988 51.4342C39.5149 52.5145 40.0431 53.4027 40.8833 54.0989C41.7235 54.7951 42.6838 55.1432 43.7641 55.1432C43.7641 55.1432 43.7701 55.1432 43.7821 55.1432C43.7941 55.1432 43.8361 55.1432 43.9081 55.1432H58.8162C59.9685 55.1432 60.9648 54.7951 61.805 54.0989C62.6453 53.4027 63.1854 52.5145 63.4255 51.4342L65.8742 38.5426C65.8742 38.3026 65.8623 38.0745 65.8382 37.8584C65.814 37.6424 65.7182 37.4623 65.5501 37.3183ZM60.3286 50.822C60.2566 51.2061 60.0826 51.5062 59.8065 51.7223C59.5304 51.9383 59.2003 52.0464 58.8162 52.0464H43.9081C43.524 52.0464 43.1879 51.9383 42.8998 51.7223C42.6118 51.5062 42.4317 51.2061 42.3597 50.822L40.055 39.767H62.4892L60.3286 50.822Z"
            fill="white" stroke="white" stroke-width="2" />
    </g>
</svg>