<svg width="100" height="100" viewBox="0 0 100 100" fill="none" xmlns="http://www.w3.org/2000/svg">
    <g clip-path="url(#clip0_1998_12)">
        <circle cx="50" cy="50" r="50" fill="#55AA00" />
        <rect width="100" height="100" rx="15" fill="#55AA00" />
        <path
            d="M44.1904 75.3584C44.1904 76.6538 43.7429 77.7512 42.8477 78.6507C41.9525 79.5503 40.8782 80 39.625 80C38.3718 80 37.2975 79.5503 36.4023 78.6507C35.5071 77.7512 35.0596 76.6538 35.0596 75.3584C35.0596 74.0991 35.5071 73.0197 36.4023 72.1201C37.2975 71.2206 38.3718 70.7708 39.625 70.7708C40.8782 70.7708 41.9525 71.2206 42.8477 72.1201C43.7429 73.0197 44.1904 74.0991 44.1904 75.3584ZM69.4346 75.3584C69.4346 76.6538 68.987 77.7512 68.0918 78.6507C67.1966 79.5503 66.1045 80 64.8154 80C63.5622 80 62.488 79.5503 61.5928 78.6507C60.6976 77.7512 60.25 76.6538 60.25 75.3584C60.25 74.0991 60.6976 73.0197 61.5928 72.1201C62.488 71.2206 63.5622 70.7708 64.8154 70.7708C66.1045 70.7708 67.1966 71.2206 68.0918 72.1201C68.987 73.0197 69.4346 74.0991 69.4346 75.3584ZM73.5166 34.4675C73.3018 34.1076 73.0332 33.8648 72.7109 33.7389C72.3887 33.6129 72.0485 33.55 71.6904 33.55H34.5762L32.75 23.835C32.6426 23.2593 32.374 22.8096 31.9443 22.4857C31.5146 22.1619 31.0134 22 30.4404 22H21.3096C20.5934 22 20.0295 22.2159 19.6177 22.6477C19.2059 23.0794 19 23.6371 19 24.3208C19 25.0044 19.2059 25.5621 19.6177 25.9939C20.0295 26.4257 20.5934 26.6416 21.3096 26.6416H28.6143L30.4404 36.3025C30.4404 36.3025 30.4404 36.3385 30.4404 36.4105C30.4404 36.4824 30.4404 36.5184 30.4404 36.5184L34.3613 55.6244C34.6836 57.2435 35.4714 58.5749 36.7246 59.6183C37.9778 60.6617 39.4102 61.1835 41.0215 61.1835C41.0215 61.1835 41.0305 61.1835 41.0483 61.1835C41.0662 61.1835 41.1289 61.1835 41.2363 61.1835H63.4727C65.1914 61.1835 66.6774 60.6617 67.9307 59.6183C69.1839 58.5749 69.9896 57.2435 70.3477 55.6244L74 36.3025C74 35.9427 73.9823 35.6009 73.9463 35.277C73.9103 34.9532 73.7674 34.6834 73.5166 34.4675ZM65.7285 54.7069C65.6211 55.2826 65.3615 55.7323 64.9497 56.0562C64.5379 56.38 64.0456 56.5419 63.4727 56.5419H41.2363C40.6634 56.5419 40.1621 56.38 39.7324 56.0562C39.3027 55.7323 39.0342 55.2826 38.9268 54.7069L35.4893 38.1375H68.9512L65.7285 54.7069Z"
            fill="white" stroke="white" stroke-width="4" />
    </g>
</svg>