<svg width="100" height="100" viewBox="0 0 100 100" fill="none" xmlns="http://www.w3.org/2000/svg">
    <path fill-rule="evenodd" clip-rule="evenodd"
        d="M50.8268 88.83C49.2647 90.3921 46.732 90.3921 45.1699 88.83L9.16995 52.83C8.77943 52.4395 8.48653 51.9883 8.29127 51.5068C8.0988 51.0322 8.00119 50.5281 7.99844 50.0236C7.99281 48.9926 8.38331 47.9598 9.16995 47.1732L45.17 11.1732C46.732 9.61106 49.2647 9.61106 50.8268 11.1732C52.3889 12.7353 52.3889 15.2679 50.8268 16.83L17.6552 50.0016L50.8268 83.1732C52.3889 84.7353 52.3889 87.2679 50.8268 88.83ZM45.1701 52.8301C44.6021 52.2622 44.2407 51.566 44.0857 50.8348C44.0275 50.5604 43.9984 50.2811 43.9984 50.0018C43.9984 49.7653 44.0192 49.5288 44.0609 49.2953C44.1996 48.518 44.5692 47.7739 45.1698 47.1733L81.1698 11.17C82.7319 9.60788 85.2645 9.60776 86.8267 11.1698C88.3889 12.7318 88.389 15.2645 86.8269 16.8266L53.6552 50.0013L86.8267 83.1698C88.3888 84.7318 88.389 87.2645 86.8269 88.8266C85.2649 90.3888 82.7322 90.3889 81.1701 88.8269L45.1728 52.8329L45.1701 52.8301Z"
        fill="currentcolor" />
</svg>