<svg width="100" height="100" viewBox="0 0 100 100" fill="none" xmlns="http://www.w3.org/2000/svg">
    <path fill-rule="evenodd" clip-rule="evenodd"
        d="M11.1683 49.1716C9.60623 50.7337 9.60623 53.2663 11.1683 54.8284L47.1683 90.8284C47.5589 91.219 48.01 91.5118 48.4916 91.7071C48.9662 91.8996 49.4703 91.9972 49.9748 91.9999C51.0058 92.0056 52.0385 91.6151 52.8252 90.8284L88.8252 54.8284C90.3873 53.2663 90.3873 50.7337 88.8252 49.1716C87.2631 47.6095 84.7304 47.6095 83.1683 49.1716L49.9968 82.3431L16.8252 49.1716C15.2631 47.6095 12.7304 47.6095 11.1683 49.1716ZM47.1682 54.8283C47.7361 55.3962 48.4323 55.7577 49.1635 55.9127C49.4379 55.9709 49.7172 56 49.9966 56C50.2331 56 50.4696 55.9792 50.7031 55.9375C51.4803 55.7988 52.2244 55.4291 52.8251 54.8286L88.8283 18.8286C90.3905 17.2665 90.3906 14.7339 88.8286 13.1717C87.2665 11.6095 84.7339 11.6094 83.1717 13.1714L49.997 46.3431L16.8286 13.1717C15.2665 11.6095 12.7339 11.6094 11.1717 13.1714C9.60953 14.7335 9.60942 17.2661 11.1714 18.8283L47.1655 54.8256L47.1682 54.8283Z"
        fill="currentcolor" />
</svg>