<svg width="100" height="100" viewBox="0 0 100 100" fill="none" xmlns="http://www.w3.org/2000/svg">
    <path fill-rule="evenodd" clip-rule="evenodd"
        d="M48.4049 89.6693C47.9571 89.4749 47.5377 89.1945 47.1716 88.8284L11.1716 52.8284C9.60947 51.2663 9.60947 48.7337 11.1716 47.1716C12.7337 45.6095 15.2663 45.6095 16.8284 47.1716L46 76.3431L46 10C46 7.79086 47.7909 6 50 6C52.2091 6 54 7.79086 54 10L54 76.3431L83.1716 47.1716C84.7337 45.6095 87.2663 45.6095 88.8284 47.1716C90.3905 48.7337 90.3905 51.2663 88.8284 52.8284L52.8316 88.8252C52.8216 88.8352 52.8116 88.8452 52.8014 88.8552C52.7999 88.8566 52.7985 88.8581 52.797 88.8596C52.0826 89.5584 51.1073 89.9917 50.0309 89.9999C50.0103 90 49.9897 90 49.9691 89.9999C49.4416 89.9959 48.9384 89.8898 48.4784 89.7004C48.4538 89.6903 48.4293 89.68 48.4049 89.6693Z"
        fill="currentcolor" />
</svg>