<svg width="100" height="100" viewBox="0 0 100 100" fill="none" xmlns="http://www.w3.org/2000/svg">
    <path
        d="M92.875 15.1583C92.0625 14.3454 91.125 13.939 90.0625 13.939C89 13.939 88.0625 14.3454 87.25 15.1583L50.0312 52.3916L40.8438 43.2005C40.0312 42.3876 39.0937 41.9812 38.0312 41.9812C36.9688 41.9812 36.0313 42.3876 35.2188 43.2005C34.4062 44.0133 34 44.9512 34 46.0141C34 47.077 34.4062 48.0148 35.2188 48.8277L47.2188 60.8324C47.6563 61.2075 48.1406 61.4889 48.6719 61.6764C49.2032 61.864 49.6562 61.9578 50.0312 61.9578C50.4062 61.9578 50.8593 61.864 51.3906 61.6764C51.9219 61.4889 52.4062 61.2075 52.8438 60.8324L92.875 20.7855C93.625 19.9726 94 19.0347 94 17.9719C94 16.909 93.625 15.9711 92.875 15.1583ZM86.0312 46.0141C84.8437 46.0141 83.875 46.3736 83.125 47.0926C82.375 47.8117 82 48.7651 82 49.9531V77.9953C82 79.1833 81.6407 80.1524 80.9219 80.9027C80.2031 81.653 79.25 82.0281 78.0625 82.0281H22C20.8125 82.0281 19.8594 81.653 19.1406 80.9027C18.4218 80.1524 18.0625 79.1833 18.0625 77.9953V22.0047C18.0625 20.7542 18.4218 19.7695 19.1406 19.0504C19.8594 18.3313 20.8125 17.9719 22 17.9719H66.0625C67.25 17.9719 68.2031 17.6124 68.9219 16.8933C69.6407 16.1743 70 15.1895 70 13.939C70 12.751 69.6407 11.7976 68.9219 11.0785C68.2031 10.3595 67.25 10 66.0625 10H22C18.625 10 15.7813 11.1411 13.4688 13.4232C11.1562 15.7053 10 18.5658 10 22.0047V77.9953C10 81.3716 11.1562 84.2165 13.4688 86.5299C15.7813 88.8433 18.625 90 22 90H78.0625C81.4375 90 84.2812 88.8433 86.5938 86.5299C88.9063 84.2165 90.0625 81.3716 90.0625 77.9953V49.9531C90.0625 48.7651 89.6875 47.8117 88.9375 47.0926C88.1875 46.3736 87.2188 46.0141 86.0312 46.0141Z"
        fill="currentcolor" />
</svg>