<svg width="100" height="100" viewBox="0 0 100 100" fill="none" xmlns="http://www.w3.org/2000/svg">
    <path
        d="M78.0094 10H21.9906C18.6183 10 15.7768 11.1411 13.466 13.4232C11.1553 15.7053 10 18.5658 10 22.0047V77.9953C10 81.3716 11.1553 84.2165 13.466 86.5299C15.7768 88.8433 18.6183 90 21.9906 90H78.0094C81.3817 90 84.2232 88.8433 86.534 86.5299C88.8447 84.2165 90 81.3716 90 77.9953V22.0047C90 18.5658 88.8447 15.7053 86.534 13.4232C84.2232 11.1411 81.3817 10 78.0094 10ZM81.9438 77.9953C81.9438 79.1833 81.5847 80.1524 80.8665 80.9027C80.1483 81.653 79.196 82.0281 78.0094 82.0281H21.9906C20.804 82.0281 19.8517 81.653 19.1335 80.9027C18.4153 80.1524 18.0562 79.1833 18.0562 77.9953V22.0047C18.0562 20.7542 18.4153 19.7695 19.1335 19.0504C19.8517 18.3313 20.804 17.9719 21.9906 17.9719H78.0094C79.196 17.9719 80.1483 18.3313 80.8665 19.0504C81.5847 19.7695 81.9438 20.7542 81.9438 22.0047V77.9953Z"
        fill="currentcolor" />
</svg>