<svg width="100" height="100" viewBox="0 0 100 100" fill="none" xmlns="http://www.w3.org/2000/svg">
    <path fill-rule="evenodd" clip-rule="evenodd"
        d="M36.6661 69.0316L82.7433 22.616C83.5562 21.8648 84.4755 21.5 85.5208 21.5C86.5662 21.5 87.4855 21.8648 88.2984 22.6161C89.1113 23.4361 89.5 24.3569 89.5 25.3971C89.5 26.4404 89.1087 27.3638 88.291 28.1856L39.4508 77.3774C38.9956 77.7677 38.5702 78.049 38.175 78.2323C37.8103 78.4015 37.3154 78.5 36.6667 78.5C36.0179 78.5 35.5231 78.4015 35.1583 78.2323C34.7632 78.0491 34.3379 77.7678 33.8828 77.3776L11.7094 54.9875L11.7086 54.9867C10.8909 54.1649 10.5 53.2418 10.5 52.1986C10.5 51.1583 10.8887 50.2376 11.7015 49.4175C12.5145 48.6663 13.4338 48.3014 14.4792 48.3014C15.5244 48.3014 16.4436 48.6662 17.2565 49.4172L36.6661 69.0316Z"
        fill="currentcolor" />
</svg>