<svg width="100" height="100" viewBox="0 0 100 100" fill="none" xmlns="http://www.w3.org/2000/svg">
    <path fill-rule="evenodd" clip-rule="evenodd"
        d="M89 12C89 10.3688 88.0094 8.90093 86.4967 8.29057C84.9839 7.6802 83.2521 8.04961 82.12 9.22411L62.12 29.9741C60.5869 31.5647 60.6335 34.0969 62.2241 35.63C63.8147 37.1631 66.3469 37.1165 67.88 35.5259L81 21.9139V50V88C81 90.2092 82.7909 92 85 92C87.2091 92 89 90.2092 89 88V50V12ZM52 56C54.2091 56 56 54.2092 56 52C56 49.7909 54.2091 48 52 48H12C9.79086 48 8 49.7909 8 52C8 54.2092 9.79086 56 12 56H52Z"
        fill="currentcolor" />
</svg>