<svg width="100" height="100" viewBox="0 0 100 100" fill="none" xmlns="http://www.w3.org/2000/svg">
    <g clip-path="url(#clip0_1998_12)">
        <path fill-rule="evenodd" clip-rule="evenodd"
            d="M81.8284 6.82843C83.3905 5.26633 83.3905 2.73367 81.8284 1.17157C80.2663 -0.390524 77.7337 -0.390524 76.1716 1.17157L72.1716 5.17157C72.1712 5.17194 72.1708 5.17231 72.1705 5.17267C72.168 5.17517 72.1655 5.17768 72.163 5.18018C70.6009 6.74228 70.6009 9.27494 72.163 10.837C86.6123 25.2864 86.6123 48.7135 72.163 63.1629C57.7136 77.6123 34.2864 77.6123 19.8371 63.1629C18.275 61.6008 15.7423 61.6008 14.1802 63.1629C14.1777 63.1654 14.1752 63.1679 14.1727 63.1705C14.1723 63.1708 14.1719 63.1712 14.1716 63.1716L10.1716 67.1716C8.60948 68.7337 8.60948 71.2663 10.1716 72.8284C11.7337 74.3905 14.2663 74.3905 15.8284 72.8284L17.1326 71.5242C25.4656 78.5081 35.7328 82 46 82V92H29C26.7909 92 25 93.7909 25 96C25 98.2091 26.7909 100 29 100H50H71C73.2091 100 75 98.2091 75 96C75 93.7909 73.2091 92 71 92H54V81.2872C62.7251 79.7191 71.0763 75.5633 77.8198 68.8198C94.4402 52.1994 95.3417 25.8125 80.5242 8.13261L81.8284 6.82843ZM41.7399 16.4323C32.1845 18.4012 25 26.8616 25 37C25 39.6487 25.4904 42.1829 26.3853 44.5167L28.5869 40.9142C29.6407 39.1897 31.8154 38.5222 33.6552 39.3585L42.1317 43.2115L44.1716 41.1716C44.9594 40.3837 46.0401 39.9602 47.1535 40.0029C48.2669 40.0457 49.3119 40.5509 50.037 41.3968L59.8208 52.8113C64.2209 48.9619 67 43.3055 67 37C67 36.0766 66.9404 35.1671 66.8248 34.2752L54.9045 38.7453C53.9556 39.1011 52.907 39.0835 51.9706 38.6961L37.4706 32.6961C36.1705 32.1581 35.2486 30.9766 35.043 29.5847C34.8373 28.1927 35.3781 26.7951 36.467 25.9042L40.7904 22.3668L41.7399 16.4323ZM46 58C40.2418 58 35.0248 55.6824 31.2311 51.9291L33.5673 48.1062L41.3448 51.6414C42.8627 52.3314 44.6494 52.0074 45.8284 50.8284L46.7741 49.8828L52.7745 56.8833C50.6491 57.6072 48.3704 58 46 58ZM46.3496 8.00205C46.2332 8.00067 46.1167 7.99998 46 7.99998C29.9837 7.99998 17 20.9837 17 37C17 53.0162 29.9837 66 46 66C62.0163 66 75 53.0162 75 37C75 21.2497 62.4439 8.43209 46.7954 8.01068C46.6456 7.99942 46.4969 7.99667 46.3496 8.00205ZM49.8544 16.3529L48.4498 25.1319C48.295 26.099 47.7909 26.9757 47.033 27.5958L46.7089 27.8609L53.5722 30.7009L64.2937 26.6803C61.2939 21.3739 56.0519 17.5026 49.8544 16.3529Z"
            fill="currentcolor" />
    </g>
</svg>