<svg width="100" height="100" viewBox="0 0 100 100" fill="none" xmlns="http://www.w3.org/2000/svg">
    <path fill-rule="evenodd" clip-rule="evenodd"
        d="M81.8284 6.82843C83.3905 5.26633 83.3905 2.73367 81.8284 1.17157C80.2663 -0.390524 77.7337 -0.390524 76.1716 1.17157L72.1716 5.17157L72.1705 5.17267L72.163 5.18018C70.6009 6.74228 70.6009 9.27494 72.163 10.837C84.457 23.1311 86.2945 41.9334 77.659 56.1681C76.5132 58.0568 77.1154 60.5168 79.0042 61.6627C80.8929 62.8085 83.353 62.2062 84.4988 60.3175C94.332 44.1085 93.0117 23.0318 80.5243 8.13258L81.8284 6.82843ZM17.1326 71.5243L15.8284 72.8284C14.2663 74.3905 11.7337 74.3905 10.1716 72.8284C8.60948 71.2663 8.60948 68.7337 10.1716 67.1716L14.1716 63.1716L14.1728 63.1704L14.1802 63.1629C15.7423 61.6008 18.275 61.6008 19.8371 63.1629C31.7411 75.067 49.7448 77.1655 63.795 69.4519L57.8281 63.485C54.2128 65.1017 50.2075 66 46 66C29.9837 66 17 53.0163 17 37C17 32.7925 17.8983 28.7872 19.515 25.1719L5.45227 11.1091C3.89018 9.54703 3.89018 7.01437 5.45227 5.45227C7.01437 3.89018 9.54703 3.89018 11.1091 5.45227L94.5477 88.8909C96.1098 90.453 96.1098 92.9856 94.5477 94.5477C92.9856 96.1098 90.453 96.1098 88.8909 94.5477L69.6427 75.2996C64.7764 78.3089 59.4613 80.3046 54 81.2865V92H71C73.2091 92 75 93.7909 75 96C75 98.2091 73.2091 100 71 100H50H29C26.7909 100 25 98.2091 25 96C25 93.7909 26.7909 92 29 92H46V81.9997C35.733 82.0003 25.4662 78.5089 17.1326 71.5243ZM25.7516 31.4084C25.2618 33.1869 25 35.0613 25 37C25 39.6487 25.4904 42.1829 26.3853 44.5168L28.5869 40.9142C29.6407 39.1897 31.8154 38.5222 33.6552 39.3585L33.7404 39.3972L25.7516 31.4084ZM45.4809 51.1378C44.3162 52.0593 42.7202 52.2666 41.3448 51.6414L33.5673 48.1062L31.2311 51.9291C35.0248 55.6824 40.2418 58 46 58C47.9387 58 49.8131 57.7382 51.5916 57.2484L45.4809 51.1378ZM41.7401 16.4315C40.4925 16.6883 39.2867 17.0556 38.1328 17.5222C36.0847 18.3504 33.7531 17.3615 32.9249 15.3134C32.0968 13.2654 33.0857 10.9338 35.1337 10.1056C38.4949 8.74641 42.1652 7.99998 46 7.99998C46.1167 7.99998 46.2332 8.00067 46.3496 8.00205C46.4969 7.99667 46.6456 7.99942 46.7954 8.01068C62.4439 8.43209 75 21.2497 75 37C75 40.8348 74.2536 44.5051 72.8944 47.8663C72.0662 49.9143 69.7346 50.9032 67.6866 50.0751C65.6385 49.2469 64.6496 46.9153 65.4778 44.8672C66.4582 42.4427 67 39.7896 67 37C67 36.0766 66.9404 35.1671 66.8248 34.2752L58.1141 37.5417C56.0456 38.3174 53.74 37.2693 52.9643 35.2009C52.1886 33.1324 53.2367 30.8267 55.3051 30.0511L64.2937 26.6803C61.2939 21.3739 56.0519 17.5026 49.8544 16.3529L48.8498 22.6319C48.5007 24.8133 46.4494 26.2988 44.268 25.9497C42.0866 25.6007 40.6012 23.5494 40.9502 21.368L41.7401 16.4315Z"
        fill="currentcolor" />
</svg>