<svg width="100" height="100" viewBox="0 0 100 100" fill="none" xmlns="http://www.w3.org/2000/svg">
    <path
        d="M49.9265 5C45.0064 5 40.1182 5.3195 35.262 5.95847C30.4057 6.66135 26.0288 7.68371 22.131 9.02556C18.2332 10.3674 15.0703 12.0607 12.6422 14.1054C10.2141 16.1501 9 18.5783 9 21.3898V78.6102C9 81.3579 10.2141 83.754 12.6422 85.7987C15.0703 87.8434 18.2332 89.5527 22.131 90.9265C26.0288 92.3003 30.4057 93.3067 35.262 93.9457C40.1182 94.6485 45.0064 95 49.9265 95C54.8466 95 59.7348 94.6485 64.5911 93.9457C69.4473 93.3067 73.8242 92.3003 77.722 90.9265C81.6198 89.5527 84.7828 87.8434 87.2109 85.7987C89.6389 83.754 90.853 81.3579 90.853 78.6102V21.3898C90.853 18.5783 89.6389 16.1501 87.2109 14.1054C84.7828 12.0607 81.6198 10.3674 77.722 9.02556C73.8242 7.68371 69.4473 6.66135 64.5911 5.95847C59.7348 5.3195 54.8466 5 49.9265 5ZM82.6102 49.9521C82.6102 50.4632 81.9712 51.1981 80.6933 52.1565C79.4154 53.0511 77.4345 53.9457 74.7508 54.8403C72.0671 55.7348 68.6485 56.5016 64.4952 57.1406C60.4057 57.8434 55.5496 58.1949 49.9265 58.1949C44.3035 58.1949 39.4473 57.8434 35.3578 57.1406C31.2045 56.5016 27.7859 55.7348 25.1022 54.8403C22.4185 53.9457 20.4377 53.0511 19.1597 52.1565C17.8818 51.1981 17.2428 50.4632 17.2428 49.9521V31.5495C19.1597 32.5719 21.3642 33.4665 23.8562 34.2332C26.3482 35 29.0159 35.639 31.8594 36.1502C34.7029 36.6613 37.6581 37.0447 40.7252 37.3003C43.7923 37.5559 46.8594 37.6837 49.9265 37.6837C52.9936 37.6837 56.0607 37.5559 59.1278 37.3003C62.1949 37.0447 65.1501 36.6613 67.9936 36.1502C70.8371 35.639 73.5048 35 75.9968 34.2332C78.4888 33.4665 80.6933 32.5719 82.6102 31.5495V49.9521ZM49.9265 13.147C55.23 13.147 59.9265 13.4984 64.016 14.2013C68.1055 14.8403 71.5239 15.6071 74.2716 16.5016C77.0192 17.3961 79.0958 18.2908 80.5016 19.1853C81.9074 20.1438 82.6102 20.8786 82.6102 21.3898C82.6102 21.9009 81.9074 22.6039 80.5016 23.4984C79.0958 24.3929 77.0192 25.2876 74.2716 26.1821C71.5239 27.0766 68.1055 27.8754 64.016 28.5783C59.9265 29.2173 55.23 29.5367 49.9265 29.5367C44.623 29.5367 39.9265 29.2173 35.8371 28.5783C31.7476 27.8754 28.3291 27.0766 25.5815 26.1821C22.8338 25.2876 20.7572 24.3929 19.3514 23.4984C17.9457 22.6039 17.2428 21.9009 17.2428 21.3898C17.2428 20.8786 17.9457 20.1438 19.3514 19.1853C20.7572 18.2908 22.8338 17.3961 25.5815 16.5016C28.3291 15.6071 31.7476 14.8403 35.8371 14.2013C39.9265 13.4984 44.623 13.147 49.9265 13.147ZM49.9265 86.7572C44.3035 86.7572 39.4473 86.4377 35.3578 85.7987C31.2045 85.1597 27.7859 84.3929 25.1022 83.4984C22.4185 82.6039 20.4377 81.6773 19.1597 80.7188C17.8818 79.8243 17.2428 79.1214 17.2428 78.6102V60.2077C19.1597 61.2301 21.3642 62.1246 23.8562 62.8914C26.3482 63.6581 29.0159 64.2972 31.8594 64.8083C34.7029 65.3195 37.6581 65.7028 40.7252 65.9585C43.7923 66.2141 46.8594 66.3419 49.9265 66.3419C52.9936 66.3419 56.0607 66.2141 59.1278 65.9585C62.1949 65.7028 65.1501 65.3195 67.9936 64.8083C70.8371 64.2972 73.5048 63.6581 75.9968 62.8914C78.4888 62.1246 80.6933 61.2301 82.6102 60.2077V78.6102C82.6102 79.1214 81.9712 79.8243 80.6933 80.7188C79.4154 81.6773 77.4345 82.6039 74.7508 83.4984C72.0671 84.3929 68.6485 85.1597 64.4952 85.7987C60.4057 86.4377 55.5496 86.7572 49.9265 86.7572Z"
        fill="currentcolor" />
</svg>