<svg width="100" height="100" viewBox="0 0 100 100" fill="none" xmlns="http://www.w3.org/2000/svg">
    <path fill-rule="evenodd" clip-rule="evenodd"
        d="M48.5003 66.5746L48.4124 66.4866H48.2881C48.1881 66.4866 48.0374 66.4355 47.8289 66.2565C47.5992 66.0594 47.3867 65.863 47.1912 65.6672L25.7415 44.1924C24.9199 43.3699 24.5201 42.4361 24.5201 41.3798C24.5201 40.3235 24.9199 39.3898 25.7415 38.5672C26.5631 37.7446 27.4956 37.3445 28.5504 37.3445C29.6049 37.3445 30.5376 37.7449 31.3592 38.5672L45.9698 53.2994V11.2345C45.9698 10.0262 46.3479 9.084 47.0859 8.3759C47.8276 7.66422 48.7899 7.29999 50 7.29999C51.2101 7.29999 52.1724 7.66422 52.9141 8.3759C53.6521 9.084 54.0302 10.0262 54.0302 11.2345V53.2994L68.6414 38.5666C69.4629 37.7444 70.3952 37.3445 71.4496 37.3445C72.5043 37.3445 73.4368 37.7446 74.2585 38.5672C75.0801 39.3898 75.4799 40.3235 75.4799 41.3798C75.4799 42.4361 75.0801 43.3699 74.2585 44.1924L52.8088 65.6672C52.6313 65.8449 52.4443 65.9731 52.2482 66.0572C51.9744 66.1747 51.725 66.349 51.4997 66.5746C51.3612 66.7133 51.1495 66.8116 50.8288 66.8407C50.4624 66.874 50.1877 66.8899 50 66.8899C49.8123 66.8899 49.5376 66.874 49.1712 66.8407C48.8505 66.8116 48.6388 66.7133 48.5003 66.5746ZM85.7557 59.9961C86.4974 59.2844 87.4597 58.9202 88.6698 58.9202C89.8799 58.9202 90.8422 59.2844 91.5839 59.9961C92.3218 60.7042 92.7 61.6464 92.7 62.8546V80.0949C92.7 83.6479 91.4876 86.6289 89.0617 89.0576C86.6359 91.4863 83.6585 92.7 80.1101 92.7H19.8899C16.3415 92.7 13.3641 91.4863 10.9383 89.0576C8.51245 86.6289 7.3 83.6479 7.3 80.0949V62.8546C7.3 61.6464 7.67814 60.7042 8.41613 59.9961C9.15784 59.2844 10.1201 58.9202 11.3302 58.9202C12.5403 58.9202 13.5026 59.2844 14.2443 59.9961C14.9823 60.7042 15.3604 61.6464 15.3604 62.8546V80.0949C15.3604 81.4373 15.7685 82.5573 16.6018 83.4278C17.4387 84.3021 18.5452 84.7302 19.8899 84.7302H80.1101C81.4548 84.7302 82.5613 84.3021 83.3982 83.4278C84.2315 82.5573 84.6396 81.4373 84.6396 80.0949V62.8546C84.6396 61.6464 85.0177 60.7042 85.7557 59.9961Z"
        fill="currentcolor" />
</svg>