<svg width="100" height="100" viewBox="0 0 100 100" fill="none" xmlns="http://www.w3.org/2000/svg">
    <path
        d="M42.5938 50C42.5938 52.625 41.6823 54.8489 39.8594 56.6719C38.0364 58.4948 35.8489 59.4062 33.2969 59.4062C30.7448 59.4062 28.5573 58.4948 26.7344 56.6719C24.9114 54.8489 24 52.625 24 50C24 47.448 24.9114 45.2605 26.7344 43.4375C28.5573 41.6145 30.7448 40.7031 33.2969 40.7031C35.8489 40.7031 38.0364 41.6145 39.8594 43.4375C41.6823 45.2605 42.5938 47.448 42.5938 50ZM42.5938 17.4062C42.5938 19.9583 41.6823 22.1458 39.8594 23.9688C38.0364 25.7917 35.8489 26.7031 33.2969 26.7031C30.7448 26.7031 28.5573 25.7917 26.7344 23.9688C24.9114 22.1458 24 19.9583 24 17.4062C24 14.7812 24.9114 12.5573 26.7344 10.7344C28.5573 8.91142 30.7448 8 33.2969 8C35.8489 8 38.0364 8.91142 39.8594 10.7344C41.6823 12.5573 42.5938 14.7812 42.5938 17.4062ZM42.5938 82.7031C42.5938 85.2552 41.6823 87.4427 39.8594 89.2656C38.0364 91.0886 35.8489 92 33.2969 92C30.7448 92 28.5573 91.0886 26.7344 89.2656C24.9114 87.4427 24 85.2552 24 82.7031C24 80.1511 24.9114 77.9636 26.7344 76.1406C28.5573 74.3177 30.7448 73.4062 33.2969 73.4062C35.8489 73.4062 38.0364 74.3177 39.8594 76.1406C41.6823 77.9636 42.5938 80.1511 42.5938 82.7031Z"
        fill="currentcolor" />
    <path
        d="M75.1875 50C75.1875 52.625 74.2761 54.8489 72.4531 56.6719C70.6302 58.4948 68.4427 59.4062 65.8906 59.4062C63.3386 59.4062 61.1511 58.4948 59.3281 56.6719C57.5052 54.8489 56.5938 52.625 56.5938 50C56.5938 47.448 57.5052 45.2605 59.3281 43.4375C61.1511 41.6145 63.3386 40.7031 65.8906 40.7031C68.4427 40.7031 70.6302 41.6145 72.4531 43.4375C74.2761 45.2605 75.1875 47.448 75.1875 50ZM75.1875 17.4062C75.1875 19.9583 74.2761 22.1458 72.4531 23.9688C70.6302 25.7917 68.4427 26.7031 65.8906 26.7031C63.3386 26.7031 61.1511 25.7917 59.3281 23.9688C57.5052 22.1458 56.5938 19.9583 56.5938 17.4062C56.5938 14.7812 57.5052 12.5573 59.3281 10.7344C61.1511 8.91142 63.3386 8 65.8906 8C68.4427 8 70.6302 8.91142 72.4531 10.7344C74.2761 12.5573 75.1875 14.7812 75.1875 17.4062ZM75.1875 82.7031C75.1875 85.2552 74.2761 87.4427 72.4531 89.2656C70.6302 91.0886 68.4427 92 65.8906 92C63.3386 92 61.1511 91.0886 59.3281 89.2656C57.5052 87.4427 56.5938 85.2552 56.5938 82.7031C56.5938 80.1511 57.5052 77.9636 59.3281 76.1406C61.1511 74.3177 63.3386 73.4062 65.8906 73.4062C68.4427 73.4062 70.6302 74.3177 72.4531 76.1406C74.2761 77.9636 75.1875 80.1511 75.1875 82.7031Z"
        fill="currentcolor" />
</svg>