<svg width="100" height="100" viewBox="0 0 100 100" fill="none" xmlns="http://www.w3.org/2000/svg">
    <path fill-rule="evenodd" clip-rule="evenodd"
        d="M11.1091 5.45227C9.54703 3.89018 7.01437 3.89018 5.45227 5.45227C3.89018 7.01437 3.89018 9.54703 5.45227 11.1091L33.8431 39.5L8.17157 65.1716C7.42143 65.9217 7 66.9391 7 68V90C7 92.2091 8.79086 94 11 94H33C34.0609 94 35.0783 93.5786 35.8284 92.8284L61.5 67.1569L88.8909 94.5477C90.453 96.1098 92.9856 96.1098 94.5477 94.5477C96.1098 92.9856 96.1098 90.453 94.5477 88.8909L64.3284 58.6716L42.3284 36.6716L11.1091 5.45227ZM39.5 45.1569L15 69.6569V86H31.3431L55.8431 61.5L39.5 45.1569ZM70.8284 8.17157C69.2663 6.60948 66.7337 6.60948 65.1716 8.17157L50.9216 22.4216L48.1716 25.1716C46.6095 26.7337 46.6095 29.2663 48.1716 30.8284C49.7337 32.3905 52.2663 32.3905 53.8284 30.8284L56.5784 28.0784L68 16.6569L84.3431 33L72.9216 44.4216L70.1716 47.1716C68.6095 48.7337 68.6095 51.2663 70.1716 52.8284C71.7337 54.3905 74.2663 54.3905 75.8284 52.8284L78.5784 50.0784L92.8284 35.8284C94.3905 34.2663 94.3905 31.7337 92.8284 30.1716L70.8284 8.17157Z"
        fill="currentcolor" />
</svg>