<svg width="100" height="100" viewBox="0 0 100 100" fill="none" xmlns="http://www.w3.org/2000/svg">
    <path fill-rule="evenodd" clip-rule="evenodd"
        d="M13 50C13 29.5655 29.5655 13 50 13C70.4345 13 87 29.5655 87 50C87 70.4345 70.4345 87 50 87C29.5655 87 13 70.4345 13 50ZM50 5C25.1472 5 5 25.1472 5 50C5 74.8528 25.1472 95 50 95C74.8528 95 95 74.8528 95 50C95 25.1472 74.8528 5 50 5ZM36 46C39.3137 46 42 43.3137 42 40C42 36.6863 39.3137 34 36 34C32.6863 34 30 36.6863 30 40C30 43.3137 32.6863 46 36 46ZM70 40C70 43.3137 67.3137 46 64 46C60.6863 46 58 43.3137 58 40C58 36.6863 60.6863 34 64 34C67.3137 34 70 36.6863 70 40ZM64.8492 65.8492C66.4113 64.2871 66.4113 61.7545 64.8492 60.1924C63.2871 58.6303 60.7545 58.6303 59.1924 60.1924C56.7544 62.6304 53.4478 64 50 64C46.5522 64 43.2456 62.6304 40.8076 60.1924C39.2455 58.6303 36.7129 58.6303 35.1508 60.1924C33.5887 61.7545 33.5887 64.2871 35.1508 65.8492C39.089 69.7875 44.4305 72 50 72C55.5695 72 60.911 69.7875 64.8492 65.8492Z"
        fill="currentcolor" />
</svg>