<svg width="100" height="100" viewBox="0 0 100 100" fill="none" xmlns="http://www.w3.org/2000/svg">
    <path fill-rule="evenodd" clip-rule="evenodd"
        d="M21.1044 96C10.9242 96 5.36844 84.1214 11.894 76.3078L35.0701 48.5575C35.6709 47.8382 36 46.9307 36 45.9935V12H33C30.7909 12 29 10.2091 29 8C29 5.79086 30.7909 4 33 4H40H60H67C69.2091 4 71 5.79086 71 8C71 10.2091 69.2091 12 67 12H64V45.9935C64 46.9307 64.3291 47.8382 64.9299 48.5575L88.106 76.3078C94.6316 84.1214 89.0758 96 78.8956 96H21.1044ZM56 12H44V45.9935C44 48.8051 43.0127 51.5276 41.2104 53.6856L18.0343 81.4359C15.8591 84.0405 17.711 88 21.1044 88H78.8956C82.289 88 84.1409 84.0405 81.9657 81.4359L58.7896 53.6856C56.9873 51.5276 56 48.8051 56 45.9935V12Z"
        fill="currentcolor" />
</svg>