<svg width="100" height="100" viewBox="0 0 100 100" fill="none" xmlns="http://www.w3.org/2000/svg">
    <path fill-rule="evenodd" clip-rule="evenodd"
        d="M13 50C13 29.5655 29.5655 13 50 13C70.4345 13 87 29.5655 87 50C87 70.4345 70.4345 87 50 87C29.5655 87 13 70.4345 13 50ZM50 5C25.1472 5 5 25.1472 5 50C5 74.8528 25.1472 95 50 95C74.8528 95 95 74.8528 95 50C95 25.1472 74.8528 5 50 5ZM71.1695 34.2772C71.5697 32.8798 71.1804 31.3753 70.1525 30.3475C69.1247 29.3197 67.6202 28.9303 66.2228 29.3305L40.4595 36.709C39.1818 37.0749 38.1693 38.0516 37.7576 39.3153L28.8727 66.585C28.4063 68.0163 28.783 69.5881 29.8475 70.6526C30.9119 71.717 32.4838 72.0937 33.915 71.6274L61.1848 62.7424C62.4484 62.3307 63.4251 61.3182 63.791 60.0405L71.1695 34.2772ZM38.916 61.5841L44.7056 43.8146L61.4934 39.0066L56.6854 55.7944L38.916 61.5841Z"
        fill="currentcolor" />
</svg>