<svg width="100" height="100" viewBox="0 0 100 100" fill="none" xmlns="http://www.w3.org/2000/svg">
    <path fill-rule="evenodd" clip-rule="evenodd"
        d="M58 8C55.7909 8 54 9.79086 54 12C54 14.2091 55.7909 16 58 16H78.3431L54.1716 40.1716C52.6095 41.7337 52.6095 44.2663 54.1716 45.8284C55.7337 47.3905 58.2663 47.3905 59.8284 45.8284L84 21.6569V42C84 44.2091 85.7909 46 88 46C90.2091 46 92 44.2091 92 42V12C92 9.79086 90.2091 8 88 8H58ZM8 28C8 25.7909 9.79086 24 12 24H42C44.2091 24 46 25.7909 46 28C46 30.2091 44.2091 32 42 32H16V43C16 45.2091 14.2091 47 12 47C9.79086 47 8 45.2091 8 43V28ZM8 58C8 55.7909 9.79086 54 12 54H42C44.2091 54 46 55.7909 46 58V88C46 90.2091 44.2091 92 42 92H12C9.79086 92 8 90.2091 8 88V58ZM16 62V84H38V62H16ZM77 58C77 55.7909 75.2091 54 73 54C70.7909 54 69 55.7909 69 58V84H58C55.7909 84 54 85.7909 54 88C54 90.2091 55.7909 92 58 92H73C75.2091 92 77 90.2091 77 88V58Z"
        fill="currentcolor" />
</svg>