<svg width="100" height="100" viewBox="0 0 100 100" fill="none" xmlns="http://www.w3.org/2000/svg">
    <path fill-rule="evenodd" clip-rule="evenodd"
        d="M11.1091 5.45227C9.54703 3.89018 7.01437 3.89018 5.45227 5.45227C3.89018 7.01437 3.89018 9.54703 5.45227 11.1091L38 43.6569V81C38 82.5151 38.856 83.9001 40.2111 84.5777L56.2111 92.5777C57.4511 93.1977 58.9237 93.1314 60.1029 92.4026C61.2822 91.6738 62 90.3863 62 89V67.6569L88.8909 94.5477C90.453 96.1098 92.9856 96.1098 94.5477 94.5477C96.1098 92.9856 96.1098 90.453 94.5477 88.8909L60.8299 55.173C60.8289 55.1721 60.8279 55.1711 60.827 55.1701L11.1091 5.45227ZM54 59.6569L46 51.6569V78.5279L54 82.5279V59.6569ZM38 11C35.7909 11 34 12.7909 34 15C34 17.2091 35.7909 19 38 19H82.3756L63.5621 41.234C62.1352 42.9205 62.3455 45.4444 64.0319 46.8714C65.7184 48.2983 68.2423 48.088 69.6692 46.4016L94.0535 17.5838C95.0596 16.3948 95.284 14.7299 94.6287 13.317C93.9734 11.9041 92.5575 11 91 11H38Z"
        fill="currentcolor" />
</svg>