<svg width="100" height="100" viewBox="0 0 100 100" fill="none" xmlns="http://www.w3.org/2000/svg">
    <path
        d="M94.5208 13.5176C94.1374 12.6869 93.6262 12.0799 92.9872 11.6965C92.3482 11.3131 91.6454 11.1214 90.8786 11.1214H9.02556C8.25879 11.1214 7.55591 11.3131 6.91693 11.6965C6.27795 12.0799 5.76677 12.6869 5.38339 13.5176C5 14.1566 4.87221 14.8434 5 15.5783C5.12779 16.3131 5.38339 17 5.76677 17.639L37.6837 55.2109V80.6102C37.6837 81.4409 37.8914 82.1598 38.3067 82.7668C38.722 83.3738 39.345 83.869 40.1757 84.2524L56.4696 92.4952C56.6613 92.6869 56.885 92.7987 57.1406 92.8307C57.3962 92.8626 57.7157 92.8786 58.099 92.8786C58.5464 92.8786 58.9457 92.8626 59.2971 92.8307C59.6486 92.7987 59.952 92.6869 60.2077 92.4952C60.7827 92.0479 61.262 91.5207 61.6454 90.9137C62.0288 90.3067 62.2204 89.5879 62.2204 88.7572V55.2109L94.1374 17.639C94.5208 17 94.7764 16.3131 94.9042 15.5783C95.0319 14.8434 94.9042 14.1566 94.5208 13.5176ZM54.8403 51.1853C54.6486 51.5687 54.4729 51.984 54.3131 52.4313C54.1533 52.8786 54.0735 53.4217 54.0735 54.0607V82.2396L45.8307 78.1182V54.0607C45.8307 53.6134 45.7508 53.1341 45.5911 52.623C45.4313 52.1118 45.2556 51.7604 45.0639 51.5687L18.0351 19.2684H82.2524L54.8403 51.1853Z"
        fill="currentcolor" />
</svg>