<svg width="100" height="100" viewBox="0 0 100 100" fill="none" xmlns="http://www.w3.org/2000/svg">
    <path fill-rule="evenodd" clip-rule="evenodd"
        d="M12 8C9.79086 8 8 9.79086 8 12V42C8 44.2091 9.79086 46 12 46H42C44.2091 46 46 44.2091 46 42V12C46 9.79086 44.2091 8 42 8H12ZM16 38V16H38V38H16ZM12 54C9.79086 54 8 55.7909 8 58V88C8 90.2091 9.79086 92 12 92H42C44.2091 92 46 90.2091 46 88V58C46 55.7909 44.2091 54 42 54H12ZM16 84V62H38V84H16ZM54 12C54 9.79086 55.7909 8 58 8H88C90.2091 8 92 9.79086 92 12V42C92 44.2091 90.2091 46 88 46H58C55.7909 46 54 44.2091 54 42V12ZM62 16V38H84V16H62ZM58 54C55.7909 54 54 55.7909 54 58V88C54 90.2091 55.7909 92 58 92H88C90.2091 92 92 90.2091 92 88V58C92 55.7909 90.2091 54 88 54H58ZM62 84V62H84V84H62Z"
        fill="currentcolor" />
</svg>