<svg width="100" height="100" viewBox="0 0 100 100" fill="none" xmlns="http://www.w3.org/2000/svg">
    <path fill-rule="evenodd" clip-rule="evenodd"
        d="M11.1092 5.45227C9.54709 3.89018 7.01443 3.89018 5.45233 5.45227C3.89024 7.01437 3.89024 9.54703 5.45233 11.1091L6.80365 12.4604C5.89981 14.2437 5.44724 16.256 5.44724 18.5053V81.4947C5.44724 85.1652 6.69915 88.237 9.20467 90.7426C11.7102 93.2481 14.782 94.5 18.4525 94.5H81.5475C83.7432 94.5 85.7247 94.052 87.4989 93.1557L88.8909 94.5477C90.453 96.1098 92.9857 96.1098 94.5478 94.5477C96.1099 92.9856 96.1099 90.453 94.5478 88.8909L11.1092 5.45227ZM80.8749 86.5317L54.4939 60.1507L28.1129 86.5317H80.8749ZM48.8704 54.5272L38.5224 44.1791C37.2266 44.7374 35.8135 45.0158 34.279 45.0158C31.2424 45.0158 28.6979 43.9755 26.6138 41.8915C24.5297 39.8074 23.4894 37.2629 23.4894 34.2263C23.4894 32.6771 23.7602 31.2561 24.3021 29.9589L13.5211 19.1779V81.4947C13.5211 82.5277 13.8617 83.4779 14.5223 84.3327C15.1876 85.1936 16.042 85.7532 17.074 85.9913L17.344 86.0536L48.8704 54.5272ZM94.5528 68.0563V67.9338V18.5053C94.5528 14.7617 93.2991 11.6746 90.7978 9.20707C88.2927 6.73592 85.2201 5.5 81.5475 5.5H32.2559V5.50187C32.2148 5.50063 32.1736 5.5 32.1323 5.5C29.9232 5.5 28.1323 7.29086 28.1323 9.5C28.1323 11.7091 29.9232 13.5 32.1323 13.5C32.3036 13.5 32.4723 13.4892 32.6379 13.4683H81.5475C82.9925 13.4683 84.2006 13.9097 85.1191 14.8282C86.0424 15.7515 86.4789 16.9983 86.4789 18.5053V53.9037L70.854 38.1672L70.8527 38.1659C70.0239 37.3377 69.0934 36.942 68.0422 36.942C66.9905 36.942 66.0596 37.338 65.2305 38.1672L62.9766 40.421L62.9802 40.4255C62.2974 41.143 61.8784 42.1138 61.8784 43.1824C61.8784 45.3916 63.6692 47.1824 65.8784 47.1824C66.6612 47.1824 67.3916 46.9575 68.0083 46.5688L68.0352 46.6016L68.0313 46.6133L68.0422 46.6024L86.4789 65.0391V68.0563H86.5546C86.6194 70.2088 88.3846 71.9338 90.5528 71.9338C92.7209 71.9338 94.4861 70.2088 94.5509 68.0563H94.5528Z"
        fill="currentcolor" />
</svg>