<svg width="100" height="100" viewBox="0 0 100 100" fill="none" xmlns="http://www.w3.org/2000/svg">
    <path fill-rule="evenodd" clip-rule="evenodd"
        d="M9.20225 9.20707C11.7073 6.73592 14.7799 5.5 18.4525 5.5H81.5475C85.2201 5.5 88.2927 6.73592 90.7978 9.20707C93.2991 11.6746 94.5528 14.7617 94.5528 18.5053V81.4947C94.5528 85.1652 93.3009 88.237 90.7953 90.7426C88.2898 93.2481 85.218 94.5 81.5475 94.5H18.4525C14.782 94.5 11.7102 93.2481 9.20467 90.7426C6.69915 88.237 5.44724 85.1652 5.44724 81.4947V18.5053C5.44724 14.7617 6.70091 11.6746 9.20225 9.20707ZM18.4525 13.4683C17.0075 13.4683 15.7994 13.9097 14.8809 14.8282C13.9576 15.7515 13.5211 16.9983 13.5211 18.5053V81.4947C13.5211 82.5277 13.8617 83.4779 14.5223 84.3327C15.1876 85.1936 16.042 85.7532 17.074 85.9913L17.344 86.0536L65.2305 38.1672C66.0596 37.338 66.9905 36.942 68.0422 36.942C69.0934 36.942 70.0239 37.3377 70.8527 38.1659L70.854 38.1672L86.4789 53.9037V18.5053C86.4789 16.9983 86.0424 15.7515 85.1191 14.8282C84.2006 13.9097 82.9925 13.4683 81.5475 13.4683H18.4525ZM26.6138 26.5611C28.6979 24.477 31.2424 23.4367 34.279 23.4367C37.2419 23.4367 39.7523 24.4746 41.8387 26.5611C43.9228 28.6451 44.9631 31.1896 44.9631 34.2263C44.9631 37.2629 43.9228 39.8074 41.8387 41.8915C39.7523 43.9779 37.2419 45.0158 34.279 45.0158C31.2424 45.0158 28.6979 43.9755 26.6138 41.8915C24.5297 39.8074 23.4894 37.2629 23.4894 34.2263C23.4894 31.1896 24.5297 28.6451 26.6138 26.5611ZM34.279 31.5106C33.4805 31.5106 32.7872 31.7326 32.253 32.2223C31.7047 32.7249 31.4578 33.4172 31.4578 34.2263C31.4578 35.0354 31.7047 35.7276 32.253 36.2302C32.7872 36.72 33.4805 36.942 34.279 36.942C35.0228 36.942 35.6752 36.7109 36.1995 36.2302C36.7478 35.7276 36.9947 35.0354 36.9947 34.2263C36.9947 33.4172 36.7478 32.7249 36.1995 32.2223C35.6752 31.7416 35.0228 31.5106 34.279 31.5106ZM86.4789 65.0391L68.0422 46.6024L28.1129 86.5317H81.5475C82.9989 86.5317 84.2095 86.0684 85.1265 85.1115C86.0376 84.1609 86.4789 82.9402 86.4789 81.4947V65.0391Z"
        fill="currentcolor" />
</svg>