<svg width="100" height="100" viewBox="0 0 100 100" fill="none" xmlns="http://www.w3.org/2000/svg">
    <path fill-rule="evenodd" clip-rule="evenodd"
        d="M5.5 17.5C5.5 10.8726 10.8726 5.5 17.5 5.5H82.5C89.1274 5.5 94.5 10.8726 94.5 17.5V62.0092L70.9196 38.4288C69.3575 36.8667 66.8248 36.8667 65.2627 38.4288L11.0626 92.629C7.71836 90.4991 5.5 86.7586 5.5 82.5V17.5ZM68.0912 46.9141L94.5 73.3229V82.5C94.5 89.1274 89.1274 94.5 82.5 94.5H20.5052L68.0912 46.9141ZM31.1056 34.3142C31.1056 32.6888 32.4232 31.3712 34.0486 31.3712C35.674 31.3712 36.9917 32.6888 36.9917 34.3142C36.9917 35.9396 35.674 37.2572 34.0486 37.2572C32.4232 37.2572 31.1056 35.9396 31.1056 34.3142ZM34.0486 23.3712C28.005 23.3712 23.1056 28.2705 23.1056 34.3142C23.1056 40.3579 28.005 45.2572 34.0486 45.2572C40.0923 45.2572 44.9917 40.3579 44.9917 34.3142C44.9917 28.2705 40.0923 23.3712 34.0486 23.3712Z"
        fill="currentcolor" />
</svg>