<svg width="100" height="100" viewBox="0 0 100 100" fill="none" xmlns="http://www.w3.org/2000/svg">
    <path
        d="M10 21.9109L10 37.9484C10 39.1364 10.3595 40.1055 11.0785 40.8558C11.7976 41.6061 12.751 41.9812 13.939 41.9812C15.1895 41.9812 16.1743 41.6061 16.8933 40.8558C17.6124 40.1055 17.9719 39.1364 17.9719 37.9484L17.9719 21.9109C17.9719 20.7229 18.3313 19.7695 19.0504 19.0504C19.7695 18.3313 20.7542 17.9719 22.0047 17.9719L77.9953 17.9719C79.1833 17.9719 80.1524 18.3313 80.9027 19.0504C81.653 19.7695 82.0281 20.7229 82.0281 21.9109L82.0281 37.9484C82.0281 39.1364 82.3876 40.1055 83.1067 40.8558C83.8257 41.6061 84.7792 41.9812 85.9672 41.9812C87.2176 41.9812 88.2024 41.6061 88.9215 40.8558C89.6405 40.1055 90 39.1364 90 37.9484L90 21.9109C90 18.5346 88.8433 15.6898 86.5299 13.3763C84.2165 11.0629 81.3716 9.90621 77.9953 9.90621L22.0047 9.90621C18.5658 9.90621 15.7053 11.0629 13.4232 13.3763C11.1411 15.6898 10 18.5346 10 21.9109ZM51.5475 34.3845C51.1723 34.1344 50.7034 34.0094 50.1407 34.0094C49.578 34.0094 48.984 34.1344 48.3587 34.3845C48.1712 34.5721 47.9836 34.6971 47.796 34.7597C47.6084 34.8222 47.3896 34.9472 47.1395 35.1348L27.163 55.1114C26.3501 55.9242 25.9437 56.8621 25.9437 57.925C25.9437 58.9879 26.3501 59.9257 27.163 60.7386C27.9758 61.5514 28.9137 61.9578 29.9766 61.9578C31.0394 61.9578 31.9773 61.5514 32.7902 60.7386L46.0141 47.5147L46.0141 85.9672C46.0141 87.1552 46.3736 88.1243 47.0926 88.8746C47.8117 89.6249 48.7651 90 49.9531 90C51.2036 90 52.1883 89.6249 52.9074 88.8746C53.6264 88.1243 53.9859 87.1552 53.9859 85.9672L53.9859 47.5147L67.2098 60.7386C68.0227 61.5514 68.9606 61.9578 70.0234 61.9578C71.0863 61.9578 72.0242 61.5514 72.837 60.7386C73.2122 60.3634 73.4936 59.957 73.6811 59.5193C73.8687 59.0816 73.9625 58.5502 73.9625 57.925C73.9625 57.3622 73.8687 56.8621 73.6811 56.4244C73.4936 55.9867 73.2122 55.5491 72.837 55.1114L52.7667 35.1348C52.5791 34.9472 52.3916 34.7753 52.204 34.619C52.0164 34.4626 51.7976 34.3845 51.5475 34.3845Z"
        fill="currentcolor" />
</svg>