<svg width="100" height="100" viewBox="0 0 100 100" fill="none" xmlns="http://www.w3.org/2000/svg">
    <path
        d="M50 4.95203C43.7314 4.95203 37.8785 6.1354 32.4414 8.50213C26.9403 10.8049 22.1588 14.0032 18.097 18.097C14.0352 22.1909 10.8209 26.9563 8.45416 32.3934C6.15139 37.8944 5 43.7473 5 49.952C5 56.2206 6.15139 62.0735 8.45416 67.5107C10.8209 73.0117 14.0352 77.7932 18.097 81.855C22.1588 85.9168 26.9403 89.1311 32.4414 91.4979C37.8785 93.8646 43.7314 95.048 50 95.048C56.2686 95.048 62.1215 93.8646 67.5586 91.4979C73.0597 89.1311 77.8412 85.9168 81.903 81.855C85.9648 77.7932 89.1791 73.0117 91.5458 67.5107C93.8486 62.0735 95 56.2206 95 49.952C95 43.7473 93.8486 37.8944 91.5458 32.3934C89.1791 26.9563 85.9648 22.1909 81.903 18.097C77.8412 14.0032 73.0597 10.8049 67.5586 8.50213C62.1215 6.1354 56.2686 4.95203 50 4.95203ZM50 86.7964C44.8828 86.7964 40.0853 85.8369 35.6077 83.9179C31.13 81.9989 27.2282 79.3764 23.9019 76.0501C20.5757 72.7238 17.9531 68.822 16.0341 64.3443C14.1151 59.8667 13.1557 55.0693 13.1557 49.952C13.1557 44.8348 14.1151 40.0373 16.0341 35.5597C17.9531 31.0821 20.5757 27.1802 23.9019 23.8539C27.2282 20.5277 31.13 17.9051 35.6077 15.9861C40.0853 14.0672 44.8828 13.1077 50 13.1077C55.1172 13.1077 59.9147 14.0672 64.3923 15.9861C68.87 17.9051 72.7718 20.5277 76.0981 23.8539C79.4243 27.1802 82.0469 31.0821 83.9659 35.5597C85.8849 40.0373 86.8444 44.8348 86.8444 49.952C86.8444 55.0693 85.8849 59.8667 83.9659 64.3443C82.0469 68.822 79.4243 72.7238 76.0981 76.0501C72.7718 79.3764 68.87 81.9989 64.3923 83.9179C59.9147 85.8369 55.1172 86.7964 50 86.7964ZM50 45.9222C48.7846 45.9222 47.7932 46.2899 47.0256 47.0256C46.258 47.7612 45.8742 48.7366 45.8742 49.952V66.3593C45.8742 67.5747 46.258 68.5661 47.0256 69.3337C47.7932 70.1013 48.7846 70.4851 50 70.4851C51.2154 70.4851 52.2068 70.1013 52.9744 69.3337C53.742 68.5661 54.1258 67.5747 54.1258 66.3593V49.952C54.1258 48.7366 53.742 47.7612 52.9744 47.0256C52.2068 46.2899 51.2154 45.9222 50 45.9222ZM47.1215 30.7623C46.7377 31.1461 46.4339 31.5618 46.21 32.0096C45.9862 32.4574 45.8742 33.001 45.8742 33.6407C45.8742 34.2164 45.9862 34.7281 46.21 35.1759C46.4339 35.6237 46.7377 36.0714 47.1215 36.5192C47.5693 36.903 48.0011 37.1908 48.4168 37.3827C48.8326 37.5746 49.3603 37.6706 50 37.6706C50.6397 37.6706 51.1674 37.5746 51.5832 37.3827C51.9989 37.1908 52.4307 36.903 52.8785 36.5192C53.2623 36.0714 53.5661 35.6237 53.79 35.1759C54.0138 34.7281 54.1258 34.2164 54.1258 33.6407C54.1258 33.001 54.0138 32.4574 53.79 32.0096C53.5661 31.5618 53.2623 31.1461 52.8785 30.7623C52.0469 29.9307 51.0874 29.5149 50 29.5149C48.9126 29.5149 47.9531 29.9307 47.1215 30.7623Z"
        fill="currentcolor" />
</svg>