<svg width="100" height="100" viewBox="0 0 100 100" fill="none" xmlns="http://www.w3.org/2000/svg">
    <path fill-rule="evenodd" clip-rule="evenodd"
        d="M50 1C52.2091 1 54 2.79086 54 5V11.3431L72.8284 30.1716C72.8999 30.2431 72.9683 30.3168 73.0335 30.3926C73.6249 31.0803 73.9554 31.9372 73.9959 32.8171C73.9992 32.8885 74.0005 32.96 74 33.0316V44.6667C74 46.8758 72.2091 48.6667 70 48.6667C67.7909 48.6667 66 46.8758 66 44.6667V37H34V61C34 63.2091 32.2091 65 30 65C27.7909 65 26 63.2091 26 61V33.0314C25.9995 32.96 26.0008 32.8886 26.0041 32.8174C26.0505 31.7847 26.4885 30.854 27.1731 30.1701L46 11.3431V5C46 2.79086 47.7909 1 50 1ZM60.3431 29L50 18.6569L39.6569 29H60.3431ZM9.94727 52C11.1101 52 12.0586 52.3672 12.793 53.1016C13.5273 53.8359 13.8945 54.7845 13.8945 55.9473V63.75C13.8945 67.1159 15.0114 69.9157 17.2451 72.1494C19.4788 74.3831 22.2786 75.5 25.6445 75.5H81.084L71.9961 66.5039C71.2617 65.7083 70.8945 64.7903 70.8945 63.75C70.8945 62.7097 71.2617 61.7917 71.9961 60.9961C72.7917 60.2617 73.7097 59.8945 74.75 59.8945C75.7903 59.8945 76.7083 60.2617 77.5039 60.9961L93.2012 76.6934C93.3848 76.877 93.5531 77.0759 93.7061 77.29C93.8591 77.5042 93.9355 77.7031 93.9355 77.8867C94.1803 78.2539 94.3027 78.7129 94.3027 79.2637C94.3027 79.8145 94.1803 80.3958 93.9355 81.0078C93.752 81.1914 93.6296 81.3903 93.5684 81.6045C93.5072 81.8187 93.3848 82.0176 93.2012 82.2012L77.5039 97.8984C77.1367 98.2656 76.739 98.541 76.3105 98.7246C75.8821 98.9082 75.362 99 74.75 99C74.1992 99 73.7097 98.9082 73.2812 98.7246C72.8528 98.541 72.4245 98.2656 71.9961 97.8984C71.2617 97.1026 70.8945 96.1846 70.8945 95.1445C70.8945 94.1042 71.2617 93.1862 71.9961 92.3906L81.084 83.3945H25.6445C22.8906 83.3945 20.3203 82.8743 17.9336 81.834C15.5469 80.8548 13.4661 79.4778 11.6914 77.7031C9.9167 75.9284 8.53974 73.8477 7.56055 71.4609C6.52021 69.0742 6 66.5039 6 63.75V55.9473C6 54.7845 6.36719 53.8359 7.10156 53.1016C7.83594 52.3672 8.78447 52 9.94727 52Z"
        fill="currentcolor" />
</svg>