<svg width="100" height="100" viewBox="0 0 100 100" fill="none" xmlns="http://www.w3.org/2000/svg">
    <g clip-path="url(#clip0_1998_12)">
        <path fill-rule="evenodd" clip-rule="evenodd"
            d="M11.1091 5.45227C9.54703 3.89018 7.01437 3.89018 5.45227 5.45227C3.89018 7.01437 3.89018 9.54703 5.45227 11.1091L29 34.6569V61.1238C25.7293 61.5316 22.7653 62.9266 20.4153 65.0012L17.0544 58.0009C16.0982 56.0094 13.7087 55.17 11.7172 56.1262C9.72567 57.0823 8.88634 59.4719 9.84248 61.4634L13.4252 68.9256L5.71857 67.2985C3.55708 66.8421 1.43489 68.2243 0.978506 70.3858C0.522126 72.5473 1.90439 74.6695 4.06587 75.1259L11.7725 76.7531L5.47889 82.13C3.79927 83.565 3.60096 86.0899 5.03594 87.7695C6.47092 89.4491 8.99581 89.6475 10.6754 88.2125L16.3251 83.3857C18.7908 89.0442 24.4334 93 31 93L70 93C70.0445 93 70.0888 92.9993 70.1329 92.9978L71.4457 93.0028C71.8155 93.0043 72.1754 92.955 72.518 92.8612C76.2808 92.1711 79.1792 89.0089 79.4564 85.1133L88.8909 94.5477C90.453 96.1098 92.9856 96.1098 94.5477 94.5477C96.1098 92.9856 96.1098 90.453 94.5477 88.8909L11.1091 5.45227ZM68.8442 74.5011L62.1576 67.8144C62.0538 68.5272 62 69.2569 62 70C62 70.5954 62.0345 71.1815 62.1014 71.7565L68.8442 74.5011ZM55.686 61.3429L37 42.6569V61.4946C38.1726 61.8371 39.2887 62.3098 40.3316 62.8952L54.0496 68.4791C54.2137 65.9722 54.7803 63.5711 55.686 61.3429ZM50 6C52.2091 6 54 7.79086 54 10V14.4097L69.9026 31.2477C70.5481 31.9283 70.9568 32.8357 70.9968 33.8379C70.9994 33.9013 71.0004 33.9648 71 34.0283V43.5C71 45.7091 69.2091 47.5 67 47.5C64.7909 47.5 63 45.7091 63 43.5V38H57C54.7909 38 53 36.2091 53 34C53 31.7909 54.7909 30 57 30H57.7203L50 21.8256L47.4081 24.57C45.8912 26.1761 43.3596 26.2484 41.7535 24.7316C40.1474 23.2147 40.0751 20.6831 41.5919 19.077L46 14.4097V10C46 7.79086 47.7909 6 50 6ZM75.0213 55.1289C75.667 55.044 76.3273 55 77 55C85.2843 55 92 61.7157 92 70C92 70.8102 91.9361 71.6027 91.8139 72.3734C91.4678 74.5552 92.956 76.6045 95.1379 76.9506C97.3197 77.2967 99.369 75.8085 99.7151 73.6266C99.9029 72.4429 100 71.2314 100 70C100 57.2975 89.7025 47 77 47C75.9778 47 74.9692 47.0669 73.9787 47.1971C71.7884 47.485 70.2462 49.494 70.5341 51.6843C70.822 53.8746 72.831 55.4168 75.0213 55.1289ZM30.9776 69L31 69C31.4556 69 31.8993 69.0377 32.3291 69.1093C32.4249 69.1252 32.5209 69.1376 32.617 69.1466C32.709 69.1761 32.8021 69.2023 32.8961 69.2251C33.6491 69.4078 34.3612 69.6976 35.0159 70.0787C35.1824 70.1756 35.3557 70.2604 35.5344 70.3323L69.0914 83.8423C69.2646 83.912 69.4425 83.9696 69.6238 84.0145C69.8421 84.0685 70 84.2708 70 84.5C70 84.7514 69.8112 84.9641 69.5699 84.9956L32.4765 84.854C28.0583 84.8371 24.4903 81.2417 24.5072 76.8235C24.522 72.9389 27.3031 69.7115 30.9776 69Z"
            fill="currentcolor" />
    </g>
</svg>