<svg width="100" height="100" viewBox="0 0 100 100" fill="none" xmlns="http://www.w3.org/2000/svg">
    <path fill-rule="evenodd" clip-rule="evenodd"
        d="M50 1C52.2091 1 54 2.79086 54 5V11.3431L72.8284 30.1716C72.8999 30.2431 72.9683 30.3168 73.0335 30.3926C73.6249 31.0803 73.9554 31.9372 73.9959 32.8171C73.9992 32.8885 74.0005 32.96 74 33.0316V44.6667C74 46.8758 72.2091 48.6667 70 48.6667C67.7908 48.6667 66 46.8758 66 44.6667V37H34V61C34 63.2091 32.2091 65 30 65C27.7908 65 26 63.2091 26 61V33.0314C25.9994 32.96 26.0008 32.8886 26.0041 32.8174C26.0505 31.7847 26.4884 30.854 27.1731 30.1701L46 11.3431V5C46 2.79086 47.7908 1 50 1ZM60.3431 29L50 18.6569L39.6568 29H60.3431ZM9.94727 52C11.1101 52 12.0586 52.3672 12.793 53.1016C13.5273 53.8359 13.8945 54.7845 13.8945 55.9473V63.75C13.8945 67.1159 15.0114 69.9157 17.2451 72.1494C19.4788 74.3831 22.2786 75.5 25.6445 75.5H41.7952C41.8461 75.4981 41.8973 75.4971 41.9487 75.4971C44.1296 75.4971 45.8975 77.265 45.8975 79.4458C45.8975 81.5814 44.2022 83.321 42.084 83.3923V83.3945H41.9487H25.6445C22.8906 83.3945 20.3203 82.8743 17.9336 81.834C15.5469 80.8548 13.4661 79.4778 11.6914 77.7031C9.9167 75.9284 8.53974 73.8477 7.56055 71.4609C6.52021 69.0742 6 66.5039 6 63.75V55.9473C6 54.7845 6.36719 53.8359 7.10156 53.1016C7.83594 52.3672 8.78447 52 9.94727 52ZM77 56C79.2091 56 81 57.7909 81 60V73H94C96.2091 73 98 74.7909 98 77C98 79.2091 96.2091 81 94 81H81V94C81 96.2091 79.2091 98 77 98C74.7909 98 73 96.2091 73 94V81H60C57.7909 81 56 79.2091 56 77C56 74.7909 57.7909 73 60 73H73V60C73 57.7909 74.7909 56 77 56Z"
        fill="currentcolor" />
</svg>