<svg width="100" height="100" viewBox="0 0 100 100" fill="none" xmlns="http://www.w3.org/2000/svg">
    <path fill-rule="evenodd" clip-rule="evenodd"
        d="M54 10C54 7.79086 52.2091 6 50 6C47.7909 6 46 7.79086 46 10V14.4097L30.0976 31.2475C29.4516 31.9285 29.0426 32.8367 29.0031 33.8398C29.0006 33.9025 28.9996 33.9653 29 34.0281V61.1238C25.7293 61.5316 22.7653 62.9266 20.4153 65.0012L17.0544 58.0009C16.0982 56.0094 13.7087 55.17 11.7172 56.1262C9.72567 57.0823 8.88634 59.4719 9.84248 61.4634L13.4252 68.9256L5.71857 67.2985C3.55708 66.8421 1.43489 68.2243 0.978506 70.3858C0.522126 72.5473 1.90439 74.6695 4.06587 75.1259L11.7725 76.7531L5.47889 82.13C3.79927 83.565 3.60095 86.0899 5.03594 87.7695C6.47092 89.4491 8.99581 89.6475 10.6754 88.2125L16.3251 83.3857C18.7908 89.0442 24.4334 93 31 93L70 93C70.0445 93 70.0888 92.9993 70.1329 92.9978L71.4457 93.0028C71.8155 93.0043 72.1754 92.955 72.518 92.8612C72.7643 92.8161 73.0069 92.7603 73.2453 92.6944C74.4692 92.8957 75.7237 93 77 93C89.7025 93 100 82.7025 100 70C100 57.2975 89.7025 47 77 47C74.9243 47 72.9128 47.275 71 47.7905V34.028C71.0004 33.966 70.9994 33.9041 70.9969 33.8422C70.958 32.8383 70.549 31.9293 69.9026 31.2477L54 14.4097V10ZM40.3316 62.8952L54.0495 68.479C54.4942 61.6679 57.9036 55.6657 63 51.7503V38H37V61.4946C38.1726 61.8371 39.2887 62.3098 40.3316 62.8952ZM79.4781 84.5334C79.4778 84.6217 79.4761 84.7095 79.4731 84.7971C86.5806 83.618 92 77.4419 92 70C92 61.7157 85.2843 55 77 55C68.7157 55 62 61.7157 62 70C62 70.5954 62.0345 71.1815 62.1014 71.7565L73.3697 76.3432C76.9101 77.3803 79.4929 80.654 79.4781 84.5334ZM50 21.8256L57.7203 30H42.2797L50 21.8256ZM31 69L30.9776 69C27.3031 69.7115 24.522 72.9389 24.5072 76.8235C24.4903 81.2417 28.0583 84.8371 32.4765 84.854L69.5699 84.9956C69.8112 84.9641 70 84.7514 70 84.5C70 84.2708 69.8421 84.0685 69.6238 84.0145C69.4425 83.9696 69.2646 83.912 69.0914 83.8423L35.5344 70.3323C35.3557 70.2604 35.1824 70.1756 35.0159 70.0787C34.3612 69.6976 33.6491 69.4078 32.8961 69.2251C32.8021 69.2023 32.709 69.1761 32.617 69.1466C32.5209 69.1376 32.4249 69.1252 32.3291 69.1093C31.8993 69.0377 31.4556 69 31 69Z"
        fill="currentcolor" />
</svg>