<svg width="100" height="100" viewBox="0 0 100 100" fill="none" xmlns="http://www.w3.org/2000/svg">
    <path fill-rule="evenodd" clip-rule="evenodd"
        d="M14 23H86C89.3137 23 92 25.6863 92 29V71C92 74.3137 89.3137 77 86 77H14C10.6863 77 8 74.3137 8 71V29C8 25.6863 10.6863 23 14 23ZM0 29C0 21.268 6.26801 15 14 15H86C93.732 15 100 21.268 100 29V71C100 78.732 93.732 85 86 85H14C6.26801 85 0 78.732 0 71V29ZM60 65C62.2091 65 64 63.2091 64 61C64 58.7909 62.2091 57 60 57H40C37.7909 57 36 58.7909 36 61C36 63.2091 37.7909 65 40 65H60ZM23 33.5C19.9624 33.5 17.5 35.9624 17.5 39C17.5 42.0376 19.9624 44.5 23 44.5C26.0376 44.5 28.5 42.0376 28.5 39C28.5 35.9624 26.0376 33.5 23 33.5ZM41 33.5C37.9624 33.5 35.5 35.9624 35.5 39C35.5 42.0376 37.9624 44.5 41 44.5C44.0376 44.5 46.5 42.0376 46.5 39C46.5 35.9624 44.0376 33.5 41 33.5ZM77 33.5C73.9624 33.5 71.5 35.9624 71.5 39C71.5 42.0376 73.9624 44.5 77 44.5C80.0376 44.5 82.5 42.0376 82.5 39C82.5 35.9624 80.0376 33.5 77 33.5ZM59 33.5C55.9624 33.5 53.5 35.9624 53.5 39C53.5 42.0376 55.9624 44.5 59 44.5C62.0376 44.5 64.5 42.0376 64.5 39C64.5 35.9624 62.0376 33.5 59 33.5ZM17.5 61C17.5 57.9624 19.9624 55.5 23 55.5C26.0376 55.5 28.5 57.9624 28.5 61C28.5 64.0376 26.0376 66.5 23 66.5C19.9624 66.5 17.5 64.0376 17.5 61ZM71.5 61C71.5 57.9624 73.9624 55.5 77 55.5C80.0376 55.5 82.5 57.9624 82.5 61C82.5 64.0376 80.0376 66.5 77 66.5C73.9624 66.5 71.5 64.0376 71.5 61Z"
        fill="currentcolor" />
</svg>