<svg width="100" height="100" viewBox="0 0 100 100" fill="none" xmlns="http://www.w3.org/2000/svg">
    <path fill-rule="evenodd" clip-rule="evenodd"
        d="M11.1091 5.45227C9.54703 3.89018 7.01437 3.89018 5.45227 5.45227C3.89018 7.01437 3.89018 9.54703 5.45227 11.1091L14.3432 20H4C1.79086 20 0 21.7909 0 24C0 26.2092 1.79086 28 4 28H11.7426C13.7661 36.7253 17.6851 45.7436 24.9438 53.4351C20.0035 56.9936 13.7858 60.0033 5.94753 62.141C3.81623 62.7222 2.55968 64.9212 3.14094 67.0525C3.72221 69.1838 5.92117 70.4403 8.05247 69.8591C17.5138 67.2787 25.041 63.4844 30.998 58.9C34.5325 61.6198 38.6364 64.0733 43.3969 66.1628C45.4198 67.0506 47.7794 66.1305 48.6672 64.1076C49.5551 62.0848 48.635 59.7252 46.6121 58.8373C43.0001 57.2519 39.8325 55.4332 37.0558 53.4322C38.8449 51.537 40.4373 49.5552 41.8516 47.5084L57.6256 63.2825L48.3387 84.3891C47.449 86.4111 48.367 88.7716 50.389 89.6613C52.4111 90.551 54.7716 89.633 55.6613 87.611L61.2101 75H69.3432L88.8909 94.5477C90.453 96.1098 92.9856 96.1098 94.5477 94.5477C96.1098 92.9856 96.1098 90.453 94.5477 88.8909L44.5977 38.9409C44.2705 38.3946 43.8087 37.9199 43.2285 37.5717L11.1091 5.45227ZM36.083 41.7398L22.3432 28H19.9828C21.8592 35.079 25.1903 42.1353 31.0016 48.1891C32.9766 46.1307 34.6548 43.9662 36.083 41.7398ZM65.807 44.6884C64.9173 46.7105 65.8353 49.071 67.8573 49.9607C69.8794 50.8504 72.2398 49.9324 73.1295 47.9104L74 45.932L81.3387 62.611L81.7787 63.611C82.6684 65.633 85.0289 66.551 87.051 65.6613C89.073 64.7716 89.991 62.4111 89.1013 60.3891L88.6613 59.3891L77.6659 34.3996C77.6325 34.3231 77.5968 34.2477 77.5587 34.1733C77.1916 33.4572 76.6074 32.8471 75.8486 32.4527C75.7512 32.402 75.6518 32.3553 75.5508 32.3128C75.0444 32.0997 74.5181 31.9987 74 31.999C73.4839 31.9987 72.9597 32.0989 72.4552 32.3104C72.3521 32.3535 72.2507 32.401 72.1514 32.4527C71.4429 32.8213 70.8399 33.4034 70.4495 34.1574C70.4081 34.2374 70.3693 34.3187 70.3334 34.4013L65.807 44.6884ZM47 20C44.7909 20 43 21.7909 43 24C43 26.2091 44.7909 28 47 28H57C59.2091 28 61 26.2091 61 24C61 21.7909 59.2091 20 57 20L47 20Z"
        fill="currentcolor" />
</svg>