<svg width="100" height="100" viewBox="0 0 100 100" fill="none" xmlns="http://www.w3.org/2000/svg">
    <path fill-rule="evenodd" clip-rule="evenodd"
        d="M50 18C29.5655 18 13 34.5655 13 55C13 65.2144 17.1338 74.4557 23.8293 81.1552C25.3909 82.7177 25.3902 85.2504 23.8276 86.812C22.265 88.3736 19.7324 88.3729 18.1707 86.8103C10.0373 78.6721 5 67.4205 5 55C5 30.1472 25.1472 10 50 10C74.8528 10 95 30.1472 95 55C95 67.4205 89.9627 78.6721 81.8293 86.8103C80.2676 88.3729 77.735 88.3736 76.1724 86.812C74.6098 85.2504 74.6091 82.7177 76.1707 81.1552C82.8662 74.4557 87 65.2144 87 55C87 34.5655 70.4345 18 50 18ZM52.0722 62.729L65.1716 75.8284C66.7337 77.3905 69.2663 77.3905 70.8284 75.8284C72.3905 74.2663 72.3905 71.7337 70.8284 70.1716L57.729 57.0722C57.9058 56.4113 58 55.7166 58 55C58 50.5817 54.4183 47 50 47C45.5817 47 42 50.5817 42 55C42 59.4183 45.5817 63 50 63C50.7166 63 51.4113 62.9058 52.0722 62.729Z"
        fill="currentcolor" />
</svg>