<svg width="100" height="100" viewBox="0 0 100 100" fill="none" xmlns="http://www.w3.org/2000/svg">
    <path fill-rule="evenodd" clip-rule="evenodd"
        d="M29 8H71C74.3137 8 77 10.6863 77 14V86C77 89.3137 74.3137 92 71 92H29C25.6863 92 23 89.3137 23 86V14C23 10.6863 25.6863 8 29 8ZM15 14C15 6.26801 21.268 0 29 0H71C78.732 0 85 6.26801 85 14V86C85 93.732 78.732 100 71 100H29C21.268 100 15 93.732 15 86V14ZM50 82C52.7614 82 55 79.7614 55 77C55 74.2386 52.7614 72 50 72C47.2386 72 45 74.2386 45 77C45 79.7614 47.2386 82 50 82Z"
        fill="currentcolor" />
</svg>