<svg width="100" height="100" viewBox="0 0 100 100" fill="none" xmlns="http://www.w3.org/2000/svg">
    <path
        d="M58.8542 49.8542C58.8542 52.3542 57.9861 54.4722 56.25 56.2083C54.5139 57.9445 52.4305 58.8125 50 58.8125C47.5695 58.8125 45.4861 57.9445 43.75 56.2083C42.0139 54.4722 41.1458 52.3542 41.1458 49.8542C41.1458 47.4236 42.0139 45.3403 43.75 43.6042C45.4861 41.868 47.5695 41 50 41C52.4305 41 54.5139 41.868 56.25 43.6042C57.9861 45.3403 58.8542 47.4236 58.8542 49.8542ZM90 49.8542C90 52.3542 89.132 54.4722 87.3958 56.2083C85.6597 57.9445 83.5764 58.8125 81.1458 58.8125C78.6458 58.8125 76.5278 57.9445 74.7917 56.2083C73.0555 54.4722 72.1875 52.3542 72.1875 49.8542C72.1875 47.4236 73.0555 45.3403 74.7917 43.6042C76.5278 41.868 78.6458 41 81.1458 41C83.5764 41 85.6597 41.868 87.3958 43.6042C89.132 45.3403 90 47.4236 90 49.8542ZM27.8125 49.8542C27.8125 52.3542 26.9445 54.4722 25.2083 56.2083C23.4722 57.9445 21.3542 58.8125 18.8542 58.8125C16.4236 58.8125 14.3403 57.9445 12.6042 56.2083C10.868 54.4722 10 52.3542 10 49.8542C10 47.4236 10.868 45.3403 12.6042 43.6042C14.3403 41.868 16.4236 41 18.8542 41C21.3542 41 23.4722 41.868 25.2083 43.6042C26.9445 45.3403 27.8125 47.4236 27.8125 49.8542Z"
        fill="currentcolor" />
</svg>