<svg width="100" height="100" viewBox="0 0 100 100" fill="none" xmlns="http://www.w3.org/2000/svg">
    <path fill-rule="evenodd" clip-rule="evenodd"
        d="M7 19C7 12.3726 12.3726 7 19 7H81C87.6274 7 93 12.3726 93 19V63C93 69.6274 87.6274 75 81 75H50H30.6569L13.8284 91.8284C12.6844 92.9724 10.964 93.3146 9.46927 92.6955C7.97457 92.0764 7 90.6179 7 89V19ZM19 15C16.7909 15 15 16.7909 15 19V79.3431L26.1716 68.1716C26.9217 67.4214 27.9391 67 29 67H50H81C83.2091 67 85 65.2091 85 63V19C85 16.7909 83.2091 15 81 15H19Z"
        fill="currentcolor" />
</svg>