<svg width="100" height="100" viewBox="0 0 100 100" fill="none" xmlns="http://www.w3.org/2000/svg">
    <path fill-rule="evenodd" clip-rule="evenodd"
        d="M30 11C30 8.79086 31.7909 7 34 7H81C87.6274 7 93 12.3726 93 19V41H89H85V19C85 16.7909 83.2091 15 81 15H34C31.7909 15 30 13.2091 30 11ZM88.5 65.76L92.218 67.2354C91.4031 69.2888 89.078 70.2928 87.0246 69.478C84.994 68.6721 83.9896 66.3893 84.7557 64.3529C84.7571 64.3483 84.7592 64.3421 84.7616 64.3342C84.7768 64.2859 84.8087 64.1773 84.8444 64.0159C84.9162 63.6914 85 63.1682 85 62.5V62.4881V62.4758V62.463V62.4499V62.4364V62.4225V62.4082V62.3936V62.3785V62.3631V62.3472V62.331V62.3144V62.2974V62.2801V62.2624V62.2443V62.2258V62.2069V62.1877V62.1681V62.1482V62.1279V62.1072V62.0862V62.0648V62.043V62.0209V61.9985V61.9756V61.9525V61.929V61.9051V61.8809V61.8563V61.8314V61.8062V61.7806V61.7547V61.7285V61.7019V61.675V61.6477V61.6201V61.5922V61.564V61.5354V61.5066V61.4774V61.4478V61.418V61.3879V61.3574V61.3266V61.2955V61.2641V61.2324V61.2004V61.1681V61.1354V61.1025V61.0693V61.0358V61.002V60.9678V60.9334V60.8987V60.8638V60.8285V60.7929V60.7571V60.7209V60.6845V60.6478V60.6109V60.5736V60.5361V60.4983V60.4602V60.4219V60.3833V60.3444V60.3053V60.2659V60.2262V60.1863V60.1461V60.1057V60.065V60.0241V59.9829V59.9414V59.8997V59.8578V59.8156V59.7732V59.7305V59.6876V59.6445V59.6011V59.5575V59.5136V59.4695V59.4252V59.3807V59.3359V59.2909V59.2457V59.2002V59.1546V59.1087V59.0626V59.0163V58.9698V58.923V58.8761V58.8289V58.7815V58.734V58.6862V58.6382V58.59V58.5417V58.4931V58.4443V58.3954V58.3462V58.2969V58.2473V58.1976V58.1477V58.0976V58.0474V57.9969V57.9463V57.8955V57.8445V57.7933V57.742V57.6905V57.6388V57.587V57.535V57.4828V57.4305V57.378V57.3254V57.2725V57.2196V57.1665V57.1132V57.0598V57.0062V56.9525V56.8986V56.8446V56.7905V56.7362V56.6818V56.6272V56.5725V56.5177V56.4627V56.4076V56.3524V56.297V56.2415V56.1859V56.1302V56.0743V56.0184V55.9623V55.9061V55.8498V55.7933V55.7368V55.6801V55.6234V55.5665V55.5095V55.4525V55.3953V55.338V55.2807V55.2232V55.1656V55.108V55.0502V54.9924V54.9345V54.8765V54.8184V54.7602V54.7019V54.6436V54.5852V54.5267V54.4681V54.4095V54.3508V54.292V54.2331V54.1742V54.1152V54.0562V53.9971V53.9379V53.8787V53.8194V53.7601V53.7007V53.6413V53.5818V53.5222V53.4626V53.403V53.3433V53.2836V53.2239V53.1641V53.1043V53.0444V52.9845V52.9246V52.8646V52.8046V52.7446V52.6846V52.6245V52.5644V52.5043V52.4442V52.384V52.3239V52.2637V52.2035V52.1434V52.0832V52.0229V51.9627V51.9025V51.8423V51.7821V51.7219V51.6617V51.6015V51.5413V51.4811V51.4209V51.3607V51.3005V51.2404V51.1803V51.1202V51.0601V51V50.94V50.8799V50.8199V50.76V50.7V50.6401V50.5802V50.5204V50.4606V50.4008V50.3411V50.2814V50.2218V50.1622V50.1026V50.0431V49.9837V49.9243V49.8649V49.8056V49.7464V49.6872V49.6281V49.569V49.51V49.4511V49.3922V49.3334V49.2746V49.216V49.1574V49.0989V49.0404V48.9821V48.9238V48.8656V48.8075V48.7494V48.6915V48.6336V48.5758V48.5182V48.4606V48.4031V48.3457V48.2884V48.2311V48.174V48.117V48.0601V48.0033V47.9467V47.8901V47.8336V47.7773V47.721V47.6649V47.6089V47.553V47.4972V47.4416V47.3861V47.3307V47.2754V47.2202V47.1652V47.1104V47.0556V47.001V46.9465V46.8922V46.838V46.784V46.73V46.6763V46.6227V46.5692V46.5159V46.4627V46.4097V46.3568V46.3041V46.2516V46.1992V46.147V46.0949V46.0431V45.9913V45.9398V45.8884V45.8372V45.7861V45.7353V45.6846V45.6341V45.5837V45.5336V45.4836V45.4338V45.3843V45.3348V45.2856V45.2366V45.1878V45.1391V45.0907V45.0425V44.9944V44.9466V44.8989V44.8515V44.8043V44.7573V44.7105V44.6639V44.6175V44.5713V44.5254V44.4796V44.4341V44.3888V44.3438V44.2989V44.2543V44.2099V44.1657V44.1218V44.0781V44.0347V43.9914V43.9485V43.9057V43.8632V43.8209V43.7789V43.7371V43.6956V43.6543V43.6133V43.5725V43.532V43.4918V43.4518V43.412V43.3725V43.3333V43.2944V43.2557V43.2172V43.1791V43.1412V43.1036V43.0663V43.0292V42.9924V42.9559V42.9197V42.8838V42.8481V42.8127V42.7777V42.7429V42.7084V42.6742V42.6402V42.6066V42.5733V42.5403V42.5076V42.4751V42.443V42.4112V42.3797V42.3485V42.3176V42.2871V42.2568V42.2269V42.1973V42.168V42.139V42.1103V42.082V42.054V42.0263V41.9989V41.9719V41.9452V41.9189V41.8928V41.8671V41.8418V41.8168V41.7921V41.7678V41.7438V41.7202V41.6969V41.674V41.6514V41.6292V41.6073V41.5858V41.5647V41.5439V41.5234V41.5034V41.4837V41.4643V41.4454V41.4268V41.4086V41.3907V41.3732V41.3561V41.3394V41.3231V41.3071V41.2915V41.2764V41.2616V41.2471V41.2331V41.2195V41.2062V41.1934V41.181V41.1689V41.1573V41.146V41.1352V41.1247V41.1147V41.1051V41.0959V41.0871V41.0787V41.0707V41.0631V41.056V41.0493V41.043V41.0371V41.0317V41.0266V41.022V41.0179V41.0141V41.0108V41.008V41.0055V41.0036V41.002V41.0009V41.0002C85 41.0001 85 41 89 41C93 41 93 41.0001 93 41.0002V41.0009V41.002V41.0036V41.0055V41.008V41.0108V41.0141V41.0179V41.022V41.0266V41.0317V41.0371V41.043V41.0493V41.056V41.0631V41.0707V41.0787V41.0871V41.0959V41.1051V41.1147V41.1247V41.1352V41.146V41.1573V41.1689V41.181V41.1934V41.2062V41.2195V41.2331V41.2471V41.2616V41.2764V41.2915V41.3071V41.3231V41.3394V41.3561V41.3732V41.3907V41.4086V41.4268V41.4454V41.4643V41.4837V41.5034V41.5234V41.5439V41.5647V41.5858V41.6073V41.6292V41.6514V41.674V41.6969V41.7202V41.7438V41.7678V41.7921V41.8168V41.8418V41.8671V41.8928V41.9189V41.9452V41.9719V41.9989V42.0263V42.054V42.082V42.1103V42.139V42.168V42.1973V42.2269V42.2568V42.2871V42.3176V42.3485V42.3797V42.4112V42.443V42.4751V42.5076V42.5403V42.5733V42.6066V42.6402V42.6742V42.7084V42.7429V42.7777V42.8127V42.8481V42.8838V42.9197V42.9559V42.9924V43.0292V43.0663V43.1036V43.1412V43.1791V43.2172V43.2557V43.2944V43.3333V43.3725V43.412V43.4518V43.4918V43.532V43.5725V43.6133V43.6543V43.6956V43.7371V43.7789V43.8209V43.8632V43.9057V43.9485V43.9914V44.0347V44.0781V44.1218V44.1657V44.2099V44.2543V44.2989V44.3438V44.3888V44.4341V44.4796V44.5254V44.5713V44.6175V44.6639V44.7105V44.7573V44.8043V44.8515V44.8989V44.9466V44.9944V45.0425V45.0907V45.1391V45.1878V45.2366V45.2856V45.3348V45.3843V45.4338V45.4836V45.5336V45.5837V45.6341V45.6846V45.7353V45.7861V45.8372V45.8884V45.9398V45.9913V46.0431V46.0949V46.147V46.1992V46.2516V46.3041V46.3568V46.4097V46.4627V46.5159V46.5692V46.6227V46.6763V46.73V46.784V46.838V46.8922V46.9465V47.001V47.0556V47.1104V47.1652V47.2202V47.2754V47.3307V47.3861V47.4416V47.4972V47.553V47.6089V47.6649V47.721V47.7773V47.8336V47.8901V47.9467V48.0033V48.0601V48.117V48.174V48.2311V48.2884V48.3457V48.4031V48.4606V48.5182V48.5758V48.6336V48.6915V48.7494V48.8075V48.8656V48.9238V48.9821V49.0404V49.0989V49.1574V49.216V49.2746V49.3334V49.3922V49.4511V49.51V49.569V49.6281V49.6872V49.7464V49.8056V49.8649V49.9243V49.9837V50.0431V50.1026V50.1622V50.2218V50.2814V50.3411V50.4008V50.4606V50.5204V50.5802V50.6401V50.7V50.76V50.8199V50.8799V50.94V51V51.0601V51.1202V51.1803V51.2404V51.3005V51.3607V51.4209V51.4811V51.5413V51.6015V51.6617V51.7219V51.7821V51.8423V51.9025V51.9627V52.0229V52.0832V52.1434V52.2035V52.2637V52.3239V52.384V52.4442V52.5043V52.5644V52.6245V52.6846V52.7446V52.8046V52.8646V52.9246V52.9845V53.0444V53.1043V53.1641V53.2239V53.2836V53.3433V53.403V53.4626V53.5222V53.5818V53.6413V53.7007V53.7601V53.8194V53.8787V53.9379V53.9971V54.0562V54.1152V54.1742V54.2331V54.292V54.3508V54.4095V54.4681V54.5267V54.5852V54.6436V54.7019V54.7602V54.8184V54.8765V54.9345V54.9924V55.0502V55.108V55.1656V55.2232V55.2807V55.338V55.3953V55.4525V55.5095V55.5665V55.6234V55.6801V55.7368V55.7933V55.8498V55.9061V55.9623V56.0184V56.0743V56.1302V56.1859V56.2415V56.297V56.3524V56.4076V56.4627V56.5177V56.5725V56.6272V56.6818V56.7362V56.7905V56.8446V56.8986V56.9525V57.0062V57.0598V57.1132V57.1665V57.2196V57.2725V57.3254V57.378V57.4305V57.4828V57.535V57.587V57.6388V57.6905V57.742V57.7933V57.8445V57.8955V57.9463V57.9969V58.0474V58.0976V58.1477V58.1976V58.2473V58.2969V58.3462V58.3954V58.4443V58.4931V58.5417V58.59V58.6382V58.6862V58.734V58.7815V58.8289V58.8761V58.923V58.9698V59.0163V59.0626V59.1087V59.1546V59.2002V59.2457V59.2909V59.3359V59.3807V59.4252V59.4695V59.5136V59.5575V59.6011V59.6445V59.6876V59.7305V59.7732V59.8156V59.8578V59.8997V59.9414V59.9829V60.0241V60.065V60.1057V60.1461V60.1863V60.2262V60.2659V60.3053V60.3444V60.3833V60.4219V60.4602V60.4983V60.5361V60.5736V60.6109V60.6478V60.6845V60.7209V60.7571V60.7929V60.8285V60.8638V60.8987V60.9334V60.9678V61.002V61.0358V61.0693V61.1025V61.1354V61.1681V61.2004V61.2324V61.2641V61.2955V61.3266V61.3574V61.3879V61.418V61.4478V61.4774V61.5066V61.5354V61.564V61.5922V61.6201V61.6477V61.675V61.7019V61.7285V61.7547V61.7806V61.8062V61.8314V61.8563V61.8809V61.9051V61.929V61.9525V61.9756V61.9985V62.0209V62.043V62.0648V62.0862V62.1072V62.1279V62.1482V62.1681V62.1877V62.2069V62.2258V62.2443V62.2624V62.2801V62.2974V62.3144V62.331V62.3472V62.3631V62.3785V62.3936V62.4082V62.4225V62.4364V62.4499V62.463V62.4758V62.4881V62.5C93 63.8318 92.8338 64.9386 92.6556 65.7441C92.5663 66.1477 92.4732 66.4791 92.3946 66.7295C92.3553 66.8549 92.3195 66.9603 92.2893 67.0449C92.2742 67.0872 92.2606 67.1243 92.2486 67.156L92.2319 67.1997L92.2246 67.2186L92.2212 67.2272L92.2196 67.2314L92.2188 67.2334C92.2184 67.2344 92.218 67.2354 88.5 65.76ZM84.7805 64.2885L84.7813 64.2866ZM84.7813 64.2866C84.7807 64.288 84.7802 64.2893 84.7796 64.2907ZM11.1091 5.45227C9.54703 3.89018 7.01437 3.89018 5.45227 5.45227C3.89018 7.01437 3.89018 9.54703 5.45227 11.1091L8.17251 13.8294C7.83848 14.5153 7.5743 15.1972 7.38506 15.9069C6.99732 17.3609 6.99872 18.7084 6.99988 19.822L7 20V23.6826V25.3616V25.8222V26.2983V27.296V28.3516V29.4621V30.6246V31.2243V31.5287V31.8359V32.4591V33.0933V33.7383V34.3936V35.0589V35.7339V36.4181V37.1112V37.8128V38.5225V38.8803V39.0599V39.24V39.4205V39.6015V39.783V39.9649V40.1472V40.3299V40.5131V40.6967V40.8807V41.0652V41.25V41.4352V41.6209V41.8069V41.9932V42.18V42.3671V42.5546V42.7425V42.9307V43.1192V43.3081V43.4973V43.6868V43.8767V44.0669V44.2574V44.4482V44.6392V44.8306V45.0223V45.2142V45.4065V45.599V45.7917V45.9847V46.178V46.3715V46.5652V46.7592V46.9534V47.1479V47.3425V47.5374V47.7325V47.9277V48.1232V48.3188V48.5146V48.7106V48.9068V49.1031V49.2996V49.4963V49.6931V49.89V50.0871V50.2843V50.4816V50.679V50.8766V51.0742V51.272V51.4698V51.6678V51.8658V52.0639V52.262V52.4603V52.6586V52.8569V53.0553V53.2537V53.4522V53.6507V53.8492V54.0477V54.2463V54.4448V54.6434V55.4375V56.2312V57.024V57.8156V58.6056V59.3937V59.5904V59.7869V60.1795V60.9626V61.7426V62.5191V63.2918V63.6767V64.0604V64.443V64.6338V64.8244V66.3371V67.8271V73.5001V74.8316V76.1225V76.7518V77.3697V77.976V78.5703V79.1522V79.4383V79.7213V80.0009V80.2772V80.5501V80.8196V81.0856V81.2173V81.3481V81.6071V81.8624V82.114V82.362V82.6062V82.8466V83.0831V83.3157V83.4306V83.5444V83.6573V83.7692V83.88V83.9898V84.0987V84.2064V84.3132V84.4189V84.5236V84.6272V84.7298V84.8313V84.9317V85.0311V85.1294V85.2266V85.3227V85.4177V85.5116V85.6044V85.6961V85.7867V85.8762V85.9645V86.0517V86.1377V86.2226V86.3063V86.3889V86.4703V86.5505V86.6296V86.7075V86.7842V86.8596V86.9339V87.007V87.0789V87.1495V87.219V87.2872V87.3541V87.4198V87.4843V87.5475V87.6095V87.6702V87.7296V87.7877V87.8446V87.9001V87.9544V88.0074V88.0591V88.1094V88.1585V88.2062V88.2526V88.2976V88.3413V88.3837V88.4247V88.4643V88.5026V88.5396V88.5751V88.6092V88.642V88.6734V88.7034V88.7319V88.7591V88.7848V88.8092V88.832V88.8535V88.8735V88.8921V88.9092V88.9249V88.9391V88.9518V88.963V88.9728V88.9811V88.9879V88.9932V88.997V88.9992C7 88.9997 7 89 11 89H7C7 90.6179 7.97457 92.0764 9.46927 92.6955C10.964 93.3146 12.6844 92.9724 13.8284 91.8284L30.6569 75H50H69.3431L88.8909 94.5477C90.453 96.1098 92.9856 96.1098 94.5477 94.5477C96.1098 92.9856 96.1098 90.453 94.5477 88.8909L11.1091 5.45227ZM61.3431 67L15 20.6569V23.6826V25.3616V25.8222V26.2983V27.296V28.3516V29.4621V30.6246V31.2243V31.5287V31.8359V32.4591V33.0933V33.7383V34.3936V35.0589V35.7339V36.4181V37.1112V37.8128V38.5225V38.8803V39.0599V39.24V39.4205V39.6015V39.783V39.9649V40.1472V40.3299V40.5131V40.6967V40.8807V41.0652V41.25V41.4352V41.6209V41.8069V41.9932V42.18V42.3671V42.5546V42.7425V42.9307V43.1192V43.3081V43.4973V43.6868V43.8767V44.0669V44.2574V44.4482V44.6392V44.8306V45.0223V45.2142V45.4065V45.599V45.7917V45.9847V46.178V46.3715V46.5652V46.7592V46.9534V47.1479V47.3425V47.5374V47.7325V47.9277V48.1232V48.3188V48.5146V48.7106V48.9068V49.1031V49.2996V49.4963V49.6931V49.89V50.0871V50.2843V50.4816V50.679V50.8766V51.0742V51.272V51.4698V51.6678V51.8658V52.0639V52.262V52.4603V52.6586V52.8569V53.0553V53.2537V53.4522V53.6507V53.8492V54.0477V54.2463V54.4448V54.6434V55.4375V56.2312V57.024V57.8156V58.6056V59.3937V59.5904V59.7869V60.1795V60.9626V61.7426V62.5191V63.2918V63.6767V64.0604V64.443V64.6338V64.8244V66.3371V67.8271V73.5001V74.8316V76.1225V76.7518V77.3697V77.976V78.5703V79.1522V79.3431L26.1716 68.1716C26.9217 67.4214 27.9391 67 29 67H50H61.3431Z"
        fill="currentcolor" />
</svg>