<svg width="100" height="100" viewBox="0 0 100 100" fill="none" xmlns="http://www.w3.org/2000/svg">
    <path fill-rule="evenodd" clip-rule="evenodd"
        d="M25.614 22.1724C32.1282 16.4583 40.6582 13 50 13C59.3418 13 67.8718 16.4583 74.386 22.1724L66.9148 26.4417C62.1544 23.0187 56.3095 21 50 21C43.6907 21 37.8457 23.0187 33.0852 26.4417L25.614 22.1724ZM16.715 19.7157C24.9404 10.6803 36.8096 5 50 5C63.1904 5 75.0597 10.6803 83.285 19.7157C83.7584 20.0447 84.1679 20.4816 84.473 21.0154C85.569 22.9335 84.9026 25.3769 82.9846 26.473L69.4572 34.2029C67.9663 35.6731 65.5692 35.7493 63.986 34.3347C60.2697 31.014 55.3748 29 50 29C44.686 29 39.8416 30.9686 36.1411 34.222C34.8648 35.3441 33.0746 35.5069 31.6524 34.7669C31.4355 34.689 31.2224 34.5913 31.0154 34.473L17.0154 26.473C15.0974 25.3769 14.431 22.9335 15.527 21.0154C15.8321 20.4816 16.2416 20.0446 16.715 19.7157ZM7.52703 35.0154C8.27133 33.7129 9.63699 32.9876 11.0375 32.9995C11.4788 32.9921 11.9288 33.0583 12.3713 33.2061C12.8405 33.3629 13.2614 33.5982 13.6242 33.8926L26.9846 41.527C27.5305 41.839 27.975 42.2601 28.3064 42.7472C29.1526 43.6409 29.5764 44.9117 29.3394 46.2153C29.1168 47.4402 29 48.7047 29 50C29 59.2416 34.9723 67.0988 43.2792 69.9027C45.027 70.4926 46.0991 72.1723 45.994 73.9291C45.998 74.0023 46 74.0759 46 74.15V90.1377C46.0055 90.4202 45.981 90.7076 45.924 90.996C45.4953 93.1632 43.391 94.5726 41.2239 94.1439C20.5726 90.0593 5 71.8527 5 50C5 45.3577 5.70429 40.8727 7.01436 36.6501C7.06304 36.0915 7.23056 35.5343 7.52703 35.0154ZM21 50C21 49.1203 21.0393 48.249 21.1163 47.3878L13.6387 43.1148C13.2195 45.3436 13 47.6448 13 50C13 66.2316 23.4552 80.0285 38 85.0118V76.4073C27.9757 71.8448 21 61.7414 21 50ZM92.9856 36.6501C92.937 36.0915 92.7694 35.5343 92.473 35.0154C91.7287 33.7129 90.363 32.9876 88.9625 32.9995C88.5212 32.9921 88.0712 33.0583 87.6287 33.2061C87.1595 33.3629 86.7386 33.5982 86.3758 33.8926L73.0154 41.527C72.93 41.5758 72.8471 41.6273 72.7667 41.6813C71.2003 42.461 70.2775 44.213 70.6233 46.0157C70.8702 47.3027 71 48.6343 71 50C71 59.2416 65.0277 67.0988 56.7208 69.9027C54.973 70.4926 53.9009 72.1723 54.006 73.9291C54.002 74.0023 54 74.0759 54 74.15V90.15C54 92.3592 55.7909 94.15 58 94.15C58.365 94.15 58.7186 94.1011 59.0546 94.0095C59.3253 94.0055 59.5996 93.9739 59.8742 93.9124C79.9761 89.4101 95 71.4643 95 50C95 45.3576 94.2957 40.8727 92.9856 36.6501ZM86.3613 43.1148L78.8837 47.3878C78.9607 48.249 79 49.1203 79 50C79 61.7414 72.0243 71.8448 62 76.4073V85.0118C76.5454 80.0283 87 66.231 87 50C87 47.6448 86.7805 45.3436 86.3613 43.1148Z"
        fill="currentcolor" />
</svg>