<svg width="100" height="100" viewBox="0 0 100 100" fill="none" xmlns="http://www.w3.org/2000/svg">
    <path fill-rule="evenodd" clip-rule="evenodd"
        d="M58 14C58 11.7909 59.7909 10 62 10H86C88.2091 10 90 11.7909 90 14V38C90 40.2091 88.2091 42 86 42C83.7909 42 82 40.2091 82 38V23.6569L44.8284 60.8284C43.2663 62.3905 40.7337 62.3905 39.1716 60.8284C37.6095 59.2663 37.6095 56.7337 39.1716 55.1716L76.3431 18H62C59.7909 18 58 16.2091 58 14ZM22 22C15.3726 22 10 27.3726 10 34V78C10 84.6274 15.3726 90 22 90H66C72.6274 90 78 84.6274 78 78V54C78 51.7909 76.2091 50 74 50C71.7909 50 70 51.7909 70 54V78C70 80.2091 68.2091 82 66 82H22C19.7909 82 18 80.2091 18 78V34C18 31.7909 19.7909 30 22 30H46C48.2091 30 50 28.2091 50 26C50 23.7909 48.2091 22 46 22H22Z"
        fill="currentcolor" />
</svg>