<svg width="100" height="100" viewBox="0 0 100 100" fill="none" xmlns="http://www.w3.org/2000/svg">
    <path fill-rule="evenodd" clip-rule="evenodd"
        d="M50 95C74.8528 95 95 74.8528 95 50C95 25.1472 74.8528 5 50 5C25.1472 5 5 25.1472 5 50C5 74.8528 25.1472 95 50 95ZM54.8934 26.2779C50.6076 24.8083 46.4179 25.0479 42.3241 26.9968C38.2302 28.9456 35.4798 31.9648 34.0725 36.0543C33.8166 37.2684 33.9125 38.4186 34.3603 39.5048C34.8081 40.591 35.6396 41.23 36.855 41.4217C37.8785 41.8051 38.9339 41.7412 40.0213 41.23C41.1087 40.7189 41.8443 39.9521 42.2281 38.9297C43.0597 36.885 44.4829 35.3515 46.4979 34.3291C48.5128 33.3067 50.6397 33.2108 52.8785 34.0415C54.4776 34.6805 55.7569 35.6709 56.7164 37.0128C57.6759 38.3546 58.1556 39.9521 58.1556 41.8051C58.1556 43.8498 56.8923 45.639 54.3657 47.1725C51.8391 48.7061 49.968 49.7923 48.7527 50.4313C47.7292 50.8147 46.9616 51.4856 46.4499 52.4441C45.9382 53.4025 45.9062 54.4888 46.3539 55.7029C46.5458 56.5336 46.9936 57.2204 47.6972 57.7636C48.4008 58.3067 49.1684 58.5783 50 58.5783C50.1919 58.5783 50.3998 58.5623 50.6237 58.5303C50.8475 58.4984 51.0554 58.3866 51.2473 58.1949C51.6311 58.0671 52.6546 57.6517 54.3177 56.9489C55.9169 56.3099 57.6119 55.3355 59.403 54.0256C61.1941 52.7156 62.7931 51.0703 64.2004 49.0895C65.6716 47.1725 66.4072 44.8722 66.4072 42.1885C66.1514 38.5463 64.984 35.2875 62.9051 32.4121C60.8262 29.5367 58.1556 27.492 54.8934 26.2779ZM47.1215 67.5879C46.7377 67.9712 46.4339 68.3865 46.21 68.8339C45.9862 69.2812 45.8742 69.8242 45.8742 70.4632C45.8742 71.0383 45.9862 71.5495 46.21 71.9968C46.4339 72.4441 46.7377 72.8913 47.1215 73.3387C47.5693 73.722 48.0011 74.0096 48.4168 74.2013C48.8326 74.393 49.3603 74.4888 50 74.4888C50.6397 74.4888 51.1674 74.393 51.5832 74.2013C51.9989 74.0096 52.4307 73.722 52.8785 73.3387C53.2623 72.8913 53.5661 72.3962 53.79 71.853C54.0138 71.3099 54.1258 70.8466 54.1258 70.4632C54.1258 70.0159 54.0138 69.5208 53.79 68.9776C53.5661 68.4345 53.2623 67.9712 52.8785 67.5879C52.0469 66.7571 51.0874 66.3418 50 66.3418C48.9126 66.3418 47.9531 66.7571 47.1215 67.5879Z"
        fill="currentcolor" />
</svg>