<svg width="100" height="100" viewBox="0 0 100 100" fill="none" xmlns="http://www.w3.org/2000/svg">
    <path
        d="M54.8934 26.278C50.6076 24.8083 46.4179 25.048 42.3241 26.9968C38.2302 28.9457 35.4798 31.9648 34.0725 36.0543C33.8166 37.2684 33.9125 38.4186 34.3603 39.5048C34.8081 40.591 35.6396 41.23 36.855 41.4217C37.8785 41.8051 38.9339 41.7412 40.0213 41.23C41.1087 40.7189 41.8444 39.9521 42.2281 38.9297C43.0597 36.885 44.4829 35.3515 46.4979 34.3291C48.5128 33.3067 50.6397 33.2108 52.8785 34.0415C54.4776 34.6805 55.7569 35.6709 56.7164 37.0128C57.6759 38.3546 58.1557 39.9521 58.1557 41.8051C58.1557 43.8498 56.8923 45.639 54.3657 47.1725C51.8391 48.7061 49.9681 49.7923 48.7527 50.4313C47.7292 50.8147 46.9616 51.4856 46.4499 52.4441C45.9382 53.4026 45.9062 54.4888 46.3539 55.7029C46.5458 56.5336 46.9936 57.2204 47.6972 57.7636C48.4008 58.3067 49.1684 58.5783 50 58.5783C50.1919 58.5783 50.3998 58.5623 50.6237 58.5303C50.8475 58.4984 51.0554 58.3866 51.2473 58.1949C51.6311 58.0671 52.6546 57.6517 54.3177 56.9489C55.9169 56.3099 57.6119 55.3355 59.403 54.0256C61.1941 52.7156 62.7931 51.0703 64.2004 49.0895C65.6716 47.1725 66.4072 44.8722 66.4072 42.1885C66.1514 38.5463 64.984 35.2875 62.9051 32.4121C60.8262 29.5367 58.1557 27.492 54.8934 26.278ZM50 5C43.7314 5 37.8785 6.18212 32.4414 8.54633C26.9403 10.8466 22.1588 14.0415 18.097 18.131C14.0352 22.2205 10.8209 26.9808 8.45416 32.4121C6.15139 37.9073 5 43.754 5 49.9521C5 56.214 6.15139 62.0607 8.45416 67.492C10.8209 72.9872 14.0352 77.7636 18.097 81.8211C22.1588 85.8786 26.9403 89.0894 32.4414 91.4537C37.8785 93.8179 43.7314 95 50 95C56.2686 95 62.1215 93.8179 67.5586 91.4537C73.0597 89.0894 77.8412 85.8786 81.903 81.8211C85.9648 77.7636 89.1791 72.9872 91.5458 67.492C93.8486 62.0607 95 56.214 95 49.9521C95 43.754 93.8486 37.9073 91.5458 32.4121C89.1791 26.9808 85.9648 22.2205 81.903 18.131C77.8412 14.0415 73.0597 10.8466 67.5586 8.54633C62.1215 6.18212 56.2686 5 50 5ZM50 86.7572C44.8828 86.7572 40.0853 85.7987 35.6077 83.8818C31.13 81.9649 27.2282 79.3451 23.9019 76.0224C20.5757 72.6996 17.9531 68.802 16.0341 64.3291C14.1151 59.8562 13.1557 55.0639 13.1557 49.9521C13.1557 44.8403 14.1151 40.048 16.0341 35.5751C17.9531 31.1022 20.5757 27.2045 23.9019 23.8818C27.2282 20.5591 31.13 17.9393 35.6077 16.0224C40.0853 14.1054 44.8828 13.147 50 13.147C55.1172 13.147 59.9147 14.1054 64.3923 16.0224C68.87 17.9393 72.7718 20.5591 76.0981 23.8818C79.4243 27.2045 82.0469 31.1022 83.9659 35.5751C85.8849 40.048 86.8444 44.8403 86.8444 49.9521C86.8444 55.0639 85.8849 59.8562 83.9659 64.3291C82.0469 68.802 79.4243 72.6996 76.0981 76.0224C72.7718 79.3451 68.87 81.9649 64.3923 83.8818C59.9147 85.7987 55.1172 86.7572 50 86.7572ZM47.1215 67.5879C46.7377 67.9712 46.4339 68.3865 46.21 68.8339C45.9862 69.2812 45.8742 69.8242 45.8742 70.4633C45.8742 71.0383 45.9862 71.5495 46.21 71.9968C46.4339 72.4441 46.7377 72.8913 47.1215 73.3387C47.5693 73.722 48.0011 74.0096 48.4168 74.2013C48.8326 74.393 49.3603 74.4888 50 74.4888C50.6397 74.4888 51.1674 74.393 51.5832 74.2013C51.9989 74.0096 52.4307 73.722 52.8785 73.3387C53.2623 72.8913 53.5661 72.3962 53.79 71.853C54.0138 71.3099 54.1258 70.8466 54.1258 70.4633C54.1258 70.0159 54.0138 69.5208 53.79 68.9776C53.5661 68.4345 53.2623 67.9712 52.8785 67.5879C52.0469 66.7572 51.0874 66.3419 50 66.3419C48.9126 66.3419 47.9531 66.7572 47.1215 67.5879Z"
        fill="currentcolor" />
</svg>