<svg width="100" height="100" viewBox="0 0 100 100" fill="none" xmlns="http://www.w3.org/2000/svg">
    <path
        d="M50 5C43.7381 5 37.8914 6.18212 32.4601 8.54633C26.9649 10.8466 22.1885 14.0415 18.131 18.131C14.0735 22.2205 10.8627 26.9808 8.4984 32.4121C6.19808 37.9073 5.04792 43.754 5.04792 49.9521C5.04792 56.214 6.19808 62.0607 8.4984 67.492C10.8627 72.9872 14.0735 77.7636 18.131 81.8211C22.1885 85.8786 26.9649 89.0894 32.4601 91.4537C37.8914 93.8179 43.7381 95 50 95C56.2619 95 62.1086 93.8179 67.5399 91.4537C73.0351 89.0894 77.8115 85.8786 81.869 81.8211C85.9265 77.7636 89.1373 72.9872 91.5016 67.492C93.8019 62.0607 94.9521 56.214 94.9521 49.9521C94.9521 43.754 93.8019 37.9073 91.5016 32.4121C89.1373 26.9808 85.9265 22.2205 81.869 18.131C77.8115 14.0415 73.0351 10.8466 67.5399 8.54633C62.1086 6.18212 56.2619 5 50 5ZM50 86.7572C44.8882 86.7572 40.0959 85.7987 35.623 83.8818C31.1501 81.9649 27.2524 79.3451 23.9297 76.0224C20.607 72.6996 17.9872 68.8019 16.0703 64.3291C14.1534 59.8562 13.1949 55.0639 13.1949 49.9521C13.1949 44.8403 14.1534 40.048 16.0703 35.5751C17.9872 31.1022 20.607 27.2045 23.9297 23.8818C27.2524 20.5591 31.1501 17.9393 35.623 16.0224C40.0959 14.1054 44.8882 13.147 50 13.147C55.1118 13.147 59.9041 14.1054 64.377 16.0224C68.8499 17.9393 72.7476 20.5591 76.0703 23.8818C79.393 27.2045 82.0128 31.1022 83.9297 35.5751C85.8466 40.048 86.8051 44.8403 86.8051 49.9521C86.8051 55.0639 85.8466 59.8562 83.9297 64.3291C82.0128 68.8019 79.393 72.6996 76.0703 76.0224C72.7476 79.3451 68.8499 81.9649 64.377 83.8818C59.9041 85.7987 55.1118 86.7572 50 86.7572ZM41.853 33.6581C40.5751 33.6581 39.5687 34.0255 38.8339 34.7604C38.099 35.4952 37.7316 36.4696 37.7316 37.6837V62.2204C37.7316 63.4984 38.099 64.5048 38.8339 65.2396C39.5687 65.9745 40.5751 66.3419 41.853 66.3419C43.0671 66.3419 44.0415 65.9745 44.7764 65.2396C45.5112 64.5048 45.8786 63.4984 45.8786 62.2204V37.6837C45.8786 36.4696 45.5112 35.4952 44.7764 34.7604C44.0415 34.0255 43.0671 33.6581 41.853 33.6581ZM58.147 33.6581C56.9329 33.6581 55.9585 34.0255 55.2236 34.7604C54.4888 35.4952 54.1214 36.4696 54.1214 37.6837V62.2204C54.1214 63.4984 54.4888 64.5048 55.2236 65.2396C55.9585 65.9745 56.9329 66.3419 58.147 66.3419C59.4249 66.3419 60.4313 65.9745 61.1661 65.2396C61.901 64.5048 62.2684 63.4984 62.2684 62.2204V37.6837C62.2684 36.4696 61.901 35.4952 61.1661 34.7604C60.4313 34.0255 59.4249 33.6581 58.147 33.6581Z"
        fill="currentcolor" />
</svg>