<svg width="100" height="100" viewBox="0 0 100 100" fill="none" xmlns="http://www.w3.org/2000/svg">
    <path fill-rule="evenodd" clip-rule="evenodd"
        d="M18.8586 8.87022C19.5842 8.134 20.524 7.75 21.7458 7.75H40.6187C41.8409 7.75 42.7549 8.13372 43.4397 8.85876C44.1345 9.59429 44.5042 10.5571 44.5042 11.8151V88.2969C44.5042 89.5557 44.1345 90.4921 43.4508 91.1858C42.7682 91.8783 41.8507 92.25 40.6187 92.25H21.7458C20.5144 92.25 19.5709 91.8782 18.8473 91.1745C18.1319 90.4789 17.75 89.5462 17.75 88.2969V11.8151C17.75 10.5663 18.132 9.60737 18.8586 8.87022ZM56.5603 8.85876C57.2451 8.13372 58.1591 7.75 59.3813 7.75H78.2542C79.476 7.75 80.4158 8.134 81.1414 8.87022C81.868 9.60737 82.25 10.5663 82.25 11.8151V88.2969C82.25 89.5462 81.8681 90.4789 81.1527 91.1745C80.4291 91.8782 79.4856 92.25 78.2542 92.25H59.3813C58.1493 92.25 57.2318 91.8783 56.5492 91.1858C55.8655 90.4921 55.4958 89.5557 55.4958 88.2969V11.8151C55.4958 10.5571 55.8655 9.59429 56.5603 8.85876ZM36.6229 15.8802H25.7416V84.2318H36.6229V15.8802ZM74.2584 15.8802H63.3771V84.2318H74.2584V15.8802Z"
        fill="currentcolor" />
</svg>