<svg width="100" height="100" viewBox="0 0 100 100" fill="none" xmlns="http://www.w3.org/2000/svg">
    <g clip-path="url(#clip0_1998_12)">
        <path fill-rule="evenodd" clip-rule="evenodd"
            d="M11.1091 5.45227C9.54703 3.89018 7.01437 3.89018 5.45227 5.45227C3.89018 7.01437 3.89018 9.54703 5.45227 11.1091L25.341 30.9979C15.6885 38.01 9.13103 49.0392 8.13272 61.6368C3.40275 63.2461 0 67.7257 0 73C0 79.6274 5.37258 85 12 85H79.3431L88.8909 94.5477C90.453 96.1098 92.9856 96.1098 94.5477 94.5477C96.1098 92.9856 96.1098 90.453 94.5477 88.8909L67.83 62.1732C67.829 62.1721 67.8279 62.171 67.8268 62.17L11.1091 5.45227ZM55.3431 61L31.0852 36.7421C23.0277 42.1466 17.4163 50.8983 16.2328 61H55.3431ZM63.3431 69H12C9.79086 69 8 70.7909 8 73C8 75.2091 9.79086 77 12 77H71.3431L63.3431 69ZM50 17C48.3431 17 47 18.3431 47 20C47 22.2091 45.2091 24 43 24C40.7909 24 39 22.2091 39 20C39 13.9249 43.9249 9 50 9C56.0751 9 61 13.9249 61 20C61 21.5012 60.6993 22.9321 60.1548 24.2359C77.3943 28.5164 90.4275 43.4468 91.8676 61.64C96.3539 63.1901 99.6291 67.3033 99.958 72.2362L99.9911 72.7339C100.138 74.9382 98.4703 76.8442 96.2661 76.9911C94.0618 77.1381 92.1558 75.4703 92.0089 73.2661L91.9757 72.7684C91.8417 70.758 90.2538 69.1522 88.2488 68.9924C88.1665 68.9974 88.0836 69 88 69C85.7909 69 84 67.2091 84 65C84 46.2223 68.7777 31 50 31C47.7909 31 46 29.2091 46 27C46 24.7909 47.7909 23 50 23C51.6569 23 53 21.6569 53 20C53 18.3431 51.6569 17 50 17Z"
            fill="currentcolor" />
    </g>
</svg>