<svg width="100" height="100" viewBox="0 0 100 100" fill="none" xmlns="http://www.w3.org/2000/svg">
    <path fill-rule="evenodd" clip-rule="evenodd"
        d="M47 20C47 18.3431 48.3431 17 50 17C51.6569 17 53 18.3431 53 20C53 21.6569 51.6569 23 50 23C48.3431 23 47 21.6569 47 20ZM60.1548 24.2359C60.6993 22.9321 61 21.5012 61 20C61 13.9249 56.0751 9 50 9C43.9249 9 39 13.9249 39 20C39 21.5012 39.3007 22.9321 39.8452 24.2359C22.6068 28.5162 9.57404 43.445 8.1327 61.6368C3.40274 63.2461 0 67.7257 0 73C0 79.6274 5.37258 85 12 85H88C94.6274 85 100 79.6274 100 73C100 67.7257 96.5973 63.2461 91.8673 61.6368C90.4259 43.445 77.3932 28.5162 60.1548 24.2359ZM50 31C32.5756 31 18.2125 44.1073 16.2328 61H83.7672C81.7875 44.1073 67.4244 31 50 31ZM92 73C92 70.7909 90.2091 69 88 69H12C9.79086 69 8 70.7909 8 73C8 75.2091 9.79086 77 12 77H88C90.2091 77 92 75.2091 92 73Z"
        fill="currentcolor" />
</svg>