<svg width="100" height="100" viewBox="0 0 100 100" fill="none" xmlns="http://www.w3.org/2000/svg">
    <path
        d="M89.2012 62.2204C88.1788 61.8371 87.1405 61.8371 86.0862 62.2204C85.0319 62.6038 84.2811 63.3067 83.8338 64.3291C81.9169 68.9936 79.2013 73.0192 75.6869 76.4058C72.1724 79.7285 68.2268 82.2843 63.8498 84.0735C59.4728 85.8627 54.8562 86.7572 49.9999 86.7572C45.0799 86.8211 40.2875 85.8627 35.6229 83.8818C30.8945 81.9649 26.837 79.2492 23.4504 75.7348C20.1277 72.2204 17.5878 68.2907 15.8306 63.9457C14.0735 59.6007 13.1629 54.968 13.099 50.0479C13.0351 45.1917 13.9935 40.3993 15.9744 35.6709C17.8274 31.3897 20.4153 27.5719 23.738 24.2173C27.0607 20.8626 30.8625 18.2588 35.1437 16.4058C36.1661 16.0224 36.869 15.3035 37.2523 14.2492C37.6357 13.1949 37.6357 12.1566 37.2523 11.1342C36.805 10.1118 36.0543 9.34502 34.9999 8.83387C33.9456 8.32269 32.9073 8.2588 31.8849 8.64217C29.2652 9.79233 26.7731 11.1661 24.4089 12.7636C22.0446 14.4249 19.8881 16.262 17.9392 18.2748C15.9904 20.2875 14.2172 22.476 12.6198 24.8403C11.0862 27.2045 9.74435 29.7284 8.59419 32.4121C6.16608 38.099 4.98397 43.9457 5.04787 49.9521C5.04787 55.8946 6.13413 61.5335 8.30665 66.869C10.4792 72.2045 13.6101 77.0127 17.6996 81.2939C21.8529 85.5751 26.7411 88.8977 32.3642 91.262C35.1756 92.4761 38.083 93.4025 41.0862 94.0415C44.0894 94.6805 47.0287 95 49.9041 95C54.313 95 58.6261 94.361 62.8434 93.0831C66.9967 91.869 70.8945 90.0799 74.5367 87.7157C78.1789 85.3514 81.4376 82.476 84.313 79.0895C87.1884 75.7029 89.4888 71.869 91.214 67.5879C91.5974 66.5655 91.6134 65.5272 91.2619 64.4728C90.9105 63.4185 90.2236 62.6678 89.2012 62.2204ZM49.9041 5C48.69 5 47.6996 5.36742 46.9329 6.10224C46.1661 6.83706 45.7827 7.84345 45.7827 9.12141V49.9521C45.7827 51.23 46.1661 52.2364 46.9329 52.9712C47.6996 53.7061 48.69 54.0735 49.9041 54.0735H90.8306C92.0447 54.0735 93.0191 53.7061 93.7539 52.9712C94.4888 52.2364 94.8562 51.23 94.8562 49.9521C94.8562 43.754 93.706 37.9073 91.4057 32.4121C89.0415 26.9808 85.8306 22.2205 81.7731 18.131C77.7156 14.0415 72.9392 10.8466 67.444 8.54633C62.0127 6.18212 56.1661 5 49.9041 5ZM54.0255 45.9265V13.6262C58.3067 14.1373 62.3322 15.3195 66.1022 17.1725C69.8083 19.0255 73.099 21.3738 75.9744 24.2173C78.8498 27.0607 81.182 30.3354 82.9712 34.0415C84.7604 37.7476 85.8785 41.7093 86.3258 45.9265H54.0255Z"
        fill="currentcolor" />
</svg>