<svg width="100" height="100" viewBox="0 0 100 100" fill="none" xmlns="http://www.w3.org/2000/svg">
    <g clip-path="url(#clip0_1998_12)">
        <path fill-rule="evenodd" clip-rule="evenodd"
            d="M80.2924 1.75349C77.7203 0.2685 74.8255 -0.65883 71.9024 0.352555C69.1459 1.30633 67.5179 3.62497 66.4582 5.46036C64.8499 8.24607 55.0225 26.7634 50.3619 35.5735L49.4385 37.3191C47.2852 39.3262 44.7444 41.6382 42.0353 44.1034L42.0349 44.1037L42.0348 44.1038L41.3918 44.689C37.3087 48.4047 32.916 52.4111 29.0715 56.0959C25.3361 59.6761 22.8822 64.5893 21.9075 69.5189C21.4398 71.8842 21.293 74.3652 21.5643 76.7893C16.4937 74.9056 12.5962 72.4288 10.2977 69.9041C7.99346 67.373 7.65219 65.291 8.28893 63.5548C9.06317 61.4437 11.0314 59.3792 14.3786 57.4782C16.2996 56.3873 16.9725 53.9456 15.8815 52.0246C14.7905 50.1037 12.3489 49.4308 10.4279 50.5218C6.28467 52.8748 2.47644 56.1694 0.778106 60.8003C-1.22204 66.2541 0.828667 71.3866 4.38202 75.2897C7.88978 79.1427 13.1918 82.2654 19.18 84.4359C31.149 88.7742 47.2652 89.8036 60.9806 83.8187C66.8172 81.2718 71.352 78.3633 73.8519 74.8657C75.1604 73.0349 75.9783 70.9457 75.9996 68.662C76.0208 66.3858 75.2472 64.296 74.024 62.4605C72.799 60.6221 70.3156 60.1249 68.4773 61.35C66.6389 62.5751 66.1417 65.0585 67.3668 66.8968C67.899 67.6954 68.0032 68.2398 67.9999 68.5874C67.9968 68.9275 67.8881 69.4518 67.3434 70.2138C66.137 71.9018 63.259 74.096 57.781 76.4864C57.1723 76.7521 56.5564 77.0014 55.9345 77.2349C57.6487 71.4248 59.4209 64.9259 61.066 58.8713L61.3298 57.9004L61.3301 57.8994L61.3303 57.8983C62.3647 54.0907 63.3413 50.4956 64.2209 47.3679L65.9686 44.5841C71.2682 36.1428 82.3909 18.3734 83.9993 15.5877C85.0589 13.7523 86.253 11.1831 85.7007 8.31896C85.115 5.28181 82.8645 3.23849 80.2924 1.75349ZM30.3813 79.1634C30.5626 79.1955 30.7444 79.2268 30.9267 79.2572L48.2352 49.2781L47.4656 49.9784L47.4656 49.9784L46.7763 50.6057C42.6823 54.3314 38.3651 58.2695 34.6072 61.8714C32.1972 64.1813 30.4511 67.553 29.7555 71.0707C29.1404 74.1819 29.4117 77.0364 30.3813 79.1634ZM46.3429 79.5852C44.1485 79.871 41.9351 80.0042 39.7356 79.9998L53.5243 56.117L53.3459 56.7737C51.6836 62.8916 49.9176 69.3659 48.2187 75.1158C47.7771 76.6106 47.1407 78.1182 46.3429 79.5852ZM60.2594 36.4981L61.2417 37.0652C66.9626 27.9402 75.7335 13.9045 77.0711 11.5877C77.4777 10.8834 77.6853 10.4012 77.7811 10.0764C77.8105 9.97662 77.8254 9.90537 77.8327 9.8584C77.7178 9.69706 77.3463 9.29018 76.2924 8.6817C75.2385 8.07321 74.7004 7.95495 74.5032 7.93608C74.4662 7.96597 74.4119 8.01443 74.3402 8.08982C74.1068 8.33514 73.793 8.75607 73.3864 9.46036C72.0488 11.7772 64.279 26.3908 59.2369 35.9078L60.2191 36.4748L60.2393 36.4864L60.2594 36.4981ZM74.5625 7.89372C74.5625 7.89384 74.5605 7.89509 74.5564 7.89715C74.5605 7.89464 74.5625 7.89361 74.5625 7.89372ZM74.4445 7.93291C74.4242 7.93661 74.4133 7.93661 74.4129 7.93568C74.4125 7.93476 74.4226 7.9329 74.4445 7.93291ZM77.8783 9.93643C77.8773 9.93653 77.8718 9.92704 77.8648 9.90763C77.8758 9.92662 77.8793 9.93632 77.8783 9.93643ZM77.8399 9.79283C77.8396 9.78828 77.8397 9.78588 77.8398 9.78582C77.8399 9.78577 77.84 9.78804 77.8399 9.79283ZM78.2614 49.2187C76.1731 48.4982 73.896 49.607 73.1755 51.6954C72.455 53.7837 73.5638 56.0607 75.6521 56.7813C82.9792 59.3093 87.4658 62.3345 89.8228 65.2301C92.0377 67.951 92.4426 70.5966 91.5756 73.2633C90.6292 76.1745 87.9919 79.5894 83.0911 83.0174C78.2416 86.4094 71.4726 89.5995 62.8577 92.1666C60.7406 92.7974 59.5357 95.0251 60.1666 97.1423C60.7974 99.2594 63.0251 100.464 65.1423 99.8334C74.343 97.0918 81.9479 93.5798 87.6764 89.5729C93.3535 85.602 97.4982 80.9212 99.1837 75.7367C100.949 70.3078 99.8351 64.8576 96.0271 60.1797C92.3613 55.6763 86.3205 51.9993 78.2614 49.2187Z"
            fill="currentcolor" />
    </g>
</svg>