<svg width="100" height="100" viewBox="0 0 100 100" fill="none" xmlns="http://www.w3.org/2000/svg">
    <path fill-rule="evenodd" clip-rule="evenodd"
        d="M10 14C10 11.7909 11.7909 10 14 10H38C40.2091 10 42 11.7909 42 14V38C42 40.2091 40.2091 42 38 42H14C11.7909 42 10 40.2091 10 38V14ZM18 18V34H34V18H18ZM14 58C11.7909 58 10 59.7909 10 62C10 64.2091 11.7909 66 14 66H86C88.2091 66 90 64.2091 90 62C90 59.7909 88.2091 58 86 58H14ZM14 82C11.7909 82 10 83.7909 10 86C10 88.2091 11.7909 90 14 90H86C88.2091 90 90 88.2091 90 86C90 83.7909 88.2091 82 86 82H14ZM62 10C59.7909 10 58 11.7909 58 14V38C58 40.2091 59.7909 42 62 42H86C88.2091 42 90 40.2091 90 38V14C90 11.7909 88.2091 10 86 10H62ZM66 34V18H82V34H66Z"
        fill="currentcolor" />
</svg>