<svg width="100" height="100" viewBox="0 0 100 100" fill="none" xmlns="http://www.w3.org/2000/svg">
    <path fill-rule="evenodd" clip-rule="evenodd"
        d="M14 10C11.7909 10 10 11.7909 10 14C10 16.2091 11.7909 18 14 18H86C88.2091 18 90 16.2091 90 14C90 11.7909 88.2091 10 86 10H14ZM10 38C10 35.7909 11.7909 34 14 34H86C88.2091 34 90 35.7909 90 38C90 40.2091 88.2091 42 86 42H14C11.7909 42 10 40.2091 10 38ZM14 58C11.7909 58 10 59.7909 10 62C10 64.2091 11.7909 66 14 66H86C88.2091 66 90 64.2091 90 62C90 59.7909 88.2091 58 86 58H14ZM14 82C11.7909 82 10 83.7909 10 86C10 88.2091 11.7909 90 14 90H86C88.2091 90 90 88.2091 90 86C90 83.7909 88.2091 82 86 82H14Z"
        fill="currentcolor" />
</svg>