<svg width="100" height="100" viewBox="0 0 100 100" fill="none" xmlns="http://www.w3.org/2000/svg">
    <path fill-rule="evenodd" clip-rule="evenodd"
        d="M23 11C16.3726 11 11 16.3726 11 23V77C11 83.6274 16.3726 89 23 89H63C65.2091 89 67 87.2091 67 85C67 82.7909 65.2091 81 63 81H23C20.7909 81 19 79.2091 19 77V23C19 20.7909 20.7909 19 23 19H77C79.2091 19 81 20.7909 81 23V63C81 65.2091 82.7909 67 85 67C87.2091 67 89 65.2091 89 63V23C89 16.3726 83.6274 11 77 11H23ZM54 29C54 26.7909 52.2091 25 50 25C47.7909 25 46 26.7909 46 29V41C46 43.2091 47.7909 45 50 45C52.2091 45 54 43.2091 54 41V29ZM50 55C52.2091 55 54 56.7909 54 59V71C54 73.2091 52.2091 75 50 75C47.7909 75 46 73.2091 46 71V59C46 56.7909 47.7909 55 50 55ZM71 54C73.2091 54 75 52.2091 75 50C75 47.7909 73.2091 46 71 46H59C56.7909 46 55 47.7909 55 50C55 52.2091 56.7909 54 59 54H71ZM45 50C45 52.2091 43.2091 54 41 54H29C26.7909 54 25 52.2091 25 50C25 47.7909 26.7909 46 29 46H41C43.2091 46 45 47.7909 45 50ZM85.1716 90.8284C86.7337 92.3905 89.2663 92.3905 90.8284 90.8284C92.3905 89.2663 92.3905 86.7337 90.8284 85.1716L66.8284 61.1716C65.2663 59.6095 62.7337 59.6095 61.1716 61.1716C59.6095 62.7337 59.6095 65.2663 61.1716 66.8284L85.1716 90.8284Z"
        fill="currentcolor" />
</svg>