<svg width="100" height="100" viewBox="0 0 100 100" fill="none" xmlns="http://www.w3.org/2000/svg">
    <path fill-rule="evenodd" clip-rule="evenodd"
        d="M62.4866 7.45209C63.1948 6.74667 64.1784 6.375 65.4846 6.375H87.5462C87.7364 6.375 88.0166 6.39102 88.3929 6.42506C88.7123 6.45395 88.914 6.55045 89.0424 6.67835L89.0854 6.72124L89.1399 6.74834C89.5101 6.93271 89.8924 7.21545 90.2853 7.60684C90.6783 7.99825 90.962 8.37891 91.147 8.74737L91.1867 8.82655L91.2577 8.87957C91.4395 9.01538 91.5488 9.20567 91.5748 9.49009C91.6089 9.86484 91.625 10.1438 91.625 10.3329V32.4103C91.625 33.6304 91.2419 34.5756 90.4982 35.2856C89.7495 36.0002 88.7769 36.3683 87.5462 36.3683C86.3156 36.3683 85.3429 36.0002 84.5943 35.2856C83.8505 34.5756 83.4675 33.6304 83.4675 32.4103V20.0552L15.3066 88.05C14.85 88.4383 14.4023 88.7223 13.9638 88.9095C13.5346 89.0927 13.0337 89.1889 12.4538 89.1889C11.7987 89.1889 11.2649 89.0908 10.8402 88.9095C10.4053 88.7239 9.99548 88.443 9.61112 88.0602C8.77756 87.23 8.375 86.2916 8.375 85.2309C8.375 84.1703 8.77756 83.2319 9.61112 82.4017L77.8894 14.3941H65.4846C64.1784 14.3941 63.1948 14.0224 62.4866 13.317C61.7785 12.6117 61.4058 11.6328 61.4058 10.3329C61.4058 9.10798 61.7749 8.161 62.4866 7.45209ZM9.61112 11.9398C10.4447 11.1095 11.3875 10.7079 12.4538 10.7079C13.52 10.7079 14.4628 11.1095 15.2964 11.9398L37.358 33.914C38.1916 34.7442 38.5942 35.6826 38.5942 36.7433C38.5942 37.8039 38.1916 38.7423 37.358 39.5725C36.8949 40.0338 36.4643 40.3468 36.0678 40.5292C35.6836 40.7058 35.172 40.8044 34.5154 40.8044C33.8588 40.8044 33.3472 40.7058 32.9631 40.5292C32.5665 40.3468 32.1359 40.0338 31.6728 39.5725L9.61112 17.5983C8.77756 16.7681 8.375 15.8297 8.375 14.7691C8.375 13.7084 8.77756 12.77 9.61112 11.9398ZM56.9521 63.1536C56.9521 62.0952 57.3529 61.1586 58.1829 60.3296C59.013 59.5686 59.9573 59.1956 61.0308 59.1956C62.1042 59.1956 63.0485 59.5685 63.8785 60.3294L83.4675 79.9473V67.5897C83.4675 66.3698 83.8507 65.4037 84.6 64.6572C85.3495 63.9107 86.3203 63.5286 87.5462 63.5286C88.7722 63.5286 89.743 63.9107 90.4925 64.6572C91.2418 65.4037 91.625 66.3698 91.625 67.5897V89.5639C91.625 89.8238 91.6086 90.1205 91.5751 90.4549C91.5511 90.6945 91.4494 90.874 91.2577 91.0173L91.1773 91.0773L91.1376 91.1695C90.9515 91.6023 90.6697 92.0103 90.2853 92.3932C89.8924 92.7845 89.5101 93.0673 89.1399 93.2517L89.0854 93.2788L89.0424 93.3216C88.914 93.4495 88.7123 93.546 88.3929 93.5749C88.0166 93.609 87.7364 93.625 87.5462 93.625H65.4846C64.1784 93.625 63.1948 93.2533 62.4866 92.5479C61.7785 91.8427 61.4058 90.8638 61.4058 89.5639C61.4058 88.3389 61.7749 87.392 62.4866 86.683C63.1948 85.9776 64.1784 85.6059 65.4846 85.6059H77.8894L58.1882 65.9828C57.3546 65.1526 56.9521 64.2142 56.9521 63.1536Z"
        fill="currentcolor" />
</svg>