<svg width="100" height="100" viewBox="0 0 100 100" fill="none" xmlns="http://www.w3.org/2000/svg">
    <path
        d="M82.4888 5H27.2811C23.4473 5 20.1087 6.42173 17.2652 9.26518C14.4217 12.1087 13 15.4473 13 19.2812V80.623C13 84.5208 14.4217 87.8913 17.2652 90.7348C20.1087 93.5783 23.4473 95 27.2811 95H82.4888C83.7667 95 84.7731 94.6166 85.508 93.8498C86.2428 93.0831 86.6102 92.0927 86.6102 90.8786V9.12141C86.6102 7.84345 86.2428 6.83706 85.508 6.10224C84.7731 5.36742 83.7667 5 82.4888 5ZM27.2811 13.147H78.4632V66.3419H27.2811C26.2587 66.3419 25.2364 66.4537 24.2141 66.6773C23.1917 66.9009 22.1694 67.3322 21.147 67.9712V19.2812C21.147 17.6837 21.77 16.262 23.016 15.016C24.262 13.77 25.6837 13.147 27.2811 13.147ZM27.2811 86.7572C25.6837 86.7572 24.262 86.1502 23.016 84.9361C21.77 83.722 21.147 82.2843 21.147 80.623C21.147 79.0255 21.77 77.6038 23.016 76.3578C24.262 75.1118 25.6837 74.4888 27.2811 74.4888H78.4632V86.7572H27.2811Z"
        fill="currentcolor" />
</svg>