<svg width="100" height="100" viewBox="0 0 100 100" fill="none" xmlns="http://www.w3.org/2000/svg">
    <path fill-rule="evenodd" clip-rule="evenodd"
        d="M11.1092 5.45227C9.54709 3.89018 7.01443 3.89018 5.45233 5.45227C3.89024 7.01437 3.89024 9.54703 5.45233 11.1091L13.0122 18.669C13.004 18.8716 13 19.0757 13 19.2811V80.623C13 84.5208 14.4217 87.8913 17.2651 90.7348C20.1086 93.5783 23.4472 95 27.2811 95H82.4888C83.7667 95 84.7731 94.6166 85.5079 93.8498C85.9743 93.3632 86.2926 92.7866 86.463 92.1198L88.8909 94.5477C90.453 96.1098 92.9857 96.1098 94.5478 94.5477C96.1099 92.9856 96.1099 90.453 94.5478 88.8909L11.1092 5.45227ZM78.4632 84.12L68.616 74.2727V74.4888H27.2811C25.6836 74.4888 24.2619 75.1118 23.0159 76.3578C21.7699 77.6038 21.1469 79.0255 21.1469 80.623C21.1469 82.2843 21.7699 83.722 23.0159 84.9361C24.2619 86.1502 25.6836 86.7572 27.2811 86.7572H78.4632V84.12ZM60.6851 66.3419L21.1469 26.8037V67.9712C22.1693 67.3322 23.1916 66.9009 24.214 66.6773C25.2364 66.4537 26.2587 66.3419 27.2811 66.3419H60.6851ZM33.1716 5V5.00006L33.1484 5C30.9033 5 29.0833 6.82003 29.0833 9.06515C29.0833 11.3103 30.9033 13.1303 33.1484 13.1303L33.1716 13.1302V13.147H78.4632V61.2948H78.483C78.4809 61.3482 78.4799 61.402 78.4799 61.4559C78.4799 63.701 80.2999 65.5211 82.545 65.5211C84.7901 65.5211 86.6102 63.701 86.6102 61.4559C86.6102 61.402 86.6091 61.3482 86.607 61.2948H86.6102V9.12141C86.6102 7.84345 86.2428 6.83706 85.5079 6.10224C84.7731 5.36742 83.7667 5 82.4888 5H33.1716Z"
        fill="currentcolor" />
</svg>