<svg width="100" height="100" viewBox="0 0 100 100" fill="none" xmlns="http://www.w3.org/2000/svg">
    <path fill-rule="evenodd" clip-rule="evenodd"
        d="M27.2811 5H82.4888C83.7667 5 84.7731 5.36742 85.5079 6.10224C86.2428 6.83706 86.6102 7.84345 86.6102 9.12141V90.8786C86.6102 92.0927 86.2428 93.0831 85.5079 93.8498C84.7731 94.6166 83.7667 95 82.4888 95H27.2811C23.4472 95 20.1086 93.5783 17.2651 90.7348C14.4217 87.8913 13 84.5208 13 80.623V19.2811C13 15.4473 14.4217 12.1087 17.2651 9.26518C20.1086 6.42173 23.4472 5 27.2811 5ZM23.0159 84.9361C24.2619 86.1502 25.6836 86.7572 27.2811 86.7572H78.4632V74.4888H27.2811C25.6836 74.4888 24.2619 75.1118 23.0159 76.3578C21.7699 77.6038 21.1469 79.0255 21.1469 80.623C21.1469 82.2843 21.7699 83.722 23.0159 84.9361ZM57.0662 29.3011C54.8871 27.7135 52.2368 26.906 49.5427 27.0087C46.8485 27.1115 44.2675 28.1185 42.2156 29.8674C40.1638 31.6164 38.7607 34.0054 38.2325 36.6492C37.7043 39.2931 38.0819 42.0378 39.3043 44.4409C40.5268 46.8439 42.5228 48.7653 44.9707 49.8952C47.4186 51.0252 50.1757 51.2979 52.7975 50.6694C55.4193 50.0408 57.7531 48.5477 59.4226 46.4307C60.2424 45.3912 60.8785 44.2309 61.3137 43H50C47.7909 43 46 41.2091 46 39C46 36.7909 47.7909 35 50 35H66C67.0609 35 68.0783 35.4214 68.8284 36.1716C69.5786 36.9217 70 37.9391 70 39C70 43.4935 68.4868 47.8561 65.7043 51.3845C62.9218 54.9128 59.0322 57.4014 54.6625 58.4489C50.2928 59.4965 45.6977 59.042 41.6178 57.1587C37.538 55.2755 34.2113 52.0732 32.1739 48.0681C30.1365 44.063 29.5072 39.4885 30.3875 35.0821C31.2678 30.6756 33.6063 26.694 37.026 23.7791C40.4458 20.8641 44.7476 19.1858 49.2378 19.0145C53.728 18.8433 58.1451 20.1891 61.777 22.8351C63.5625 24.136 63.9554 26.638 62.6546 28.4235C61.3537 30.209 58.8517 30.6019 57.0662 29.3011Z"
        fill="currentcolor" />
</svg>