<svg width="100" height="100" viewBox="0 0 100 100" fill="none" xmlns="http://www.w3.org/2000/svg">
    <path
        d="M6.52015 36.1932C7.43485 33.5685 8.61092 31.0751 10.0484 28.7129C11.4205 26.3507 13.0049 24.1526 14.8017 22.1185C16.5984 20.0843 18.6076 18.2471 20.8291 16.6067C22.9852 14.9662 25.3374 13.4899 27.8855 12.1776C30.3683 10.9308 32.9165 9.97945 35.53 9.32326C38.2089 8.60151 40.8878 8.17493 43.5666 8.04373C46.2454 7.91253 48.9569 8.07651 51.7011 8.53586C54.3799 8.92956 57.0261 9.58575 59.6396 10.5044C62.5798 11.5542 65.373 12.8993 68.0192 14.5398C70.6653 16.1802 73.0339 18.0503 75.1246 20.15L87.6695 31.9609V16.4098C87.6695 15.1631 88.0451 14.1461 88.7965 13.3587C89.5479 12.5713 90.5443 12.1776 91.7857 12.1776C93.0925 12.1776 94.1215 12.5713 94.8729 13.3587C95.6243 14.1461 96 15.1631 96 16.4098V41.6066C96 41.6066 96 41.6722 96 41.8034C96 41.9346 96 42.0003 96 42.0003C96 42.1971 96 42.394 96 42.5908C96 42.7877 96 42.8861 96 42.8861C96 43.0829 95.9347 43.2141 95.804 43.2798C95.6733 43.3454 95.608 43.4766 95.608 43.6735C95.608 43.6735 95.5916 43.7555 95.559 43.9195C95.5263 44.0836 95.3793 44.1656 95.1179 44.1656C94.9219 44.3624 94.7913 44.4773 94.7259 44.5101C94.6606 44.5429 94.5299 44.5593 94.3339 44.5593C94.3339 44.5593 94.2686 44.6249 94.1379 44.7561C94.0072 44.8873 93.9419 44.953 93.9419 44.953C93.9419 44.953 93.8602 44.953 93.6968 44.953C93.5335 44.953 93.4518 44.953 93.4518 44.953C93.4518 44.953 93.3212 44.953 93.0598 44.953C92.7985 44.953 92.6678 44.953 92.6678 44.953H67.5781C66.3367 44.953 65.324 44.5757 64.5399 43.8211C63.7559 43.0665 63.3639 42.033 63.3639 40.7207C63.3639 39.474 63.6089 38.6046 64.0989 38.1125C64.5889 37.6204 65.4546 37.3743 66.6961 37.3743H81.397L69.6363 26.0555C68.0028 24.415 66.0754 22.8894 63.8539 21.4787C61.6324 20.068 59.3782 18.9361 57.0915 18.0831C52.9098 16.6395 48.6139 16.0161 44.2036 16.213C39.7933 16.4098 35.5954 17.4597 31.6098 19.3626C27.6242 21.2654 24.1287 23.8573 21.1231 27.1381C18.1175 30.4189 15.8961 34.2575 14.4587 38.6538C13.0212 42.8533 12.4005 47.184 12.5965 51.6459C12.7926 56.1078 13.838 60.3072 15.7328 64.2442C17.6275 68.2469 20.2084 71.7573 23.4753 74.7757C26.7421 77.7941 30.5644 80.025 34.942 81.4686C39.3197 83.0434 43.73 83.6995 48.1729 83.4371C52.5505 83.109 56.6668 82.0263 60.5217 80.189C64.3766 78.3517 67.7742 75.7927 70.7143 72.5119C73.7199 69.1655 76.0067 65.2941 77.5748 60.8978C78.0322 59.8479 78.7999 59.0605 79.8779 58.5356C80.956 58.0107 82.0177 57.9778 83.0632 58.4372C84.1086 58.8309 84.8926 59.5691 85.4153 60.6517C85.938 61.7344 85.9707 62.8006 85.5133 63.8505C83.9452 68.1812 81.8217 72.0854 79.1429 75.5631C76.3987 78.9752 73.2789 81.9115 69.7833 84.3721C66.2877 86.8327 62.4818 88.7192 58.3655 90.0315C54.3146 91.3438 50.133 92 45.8207 92C43.5339 92 41.2308 91.7867 38.9113 91.3602C36.5918 90.9338 34.2886 90.294 32.0018 89.441C26.5788 87.6037 21.8418 84.815 17.7909 81.0749C13.6746 77.2691 10.4568 72.9548 8.13726 68.132C5.81774 63.3092 4.46202 58.1419 4.06999 52.6301C3.74334 47.1183 4.56002 41.6393 6.52015 36.1932Z"
        fill="currentcolor" />
</svg>