<svg width="100" height="100" viewBox="0 0 100 100" fill="none" xmlns="http://www.w3.org/2000/svg">
    <path fill-rule="evenodd" clip-rule="evenodd"
        d="M56.2136 1.73801C57.0512 0.900377 57.9921 0.5 59.0549 0.5C60.1177 0.5 61.0586 0.900377 61.8962 1.73801L61.8973 1.73904L80.1078 19.8431C80.945 20.6806 81.3451 21.6211 81.3451 22.6837C81.3451 23.7466 80.9444 24.6878 80.1067 25.5254L30.174 75.5646C29.7127 75.9579 29.2632 76.2434 28.826 76.4307C28.4015 76.6127 27.9024 76.7098 27.319 76.7098H9.10815C7.86816 76.7098 6.89815 76.3385 6.15272 75.6241C5.41356 74.9157 5.02881 73.971 5.02881 72.737V54.5261C5.02881 53.8708 5.14396 53.3733 5.34177 53.006C5.5674 52.587 5.87836 52.1419 6.28055 51.671L56.2136 1.73801ZM71.5827 22.6833L59.0545 10.1551L13.1875 56.1298V68.6576H25.716L71.5827 22.6833ZM6.16032 92.4728C6.90694 91.7262 7.87444 91.3413 9.10815 91.3413H90.8973C92.131 91.3413 93.0985 91.7262 93.8451 92.4728C94.5917 93.2195 94.9766 94.187 94.9766 95.4207C94.9766 96.6544 94.5917 97.6219 93.8451 98.3685C93.0985 99.1151 92.131 99.5 90.8973 99.5H9.10815C7.87444 99.5 6.90694 99.1151 6.16032 98.3685C5.4137 97.6219 5.02881 96.6544 5.02881 95.4207C5.02881 94.187 5.4137 93.2195 6.16032 92.4728Z"
        fill="currentcolor" />
</svg>