<svg width="100" height="100" viewBox="0 0 100 100" fill="none" xmlns="http://www.w3.org/2000/svg">
    <path
        d="M14.0281 49.9625C15.2147 49.9625 16.1827 49.6035 16.9321 48.8852C17.6815 48.167 18.0562 47.2147 18.0562 46.0281V37.9719C18.0562 34.5995 19.196 31.758 21.4754 29.4473C23.7548 27.1366 26.612 25.9813 30.0468 25.9813H76.4169L67.1429 35.1616C66.3934 35.9735 66.0187 36.9103 66.0187 37.9719C66.0187 39.0335 66.3934 39.9703 67.1429 40.7822C67.58 41.2194 68.0171 41.5316 68.4543 41.719C68.8915 41.9063 69.3911 42 69.9532 42C70.5777 42 71.1085 41.9063 71.5457 41.719C71.9829 41.5316 72.3888 41.2194 72.7635 40.7822L88.7822 24.8571C88.9696 24.6073 89.1413 24.3888 89.2974 24.2014C89.4536 24.0141 89.5316 23.8267 89.5316 23.6393C89.7815 23.2022 89.9063 22.7026 89.9063 22.1405C89.9063 21.5785 89.7815 21.0164 89.5316 20.4543C89.3443 20.2045 89.2194 19.9859 89.1569 19.7986C89.0944 19.6112 88.9696 19.4239 88.7822 19.2365L72.7635 3.2178C71.9516 2.40594 71.0148 2.00001 69.9532 2C68.8915 2.00001 67.9548 2.40594 67.1429 3.2178C66.3934 4.02967 66.0187 4.96644 66.0187 6.0281C66.0187 7.08978 66.3934 8.02655 67.1429 8.83841L76.4169 18.0187H30.0468C27.2365 18.0187 24.6136 18.5496 22.178 19.6112C19.7424 20.6105 17.619 22.0156 15.808 23.8267C13.9969 25.6378 12.5918 27.7611 11.5925 30.1967C10.5308 32.6323 10 35.2241 10 37.9719V46.0281C10 47.2147 10.3747 48.167 11.1241 48.8852C11.8735 49.6035 12.8415 49.9625 14.0281 49.9625ZM85.9719 49.9625C84.7853 49.9625 83.8173 50.3372 83.0679 51.0866C82.3185 51.8361 81.9438 52.804 81.9438 53.9906V61.9532C81.9438 65.388 80.804 68.2452 78.5246 70.5246C76.2452 72.804 73.388 73.9438 69.9532 73.9438H23.5831L32.8571 64.7635C33.6066 63.9516 33.9813 63.0148 33.9813 61.9532C33.9813 60.8915 33.6066 59.9548 32.8571 59.1429C32.0452 58.3934 31.1085 58.0187 30.0468 58.0187C28.9852 58.0187 28.0484 58.3934 27.2365 59.1429L11.2178 75.1616C11.0304 75.3489 10.8587 75.5519 10.7026 75.7705C10.5464 75.989 10.4684 76.192 10.4684 76.3794C10.2186 76.7541 10.0937 77.2225 10.0937 77.7845C10.0937 78.3466 10.2186 78.9399 10.4684 79.5644C10.6557 79.7518 10.7806 79.9548 10.8431 80.1733C10.9055 80.3918 11.0304 80.5948 11.2178 80.7822L27.2365 96.8009C27.6112 97.1756 28.0171 97.4567 28.4543 97.644C28.8915 97.8314 29.4223 97.9251 30.0468 97.9251C30.6089 97.9251 31.1085 97.8314 31.5457 97.644C31.9829 97.4567 32.42 97.1756 32.8571 96.8009C33.6066 95.9888 33.9813 95.052 33.9813 93.9906C33.9813 92.929 33.6066 91.9922 32.8571 91.1803L23.5831 82H69.9532C72.7635 82 75.3864 81.4691 77.822 80.4075C80.2576 79.4082 82.381 78.0031 84.192 76.192C86.0031 74.381 87.4082 72.2576 88.4075 69.822C89.4691 67.3864 90 64.7635 90 61.9532V53.9906C90 52.804 89.6253 51.8361 88.8759 51.0866C88.1265 50.3372 87.1585 49.9625 85.9719 49.9625Z"
        fill="currentcolor" />
</svg>