<svg width="100" height="100" viewBox="0 0 100 100" fill="none" xmlns="http://www.w3.org/2000/svg">
    <path
        d="M82.7186 9.07782H17.2815C13.7633 9.07782 10.8369 10.2452 8.50213 12.58C6.16738 14.9147 5 17.8411 5 21.3593V62.2335C5 65.7516 6.16738 68.6781 8.50213 71.0128C10.8369 73.3475 13.7633 74.5149 17.2815 74.5149H45.8742V82.7665H33.5928C32.3774 82.7665 31.402 83.1343 30.6663 83.8699C29.9307 84.6056 29.5629 85.581 29.5629 86.7964C29.5629 88.0757 29.9307 89.0831 30.6663 89.8188C31.402 90.5544 32.3774 90.9222 33.5928 90.9222H66.4073C67.6226 90.9222 68.5981 90.5544 69.3337 89.8188C70.0693 89.0831 70.4371 88.0757 70.4371 86.7964C70.4371 85.581 70.0693 84.6056 69.3337 83.8699C68.5981 83.1343 67.6226 82.7665 66.4073 82.7665H54.1258V74.5149H82.7186C86.2367 74.5149 89.1631 73.3475 91.4979 71.0128C93.8326 68.6781 95 65.7516 95 62.2335V21.3593C95 17.8411 93.8326 14.9147 91.4979 12.58C89.1631 10.2452 86.2367 9.07782 82.7186 9.07782ZM86.8444 62.2335C86.8444 63.5128 86.4766 64.5202 85.7409 65.2559C85.0053 65.9915 83.9978 66.3593 82.7186 66.3593H17.2815C16.0022 66.3593 14.9947 65.9915 14.2591 65.2559C13.5234 64.5202 13.1557 63.5128 13.1557 62.2335V21.3593C13.1557 20.08 13.5234 19.0725 14.2591 18.3369C14.9947 17.6012 16.0022 17.2335 17.2815 17.2335H82.7186C83.9978 17.2335 85.0053 17.6012 85.7409 18.3369C86.4766 19.0725 86.8444 20.08 86.8444 21.3593V62.2335Z"
        fill="currentcolor" />
</svg>