<svg width="100" height="100" viewBox="0 0 100 100" fill="none" xmlns="http://www.w3.org/2000/svg">
    <path fill-rule="evenodd" clip-rule="evenodd"
        d="M45 12C26.7746 12 12 26.7746 12 45C12 46.5161 12.102 48.0063 12.299 49.4645C12.5947 51.6538 11.0597 53.6683 8.87045 53.964C6.6812 54.2597 4.66671 52.7247 4.37097 50.5355C4.12617 48.7233 4 46.8753 4 45C4 22.3563 22.3563 4 45 4C67.6437 4 86 22.3563 86 45C86 54.8836 82.5033 63.9474 76.682 71.0251L94.8284 89.1716C96.3905 90.7337 96.3905 93.2663 94.8284 94.8284C93.2663 96.3905 90.7337 96.3905 89.1716 94.8284L71.0249 76.6818C67.5772 79.517 63.6589 81.8002 59.4056 83.3966C57.3373 84.1729 55.0314 83.1256 54.2551 81.0573C53.4788 78.9891 54.5261 76.6831 56.5944 75.9068C69.1063 71.2107 78 59.1389 78 45C78 26.7746 63.2254 12 45 12ZM26.8284 56.1716C25.2663 54.6095 22.7337 54.6095 21.1716 56.1716C19.6095 57.7337 19.6095 60.2663 21.1716 61.8284L30.3431 71H8C5.79086 71 4 72.7909 4 75C4 77.2091 5.79086 79 8 79H30.3431L21.1716 88.1716C19.6095 89.7337 19.6095 92.2663 21.1716 93.8284C22.7337 95.3905 25.2663 95.3905 26.8284 93.8284L42.8248 77.832L42.8557 77.8009L42.8598 77.7967C43.5612 77.0795 43.9951 76.0996 44 75.0184L44 75C44 74.9661 43.9996 74.9323 43.9987 74.8986C43.9862 74.3932 43.8798 73.911 43.6965 73.4689C43.5013 72.9971 43.2119 72.5551 42.8284 72.1716L26.8284 56.1716Z"
        fill="currentcolor" />
</svg>