<svg width="100" height="100" viewBox="0 0 100 100" fill="none" xmlns="http://www.w3.org/2000/svg">
    <path fill-rule="evenodd" clip-rule="evenodd"
        d="M34.0094 10H22.0047C18.6284 10 15.7835 11.1411 13.4701 13.4232C11.1567 15.7053 10 18.5658 10 22.0047V34.0094C10 35.1974 10.3751 36.1508 11.1254 36.8699C11.8757 37.5889 12.8448 37.9484 14.0328 37.9484C15.2208 37.9484 16.1899 37.5889 16.9402 36.8699C17.6905 36.1508 18.0657 35.1974 18.0657 34.0094V22.0047C18.0657 20.7542 18.4251 19.7695 19.1442 19.0504C19.8633 18.3313 20.8167 17.9719 22.0047 17.9719H34.0094C35.2598 17.9719 36.2446 17.6124 36.9637 16.8933C37.6827 16.1743 38.0422 15.1895 38.0422 13.939C38.0422 12.751 37.6827 11.7976 36.9637 11.0785C36.2446 10.3595 35.2598 10 34.0094 10ZM34.0094 82.0281H22.0047C20.8167 82.0281 19.8633 81.653 19.1442 80.9027C18.4251 80.1524 18.0657 79.1833 18.0657 77.9953V65.9906C18.0657 64.8026 17.6905 63.8335 16.9402 63.0832C16.1899 62.3329 15.2208 61.9578 14.0328 61.9578C12.8448 61.9578 11.8757 62.3329 11.1254 63.0832C10.3751 63.8335 10 64.8026 10 65.9906V77.9953C10 81.3716 11.1567 84.2165 13.4701 86.5299C15.7835 88.8433 18.6284 90 22.0047 90H34.0094C35.2598 90 36.2446 89.6405 36.9637 88.9215C37.6827 88.2024 38.0422 87.2176 38.0422 85.9672C38.0422 84.7792 37.6827 83.8257 36.9637 83.1067C36.2446 82.3876 35.2598 82.0281 34.0094 82.0281ZM86.061 61.9578C84.873 61.9578 83.9039 62.3329 83.1536 63.0832C82.4033 63.8335 82.0281 64.8026 82.0281 65.9906V77.9953C82.0281 79.1833 81.6687 80.1524 80.9496 80.9027C80.2305 81.653 79.2771 82.0281 78.0891 82.0281H66.0844C64.834 82.0281 63.8492 82.3876 63.1301 83.1067C62.4111 83.8257 62.0516 84.7792 62.0516 85.9672C62.0516 87.2176 62.4111 88.2024 63.1301 88.9215C63.8492 89.6405 64.834 90 66.0844 90H78.0891C81.4654 90 84.3102 88.8433 86.6237 86.5299C88.9371 84.2165 90.0938 81.3716 90.0938 77.9953V65.9906C90.0938 64.8026 89.7186 63.8335 88.9683 63.0832C88.2181 62.3329 87.249 61.9578 86.061 61.9578ZM78.0891 10H66.0844C64.834 10 63.8492 10.3595 63.1301 11.0785C62.4111 11.7976 62.0516 12.751 62.0516 13.939C62.0516 15.1895 62.4111 16.1743 63.1301 16.8933C63.8492 17.6124 64.834 17.9719 66.0844 17.9719H78.0891C79.2771 17.9719 80.2305 18.3313 80.9496 19.0504C81.6687 19.7695 82.0281 20.7542 82.0281 22.0047V34.0094C82.0281 35.1974 82.4033 36.1508 83.1536 36.8699C83.9039 37.5889 84.873 37.9484 86.061 37.9484C87.249 37.9484 88.2181 37.5889 88.9683 36.8699C89.7186 36.1508 90.0938 35.1974 90.0938 34.0094V22.0047C90.0938 18.5658 88.9371 15.7053 86.6237 13.4232C84.3102 11.1411 81.4654 10 78.0891 10ZM54.2073 24.6008C56.0846 23.4364 58.5505 24.0142 59.7149 25.8915L68.3992 39.8915C69.1644 41.1251 69.2012 42.6765 68.4953 43.945C67.7894 45.2135 66.4517 46 65 46H35C32.7909 46 31 44.2091 31 42C31 39.7909 32.7909 38 35 38H57.8117L52.9166 30.1085C51.7521 28.2312 52.33 25.7653 54.2073 24.6008ZM40.2851 74.1085C41.4495 75.9858 43.9154 76.5636 45.7927 75.3992C47.67 74.2347 48.2479 71.7688 47.0834 69.8915L42.1883 62H65C67.2091 62 69 60.2091 69 58C69 55.7909 67.2091 54 65 54H35C33.5483 54 32.2106 54.7865 31.5047 56.055C30.7988 57.3235 30.8356 58.8749 31.6008 60.1085L40.2851 74.1085Z"
        fill="currentcolor" />
</svg>