<svg width="100" height="100" viewBox="0 0 100 100" fill="none" xmlns="http://www.w3.org/2000/svg">
    <path fill-rule="evenodd" clip-rule="evenodd"
        d="M22.0047 10H34.0094C35.2598 10 36.2446 10.3595 36.9637 11.0785C37.6827 11.7976 38.0422 12.751 38.0422 13.939C38.0422 15.1895 37.6827 16.1743 36.9637 16.8933C36.2446 17.6124 35.2598 17.9719 34.0094 17.9719H22.0047C20.8167 17.9719 19.8633 18.3313 19.1442 19.0504C18.4251 19.7695 18.0657 20.7542 18.0657 22.0047V34.0094C18.0657 35.1974 17.6905 36.1508 16.9402 36.8699C16.1899 37.5889 15.2208 37.9484 14.0328 37.9484C12.8448 37.9484 11.8757 37.5889 11.1254 36.8699C10.3751 36.1508 10 35.1974 10 34.0094V22.0047C10 18.5658 11.1567 15.7053 13.4701 13.4232C15.7835 11.1411 18.6284 10 22.0047 10ZM22.0047 82.0281H34.0094C35.2598 82.0281 36.2446 82.3876 36.9637 83.1067C37.6827 83.8257 38.0422 84.7792 38.0422 85.9672C38.0422 87.2176 37.6827 88.2024 36.9637 88.9215C36.2446 89.6405 35.2598 90 34.0094 90H22.0047C18.6284 90 15.7835 88.8433 13.4701 86.5299C11.1567 84.2165 10 81.3716 10 77.9953V65.9906C10 64.8026 10.3751 63.8335 11.1254 63.0832C11.8757 62.3329 12.8448 61.9578 14.0328 61.9578C15.2208 61.9578 16.1899 62.3329 16.9402 63.0832C17.6905 63.8335 18.0657 64.8026 18.0657 65.9906V77.9953C18.0657 79.1833 18.4251 80.1524 19.1442 80.9027C19.8633 81.653 20.8167 82.0281 22.0047 82.0281ZM83.1536 63.0832C83.9039 62.3329 84.873 61.9578 86.061 61.9578C87.249 61.9578 88.2181 62.3329 88.9683 63.0832C89.7186 63.8335 90.0938 64.8026 90.0938 65.9906V77.9953C90.0938 81.3716 88.9371 84.2165 86.6237 86.5299C84.3102 88.8433 81.4654 90 78.0891 90H66.0844C64.834 90 63.8492 89.6405 63.1301 88.9215C62.4111 88.2024 62.0516 87.2176 62.0516 85.9672C62.0516 84.7792 62.4111 83.8257 63.1301 83.1067C63.8492 82.3876 64.834 82.0281 66.0844 82.0281H78.0891C79.2771 82.0281 80.2305 81.653 80.9496 80.9027C81.6687 80.1524 82.0281 79.1833 82.0281 77.9953V65.9906C82.0281 64.8026 82.4033 63.8335 83.1536 63.0832ZM92.875 15.1583C92.0625 14.3454 91.125 13.939 90.0625 13.939C89 13.939 88.0625 14.3454 87.25 15.1583L50.0312 52.3915L40.8438 43.2005C40.0312 42.3876 39.0937 41.9812 38.0312 41.9812C36.9688 41.9812 36.0313 42.3876 35.2188 43.2005C34.4062 44.0133 34 44.9512 34 46.0141C34 47.0769 34.4062 48.0148 35.2188 48.8277L47.2188 60.8323C47.6563 61.2075 48.1406 61.4889 48.6719 61.6764C49.2032 61.864 49.6562 61.9578 50.0312 61.9578C50.4062 61.9578 50.8593 61.864 51.3906 61.6764C51.9219 61.4889 52.4062 61.2075 52.8438 60.8323L92.875 20.7854C93.625 19.9726 94 19.0347 94 17.9719C94 16.909 93.625 15.9711 92.875 15.1583Z"
        fill="currentcolor" />
</svg>