<svg width="100" height="100" viewBox="0 0 100 100" fill="none" xmlns="http://www.w3.org/2000/svg">
    <path fill-rule="evenodd" clip-rule="evenodd"
        d="M22.0047 10H34.0094C35.2598 10 36.2446 10.3595 36.9637 11.0785C37.6827 11.7976 38.0422 12.751 38.0422 13.939C38.0422 15.1895 37.6827 16.1743 36.9637 16.8933C36.2446 17.6124 35.2598 17.9719 34.0094 17.9719H22.0047C20.8167 17.9719 19.8633 18.3313 19.1442 19.0504C18.4251 19.7695 18.0657 20.7542 18.0657 22.0047V34.0094C18.0657 35.1974 17.6905 36.1508 16.9402 36.8699C16.1899 37.5889 15.2208 37.9484 14.0328 37.9484C12.8448 37.9484 11.8757 37.5889 11.1254 36.8699C10.3751 36.1508 10 35.1974 10 34.0094V22.0047C10 18.5658 11.1567 15.7053 13.4701 13.4232C15.7835 11.1411 18.6284 10 22.0047 10ZM22.0047 82.0281H34.0094C35.2598 82.0281 36.2446 82.3876 36.9637 83.1067C37.6827 83.8257 38.0422 84.7792 38.0422 85.9672C38.0422 87.2176 37.6827 88.2024 36.9637 88.9215C36.2446 89.6405 35.2598 90 34.0094 90H22.0047C18.6284 90 15.7835 88.8433 13.4701 86.5299C11.1567 84.2165 10 81.3716 10 77.9953V65.9906C10 64.8026 10.3751 63.8335 11.1254 63.0832C11.8757 62.3329 12.8448 61.9578 14.0328 61.9578C15.2208 61.9578 16.1899 62.3329 16.9402 63.0832C17.6905 63.8335 18.0657 64.8026 18.0657 65.9906V77.9953C18.0657 79.1833 18.4251 80.1524 19.1442 80.9027C19.8633 81.653 20.8167 82.0281 22.0047 82.0281ZM83.1536 63.0832C83.9039 62.3329 84.873 61.9578 86.061 61.9578C87.249 61.9578 88.2181 62.3329 88.9683 63.0832C89.7186 63.8335 90.0938 64.8026 90.0938 65.9906V77.9953C90.0938 81.3716 88.9371 84.2165 86.6237 86.5299C84.3102 88.8433 81.4654 90 78.0891 90H66.0844C64.834 90 63.8492 89.6405 63.1301 88.9215C62.4111 88.2024 62.0516 87.2176 62.0516 85.9672C62.0516 84.7792 62.4111 83.8257 63.1301 83.1067C63.8492 82.3876 64.834 82.0281 66.0844 82.0281H78.0891C79.2771 82.0281 80.2305 81.653 80.9496 80.9027C81.6686 80.1524 82.0281 79.1833 82.0281 77.9953V65.9906C82.0281 64.8026 82.4033 63.8335 83.1536 63.0832ZM66.0844 10H78.0891C81.4654 10 84.3102 11.1411 86.6237 13.4232C88.9371 15.7053 90.0938 18.5658 90.0938 22.0047V34.0094C90.0938 35.1974 89.7186 36.1508 88.9683 36.8699C88.2181 37.5889 87.249 37.9484 86.061 37.9484C84.873 37.9484 83.9039 37.5889 83.1536 36.8699C82.4033 36.1508 82.0281 35.1974 82.0281 34.0094V22.0047C82.0281 20.7542 81.6686 19.7695 80.9496 19.0504C80.2305 18.3313 79.2771 17.9719 78.0891 17.9719H66.0844C64.834 17.9719 63.8492 17.6124 63.1301 16.8933C62.4111 16.1743 62.0516 15.1895 62.0516 13.939C62.0516 12.751 62.4111 11.7976 63.1301 11.0785C63.8492 10.3595 64.834 10 66.0844 10ZM64.8009 35.1348C63.989 34.3845 63.0523 34.0094 61.9906 34.0094C60.929 34.0094 59.9922 34.3845 59.1803 35.1348L50 44.4197L40.8197 35.1348C40.0078 34.3845 39.071 34.0094 38.0094 34.0094C36.9477 34.0094 36.011 34.3845 35.1991 35.1348C34.3872 35.9477 33.9813 36.8856 33.9813 37.9484C33.9813 39.0113 34.3872 39.9492 35.1991 40.762L44.3794 49.9531L35.1991 59.1442C34.3872 59.9571 33.9813 60.8949 33.9813 61.9578C33.9813 63.0207 34.3872 63.9586 35.1991 64.7714C35.6362 65.2091 36.0578 65.5217 36.4637 65.7093C36.8696 65.8969 37.3848 65.9906 38.0094 65.9906C38.6339 65.9906 39.1491 65.8969 39.555 65.7093C39.9609 65.5217 40.3825 65.2091 40.8197 64.7714L50 55.5803L59.1803 64.7714C59.6175 65.2091 60.1014 65.5217 60.6323 65.7093C61.1632 65.8969 61.6159 65.9906 61.9906 65.9906C62.3653 65.9906 62.8181 65.8969 63.3489 65.7093C63.8798 65.5217 64.3637 65.2091 64.8009 64.7714C65.6128 63.9586 66.0187 63.0207 66.0187 61.9578C66.0187 60.8949 65.6128 59.9571 64.8009 59.1442L55.6206 49.9531L64.8009 40.762C65.6128 39.9492 66.0187 39.0113 66.0187 37.9484C66.0187 36.8856 65.6128 35.9477 64.8009 35.1348Z"
        fill="currentcolor" />
    <path
        d="M34.0094 10H22.0047C18.6284 10 15.7835 11.1411 13.4701 13.4232C11.1567 15.7053 10 18.5658 10 22.0047V34.0094C10 35.1974 10.3751 36.1508 11.1254 36.8699C11.8757 37.5889 12.8448 37.9484 14.0328 37.9484C15.2208 37.9484 16.1899 37.5889 16.9402 36.8699C17.6905 36.1508 18.0657 35.1974 18.0657 34.0094V22.0047C18.0657 20.7542 18.4251 19.7695 19.1442 19.0504C19.8633 18.3313 20.8167 17.9719 22.0047 17.9719H34.0094C35.2598 17.9719 36.2446 17.6124 36.9637 16.8933C37.6827 16.1743 38.0422 15.1895 38.0422 13.939C38.0422 12.751 37.6827 11.7976 36.9637 11.0785C36.2446 10.3595 35.2598 10 34.0094 10ZM34.0094 82.0281H22.0047C20.8167 82.0281 19.8633 81.653 19.1442 80.9027C18.4251 80.1524 18.0657 79.1833 18.0657 77.9953V65.9906C18.0657 64.8026 17.6905 63.8335 16.9402 63.0832C16.1899 62.3329 15.2208 61.9578 14.0328 61.9578C12.8448 61.9578 11.8757 62.3329 11.1254 63.0832C10.3751 63.8335 10 64.8026 10 65.9906V77.9953C10 81.3716 11.1567 84.2165 13.4701 86.5299C15.7835 88.8433 18.6284 90 22.0047 90H34.0094C35.2598 90 36.2446 89.6405 36.9637 88.9215C37.6827 88.2024 38.0422 87.2176 38.0422 85.9672C38.0422 84.7792 37.6827 83.8257 36.9637 83.1067C36.2446 82.3876 35.2598 82.0281 34.0094 82.0281ZM86.061 61.9578C84.873 61.9578 83.9039 62.3329 83.1536 63.0832C82.4033 63.8335 82.0281 64.8026 82.0281 65.9906V77.9953C82.0281 79.1833 81.6687 80.1524 80.9496 80.9027C80.2305 81.653 79.2771 82.0281 78.0891 82.0281H66.0844C64.834 82.0281 63.8492 82.3876 63.1301 83.1067C62.4111 83.8257 62.0516 84.7792 62.0516 85.9672C62.0516 87.2176 62.4111 88.2024 63.1301 88.9215C63.8492 89.6405 64.834 90 66.0844 90H78.0891C81.4654 90 84.3102 88.8433 86.6237 86.5299C88.9371 84.2165 90.0938 81.3716 90.0938 77.9953V65.9906C90.0938 64.8026 89.7186 63.8335 88.9683 63.0832C88.2181 62.3329 87.249 61.9578 86.061 61.9578ZM78.0891 10H66.0844C64.834 10 63.8492 10.3595 63.1301 11.0785C62.4111 11.7976 62.0516 12.751 62.0516 13.939C62.0516 15.1895 62.4111 16.1743 63.1301 16.8933C63.8492 17.6124 64.834 17.9719 66.0844 17.9719H78.0891C79.2771 17.9719 80.2305 18.3313 80.9496 19.0504C81.6687 19.7695 82.0281 20.7542 82.0281 22.0047V34.0094C82.0281 35.1974 82.4033 36.1508 83.1536 36.8699C83.9039 37.5889 84.873 37.9484 86.061 37.9484C87.249 37.9484 88.2181 37.5889 88.9683 36.8699C89.7186 36.1508 90.0938 35.1974 90.0938 34.0094V22.0047C90.0938 18.5658 88.9371 15.7053 86.6237 13.4232C84.3102 11.1411 81.4654 10 78.0891 10Z"
        fill="currentcolor" />
</svg>