<svg width="100" height="100" viewBox="0 0 100 100" fill="none" xmlns="http://www.w3.org/2000/svg">
    <path fill-rule="evenodd" clip-rule="evenodd"
        d="M20 10C17.7909 10 16 11.7909 16 14V30C16 32.2091 17.7909 34 20 34H80C82.2091 34 84 32.2091 84 30V14C84 11.7909 82.2091 10 80 10H20ZM24 26V18H76V26H24ZM0 50C0 47.7909 1.79086 46 4 46H96C98.2091 46 100 47.7909 100 50C100 52.2091 98.2091 54 96 54H4C1.79086 54 0 52.2091 0 50ZM16 70C16 67.7909 17.7909 66 20 66H80C82.2091 66 84 67.7909 84 70V86C84 88.2091 82.2091 90 80 90H20C17.7909 90 16 88.2091 16 86V70ZM24 74V82H76V74H24Z"
        fill="currentcolor" />
</svg>