<svg width="100" height="100" viewBox="0 0 100 100" fill="none" xmlns="http://www.w3.org/2000/svg">
    <path
        d="M50 34.3945C45.7161 34.3945 42.029 35.9245 38.9385 38.9844C35.848 42.0442 34.3027 45.7161 34.3027 50C34.3027 54.345 35.848 58.0476 38.9385 61.1074C42.029 64.1673 45.7161 65.6973 50 65.6973C54.2839 65.6973 57.971 64.1673 61.0615 61.1074C64.152 58.0476 65.6973 54.345 65.6973 50C65.6973 45.7161 64.152 42.0442 61.0615 38.9844C57.971 35.9245 54.2839 34.3945 50 34.3945ZM50 57.8945C47.8581 57.8945 46.0222 57.1296 44.4922 55.5996C42.9622 54.0696 42.1973 52.2031 42.1973 50C42.1973 47.8581 42.9622 46.0222 44.4922 44.4922C46.0222 42.9622 47.8581 42.1973 50 42.1973C52.1419 42.1973 53.9778 42.9622 55.5078 44.4922C57.0378 46.0222 57.8027 47.8581 57.8027 50C57.8027 52.2031 57.0378 54.0696 55.5078 55.5996C53.9778 57.1296 52.1419 57.8945 50 57.8945ZM82.4961 63.3105C82.6797 62.9434 82.9856 62.5915 83.4141 62.2549C83.8425 61.9183 84.4544 61.75 85.25 61.75C88.5547 61.75 91.3392 60.6331 93.6035 58.3994C95.8681 56.1657 97 53.3659 97 50C97 46.6953 95.8681 43.9108 93.6035 41.6465C91.3392 39.3821 88.5547 38.25 85.25 38.25H84.4238C84.0566 38.25 83.6895 38.1582 83.3223 37.9746C82.9551 37.791 82.6797 37.5156 82.4961 37.1484C82.4961 36.9036 82.4808 36.7507 82.4502 36.6895C82.4196 36.6282 82.3125 36.5059 82.1289 36.3223C81.9453 35.9551 81.8841 35.4808 81.9453 34.8994C82.0065 34.3181 82.3125 33.752 82.8633 33.2012C85.25 30.8145 86.4434 28.0146 86.4434 24.8018C86.4434 21.5889 85.25 18.9114 82.8633 16.7695C81.7005 15.5456 80.4307 14.6429 79.0537 14.0615C77.6768 13.4802 76.2233 13.1895 74.6934 13.1895C73.1022 13.1895 71.5569 13.4802 70.0576 14.0615C68.5583 14.6429 67.2272 15.5456 66.0645 16.7695C65.6973 17.1367 65.2383 17.3356 64.6875 17.3662C64.1367 17.3968 63.6777 17.3203 63.3105 17.1367C62.9434 17.1367 62.5915 16.8919 62.2549 16.4023C61.9183 15.9128 61.75 15.362 61.75 14.75C61.75 11.4453 60.6179 8.66081 58.3535 6.39648C56.0892 4.13217 53.3047 3.00001 50 3C46.6953 3.00001 43.9108 4.13217 41.6465 6.39648C39.3821 8.66081 38.25 11.4453 38.25 14.75V15.5762C38.25 15.9434 38.1582 16.3105 37.9746 16.6777C37.791 17.0449 37.4851 17.3203 37.0566 17.5039C36.873 17.5039 36.7507 17.5192 36.6895 17.5498C36.6282 17.5804 36.5059 17.6875 36.3223 17.8711C35.8938 18.1159 35.4043 18.1465 34.8535 17.9629C34.3027 17.7793 33.752 17.5039 33.2012 17.1367C30.8145 14.8112 28.0146 13.6484 24.8018 13.6484C21.5889 13.6484 18.8809 14.8112 16.6777 17.1367C14.3522 19.4622 13.2048 22.262 13.2354 25.5361C13.2659 28.8103 14.5664 31.6101 17.1367 33.9355C17.5039 34.364 17.7028 34.8535 17.7334 35.4043C17.764 35.9551 17.6875 36.5364 17.5039 37.1484C17.3203 37.5156 16.9685 37.8675 16.4482 38.2041C15.928 38.5407 15.362 38.709 14.75 38.709C11.4453 38.709 8.66081 39.8259 6.39648 42.0596C4.13216 44.2933 3 47.0931 3 50.459C3 53.7637 4.13216 56.5481 6.39648 58.8125C8.66081 61.0769 11.4453 62.209 14.75 62.209H15.5762C16.127 62.209 16.6013 62.362 16.999 62.668C17.3968 62.9739 17.6875 63.3411 17.8711 63.7695C18.0547 64.1367 18.1159 64.5957 18.0547 65.1465C17.9935 65.6973 17.6875 66.2786 17.1367 66.8906C15.9128 68.0534 15.0101 69.3232 14.4287 70.7002C13.8474 72.0771 13.5566 73.5306 13.5566 75.0605C13.5566 76.6517 13.8474 78.1357 14.4287 79.5127C15.0101 80.8896 15.9128 82.1595 17.1367 83.3223C19.4622 85.6478 22.262 86.7952 25.5361 86.7646C28.8103 86.7341 31.6101 85.4642 33.9355 82.9551C34.3027 82.5267 34.777 82.2972 35.3584 82.2666C35.9397 82.236 36.5059 82.3125 37.0566 82.4961C37.6687 82.7409 38.0817 83.0774 38.2959 83.5059C38.5101 83.9343 38.6172 84.5156 38.6172 85.25C38.6172 88.6159 39.7493 91.4157 42.0137 93.6494C44.278 95.8828 47.0625 97 50.3672 97C53.7331 97 56.5329 95.8828 58.7666 93.6494C61.0003 91.4157 62.1172 88.6159 62.1172 85.25V84.5156C62.1172 83.9036 62.2855 83.3987 62.6221 83.001C62.9587 82.6032 63.3105 82.3125 63.6777 82.1289C64.1062 81.9453 64.5957 81.8841 65.1465 81.9453C65.6973 82.0065 66.248 82.3431 66.7988 82.9551C69.1855 85.2806 71.9854 86.4434 75.1982 86.4434C78.4111 86.4434 81.1191 85.2806 83.3223 82.9551C85.6478 80.5684 86.7952 77.7532 86.7646 74.5098C86.7341 71.2663 85.4336 68.4512 82.8633 66.0645C82.6797 65.6973 82.5267 65.2536 82.4043 64.7334C82.2819 64.2132 82.3125 63.739 82.4961 63.3105ZM75.4277 60.1895C74.6934 62.1478 74.5098 64.152 74.877 66.2021C75.2441 68.2522 76.2233 70.1647 77.8145 71.9395C78.1816 72.3679 78.4724 72.7962 78.6865 73.2246C78.9007 73.653 79.0078 74.1426 79.0078 74.6934C79.0078 75.3054 78.9007 75.8255 78.6865 76.2539C78.4724 76.6823 78.1816 77.0801 77.8145 77.4473C77.4473 77.8145 77.0495 78.1052 76.6211 78.3193C76.1927 78.5335 75.6726 78.6406 75.0605 78.6406C74.4485 78.6406 73.9284 78.5183 73.5 78.2734C73.0716 78.0286 72.5515 77.6309 71.9395 77.0801C70.3483 75.489 68.543 74.5098 66.5234 74.1426C64.5039 73.7754 62.5149 74.0813 60.5566 75.0605C58.5983 75.8562 57.0684 77.1413 55.9668 78.916C54.8652 80.6907 54.3145 82.5573 54.3145 84.5156V85.25C54.3145 86.4739 53.9473 87.4378 53.2129 88.1416C52.4785 88.8454 51.53 89.1973 50.3672 89.1973C49.2044 89.1973 48.2712 88.8454 47.5674 88.1416C46.8636 87.4378 46.5117 86.4739 46.5117 85.25C46.5117 85.25 46.5117 85.1888 46.5117 85.0664C46.5117 84.944 46.5117 84.8828 46.5117 84.8828C46.5117 82.7409 45.8845 80.8284 44.6299 79.1455C43.3753 77.4626 41.7688 76.2539 39.8105 75.5195C39.1985 75.0911 38.5254 74.8464 37.791 74.7852C37.0566 74.7239 36.2917 74.6934 35.4961 74.6934C34.1497 74.6934 32.8187 74.9688 31.5029 75.5195C30.1872 76.0703 29.0397 76.8353 28.0605 77.8145C27.2649 78.6101 26.347 79.0078 25.3066 79.0078C24.2663 79.0078 23.3483 78.6101 22.5527 77.8145C22.1855 77.4473 21.9102 77.0495 21.7266 76.6211C21.543 76.1927 21.4512 75.6726 21.4512 75.0605C21.4512 74.5098 21.5583 74.0049 21.7725 73.5459C21.9866 73.0869 22.3997 72.5515 23.0117 71.9395C24.5417 70.4095 25.4902 68.6348 25.8574 66.6152C26.2246 64.5957 25.9187 62.6067 24.9395 60.6484C24.1438 58.6901 22.874 57.1448 21.1299 56.0127C19.3857 54.8806 17.5345 54.3145 15.5762 54.3145H14.75C13.5872 54.3145 12.6387 53.9626 11.9043 53.2588C11.1699 52.555 10.8027 51.6218 10.8027 50.459C10.8027 49.2351 11.1699 48.2712 11.9043 47.5674C12.6387 46.8636 13.5872 46.5117 14.75 46.5117C14.75 46.5117 14.8112 46.5117 14.9336 46.5117C15.056 46.5117 15.1172 46.5117 15.1172 46.5117C17.2591 46.5117 19.1716 45.8845 20.8545 44.6299C22.5374 43.3753 23.7767 41.7688 24.5723 39.8105C25.3066 37.8522 25.4902 35.848 25.123 33.7979C24.7559 31.7478 23.7767 29.8353 22.1855 28.0605C21.3899 27.3262 20.9922 26.4235 20.9922 25.3525C20.9922 24.2815 21.3899 23.3789 22.1855 22.6445C22.9812 21.8489 23.9144 21.4665 24.9854 21.4971C26.0563 21.5276 27.0813 22.0325 28.0605 23.0117C29.4069 24.3581 31.0593 25.2302 33.0176 25.6279C34.9759 26.0257 36.8425 25.9492 38.6172 25.3984C38.8008 25.3984 38.9997 25.3679 39.2139 25.3066C39.428 25.2454 39.627 25.123 39.8105 24.9395C41.7688 24.1438 43.2988 22.874 44.4004 21.1299C45.502 19.3857 46.0527 17.5345 46.0527 15.5762V14.75C46.0527 13.5872 46.4199 12.654 47.1543 11.9502C47.8887 11.2464 48.8372 10.8945 50 10.8945C51.1628 10.8945 52.1113 11.2617 52.8457 11.9961C53.5801 12.7305 53.9473 13.8015 53.9473 15.209C53.9473 17.3509 54.498 19.248 55.5996 20.9004C56.7012 22.5527 58.2312 23.7767 60.1895 24.5723C62.1478 25.3679 64.152 25.5667 66.2021 25.1689C68.2522 24.7712 70.1647 23.7767 71.9395 22.1855C72.3066 21.8184 72.7044 21.543 73.1328 21.3594C73.5612 21.1758 74.0813 21.084 74.6934 21.084C75.2441 21.084 75.7337 21.1758 76.1621 21.3594C76.5905 21.543 77.0188 21.8184 77.4473 22.1855C78.1816 22.9812 78.5335 23.9144 78.5029 24.9854C78.4724 26.0563 77.9675 27.0813 76.9883 28.0605C75.6419 29.4681 74.7698 31.1511 74.3721 33.1094C73.9743 35.0677 74.0813 36.9343 74.6934 38.709C74.6934 38.8926 74.7087 39.0762 74.7393 39.2598C74.7698 39.4434 74.877 39.627 75.0605 39.8105C75.8562 41.7688 77.126 43.3142 78.8701 44.4463C80.6143 45.5784 82.4655 46.1445 84.4238 46.1445H85.25C86.4128 46.1445 87.3613 46.4964 88.0957 47.2002C88.8301 47.904 89.1973 48.8372 89.1973 50C89.1973 51.2239 88.8147 52.1878 88.0498 52.8916C87.2849 53.5954 86.2292 53.9473 84.8828 53.9473C82.9245 53.9473 81.0579 54.498 79.2832 55.5996C77.5085 56.7012 76.2233 58.2312 75.4277 60.1895Z"
        fill="currentcolor" />
</svg>