<svg width="100" height="100" viewBox="0 0 100 100" fill="none" xmlns="http://www.w3.org/2000/svg">
    <path fill-rule="evenodd" clip-rule="evenodd"
        d="M11.1091 5.45227C9.54703 3.89018 7.01437 3.89018 5.45227 5.45227C3.89018 7.01437 3.89018 9.54703 5.45227 11.1091L21.6904 27.3473L21.9687 28.8125V29V29.1875L28.8125 62.375C29.375 65.1875 30.75 67.5 32.9375 69.3125C35.125 71.125 37.625 72.0312 40.4375 72.0312H40.4844H40.8125H66.3744L76.5175 82.1744C76.4592 82.2298 76.4013 82.2862 76.3438 82.3438C74.7812 83.9063 74 85.7813 74 87.9688C74 90.2188 74.7812 92.125 76.3438 93.6875C77.9063 95.25 79.7813 96.0312 81.9688 96.0312C84.2188 96.0312 86.125 95.25 87.6875 93.6875C87.745 93.63 87.8014 93.5721 87.8568 93.5136L88.8909 94.5477C90.453 96.1098 92.9856 96.1098 94.5477 94.5477C96.1098 92.9856 96.1098 90.453 94.5477 88.8909L11.1091 5.45227ZM58.3119 63.9688L31.9501 37.607L36.7812 60.7812C36.9687 61.7813 37.4375 62.5625 38.1875 63.125C38.9375 63.6875 39.8125 63.9688 40.8125 63.9688H58.3119ZM90.2104 66.036L90.1945 66.0276C89.4905 67.2277 88.1868 68.0334 86.6949 68.0334C84.4558 68.0334 82.6405 66.2182 82.6405 63.979C82.6405 63.3078 82.8037 62.6746 83.0925 62.117L83.0858 62.1107C83.3104 61.7217 83.4693 61.2785 83.5625 60.7812L89.1875 32H50.9847L50.9792 31.9948C50.9112 31.9983 50.8427 32 50.7739 32C48.5647 32 46.7739 30.2091 46.7739 28C46.7739 25.7909 48.5647 24 50.7739 24C50.944 24 51.1117 24.0106 51.2763 24.0312H93.9688C94.5938 24.0312 95.1875 24.1407 95.75 24.3594C96.3125 24.5781 96.7812 25 97.1562 25.625C97.5941 26 97.8434 26.4687 97.9062 27.0312C97.9691 27.5937 98 28.1875 98 28.8125L91.625 62.375C91.3289 63.7076 90.8573 64.9279 90.2104 66.036ZM43.625 93.6875C45.1875 92.125 45.9687 90.2188 45.9687 87.9688C45.9687 85.7813 45.1875 83.9063 43.625 82.3438C42.0625 80.7812 40.1875 80 38 80C35.8125 80 33.9375 80.7812 32.375 82.3438C30.8125 83.9063 30.0312 85.7813 30.0312 87.9688C30.0312 90.2188 30.8125 92.125 32.375 93.6875C33.9375 95.25 35.8125 96.0312 38 96.0312C40.1875 96.0312 42.0625 95.25 43.625 93.6875Z"
        fill="currentcolor" />
</svg>