<svg width="100" height="100" viewBox="0 0 100 100" fill="none" xmlns="http://www.w3.org/2000/svg">
    <path
        d="M45.9688 87.9688C45.9688 90.2188 45.1875 92.125 43.625 93.6875C42.0625 95.25 40.1875 96.0312 38 96.0312C35.8125 96.0312 33.9375 95.25 32.375 93.6875C30.8125 92.125 30.0312 90.2188 30.0312 87.9688C30.0312 85.7813 30.8125 83.9063 32.375 82.3438C33.9375 80.7812 35.8125 80 38 80C40.1875 80 42.0625 80.7812 43.625 82.3438C45.1875 83.9063 45.9688 85.7813 45.9688 87.9688ZM90.0312 87.9688C90.0312 90.2188 89.25 92.125 87.6875 93.6875C86.125 95.25 84.2188 96.0312 81.9688 96.0312C79.7813 96.0312 77.9063 95.25 76.3438 93.6875C74.7812 92.125 74 90.2188 74 87.9688C74 85.7813 74.7812 83.9063 76.3438 82.3438C77.9063 80.7812 79.7813 80 81.9688 80C84.2188 80 86.125 80.7812 87.6875 82.3438C89.25 83.9063 90.0312 85.7813 90.0312 87.9688ZM97.1562 25.625C96.7812 25 96.3125 24.5781 95.75 24.3594C95.1875 24.1407 94.5938 24.0312 93.9688 24.0312H29.1875L26 7.15625C25.8125 6.15626 25.3438 5.37501 24.5938 4.8125C23.8438 4.25001 22.9688 3.96876 21.9688 3.96875H6.03125C4.78125 3.96876 3.79688 4.34376 3.07812 5.09375C2.35937 5.84376 2 6.81251 2 8C2 9.1875 2.35937 10.1562 3.07812 10.9062C3.79688 11.6562 4.78125 12.0312 6.03125 12.0312H18.7812L21.9688 28.8125C21.9688 28.8125 21.9688 28.875 21.9688 29C21.9688 29.125 21.9688 29.1875 21.9688 29.1875L28.8125 62.375C29.375 65.1875 30.75 67.5 32.9375 69.3125C35.125 71.125 37.625 72.0312 40.4375 72.0312C40.4375 72.0312 40.4532 72.0312 40.4844 72.0312C40.5156 72.0312 40.625 72.0312 40.8125 72.0312H79.625C82.625 72.0312 85.2188 71.125 87.4062 69.3125C89.5937 67.5 91 65.1875 91.625 62.375L98 28.8125C98 28.1875 97.9691 27.5938 97.9062 27.0312C97.8434 26.4688 97.5941 26 97.1562 25.625ZM83.5625 60.7812C83.375 61.7813 82.9219 62.5625 82.2031 63.125C81.4843 63.6875 80.625 63.9688 79.625 63.9688H40.8125C39.8125 63.9688 38.9375 63.6875 38.1875 63.125C37.4375 62.5625 36.9688 61.7813 36.7812 60.7812L30.7812 32H89.1875L83.5625 60.7812Z"
        fill="currentcolor" />
</svg>