<svg width="100" height="100" viewBox="0 0 100 100" fill="none" xmlns="http://www.w3.org/2000/svg">
    <path fill-rule="evenodd" clip-rule="evenodd"
        d="M45.9688 87.9688C45.9688 90.2188 45.1875 92.125 43.625 93.6875C42.0625 95.25 40.1875 96.0312 38 96.0312C35.8125 96.0312 33.9375 95.25 32.375 93.6875C30.8125 92.125 30.0312 90.2188 30.0312 87.9688C30.0312 85.7813 30.8125 83.9063 32.375 82.3438C33.9375 80.7812 35.8125 80 38 80C40.1875 80 42.0625 80.7812 43.625 82.3438C45.1875 83.9063 45.9688 85.7813 45.9688 87.9688ZM90.0312 87.9688C90.0312 90.2188 89.25 92.125 87.6875 93.6875C86.125 95.25 84.2188 96.0312 81.9688 96.0312C79.7813 96.0312 77.9063 95.25 76.3438 93.6875C74.7812 92.125 74 90.2188 74 87.9688C74 85.7813 74.7812 83.9063 76.3438 82.3438C77.9063 80.7812 79.7813 80 81.9688 80C84.2188 80 86.125 80.7812 87.6875 82.3438C89.25 83.9063 90.0312 85.7813 90.0312 87.9688ZM97.1562 25.625C96.7812 25 96.3125 24.5781 95.75 24.3594C95.1875 24.1407 94.5938 24.0312 93.9688 24.0312H29.1875L26 7.15625C25.8125 6.15626 25.3438 5.37501 24.5938 4.8125C23.8438 4.25001 22.9688 3.96876 21.9688 3.96875H6.03125C4.78125 3.96876 3.79688 4.34376 3.07812 5.09375C2.35937 5.84376 2 6.81251 2 8C2 9.1875 2.35937 10.1562 3.07812 10.9062C3.79688 11.6562 4.78125 12.0312 6.03125 12.0312H18.7812L21.9688 28.8125V29V29.1875L28.8125 62.375C29.375 65.1875 30.75 67.5 32.9375 69.3125C35.125 71.125 37.625 72.0312 40.4375 72.0312H40.4844H40.8125H79.625C82.625 72.0312 85.2188 71.125 87.4062 69.3125C89.5937 67.5 91 65.1875 91.625 62.375L98 28.8125C98 28.1875 97.9691 27.5938 97.9062 27.0312C97.8434 26.4688 97.5941 26 97.1562 25.625ZM78.0205 41.3824C79.5826 39.8203 79.5826 37.2876 78.0205 35.7255C76.4584 34.1634 73.9257 34.1634 72.3636 35.7255L55.3141 52.775L49.115 46.5759C47.5529 45.0138 45.0203 45.0138 43.4582 46.5759C41.8961 48.138 41.8961 50.6707 43.4582 52.2328L52.4857 61.2603C54.0478 62.8224 56.5804 62.8224 58.1425 61.2603L78.0205 41.3824Z"
        fill="currentcolor" />
</svg>