<svg width="100" height="100" viewBox="0 0 100 100" fill="none" xmlns="http://www.w3.org/2000/svg">
    <g clip-path="url(#clip0_1998_12)">
        <path fill-rule="evenodd" clip-rule="evenodd"
            d="M10.3855 52.3108C9.59019 51.0042 8.96432 49.8878 8.51075 49.0428C8.9594 48.2458 9.57115 47.2048 10.3434 45.9913C12.215 43.0502 15.0032 39.1372 18.6654 35.2387C26.0426 27.3856 36.561 20 50 20C63.439 20 73.9574 27.3856 81.3346 35.2387C84.9968 39.1372 87.785 43.0502 89.6566 45.9913C90.4288 47.2048 91.0406 48.2458 91.4893 49.0428C91.0357 49.8878 90.4098 51.0042 89.6145 52.3108C87.7376 55.3943 84.9433 59.4937 81.2747 63.5765C73.8721 71.8149 63.3686 79.5 50 79.5C36.6314 79.5 26.1279 71.8149 18.7253 63.5765C15.0567 59.4937 12.2624 55.3943 10.3855 52.3108ZM99.6274 50.6858C99.6281 50.6843 99.6288 50.6829 96 49L99.6288 50.6829C100.134 49.5937 100.123 48.3352 99.5993 47.2549L96 49C99.5993 47.2549 99.5986 47.2535 99.5978 47.2519L99.596 47.2482L99.5913 47.2385L99.5773 47.2101C99.566 47.1871 99.5508 47.1563 99.5316 47.1179C99.4932 47.041 99.4389 46.9335 99.3689 46.7976C99.2288 46.5257 99.0254 46.1393 98.7591 45.6549C98.2268 44.6867 97.4413 43.3233 96.4059 41.6962C94.34 38.4498 91.2532 34.1128 87.1654 29.7613C79.0426 21.1144 66.561 12 50 12C33.439 12 20.9574 21.1144 12.8346 29.7613C8.74682 34.1128 5.66004 38.4498 3.5941 41.6962C2.5587 43.3233 1.77323 44.6867 1.24091 45.6549C0.974597 46.1393 0.771188 46.5257 0.631114 46.7976C0.561063 46.9335 0.506809 47.041 0.468406 47.1179C0.449203 47.1563 0.433959 47.1871 0.422681 47.2101L0.408737 47.2385L0.403996 47.2482L0.402184 47.2519C0.401433 47.2535 0.400743 47.2549 4 49L0.400743 47.2549C-0.123054 48.3352 -0.133882 49.5937 0.371247 50.6829L4 49C0.371247 50.6829 0.371897 50.6843 0.372609 50.6858L0.374343 50.6896L0.378926 50.6994L0.39255 50.7284C0.403613 50.7519 0.418639 50.7837 0.437621 50.8234C0.475581 50.9029 0.529381 51.0143 0.598963 51.1555C0.738103 51.4378 0.94052 51.8398 1.20579 52.3442C1.73602 53.3525 2.51914 54.7737 3.55196 56.4704C5.61259 59.8557 8.69328 64.3813 12.7747 68.9235C20.8721 77.9351 33.3686 87.5 50 87.5C66.6314 87.5 79.1279 77.9351 87.2253 68.9235C91.3067 64.3813 94.3874 59.8557 96.448 56.4704C97.4809 54.7737 98.264 53.3525 98.7942 52.3442C99.0595 51.8398 99.2619 51.4378 99.401 51.1555C99.4706 51.0143 99.5244 50.9029 99.5624 50.8234C99.5814 50.7837 99.5964 50.7519 99.6075 50.7284L99.6211 50.6994L99.6257 50.6896L99.6274 50.6858ZM41 50C41 45.0294 45.0294 41 50 41C54.9706 41 59 45.0294 59 50C59 54.9706 54.9706 59 50 59C45.0294 59 41 54.9706 41 50ZM50 33C40.6112 33 33 40.6112 33 50C33 59.3888 40.6112 67 50 67C59.3888 67 67 59.3888 67 50C67 40.6112 59.3888 33 50 33Z"
            fill="currentcolor" />
    </g>
</svg>