<svg width="100" height="100" viewBox="0 0 100 100" fill="none" xmlns="http://www.w3.org/2000/svg">
    <path fill-rule="evenodd" clip-rule="evenodd"
        d="M5.14312 30.3997C3.59688 28.8219 3.62246 26.2894 5.20025 24.7431L7.99997 27.6L10.7997 30.4569C9.22189 32.0031 6.68936 31.9775 5.14312 30.3997ZM48 27.6C45.2003 30.4569 45.2002 30.4568 45.2001 30.4567L45.1997 30.4563L45.198 30.4547L45.1914 30.4482L45.165 30.4223L45.0614 30.3208L44.6612 29.9286L43.1736 28.4707L38.1292 23.5272L31.9999 17.5205L31.9999 92C31.9999 94.2092 30.2091 96 27.9999 96C25.7908 96 23.9999 94.2092 23.9999 92L23.9999 17.5206L17.8707 23.5272L12.8263 28.4707L11.3387 29.9286L10.9385 30.3208L10.8349 30.4223L10.8085 30.4482L10.8019 30.4547L10.8002 30.4563L10.7998 30.4567C10.7997 30.4568 10.7997 30.4569 7.99997 27.6C5.20025 24.7431 5.2003 24.7431 5.20039 24.743L5.20081 24.7426L5.20248 24.741L5.20912 24.7345L5.23546 24.7086L5.33905 24.6071L5.73928 24.2149L7.2269 22.757L12.2713 17.8135L25.1942 5.14912C25.2191 5.12453 25.2445 5.10026 25.2701 5.07632C25.6078 4.76073 25.9867 4.51454 26.3888 4.33775C26.9404 4.09519 27.5355 3.98328 28.1273 4.00201C28.6392 4.01802 29.1268 4.13021 29.5727 4.32109C30.0171 4.51093 30.4342 4.78495 30.7997 5.14315L43.7286 17.8135L48.773 22.757L50.2607 24.2149L50.6609 24.6071L50.7645 24.7086L50.7908 24.7345L50.7975 24.741L50.7991 24.7426L50.7995 24.743C50.7996 24.7431 50.7997 24.7431 48 27.6ZM48 27.6L50.7997 24.7431C52.3775 26.2894 52.4031 28.8219 50.8568 30.3997C49.3106 31.9775 46.778 32.0031 45.2003 30.4569L48 27.6ZM45 90C42.7909 90 41 88.2092 41 86C41 83.7909 42.7909 82 45 82H87C89.2091 82 91 83.7909 91 86C91 88.2092 89.2091 90 87 90H45ZM41 68C41 70.2092 42.7909 72 45 72H77C79.2091 72 81 70.2092 81 68C81 65.7909 79.2091 64 77 64H45C42.7909 64 41 65.7909 41 68ZM45 54C42.7909 54 41 52.2092 41 50C41 47.7909 42.7909 46 45 46H67C69.2091 46 71 47.7909 71 50C71 52.2092 69.2091 54 67 54H45Z"
        fill="currentcolor" />
</svg>