<svg width="100" height="100" viewBox="0 0 100 100" fill="none" xmlns="http://www.w3.org/2000/svg">
    <path fill-rule="evenodd" clip-rule="evenodd"
        d="M16.4223 13.2111C17.0999 11.856 18.4849 11 20 11H80C81.5151 11 82.9001 11.856 83.5777 13.2111L93.5417 33.1391C93.6967 33.4335 93.8161 33.7496 93.8941 34.0817C93.9736 34.4175 94.0079 34.7576 93.9997 35.0941C93.9582 41.395 89.7544 46.7077 84 48.4202V85C84 87.2091 82.2091 89 80 89H20C17.7909 89 16 87.2091 16 85V48.4202C10.2457 46.7077 6.0418 41.395 6.00031 35.0941C5.99209 34.7573 6.02648 34.4169 6.10613 34.0808C6.18413 33.7491 6.30342 33.4333 6.45828 33.1392L16.4223 13.2111ZM70 44.798C71.6394 46.471 73.6954 47.7344 76 48.4202V81H56L56 61C56 58.7909 54.2091 57 52 57H36C33.7909 57 32 58.7909 32 61L32 81H24V48.4202C26.3046 47.7343 28.3606 46.471 30 44.798C32.541 47.3911 36.0826 49 40 49C43.9174 49 47.459 47.3911 50 44.798C52.541 47.3911 56.0826 49 60 49C63.9174 49 67.459 47.3911 70 44.798ZM40 81H48V65H40L40 81ZM74 35C74 38.3137 76.6863 41 80 41C83.032 41 85.5387 38.7511 85.943 35.8303L77.5279 19H22.4721L14.057 35.8303C14.4613 38.7511 16.968 41 20 41C23.3137 41 26 38.3137 26 35C26 32.7909 27.7909 31 30 31C32.2091 31 34 32.7909 34 35C34 38.3137 36.6863 41 40 41C43.3137 41 46 38.3137 46 35C46 32.7909 47.7909 31 50 31C52.2091 31 54 32.7909 54 35C54 38.3137 56.6863 41 60 41C63.3137 41 66 38.3137 66 35C66 32.7909 67.7909 31 70 31C72.2091 31 74 32.7909 74 35Z"
        fill="currentcolor" />
</svg>