<svg width="100" height="100" viewBox="0 0 100 100" fill="none" xmlns="http://www.w3.org/2000/svg">
    <path fill-rule="evenodd" clip-rule="evenodd"
        d="M57.8197 4.70609C60.6502 4.6766 63.2787 4.95666 65.7038 5.54815L65.7052 5.54849C68.0676 6.13911 70.2551 6.9959 72.2666 8.11953C74.4543 9.24342 76.4354 10.6629 78.2093 12.3774C80.0422 14.0922 81.739 16.1589 83.3008 18.5752C84.8622 20.9909 86.3186 23.7574 87.6707 26.8732C89.0231 29.9894 90.286 33.5437 91.46 37.5351C93.8082 45.0487 95.0445 51.664 95.1621 57.3777C95.2797 63.0977 94.1598 68.1227 91.7915 72.4444C89.4246 76.764 85.8189 80.4843 80.9853 83.6084C76.156 86.7297 69.9813 89.4627 62.4671 91.8109L62.4608 91.8129C58.5282 92.9284 54.9157 93.7655 51.6238 94.3236C48.3301 94.8821 45.152 95.1621 42.0898 95.1621C37.846 95.1621 34.0356 94.5141 30.6626 93.212C27.2304 91.9097 24.1544 89.9129 21.4355 87.2237C18.7179 84.5356 16.3009 81.129 14.182 77.0089C12.0639 72.8905 10.1838 68.0125 8.53997 62.377C6.19227 54.8639 4.92679 48.2496 4.75012 42.537L4.75005 42.5345C4.63212 36.815 5.7377 31.8047 8.07637 27.5122C10.4144 23.221 14.0063 19.5441 18.8404 16.4786C23.7287 13.3572 29.9622 10.683 37.5347 8.45224C41.4674 7.21968 45.1389 6.30893 48.5488 5.72087C51.8995 5.07437 54.9901 4.73557 57.8197 4.70609ZM50.2763 23.8339C51.4418 23.4659 52.5091 23.5217 53.4575 24.0275C54.3875 24.5234 55.0704 25.2697 55.5025 26.2572L55.5054 26.2638L58.0578 33.1553L64.9425 30.6054C66.1087 30.1757 67.1814 30.1985 68.1352 30.7072C69.0681 31.2047 69.7246 31.9552 70.0974 32.9493L70.0993 32.9545C70.526 34.1735 70.5064 35.2618 69.9943 36.1901C69.4975 37.0907 68.7512 37.7571 67.7662 38.188L67.7592 38.1911L60.7787 40.7449L64.3878 50.7327L71.2696 48.1839C72.2677 47.8097 73.2458 47.8397 74.1878 48.2793C74.6429 48.4917 74.9933 48.733 75.2049 49.0151C75.4098 49.2882 75.4788 49.594 75.3972 49.912C75.7395 51.1013 75.679 52.1603 75.1798 53.0651C74.683 53.9657 73.9367 54.6321 72.9518 55.063L72.9452 55.0659L66.0537 57.6183L68.6078 64.5145C68.9759 65.68 68.9197 66.7474 68.4139 67.6958C67.9247 68.6131 67.1908 69.2632 66.2212 69.6391C66.0331 69.8169 65.8256 69.9401 65.5977 69.9781C65.4086 70.0096 65.2191 70.0254 65.0293 70.0254C64.2087 70.0254 63.4397 69.7559 62.7274 69.2294C62.0187 68.7056 61.5565 68.0629 61.3624 67.3008L58.8159 60.4251L48.8285 63.9501L51.3813 70.8426C51.7493 72.0081 51.6932 73.0755 51.1874 74.0239C50.6985 74.9406 49.9664 75.6173 48.9998 76.0502C48.8103 76.2307 48.6011 76.3558 48.3711 76.3941C48.1783 76.4262 47.959 76.4414 47.7148 76.4414C46.9486 76.4414 46.2092 76.169 45.5008 75.6454C44.7874 75.1181 44.3275 74.4438 44.1351 73.6268L41.5907 66.7568L34.7551 69.2885C34.5586 69.4723 34.3343 69.5915 34.0832 69.6274C33.8685 69.658 33.6661 69.6738 33.4766 69.6738C32.6555 69.6738 31.8994 69.404 31.2143 68.8746C30.5305 68.3462 30.0881 67.6724 29.8967 66.8588C29.4726 65.6983 29.4975 64.631 30.004 63.6812C30.5015 62.7483 31.252 62.0919 32.2462 61.7191L32.2481 61.7184L39.2213 59.1672L35.6113 49.1768L28.7949 51.6173C28.6051 51.8498 28.3774 52.0106 28.1066 52.0493C27.8919 52.0799 27.6895 52.0957 27.5 52.0957C26.679 52.0957 25.9228 51.8259 25.2378 51.2965C24.554 50.768 24.1115 50.0943 23.9202 49.2807C23.4961 48.1201 23.5209 47.0529 24.0275 46.1031C24.5234 45.1731 25.2697 44.4901 26.2572 44.0581L26.2638 44.0552L33.1553 41.5028L30.6058 34.619C30.2288 33.6133 30.294 32.6032 30.792 31.607C31.2882 30.6144 32.0455 30.0035 33.0575 29.8072C34.0576 29.4382 35.074 29.5069 36.0905 29.9997C37.1104 30.4941 37.8172 31.244 38.1931 32.2462L38.1958 32.2535L40.4065 39.4809L50.4688 35.8753L47.9199 28.9931C47.4902 27.8268 47.5129 26.7542 48.0216 25.8003C48.5191 24.8674 49.2696 24.211 50.2638 23.8382L50.2763 23.8339ZM43.2009 46.7224L46.8109 56.7129L56.7991 53.1877L53.1891 43.1133L43.2009 46.7224Z"
        fill="currentcolor" />
</svg>