<svg width="100" height="100" viewBox="0 0 100 100" fill="none" xmlns="http://www.w3.org/2000/svg">
    <path fill-rule="evenodd" clip-rule="evenodd"
        d="M5.45233 5.45227C7.01443 3.89018 9.54709 3.89018 11.1092 5.45227L94.5478 88.8909C96.1099 90.453 96.1099 92.9856 94.5478 94.5477C92.9857 96.1098 90.453 96.1098 88.8909 94.5477L79.1066 84.7634C74.5876 87.4086 69.0398 89.7569 62.4671 91.8109L62.4608 91.8129C58.5282 92.9284 54.9157 93.7655 51.6238 94.3236C48.3301 94.8821 45.152 95.1621 42.0898 95.1621C37.846 95.1621 34.0356 94.5141 30.6626 93.212C27.2304 91.9097 24.1544 89.9129 21.4355 87.2237C18.7179 84.5356 16.3009 81.129 14.182 77.0089C12.0639 72.8905 10.1838 68.0125 8.53997 62.377C6.19227 54.8639 4.92679 48.2496 4.75012 42.537L4.75005 42.5345C4.63212 36.815 5.7377 31.8047 8.07637 27.5122C9.60065 24.7145 11.6579 22.178 14.2449 19.9017L5.45233 11.1091C3.89024 9.54703 3.89024 7.01437 5.45233 5.45227ZM64.294 69.9508L73.123 78.7798C69.5152 80.6137 65.1538 82.3083 60.0358 83.8621C53.4856 85.792 47.882 86.8705 43.2216 87.1038C38.57 87.278 34.5739 86.4489 31.2228 84.629C27.8717 82.809 25.0015 79.9006 22.6173 75.8879C20.2292 71.869 18.0684 66.5875 16.1383 60.0368L16.1375 60.0342C14.149 53.5426 13.071 47.9695 12.8963 43.311L12.8962 43.3078C12.6636 38.6564 13.4636 34.661 15.2832 31.3107C16.4096 29.2366 17.9644 27.3353 19.9513 25.6081L31.5725 37.2293L33.1553 41.5028L26.2638 44.0552L26.2572 44.0581C25.2697 44.4901 24.5234 45.1731 24.0275 46.1031C23.5209 47.0529 23.4961 48.1201 23.9202 49.2807C24.1115 50.0943 24.554 50.768 25.2378 51.2965C25.9228 51.8259 26.679 52.0957 27.5 52.0957C27.6895 52.0957 27.8919 52.0799 28.1066 52.0493C28.3774 52.0106 28.6051 51.8498 28.7949 51.6173L35.6113 49.1768L39.2213 59.1672L32.2481 61.7184L32.2462 61.7191C31.252 62.0919 30.5015 62.7483 30.004 63.6812C29.4975 64.631 29.4726 65.6983 29.8967 66.8588C30.0881 67.6724 30.5305 68.3462 31.2143 68.8746C31.8994 69.404 32.6555 69.6738 33.4766 69.6738C33.6661 69.6738 33.8685 69.658 34.0832 69.6274C34.3343 69.5915 34.5586 69.4723 34.7551 69.2885L41.5907 66.7568L44.1351 73.6268C44.3275 74.4438 44.7874 75.1181 45.5008 75.6454C46.2092 76.169 46.9486 76.4414 47.7148 76.4414C47.959 76.4414 48.1784 76.4262 48.3711 76.3941C48.6011 76.3558 48.8103 76.2307 48.9998 76.0502C49.9664 75.6173 50.6985 74.9406 51.1874 74.0239C51.6932 73.0755 51.7493 72.0081 51.3813 70.8426L48.8285 63.9501L55.8242 61.481L61.1968 66.8536L61.3624 67.3008C61.5565 68.0629 62.0187 68.7056 62.7274 69.2294C63.2227 69.5955 63.7455 69.8374 64.294 69.9508ZM46.8109 56.7129L44.4091 50.0659L49.9487 55.6055L46.8109 56.7129ZM57.8197 4.70609C60.6502 4.6766 63.2787 4.95666 65.7038 5.54815L65.7052 5.54849C68.0676 6.13911 70.2551 6.9959 72.2666 8.11953C74.4544 9.24342 76.4354 10.6629 78.2093 12.3774C80.0422 14.0922 81.739 16.1589 83.3008 18.5752C84.8622 20.9909 86.3186 23.7574 87.6707 26.8732C89.0231 29.9894 90.286 33.5437 91.46 37.5351C93.8082 45.0487 95.0445 51.664 95.1621 57.3777C95.2357 60.9577 94.8246 64.2655 93.926 67.2989C93.5084 69.0619 91.9242 70.3736 90.0336 70.3736C87.8244 70.3736 86.0336 68.5827 86.0336 66.3736C86.0336 65.9251 86.1074 65.4938 86.2435 65.0913L86.2167 65.0823C87.0431 62.4861 87.3986 59.6015 87.2795 56.4254L87.2794 56.4222C87.1629 51.705 86.1724 46.0737 84.3015 39.5247C83.2492 36.1343 82.1684 33.0966 81.0593 30.411C79.8915 27.7837 78.681 25.451 77.4286 23.4121C76.177 21.3747 74.8557 19.6624 73.4658 18.2725C72.0758 16.8825 70.6016 15.7554 69.0435 14.8891C67.5439 14.1399 65.8831 13.591 64.0597 13.2436C62.2307 12.8953 60.2982 12.7207 58.2617 12.7207C55.8192 12.7207 53.0954 12.997 50.0893 13.5515C47.0826 14.1061 43.7078 14.9387 39.9644 16.05C39.2946 16.2534 38.6381 16.4588 37.9948 16.6663L37.9878 16.6498C37.5437 16.8199 37.0614 16.9131 36.5574 16.9131C34.3483 16.9131 32.5574 15.1223 32.5574 12.9131C32.5574 11.3039 33.5077 9.91667 34.8777 9.28188L34.8736 9.27218L34.9642 9.24301C35.2119 9.13536 35.4725 9.05204 35.7432 8.99607C36.3318 8.81196 36.9289 8.63068 37.5347 8.45224C41.4674 7.21968 45.1389 6.30893 48.5488 5.72087C51.8995 5.07437 54.9901 4.73557 57.8197 4.70609ZM61.7447 40.3915L67.7592 38.1911L67.7662 38.188C68.7512 37.7571 69.4975 37.0907 69.9943 36.1901C70.5064 35.2618 70.526 34.1735 70.0993 32.9545L70.0974 32.9493C69.7246 31.9552 69.0681 31.2047 68.1352 30.7072C67.1814 30.1985 66.1087 30.1757 64.9425 30.6054L64.4746 30.7787L59.1254 32.7599L59.1316 32.7781C57.5068 33.2866 56.3278 34.8037 56.3278 36.5962C56.3278 38.8053 58.1187 40.5962 60.3278 40.5962C60.8206 40.5962 61.2925 40.5071 61.7284 40.3441L61.7447 40.3915Z"
        fill="currentcolor" />
</svg>