<svg width="100" height="100" viewBox="0 0 100 100" fill="none" xmlns="http://www.w3.org/2000/svg">
    <path fill-rule="evenodd" clip-rule="evenodd"
        d="M65.7038 5.54815C63.2787 4.95666 60.6502 4.6766 57.8197 4.70609C54.9901 4.73557 51.8995 5.07437 48.5488 5.72087C45.1389 6.30893 41.4674 7.21968 37.5347 8.45224C29.9622 10.683 23.7287 13.3572 18.8404 16.4786C14.0063 19.5441 10.4144 23.221 8.07637 27.5122C5.7377 31.8047 4.63212 36.815 4.75005 42.5345L4.75012 42.537C4.92679 48.2496 6.19227 54.8639 8.53997 62.377C10.1838 68.0125 12.0639 72.8905 14.182 77.0089C16.3009 81.129 18.7179 84.5356 21.4355 87.2237C24.1544 89.9129 27.2304 91.9097 30.6626 93.212C34.0356 94.5141 37.846 95.1621 42.0898 95.1621C45.152 95.1621 48.3301 94.8821 51.6238 94.3236C54.9157 93.7655 58.5282 92.9284 62.4608 91.8129L62.4671 91.8109C69.9813 89.4627 76.156 86.7297 80.9853 83.6084C85.8189 80.4843 89.4246 76.764 91.7915 72.4444C94.1598 68.1227 95.2797 63.0977 95.1621 57.3777C95.0445 51.664 93.8082 45.0487 91.46 37.5351C90.286 33.5437 89.0231 29.9894 87.6707 26.8732C86.3186 23.7574 84.8622 20.9909 83.3008 18.5752C81.739 16.1589 80.0422 14.0922 78.2093 12.3774C76.4354 10.6629 74.4543 9.24342 72.2666 8.11953C70.2551 6.9959 68.0676 6.13911 65.7052 5.54849L65.7038 5.54815ZM50.0893 13.5515C53.0954 12.997 55.8192 12.7207 58.2617 12.7207C60.2982 12.7207 62.2307 12.8953 64.0597 13.2436C65.8831 13.591 67.5439 14.1399 69.0435 14.8891C70.6016 15.7554 72.0758 16.8825 73.4658 18.2725C74.8557 19.6624 76.177 21.3747 77.4286 23.4121C78.681 25.451 79.8915 27.7837 81.0593 30.411C82.1684 33.0966 83.2492 36.1343 84.3015 39.5247C86.1724 46.0737 87.1629 51.705 87.2794 56.4222L87.2795 56.4254C87.4539 61.0768 86.6105 65.103 84.7607 68.5136C82.9111 71.9239 79.9876 74.8232 75.9758 77.207L75.9749 77.2075C71.8969 79.6543 66.5859 81.8735 60.0358 83.8621C53.4856 85.792 47.882 86.8705 43.2216 87.1038C38.57 87.278 34.5739 86.4489 31.2228 84.629C27.8717 82.809 25.0015 79.9006 22.6173 75.8879C20.2292 71.869 18.0684 66.5875 16.1383 60.0368L16.1375 60.0342C14.149 53.5426 13.071 47.9695 12.8963 43.311L12.8962 43.3078C12.6636 38.6564 13.4636 34.661 15.2832 31.3107C17.103 27.9599 20.0406 25.0602 24.1128 22.6169C28.1323 20.2286 33.4139 18.0386 39.9644 16.05C43.7078 14.9387 47.0826 14.1061 50.0893 13.5515ZM53.4575 24.0275C52.5091 23.5217 51.4418 23.4659 50.2763 23.8339L50.2638 23.8382C49.2696 24.211 48.5191 24.8674 48.0216 25.8003C47.5129 26.7542 47.4902 27.8268 47.9199 28.9931L50.4688 35.8753L40.4065 39.4809L38.1958 32.2535L38.1931 32.2462C37.8172 31.244 37.1104 30.4941 36.0905 29.9997C35.074 29.5069 34.0577 29.4382 33.0575 29.8072C32.0455 30.0035 31.2882 30.6144 30.792 31.607C30.294 32.6032 30.2288 33.6133 30.6058 34.619L33.1553 41.5028L26.2638 44.0552L26.2572 44.0581C25.2697 44.4901 24.5234 45.1731 24.0275 46.1031C23.5209 47.0529 23.4961 48.1201 23.9202 49.2807C24.1115 50.0943 24.554 50.768 25.2378 51.2965C25.9228 51.8259 26.679 52.0957 27.5 52.0957C27.6895 52.0957 27.8919 52.0799 28.1066 52.0493C28.3774 52.0106 28.6051 51.8498 28.7949 51.6173L35.6113 49.1768L39.2213 59.1672L32.2481 61.7184L32.2462 61.7191C31.252 62.0919 30.5015 62.7483 30.004 63.6812C29.4975 64.631 29.4726 65.6983 29.8967 66.8588C30.0881 67.6724 30.5305 68.3462 31.2143 68.8746C31.8994 69.404 32.6555 69.6738 33.4766 69.6738C33.6661 69.6738 33.8685 69.658 34.0832 69.6274C34.3343 69.5915 34.5586 69.4723 34.7551 69.2885L41.5907 66.7568L44.1351 73.6268C44.3275 74.4438 44.7874 75.1181 45.5008 75.6454C46.2092 76.169 46.9486 76.4414 47.7148 76.4414C47.959 76.4414 48.1784 76.4262 48.3711 76.3941C48.6011 76.3558 48.8103 76.2307 48.9998 76.0502C49.9664 75.6173 50.6985 74.9406 51.1874 74.0239C51.6932 73.0755 51.7493 72.0081 51.3813 70.8426L48.8285 63.9501L58.8159 60.4251L61.3624 67.3008C61.5565 68.0629 62.0187 68.7056 62.7274 69.2294C63.4397 69.7559 64.2087 70.0254 65.0293 70.0254C65.2191 70.0254 65.4086 70.0096 65.5977 69.9781C65.8256 69.9401 66.0331 69.8169 66.2212 69.6391C67.1908 69.2632 67.9247 68.6131 68.4139 67.6958C68.9197 66.7474 68.9759 65.68 68.6078 64.5145L66.0537 57.6183L72.9452 55.0659L72.9518 55.063C73.9367 54.6321 74.683 53.9657 75.1798 53.0651C75.679 52.1603 75.7395 51.1013 75.3972 49.912C75.4788 49.594 75.4098 49.2882 75.2049 49.0151C74.9933 48.733 74.6429 48.4917 74.1878 48.2793C73.2458 47.8397 72.2677 47.8097 71.2696 48.1839L64.3878 50.7327L60.7787 40.7449L67.7592 38.1911L67.7662 38.188C68.7512 37.7571 69.4975 37.0907 69.9943 36.1901C70.5064 35.2618 70.526 34.1735 70.0993 32.9545L70.0974 32.9493C69.7246 31.9552 69.0681 31.2047 68.1352 30.7072C67.1814 30.1985 66.1087 30.1757 64.9425 30.6054L64.4746 30.7787L58.0578 33.1553L55.676 26.7244L55.5054 26.2638L55.5025 26.2572C55.0704 25.2697 54.3875 24.5234 53.4575 24.0275ZM46.8109 56.7129L43.2009 46.7224L53.1891 43.1133L56.7991 53.1877L46.8109 56.7129Z"
        fill="currentcolor" />
</svg>