<svg width="100" height="100" viewBox="0 0 100 100" fill="none" xmlns="http://www.w3.org/2000/svg">
    <path
        d="M69.1406 64.1602C68.4896 63.1185 67.7734 62.2396 66.9922 61.5234C66.2109 60.8073 65.3972 60.0261 64.5508 59.1797V14.6484C64.5508 10.6771 63.1022 7.24284 60.2051 4.3457C57.3079 1.44857 53.9062 9.76562e-06 50 0C46.0286 9.76562e-06 42.5944 1.44857 39.6973 4.3457C36.8001 7.24284 35.3516 10.6771 35.3516 14.6484V59.5703C33.0729 61.4583 31.25 63.6394 29.8828 66.1133C28.4505 68.5872 27.5391 71.1751 27.1484 73.877C26.7578 76.5788 26.8555 79.3294 27.4414 82.1289C28.0273 84.9284 29.1341 87.5651 30.7617 90.0391C32.4544 92.513 34.5866 94.6289 37.1582 96.3867C39.7298 98.1445 42.4805 99.2188 45.4102 99.6094C46.2565 99.8047 47.0215 99.9189 47.7051 99.9512C48.3887 99.9834 49.1536 100 50 100C52.2786 100 54.4597 99.6904 56.543 99.0723C58.6263 98.4541 60.612 97.5264 62.5 96.2891C65.1692 94.5312 67.3503 92.3828 69.043 89.8438C70.7356 87.2396 71.8913 84.5052 72.5098 81.6406C73.1282 78.7761 73.1445 75.8138 72.5586 72.7539C72.0378 69.7591 70.8984 66.8945 69.1406 64.1602ZM57.9102 89.1602C54.5898 91.5039 50.9277 92.2363 46.9238 91.3574C42.9199 90.4785 39.7786 88.3789 37.5 85.0586C36.4583 83.3659 35.7422 81.6081 35.3516 79.7852C34.9609 77.9622 34.9609 76.1067 35.3516 74.2188C35.8073 72.3308 36.556 70.5892 37.5977 68.9941C38.6394 67.3991 39.9739 66.0808 41.6016 65.0391C42.2526 64.6484 42.6921 64.1438 42.9199 63.5254C43.1478 62.9069 43.2617 62.3047 43.2617 61.7188V14.6484C43.5222 12.9558 44.2871 11.4909 45.5566 10.2539C46.8262 9.01689 48.3073 8.39844 50 8.39844C51.6276 8.39844 53.0762 9.01689 54.3457 10.2539C55.6152 11.4909 56.25 12.9558 56.25 14.6484V61.7188C56.25 62.3047 56.4128 62.9069 56.7383 63.5254C57.0638 64.1438 57.4544 64.6484 57.9102 65.0391C58.7565 65.6901 59.5052 66.3411 60.1562 66.9922C60.8073 67.6433 61.4258 68.3919 62.0117 69.2383C64.3555 72.5586 65.0879 76.1394 64.209 79.9805C63.3301 83.8216 61.2305 86.8815 57.9102 89.1602Z"
        fill="currentcolor" />
</svg>