<svg width="100" height="100" viewBox="0 0 100 100" fill="none" xmlns="http://www.w3.org/2000/svg">
    <path
        d="M85.7658 21.5766L54.9549 6.17117C53.4534 5.3904 51.7867 5 49.9549 5C48.1231 5 46.3363 5.3904 44.5946 6.17117L13.8739 21.5766C11.9519 22.5376 10.4504 23.9039 9.36936 25.6757C8.28828 27.4475 7.74774 29.4144 7.74774 31.5766V68.0631C7.74774 70.1651 8.3033 72.1772 9.41441 74.0991C10.5255 76.021 12.1321 77.4624 14.2342 78.4234L45.045 93.8288C45.7658 94.1892 46.5766 94.4748 47.4775 94.6847C48.3784 94.8946 49.2192 95 50 95C50.961 95 51.8468 94.8946 52.6577 94.6847C53.4685 94.4748 54.2342 94.1892 54.9549 93.8288L85.7658 78.4234C87.6877 77.4624 89.2493 76.066 90.4504 74.2342C91.6516 72.4024 92.2522 70.3453 92.2522 68.0631V31.5766C92.2522 29.4144 91.6967 27.4475 90.5856 25.6757C89.4745 23.9039 87.8678 22.5376 85.7658 21.5766ZM48.4685 12.6577C48.6486 12.4775 48.9039 12.3723 49.2342 12.3423C49.5646 12.3123 49.8198 12.2973 50 12.2973C50.3604 12.2973 50.6606 12.3123 50.9009 12.3423C51.1412 12.3723 51.3513 12.4775 51.5315 12.6577L80 26.8919L50 41.9369L20 26.8919L48.4685 12.6577ZM17.2973 71.9369C16.7568 71.5165 16.3063 70.9759 15.9459 70.3153C15.5856 69.6547 15.4054 69.0241 15.4054 68.4234V33.1081L46.1261 48.4234V86.0811L17.2973 71.9369ZM82.2522 71.9369L53.8739 86.0811V48.4234L84.5946 33.1081V68.4234C84.5946 69.2042 84.3994 69.8799 84.009 70.4504C83.6186 71.021 83.0331 71.5165 82.2522 71.9369Z"
        fill="currentcolor" />
</svg>