<svg width="100" height="100" viewBox="0 0 100 100" fill="none" xmlns="http://www.w3.org/2000/svg">
    <path fill-rule="evenodd" clip-rule="evenodd"
        d="M16 24C16 21.7909 17.7909 20 20 20H36C38.2091 20 40 21.7909 40 24V47H60V24C60 21.7909 61.7909 20 64 20H80C82.2091 20 84 21.7909 84 24V31H96C98.2091 31 100 32.7909 100 35V67C100 69.2091 98.2091 71 96 71H84V78C84 80.2091 82.2091 82 80 82H64C61.7909 82 60 80.2091 60 78V55H40V78C40 80.2091 38.2091 82 36 82H20C17.7909 82 16 80.2091 16 78V71H4C1.79086 71 0 69.2091 0 67V35C0 32.7909 1.79086 31 4 31H16V24ZM32 51V28H24V35V67V74H32V51ZM68 51V74H76V67V35V28H68V51ZM16 39H8V63H16V39ZM92 63H84V39H92V63Z"
        fill="currentcolor" />
</svg>