<svg width="100" height="100" viewBox="0 0 100 100" fill="none" xmlns="http://www.w3.org/2000/svg">
    <path
        d="M95.5119 46.4348C93.3259 42.6248 90.3434 39.6112 86.5647 37.3939C82.7859 35.1765 78.7105 34.0679 74.3383 34.0679H72.3709C70.8718 29.6334 68.6233 25.7296 65.6253 22.3569C62.6897 18.9841 59.3013 16.2827 55.4601 14.2528C51.6188 12.2228 47.4497 10.8957 42.9526 10.271C38.5181 9.7089 34.0522 10.0212 29.5552 11.2079C24.7459 12.4571 20.4674 14.5027 16.7199 17.3445C12.9723 20.1864 9.7869 23.606 7.16362 27.6034C4.6028 31.6008 2.99448 35.9885 2.33866 40.7667C1.68284 45.5448 1.97952 50.2449 3.2287 54.8668C3.97821 57.615 4.99317 60.207 6.27358 62.6429C7.55399 65.0788 9.19354 67.3899 11.1922 69.5759C12.0042 70.3879 12.9411 70.8563 14.0029 70.9812C15.0647 71.1061 16.0015 70.7938 16.8135 70.0443C17.5631 69.2323 18.0158 68.2955 18.172 67.2337C18.3282 66.1719 18.0003 65.235 17.1883 64.423C15.7518 62.7991 14.487 61.0034 13.3939 59.0359C12.3008 57.0685 11.567 54.9917 11.1922 52.8056C10.1929 49.2455 9.97428 45.6697 10.5364 42.0783C11.0985 38.4869 12.379 35.0048 14.3776 31.632C16.1889 28.4466 18.6093 25.714 21.6385 23.4343C24.6677 21.1546 27.9625 19.6399 31.5226 18.8904C35.2702 17.891 38.9552 17.6724 42.5779 18.2346C46.2629 18.7967 49.6514 19.9834 52.7431 21.7947C55.8348 23.606 58.5049 25.9795 60.7535 28.9151C63.0645 31.8506 64.6572 35.161 65.5316 38.846C65.719 39.658 66.1874 40.3294 66.9369 40.8603C67.6864 41.3913 68.5608 41.6567 69.5602 41.6567H74.3383C77.3363 41.6567 80.069 42.4062 82.5361 43.9052C85.0032 45.4042 86.9238 47.4342 88.2979 49.995C89.2973 51.8063 89.9063 53.7582 90.1248 55.8505C90.3434 57.9429 90.1405 59.9885 89.5159 61.9871C88.9537 63.9858 88.0012 65.844 86.6584 67.5616C85.3155 69.2792 83.7384 70.6377 81.9271 71.637C80.9277 72.1992 80.2563 73.0112 79.9128 74.0729C79.5692 75.1347 79.7098 76.1653 80.3344 77.1647C80.7091 77.7893 81.2088 78.2889 81.8334 78.6637C82.458 79.0384 83.145 79.2258 83.8945 79.2258C84.3318 79.2258 84.6753 79.2102 84.9251 79.179C85.175 79.1478 85.5185 79.0384 85.9557 78.8511C88.7664 77.2272 91.1398 75.2129 93.076 72.8082C95.0123 70.4034 96.4797 67.6084 97.4794 64.423C98.2917 61.6124 98.5259 58.6143 98.1821 55.4289C97.8382 52.2435 96.9482 49.2455 95.5119 46.4348ZM53.1647 47.1843C52.9773 46.9969 52.7743 46.8252 52.5557 46.669C52.3372 46.5129 52.1341 46.4348 51.9468 46.4348C51.572 46.2474 51.1036 46.1538 50.5414 46.1538C49.9793 46.1538 49.386 46.2474 48.7613 46.4348C48.574 46.6222 48.3709 46.7471 48.1524 46.8096C47.9338 46.8721 47.7308 46.9969 47.5434 47.1843L31.5226 63.2051C30.7731 64.0171 30.3984 64.954 30.3984 66.0157C30.3984 67.0775 30.7731 68.0144 31.5226 68.8264C32.3346 69.6384 33.2715 70.0443 34.3333 70.0443C35.3951 70.0443 36.332 69.6384 37.144 68.8264L46.3254 59.6449V85.9714C46.3254 87.2205 46.7002 88.2043 47.4497 88.9226C48.1992 89.6409 49.1673 90 50.354 90C51.5408 90 52.5089 89.6409 53.2584 88.9226C54.0079 88.2043 54.3827 87.2205 54.3827 85.9714V59.6449L63.5641 68.8264C63.9389 69.2011 64.3917 69.4979 64.9226 69.7164C65.4535 69.935 65.9375 70.0443 66.3748 70.0443C66.7495 70.0443 67.2023 69.935 67.7333 69.7164C68.2642 69.4979 68.7482 69.2011 69.1854 68.8264C69.935 68.0144 70.3097 67.0775 70.3097 66.0157C70.3097 64.954 69.935 64.0171 69.1854 63.2051L53.1647 47.1843Z"
        fill="currentcolor" />
</svg>