<svg width="100" height="100" viewBox="0 0 100 100" fill="none" xmlns="http://www.w3.org/2000/svg">
    <path fill-rule="evenodd" clip-rule="evenodd"
        d="M13.0966 7.60876C11.96 5.71444 9.50296 5.10018 7.60864 6.23677C5.71432 7.37336 5.10006 9.8304 6.23665 11.7247L17.2367 30.0581C17.2852 30.139 17.3361 30.2175 17.3893 30.2937L17.4129 30.443C17.731 32.4602 17.5445 35.695 17.3004 39.9267L17.2588 40.6495C17.0969 43.4715 16.9319 46.6321 17.0294 49.6666H9.66663C7.45749 49.6666 5.66663 51.4575 5.66663 53.6666C5.66663 68.2299 14.0069 80.8536 26.1308 86.613C26.6671 86.8678 27.2534 87 27.8472 87H51.7069L70.0927 91.9264C76.0676 93.5274 82.2089 89.9816 83.8099 84.0068L93.5737 47.5676C95.1747 41.5928 91.629 35.4514 85.6541 33.8505L79.3638 32.165L81.2001 25.9758C82.0459 23.1251 80.374 20.1382 77.5019 19.3686C74.6297 18.599 71.6883 20.3498 70.9954 23.2414L69.4911 29.5196L63.2006 27.8341C57.2258 26.2331 51.0844 29.7789 49.4835 35.7537L47.854 41.8351C47.015 40.5194 45.9684 39.3314 44.7212 38.3305C41.3737 35.6439 36.777 33.3987 32.9027 31.5426L32.2727 31.2408C28.9011 29.6267 26.2548 28.3599 24.5938 27.2348C24.5072 26.7902 24.3431 26.3529 24.0966 25.9421L13.0966 7.60876ZM63.0662 81.7615C70.9793 75.0975 76 64.9658 76 53.6666C76 51.4575 74.2091 49.6666 72 49.6666H54.0377L57.2109 37.8242C57.6683 36.1171 59.423 35.1041 61.1301 35.5615L67.8174 37.3533C69.5334 37.8131 71.2666 37.6474 72.778 36.9983C73.7624 38.3161 75.1805 39.3263 76.8965 39.7861L83.5836 41.5779C85.2907 42.0353 86.3037 43.79 85.8463 45.4971L76.0825 81.9363C75.6251 83.6434 73.8704 84.6564 72.1633 84.199L63.0662 81.7615ZM25.0325 49.6666H42.2942C42.0871 47.6246 41.1775 45.7442 39.7139 44.5696C37.2116 42.5613 33.4847 40.6921 29.4462 38.7573C29.1106 38.5965 28.7694 38.4338 28.425 38.2697L28.4147 38.2647L28.4126 38.2638L28.4117 38.2633C27.4497 37.8047 26.4605 37.3331 25.4835 36.8504C25.4344 37.9013 25.372 38.9584 25.311 39.9908C25.2888 40.3668 25.2667 40.7396 25.2456 41.1076C25.0708 44.1556 24.935 47.0847 25.0325 49.6666ZM13.9364 57.6666C15.2174 67.0791 20.9514 74.9597 28.7823 79H52.8842C60.7152 74.9597 66.4492 67.0791 67.7302 57.6666H13.9364Z"
        fill="currentcolor" />
</svg>