<svg width="100" height="100" viewBox="0 0 100 100" fill="none" xmlns="http://www.w3.org/2000/svg">
    <path fill-rule="evenodd" clip-rule="evenodd"
        d="M11.1091 5.45227C9.54703 3.89018 7.01437 3.89018 5.45227 5.45227C3.89018 7.01437 3.89018 9.54703 5.45227 11.1091L6.48983 12.1467L17.2367 30.0581C17.2852 30.139 17.3361 30.2175 17.3894 30.2937L17.4129 30.443C17.731 32.4602 17.5445 35.695 17.3004 39.9267L17.2588 40.6495C17.0969 43.4715 16.9319 46.6321 17.0294 49.6666H9.66663C7.45749 49.6666 5.66663 51.4575 5.66663 53.6666C5.66663 68.2299 14.0069 80.8536 26.1308 86.613C26.6671 86.8678 27.2534 87 27.8472 87H53.8194C54.4132 87 54.9995 86.8678 55.5358 86.613C61.0499 83.9936 65.7813 79.9542 69.3014 74.9583L88.8909 94.5477C90.453 96.1098 92.9856 96.1098 94.5477 94.5477C96.1098 92.9856 96.1098 90.453 94.5477 88.8909L12.5515 6.89469C12.5132 6.85473 12.4742 6.81568 12.4344 6.77756L11.1091 5.45227ZM52.0098 57.6666L63.5357 69.1926C60.8875 73.3723 57.2051 76.7707 52.8843 79H28.7823C20.9514 74.9597 15.2174 67.0791 13.9364 57.6666H40.8333H52.0098ZM37.1077 42.7645L41.7491 47.4059C42.0297 48.1146 42.2142 48.8785 42.2942 49.6666H40.8333H25.0326C24.935 47.0847 25.0708 44.1556 25.2456 41.1076C25.2668 40.7396 25.2888 40.3668 25.311 39.9908C25.372 38.9584 25.4344 37.9013 25.4835 36.8504C26.4604 37.333 27.4495 37.8046 28.4113 38.2631L28.4126 38.2638L28.4147 38.2647L28.425 38.2697C28.7694 38.4338 29.1106 38.5965 29.4462 38.7573C32.2526 40.1018 34.9086 41.4147 37.1077 42.7645ZM71.8286 22.7791L70.0595 29.3814L64.1519 27.7636C60.3103 26.7116 56.197 27.6342 53.1729 30.2264L52.8968 30.463C51.2195 31.9007 51.0253 34.4259 52.463 36.1032C53.9007 37.7805 56.4259 37.9747 58.1032 36.537L58.3792 36.3004C59.3873 35.4364 60.7584 35.1288 62.0389 35.4795L71.2395 37.9991C72.0311 38.2159 72.8324 38.179 73.5567 37.9377C74.0729 38.5993 74.8007 39.1047 75.6737 39.3386L83.4011 41.4092C85.535 41.9809 86.8013 44.1743 86.2295 46.3082L84.9354 51.1378L83.2531 57.4163L82.4119 60.5556L81.9913 62.1252C81.4196 64.259 82.6859 66.4524 84.8198 67.0242C86.9536 67.5959 89.147 66.3296 89.7188 64.1957L90.1393 62.6261L90.9805 59.4868L92.6628 53.2083L93.9569 48.3787C95.6722 41.9771 91.8732 35.3971 85.4716 33.6818L79.6761 32.1288L81.4878 25.3673C82.2025 22.7 80.6196 19.9583 77.9523 19.2436C75.285 18.5289 72.5433 20.1118 71.8286 22.7791Z"
        fill="currentcolor" />
</svg>