<svg width="100" height="100" viewBox="0 0 100 100" fill="none" xmlns="http://www.w3.org/2000/svg">
    <path fill-rule="evenodd" clip-rule="evenodd"
        d="M54 13H86C89.3137 13 92 15.6863 92 19V81C92 84.3137 89.3137 87 86 87H54C50.6863 87 48 84.3137 48 81V79V31V23V19C48 15.6863 50.6863 13 54 13ZM40 23V19C40 11.268 46.268 5 54 5H86C93.732 5 100 11.268 100 19V81C100 88.732 93.732 95 86 95H54C48.4152 95 43.5942 91.7299 41.3473 87H40H34C28.4152 87 23.5942 83.7299 21.3473 79H20H14C6.26801 79 0 72.732 0 65V55C0 47.268 6.26801 41 14 41H20V37C20 29.268 26.268 23 34 23H40ZM20 49V71H14C10.6863 71 8 68.3137 8 65V55C8 51.6863 10.6863 49 14 49H20ZM34 79C30.6863 79 28 76.3137 28 73V71V49V41V37C28 33.6863 30.6863 31 34 31H40V79H34ZM60 26C57.7909 26 56 27.7909 56 30C56 32.2091 57.7909 34 60 34H80C82.2091 34 84 32.2091 84 30C84 27.7909 82.2091 26 80 26H60ZM56 50C56 47.7909 57.7909 46 60 46H80C82.2091 46 84 47.7909 84 50C84 52.2091 82.2091 54 80 54H60C57.7909 54 56 52.2091 56 50ZM60 66C57.7909 66 56 67.7909 56 70C56 72.2091 57.7909 74 60 74H80C82.2091 74 84 72.2091 84 70C84 67.7909 82.2091 66 80 66H60Z"
        fill="currentcolor" />
</svg>