<svg width="100" height="100" viewBox="0 0 100 100" fill="none" xmlns="http://www.w3.org/2000/svg">
    <circle cx="37" cy="37" r="37" transform="matrix(1 0 0 -1 13 87)" fill="#04257C" />
    <circle cx="50" cy="50" r="41" stroke="currentcolor" stroke-width="8" />
    <path fill-rule="evenodd" clip-rule="evenodd"
        d="M21.3802 73.4518L50 56.9282L78.6198 73.4518C81.151 70.3664 83.1932 66.8643 84.6276 63.0641L62 50L84.6276 36.9359C83.1931 33.1357 81.151 29.6336 78.6198 26.5482L50 43.0718L21.3802 26.5482C18.849 29.6336 16.8069 33.1357 15.3724 36.9359L38 50L15.3724 63.0641C16.8068 66.8643 18.849 70.3664 21.3802 73.4518Z"
        fill="#F0F0F0" />
    <path fill-rule="evenodd" clip-rule="evenodd"
        d="M19.5596 71.0388L50 53.4641L80.4404 71.0388C81.5759 69.399 82.5823 67.6629 83.445 65.8453L56 50L83.445 34.1546C82.5823 32.3371 81.5759 30.601 80.4404 28.9611L50 46.5359L19.5596 28.9611C18.4241 30.601 17.4177 32.337 16.555 34.1546L44 50L16.555 65.8453C17.4177 67.6629 18.4241 69.399 19.5596 71.0388Z"
        fill="#DD0000" />
    <path fill-rule="evenodd" clip-rule="evenodd"
        d="M59 85.8978C56.1189 86.6178 53.1041 87 50 87C46.8959 87 43.8811 86.6178 41 85.8978V59H14.1023C13.3823 56.1189 13 53.1041 13 50C13 46.8959 13.3823 43.881 14.1023 41L41 41V14.1023C43.8811 13.3823 46.8959 13 50 13C53.1041 13 56.1189 13.3823 59 14.1023V41L85.8978 41C86.6178 43.8811 87 46.8959 87 50C87 53.1041 86.6178 56.1189 85.8978 59H59V85.8978Z"
        fill="#F0F0F0" />
    <path fill-rule="evenodd" clip-rule="evenodd"
        d="M55 86.665C53.3648 86.8859 51.6957 87 50 87C48.3043 87 46.6352 86.8859 45 86.665V55H13.335C13.1141 53.3648 13 51.6957 13 50C13 48.3043 13.1141 46.6352 13.335 45H45V13.335C46.6352 13.1141 48.3043 13 50 13C51.6957 13 53.3648 13.1141 55 13.335V45H86.665C86.8859 46.6352 87 48.3043 87 50C87 51.6957 86.8859 53.3648 86.665 55H55V86.665Z"
        fill="#DD0000" />
</svg>