<svg width="100" height="100" viewBox="0 0 100 100" fill="none" xmlns="http://www.w3.org/2000/svg">
    <circle cx="50" cy="50" r="41" fill="#F0F0F0" stroke="currentcolor" stroke-width="8" />
    <path
        d="M18.7981 38.2126L27.1186 25.7319L29.1987 27.1186L20.8782 39.5994L18.7981 38.2126ZM21.9183 40.2928L30.2388 27.812L32.3189 29.1988L23.9984 41.6795L21.9183 40.2928ZM25.0385 42.3729L33.359 29.8921L35.4391 31.2789L27.1186 43.7596L25.0385 42.3729Z"
        fill="black" />
    <path fill-rule="evenodd" clip-rule="evenodd"
        d="M68.3745 63.0008L64.5609 68.7212L66.641 70.1079L70.4546 64.3876L68.3745 63.0008ZM69.0678 61.9607L71.148 63.3475L74.9615 57.6272L72.8814 56.2404L69.0678 61.9607ZM71.4947 65.0809L67.6811 70.8013L69.7612 72.188L73.5748 66.4677L71.4947 65.0809ZM74.2682 65.4276L72.188 64.0409L76.0016 58.3205L78.0817 59.7073L74.2682 65.4276ZM74.6148 67.1611L70.8013 72.8814L72.8814 74.2682L76.695 68.5478L74.6148 67.1611ZM77.3883 67.5077L75.3082 66.121L79.1218 60.4007L81.2019 61.7874L77.3883 67.5077Z"
        fill="black" />
    <path
        d="M37.5192 41.6795C39.726 38.3694 43.1573 36.0715 47.0583 35.2913C50.9593 34.5111 55.0104 35.3125 58.3205 37.5193C61.6306 39.726 63.9285 43.1573 64.7087 47.0583C65.4889 50.9593 64.6875 55.0104 62.4808 58.3205L37.5192 41.6795Z"
        fill="#CD2E3A" />
    <path
        d="M37.5192 41.6795C35.3125 44.9896 34.5111 49.0408 35.2913 52.9418C36.0715 56.8428 38.3694 60.274 41.6795 62.4808C44.9896 64.6875 49.0407 65.4889 52.9417 64.7087C56.8427 63.9285 60.274 61.6306 62.4808 58.3205C63.5841 56.6655 63.9848 54.6399 63.5947 52.6894C63.2046 50.7389 62.0557 49.0233 60.4006 47.9199C58.7456 46.8165 56.72 46.4158 54.7695 46.8059C52.819 47.196 51.1034 48.345 50 50L37.5192 41.6795Z"
        fill="#0047A0" />
    <path
        d="M50 50C52.2976 46.5536 51.3663 41.8971 47.9199 39.5994C44.4734 37.3018 39.8169 38.2331 37.5192 41.6795C35.2216 45.126 36.1529 49.7825 39.5994 52.0802C43.0458 54.3778 47.7024 53.4465 50 50Z"
        fill="#CD2E3A" />
    <path fill-rule="evenodd" clip-rule="evenodd"
        d="M18.7981 61.7874L27.1186 74.2681L29.1987 72.8814L20.8782 60.4006L18.7981 61.7874ZM26.4253 66.4677L30.2388 72.188L32.3189 70.8012L28.5054 65.0809L26.4253 66.4677ZM25.7319 65.4276L27.812 64.0409L23.9984 58.3205L21.9183 59.7072L25.7319 65.4276ZM25.0385 57.6271L33.359 70.1079L35.4391 68.7211L27.1186 56.2404L25.0385 57.6271Z"
        fill="black" />
    <path fill-rule="evenodd" clip-rule="evenodd"
        d="M72.8814 43.7597L69.0678 38.0393L71.1479 36.6525L74.9615 42.3729L72.8814 43.7597ZM70.4545 35.6125L68.3744 36.9992L64.5609 31.2789L66.641 29.8922L70.4545 35.6125ZM76.0016 41.6796L67.6811 29.1988L69.7612 27.8121L78.0817 40.2928L76.0016 41.6796ZM74.6148 32.839L70.8013 27.1187L72.8814 25.7319L76.6949 31.4523L74.6148 32.839ZM75.3082 33.8791L79.1218 39.5994L81.2019 38.2127L77.3883 32.4923L75.3082 33.8791Z"
        fill="black" />
</svg>