<svg width="100" height="100" viewBox="0 0 100 100" fill="none" xmlns="http://www.w3.org/2000/svg">
    <path fill-rule="evenodd" clip-rule="evenodd"
        d="M87 50C87 70.4345 70.4345 87 50 87C29.5655 87 13 70.4345 13 50C13 29.5655 29.5655 13 50 13C70.4345 13 87 29.5655 87 50Z"
        fill="#006AA7" />
    <path fill-rule="evenodd" clip-rule="evenodd"
        d="M45.375 86.7137V54.75H86.6979C86.8972 53.1948 87 51.6094 87 50C87 48.4767 86.908 46.975 86.7291 45.5H45.375V13.2863C42.1438 13.6892 39.042 14.5088 36.125 15.6895V45.5H13.2709C13.092 46.975 13 48.4767 13 50C13 51.6094 13.1028 53.1948 13.3021 54.75H36.125V84.3105C39.042 85.4912 42.1438 86.3108 45.375 86.7137Z"
        fill="#FECC00" />
    <circle cx="50" cy="50" r="41" stroke="currentcolor" stroke-width="8" />
</svg>