<svg width="100" height="100" viewBox="0 0 100 100" fill="none" xmlns="http://www.w3.org/2000/svg">
    <path
        d="M50 87C70.4345 87 87 70.4345 87 50C87 29.5655 70.4345 13 50 13C29.5655 13 13 29.5655 13 50C13 70.4345 29.5655 87 50 87Z"
        fill="#F0F0F0" />
    <path fill-rule="evenodd" clip-rule="evenodd"
        d="M81.5694 30.6957H48.3914V21.0435H73.0319C76.4085 23.7329 79.3044 26.9997 81.5694 30.6957ZM87 50H48.3914V40.3478H85.7254C86.5548 43.4253 87 46.6605 87 50ZM50 87C58.7079 87 66.7116 83.9903 73.0319 78.9565H26.9681C33.2884 83.9903 41.2921 87 50 87ZM81.5694 69.3043H18.4306C16.6123 66.3372 15.2021 63.094 14.2746 59.6521H85.7254C84.7979 63.094 83.3877 66.3372 81.5694 69.3043Z"
        fill="#D80027" />
    <path
        d="M30.1391 18.7781H33.5109L30.3745 21.0566L31.5726 24.7435L28.4364 22.4649L25.3002 24.7435L26.335 21.5584C23.5736 23.8586 21.1533 26.5536 19.1588 29.5563H20.2391L18.2427 31.0067C17.9317 31.5256 17.6334 32.0527 17.3475 32.5876L18.3008 35.5217L16.5222 34.2295C16.0801 35.1662 15.6757 36.124 15.3122 37.1017L16.3625 40.3346H20.2391L17.1028 42.6132L18.3008 46.3L15.1646 44.0215L13.286 45.3864C13.098 46.8979 13 48.4375 13 50H50C50 29.5656 50 27.1565 50 13C42.6908 13 35.8771 15.1203 30.1391 18.7781ZM31.5726 46.3L28.4364 44.0215L25.3002 46.3L26.4982 42.6132L23.3619 40.3346H27.2385L28.4364 36.6478L29.6342 40.3346H33.5109L30.3745 42.6132L31.5726 46.3ZM30.3745 31.8349L31.5726 35.5217L28.4364 33.2432L25.3002 35.5217L26.4982 31.8349L23.3619 29.5563H27.2385L28.4364 25.8695L29.6342 29.5563H33.5109L30.3745 31.8349ZM44.8443 46.3L41.7081 44.0215L38.5719 46.3L39.7699 42.6132L36.6336 40.3346H40.5102L41.7081 36.6478L42.906 40.3346H46.7826L43.6463 42.6132L44.8443 46.3ZM43.6463 31.8349L44.8443 35.5217L41.7081 33.2432L38.5719 35.5217L39.7699 31.8349L36.6336 29.5563H40.5102L41.7081 25.8695L42.906 29.5563H46.7826L43.6463 31.8349ZM43.6463 21.0566L44.8443 24.7435L41.7081 22.4649L38.5719 24.7435L39.7699 21.0566L36.6336 18.7781H40.5102L41.7081 15.0912L42.906 18.7781H46.7826L43.6463 21.0566Z"
        fill="#0052B4" />
    <circle cx="50" cy="50" r="41" stroke="currentcolor" stroke-width="8" />
</svg>