<svg width="100" height="100" viewBox="0 0 100 100" fill="none" xmlns="http://www.w3.org/2000/svg">
    <path fill-rule="evenodd" clip-rule="evenodd"
        d="M92 17.352L80 21.6378V78H92L92 17.352ZM77.3093 14.1038C74.1254 15.2409 72 18.2568 72 21.6378V78C72 82.4183 75.5817 86 80 86H92C96.4183 86 100 82.4183 100 78V17.352C100 11.8198 94.5193 7.95741 89.3093 9.81811L77.3093 14.1038ZM36 41.6378C36 38.2568 38.1254 35.2409 41.3093 34.1038L53.3093 29.8181C58.5193 27.9574 64 31.8198 64 37.352V78C64 82.4183 60.4183 86 56 86H44C39.5817 86 36 82.4183 36 78V41.6378ZM5.30931 54.1038C2.12537 55.2409 0 58.2568 0 61.6378V78C0 82.4183 3.58172 86 8 86H20C24.4183 86 28 82.4183 28 78V57.352C28 51.8198 22.5193 47.9574 17.3093 49.8181L5.30931 54.1038Z"
        fill="currentcolor" />
</svg>