<svg width="100" height="100" viewBox="0 0 100 100" fill="none" xmlns="http://www.w3.org/2000/svg">
    <path fill-rule="evenodd" clip-rule="evenodd"
        d="M0 14C0 11.7909 1.79086 10 4 10H20C22.2091 10 24 11.7909 24 14C24 16.2091 22.2091 18 20 18H8V26H20C22.2091 26 24 27.7909 24 30V46C24 48.2091 22.2091 50 20 50H4C1.79086 50 0 48.2091 0 46C0 43.7909 1.79086 42 4 42H16V34H4C1.79086 34 0 32.2091 0 30V14ZM36 10C38.2091 10 40 11.7909 40 14V42H52C54.2091 42 56 43.7909 56 46C56 48.2091 54.2091 50 52 50H36C33.7909 50 32 48.2091 32 46V14C32 11.7909 33.7909 10 36 10ZM100 14C100 11.7909 98.2091 10 96 10C93.7909 10 92 11.7909 92 14V86C92 88.2091 93.7909 90 96 90C98.2091 90 100 88.2091 100 86V14ZM76 38C78.2091 38 80 39.7909 80 42V86C80 88.2091 78.2091 90 76 90C73.7909 90 72 88.2091 72 86V42C72 39.7909 73.7909 38 76 38ZM60 62C60 59.7909 58.2091 58 56 58C53.7909 58 52 59.7909 52 62V86C52 88.2091 53.7909 90 56 90C58.2091 90 60 88.2091 60 86V62Z"
        fill="currentcolor" />
</svg>