<svg width="100" height="100" viewBox="0 0 100 100" fill="none" xmlns="http://www.w3.org/2000/svg">
    <path fill-rule="evenodd" clip-rule="evenodd"
        d="M10.9664 5.09333C9.40428 3.53123 6.87162 3.53123 5.30952 5.09333C3.74743 6.65542 3.74743 9.18808 5.30952 10.7502L18.3234 23.7641C18.2764 23.8833 18.2121 24.0471 18.1328 24.2511C17.9577 24.7015 17.7089 25.3481 17.4111 26.1423C16.8164 27.7281 16.0215 29.9139 15.2244 32.3054C14.4299 34.6889 13.6183 37.321 13.0012 39.7895C12.4041 42.1776 11.9102 44.7121 11.9102 46.7831C11.9102 53.765 16.4762 60.9338 24.3458 62.7696V83.1987H19.0191C16.8099 83.1987 15.0191 84.9895 15.0191 87.1987C15.0191 89.4078 16.8099 91.1987 19.0191 91.1987H37.6725C39.8816 91.1987 41.6725 89.4078 41.6725 87.1987C41.6725 84.9895 39.8816 83.1987 37.6725 83.1987H32.3458V62.7696C39.0352 61.2091 43.3376 55.7952 44.4775 49.9182L49.2169 54.6576V71.6462L49.2169 71.6541L49.2169 71.6619V87.1987C49.2169 89.4078 51.0078 91.1987 53.2169 91.1987H84.3059C84.7433 91.1987 85.1642 91.1285 85.5581 90.9988L89.2497 94.6904C90.8118 96.2525 93.3445 96.2525 94.9066 94.6904C96.4687 93.1283 96.4687 90.5956 94.9066 89.0335L68.4929 62.6198C68.4849 62.6118 68.477 62.6039 68.469 62.5959L42.7005 36.8274C42.3938 36.3562 41.9943 35.9615 41.5346 35.6616L10.9664 5.09333ZM32.1245 37.5652L24.5249 29.9656C24.0165 31.3463 23.4145 33.0332 22.8138 34.8352C22.5152 35.731 22.2193 36.6483 21.9367 37.5652H32.1245ZM61.6525 67.0932L57.2169 62.6576V67.6541H61.6525V67.0932ZM68.7475 74.1882C68.014 75.0831 66.8999 75.6541 65.6525 75.6541L65.6407 75.6541H57.2169V83.1987H77.758L68.7475 74.1882ZM58.5436 12.5852C58.5436 10.3761 60.3345 8.58521 62.5436 8.58521H74.9792C77.1884 8.58521 78.9792 10.3761 78.9792 12.5852V33.9534C84.3647 35.4967 88.3059 40.4575 88.3059 46.3389V65.4364C88.3059 67.6456 86.515 69.4364 84.3059 69.4364C82.0968 69.4364 80.3059 67.6456 80.3059 65.4364V46.3389C80.3059 43.6424 78.1199 41.4564 75.4233 41.4564C72.9689 41.4564 70.9792 39.4667 70.9792 37.0122V28.0208H66.5436V37.4564C66.5436 39.6655 64.7528 41.4564 62.5436 41.4564C60.9334 41.4564 60.223 41.7716 59.8412 42.0659C58.0915 43.4146 55.5798 43.0896 54.2311 41.3399C52.8824 39.5902 53.2075 37.0785 54.9571 35.7298C56.0785 34.8654 57.2944 34.3041 58.5436 33.9555V12.5852ZM70.9792 16.5852V22.0208H66.5436V16.5852H70.9792ZM20.3404 43.5652C20.0533 44.9526 19.9102 46.0453 19.9102 46.7831C19.9102 51.1265 23.1032 55.2187 28.3458 55.2187C33.5884 55.2187 36.7814 51.1265 36.7814 46.7831C36.7814 46.0197 36.6322 44.9207 36.3511 43.5652H20.3404Z"
        fill="currentcolor" />
</svg>