<svg width="100" height="100" viewBox="0 0 100 100" fill="none" xmlns="http://www.w3.org/2000/svg">
    <path fill-rule="evenodd" clip-rule="evenodd"
        d="M58.5436 12.5853C58.5436 10.3761 60.3345 8.58527 62.5436 8.58527H74.9792C77.1883 8.58527 78.9792 10.3761 78.9792 12.5853V33.9534C84.3646 35.4967 88.3059 40.4576 88.3059 46.339V87.1988C88.3059 89.4079 86.515 91.1988 84.3059 91.1988H53.2169C51.0078 91.1988 49.2169 89.4079 49.2169 87.1988V71.6542V53.0008V46.339C49.2169 40.4576 53.1582 35.4967 58.5436 33.9534V12.5853ZM57.2169 75.6542V83.1988H80.3059V46.339C80.3059 43.6424 78.1199 41.4564 75.4233 41.4564C72.9689 41.4564 70.9792 39.4667 70.9792 37.0123V28.0208H66.5436V37.0123C66.5436 39.4667 64.5539 41.4564 62.0995 41.4564C59.4029 41.4564 57.2169 43.6424 57.2169 46.339V49.0008H65.6525L65.6784 49.0009C67.8756 49.0148 69.6525 50.8003 69.6525 53.0008L69.6525 71.6542C69.6525 73.8633 67.8617 75.6542 65.6525 75.6542L57.2169 75.6542ZM61.6525 67.6542H57.2169V57.0008H61.6525V67.6542ZM70.9792 16.5853V22.0208H66.5436V16.5853H70.9792ZM18.4141 23.5353C19.0215 22.0166 20.4924 21.0208 22.128 21.0208H34.5636C36.1992 21.0208 37.67 22.0166 38.2775 23.5353L34.5636 25.0208C38.2775 23.5353 38.2776 23.5356 38.2777 23.5359L38.2782 23.537L38.2794 23.5401L38.2836 23.5506L38.2986 23.5883L38.354 23.7282C38.4019 23.8495 38.4712 24.0259 38.5588 24.2511C38.7339 24.7015 38.9826 25.3481 39.2804 26.1423C39.8751 27.7281 40.67 29.9139 41.4672 32.3054C42.2617 34.6889 43.0733 37.321 43.6904 39.7895C44.2874 42.1776 44.7814 44.7121 44.7814 46.7831C44.7814 53.765 40.2154 60.9338 32.3458 62.7696V83.1987H37.6725C39.8816 83.1987 41.6725 84.9896 41.6725 87.1987C41.6725 89.4079 39.8816 91.1987 37.6725 91.1987H19.0191C16.8099 91.1987 15.0191 89.4079 15.0191 87.1987C15.0191 84.9896 16.8099 83.1987 19.0191 83.1987H24.3458V62.7696C16.4762 60.9338 11.9102 53.765 11.9102 46.7831C11.9102 44.7121 12.4041 42.1776 13.0012 39.7895C13.6183 37.321 14.4299 34.6889 15.2244 32.3054C16.0215 29.9139 16.8164 27.7281 17.4111 26.1423C17.7089 25.3481 17.9577 24.7015 18.1328 24.2511C18.2204 24.0259 18.2897 23.8495 18.3375 23.7282L18.393 23.5883L18.408 23.5506L18.4121 23.5401L18.4134 23.537L18.4138 23.5359C18.414 23.5356 18.4141 23.5353 22.128 25.0208L18.4141 23.5353ZM24.8757 29.0208C24.3076 30.5376 23.5597 32.5977 22.8138 34.8352C22.5152 35.731 22.2193 36.6483 21.9367 37.5652L34.7548 37.5652C34.4723 36.6483 34.1763 35.731 33.8777 34.8352C33.1319 32.5977 32.3839 30.5376 31.8158 29.0208H24.8757ZM36.3511 43.5652H20.3404C20.0533 44.9526 19.9102 46.0453 19.9102 46.7831C19.9102 51.1265 23.1032 55.2187 28.3458 55.2187C33.5884 55.2187 36.7814 51.1265 36.7814 46.7831C36.7814 46.0453 36.6382 44.9526 36.3511 43.5652Z"
        fill="currentcolor" />
</svg>