<svg width="100" height="100" viewBox="0 0 100 100" fill="none" xmlns="http://www.w3.org/2000/svg">
    <path fill-rule="evenodd" clip-rule="evenodd"
        d="M90.8284 8.17157C92.3905 9.73367 92.3905 12.2663 90.8284 13.8284L80.5147 24.1421H85.2132C87.4223 24.1421 89.2132 25.933 89.2132 28.1421C89.2132 30.3513 87.4223 32.1421 85.2132 32.1421H72.5147L67.5147 37.1421H72.2132C74.4223 37.1421 76.2132 38.933 76.2132 41.1421C76.2132 43.3513 74.4223 45.1421 72.2132 45.1421H58.0711C56.478 45.1421 55.1025 44.2109 54.4592 42.863C54.0326 42.053 53.9033 41.1274 54.0711 40.2472V27C54.0711 24.7909 55.8619 23 58.0711 23C60.2802 23 62.0711 24.7909 62.0711 27V31.2721L67.0711 26.2721V14C67.0711 11.7909 68.8619 10 71.0711 10C73.2802 10 75.0711 11.7909 75.0711 14V18.2721L85.1716 8.17157C86.7337 6.60948 89.2663 6.60948 90.8284 8.17157ZM30.5777 56.2112C29.9001 54.856 28.5151 54 27 54C25.4849 54 24.0999 54.856 23.4223 56.2112L8.42229 86.2112C7.80231 87.4511 7.86857 88.9237 8.5974 90.1029C9.32622 91.2822 10.6137 92 12 92H42C43.3863 92 44.6738 91.2822 45.4026 90.1029C46.1314 88.9237 46.1977 87.4511 45.5777 86.2112L30.5777 56.2112ZM27 66.9443L35.5279 84H18.4721L27 66.9443ZM54 58C54 55.7909 55.7909 54 58 54H88C90.2091 54 92 55.7909 92 58V88C92 90.2091 90.2091 92 88 92H58C55.7909 92 54 90.2091 54 88V58ZM62 62V84H84V62H62ZM27.25 8.58527C20.7372 8.58527 16.9329 13.9103 14.984 18.1946C12.9259 22.7189 12 27.9735 12 31.3353C12 34.8308 12.966 38.6499 15.5332 41.6635C18.1924 44.7853 22.1832 46.5853 27.25 46.5853C32.3167 46.5853 36.3076 44.7853 38.9668 41.6635C41.534 38.6499 42.5 34.8308 42.5 31.3353C42.5 27.9735 41.5741 22.7189 39.516 18.1946C37.5671 13.9103 33.7628 8.58527 27.25 8.58527ZM20 31.3353C20 29.072 20.6991 24.9517 22.266 21.5072C23.9421 17.8227 25.7628 16.5853 27.25 16.5853C28.7372 16.5853 30.5579 17.8227 32.234 21.5072C33.8009 24.9517 34.5 29.072 34.5 31.3353C34.5 33.4648 33.9035 35.2706 32.8769 36.4758C31.9424 37.5728 30.3083 38.5853 27.25 38.5853C24.1917 38.5853 22.5576 37.5728 21.6231 36.4758C20.5965 35.2706 20 33.4648 20 31.3353Z"
        fill="currentcolor" />
</svg>