<svg width="100" height="100" viewBox="0 0 100 100" fill="none" xmlns="http://www.w3.org/2000/svg">
    <path fill-rule="evenodd" clip-rule="evenodd"
        d="M10.9664 5.09333C9.40428 3.53123 6.87162 3.53123 5.30952 5.09333C3.74743 6.65542 3.74743 9.18808 5.30952 10.7502L24.5673 30.008C20.1232 40.2376 18.128 51.9269 18.128 59.2186C18.128 66.8967 20.2558 74.8983 25.4951 81.0488C30.8266 87.3074 38.9999 91.1987 50.108 91.1987C61.5974 91.1987 69.8691 87.0321 75.1243 80.5649L89.2497 94.6904C90.8118 96.2525 93.3445 96.2525 94.9066 94.6904C96.4687 93.1283 96.4687 90.5956 94.9066 89.0335L10.9664 5.09333ZM69.4244 74.8651L66.0659 71.5066C64.1025 74.4317 61.4896 76.6534 58.1147 78.3408C56.1388 79.3288 53.7361 78.5279 52.7481 76.552C51.7602 74.5761 52.5611 72.1734 54.537 71.1854C57.1864 69.8607 58.9553 68.1815 60.2289 65.6696L30.7114 36.1521C27.5621 44.5592 26.128 53.6266 26.128 59.2186C26.128 65.5306 27.8863 71.519 31.5851 75.8611C35.1917 80.0949 41.0084 83.1987 50.108 83.1987C59.7907 83.1987 65.8274 79.6902 69.4244 74.8651ZM34.2555 15.3156C38.4504 11.3118 43.7385 8.58521 50.108 8.58521C62.5693 8.58521 70.5561 18.7899 75.2004 28.9994C79.9539 39.4489 82.0881 51.6744 82.0881 59.2186C82.0881 61.4278 80.2972 63.2186 78.0881 63.2186C75.879 63.2186 74.0881 61.4278 74.0881 59.2186C74.0881 52.7729 72.1807 41.6817 67.9184 32.3119C63.547 22.7022 57.5437 16.5852 50.108 16.5852C46.2244 16.5852 42.8278 18.1929 39.779 21.1027C38.1809 22.628 35.6489 22.569 34.1237 20.9709C32.5984 19.3728 32.6574 16.8409 34.2555 15.3156Z"
        fill="currentcolor" />
</svg>