<svg width="100" height="100" viewBox="0 0 100 100" fill="none" xmlns="http://www.w3.org/2000/svg">
    <path fill-rule="evenodd" clip-rule="evenodd"
        d="M50.108 8.58527C37.6468 8.58527 29.66 18.7899 25.0157 28.9994C20.2622 39.4489 18.128 51.6744 18.128 59.2187C18.128 66.8967 20.2558 74.8984 25.4951 81.0489C30.8266 87.3075 38.9999 91.1988 50.108 91.1988C61.2162 91.1988 69.3895 87.3075 74.721 81.0489C79.9603 74.8984 82.0881 66.8967 82.0881 59.2187C82.0881 51.6744 79.9539 39.4489 75.2004 28.9994C70.5561 18.7899 62.5693 8.58527 50.108 8.58527ZM26.128 59.2187C26.128 52.773 28.0353 41.6817 32.2976 32.312C36.6691 22.7023 42.6723 16.5853 50.108 16.5853C57.5437 16.5853 63.547 22.7023 67.9184 32.312C72.1807 41.6817 74.0881 52.773 74.0881 59.2187C74.0881 65.5307 72.3298 71.5191 68.631 75.8611C65.0244 80.095 59.2077 83.1988 50.108 83.1988C41.0084 83.1988 35.1917 80.095 31.5851 75.8611C27.8863 71.5191 26.128 65.5307 26.128 59.2187ZM69.5331 63.2977C70.0689 61.1545 68.7658 58.9827 66.6227 58.4469C64.4795 57.9111 62.3077 59.2142 61.772 61.3574C61.0848 64.1059 60.1828 66.0627 59.0716 67.5443C57.9792 69.0008 56.5495 70.1791 54.537 71.1854C52.5611 72.1733 51.7602 74.576 52.7481 76.5519C53.7361 78.5279 56.1388 79.3288 58.1147 78.3408C61.0765 76.8599 63.5328 74.9294 65.4716 72.3443C67.3916 69.7844 68.6658 66.7669 69.5331 63.2977Z"
        fill="currentcolor" />
</svg>