<svg width="100" height="100" viewBox="0 0 100 100" fill="none" xmlns="http://www.w3.org/2000/svg">
    <path fill-rule="evenodd" clip-rule="evenodd"
        d="M48.3023 26.8242C46.4406 26.3904 44.5697 26.1334 42.6837 26.0667C46.442 24.344 50.2465 23.7673 53.3246 24.6696C56.2099 25.5153 57.7756 27.6462 59.2322 31.3662C55.7742 29.3405 52.1463 27.72 48.3023 26.8242ZM76.4569 44.4085C74.8708 43.0682 73.2774 41.7218 71.6855 40.4087L71.7866 40.3102C70.8953 39.3959 70.136 38.0354 69.3674 36.0746C68.99 35.1119 68.6394 34.0844 68.2641 32.961L68.1114 32.5033L68.1113 32.503L68.1112 32.5025C67.7886 31.5345 67.443 30.4976 67.071 29.4799C65.3699 24.8261 62.6049 19.0532 55.5749 16.9926C49.0686 15.0855 42.1218 17.0669 36.7303 20.1398C32.139 22.7566 27.9548 26.5734 25.6591 30.6673C19.1858 34.3671 12.383 40.4131 5.05907 49.244C3.75318 50.8185 3.84573 53.1247 5.27359 54.5895C16.144 65.7415 25.7855 72.0805 34.84 74.4787C37.826 79.3315 44.463 84.7577 56.0015 85.5938C60.318 85.9065 64.0436 85.4535 66.6409 83.6397C68.0435 82.6602 69.0644 81.312 69.5479 79.6883C70.0146 78.1208 69.8978 76.5817 69.5475 75.2679C68.8691 72.7236 67.1683 70.4193 65.3411 68.6783C65.1957 68.5398 65.0471 68.4026 64.8956 68.2669C69.6678 65.1588 74.2719 61.3287 78.8477 57.3175L89.2138 67.9522C90.3495 69.1174 92.0779 69.4784 93.5852 68.8654C95.0925 68.2523 96.0781 66.7873 96.0781 65.1602V39.9195C96.0781 38.3351 95.143 36.9 93.6935 36.2602C92.2441 35.6203 90.5536 35.8963 89.3829 36.9639L78.9313 46.4949C78.113 45.808 77.2916 45.1139 76.4682 44.4181L76.4638 44.4145L76.4609 44.412L76.4601 44.4113L76.4571 44.4088L76.4569 44.4085ZM57.0909 72.5439C54.1519 73.8296 51.1288 74.765 47.9931 75.2397C47.8225 75.2655 47.6519 75.2899 47.4811 75.313C49.7511 76.4426 52.7258 77.3354 56.5797 77.6147C59.6893 77.84 61.1887 77.4712 61.7861 77.2224C61.5814 76.5862 60.9637 75.5575 59.8225 74.4702C58.9639 73.6521 58.0011 72.9864 57.0909 72.5439ZM13.581 51.5796C18.4832 56.335 22.9262 59.8387 26.9978 62.3351C31.3775 56.9628 33.0828 52.7505 33.0828 49.3011C33.0828 46.0878 31.5876 42.6941 27.5949 38.8495C23.3856 41.5964 18.749 45.6974 13.581 51.5796ZM46.7958 67.3298C43.0311 67.8996 38.9394 67.6012 34.3429 65.9404C38.5868 60.3812 41.0828 54.885 41.0828 49.3011C41.0828 44.0446 38.885 39.3862 35.1223 35.1456C39.3227 33.7869 43.0603 33.817 46.4866 34.6154C51.219 35.7183 55.8991 38.3858 60.9112 42.097C64.2746 44.5874 67.5569 47.3625 71.0237 50.2935L71.0237 50.2936L71.0245 50.2942L71.0326 50.3011C71.6501 50.8232 72.2735 51.3502 72.9043 51.8815C63.4219 60.1242 55.4147 66.0252 46.7958 67.3298ZM84.8037 51.9667L88.0781 48.9807V55.3259L84.8037 51.9667ZM21.8104 46.8142C21.8104 44.3418 23.7693 42.3023 26.2285 42.3023C28.6877 42.3023 30.6466 44.3418 30.6466 46.8142C30.6466 49.2866 28.6877 51.326 26.2285 51.326C23.7693 51.326 21.8104 49.2866 21.8104 46.8142Z"
        fill="currentcolor" />
</svg>