<svg width="100" height="100" viewBox="0 0 100 100" fill="none" xmlns="http://www.w3.org/2000/svg">
    <path fill-rule="evenodd" clip-rule="evenodd"
        d="M10.9664 5.09333C9.40428 3.53123 6.87162 3.53123 5.30952 5.09333C3.74743 6.65542 3.74743 9.18808 5.30952 10.7502L25.3828 30.8235C18.9806 34.5354 12.2842 40.5325 5.05907 49.2441C3.75318 50.8187 3.84573 53.1248 5.27359 54.5897C16.1238 65.721 25.7449 72.0694 34.8373 74.4743C37.822 79.3283 44.4596 84.7574 56.0015 85.5938C60.318 85.9065 64.0436 85.4535 66.6409 83.6397C68.0435 82.6602 69.0644 81.312 69.5479 79.6883C70.0146 78.1208 69.8978 76.5817 69.5475 75.2679C69.5124 75.1362 69.4746 75.0051 69.4341 74.8747L89.2497 94.6904C90.8118 96.2525 93.3445 96.2525 94.9066 94.6904C96.4687 93.1283 96.4687 90.5956 94.9066 89.0335L10.9664 5.09333ZM57.7988 63.2394L40.8337 46.2744C40.9982 47.2612 41.0828 48.2696 41.0828 49.3011C41.0828 54.8855 38.5863 60.3823 34.3417 65.942C36.1466 66.5957 37.8699 67.0377 39.5216 67.2989C45.8584 68.301 51.703 66.7262 57.7988 63.2394ZM42.8523 25.9913C46.6119 24.3049 50.321 23.7892 53.3246 24.6696C56.21 25.5153 57.7757 27.6464 59.2325 31.3668C56.8221 29.9548 54.3363 28.7434 51.7602 27.8369C49.6763 27.1035 47.3925 28.1984 46.6592 30.2822C45.9259 32.3661 47.0207 34.6499 49.1046 35.3832C53.4234 36.9031 57.7222 39.6315 62.2959 43.1416C65.2165 45.3831 68.0622 47.7893 71.0427 50.3095C71.6575 50.8293 72.278 51.3539 72.906 51.883C72.6082 52.1422 72.3114 52.3996 72.0153 52.6551C70.3428 54.0984 70.157 56.6242 71.6003 58.2967C73.0436 59.9692 75.5694 60.155 77.2419 58.7117C77.7755 58.2512 78.3104 57.7858 78.8465 57.3165L89.2138 67.9523C90.3495 69.1175 92.0779 69.4786 93.5852 68.8655C95.0925 68.2525 96.0781 66.7875 96.0781 65.1603V39.9196C96.0781 38.3353 95.143 36.9002 93.6935 36.2603C92.2441 35.6205 90.5536 35.8965 89.3829 36.9641L78.9312 46.4951C78.104 45.8007 77.2728 45.0984 76.4397 44.3945L76.4394 44.3943L76.4379 44.393C75.0411 43.2128 73.6391 42.0281 72.2415 40.8689C72.1092 40.6727 71.9576 40.4856 71.7866 40.3102C70.8953 39.3959 70.136 38.0354 69.3674 36.0746C68.99 35.1119 68.6394 34.0844 68.2641 32.961L68.1114 32.5033C67.7888 31.5351 67.4431 30.4978 67.071 29.4799C65.3699 24.8261 62.6049 19.0532 55.5749 16.9926C50.1324 15.3973 44.3895 16.5339 39.5782 18.692C37.5625 19.5961 36.6615 21.963 37.5656 23.9787C38.4697 25.9943 40.8366 26.8954 42.8523 25.9913ZM88.0781 55.3261L84.8037 51.9668L88.0781 48.9808V55.3261ZM27.5984 38.8529C31.5884 42.6961 33.0828 46.0887 33.0828 49.3011C33.0828 52.7501 31.3779 56.962 26.9991 62.3335C22.9324 59.8391 18.4867 56.3371 13.5814 51.5799C18.7485 45.702 23.3938 41.6005 27.5984 38.8529ZM56.5797 77.6147C52.727 77.3355 49.7528 76.4431 47.4831 75.314C50.821 74.8631 54.0141 73.8943 57.0961 72.5464C58.0047 72.9889 58.9655 73.6536 59.8225 74.4702C60.9637 75.5575 61.5814 76.5862 61.7861 77.2224C61.1887 77.4712 59.6893 77.84 56.5797 77.6147ZM26.2285 42.3023C23.7693 42.3023 21.8104 44.3418 21.8104 46.8142C21.8104 49.2866 23.7693 51.326 26.2285 51.326C28.6877 51.326 30.6466 49.2866 30.6466 46.8142C30.6466 44.3418 28.6877 42.3023 26.2285 42.3023Z"
        fill="currentcolor" />
</svg>