<svg width="100" height="100" viewBox="0 0 100 100" fill="none" xmlns="http://www.w3.org/2000/svg">
    <path fill-rule="evenodd" clip-rule="evenodd"
        d="M10.9664 5.09333C9.40428 3.53123 6.87162 3.53123 5.30952 5.09333C3.74743 6.65542 3.74743 9.18808 5.30952 10.7502L22.8151 28.2557C19.0243 31.7363 17.3443 36.711 17.0426 41.8697C16.6503 48.5777 18.4874 56.1843 21.4411 63.1972C24.4101 70.2464 28.657 77.0534 33.4497 82.1674C38.0947 87.1239 43.9304 91.1986 50.108 91.1986C54.7553 91.1986 59.1682 88.8843 62.9237 85.7937C65.9028 83.3421 68.7212 80.1984 71.2465 76.6871L89.2497 94.6904C90.8118 96.2525 93.3445 96.2525 94.9066 94.6904C96.4687 93.1283 96.4687 90.5956 94.9066 89.0335L10.9664 5.09333ZM65.5035 70.9441L28.4897 33.9303C26.4295 35.674 25.2569 38.4396 25.029 42.3368C24.7326 47.4038 26.14 53.7433 28.8139 60.092C31.4725 66.4044 35.2361 72.3744 39.287 76.6969C43.4855 81.177 47.3263 83.1986 50.108 83.1986C52.1259 83.1986 54.7751 82.139 57.8402 79.6165C60.4568 77.4632 63.0905 74.4729 65.5035 70.9441ZM50.108 8.58521C52.3172 8.58521 54.108 10.3761 54.108 12.5852V15.2651C65.028 11.184 75.866 15.5873 80.9165 20.6378C82.0605 21.7818 82.4027 23.5023 81.7836 24.997C81.1645 26.4917 79.7059 27.4663 78.0881 27.4663C77.6054 27.4663 77.1108 27.5074 76.6104 27.5827C77.3228 28.1566 77.9814 28.7881 78.5846 29.4748C80.7854 31.9801 82.079 35.0244 82.7173 38.2344C83.9743 44.5561 82.7887 51.9688 80.4035 58.9327C79.6876 61.0227 77.4131 62.1366 75.3231 61.4208C73.2332 60.7049 72.1193 58.4304 72.8351 56.3405C74.9884 50.0537 75.7429 44.1801 74.8709 39.7946C74.4447 37.651 73.6564 35.9864 72.5743 34.7545C72.3776 34.5306 72.1654 34.3143 71.9361 34.107C72.4938 37.0852 72.7614 40.4042 72.7614 43.6741C72.7614 45.4367 71.6076 46.9916 69.9205 47.5024C68.2335 48.0132 66.411 47.3595 65.4332 45.8929C63.9811 43.7147 62.6933 42.1545 61.2107 40.9684C60.4019 40.3213 59.4827 39.7443 58.3698 39.2467C57.6051 40.1784 56.4297 40.7551 55.1321 40.7084C52.9244 40.6289 51.1992 38.7748 51.2786 36.5671L51.2819 36.4742V36.4741C51.304 35.8349 51.3463 34.612 51.6995 33.572C51.9055 32.9656 52.4 31.8412 53.6044 31.0541C54.939 30.1817 56.3442 30.2289 57.296 30.4668C59.6071 31.0446 61.6171 31.8285 63.4066 32.833C63.0592 31.7154 62.6826 30.8858 62.3243 30.3484C61.1467 28.582 61.5542 26.2034 63.2525 24.9296L64.892 27.1156L64.8921 27.1156C63.2527 24.9295 63.2534 24.9289 63.2541 24.9284L63.2558 24.9271L63.2597 24.9242L63.2692 24.9171L63.2951 24.8979C63.3155 24.8829 63.3419 24.8635 63.3743 24.84C63.439 24.7931 63.5274 24.7297 63.638 24.6523C63.859 24.4976 64.1698 24.2859 64.5582 24.0362C65.3187 23.5473 66.3927 22.9024 67.6837 22.2534C63.2012 21.1196 57.6829 21.449 52.5022 25.1175C52.3352 25.2423 52.1598 25.3529 51.9779 25.4489C51.7172 25.5869 51.4395 25.697 51.1487 25.7752C50.8066 25.8673 50.4566 25.9124 50.108 25.9121C49.7595 25.9124 49.4094 25.8673 49.0673 25.7752C48.7765 25.697 48.4988 25.5869 48.2381 25.4488C48.0562 25.3528 47.8808 25.2423 47.7138 25.1174C44.059 22.5289 40.3138 21.6137 36.875 21.6705C34.6661 21.707 32.846 19.9459 32.8095 17.7371C32.773 15.5282 34.5341 13.708 36.7429 13.6716C39.7721 13.6216 42.9449 14.0974 46.108 15.2746V12.5852C46.108 10.3761 47.8989 8.58521 50.108 8.58521ZM53.9942 71.3878C53.9942 73.534 52.2543 75.2739 50.108 75.2739C47.9618 75.2739 46.2219 73.534 46.2219 71.3878C46.2219 69.2415 47.9618 67.5016 50.108 67.5016C52.2543 67.5016 53.9942 69.2415 53.9942 71.3878ZM38.4497 60.773C40.5959 60.773 42.3358 59.0332 42.3358 56.8869C42.3358 54.7407 40.5959 53.0008 38.4497 53.0008C36.3034 53.0008 34.5636 54.7407 34.5636 56.8869C34.5636 59.0332 36.3034 60.773 38.4497 60.773Z"
        fill="currentcolor" />
</svg>