<svg width="100" height="100" viewBox="0 0 100 100" fill="none" xmlns="http://www.w3.org/2000/svg">
    <path fill-rule="evenodd" clip-rule="evenodd"
        d="M54.108 12.5853C54.108 10.3761 52.3172 8.58527 50.108 8.58527C47.8989 8.58527 46.108 10.3761 46.108 12.5853V15.2651C35.1881 11.184 24.3501 15.5873 19.2996 20.6378C18.1556 21.7818 17.8133 23.5023 18.4325 24.997C19.0516 26.4917 20.5101 27.4663 22.128 27.4663C22.6106 27.4663 23.1053 27.5074 23.6057 27.5827C22.7393 28.2807 21.9534 29.063 21.2504 29.925C19.0287 32.6494 17.8141 35.9474 17.2978 39.3889C16.2795 46.1777 17.8808 54.1149 20.7316 61.4456C23.6064 68.8379 27.9283 76.0703 32.859 81.5256C37.6285 86.8025 43.6899 91.1986 50.108 91.1986C56.5261 91.1986 62.5876 86.8025 67.357 81.5256C72.2878 76.0703 76.6096 68.8379 79.4844 61.4456C82.3353 54.1149 83.9365 46.1777 82.9182 39.3889C82.402 35.9474 81.1873 32.6494 78.9656 29.925C78.2627 29.063 77.4768 28.2807 76.6103 27.5827C77.1107 27.5074 77.6054 27.4663 78.0881 27.4663C79.7059 27.4663 81.1645 26.4917 81.7836 24.997C82.4027 23.5023 82.0605 21.7818 80.9165 20.6378C75.866 15.5873 65.028 11.184 54.108 15.2651V12.5853ZM51.0351 25.804C51.3797 25.7222 51.707 25.5959 52.0107 25.4314C52.1809 25.3395 52.3452 25.2348 52.5022 25.1175C57.6828 21.449 63.2012 21.1196 67.6837 22.2534C66.3927 22.9024 65.3187 23.5473 64.5582 24.0362C64.1698 24.2859 63.859 24.4976 63.638 24.6523C63.5274 24.7297 63.439 24.7931 63.3743 24.84L63.3379 24.8665L63.2951 24.8979L63.2692 24.9171L63.2597 24.9242L63.2558 24.9271L63.2541 24.9284C63.2534 24.9289 63.2527 24.9295 64.8921 27.1156L64.892 27.1156L63.2525 24.9296C61.5542 26.2034 61.1467 28.582 62.3243 30.3484C62.6826 30.8858 63.0592 31.7154 63.4066 32.833C61.6171 31.8285 59.6071 31.0446 57.296 30.4668C56.6262 30.2994 55.6837 30.2073 54.6545 30.5478C53.5801 30.9033 52.826 31.5925 52.3482 32.2767C51.5642 33.3995 51.4218 34.6665 51.3697 35.1407C51.3052 35.7274 51.2837 36.3915 51.2667 36.9175L51.2625 37.0436C51.2424 37.6539 51.2213 38.2189 51.169 38.7898C51.0354 40.249 50.7542 41.3018 50.108 42.0561C49.4619 41.3018 49.1806 40.249 49.047 38.7898C48.9948 38.2189 48.9737 37.6539 48.9535 37.0436L48.9494 36.9175C48.9324 36.3915 48.9109 35.7274 48.8464 35.1407C48.7943 34.6665 48.6519 33.3995 47.8678 32.2767C47.3901 31.5925 46.6359 30.9033 45.5616 30.5478C44.5324 30.2073 43.5899 30.2994 42.9201 30.4668C40.609 31.0446 38.599 31.8285 36.8095 32.833C37.1569 31.7154 37.5335 30.8858 37.8918 30.3484C39.0694 28.582 38.6619 26.2034 36.9636 24.9296L35.324 27.1157L35.324 27.1156C36.9634 24.9294 36.9627 24.9289 36.962 24.9284L36.9603 24.9271L36.9564 24.9242L36.9469 24.9171L36.9209 24.8979C36.9006 24.8829 36.8741 24.8635 36.8418 24.84C36.7771 24.7931 36.6887 24.7297 36.5781 24.6523C36.3571 24.4976 36.0462 24.2859 35.6579 24.0362C34.8974 23.5473 33.8234 22.9024 32.5324 22.2534C37.0149 21.1196 42.5332 21.449 47.7139 25.1175C47.8709 25.2348 48.0353 25.3395 48.2055 25.4314C48.5109 25.5968 48.8402 25.7237 49.187 25.8054C49.4909 25.8772 49.8 25.9124 50.108 25.9121C50.4181 25.9124 50.7293 25.8767 51.0351 25.804ZM28.28 34.1071C27.9749 34.383 27.6996 34.6752 27.4503 34.9809C26.3444 36.3369 25.5675 38.188 25.2093 40.5757C24.4789 45.4453 25.5979 51.8867 28.1877 58.546C30.7534 65.1437 34.5924 71.5127 38.794 76.1613C43.157 80.9884 47.1995 83.1986 50.108 83.1986C53.0166 83.1986 57.0591 80.9884 61.422 76.1613C65.6236 71.5127 69.4626 65.1437 72.0284 58.546C74.6181 51.8867 75.7372 45.4453 75.0067 40.5757C74.6486 38.188 73.8716 36.3369 72.7658 34.9809C72.5165 34.6752 72.2412 34.383 71.9361 34.1071C72.4939 37.0853 72.7614 40.4043 72.7614 43.6741C72.7614 45.4367 71.6076 46.9916 69.9205 47.5024C68.2335 48.0132 66.411 47.3595 65.4332 45.8929C63.9811 43.7147 62.6933 42.1545 61.2107 40.9684C60.5929 40.4742 59.9107 40.0207 59.127 39.6124C58.8086 42.9348 57.5447 48.112 51.602 50.4935C51.5571 50.5116 51.5119 50.5289 51.4664 50.5453C50.5564 50.8745 49.5997 50.8526 48.7497 50.5453C48.7042 50.5289 48.6591 50.5116 48.6142 50.4936C42.6714 48.1121 41.4075 42.9348 41.0891 39.6124C40.3054 40.0207 39.6232 40.4742 39.0054 40.9684C37.5227 42.1545 36.235 43.7147 34.7829 45.8929C33.8051 47.3595 31.9826 48.0132 30.2955 47.5024C28.6085 46.9916 27.4547 45.4367 27.4547 43.6741C27.4547 40.4043 27.7222 37.0853 28.28 34.1071ZM59.3441 35.8728C59.3452 35.8748 59.3411 35.9051 59.3287 35.9577C59.3367 35.8971 59.3429 35.8708 59.3441 35.8728ZM40.872 35.8728C40.8709 35.8748 40.8749 35.9051 40.8874 35.9577C40.8794 35.8971 40.8731 35.8708 40.872 35.8728ZM53.9942 71.3878C53.9942 73.5341 52.2543 75.2739 50.108 75.2739C47.9618 75.2739 46.2219 73.5341 46.2219 71.3878C46.2219 69.2416 47.9618 67.5017 50.108 67.5017C52.2543 67.5017 53.9942 69.2416 53.9942 71.3878ZM38.4497 60.773C40.5959 60.773 42.3358 59.0332 42.3358 56.8869C42.3358 54.7407 40.5959 53.0008 38.4497 53.0008C36.3034 53.0008 34.5636 54.7407 34.5636 56.8869C34.5636 59.0332 36.3034 60.773 38.4497 60.773ZM65.6525 56.8869C65.6525 59.0332 63.9126 60.773 61.7664 60.773C59.6201 60.773 57.8803 59.0332 57.8803 56.8869C57.8803 54.7407 59.6201 53.0008 61.7664 53.0008C63.9126 53.0008 65.6525 54.7407 65.6525 56.8869Z"
        fill="currentcolor" />
</svg>