<svg width="100" height="100" viewBox="0 0 100 100" fill="none" xmlns="http://www.w3.org/2000/svg">
    <g clip-path="url(#clip0_1998_12)">
        <path fill-rule="evenodd" clip-rule="evenodd"
            d="M91.6679 8.28894L95.5902 9.07341L96.7669 3.18992L90.8834 4.36662L91.6679 8.28894ZM77.3338 29.1001C78.7531 29.6379 80.2795 29.8136 81.8835 29.5463C84.7545 29.0678 87.1347 27.2722 89.0005 25.4065C90.3506 24.0564 91.3457 22.2106 92.072 20.5905C92.8358 18.8866 93.4755 17.0298 93.9832 15.3616C94.4946 13.6813 94.8935 12.121 95.1641 10.9844C95.2999 10.414 95.4046 9.94521 95.4762 9.61513C95.512 9.44997 95.5396 9.31921 95.5586 9.22746L95.5809 9.11955L95.5872 9.08855L95.5891 9.07897L95.5898 9.07568L95.59 9.07442C95.5901 9.07389 95.5902 9.07341 91.6679 8.28894C90.8834 4.36662 90.8829 4.36672 90.8824 4.36682L90.8812 4.36708L90.8779 4.36774L90.8683 4.36967L90.8373 4.37596L90.7294 4.39819C90.6376 4.41727 90.5069 4.44484 90.3417 4.48064C90.0116 4.5522 89.5428 4.65692 88.9725 4.79273C87.8359 5.06335 86.2756 5.46219 84.5953 5.97359C82.927 6.48132 81.0703 7.12106 79.3664 7.88487C77.7463 8.61112 75.9004 9.60629 74.5504 10.9563C72.6846 12.8221 70.8891 15.2023 70.4105 18.0734C70.071 20.1109 70.4463 22.0232 71.3705 23.7497L68.2343 26.886C68.0309 25.5046 67.7511 24.1278 67.4603 22.8756C67.063 21.1647 66.6283 19.614 66.2944 18.4944C66.1268 17.9325 65.9831 17.4742 65.88 17.1526C65.8285 16.9916 65.7869 16.8646 65.7576 16.7756L65.7229 16.671L65.7128 16.641L65.7097 16.6318L65.7087 16.6286L65.7082 16.6274C65.7081 16.6269 65.7079 16.6264 61.9188 17.9082L65.7079 16.6264L63.7852 10.9428L59.2783 14.9036L61.9188 17.9082C59.2783 14.9036 59.2779 14.9039 59.2775 14.9043L59.2766 14.9051L59.2741 14.9073L59.2667 14.9138L59.243 14.9348L59.1607 15.008C59.0908 15.0704 58.9913 15.1596 58.8662 15.2732C58.6161 15.5002 58.2625 15.8253 57.8364 16.2281C56.9874 17.0308 55.8356 18.1563 54.6361 19.4394C53.4452 20.7132 52.1571 22.1956 51.0634 23.709C50.0234 25.148 48.9225 26.9328 48.4283 28.777C47.7454 31.3257 47.3805 34.2848 48.4016 37.0104C49.2705 39.3297 50.9396 40.9794 53.1086 42.0117L47.3826 47.7377C47.1792 46.3564 46.8994 44.9796 46.6086 43.7274C46.2114 42.0165 45.7766 40.4659 45.4427 39.3462C45.2751 38.7844 45.1314 38.326 45.0283 38.0044C44.9768 37.8434 44.9353 37.7164 44.9059 37.6274L44.8712 37.5228L44.8612 37.4928L44.858 37.4836L44.857 37.4804L44.8566 37.4792C44.8564 37.4787 44.8562 37.4782 41.0672 38.76L44.8562 37.4782L42.9335 31.7946L38.4266 35.7554L41.0672 38.76C38.4266 35.7554 38.4263 35.7557 38.4259 35.7561L38.4249 35.7569L38.4224 35.7592L38.415 35.7656L38.3913 35.7866L38.309 35.8598C38.2391 35.9222 38.1396 36.0114 38.0145 36.125C37.7644 36.352 37.4108 36.6771 36.9847 37.0799C36.1357 37.8826 34.9839 39.0081 33.7844 40.2912C32.5935 41.565 31.3054 43.0474 30.2117 44.5608C29.1718 45.9998 28.0708 47.7846 27.5766 49.6288C26.8937 52.1775 26.5288 55.1366 27.55 57.8622C28.4188 60.1815 30.0879 61.8311 32.2568 62.8634L26.5309 68.5894C26.3276 67.208 26.0477 65.8312 25.7569 64.579C25.3597 62.8681 24.9249 61.3175 24.591 60.1978C24.4234 59.636 24.2797 59.1776 24.1766 58.856C24.1251 58.6951 24.0836 58.568 24.0542 58.479L24.0195 58.3745L24.0095 58.3445L24.0063 58.3352L24.0053 58.332L24.0049 58.3308C24.0047 58.3303 24.0045 58.3298 20.2155 59.6116L24.0045 58.3298L22.0818 52.6462L17.5749 56.607L20.2155 59.6116C17.5749 56.607 17.5746 56.6074 17.5742 56.6077L17.5732 56.6086L17.5707 56.6108L17.5633 56.6172L17.5396 56.6382L17.4573 56.7114C17.3874 56.7738 17.2879 56.8631 17.1628 56.9766C16.9127 57.2037 16.5591 57.5287 16.133 57.9315C15.284 58.7342 14.1322 59.8598 12.9327 61.1428C11.7418 62.4166 10.4537 63.899 9.36 65.4124C8.32007 66.8515 7.2191 68.6362 6.72495 70.4804C6.04203 73.0291 5.67714 75.9882 6.69827 78.7139C7.56716 81.0332 9.23619 82.6828 11.4052 83.7151L5.48192 89.6383C3.91982 91.2004 3.91983 93.7331 5.48193 95.2952C7.04402 96.8573 9.57668 96.8573 11.1388 95.2952L16.8216 89.6124C17.8539 91.2647 19.3177 92.5373 21.2429 93.2586C23.9686 94.2797 26.9277 93.9149 29.4764 93.2319C31.3206 92.7378 33.1054 91.6368 34.5444 90.5969C36.0578 89.5032 37.5402 88.2151 38.814 87.0242C40.0971 85.8247 41.2226 84.6729 42.0253 83.8239C42.4281 83.3978 42.7532 83.0442 42.9802 82.7941C43.0937 82.669 43.183 82.5695 43.2454 82.4996L43.3186 82.4172L43.3396 82.3935L43.346 82.3862L43.3482 82.3837L43.3491 82.3827C43.3494 82.3823 43.3498 82.382 40.3452 79.7414L43.3498 82.382L47.3106 77.8751L41.627 75.9524L40.3452 79.7414C41.627 75.9524 41.6265 75.9522 41.626 75.952L41.6248 75.9516L41.6216 75.9506L41.6123 75.9474L41.5823 75.9374L41.4778 75.9027C41.3888 75.8733 41.2617 75.8318 41.1008 75.7803C40.7792 75.6772 40.3208 75.5335 39.759 75.3659C38.6393 75.032 37.0887 74.5972 35.3778 74.2C34.553 74.0084 33.6742 73.8217 32.7756 73.6584L37.6733 68.7606C38.7056 70.4129 40.1694 71.6855 42.0946 72.4068C44.8203 73.4279 47.7794 73.063 50.3281 72.3801C52.1723 71.8859 53.957 70.7849 55.396 69.745C56.9095 68.6513 58.3919 67.3632 59.6657 66.1723C60.9487 64.9728 62.0743 63.821 62.877 62.972C63.2798 62.5459 63.6048 62.1923 63.8319 61.9422C63.9454 61.8171 64.0347 61.7176 64.0971 61.6477L64.1703 61.5654L64.1913 61.5417L64.1977 61.5343L64.1999 61.5318L64.2008 61.5309C64.2011 61.5305 64.2015 61.5301 61.1969 58.8896L64.2015 61.5301L68.1623 57.0232L62.4787 55.1005L61.1969 58.8896C62.4787 55.1005 62.4782 55.1003 62.4777 55.1002L62.4765 55.0998L62.4733 55.0987L62.464 55.0956L62.434 55.0855L62.3295 55.0508C62.2405 55.0215 62.1134 54.98 61.9525 54.9284C61.6309 54.8253 61.1725 54.6816 60.6106 54.514C59.491 54.1801 57.9403 53.7454 56.2295 53.3481C55.4047 53.1566 54.526 52.9698 53.6274 52.8065L58.7136 47.7204C59.7459 49.3726 61.2097 50.6452 63.1349 51.3665C65.8606 52.3876 68.8197 52.0227 71.3684 51.3398C73.2126 50.8456 74.9973 49.7447 76.4363 48.7047C77.9497 47.611 79.4322 46.3229 80.706 45.132C81.989 43.9325 83.1146 42.7807 83.9172 41.9317C84.32 41.5056 84.6451 41.152 84.8721 40.9019C84.9857 40.7768 85.075 40.6773 85.1374 40.6074L85.2106 40.5251L85.2315 40.5014L85.238 40.4941L85.2402 40.4915L85.2411 40.4906C85.2414 40.4902 85.2417 40.4898 82.2371 37.8493L85.2417 40.4898L89.2025 35.9829L83.5189 34.0602L82.2371 37.8493C83.5189 34.0602 83.5185 34.0601 83.518 34.0599L83.5167 34.0595L83.5136 34.0584L83.5043 34.0553L83.4743 34.0452L83.3697 34.0105C83.2807 33.9812 83.1537 33.9397 82.9928 33.8881C82.6711 33.785 82.2128 33.6413 81.6509 33.4737C80.5313 33.1398 78.9806 32.7051 77.2697 32.3078C76.445 32.1163 75.5662 31.9295 74.6677 31.7662L77.3338 29.1001ZM79.4818 21.1909C79.7982 21.4526 80.0262 21.5658 80.1573 21.615C80.3066 21.671 80.4187 21.6801 80.5683 21.6552C80.9947 21.5841 81.912 21.1813 83.3437 19.7496C83.6424 19.4509 84.1586 18.6862 84.7719 17.318C85.2363 16.2822 85.6696 15.1 86.0581 13.8988C84.8568 14.2873 83.6747 14.7206 82.6388 15.1849C81.2706 15.7983 80.5059 16.3145 80.2072 16.6132C78.7755 18.0449 78.3728 18.9622 78.3017 19.3886C78.2768 19.5382 78.2859 19.6502 78.3419 19.7996C78.4086 19.9776 78.5936 20.3343 79.1081 20.8488C79.15 20.8907 79.1908 20.9304 79.2306 20.968C79.3166 21.0382 79.4004 21.1125 79.4818 21.1909ZM64.9231 41.5109L66.5837 39.8503C66.9982 39.6764 67.5131 39.4985 68.1498 39.3279C68.5579 39.2186 69.4782 39.1539 70.9697 39.3068C72.099 39.4226 73.3394 39.6384 74.574 39.9026C73.6369 40.7487 72.6706 41.5558 71.7505 42.2207C70.5352 43.0989 69.7059 43.503 69.2978 43.6124C67.3421 44.1364 66.3463 44.0266 65.9415 43.8749C65.7995 43.8217 65.707 43.7578 65.6056 43.6346C65.4848 43.4878 65.2684 43.1493 65.0801 42.4465C64.9709 42.039 64.9311 41.7328 64.9231 41.5109ZM43.8828 62.5512L45.5434 60.8906C45.9579 60.7167 46.4729 60.5388 47.1095 60.3682C47.5176 60.2589 48.4379 60.1942 49.9295 60.3471C51.0587 60.4629 52.2992 60.6787 53.5337 60.9429C52.5966 61.789 51.6303 62.5961 50.7102 63.261C49.4949 64.1392 48.6656 64.5433 48.2575 64.6527C46.3018 65.1767 45.306 65.0669 44.9012 64.9152C44.7592 64.862 44.6667 64.7981 44.5653 64.6749C44.4446 64.5281 44.2281 64.1895 44.0398 63.4868C43.9306 63.0793 43.8909 62.7731 43.8828 62.5512ZM23.0311 83.4029L24.6914 81.7426C25.1059 81.5687 25.621 81.3907 26.2578 81.2201C26.6659 81.1108 27.5862 81.0461 29.0778 81.199C30.207 81.3148 31.4475 81.5306 32.682 81.7948C31.745 82.6408 30.7786 83.4479 29.8585 84.1128C28.6433 84.9911 27.8139 85.3952 27.4059 85.5045C25.4501 86.0286 24.4543 85.9187 24.0495 85.7671C23.9075 85.7139 23.815 85.65 23.7137 85.5268C23.5929 85.3799 23.3765 85.0414 23.1881 84.3386C23.0789 83.931 23.0392 83.6248 23.0311 83.4029ZM59.8655 25.5714C59.0194 26.5084 58.2123 27.4748 57.5474 28.3948C56.6692 29.6101 56.2651 30.4395 56.1557 30.8475C55.6317 32.8033 55.7415 33.799 55.8932 34.2038C55.9464 34.3459 56.0103 34.4383 56.1335 34.5397C56.2803 34.6605 56.6188 34.8769 57.3216 35.0652C58.0244 35.2535 58.4258 35.2354 58.6133 35.2042C58.7707 35.178 58.8723 35.1299 58.9894 35.0335C59.3231 34.7587 59.9161 33.9513 60.4402 31.9955C60.5495 31.5875 60.6142 30.6672 60.4613 29.1756C60.3455 28.0463 60.1297 26.8059 59.8655 25.5714ZM39.0138 46.4232C38.1678 47.3602 37.3607 48.3266 36.6958 49.2466C35.8175 50.4619 35.4134 51.2913 35.3041 51.6993C34.78 53.6551 34.8898 54.6508 35.0415 55.0557C35.0947 55.1977 35.1586 55.2902 35.2818 55.3915C35.4286 55.5123 35.7672 55.7287 36.4699 55.917C37.1727 56.1054 37.5741 56.0872 37.7617 56.056C37.9191 56.0298 38.0206 55.9817 38.1377 55.8853C38.4715 55.6105 39.0645 54.8031 39.5885 52.8473C39.6978 52.4393 39.7625 51.519 39.6096 50.0274C39.4938 48.8982 39.278 47.6577 39.0138 46.4232ZM15.8441 70.0983C16.509 69.1782 17.3161 68.2118 18.1621 67.2748C18.4263 68.5093 18.6421 69.7498 18.7579 70.879C18.9108 72.3706 18.8461 73.2909 18.7368 73.699C18.2128 75.6547 17.6198 76.4622 17.286 76.7369C17.1689 76.8333 17.0674 76.8814 16.91 76.9076C16.7224 76.9388 16.321 76.957 15.6182 76.7687C14.9155 76.5804 14.5769 76.3639 14.4301 76.2431C14.3069 76.1418 14.243 76.0493 14.1898 75.9073C14.0381 75.5025 13.9283 74.5067 14.4524 72.551C14.5617 72.1429 14.9658 71.3136 15.8441 70.0983Z"
            fill="currentcolor" />
    </g>
</svg>