<svg width="100" height="100" viewBox="0 0 100 100" fill="none" xmlns="http://www.w3.org/2000/svg">
    <g clip-path="url(#clip0_1998_12)">
        <path fill-rule="evenodd" clip-rule="evenodd"
            d="M95.5902 9.07332L91.6679 8.28886L90.8834 4.36653L96.7669 3.18983L95.5902 9.07332ZM82.2372 37.8494C83.5189 34.0603 83.5185 34.0601 83.518 34.06L83.5167 34.0596L83.5136 34.0585L83.5043 34.0554L83.4743 34.0453L83.3697 34.0106C83.2808 33.9813 83.1537 33.9398 82.9928 33.8882C82.6712 33.7851 82.2128 33.6414 81.6509 33.4738C80.5313 33.1399 78.9806 32.7052 77.2697 32.3079C76.445 32.1164 75.5663 31.9296 74.6678 31.7663L77.334 29.1001C78.7532 29.6378 80.2796 29.8135 81.8835 29.5462C84.7545 29.0677 87.1348 27.2721 89.0005 25.4064C90.3506 24.0563 91.3457 22.2105 92.072 20.5904C92.8358 18.8865 93.4755 17.0297 93.9832 15.3615C94.4946 13.6812 94.8935 12.1209 95.1641 10.9843C95.2999 10.4139 95.4046 9.94512 95.4762 9.61504C95.512 9.44989 95.5396 9.31912 95.5586 9.22737L95.5809 9.11946L95.5872 9.08846L95.5891 9.07888L95.5898 9.07559L95.59 9.07433C95.5901 9.07381 95.5902 9.07332 91.6679 8.28886C90.8834 4.36653 90.883 4.36663 90.8824 4.36673L90.8812 4.36699L90.8779 4.36765L90.8683 4.36958L90.8373 4.37587L90.7294 4.3981C90.6376 4.41718 90.5069 4.44475 90.3417 4.48056C90.0116 4.55211 89.5428 4.65684 88.9725 4.79264C87.8359 5.06326 86.2756 5.46211 84.5953 5.9735C82.927 6.48123 81.0703 7.12097 79.3664 7.88478C77.7463 8.61103 75.9004 9.6062 74.5504 10.9562C72.6846 12.822 70.8891 15.2022 70.4106 18.0733C70.071 20.1108 70.4463 22.0233 71.3706 23.7498L68.2343 26.8861C68.0309 25.5048 67.7511 24.1279 67.4603 22.8757C67.0631 21.1648 66.6283 19.6141 66.2944 18.4945C66.1268 17.9326 65.9831 17.4743 65.88 17.1527C65.8285 16.9917 65.787 16.8647 65.7576 16.7757L65.7229 16.6711L65.7129 16.6411L65.7097 16.6319L65.7087 16.6287L65.7082 16.6275C65.7081 16.627 65.7079 16.6265 61.9189 17.9083L65.7079 16.6265L63.7852 10.9429L59.2783 14.9037L61.9189 17.9083C59.2783 14.9037 59.278 14.904 59.2776 14.9044L59.2766 14.9052L59.2741 14.9074L59.2667 14.9139L59.243 14.9349L59.1607 15.0081C59.0908 15.0705 58.9913 15.1597 58.8662 15.2733C58.6161 15.5003 58.2625 15.8254 57.8364 16.2282C56.9874 17.0309 55.8356 18.1564 54.6361 19.4395C53.4452 20.7133 52.1571 22.1957 51.0634 23.7091C50.0235 25.1481 48.9225 26.9329 48.4283 28.7771C48.1782 29.7106 47.9827 30.6569 47.8713 31.5999C47.8282 31.9642 47.7974 32.3311 47.7811 32.6992C47.6833 34.9062 49.3932 36.7745 51.6001 36.8723C53.8071 36.9701 55.6755 35.2602 55.7732 33.0532C55.7802 32.8955 55.7941 32.7241 55.816 32.5385C55.8735 32.0521 55.9837 31.4899 56.1557 30.8476C56.2651 30.4396 56.6692 29.6102 57.5475 28.3949C58.2124 27.4749 59.0195 26.5085 59.8655 25.5715C60.1297 26.806 60.3455 28.0464 60.4613 29.1757C60.6142 30.6673 60.5495 31.5876 60.4402 31.9956C60.1061 33.2426 59.7325 34.0652 59.3886 34.5714C59.0726 35.0367 58.856 35.1334 58.7663 35.1657C58.6927 35.1923 58.5415 35.2323 58.2625 35.2226C56.0546 35.1461 54.2028 36.8738 54.1263 39.0816C54.0603 40.9867 55.3376 42.6267 57.1076 43.0898C57.6326 44.8648 59.3431 46.0918 61.2618 45.9384C63.4639 45.7623 65.1063 43.8344 64.9302 41.6322C64.9268 41.5894 64.9244 41.5491 64.923 41.5111L66.5837 39.8504C67.0014 39.6752 67.5173 39.4975 68.1498 39.328C68.5579 39.2187 69.4782 39.154 70.9698 39.3069C72.099 39.4227 73.3394 39.6385 74.574 39.9027C73.6369 40.7488 72.6706 41.5559 71.7505 42.2208C70.5352 43.099 69.7059 43.5031 69.2978 43.6125C68.2385 43.8963 67.4203 44.0052 66.8125 44.0003C64.6035 43.9825 62.7982 45.7588 62.7803 47.9678C62.7624 50.1769 64.5388 51.9822 66.7478 52.0001C68.2969 52.0126 69.8642 51.7429 71.3684 51.3399C73.2126 50.8457 74.9973 49.7448 76.4363 48.7048C77.9497 47.6111 79.4321 46.323 80.706 45.1321C81.989 43.9326 83.1146 42.7808 83.9172 41.9318C84.32 41.5057 84.6451 41.1521 84.8721 40.902C84.9857 40.7769 85.075 40.6774 85.1374 40.6075L85.2106 40.5252L85.2315 40.5015L85.238 40.4942L85.2402 40.4916L85.2411 40.4907C85.2414 40.4903 85.2418 40.4899 82.2372 37.8494ZM82.2372 37.8494L83.5189 34.0603L89.2025 35.983L85.2418 40.4899L82.2372 37.8494ZM83.3437 19.7495C81.912 21.1812 80.9947 21.584 80.5683 21.6551C80.4187 21.68 80.3067 21.6709 80.1573 21.6149C80.0259 21.5656 79.7973 21.452 79.4798 21.1892C79.3998 21.1121 79.3173 21.039 79.2327 20.9699C79.1922 20.9317 79.1507 20.8913 79.1081 20.8487C78.5936 20.3342 78.4086 19.9775 78.3419 19.7995C78.2859 19.6501 78.2768 19.5381 78.3017 19.3885C78.3728 18.9621 78.7755 18.0448 80.2072 16.6131C80.506 16.3144 81.2706 15.7982 82.6388 15.1849C83.6747 14.7205 84.8568 14.2872 86.0581 13.8987C85.6696 15.0999 85.2363 16.2821 84.7719 17.3179C84.1586 18.6862 83.6424 19.4508 83.3437 19.7495ZM42.3472 36.4741L40.068 34.1908L40.0659 34.1928L10.9664 5.09333C9.40434 3.53123 6.87168 3.53123 5.30958 5.09333C3.74749 6.65543 3.74749 9.18809 5.30958 10.7502L34.3027 39.7433C33.5983 40.4797 32.8626 41.2818 32.1498 42.1149C30.4331 44.1212 28.3039 46.9146 27.5766 49.6288C26.8937 52.1775 26.5288 55.1366 27.55 57.8623C28.4188 60.1816 30.0879 61.8312 32.2569 62.8635L26.5309 68.5895C26.3276 67.2081 26.0477 65.8312 25.7569 64.5789C25.3596 62.8681 24.9249 61.3174 24.591 60.1978C24.4234 59.6359 24.2797 59.1775 24.1766 58.8559C24.125 58.695 24.0835 58.5679 24.0542 58.4789L24.0195 58.3744L24.0094 58.3444L24.0063 58.3351L24.0052 58.3319L24.0048 58.3307C24.0047 58.3302 24.0045 58.3297 20.2154 59.6115L24.0045 58.3297L22.0818 52.6462L17.5749 56.6069L20.2154 59.6115C17.5749 56.6069 17.5745 56.6073 17.5741 56.6076L17.5732 56.6085L17.5707 56.6107L17.5633 56.6171L17.5396 56.6381L17.4573 56.7113C17.3874 56.7737 17.2879 56.863 17.1628 56.9766C16.9127 57.2036 16.5591 57.5287 16.133 57.9315C15.284 58.7341 14.1322 59.8597 12.9327 61.1427C11.7418 62.4165 10.4537 63.899 9.35997 65.4124C8.32004 66.8514 7.21907 68.6361 6.72492 70.4803C6.042 73.029 5.67711 75.9881 6.69824 78.7138C7.56715 81.0331 9.23624 82.6828 11.4053 83.7151L5.4819 89.6385C3.91981 91.2006 3.9198 93.7332 5.4819 95.2953C7.044 96.8574 9.57666 96.8574 11.1388 95.2954L16.8216 89.6125C17.8539 91.2647 19.3177 92.5373 21.2429 93.2585C23.9686 94.2797 26.9277 93.9148 29.4764 93.2319C31.3205 92.7377 33.1053 91.6367 34.5443 90.5968C36.0577 89.5031 37.5401 88.215 38.814 87.0241C40.097 85.8246 41.2226 84.6728 42.0252 83.8238C42.428 83.3977 42.7531 83.0441 42.9801 82.794C43.0937 82.6689 43.183 82.5694 43.2454 82.4995L43.3186 82.4172L43.3395 82.3935L43.346 82.3861L43.3482 82.3836L43.3491 82.3826C43.3494 82.3822 43.3497 82.3819 40.3451 79.7413L43.3497 82.3819L47.3105 77.875L41.6269 75.9523L40.3451 79.7413C41.6269 75.9523 41.6265 75.9521 41.626 75.9519L41.6247 75.9515L41.6216 75.9505L41.6123 75.9473L41.5823 75.9373L41.4777 75.9026C41.3887 75.8732 41.2617 75.8317 41.1008 75.7802C40.7791 75.6771 40.3208 75.5334 39.7589 75.3658C38.6393 75.0319 37.0886 74.5971 35.3777 74.1999C34.553 74.0084 33.6743 73.8216 32.7758 73.6583L37.6734 68.7607C38.7057 70.4129 40.1694 71.6855 42.0946 72.4068C44.8203 73.4279 47.7794 73.063 50.3281 72.3801C53.0423 71.6528 55.8355 69.5238 57.8418 67.8072C58.6749 67.0943 59.4771 66.3586 60.2136 65.6542L89.2498 94.6904C90.8119 96.2525 93.3445 96.2525 94.9066 94.6904C96.4687 93.1283 96.4687 90.5956 94.9066 89.0335L42.3472 36.4741ZM23.1881 84.3386C23.0789 83.9311 23.0392 83.6249 23.0311 83.403L24.6918 81.7423C25.1063 81.5685 25.6212 81.3906 26.2578 81.22C26.6658 81.1107 27.5861 81.046 29.0777 81.1989C30.207 81.3147 31.4474 81.5305 32.682 81.7947C31.7449 82.6407 30.7786 83.4478 29.8585 84.1127C28.6432 84.991 27.8139 85.3951 27.4058 85.5044C25.4501 86.0285 24.4543 85.9187 24.0495 85.767C23.9074 85.7138 23.815 85.6499 23.7136 85.5267C23.5928 85.3799 23.3764 85.0413 23.1881 84.3386ZM44.0398 63.4868C43.9307 63.0793 43.8909 62.7732 43.8828 62.5513L45.5436 60.8905C45.9581 60.7167 46.473 60.5388 47.1095 60.3682C47.7282 60.2025 49.1678 60.1916 51.3466 60.5333C52.07 60.6468 52.8079 60.7875 53.5338 60.9429C53.2409 61.2074 52.9423 61.4705 52.6407 61.7286C50.6113 63.4651 49.0382 64.4435 48.2576 64.6527C46.3018 65.1767 45.306 65.0669 44.9012 64.9152C44.7592 64.862 44.6667 64.7981 44.5654 64.6749C44.4446 64.5281 44.2282 64.1896 44.0398 63.4868ZM38.2283 47.3161C38.4863 47.0145 38.7494 46.716 39.0138 46.4232C39.1708 47.1565 39.3128 47.9019 39.4268 48.6323C39.7655 50.8011 39.7533 52.2321 39.5885 52.8474C39.0644 54.8032 38.4715 55.6106 38.1377 55.8854C38.0206 55.9818 37.919 56.0299 37.7617 56.0561C37.5741 56.0873 37.1727 56.1054 36.4699 55.9171C35.7672 55.7288 35.4286 55.5124 35.2818 55.3916C35.1586 55.2902 35.0947 55.1978 35.0415 55.0557C34.8898 54.6509 34.78 53.6551 35.304 51.6994C35.5132 50.9187 36.4917 49.3456 38.2283 47.3161ZM18.1621 67.2747C17.316 68.2118 16.5089 69.1781 15.844 70.0982C14.9658 71.3135 14.5617 72.1428 14.4523 72.5509C13.9283 74.5066 14.0381 75.5024 14.1898 75.9072C14.243 76.0492 14.3069 76.1417 14.4301 76.2431C14.5769 76.3638 14.9154 76.5803 15.6182 76.7686C16.321 76.9569 16.7224 76.9387 16.9099 76.9075C17.0673 76.8814 17.1689 76.8332 17.286 76.7368C17.6197 76.4621 18.2127 75.6546 18.7368 73.6989C18.8461 73.2908 18.9108 72.3705 18.7579 70.8789C18.6421 69.7497 18.4263 68.5092 18.1621 67.2747Z"
            fill="currentcolor" />
    </g>
</svg>