<svg width="100" height="100" viewBox="0 0 100 100" fill="none" xmlns="http://www.w3.org/2000/svg">
    <path fill-rule="evenodd" clip-rule="evenodd"
        d="M50.108 5.4762C52.3172 5.4762 54.108 7.26706 54.108 9.4762V14.0371L74.6987 34.6278C74.8205 34.7496 74.9331 34.8778 75.0365 35.0117C75.5894 35.7273 75.8771 36.602 75.8703 37.4878V59.1805C75.8706 59.2078 75.8706 59.2352 75.8703 59.2626V90.3076C75.8703 92.5167 74.0795 94.3076 71.8703 94.3076H28.3458C26.1366 94.3076 24.3458 92.5167 24.3458 90.3076V59.2629C24.3455 59.2353 24.3455 59.2077 24.3458 59.1802V37.4877C24.3452 37.4143 24.3467 37.341 24.3501 37.2678C24.3895 36.4201 24.6927 35.6413 25.1796 35.0117C25.2829 34.8778 25.3956 34.7496 25.5174 34.6278L46.108 14.0371V9.4762C46.108 7.26706 47.8989 5.4762 50.108 5.4762ZM32.3458 61.3264V86.3076H67.8703V61.3264C66.3417 60.4174 65.1239 60.1097 64.0981 60.1097C62.7422 60.1097 61.0509 60.6472 58.75 62.4003C56.1784 64.3596 53.3994 66.3275 50.108 66.3275C46.8166 66.3275 44.0377 64.3596 41.4661 62.4003C39.1652 60.6472 37.4739 60.1097 36.118 60.1097C35.0922 60.1097 33.8744 60.4174 32.3458 61.3264ZM67.8703 52.6475C66.6509 52.2987 65.3951 52.1097 64.0981 52.1097C60.402 52.1097 57.0413 53.6447 53.9017 56.0368C51.0327 58.2227 50.3142 58.3275 50.108 58.3275C49.9019 58.3275 49.1833 58.2227 46.3144 56.0368C43.1748 53.6447 39.8141 52.1097 36.118 52.1097C34.821 52.1097 33.5652 52.2987 32.3458 52.6475V41.4564H67.8703V52.6475ZM62.2135 33.4562H38.0026L50.108 21.3508L62.2135 33.4562Z"
        fill="currentcolor" />
</svg>