<svg width="100" height="100" viewBox="0 0 100 100" fill="none" xmlns="http://www.w3.org/2000/svg">
    <path fill-rule="evenodd" clip-rule="evenodd"
        d="M10.8859 5.17386C9.36823 3.65624 6.90767 3.65624 5.39005 5.17386C3.87243 6.69149 3.87243 9.15204 5.39005 10.6697L27.5134 32.793L25.6013 34.7051C24.9349 35.3698 24.5086 36.275 24.4636 37.2794C24.4604 37.3485 24.4591 37.4177 24.4597 37.487V59.1812C24.4594 59.208 24.4594 59.2349 24.4597 59.2617V90.3076C24.4597 92.4538 26.1995 94.1937 28.3458 94.1937H71.8703C74.0166 94.1937 75.7564 92.4538 75.7564 90.3076V81.036L89.3302 94.6098C90.8478 96.1275 93.3084 96.1275 94.826 94.6098C96.3437 93.0922 96.3437 90.6317 94.826 89.114L10.8859 5.17386ZM32.2319 41.3425V52.7994C33.4876 52.4262 34.7811 52.2236 36.118 52.2236C39.7807 52.2236 43.1177 53.7444 46.2454 56.1274C49.1101 58.3101 49.858 58.4414 50.108 58.4414C50.2939 58.4414 50.7548 58.3688 52.1556 57.4352L36.0629 41.3425H34.6331C34.6312 41.3425 34.6294 41.3425 34.6276 41.3425L32.2319 41.3425ZM32.2319 86.4215V61.2618C33.7997 60.3193 35.0543 59.9958 36.118 59.9958C37.5072 59.9958 39.2222 60.5475 41.5351 62.3097C44.111 64.2723 46.8606 66.2136 50.108 66.2136C52.9627 66.2136 55.4326 64.7136 57.738 63.0176L67.9842 73.2638V77.0948V86.4215H32.2319ZM50.108 5.59009C52.2543 5.59009 53.9942 7.32996 53.9942 9.47621V14.0843L74.6182 34.7083C74.7425 34.8327 74.8571 34.964 74.9618 35.1013C75.4891 35.7932 75.7633 36.6354 75.7564 37.4882V53.0066C75.7564 55.1528 74.0166 56.8927 71.8703 56.8927C69.7241 56.8927 67.9842 55.1528 67.9842 53.0066V41.3424H56.3218C54.1756 41.3424 52.4357 39.6025 52.4357 37.4562C52.4357 35.31 54.1756 33.5701 56.3218 33.5701H62.4884L50.108 21.1898L45.1096 26.1882C43.592 27.7058 41.1314 27.7058 39.6138 26.1882C38.0962 24.6706 38.0962 22.21 39.6138 20.6924L46.2219 14.0843V9.47621C46.2219 7.32996 47.9618 5.59009 50.108 5.59009Z"
        fill="currentcolor" />
</svg>