<svg width="100" height="100" viewBox="0 0 100 100" fill="none" xmlns="http://www.w3.org/2000/svg">
    <path fill-rule="evenodd" clip-rule="evenodd"
        d="M35.5932 36.5375C35.547 36.376 35.5021 36.2142 35.4586 36.0523C35.0472 37.3921 34.6741 38.8785 34.3456 40.5443C33.6025 44.3117 32.5352 47.6019 31.5602 50.4527C31.4031 50.912 31.2504 51.3547 31.1027 51.7829L31.1018 51.7853C30.303 54.1016 29.6506 55.9931 29.2398 57.791C28.7717 59.8397 28.7107 61.4186 29.0671 62.8476C29.4169 64.2503 30.2612 65.8748 32.2258 67.8394L32.2258 67.8394C34.1893 69.8029 35.8129 70.6464 37.2148 70.9958C38.6431 71.3518 40.2216 71.2906 42.2701 70.8222C44.0677 70.4111 45.9589 69.7585 48.2747 68.9594L48.2749 68.9593L48.275 68.9593L48.2782 68.9582L48.2798 68.9576C48.7072 68.8102 49.1491 68.6577 49.6075 68.5008C52.4579 67.5254 55.7476 66.4577 59.5144 65.714C61.1808 65.3851 62.6676 65.0115 64.0078 64.5997C63.8448 64.5559 63.682 64.5108 63.5194 64.4643C57.5311 62.7507 51.4191 59.1055 46.1856 53.8721C40.9519 48.6384 37.3067 42.5261 35.5932 36.5375ZM78.3337 55.1468L78.2425 55.2379C77.7734 55.6985 77.2542 56.0946 76.6867 56.4288C74.1293 57.9351 70.2926 58.3182 65.6577 56.9919C61.075 55.6806 56.0877 52.7825 51.6814 48.3763C47.275 43.9698 44.3769 38.9823 43.0656 34.3995C41.7394 29.7644 42.1227 25.9277 43.6292 23.3703C43.964 22.8021 44.3608 22.2822 44.8223 21.8127L44.9085 21.7264C47.1685 19.4975 50.9714 18.515 55.9598 19.5732C60.9332 20.6281 66.5624 23.6542 71.4829 28.5748C76.4035 33.4953 79.4296 39.1245 80.4845 44.0979C81.5423 49.0845 80.5609 52.8864 78.3337 55.1468ZM84.2052 60.2514C88.5759 55.541 89.4465 48.8914 88.0876 42.4851C86.6775 35.8376 82.8054 28.9056 76.9787 23.079C71.1521 17.2523 64.2201 13.3802 57.5726 11.9701C51.1663 10.6112 44.5168 11.4818 39.8063 15.8524L39.7984 15.8446L39.685 15.958L39.3986 16.2444L39.3748 16.2681L39.3437 16.2994C36.8428 18.8023 34.284 21.414 32.1044 24.8138C29.7522 28.4827 27.9285 32.9139 26.7202 39.0404C26.0817 42.2777 25.1538 45.1667 24.2061 47.9375C24.0676 48.3425 23.9266 48.7503 23.785 49.1601C22.9905 51.4583 22.1755 53.8158 21.6628 56.0598C21.0399 58.786 20.7688 61.6927 21.5258 64.7283C21.561 64.8694 21.5983 65.0101 21.6375 65.1502L16.3885 70.3992C11.0508 70.0966 6.52823 72.7564 5.31368 77.3434C4.64551 79.8669 5.18836 82.5756 6.93478 84.7442C8.17112 86.2794 9.88727 87.4062 11.9325 88.1183C12.6446 90.1635 13.7714 91.8796 15.3066 93.116C17.4752 94.8624 20.1839 95.4052 22.7074 94.7371C27.2944 93.5225 29.9542 88.9999 29.6516 83.6623L34.8936 78.4202C35.0403 78.4615 35.1876 78.5006 35.3354 78.5374C38.3705 79.2938 41.2769 79.0221 44.0026 78.3988C46.2462 77.8858 48.6034 77.0705 50.9013 76.2758C51.311 76.1341 51.7189 75.993 52.1238 75.8544C54.8943 74.9064 57.7828 73.9781 61.0197 73.3391C67.1452 72.1299 71.5758 70.3057 75.2443 67.9534C78.6401 65.776 81.2499 63.2203 83.7503 60.722L83.7896 60.6829L83.8213 60.651L84.0997 60.3727L84.2131 60.2593L84.2052 60.2514ZM27.8917 74.4305C27.5023 74.0855 27.1152 73.7204 26.7299 73.3352L26.73 73.3351C26.3397 72.9449 25.9701 72.5527 25.6212 72.1581L20.5412 77.2381C19.6209 78.1584 18.301 78.5569 17.0252 78.2997C15.303 77.9524 14.211 78.2257 13.6301 78.5206C13.0391 78.8206 12.8678 79.1786 12.827 79.3328C12.7954 79.4522 12.7833 79.615 12.9882 79.8693C13.2219 80.1596 13.9501 80.7895 15.7668 81.0991C16.5913 81.2396 17.3107 81.6302 17.8602 82.1799C18.4155 82.7308 18.8103 83.4541 18.9517 84.2839C19.2613 86.1006 19.8912 86.8288 20.1814 87.0626C20.4358 87.2674 20.5986 87.2553 20.718 87.2237C20.8722 87.1829 21.2301 87.0117 21.5302 86.4206C21.8251 85.8398 22.0983 84.7477 21.7511 83.0256C21.4939 81.7498 21.8924 80.4299 22.8127 79.5096L27.8917 74.4305ZM60.585 33.2217C60.5844 33.2207 60.5936 33.2157 60.6145 33.2099C60.5961 33.2198 60.5856 33.2227 60.585 33.2217ZM61.4609 33.2752C61.1754 33.2082 60.9719 33.1885 60.8333 33.188C60.8338 33.3266 60.8535 33.5301 60.9205 33.8155C61.1396 34.7484 61.7974 36.0271 63.0116 37.2413C64.2258 38.4555 65.5045 39.1133 66.4374 39.3324C66.7228 39.3994 66.9263 39.4191 67.0649 39.4196C67.0644 39.281 67.0447 39.0775 66.9777 38.792C66.7586 37.8591 66.1009 36.5804 64.8867 35.3662C63.6725 34.152 62.3938 33.4943 61.4609 33.2752ZM67.0312 39.6679C67.0302 39.6672 67.0331 39.6568 67.043 39.6384C67.0371 39.6593 67.0322 39.6685 67.0312 39.6679ZM67.2838 39.3976C67.3022 39.3877 67.3126 39.3848 67.3132 39.3858C67.3138 39.3869 67.3046 39.3918 67.2838 39.3976ZM60.8553 32.9691C60.8611 32.9483 60.866 32.9391 60.8671 32.9397C60.8681 32.9403 60.8652 32.9507 60.8553 32.9691ZM70.3825 29.8704C68.3117 27.7997 65.7915 26.3086 63.2378 25.7088C60.752 25.125 57.572 25.2894 55.2534 27.608C52.9348 29.9266 52.7704 33.1067 53.3542 35.5925C53.9539 38.1461 55.4451 40.6664 57.5158 42.7371C59.5865 44.8078 62.1068 46.299 64.6604 46.8987C67.1462 47.4825 70.3263 47.3181 72.6449 44.9995C74.9635 42.6809 75.1279 39.5009 74.5441 37.015C73.9443 34.4614 72.4532 31.9411 70.3825 29.8704Z"
        fill="currentcolor" />
</svg>