<svg width="100" height="100" viewBox="0 0 100 100" fill="none" xmlns="http://www.w3.org/2000/svg">
    <path fill-rule="evenodd" clip-rule="evenodd"
        d="M10.9664 5.09333C9.40434 3.53123 6.87168 3.53123 5.30958 5.09333C3.74749 6.65542 3.74749 9.18808 5.30958 10.7502L28.0092 33.4498C27.475 35.1488 27.0076 36.9943 26.6084 39.0185C25.9714 42.2481 25.0455 45.1311 24.0983 47.9007C23.9603 48.3042 23.8197 48.7108 23.6785 49.1194L23.6784 49.1196L23.6783 49.1198L23.6781 49.1205L23.6777 49.1216L23.6777 49.1217C22.8833 51.4195 22.0659 53.784 21.5517 56.0345C20.9265 58.7706 20.6523 61.6968 21.4152 64.7559C21.4453 64.8766 21.4769 64.9969 21.5099 65.1168L16.3437 70.283C10.9871 69.9986 6.43164 72.6762 5.20354 77.3144C4.52604 79.8731 5.07703 82.619 6.84603 84.8157C8.08747 86.3573 9.8039 87.4889 11.843 88.2077C12.5619 90.247 13.6935 91.9635 15.2351 93.2049C17.4318 94.9739 20.1778 95.5249 22.7365 94.8474C27.3746 93.6193 30.0522 89.0639 29.7678 83.7073L34.9272 78.5479C35.0537 78.5829 35.1805 78.6162 35.3078 78.6479C38.3665 79.4102 41.2923 79.1355 44.028 78.5099C46.2781 77.9954 48.6423 77.1777 50.9398 76.383C51.3492 76.2414 51.7565 76.1005 52.1606 75.9622C54.93 75.0146 57.8126 74.0884 61.0417 73.4509C63.0652 73.0514 64.9102 72.5839 66.6089 72.0495L89.2498 94.6904C90.8119 96.2524 93.3445 96.2524 94.9066 94.6904C96.4687 93.1283 96.4687 90.5956 94.9066 89.0335L10.9664 5.09333ZM60.0489 65.4895L34.5699 40.0105C34.5318 40.1935 34.4942 40.3788 34.4572 40.5665C33.7126 44.3416 32.6432 47.6377 31.6678 50.4896C31.5101 50.9506 31.357 51.3946 31.209 51.8239C30.41 54.1403 29.76 56.025 29.3507 57.8165C28.8848 59.8552 28.827 61.4147 29.1775 62.8201C29.5213 64.1985 30.3528 65.8055 32.3062 67.7589L32.3062 67.7589C34.2586 69.7113 35.8647 70.542 37.2423 70.8854C38.6471 71.2355 40.2061 71.1774 42.2446 70.7112C44.0358 70.3016 45.9203 69.6514 48.2364 68.8522L48.2365 68.8521C48.6657 68.704 49.1097 68.5508 49.5706 68.3931C52.4222 67.4174 55.7178 66.3475 59.4923 65.6024C59.6802 65.5653 59.8657 65.5277 60.0489 65.4895ZM55.9362 19.6846C50.9431 18.6254 47.1702 19.6254 44.9512 21.8444C44.4759 22.3197 44.069 22.8482 43.7274 23.4281C42.6061 25.3315 40.1541 25.9656 38.2506 24.8443C36.3472 23.723 35.7132 21.271 36.8345 19.3676C37.5112 18.2188 38.3305 17.1514 39.2943 16.1876C44.0609 11.421 50.9685 10.4528 57.5962 11.8587C64.2683 13.274 71.2193 17.1585 77.0593 22.9984C82.8992 28.8383 86.7837 35.7894 88.199 42.4614C89.6049 49.0892 88.6367 55.9968 83.8701 60.7634C82.9059 61.7276 81.8381 62.5471 80.6889 63.2239C78.7854 64.345 76.3334 63.7108 75.2123 61.8073C74.0912 59.9038 74.7254 57.4518 76.6289 56.3307C77.2091 55.989 77.7378 55.582 78.2132 55.1065C80.4323 52.8874 81.4323 49.1146 80.3731 44.1215C79.3234 39.1727 76.3097 33.5625 71.4024 28.6553C66.4952 23.748 60.885 20.7343 55.9362 19.6846ZM60.6217 33.3286C60.6209 33.3274 60.6317 33.3222 60.6562 33.3166C60.6347 33.3271 60.6224 33.3298 60.6217 33.3286ZM60.952 33.3066C61.0731 33.3156 61.2318 33.3384 61.4348 33.386C62.344 33.5996 63.6045 34.2451 64.8061 35.4468C66.0078 36.6484 66.6533 37.9089 66.8668 38.8181C66.9145 39.0211 66.9373 39.1798 66.9463 39.3009C66.8252 39.2919 66.6665 39.2692 66.4634 39.2215C65.5543 39.0079 64.2938 38.3624 63.0921 37.1608C61.8905 35.9591 61.2449 34.6986 61.0314 33.7894C60.9837 33.5864 60.961 33.4277 60.952 33.3066ZM66.9243 39.6312C66.9231 39.6305 66.9258 39.6182 66.9362 39.5967C66.9307 39.6212 66.9255 39.632 66.9243 39.6312ZM67.2421 39.2909C67.2636 39.2805 67.2758 39.2777 67.2766 39.2789C67.2773 39.2802 67.2666 39.2854 67.2421 39.2909ZM60.962 33.0108C60.9675 32.9863 60.9727 32.9755 60.974 32.9763C60.9752 32.977 60.9724 32.9893 60.962 33.0108ZM63.2639 25.5979C65.8413 26.2033 68.3797 27.7066 70.463 29.7899C72.5462 31.8732 74.0496 34.4116 74.6549 36.989C75.2439 39.4966 75.0821 42.7233 72.7254 45.08C70.3687 47.4368 67.142 47.5985 64.6344 47.0096C62.057 46.4043 59.5185 44.9009 57.4353 42.8176C55.352 40.7344 53.8486 38.1959 53.2433 35.6185C52.6544 33.1109 52.8161 29.8842 55.1728 27.5275C57.5296 25.1708 60.7563 25.009 63.2639 25.5979ZM19.0639 84.2651C18.9203 83.4219 18.5224 82.6856 17.9624 82.1213C17.394 81.544 16.6455 81.1334 15.7859 80.9869C13.9889 80.6807 13.2888 80.0612 13.0768 79.798C12.8946 79.5717 12.9148 79.4462 12.937 79.3621C12.9688 79.2421 13.1168 78.909 13.6816 78.6222C14.236 78.3408 15.3012 78.0684 17.0026 78.4114C18.3158 78.6762 19.6744 78.266 20.6216 77.3188L25.6162 72.3242C25.943 72.69 26.2874 73.0538 26.6494 73.4158C27.0064 73.7729 27.3652 74.1127 27.726 74.4355L22.7321 79.4293C21.7848 80.3766 21.3746 81.7352 21.6394 83.0484C21.9825 84.7497 21.7101 85.815 21.4286 86.3694C21.1419 86.9342 20.8088 87.0822 20.6888 87.1139C20.6047 87.1362 20.4792 87.1564 20.2528 86.9742C19.9896 86.7622 19.3701 86.062 19.0639 84.2651Z"
        fill="currentcolor" />
</svg>