<svg width="100" height="100" viewBox="0 0 100 100" fill="none" xmlns="http://www.w3.org/2000/svg">
    <path fill-rule="evenodd" clip-rule="evenodd"
        d="M10.9664 5.09333C9.40429 3.53123 6.87163 3.53123 5.30953 5.09333C3.74743 6.65542 3.74743 9.18808 5.30953 10.7502L89.2497 94.6904C90.8118 96.2525 93.3445 96.2525 94.9066 94.6904C96.4687 93.1283 96.4687 90.5956 94.9066 89.0335L10.9664 5.09333ZM52.918 4.12391C52.1027 3.85439 51.2223 3.85439 50.407 4.12391L33.3185 9.77299C32.9321 9.89951 32.5628 10.0857 32.2247 10.3294C31.1816 11.0812 30.5636 12.2886 30.5636 13.5743V16.4241C30.5636 18.6333 32.3544 20.4241 34.5636 20.4241C35.8602 20.4241 37.0128 19.8072 37.7437 18.8507L47.6625 22.157V30.6733C47.6625 32.8824 49.4533 34.6733 51.6625 34.6733C53.8716 34.6733 55.6625 32.8824 55.6625 30.6733V22.1175L64.7614 19.1095V24.8794C64.7614 27.0885 66.5523 28.8794 68.7614 28.8794C70.9706 28.8794 72.7614 27.0885 72.7614 24.8794V13.6657C72.7757 13.0487 72.6457 12.4451 72.3936 11.8987L72.3768 11.8629L52.918 4.12391ZM56.0174 13.5743L51.6625 12.1347L47.2599 13.5901L51.5968 15.0357L56.0174 13.5743ZM83.4534 37.0933C82.8792 36.4457 82.1105 36.0019 81.2626 35.8284L63.629 32.2199C63.2299 32.1356 62.8156 32.1119 62.3997 32.154C61.1205 32.2836 59.9815 33.0202 59.3386 34.1337L56.4888 39.0697C55.3842 40.9829 56.0397 43.4292 57.9529 44.5338C59.8661 45.6384 62.3124 44.9829 63.417 43.0697L63.492 42.9399L69.8554 50.116L69.1595 51.3213C68.055 53.2344 68.7105 55.6808 70.6236 56.7854C72.5368 57.8899 74.9832 57.2344 76.0877 55.3213L76.7836 54.116L86.18 56.0389L81.474 64.1898C80.3695 66.1029 81.025 68.5493 82.9382 69.6539C84.8513 70.7584 87.2977 70.103 88.4023 68.1898L95.883 55.2327C96.5259 54.1192 96.5943 52.7645 96.0669 51.5919C95.8972 51.2146 95.6725 50.871 95.4038 50.5698L83.4534 37.0933ZM81.4645 46.9081L76.8693 45.9678L73.7572 42.4583L78.3524 43.3986L81.4645 46.9081ZM16.8443 55.7875C17.4186 55.1399 18.1873 54.6961 19.0352 54.5226L36.6932 50.9092C38.3799 50.564 40.0983 51.3369 40.9592 52.8279L40.9592 52.8279L52.3585 72.572C53.2193 74.0631 53.0295 75.9377 51.8872 77.2259L39.9289 90.7114C39.3457 91.3691 38.5706 91.8078 37.7297 91.9781L20.0801 95.5898C18.3933 95.935 16.6749 95.162 15.8141 93.671L4.41478 73.9269C3.7719 72.8133 3.70348 71.4587 4.23091 70.286C4.40155 69.9066 4.62785 69.5613 4.89858 69.2589L16.8443 55.7875ZM30.6972 85.2514L23.5142 72.8102L14.1178 74.733L21.3008 87.1742L30.6972 85.2514ZM30.4424 68.8102L37.6253 81.2514L43.9888 74.0753L36.8059 61.6341L30.4424 68.8102ZM26.5406 61.1525L23.4286 64.6619L18.8334 65.6023L21.9453 62.0929L26.5406 61.1525Z"
        fill="currentcolor" />
</svg>