<svg width="100" height="100" viewBox="0 0 100 100" fill="none" xmlns="http://www.w3.org/2000/svg">
    <path fill-rule="evenodd" clip-rule="evenodd"
        d="M51.1565 35.1834C46.8763 28.6029 41.764 25.4488 36.8296 23.9768C31.1695 22.2882 25.4177 22.7183 20.7978 23.4323C17.5772 23.9301 14.9519 24.1823 12.9224 24.3024C13.3823 26.4829 14.0519 29.2802 14.9778 32.3309C17.1399 39.4547 20.5244 47.3584 25.4315 52.2881C26.7795 53.6423 28.1904 54.9139 29.6655 56.059C31.4105 57.4137 31.7269 59.9265 30.3722 61.6715C29.0175 63.4166 26.5047 63.733 24.7597 62.3783C22.9739 60.992 21.3091 59.4866 19.7616 57.9319C13.4231 51.5641 9.5784 42.0869 7.32258 34.6542C6.17219 30.8639 5.3897 27.4484 4.89392 24.9782C4.6456 23.741 4.4681 22.7353 4.35165 22.0316C4.29341 21.6796 4.25037 21.4028 4.22134 21.2098C4.20681 21.1134 4.19579 21.0378 4.18811 20.9843L4.17908 20.9207L4.17641 20.9016L4.17553 20.8952L4.1752 20.8928C4.17507 20.8918 4.17495 20.891 8.13797 20.3483L4.17495 20.891C4.0094 19.682 4.40473 18.4637 5.24853 17.5822C6.08819 16.7051 7.28055 16.2571 8.48943 16.3638L8.49499 16.3643L8.49323 16.3641C8.50418 16.3649 8.53078 16.3669 8.57305 16.3695C8.65757 16.3747 8.80475 16.3825 9.0146 16.389C9.43427 16.402 10.1049 16.4097 11.0266 16.3812C12.8696 16.3243 15.7191 16.1223 19.5758 15.5262C24.5949 14.7504 31.7526 14.1137 39.1167 16.3106C46.1747 18.4163 53.1389 23.0408 58.5594 31.9277C60.1387 31.437 61.7119 31.0732 63.2847 30.8194C68.9993 29.8971 74.4718 30.4692 79.7701 31.3243C85.4834 32.2464 89.1448 32.3295 90.7571 32.303C93.6411 32.2556 96.3745 34.7862 95.8435 38.1143C95.3989 40.9015 94.1508 47.8093 91.6453 55.4766C89.1703 63.0505 85.3201 71.8389 79.4391 78.0085C69.9412 87.9724 58.0958 91.3456 44.3318 88.939C43.2089 88.7426 42.2231 88.0765 41.622 87.1078C41.0209 86.1392 40.8617 84.9602 41.1843 83.8668C43.2335 76.9213 47.5863 69.2188 52.6423 62.4469C51.4903 63.4205 50.3708 64.4404 49.2937 65.501C44.558 70.1642 40.8568 75.4078 38.8488 80.5931C38.1458 82.4084 36.2381 83.4541 34.3297 83.0701C32.4213 82.6861 31.0664 80.984 31.1203 79.0381C31.1338 78.5483 31.146 78.0366 31.1586 77.505L31.1586 77.5033C31.3546 69.2515 31.6648 56.1959 39.0504 45.8009C37.4996 42.2109 35.6639 40.075 33.8339 38.6964C31.6887 37.0802 29.2268 36.2556 26.3828 35.6525C24.2217 35.1942 22.8413 33.0708 23.2996 30.9097C23.7579 28.7486 25.8813 27.3682 28.0424 27.8265C31.3689 28.5319 35.1479 29.6701 38.6477 32.3067C41.0101 34.0865 43.1044 36.4403 44.8634 39.5402C45.1045 39.3405 45.3499 39.1429 45.5997 38.9475C47.4774 37.4789 49.3268 36.2325 51.1565 35.1834ZM50.5284 45.249C55.6526 41.2411 60.2116 39.4189 64.5594 38.7172C68.9853 38.0028 73.4375 38.4058 78.4955 39.2221C82.1656 39.8144 85.1143 40.0963 87.3411 40.2202C86.7089 43.4418 85.6533 48.0577 84.041 52.9917C81.6842 60.2041 78.2861 67.6235 73.6484 72.4887C67.2569 79.1938 59.6979 82.1571 50.5099 81.626C52.9184 76.0448 56.78 69.9244 61.1922 64.4835C66.925 57.414 72.9521 52.2751 77.0904 50.7167C78.9879 50.0021 80.0506 47.9809 79.5637 46.0127C79.0768 44.0445 77.1943 42.7519 75.1825 43.0045C64.3529 44.3639 52.5147 51.1021 43.6807 59.8006C42.5448 60.9191 41.4487 62.0795 40.4026 63.2761C41.7013 56.5377 44.4547 49.9995 50.5284 45.249Z"
        fill="currentcolor" />
</svg>