<svg width="100" height="100" viewBox="0 0 100 100" fill="none" xmlns="http://www.w3.org/2000/svg">
    <path fill-rule="evenodd" clip-rule="evenodd"
        d="M11.1091 5.45227C9.54703 3.89018 7.01437 3.89018 5.45227 5.45227C3.89018 7.01437 3.89018 9.54703 5.45227 11.1091L10.7325 16.3893C9.91708 16.409 9.32392 16.3996 8.9529 16.387C8.76568 16.3806 8.63495 16.3734 8.56071 16.3687C8.52359 16.3664 8.50058 16.3646 8.49168 16.3639L8.48995 16.3638L8.48963 16.3638L8.48961 16.3638C7.28067 16.2571 6.08823 16.705 5.24853 17.5822C4.40472 18.4636 4.0094 19.682 4.17494 20.8909L8.13796 20.3483C4.17494 20.8909 4.17506 20.8918 4.17519 20.8928L4.17552 20.8952L4.1764 20.9015L4.17907 20.9207L4.18811 20.9843C4.19579 21.0378 4.20681 21.1133 4.22133 21.2098C4.25037 21.4028 4.2934 21.6796 4.35165 22.0316C4.46809 22.7353 4.6456 23.741 4.89392 24.9782C5.3897 27.4484 6.17218 30.8638 7.32257 34.6542C9.5784 42.0869 13.4231 51.5641 19.7616 57.9319C21.3091 59.4865 22.9739 60.992 24.7597 62.3783C26.5047 63.733 29.0175 63.4165 30.3722 61.6715C31.7269 59.9265 31.4105 57.4137 29.6655 56.059C28.1904 54.9139 26.7795 53.6423 25.4315 52.2881C20.5244 47.3583 17.1398 39.4547 14.9778 32.3309C14.0519 29.2802 13.3823 26.4829 12.9224 24.3024C14.364 24.217 16.1062 24.0651 18.1489 23.8058L23.8754 29.5322C23.6059 29.9394 23.407 30.4031 23.2996 30.9097C22.8413 33.0708 24.2217 35.1942 26.3828 35.6525C28.3506 36.0698 30.1291 36.5912 31.75 37.4068L38.1269 43.7838C38.1889 43.9659 38.2648 44.1458 38.355 44.3221C38.5915 44.7843 38.8235 45.2762 39.0498 45.7999C31.67 56.1879 31.3565 69.2594 31.158 77.537L31.158 77.5373L31.158 77.5374L31.158 77.5376C31.1455 78.0573 31.1335 78.558 31.1203 79.0381C31.0664 80.984 32.4213 82.6861 34.3297 83.0701C36.2381 83.4541 38.1458 82.4084 38.8488 80.5931C40.8568 75.4078 44.558 70.1642 49.2937 65.501C50.3658 64.4453 51.485 63.4254 52.6414 62.4482C47.5714 69.239 43.2287 76.9377 41.1843 83.8668C40.8617 84.9601 41.0209 86.1392 41.622 87.1078C42.2231 88.0765 43.2089 88.7426 44.3318 88.9389C56.3638 91.0428 66.945 88.7328 75.7751 81.4319L88.8909 94.5477C90.453 96.1098 92.9856 96.1098 94.5477 94.5477C96.1098 92.9856 96.1098 90.453 94.5477 88.8909L79.4654 73.8085C79.291 73.5068 79.0741 73.2231 78.8146 72.9661C78.5648 72.7188 78.2906 72.5111 77.9998 72.343L59.0148 53.3579C58.953 53.2446 58.8853 53.1333 58.8114 53.0242C58.4392 52.475 57.9544 52.0476 57.4088 51.7519L37.9056 32.2487C37.5884 31.7333 37.1496 31.2829 36.6018 30.945L11.1091 5.45227ZM49.2407 54.8976L45.2424 50.8992C42.6827 54.6624 41.2364 58.9324 40.3984 63.2809C41.4457 62.0826 42.5433 60.9206 43.6807 59.8006C45.4368 58.0714 47.3006 56.4298 49.2407 54.8976ZM60.1445 65.8013C56.1826 70.8856 52.7306 76.4796 50.5099 81.626C58.0556 82.062 64.4937 80.1408 70.0861 75.743L60.1445 65.8013ZM60.2592 39.7868C66.1503 37.7821 71.8223 38.1451 78.4955 39.2221C82.1655 39.8144 85.1142 40.0962 87.341 40.2202C86.3936 45.0475 84.503 52.9687 81.2351 60.3875C80.3445 62.4092 81.2615 64.7701 83.2832 65.6606C85.3049 66.5512 87.6657 65.6342 88.5563 63.6125C93.201 53.0681 95.2515 41.8243 95.8431 38.1167C96.3722 34.8007 93.654 32.2554 90.7571 32.303C89.1448 32.3295 85.4834 32.2464 79.7701 31.3243C73.0244 30.2355 66.0515 29.6118 58.6058 31.9134C55.8097 27.7865 53.787 25.52 52.9741 24.6941C51.7156 23.4154 50.4115 22.2852 49.0733 21.2901C47.3005 19.9719 44.7948 20.3405 43.4766 22.1132C42.1585 23.886 42.527 26.3917 44.2997 27.7099C45.3059 28.458 46.2999 29.3177 47.2725 30.3058C48.2944 31.3441 49.2939 32.3311 50.2716 33.2966C52.1022 35.1042 53.8565 36.8366 55.5389 38.6892C56.3829 39.6186 57.5644 40.0591 58.7273 39.9937C59.2319 40.0246 59.7509 39.9597 60.2592 39.7868ZM77.0904 50.7167C78.9879 50.0021 80.0506 47.9809 79.5637 46.0127C79.0768 44.0445 77.1943 42.7519 75.1825 43.0044C73.2675 43.2448 71.334 43.6519 69.4064 44.1997C67.2814 44.8037 66.0484 47.016 66.6524 49.1409C66.9785 50.2883 67.7735 51.1756 68.7704 51.6541C70.0537 53.105 72.2375 53.4459 73.92 52.3691C75.1172 51.6029 76.1808 51.0592 77.0904 50.7167Z"
        fill="currentcolor" />
</svg>