<svg width="100" height="100" viewBox="0 0 100 100" fill="none" xmlns="http://www.w3.org/2000/svg">
    <path fill-rule="evenodd" clip-rule="evenodd"
        d="M11.1091 5.45227C9.54703 3.89018 7.01437 3.89018 5.45227 5.45227C3.89018 7.01437 3.89018 9.54703 5.45227 11.1091L24.0862 29.743C12.9103 38.5099 8.9011 51.9819 6.3199 60.6555C6.15917 61.1957 6.00397 61.7172 5.85292 62.2178C5.29918 64.053 6.12531 66.0231 7.82244 66.9145C9.51956 67.8059 11.6105 67.3679 12.8072 65.8703C16.7808 60.898 22.8642 56.4027 30.0726 52.8753C33.6616 51.1191 37.4843 49.6253 41.3897 48.4431C31.7689 54.5022 22.4833 62.5348 17.2282 70.4939C16.6253 71.4071 16.4228 72.5275 16.6679 73.5939C16.9131 74.6604 17.5845 75.5799 18.5256 76.1382C33.8491 85.2272 49.3199 83.5703 63.1889 76.2336C64.7721 75.3961 66.2976 74.4493 67.7635 73.4203L88.8909 94.5477C90.453 96.1098 92.9856 96.1098 94.5477 94.5477C96.1098 92.9856 96.1098 90.453 94.5477 88.8909L71.8573 66.2004C71.7269 65.9421 71.5663 65.6941 71.375 65.4612C71.0091 65.0158 70.5671 64.6697 70.0833 64.4265L47.1341 41.4772C46.8191 40.9843 46.4027 40.5728 45.9212 40.2643L33.412 27.7551C33.2567 27.5689 33.0867 27.3996 32.9047 27.2479L11.1091 5.45227ZM29.7944 35.4513C24.4086 39.3859 20.9388 44.7373 18.4393 50.3118C21.003 48.617 23.7309 47.0722 26.5563 45.6896C29.6166 44.192 32.8186 42.8713 36.0915 41.7483L29.7944 35.4513ZM48.0779 53.7348C39.7989 58.6087 31.8 65.0422 26.5771 71.327C37.6784 76.3274 48.7534 74.8196 59.448 69.1621C60.3094 68.7064 61.1611 68.2038 62.0021 67.6589L48.0779 53.7348ZM48.4246 28.7995C57.82 27.7964 65.6648 30.3211 74.4639 34.0797C79.2891 36.1408 83.0974 37.4709 85.8239 38.31C85.5095 38.9198 85.1603 39.5828 84.7775 40.2902C82.7328 44.0686 79.7555 49.0634 76.0089 53.989C74.6715 55.7473 75.0127 58.2568 76.7709 59.5943C78.5292 60.9317 81.0388 60.5905 82.3762 58.8322C86.4445 53.4838 89.6395 48.1147 91.8134 44.0977C92.9031 42.084 93.7431 40.3972 94.3142 39.2058C94.5999 38.6098 94.8188 38.1368 94.9684 37.8079C95.0432 37.6434 95.1007 37.5149 95.1406 37.4249L95.1873 37.3191L95.2007 37.2885L95.2048 37.2789L95.2063 37.2755L95.2069 37.2742C95.2071 37.2736 95.2074 37.2731 91.5371 35.6828L95.2074 37.2731C95.6936 36.1509 95.6397 34.8678 95.0611 33.7903C94.4843 32.7163 93.4493 31.9641 92.2501 31.7468L92.2403 31.7451L92.2315 31.7433C92.2083 31.7388 92.1641 31.7301 92.0992 31.7166C91.9695 31.6897 91.7568 31.6436 91.4625 31.5737C90.8739 31.4339 89.9585 31.1987 88.7263 30.8305C86.262 30.0941 82.5287 28.8253 77.6065 26.7228C68.4523 22.8125 59.0536 19.6192 47.5754 20.8447C45.3787 21.0792 43.7881 23.05 44.0226 25.2467C44.2571 27.4434 46.228 29.034 48.4246 28.7995ZM68.6824 45.8933C70.7248 45.7707 72.3454 44.1267 72.4386 42.0828C72.5319 40.0389 71.0677 38.2542 69.0451 37.9461C67.6435 37.7326 66.2139 37.5799 64.7639 37.484C62.5596 37.3382 60.6545 39.007 60.5087 41.2113C60.4252 42.4743 60.9374 43.6391 61.8047 44.431C62.6535 45.7998 64.2863 46.5736 65.9621 46.2508C66.9509 46.0603 67.8592 45.9427 68.6824 45.8933Z"
        fill="currentcolor" />
</svg>