<svg width="100" height="100" viewBox="0 0 100 100" fill="none" xmlns="http://www.w3.org/2000/svg">
    <path fill-rule="evenodd" clip-rule="evenodd"
        d="M74.4639 34.0797C62.7201 29.0632 52.3671 26.0712 37.5284 31.3828C27.4563 34.9882 21.9813 42.4243 18.4439 50.3088C21.0062 48.6152 23.7325 47.0713 26.5563 45.6896C39.7493 39.2337 55.8592 35.9378 69.0451 37.9461C71.0677 38.2542 72.5319 40.0389 72.4386 42.0828C72.3454 44.1267 70.7248 45.7707 68.6824 45.8933C62.8392 46.244 53.9475 49.9018 45.0613 55.5878C37.8392 60.2089 31.1386 65.8387 26.5772 71.327C37.6785 76.3274 48.7535 74.8195 59.448 69.1621C67.7309 64.7805 74.8296 56.2272 79.9787 48.3518C82.4998 44.4961 84.4759 40.9243 85.8239 38.31C83.0974 37.4709 79.2891 36.1408 74.4639 34.0797ZM91.5371 35.6828C95.2074 37.2731 95.207 37.274 95.2065 37.275L95.2055 37.2775L95.2025 37.2844L95.1932 37.3056L95.1617 37.3773C95.1349 37.4379 95.0966 37.524 95.047 37.6343C94.9477 37.8547 94.8029 38.1716 94.614 38.574C94.2362 39.3786 93.681 40.5266 92.9585 41.9294C91.5156 44.7309 89.3945 48.5698 86.6745 52.7298C81.3136 60.929 73.303 70.8832 63.1889 76.2336C49.3199 83.5703 33.8491 85.2272 18.5257 76.1382C17.5845 75.5799 16.9131 74.6604 16.6679 73.5939C16.4228 72.5274 16.6253 71.4071 17.2282 70.4939C22.3954 62.6678 31.4269 54.8144 40.7495 48.8492C40.9625 48.7129 41.1761 48.5773 41.3903 48.4425C37.5062 49.618 33.6839 51.1082 30.0726 52.8753C22.8642 56.4027 16.7808 60.898 12.8072 65.8703C11.6105 67.3679 9.51956 67.8059 7.82244 66.9145C6.12532 66.0231 5.29918 64.053 5.85292 62.2178C6.00586 61.7109 6.16303 61.1825 6.32586 60.6351C9.60239 49.6206 15.175 30.8872 34.8323 23.8508C52.4273 17.5525 65.0629 21.3647 77.6065 26.7228C82.5287 28.8254 86.262 30.0941 88.7263 30.8305C89.9585 31.1987 90.8739 31.4339 91.4625 31.5737C91.7568 31.6436 91.9695 31.6897 92.0992 31.7166C92.1641 31.7301 92.2083 31.7388 92.2316 31.7433L92.2403 31.7451C92.2436 31.7456 92.2468 31.7462 92.2501 31.7468C93.4493 31.9641 94.4843 32.7163 95.0611 33.7903C95.6397 34.8678 95.6936 36.1509 95.2074 37.2731L91.5371 35.6828Z"
        fill="currentcolor" />
</svg>