<svg width="100" height="100" viewBox="0 0 100 100" fill="none" xmlns="http://www.w3.org/2000/svg">
    <path fill-rule="evenodd" clip-rule="evenodd"
        d="M43.9056 35.0203C43.3712 30.0681 35 20.5011 35 20.5011C35 20.5011 38.5782 30.0429 36.6536 36.0096C36.5234 36.1812 36.3876 36.3523 36.2461 36.5229C35.3398 37.6159 34.1602 38.3656 33.2154 38.8852C32.2261 39.4293 31.1128 39.9207 30.0994 40.3586C29.9251 40.434 29.7524 40.5084 29.5815 40.582C27.6147 41.4294 25.8762 42.1784 24.4298 43.1396C22.9079 44.1511 22.2559 45.0517 22.0423 45.9261C21.8763 46.6055 21.8413 47.8207 22.6841 49.8344H31.0557C31.0739 49.7277 31.0965 49.621 31.1236 49.5143C31.6988 47.255 33.0371 45.5799 34.3687 44.3421C35.6701 43.1324 37.2066 42.1253 38.4758 41.3065C38.6173 41.2153 38.7559 41.126 38.8919 41.0385C40.0791 40.2743 41.0648 39.6399 41.931 38.9445C42.8736 38.1877 43.401 37.5648 43.6786 37.0196C44.0738 36.2432 44.1059 35.6672 43.9056 35.0203ZM52.2978 49.8344H40.2359C40.8982 49.2877 41.7399 48.721 42.8127 48.029C42.9457 47.9432 43.0828 47.8551 43.2233 47.7649L43.2279 47.7619L43.2289 47.7613C44.3637 47.0325 45.7223 46.1599 46.9394 45.1827C48.3322 44.0645 49.8125 42.604 50.8077 40.6493C51.6248 39.0446 52.0012 37.4579 52.0247 35.9221C50.7396 27.6608 40 20.5011 40 20.5011C40 20.5011 48.5398 24.161 54.1381 31.4809C55.504 32.9995 56.4548 34.542 57.0158 36.0454C58.474 39.9533 57.6744 44.735 52.2978 49.8344ZM62.5824 49.8344C65.8274 44.5706 66.6017 38.8515 64.511 33.2486C61.6108 25.4761 53.6458 19.3076 42.8782 15.4119C40.5033 14.5527 38.5837 13.9352 37.0657 13.5739C36.8639 13.5259 36.6503 13.4772 36.4272 13.431C35.8649 13.2161 35.2534 13.127 34.6382 13.1831C33.8921 13.1414 33.1171 13.1891 32.3746 13.4062C31.3668 13.701 30.2613 14.354 29.536 15.5661C28.8698 16.6796 28.8093 17.798 28.8491 18.5031C28.9195 19.7517 29.4086 21.0238 29.6866 21.7467L29.6866 21.7467L29.6926 21.7624L29.8415 22.1489C31.2902 25.907 32.3546 28.6683 30.1 31.4018L30.1009 31.4005L30.101 31.4001C30.1007 31.3998 30.097 31.4028 30.0893 31.4091C30.0421 31.4477 29.8446 31.609 29.3601 31.8755C28.744 32.2143 27.9535 32.571 26.9261 33.0149C26.7424 33.0943 26.5511 33.1763 26.3533 33.2611L26.3524 33.2615L26.3516 33.2619L26.3515 33.2619C24.5029 34.0546 22.0889 35.0898 20.0018 36.4769C17.6405 38.0462 15.1551 40.4086 14.2709 44.0271C13.8186 45.8781 13.8441 47.8151 14.3018 49.8344H5C3.35702 49.8344 1.88114 50.839 1.27865 52.3676C0.676268 53.8958 1.07013 55.6376 2.27074 56.7586L2.33719 56.8213C2.38812 56.8696 2.46682 56.9447 2.57039 57.0447C2.77764 57.2448 3.08396 57.5442 3.46643 57.9287C4.23262 58.6988 5.2977 59.8033 6.48053 61.128C8.8851 63.8212 11.6165 67.2484 13.3788 70.5381C14.0198 71.7345 14.5498 73.1156 14.9787 74.6041C17.343 82.8103 24.2771 91.1677 34.2942 91.1677H59.0391C69.0563 91.1677 75.9903 82.8103 78.3546 74.6041C78.7835 73.1156 79.3135 71.7345 79.9545 70.5381C81.7168 67.2484 84.4482 63.8212 86.8528 61.128C88.0356 59.8033 89.1007 58.6988 89.8669 57.9287C90.2494 57.5442 90.5557 57.2448 90.7629 57.0447C90.8665 56.9447 90.9452 56.8696 90.9961 56.8213L91.0513 56.7692L91.0626 56.7586L91.0638 56.7574C92.264 55.6363 92.657 53.8955 92.0547 52.3675C91.4522 50.839 89.9763 49.8344 88.3333 49.8344H77.9144C78.8297 48.6456 80.0437 47.5458 81.6496 46.7658C86.1965 44.5573 92.1538 44.5011 95 44.5011C97.2091 44.5011 99 42.7102 99 40.5011C99 38.292 97.2091 36.5011 95 36.5011L94.8622 36.5011C92.0949 36.5001 84.4796 36.4975 78.1543 39.5697C72.8864 42.1285 70.1729 46.4631 68.7907 49.8344H62.5824ZM17.8914 57.8343L17.8914 57.8344H20.2157L53.8348 57.8344H55.3201L55.3202 57.8343H71.5779C71.6391 57.8358 71.7002 57.8358 71.761 57.8343H79.1253C76.9655 60.4149 74.6248 63.5457 72.9026 66.7603C71.9317 68.5727 71.2099 70.506 70.6673 72.3893C68.851 78.6937 64.1227 83.1677 59.0391 83.1677H34.2942C29.2106 83.1677 24.4824 78.6937 22.666 72.3893C22.1234 70.506 21.4016 68.5727 20.4307 66.7603C18.7086 63.5457 16.3679 60.4149 14.208 57.8343H17.8914Z"
        fill="currentcolor" />
</svg>