<svg width="100" height="100" viewBox="0 0 100 100" fill="none" xmlns="http://www.w3.org/2000/svg">
    <path fill-rule="evenodd" clip-rule="evenodd"
        d="M50 16C25.5461 16 4.7493 33.8409 1.02947 58.0102L0.278001 62.8928C-1.26822 72.9393 6.50468 82 16.6694 82H83.3306C93.4953 82 101.268 72.9393 99.722 62.8928L98.9705 58.0102C95.2507 33.8409 74.4539 16 50 16ZM37 26.0798C39.8809 25.1306 42.8948 24.4891 46 24.1911V50C46 52.2091 47.7909 54 50 54C52.2091 54 54 52.2091 54 50V24.1911C57.1052 24.4891 60.1191 25.1306 63 26.0798V50C63 52.2091 64.7909 54 67 54C69.2091 54 71 52.2091 71 50V29.6952C81.4831 35.8433 89.1028 46.4867 91.0636 59.2271L91.8151 64.1097C92.6154 69.31 88.592 74 83.3306 74H16.6694C11.4079 74 7.38455 69.31 8.1849 64.1098L8.93637 59.2272C10.8972 46.4867 18.5169 35.8433 29 29.6952V50C29 52.2091 30.7909 54 33 54C35.2091 54 37 52.2091 37 50V26.0798Z"
        fill="currentcolor" />
</svg>