<svg width="100" height="100" viewBox="0 0 100 100" fill="none" xmlns="http://www.w3.org/2000/svg">
    <path fill-rule="evenodd" clip-rule="evenodd"
        d="M50 21C69.4386 21 84.0747 32.0435 86.6097 45H81H19H13.3903C15.9253 32.0435 30.5614 21 50 21ZM85 53H91C93.2091 53 95 51.2091 95 49C95 28.2515 73.8732 13 50 13C26.1268 13 5 28.2515 5 49C5 51.2091 6.79086 53 9 53H15V61H9C7.73486 61 6.54431 61.5985 5.78962 62.6139C5.03494 63.6293 4.8051 64.9418 5.16986 66.1533L7.89074 75.1897C10.1806 82.7946 17.1842 88 25.1264 88H74.8736C82.8158 88 89.8194 82.7946 92.1093 75.1897L94.8301 66.1533C95.1949 64.9418 94.9651 63.6293 94.2104 62.6139C93.4557 61.5985 92.2651 61 91 61H85V53ZM77 53H23V61H64.3023H71.9302H77V53ZM81 69H71.9302H64.3023H19H14.3818L15.551 72.8832C16.8232 77.1081 20.714 80 25.1264 80H74.8736C79.286 80 83.1768 77.1081 84.449 72.8832L85.6182 69H81Z"
        fill="currentcolor" />
</svg>