<svg width="100" height="100" viewBox="0 0 100 100" fill="none" xmlns="http://www.w3.org/2000/svg">
    <path fill-rule="evenodd" clip-rule="evenodd"
        d="M58 20.5C58 16.3579 61.3578 13 65.5 13C69.6421 13 73 16.3579 73 20.5C73 24.6421 69.6421 28 65.5 28C61.3578 28 58 24.6421 58 20.5ZM65.5 5C56.9396 5 50 11.9396 50 20.5C50 21.5033 50.0953 22.4843 50.2774 23.4345L8.79877 51.6596C8.65378 51.7552 8.51566 51.8599 8.38512 51.9728C7.62976 52.6259 7.12848 53.553 7.02144 54.5844C7.00507 54.7404 6.99784 54.8977 6.99997 55.0555V90C6.99997 91.1932 7.53265 92.3241 8.45258 93.084C9.37251 93.8438 10.5836 94.1534 11.7554 93.928L89.7554 78.928C91.6387 78.5658 93 76.9179 93 75V40.04C93.0045 39.5987 92.9357 39.1639 92.8004 38.7521C92.7284 38.533 92.6376 38.3204 92.529 38.1168C92.2603 37.6132 91.8828 37.1646 91.4118 36.8088C91.3516 36.7634 91.29 36.7195 91.2268 36.6772L8.38512 51.9728L91.2216 36.6737L78.8491 28.3821C80.2156 26.0726 81 23.3779 81 20.5C81 11.9396 74.0604 5 65.5 5ZM72.9798 34.079C70.7621 35.3033 68.2124 36 65.5 36C60.8437 36 56.667 33.9469 53.8257 30.6965L29.2552 47.4161L78.6942 37.9086L72.9798 34.079ZM15 85.1575V58.3041L85 44.8425V71.6959L15 85.1575Z"
        fill="currentcolor" />
</svg>