<svg width="100" height="100" viewBox="0 0 100 100" fill="none" xmlns="http://www.w3.org/2000/svg">
    <path fill-rule="evenodd" clip-rule="evenodd"
        d="M54.8164 28C53.9304 26.1947 52.0795 25 50 25C47.9205 25 46.0696 26.1947 45.1836 28H54.8164ZM63.1728 28L63.0145 27.323C61.6011 21.2766 56.2095 17 50 17C43.7905 17 38.3989 21.2766 36.9855 27.323L36.8272 28H29.4595C24.6958 28 20.259 30.4223 17.683 34.4294L12.8162 42H4C1.79086 42 0 43.7909 0 46C0 48.2091 1.79086 50 4 50H11.9211L18.1635 73.5825C19.789 79.7232 25.3451 84 31.6974 84H68.3026C74.6549 84 80.211 79.7232 81.8365 73.5825L88.0789 50H96C98.2091 50 100 48.2091 100 46C100 43.7909 98.2091 42 96 42L87.1838 42L82.317 34.4294C79.741 30.4223 75.3042 28 70.5405 28H63.1728ZM40 36H29.4595C27.4179 36 25.5164 37.0381 24.4124 38.7555L22.3267 42H77.6733L75.5876 38.7555C74.4836 37.0381 72.5821 36 70.5405 36H60H40ZM20.1966 50L25.8971 71.5354C26.5938 74.1671 28.975 76 31.6974 76H68.3026C71.025 76 73.4062 74.1671 74.1029 71.5354L79.8034 50H20.1966Z"
        fill="currentcolor" />
</svg>