<svg width="100" height="100" viewBox="0 0 100 100" fill="none" xmlns="http://www.w3.org/2000/svg">
    <path fill-rule="evenodd" clip-rule="evenodd"
        d="M8.42231 10.2111C9.09988 8.85601 10.4849 8 12 8H42C43.5151 8 44.9002 8.85601 45.5777 10.2111C46.2553 11.5663 46.1091 13.1879 45.2 14.4L31 33.3333V39H34C36.2092 39 38 40.7909 38 43C38 45.2091 36.2092 47 34 47H27H20C17.7909 47 16 45.2091 16 43C16 40.7909 17.7909 39 20 39H23L23 33.3333L8.80002 14.4C7.89097 13.1879 7.74475 11.5663 8.42231 10.2111ZM20 16L27 25.3333L34 16H20ZM54 12C54 9.79086 55.7909 8 58 8H88C90.2092 8 92 9.79086 92 12C92 14.2091 90.2092 16 88 16H58C55.7909 16 54 14.2091 54 12ZM58 38C55.7909 38 54 39.7909 54 42C54 44.2091 55.7909 46 58 46H88C90.2092 46 92 44.2091 92 42C92 39.7909 90.2092 38 88 38H58ZM55.1716 55.1716C55.9217 54.4214 56.9392 54 58 54H88C90.2092 54 92 55.7909 92 58C92 64.5648 91.696 70.1403 90.1183 74.3694C89.291 76.5869 88.0731 78.5628 86.2801 80.1427C85.2905 81.0146 84.1913 81.7082 83 82.2521V88C83 90.2091 81.2092 92 79 92H67C64.7909 92 63 90.2091 63 88V82.2521C61.8087 81.7082 60.7096 81.0147 59.72 80.1427C57.927 78.5628 56.709 76.5869 55.8818 74.3694C54.3041 70.1403 54 64.5648 54 58C54 56.9391 54.4215 55.9217 55.1716 55.1716ZM78.0615 75.5166C76.1271 75.9835 74.8636 77.7832 75.0107 79.7053C75.0036 79.8026 75 79.9009 75 80V84H71V80H70.9557C71.2635 77.9702 69.9715 76.0073 67.9386 75.5166C66.5148 75.1729 65.6242 74.6826 65.0088 74.1404C64.3967 73.601 63.843 72.8219 63.3772 71.5732C62.5873 69.4559 62.19 66.4192 62.0548 62H83.9452C83.81 66.4192 83.4127 69.4559 82.6229 71.5732C82.157 72.8219 81.6034 73.601 80.9912 74.1404C80.3759 74.6826 79.4853 75.1729 78.0615 75.5166ZM66 23C63.7909 23 62 24.7909 62 27C62 29.2091 63.7909 31 66 31H80C82.2092 31 84 29.2091 84 27C84 24.7909 82.2092 23 80 23H66ZM14.8285 55.1716C13.6845 54.0276 11.964 53.6854 10.4693 54.3045C8.97459 54.9236 8.00002 56.3822 8.00002 58V88C8.00002 89.6179 8.97459 91.0764 10.4693 91.6955C11.964 92.3146 13.6845 91.9724 14.8285 90.8284L27 78.6569L39.1716 90.8284C40.3156 91.9724 42.0361 92.3146 43.5308 91.6955C45.0255 91.0764 46 89.6179 46 88V58C46 56.3822 45.0255 54.9236 43.5308 54.3045C42.0361 53.6854 40.3156 54.0276 39.1716 55.1716L27 67.3431L14.8285 55.1716ZM16 67.6569L21.3432 73L16 78.3431V67.6569ZM38 78.3431L32.6569 73L38 67.6569V78.3431Z"
        fill="currentcolor" />
</svg>