<svg width="100" height="100" viewBox="0 0 100 100" fill="none" xmlns="http://www.w3.org/2000/svg">
    <path fill-rule="evenodd" clip-rule="evenodd"
        d="M14.2649 6.20525C12.1691 5.50666 9.90386 6.6393 9.20527 8.73508C8.50668 10.8308 9.63932 13.0961 11.7351 13.7947L27.9643 19.2044L31.8316 26.7407H18.9259C17.3739 26.7407 15.9619 27.6385 15.3036 29.0441C14.6452 30.4496 14.8594 32.1091 15.853 33.3014L44.5556 67.7445V86H36.7037C34.4946 86 32.7037 87.7908 32.7037 90C32.7037 92.2091 34.4946 94 36.7037 94H60.4074C62.6165 94 64.4074 92.2091 64.4074 90C64.4074 87.7908 62.6165 86 60.4074 86H52.5556V67.7445L67.9684 49.2491C71.0282 50.9128 74.472 51.7988 77.9933 51.8C82.7446 51.8015 87.356 50.1917 91.0741 47.2337C94.7923 44.2756 97.3975 40.1441 98.464 35.5141C99.5306 30.884 98.9956 26.0291 96.9463 21.7425C94.897 17.4558 91.4546 13.9908 87.1815 11.9135C82.9084 9.83613 78.0571 9.26926 73.4202 10.3055C68.7832 11.3417 64.6347 13.9197 61.6523 17.6184C59.5027 20.2843 58.0505 23.4189 57.396 26.7407H40.8234L34.3366 14.0997C33.8588 13.1688 33.0354 12.4621 32.0427 12.1312L14.2649 6.20525ZM78.1548 37.0254L81.2581 33.3014C82.2517 32.1091 82.4659 30.4496 81.8075 29.0441C81.1492 27.6385 79.7373 26.7407 78.1852 26.7407H68.507L65.6559 26.7229C66.1425 25.2496 66.8923 23.8649 67.88 22.6399C69.7263 20.3503 72.2944 18.7544 75.1649 18.1129C78.0353 17.4714 81.0385 17.8224 83.6838 19.1083C86.3291 20.3943 88.4601 22.5393 89.7287 25.193C90.9973 27.8466 91.3285 30.852 90.6682 33.7182C90.008 36.5844 88.3952 39.142 86.0935 40.9732C83.7918 42.8044 80.9371 43.8009 77.9958 43.8C76.4223 43.7995 74.8738 43.5135 73.4216 42.9671L78.1548 37.0254ZM68.4822 34.7407H27.4661L48.5556 60.0481L69.639 34.7479L68.4822 34.7407Z"
        fill="currentcolor" />
</svg>