<svg width="100" height="100" viewBox="0 0 100 100" fill="none" xmlns="http://www.w3.org/2000/svg">
    <path fill-rule="evenodd" clip-rule="evenodd"
        d="M87 50C87 31.6352 73.6202 16.3953 56.0768 13.4966C56.8448 15.7054 56.9526 18.1654 56.291 20.6469C55.9408 21.9603 55.4157 23.1834 54.7472 24.2961C57.3658 27.6704 58.4323 32.1918 57.2462 36.6406C56.0607 41.0871 52.8885 44.4706 48.9404 46.0825C48.9652 47.3791 48.8116 48.6998 48.4619 50.0117C46.4547 57.5401 38.7392 62.0373 31.2075 60.0091C29.9068 59.6588 28.696 59.1354 27.5944 58.4705C24.2355 61.0914 19.7332 62.1647 15.2933 60.9691C15.055 60.9049 14.8198 60.835 14.5878 60.7595C19.1953 75.9452 33.3089 87 50 87C70.4345 87 87 70.4345 87 50ZM45.7542 13.53C45.5036 13.4347 45.2681 13.3169 45.0492 13.1798C43.299 12.9083 41.8807 11.489 41.6869 9.6445C41.456 7.44746 43.0499 5.47924 45.2469 5.24836C46.8101 5.08409 48.3959 5 50 5C74.8528 5 95 25.1472 95 50C95 74.8528 74.8528 95 50 95C26.9219 95 7.90624 77.6308 5.30333 55.2496C5.10288 53.5261 5.00001 51.7742 5.00001 50C5.00001 49.8329 5.01025 49.6682 5.03015 49.5065C4.76763 47.3952 6.21253 45.4317 8.33095 45.0723C10.509 44.7027 12.5742 46.1688 12.9437 48.3468C13.3353 50.6554 15.0165 52.6096 17.3736 53.2443C19.919 53.9298 22.5393 52.8824 23.9632 50.7874C24.6607 49.7611 25.795 49.1167 27.0336 49.0429C28.2723 48.9691 29.475 49.4744 30.2894 50.4106C31.056 51.2918 32.0763 51.9581 33.2877 52.2843C36.5141 53.1531 39.8565 51.2341 40.7319 47.9507C41.0594 46.7222 40.994 45.4923 40.6166 44.3806C40.2192 43.2101 40.3854 41.9216 41.0667 40.8901C41.7479 39.8587 42.8678 39.2002 44.1004 39.1063C46.5979 38.916 48.8266 37.1664 49.5162 34.5797C50.2067 31.9899 49.1453 29.342 47.0668 27.9152C46.0494 27.2167 45.4113 26.0878 45.3377 24.8559C45.2642 23.624 45.7634 22.4271 46.6905 21.6125C47.5661 20.8432 48.2335 19.8142 48.561 18.5859C49.1211 16.4854 48.2531 14.4807 45.7542 13.53ZM63.0908 33C63.0908 36.3137 65.7771 39 69.0908 39C72.4045 39 75.0908 36.3137 75.0908 33C75.0908 29.6863 72.4045 27 69.0908 27C65.7771 27 63.0908 29.6863 63.0908 33ZM57.9091 63.0909C54.5953 63.0909 51.9091 60.4046 51.9091 57.0909C51.9091 53.7772 54.5953 51.0909 57.9091 51.0909C61.2228 51.0909 63.9091 53.7772 63.9091 57.0909C63.9091 60.4046 61.2228 63.0909 57.9091 63.0909ZM69.5455 51.3636C69.5455 54.6774 72.2318 57.3636 75.5455 57.3636C78.8592 57.3636 81.5455 54.6774 81.5455 51.3636C81.5455 48.0499 78.8592 45.3636 75.5455 45.3636C72.2318 45.3636 69.5455 48.0499 69.5455 51.3636ZM59.6364 82.7273C56.3226 82.7273 53.6364 80.041 53.6364 76.7273C53.6364 73.4136 56.3226 70.7273 59.6364 70.7273C62.9501 70.7273 65.6364 73.4136 65.6364 76.7273C65.6364 80.041 62.9501 82.7273 59.6364 82.7273ZM34 72C34 75.3137 36.6863 78 40 78C43.3137 78 46 75.3137 46 72C46 68.6863 43.3137 66 40 66C36.6863 66 34 68.6863 34 72Z"
        fill="currentcolor" />
</svg>