<svg width="100" height="100" viewBox="0 0 100 100" fill="none" xmlns="http://www.w3.org/2000/svg">
    <path fill-rule="evenodd" clip-rule="evenodd"
        d="M46 18.2464C46 14.7043 48.7775 12 52 12C55.2225 12 58 14.7043 58 18.2464C58 20.0713 57.2528 21.6931 56.0798 22.8261C53.3139 21.3698 50.1629 20.5455 46.8182 20.5455C46.6852 20.5455 46.5524 20.5468 46.42 20.5494C46.1498 19.8408 46 19.0653 46 18.2464ZM38.5827 22.3234C38.2032 21.0289 38 19.6597 38 18.2464C38 10.4707 44.1768 4 52 4C59.8232 4 66 10.4707 66 18.2464C66 21.9649 64.5959 25.3679 62.2821 27.9152C63.1034 28.9271 63.8274 30.0211 64.4399 31.1831C66.3896 30.4764 68.4924 30.0909 70.6818 30.0909C80.7987 30.0909 89 38.2923 89 48.4091C89 55.4961 84.9754 61.6431 79.0871 64.6894L72.9714 89.152C72.5263 90.9326 70.9263 92.1818 69.0909 92.1818H30.909C29.0736 92.1818 27.4736 90.9326 27.0285 89.152L20.9128 64.6893C15.0245 61.6431 11 55.4961 11 48.4091C11 38.2923 19.2013 30.0909 29.3182 30.0909C29.4835 30.0909 29.6484 30.0931 29.8128 30.0975C31.8819 26.7073 34.9375 23.9821 38.5827 22.3234ZM46.8182 28.5455C41.8622 28.5455 37.6041 31.5739 35.8113 35.8966C35.081 37.6576 33.2093 38.6585 31.3391 38.288C30.6888 38.1591 30.0134 38.0909 29.3182 38.0909C23.6196 38.0909 19 42.7105 19 48.4091C19 54.1077 23.6196 58.7273 29.3182 58.7273C32.563 58.7273 35.4562 57.2341 37.3542 54.8819C38.1537 53.8911 39.3772 53.34 40.649 53.3979C41.9209 53.4558 43.0893 54.1157 43.7955 55.1751C46.5072 59.243 51.1249 61.9091 56.3636 61.9091C59.6369 61.9091 62.656 60.8716 65.1254 59.1069C66.0584 58.4402 67.2326 58.2059 68.35 58.4636C69.0955 58.6356 69.8755 58.7273 70.6818 58.7273C76.3804 58.7273 81 54.1077 81 48.4091C81 42.7105 76.3804 38.0909 70.6818 38.0909C68.4226 38.0909 66.3438 38.8123 64.6474 40.0382C63.5635 40.8214 62.1599 41.0112 60.9069 40.5439C59.6539 40.0766 58.7173 39.0141 58.411 37.7124C57.1738 32.4555 52.4478 28.5455 46.8182 28.5455ZM68.3198 66.576C68.9812 66.6613 69.6527 66.7112 70.3322 66.724L65.9678 84.1818H34.0322L29.6677 66.724C33.5669 66.6509 37.1688 65.3576 40.1057 63.2149C44.2755 67.349 50.0201 69.9091 56.3636 69.9091C60.7349 69.9091 64.8307 68.691 68.3198 66.576Z"
        fill="currentcolor" />
</svg>