<svg width="100" height="100" viewBox="0 0 100 100" fill="none" xmlns="http://www.w3.org/2000/svg">
    <path fill-rule="evenodd" clip-rule="evenodd"
        d="M0 26C0 21.5817 3.58172 18 8 18H92C96.4183 18 100 21.5817 100 26V34C100 38.4183 96.4183 42 92 42V58C96.4183 58 100 61.5817 100 66V74C100 78.4183 96.4183 82 92 82H8C3.58172 82 0 78.4183 0 74V66C0 61.5817 3.58172 58 8 58L8 42C3.58172 42 0 38.4183 0 34V26ZM16 58H84V42H16V58ZM88 66H12H8V74H92V66H88ZM92 34H88H12H8V26H92V34Z"
        fill="currentcolor" />
</svg>