<svg width="100" height="100" viewBox="0 0 100 100" fill="none" xmlns="http://www.w3.org/2000/svg">
    <path fill-rule="evenodd" clip-rule="evenodd"
        d="M64.4 2.79999C62.1909 2.79999 60.4 4.59085 60.4 6.79999V34.589L58.7272 37.6868C52.7366 48.7805 49.6 61.1903 49.6 73.7981V75.2V93.2C49.6 95.4091 51.3909 97.2 53.6 97.2H89.6C91.8091 97.2 93.6 95.4091 93.6 93.2V73.7981C93.6 61.1903 90.4634 48.7805 84.4728 37.6868L82.8 34.589V6.79999C82.8 4.59085 81.0091 2.79999 78.8 2.79999H64.4ZM57.6 89.2V79.2H67.9863L68 79.2C70.2091 79.2 72 77.4091 72 75.2L72 53.6C72 51.667 70.6289 50.0542 68.8061 49.6812C68.5457 49.628 68.2761 49.6 68 49.6H62.0512C63.1075 46.8258 64.3475 44.1156 65.7664 41.488L67.4873 38.3012C68.0863 37.1918 68.4 35.9509 68.4 34.6901V25.2H74.8V34.6901C74.8 35.9509 75.1137 37.1918 75.7127 38.3012L77.4336 41.488C82.7936 51.4139 85.6 62.5174 85.6 73.7981V89.2H57.6ZM57.6496 71.2H64V57.6H59.5574C58.4671 62.0452 57.8255 66.6014 57.6496 71.2ZM68.4 17.2V10.8H74.8V17.2H68.4ZM5.96904 42.3898C6.72891 41.5074 7.83555 41 9 41H45C46.1645 41 47.2711 41.5074 48.031 42.3898C48.7908 43.2721 49.1285 44.4418 48.9557 45.5934L41.7557 93.5934C41.462 95.5514 39.78 97 37.8 97H16.2C14.22 97 12.538 95.5514 12.2443 93.5934L5.04426 45.5934C4.87152 44.4418 5.20917 43.2721 5.96904 42.3898ZM13.6448 49L15.0916 58.6455C16.1599 57.738 17.6166 57 19.5 57C21.9071 57 23.6173 58.2055 24.7103 59.4297C25.6225 60.4514 26.2897 61.7007 26.706 62.4804L26.7759 62.6111C26.8569 62.7624 26.9314 62.9002 27 63.0259C27.0686 62.9002 27.1431 62.7624 27.2241 62.6111L27.294 62.4804C27.7103 61.7007 28.3775 60.4514 29.2897 59.4297C30.3827 58.2055 32.0929 57 34.5 57C36.3834 57 37.8402 57.738 38.9084 58.6455L40.3553 49H13.6448ZM19.6448 89L16.7952 70.0031C16.9424 69.8604 17.0807 69.7155 17.2103 69.5703C18.1225 68.5486 18.7897 67.2993 19.206 66.5196L19.2759 66.3889C19.3569 66.2376 19.4314 66.0998 19.5 65.9741C19.5687 66.0998 19.6431 66.2376 19.7241 66.3889L19.794 66.5196C20.2103 67.2993 20.8775 68.5487 21.7897 69.5703C22.8827 70.7944 24.5929 72 27 72C29.4071 72 31.1173 70.7944 32.2103 69.5703C33.1225 68.5486 33.7897 67.2993 34.2061 66.5196L34.2759 66.3889C34.3569 66.2376 34.4314 66.0998 34.5 65.9741C34.5687 66.0998 34.6431 66.2376 34.7241 66.3889L34.794 66.5196C35.2103 67.2993 35.8775 68.5486 36.7897 69.5703C36.9193 69.7155 37.0576 69.8604 37.2048 70.0031L34.3553 89H19.6448Z"
        fill="currentcolor" />
</svg>