<svg width="100" height="100" viewBox="0 0 100 100" fill="none" xmlns="http://www.w3.org/2000/svg">
    <path fill-rule="evenodd" clip-rule="evenodd"
        d="M81.8284 10.8284C83.3905 9.26633 83.3905 6.73367 81.8284 5.17157C80.2663 3.60948 77.7337 3.60948 76.1716 5.17157L75.0669 6.27627L75.0304 6.31275L74.9938 6.34933L74.9203 6.42283L74.772 6.57112L74.4705 6.87269L74.1625 7.18064L74.1236 7.21956L74.0846 7.25857L74.0063 7.33688L73.8486 7.49458L73.6895 7.65369L73.6094 7.73375L73.5692 7.77391L73.529 7.81416L73.2041 8.139L73.0399 8.30328L72.8744 8.46874L72.8329 8.51028L72.7913 8.55189L72.7078 8.63533L72.666 8.67715L72.6241 8.71903L72.5822 8.76099L72.5401 8.80301L71.8595 9.48368L71.7734 9.56978L71.7302 9.61292L71.687 9.6561L71.6438 9.69934L71.6005 9.74262L71.5572 9.78595L71.5138 9.82934L71.4704 9.87277L71.4269 9.91625L71.3834 9.95977L71.3398 10.0033L71.1651 10.1781L70.8137 10.5295L70.7696 10.5736L70.7254 10.6177L70.6813 10.6619L70.6371 10.7061L70.4599 10.8832L70.4155 10.9276L70.3712 10.972L70.2823 11.0609L70.2378 11.1054L70.1933 11.1499L70.1488 11.1944L70.1042 11.239L70.015 11.3281L69.9704 11.3728L69.9257 11.4174L69.881 11.4621L69.8363 11.5068L69.7916 11.5515L69.7469 11.5963L69.6574 11.6858L69.5677 11.7754L69.4781 11.8651L69.4332 11.9099L69.3884 11.9548L69.3435 11.9997L69.2986 12.0446L69.2087 12.1344L69.1638 12.1793L69.1189 12.2243L69.0739 12.2692L69.029 12.3142L68.984 12.3592L68.939 12.4041L68.894 12.4491L68.849 12.4941L68.7591 12.5841L68.6691 12.6741L68.309 13.0341L68.1291 13.214L68.0841 13.259L68.0392 13.304L67.9942 13.3489L67.9493 13.3939L67.9043 13.4388L67.8594 13.4837L67.8145 13.5287L67.7696 13.5736L67.7247 13.6185L67.6798 13.6633L67.6349 13.7082L67.5901 13.7531L67.5453 13.7979L67.5004 13.8427L67.4556 13.8875L67.4109 13.9323L67.3661 13.9771L67.3213 14.0218L67.2766 14.0665L67.2319 14.1112L67.1872 14.1559L67.1425 14.2006L67.0979 14.2452L67.0533 14.2899L67.0087 14.3345L66.9641 14.379L66.9196 14.4236L66.875 14.4681L66.8305 14.5126L66.7861 14.5571L66.7416 14.6015L66.6972 14.6459L66.6528 14.6903L66.6085 14.7346L66.5642 14.779L66.5199 14.8233L66.4756 14.8675L66.4314 14.9117L66.3872 14.9559L66.3431 15.0001L66.299 15.0442L66.2549 15.0883L66.2108 15.1323L66.1668 15.1763L65.4684 15.8748L64.7826 16.5605L64.7402 16.6029L64.6979 16.6452L64.6135 16.7296L64.4454 16.8977L64.4036 16.9396L64.3618 16.9814L64.2784 17.0647L64.2368 17.1063L64.1953 17.1478L64.1125 17.2306L64.0712 17.2719L64.03 17.3131L63.9478 17.3954L63.8659 17.4773L63.825 17.5181L63.7842 17.5589L63.461 17.8822L63.1431 18.2L63.1038 18.2394L63.0645 18.2786L63.0254 18.3178L62.9863 18.3568L62.9473 18.3958L62.9085 18.4347L62.831 18.5122L62.6772 18.666L62.6009 18.7423L62.5629 18.7803L62.525 18.8182L62.4872 18.856L62.4494 18.8937L62.4118 18.9313L62.3744 18.9688L62.2254 19.1177L61.8813 19.4619C59.3408 13.9091 53.7363 10.0513 47.2308 10.0513C39.6774 10.0513 33.3388 15.2519 31.6002 22.2678C22.8205 23.2677 16 30.7219 16 39.7692C16 40.0278 16.0245 40.2807 16.0714 40.5256C16.0245 40.7706 16 41.0234 16 41.282C16 57.1751 27.8716 70.2954 43.2308 72.259V88.7179H35.1282C32.9191 88.7179 31.1282 90.5088 31.1282 92.7179C31.1282 94.927 32.9191 96.7179 35.1282 96.7179H47.2114C47.2179 96.7179 47.2243 96.7179 47.2308 96.7179C47.2372 96.7179 47.2437 96.7179 47.2501 96.7179H59.3333C61.5425 96.7179 63.3333 94.927 63.3333 92.7179C63.3333 90.5088 61.5425 88.7179 59.3333 88.7179H51.2308V72.259C66.59 70.2954 78.4615 57.1751 78.4615 41.282L78.4615 41.2756C78.4587 33.9418 73.5531 27.7542 66.8444 25.8124L66.8902 25.7667L66.924 25.7328L66.9579 25.6989L67.0262 25.6307L67.0605 25.5963L67.0949 25.5619L67.1295 25.5274L67.1642 25.4927L67.2339 25.423L67.3041 25.3528L67.3748 25.2821L67.4459 25.2109L67.5175 25.1393L67.5896 25.0673L67.6621 24.9948L67.735 24.9218L67.7717 24.8852L67.8084 24.8484L67.8823 24.7746L68.0312 24.6256L68.1063 24.5506L68.144 24.5128L68.1818 24.475L68.2197 24.4371L68.2577 24.3991L68.2958 24.361L68.334 24.3228L68.3723 24.2845L68.4107 24.2461L68.4492 24.2076L68.4878 24.169L68.5653 24.0915L68.6432 24.0137L68.6822 23.9746L68.7214 23.9355L68.7606 23.8962L68.8 23.8569L68.8394 23.8175L68.8789 23.7779L68.9185 23.7383L68.9582 23.6986L69.0379 23.619L69.1178 23.539L69.4411 23.2158L69.5227 23.1341L69.6046 23.0522L69.6457 23.0111L69.6869 22.97L69.7281 22.9288L69.7694 22.8875L69.8107 22.8461L69.8522 22.8047L69.8937 22.7632L69.9353 22.7216L69.9769 22.6799L70.0186 22.6382L70.0604 22.5964L70.1023 22.5546L70.1442 22.5126L70.1862 22.4707L70.2282 22.4286L70.2704 22.3865L70.4395 22.2174L70.7806 21.8763L71.1252 21.5316L71.1685 21.4883L71.2119 21.445L71.2988 21.3581L71.3423 21.3146L71.3858 21.271L71.4294 21.2275L71.473 21.1838L71.648 21.0088L71.8237 20.8332L71.8677 20.7892L71.9117 20.7451L71.9558 20.701L71.9999 20.6569L72.0441 20.6128L72.0883 20.5686L72.1325 20.5244L72.1767 20.4801L72.221 20.4358L72.2654 20.3915L72.3097 20.3472L72.3541 20.3028L72.3985 20.2584L72.4429 20.2139L72.4874 20.1695L72.5319 20.125L72.5764 20.0804L72.621 20.0359L72.6655 19.9913L72.7101 19.9467L72.7548 19.9021L72.7994 19.8575L72.8441 19.8128L72.8887 19.7681L72.9335 19.7234L72.9782 19.6787L73.0229 19.6339L73.0677 19.5892L73.1125 19.5444L73.1573 19.4996L73.2021 19.4547L73.2469 19.4099L73.2918 19.3651L73.3367 19.3202L73.3815 19.2753L73.4264 19.2304L73.4713 19.1855L73.5163 19.1406L73.5612 19.0957L73.6061 19.0507L73.6511 19.0058L73.696 18.9608L73.741 18.9159L73.786 18.8709L73.8759 18.7809L73.9659 18.691L74.3259 18.3309L74.4159 18.2409L74.5059 18.151L74.5509 18.106L74.5959 18.061L74.6408 18.016L74.6858 17.971L74.7757 17.8811L74.8207 17.8362L74.8656 17.7913L74.9554 17.7014L75.0003 17.6565L75.0452 17.6116L75.0901 17.5668L75.1349 17.5219L75.1798 17.4771L75.2246 17.4323L75.2694 17.3874L75.3142 17.3426L75.359 17.2979L75.4037 17.2531L75.4932 17.1637L75.5826 17.0743L75.6272 17.0296L75.6719 16.985L75.7165 16.9404L75.7611 16.8958L75.8056 16.8512L75.8501 16.8067L75.8946 16.7622L75.9391 16.7177L75.9836 16.6733L76.028 16.6288L76.0724 16.5845L76.1168 16.5401L76.2939 16.3629L76.3381 16.3187L76.3823 16.2746L76.4705 16.1863L76.6465 16.0103L76.7343 15.9225L76.8219 15.8349L77.1707 15.4862L77.214 15.4428L77.2574 15.3995L77.3007 15.3562L77.3439 15.313L77.3871 15.2698L77.4302 15.2266L77.4733 15.1836L77.5163 15.1405L77.8586 14.7983L77.9435 14.7133L77.9859 14.6709L78.0283 14.6286L78.197 14.4599L79.5054 13.1514L79.6631 12.9937L79.7414 12.9154L79.8194 12.8375L79.9741 12.6827L80.1273 12.5295L80.4289 12.228L80.5772 12.0797L80.6507 12.0062L80.6873 11.9696L80.7237 11.9331L80.7601 11.8968L80.7963 11.8605L80.8685 11.7883L81.0115 11.6454L81.1526 11.5043L81.2224 11.4345L81.2571 11.3997L81.2917 11.3651L81.8284 10.8284ZM47.2308 18.0513C43.7892 18.0513 40.8488 20.1969 39.6743 23.2235C43.8769 24.7629 47.3295 27.8578 49.3348 31.8109C50.8951 29.669 52.971 27.9267 55.3799 26.7663C55.3493 26.5666 55.3333 26.3621 55.3333 26.1538C55.3333 21.6789 51.7057 18.0513 47.2308 18.0513ZM33.6154 30.1538C29.1651 30.1538 25.4209 33.1772 24.3248 37.282H42.906C41.8099 33.1772 38.0657 30.1538 33.6154 30.1538ZM69.407 37.282C68.0135 34.8319 65.3792 33.1794 62.359 33.1794C59.3387 33.1794 56.7045 34.8319 55.311 37.282H69.407ZM24.3431 45.282C26.2389 56.2059 35.7648 64.5128 47.2308 64.5128C58.6968 64.5128 68.2226 56.2059 70.1185 45.282H24.3431Z"
        fill="currentcolor" />
</svg>