<svg width="100" height="100" viewBox="0 0 100 100" fill="none" xmlns="http://www.w3.org/2000/svg">
    <path fill-rule="evenodd" clip-rule="evenodd"
        d="M79.0985 3.73962C79.7946 5.83623 78.6593 8.10015 76.5627 8.79623L63.3336 13.1883L59.8363 24H80C81.1861 24 82.311 24.5264 83.071 25.437C83.831 26.3476 84.1476 27.5486 83.9355 28.7155L71.9355 94.7155C71.5897 96.6175 69.9331 98 68 98H32C30.0669 98 28.4103 96.6175 28.0645 94.7155L16.0645 28.7155C15.8523 27.5486 16.169 26.3476 16.929 25.437C17.689 24.5264 18.8139 24 20 24H51.4281L56.3453 8.7991C56.7372 7.58766 57.6824 6.63515 58.8908 6.23397L74.0419 1.20374C76.1385 0.50766 78.4025 1.64301 79.0985 3.73962ZM30.3026 62.3036L35.3383 90H64.6617L69.6974 62.3036C69.2728 62.0007 68.8805 61.6701 68.5189 61.323C67.1769 60.0346 66.1667 58.4158 65.4523 57.271L65.358 57.12C64.5143 55.7701 63.9917 54.9769 63.4408 54.448C63.041 54.0642 62.8182 54 62.5 54C62.1818 54 61.959 54.0642 61.5592 54.448C61.0083 54.9769 60.4857 55.7701 59.642 57.12L59.5477 57.271L59.5477 57.271C58.8333 58.4159 57.8231 60.0347 56.4811 61.323C54.9277 62.8142 52.8068 64 50 64C47.1932 64 45.0723 62.8142 43.5189 61.323C42.1769 60.0346 41.1667 58.4158 40.4523 57.271L40.358 57.12C39.5143 55.7701 38.9917 54.9769 38.4408 54.448C38.041 54.0642 37.8182 54 37.5 54C37.1818 54 36.959 54.0642 36.5592 54.448C36.0083 54.9769 35.4857 55.7701 34.642 57.12L34.5477 57.271L34.5477 57.271C33.8333 58.4158 32.8231 60.0346 31.4811 61.323C31.1195 61.6701 30.7272 62.0007 30.3026 62.3036ZM28.4253 51.9783C29.0914 50.9392 29.9499 49.7032 31.0189 48.6769C32.5723 47.1857 34.6932 46 37.5 46C40.3068 46 42.4277 47.1857 43.9811 48.6769C45.3231 49.9653 46.3333 51.5842 47.0477 52.729L47.142 52.88C47.9857 54.2299 48.5083 55.0231 49.0592 55.5519C49.459 55.9357 49.6818 56 50 56C50.3182 56 50.541 55.9357 50.9408 55.5519C51.4917 55.0231 52.0143 54.2299 52.858 52.88L52.9523 52.729C53.6667 51.5842 54.6769 49.9653 56.0189 48.6769C57.5723 47.1857 59.6932 46 62.5 46C65.3068 46 67.4277 47.1857 68.9811 48.6769C70.0501 49.7032 70.9086 50.9392 71.5747 51.9783L75.2072 32H24.7929L28.4253 51.9783Z"
        fill="currentcolor" />
</svg>