<svg width="100" height="100" viewBox="0 0 100 100" fill="none" xmlns="http://www.w3.org/2000/svg">
    <path fill-rule="evenodd" clip-rule="evenodd"
        d="M11 29C11 19.0589 19.0589 11 29 11H71C80.9411 11 89 19.0589 89 29V71C89 80.9411 80.9411 89 71 89H29C19.0589 89 11 80.9411 11 71V29ZM29 19C23.4772 19 19 23.4772 19 29V71C19 76.5228 23.4772 81 29 81H71C76.5228 81 81 76.5228 81 71V29C81 23.4772 76.5228 19 71 19H29ZM25 29C25 26.7909 26.7909 25 29 25H71C73.2091 25 75 26.7909 75 29C75 31.2091 73.2091 33 71 33H29C26.7909 33 25 31.2091 25 29ZM29 67C26.7909 67 25 68.7909 25 71C25 73.2091 26.7909 75 29 75H71C73.2091 75 75 73.2091 75 71C75 68.7909 73.2091 67 71 67H29Z"
        fill="currentcolor" />
</svg>