<svg width="100" height="100" viewBox="0 0 100 100" fill="none" xmlns="http://www.w3.org/2000/svg">
    <path fill-rule="evenodd" clip-rule="evenodd"
        d="M30.6809 15.8208C31.674 13.8475 34.0788 13.0529 36.0521 14.046C39.7563 15.9102 42.3487 18.3455 43.4057 21.4615C44.4714 24.6027 43.665 27.5095 42.5777 29.6202C41.4994 31.7134 39.9629 33.4072 38.8171 34.5111C38.2252 35.0814 37.6915 35.5378 37.2987 35.8572C37.1014 36.0176 36.9373 36.1453 36.8162 36.2375C36.7556 36.2836 36.7055 36.321 36.6673 36.3492L36.6189 36.3848L36.6015 36.3974L36.6008 36.3979L36.6 36.3985L36.5951 36.4021L36.5762 36.4162L36.5368 36.4459C36.4779 36.4908 36.3813 36.5657 36.2557 36.6677C36.0029 36.8733 35.6426 37.1809 35.2412 37.5676C34.4004 38.3776 33.553 39.3689 33.042 40.3609C32.54 41.3353 32.5517 41.9134 32.6781 42.2858C32.8129 42.6834 33.3992 43.7902 36.0521 45.1254C38.0255 46.1185 38.8201 48.5233 37.827 50.4966C36.8339 52.4699 34.4291 53.2645 32.4558 52.2714C28.7516 50.4072 26.1592 47.9719 25.1021 44.8559C24.0365 41.7148 24.8429 38.8079 25.9302 36.6972C27.0085 34.6041 28.545 32.9102 29.6908 31.8063C30.2827 31.2361 30.8164 30.7796 31.2092 30.4603C31.4065 30.2999 31.5706 30.1721 31.6917 30.08C31.7523 30.0338 31.8024 29.9965 31.8406 29.9682L31.889 29.9327L31.9063 29.9201L31.9071 29.9196L31.9073 29.9194L31.9075 29.9192L31.9128 29.9154C31.9219 29.9087 31.9417 29.8939 31.9711 29.8715C32.03 29.8267 32.1266 29.7518 32.2522 29.6497C32.505 29.4442 32.8653 29.1365 33.2667 28.7498C34.1075 27.9398 34.9549 26.9485 35.4659 25.9566C35.9679 24.9822 35.9562 24.404 35.8298 24.0316C35.6949 23.634 35.1087 22.5272 32.4558 21.1921C30.4824 20.1989 29.6878 17.7942 30.6809 15.8208ZM31.9165 29.9127L31.9163 29.9129C31.9176 29.9119 31.9189 29.911 34.0936 32.9357C31.9189 29.911 31.9177 29.9119 31.9165 29.9127ZM36.5916 36.4045C36.5903 36.4055 36.5889 36.4065 34.2539 33.1587C36.5889 36.4065 36.5902 36.4056 36.5913 36.4047L36.5916 36.4045ZM16.6337 25.5523C14.7735 24.3608 12.2995 24.9029 11.108 26.7631C9.91642 28.6234 10.4585 31.0974 12.3188 32.2889C12.8059 32.6009 13.0503 32.8523 13.1657 32.9979C13.2713 33.1313 13.2898 33.2013 13.293 33.2132L13.2931 33.2138C13.2976 33.2307 13.3435 33.419 13.1524 33.8912C12.9589 34.3693 12.6241 34.8752 12.2704 35.3089C12.1044 35.5124 11.9577 35.6714 11.8608 35.7718C11.8129 35.8213 11.7789 35.8547 11.763 35.8701L11.7559 35.8769L11.7516 35.881L11.7177 35.9126C11.6921 35.9367 11.6605 35.9668 11.6233 36.0027C11.5492 36.0745 11.4528 36.1701 11.3393 36.2876C11.1134 36.5213 10.8131 36.8485 10.4825 37.2539C9.84288 38.0382 8.98568 39.241 8.38453 40.7262C7.78102 42.2172 7.3378 44.2467 7.92927 46.4656C8.53911 48.7535 10.0856 50.6362 12.3188 52.0667C14.179 53.2582 16.653 52.7161 17.8445 50.8558C19.0361 48.9956 18.494 46.5216 16.6337 45.3301C16.1466 45.0181 15.9022 44.7667 15.7868 44.6211C15.6812 44.4877 15.6627 44.4177 15.6595 44.4058L15.6594 44.4052C15.6549 44.3883 15.609 44.2 15.8001 43.7278C15.9936 43.2497 16.3284 42.7438 16.6821 42.3101C16.8481 42.1066 16.9947 41.9475 17.0917 41.8472C17.1396 41.7977 17.1736 41.7643 17.1895 41.7489L17.1965 41.7421L17.2009 41.738L17.2348 41.7064C17.2604 41.6823 17.292 41.6522 17.3292 41.6162C17.4033 41.5444 17.4997 41.4489 17.6132 41.3314C17.8391 41.0977 18.1394 40.7705 18.47 40.3651C19.1096 39.5808 19.9668 38.378 20.568 36.8928C21.1715 35.4018 21.6147 33.3723 21.0232 31.1533C20.4134 28.8655 18.8669 26.9827 16.6337 25.5523ZM11.7735 35.8608L11.7736 35.8607C11.7747 35.8596 11.7759 35.8585 14.2908 38.6068C11.7759 35.8585 11.7747 35.8596 11.7735 35.8608ZM14.4762 38.8095C17.1765 41.7605 17.1778 41.7594 17.179 41.7582L17.1789 41.7583C17.1777 41.7594 17.1765 41.7605 14.4762 38.8095ZM95.0164 56.9038C97.2165 56.9038 99.0001 55.1202 99.0001 52.9201C99.0001 50.72 97.2165 48.9364 95.0164 48.9364C94.9748 48.9364 94.9333 48.9371 94.892 48.9383L94.8881 48.9374L94.8853 48.937L94.8807 48.9368C94.8076 48.9371 94.7021 48.9378 94.5661 48.939C94.2942 48.9416 93.9006 48.9466 93.4025 48.9566C92.4069 48.9765 90.9914 49.0161 89.2952 49.0953C85.9141 49.2531 81.3667 49.57 76.7867 50.2112C72.2699 50.8435 67.4461 51.8269 63.652 53.4204C61.759 54.2155 59.8692 55.2649 58.4004 56.7044C57.7733 57.319 57.2036 58.027 56.7497 58.8254H6C4.82419 58.8254 3.70793 59.3427 2.94792 60.2399C2.18791 61.1371 1.86112 62.3232 2.05442 63.483C4.00629 75.1942 14.1389 83.7778 26.0116 83.7778H39.6709C51.5153 83.7778 61.6278 75.2352 63.614 63.5669C63.659 63.3266 63.6826 63.0787 63.6826 62.8253C63.6826 62.8253 63.6838 62.8188 63.6907 62.8044C63.7111 62.7614 63.7858 62.6279 63.9999 62.4181C64.4625 61.9647 65.3319 61.3918 66.7499 60.7962C69.5779 59.6085 73.5834 58.7377 77.8959 58.1339C82.1453 57.539 86.4273 57.2378 89.6682 57.0866C91.283 57.0112 92.6266 56.9737 93.5625 56.955C94.0302 56.9456 94.3953 56.941 94.6408 56.9387C94.7635 56.9375 94.8562 56.937 94.9168 56.9367L94.9833 56.9365L95.0007 56.9364L95.0007 56.9037L95.0164 56.9038ZM11.4667 66.8254C14.1745 72.1947 19.7298 75.7778 26.0116 75.7778H39.6709C45.9527 75.7778 51.5081 72.1947 54.2159 66.8254H11.4667ZM52.8706 30.934C50.8617 30.0149 48.4881 30.8983 47.569 32.9072C46.6898 34.8288 47.46 37.0842 49.287 38.081C49.2101 38.1432 49.1425 38.1948 49.0897 38.2338C49.0453 38.2667 49.0141 38.2885 49.0003 38.2981L48.9958 38.3012L48.9927 38.3033L48.9577 38.3266C48.9314 38.3443 48.8988 38.3664 48.8606 38.3928C48.7844 38.4456 48.6852 38.5158 48.5682 38.6023C48.3362 38.7738 48.0239 39.0167 47.677 39.3204C47.0296 39.8874 46.0572 40.8425 45.3424 42.1039C44.6155 43.3866 43.9144 45.4548 44.7769 47.7661C45.603 49.9799 47.4963 51.3997 49.5422 52.3357C51.5511 53.2548 53.9247 52.3714 54.8438 50.3625C55.723 48.4409 54.9527 46.1855 53.1258 45.1888C53.2026 45.1266 53.2703 45.0749 53.3231 45.0359C53.3675 45.0031 53.3987 44.9812 53.4125 44.9716L53.417 44.9685L53.4201 44.9665L53.455 44.9431C53.4715 44.9321 53.4903 44.9194 53.5113 44.905C53.5241 44.8962 53.5378 44.8869 53.5522 44.8769C53.6284 44.8242 53.7276 44.7539 53.8446 44.6674C54.0766 44.4959 54.3889 44.2531 54.7358 43.9493C55.3832 43.3823 56.3556 42.4273 57.0704 41.1658C57.7973 39.8831 58.4984 37.8149 57.6359 35.5036C56.8098 33.2898 54.9165 31.87 52.8706 30.934ZM50.3587 38.6867C50.3585 38.6867 50.3553 38.6837 50.3497 38.6775C50.3561 38.6835 50.3589 38.6866 50.3587 38.6867ZM52.0631 44.5922C52.0567 44.5862 52.0539 44.5831 52.054 44.583C52.0542 44.583 52.0574 44.586 52.0631 44.5922ZM49.0154 38.2883L49.0155 38.2882C49.0167 38.2874 49.0179 38.2867 50.9598 41.2576C49.0179 38.2867 49.0166 38.2875 49.0154 38.2883ZM51.2064 41.6349C53.3948 44.9831 53.3961 44.9823 53.3974 44.9814L53.3973 44.9815C53.396 44.9823 53.3948 44.9831 51.2064 41.6349Z"
        fill="currentcolor" />
</svg>