<svg width="100" height="100" viewBox="0 0 100 100" fill="none" xmlns="http://www.w3.org/2000/svg">
    <path fill-rule="evenodd" clip-rule="evenodd"
        d="M16.8141 10.179C16.3813 10.3129 15.9667 10.522 15.5909 10.8062C15.2143 11.0896 14.8993 11.4309 14.6516 11.8104C14.3227 12.3122 14.1183 12.8718 14.0384 13.4454C13.9577 14.0188 14.0005 14.613 14.179 15.1858C14.2681 15.4739 14.3906 15.754 14.5463 16.0199L31.8054 47.0861C32.8121 48.8983 32.8121 51.1017 31.8054 52.9139L14.5462 83.9803C14.3907 84.2459 14.2683 84.5256 14.1792 84.8133C14.0007 85.3862 13.9577 85.9804 14.0383 86.5539C14.1182 87.1284 14.323 87.6888 14.6527 88.1913C14.8999 88.5697 15.214 88.91 15.5894 89.1927C15.9666 89.4782 16.3829 89.688 16.8175 89.822C17.3878 89.9991 17.9792 90.0419 18.5501 89.9622C19.1262 89.8827 19.6884 89.6775 20.1923 89.3467C20.4439 89.1822 20.6786 88.9881 20.8908 88.7661L26 83.6569L31.1716 88.8284C32.7337 90.3905 35.2663 90.3905 36.8284 88.8284L42 83.6569L47.1716 88.8284C48.7337 90.3905 51.2663 90.3905 52.8284 88.8284L58 83.6569L63.1716 88.8284C64.7337 90.3905 67.2663 90.3905 68.8284 88.8284L74 83.6569L79.1091 88.766C79.3215 88.9883 79.5565 89.1825 79.8084 89.3471C80.312 89.6776 80.8738 89.8827 81.4497 89.9622C82.0205 90.0419 82.6119 89.9992 83.1822 89.8222C83.617 89.6881 84.0335 89.4782 84.4108 89.1925C84.7861 88.9098 85.1001 88.5696 85.3473 88.1914C85.6769 87.6889 85.8817 87.1286 85.9616 86.5543C86.0424 85.9804 85.9993 85.3857 85.8205 84.8124C85.7314 84.525 85.6092 84.2457 85.4539 83.9804L68.1946 52.9139C67.1879 51.1017 67.1879 48.8983 68.1946 47.0861L85.4538 16.0197C85.6095 15.7539 85.7319 15.4739 85.821 15.1858C85.9995 14.6128 86.0423 14.0185 85.9615 13.445C85.8816 12.8714 85.6772 12.3119 85.3482 11.8101C85.1006 11.4308 84.7858 11.0896 84.4093 10.8064C84.0331 10.5218 83.6181 10.3126 83.1849 10.1787C82.6121 10.0004 82.0182 9.95771 81.445 10.0385C80.8719 10.1183 80.3128 10.3225 79.8112 10.651C79.5582 10.816 79.3222 11.011 79.109 11.2342L74 16.3431L68.8284 11.1716C67.2663 9.60947 64.7337 9.60947 63.1716 11.1716L58 16.3431L52.8284 11.1716C51.2663 9.60947 48.7337 9.60947 47.1716 11.1716L42 16.3431L36.8284 11.1716C35.2663 9.60947 32.7337 9.60947 31.1716 11.1716L26 16.3431L20.891 11.2341C20.6781 11.0113 20.4425 10.8166 20.1899 10.6518C19.688 10.3228 19.1284 10.1183 18.5548 10.0384C17.9813 9.95767 17.3871 10.0005 16.8141 10.179ZM28.6734 24.9756L38.7986 43.201C41.1477 47.4293 41.1477 52.5707 38.7986 56.799L28.6734 75.0244C28.726 75.0718 28.7777 75.1209 28.8284 75.1716L34 80.3431L39.1716 75.1716C40.7337 73.6095 43.2663 73.6095 44.8284 75.1716L50 80.3431L55.1716 75.1716C56.7337 73.6095 59.2663 73.6095 60.8284 75.1716L66 80.3431L71.1716 75.1716C71.2223 75.1209 71.274 75.0718 71.3266 75.0244L61.2014 56.799C58.8523 52.5707 58.8523 47.4293 61.2014 43.201L71.3266 24.9755C71.274 24.9282 71.2223 24.8791 71.1716 24.8284L66 19.6568L60.8284 24.8284C59.2663 26.3905 56.7337 26.3905 55.1716 24.8284L50 19.6568L44.8284 24.8284C43.2663 26.3905 40.7337 26.3905 39.1716 24.8284L34 19.6568L28.8284 24.8284C28.7777 24.8791 28.726 24.9282 28.6734 24.9756Z"
        fill="currentcolor" />
</svg>