<svg width="100" height="100" viewBox="0 0 100 100" fill="none" xmlns="http://www.w3.org/2000/svg">
    <g clip-path="url(#clip0_1998_12)">
        <path fill-rule="evenodd" clip-rule="evenodd"
            d="M86.4863 37.1907C81.1019 27.8646 74.9365 21.2603 70.0233 16.9351C67.5651 14.7711 65.4074 13.166 63.7945 12.0633C62.9872 11.5114 62.3137 11.0835 61.8037 10.7726C61.782 10.7594 61.7603 10.7464 61.7384 10.7336L60.8868 10.2365C60.8546 10.2176 60.822 10.1992 60.7892 10.1813C54.9744 7.00154 47.6829 9.1377 44.5032 14.9525C42.4362 18.7325 42.6155 23.1363 44.5915 26.6292L1.91722 81.7418C0.922818 83.0261 0.803715 84.7841 1.61583 86.1908C2.42794 87.5974 4.01002 88.3733 5.6194 88.1542L60.2521 80.7181C60.3269 80.7685 60.4022 80.8182 60.4779 80.8672L60.6056 80.67L74.6855 78.7535C76.7224 82.2112 80.4465 84.5683 84.7535 84.6682C91.3792 84.8219 96.8749 79.5753 97.0286 72.9497C97.0294 72.9123 97.0298 72.8749 97.0296 72.8376L97.0248 71.8515C97.0247 71.8262 97.0243 71.8008 97.0237 71.7755C97.0095 71.1784 96.9757 70.3811 96.9013 69.406C96.7528 67.4579 96.4416 64.7868 95.7966 61.5758C94.5075 55.1583 91.8707 46.5168 86.4863 37.1907ZM72.9452 70.9166C72.8518 69.8373 72.6599 68.26 72.2667 66.3024C71.9939 64.9443 71.6256 63.41 71.1286 61.7363C69.2226 61.0126 67.0323 61.1243 65.1395 62.2171C61.7915 64.15 60.6444 68.4312 62.5774 71.7792C62.6781 71.9538 62.7851 72.1222 62.8977 72.2842L72.9452 70.9166ZM67.8673 53.2967C67.2276 51.9613 66.509 50.589 65.7017 49.1907C61.836 42.4952 57.4703 37.8591 54.165 34.9494C52.6663 33.6301 51.3963 32.6752 50.5083 32.0547L41.798 43.3038C43.8195 44.5634 45.5715 46.3243 46.8453 48.5305C50.9875 55.7049 48.5293 64.8788 41.3549 69.0209C35.46 72.4243 28.2152 71.3718 23.5209 66.9083L14.2289 78.9086L54.5457 73.421C52.0858 66.7029 54.7313 58.9887 61.1395 55.2888C63.2677 54.0602 65.572 53.4131 67.8673 53.2967ZM64.7372 22.9399C69.1145 26.7933 74.68 32.7415 79.5581 41.1907C84.4362 49.6398 86.8048 57.4338 87.9533 63.1513C88.5277 66.0108 88.7981 68.3566 88.9245 70.0141C88.986 70.8215 89.0135 71.4667 89.0251 71.9296L89.0294 72.8108C88.9537 74.9973 87.132 76.7212 84.9391 76.6704C82.7384 76.6193 80.994 74.8001 81.0324 72.6025C81.0327 72.5859 81.0329 72.5693 81.033 72.5527C81.0338 72.3908 81.0311 71.7169 80.9476 70.6221C80.8434 69.2553 80.6138 67.2349 80.11 64.7269C79.1021 59.7093 77.0017 52.7629 72.6299 45.1907C68.258 37.6184 63.2925 32.3263 59.4511 28.9446C57.531 27.2543 55.8961 26.0452 54.7645 25.2716C53.858 24.6518 53.2756 24.3125 53.1348 24.2321C53.1205 24.224 53.1062 24.2159 53.0918 24.2079C51.1694 23.1424 50.4662 20.7221 51.5223 18.7908C52.5747 16.8662 54.9785 16.1505 56.9099 17.1782L57.6709 17.6225C58.066 17.8641 58.611 18.2104 59.2795 18.6674C60.6517 19.6056 62.548 21.0127 64.7372 22.9399ZM36.8453 49.7001L28.4748 60.5104C30.6136 63.0853 34.3581 63.8229 37.3549 62.0927C40.703 60.1597 41.8501 55.8786 39.9171 52.5305C39.1759 51.2466 38.0931 50.2873 36.8453 49.7001Z"
            fill="currentcolor" />
    </g>
    <defs>
        <clipPath id="clip0_1998_12">
            <rect width="100" height="100" fill="currentcolor" />
        </clipPath>
    </defs>
</svg>