<svg width="100" height="100" viewBox="0 0 100 100" fill="none" xmlns="http://www.w3.org/2000/svg">
    <path fill-rule="evenodd" clip-rule="evenodd"
        d="M14.1577 7.54428C13.4257 6.60448 12.2835 6 11 6C8.79086 6 7 7.79086 7 10C7 16.1576 7.65068 20.7596 8.81317 24.4144C9.99799 28.1395 11.66 30.7076 13.4215 32.8308C14.3451 33.944 15.1965 34.8563 15.9807 35.6965C17.2252 37.03 18.3002 38.1817 19.2247 39.6667H12C9.79086 39.6667 8 41.4575 8 43.6667C8 58.3768 15.5623 71.3144 27 78.814V91.5C27 93.7091 28.7909 95.5 31 95.5H69C71.2091 95.5 73 93.7091 73 91.5V78.814C84.4377 71.3144 92 58.3768 92 43.6667C92 41.4575 90.2091 39.6667 88 39.6667H86.4035C87.3193 37.7872 87.8332 35.6759 87.8332 33.4445C87.8332 25.5972 81.4778 19.2343 73.6334 19.2222C71.9054 13.3149 66.4473 9 59.9814 9C53.7382 9 48.4346 13.0227 46.5211 18.6175C44.8314 17.5755 42.9256 16.6919 41.0009 15.9917C37.6001 14.7545 33.7112 13.9333 30.0588 13.9333C26.3845 13.9333 22.7694 12.8588 19.7809 11.4168C16.7205 9.94008 14.7636 8.29978 14.1577 7.54428ZM36.7059 22.9939C34.4528 22.3217 32.1193 21.9333 30.0588 21.9333C24.891 21.9333 20.082 20.4447 16.3043 18.6219C16.057 18.5026 15.8121 18.3808 15.5699 18.2569C15.8055 19.7102 16.1021 20.9374 16.4368 21.9896C17.252 24.5525 18.34 26.2299 19.5785 27.7228C20.0768 28.3235 20.6618 28.9439 21.2969 29.6174L21.2969 29.6174C23.4595 31.911 26.2032 34.8208 28.0859 39.6667H33.6053C32.0082 36.4156 31.6824 32.3193 33.4042 27.5921C33.4523 27.46 33.5073 27.3306 33.569 27.2043C34.3474 25.612 35.4158 24.1854 36.7059 22.9939ZM53.7592 23.2222C53.7592 19.7858 56.545 17 59.9814 17C63.4178 17 66.2036 19.7858 66.2036 23.2222C66.2036 23.3439 66.2002 23.4643 66.1934 23.5835C66.1176 24.9211 66.7165 26.2078 67.7888 27.0111C68.861 27.8143 70.2642 28.0275 71.5265 27.5788C72.173 27.3491 72.8728 27.2222 73.611 27.2222C77.0474 27.2222 79.8332 30.008 79.8332 33.4445C79.8332 36.8809 77.0474 39.6667 73.611 39.6667L73.5977 39.6667H73.5901L46.3727 39.6667L46.365 39.6667L46.3517 39.6667C45.273 39.6667 43.1208 38.9809 41.6798 37.4271C40.5505 36.2095 39.5828 34.1843 40.8459 30.5414C41.8938 28.5599 43.9701 27.2222 46.3517 27.2222C47.0899 27.2222 47.7898 27.3491 48.4362 27.5788C49.6986 28.0275 51.1018 27.8144 52.174 27.0111C53.2463 26.2078 53.8452 24.9211 53.7694 23.5835C53.7626 23.4643 53.7592 23.3439 53.7592 23.2222ZM46.3517 47.6667H16.2328C17.6293 59.5831 25.1879 69.6217 35.6499 74.5H64.3501C74.8121 69.6217 82.3707 59.5831 83.7672 47.6667H73.611H46.3517ZM35 82.5V87.5H65V82.5H35Z"
        fill="currentcolor" />
</svg>