<svg width="100" height="100" viewBox="0 0 100 100" fill="none" xmlns="http://www.w3.org/2000/svg">
    <g clip-path="url(#clip0_1998_12)">
        <path fill-rule="evenodd" clip-rule="evenodd"
            d="M89.3343 11.2351C88.17 9.57235 85.945 9.04525 84.1585 10.009L3.18955 53.6894C2.18483 54.2314 1.45957 55.1769 1.19642 56.2877C0.93327 57.3986 1.1573 58.569 1.81209 59.5041L11.3929 73.1869C11.4758 73.3084 11.5652 73.425 11.6606 73.5363C11.9956 73.9278 12.3949 74.2417 12.8328 74.4721C13.1932 74.6621 13.5868 74.799 14.0031 74.8724L85.0608 87.4018C87.2364 87.7854 89.311 86.3328 89.6946 84.1572L99.6022 27.9685C99.6877 27.4985 99.6876 27.0212 99.6061 26.5585C99.5058 25.9893 99.2823 25.4423 98.9434 24.9583L89.3343 11.2351ZM89.8126 25.8658L84.8232 18.7403L10.9428 58.5966L15.9322 65.7222L89.8126 25.8658ZM90.2924 34.697L26.7216 68.9916L82.5108 78.8288L90.2924 34.697Z"
            fill="currentcolor" />
    </g>
</svg>