<svg width="100" height="100" viewBox="0 0 100 100" fill="none" xmlns="http://www.w3.org/2000/svg">
    <g clip-path="url(#clip0_1998_12)">
        <path fill-rule="evenodd" clip-rule="evenodd"
            d="M86 27C82.6863 27 80 29.6863 80 33C80 33.084 79.9974 33.1675 79.9923 33.2502C80.0016 33.3998 80.0026 33.551 79.9948 33.7031C79.72 39.1082 78.0429 47.2058 73.7669 54.1376C70.9036 58.7791 66.8034 62.9779 61.1969 65.3849C61.7585 66.0311 62.2652 66.6894 62.7144 67.3312C65.183 70.8576 67 75.4013 67 79C67 81.2091 65.2091 83 63 83H51H39C36.7909 83 35 81.2091 35 79C35 75.4013 36.817 70.8576 39.2856 67.3312C39.5775 66.9141 39.8938 66.49 40.2336 66.0668C37.4879 65.1607 35.0515 63.8309 32.7998 62.086C28.2244 58.5403 24.6304 53.4106 20.7164 47.7842C17.532 43.2067 15.0469 40.5442 12.4203 38.5021C9.73442 36.4141 6.7441 34.8442 2.21114 32.5777C0.978946 31.9616 0.150506 30.7548 0.0184257 29.3835C-0.113654 28.0122 0.469216 26.6694 1.56117 25.8295C5.16068 23.0606 9.9076 20.2597 16.6417 19.9298C23.2777 19.6046 31.2943 21.704 41.4846 27.527C57.8761 36.8936 68.2634 33.8806 72.0812 31.4838C72.837 24.4649 78.7803 19 86 19C93.732 19 100 25.268 100 33C100 40.732 93.732 47 86 47C83.7909 47 82 45.2091 82 43C82 40.7909 83.7909 39 86 39C89.3137 39 92 36.3137 92 33C92 29.6863 89.3137 27 86 27ZM12.2864 28.8378C14.0654 29.8633 15.7289 30.9412 17.3304 32.1862C20.7872 34.8737 23.8022 38.2112 27.2836 43.2157C31.3696 49.0894 34.2756 53.1086 37.7002 55.7624C40.867 58.2165 44.6829 59.6335 50.9149 59.5009C58.6412 59.3365 63.6492 55.3014 66.9581 49.9374C68.7506 47.0316 69.9936 43.7942 70.8011 40.7336C63.1705 43.0002 51.6907 42.5731 37.5154 34.473C28.1057 29.0959 21.6223 27.6953 17.0333 27.9202C15.2729 28.0065 13.7104 28.3353 12.2864 28.8378ZM51 75H44.0973C44.5413 74.0036 45.1213 72.9447 45.8394 71.9188C47.8141 69.0979 49.771 68 51 68C52.229 68 54.1859 69.0979 56.1606 71.9188C56.8787 72.9447 57.4587 74.0036 57.9027 75H51Z"
            fill="currentcolor" />
    </g>
</svg>