<svg width="100" height="100" viewBox="0 0 100 100" fill="none" xmlns="http://www.w3.org/2000/svg">
    <path fill-rule="evenodd" clip-rule="evenodd"
        d="M60.5522 4.31346C62.5882 5.17073 63.5438 7.51621 62.6865 9.55223L57.0243 23H62.7001C63.7145 23 64.6407 23.3776 65.3459 24H65.4458C72.6209 28.0406 77.7866 34.8411 78.813 43H81C83.2091 43 85 44.7909 85 47C85 49.2091 83.2091 51 81 51H75.4139L68.9503 91.6285C68.6413 93.5706 66.9665 95 65 95H35C33.0335 95 31.3587 93.5706 31.0497 91.6285L24.5861 51H19C16.7909 51 15 49.2091 15 47C15 44.7909 16.7909 43 19 43H21.187C22.2134 34.8411 27.3791 28.0406 34.5542 24H34.6542C35.3594 23.3776 36.2856 23 37.3 23H48.3441L55.3135 6.44777C56.1707 4.41175 58.5162 3.45619 60.5522 4.31346ZM38.3764 31C33.5857 33.7506 30.2753 38.1273 29.2989 43H70.7011C69.7247 38.1273 66.4143 33.7506 61.6236 31H51.0891C51.0287 31.0014 50.9681 31.0014 50.9075 31H38.3764ZM32.6867 51L38.4139 87H61.5861L67.3133 51H32.6867Z"
        fill="currentcolor" />
</svg>