<svg width="100" height="100" viewBox="0 0 100 100" fill="none" xmlns="http://www.w3.org/2000/svg">
    <path fill-rule="evenodd" clip-rule="evenodd"
        d="M54.1865 7.57214C55.8224 9.05672 55.9451 11.5864 54.4605 13.2224C53.9747 13.7577 53.4495 14.9142 53.3684 16.4958C53.2891 18.0422 53.6666 19.4591 54.3132 20.3987C58.0421 25.8176 57.2939 32.483 54.4858 37.0464C53.328 38.9278 50.8642 39.5145 48.9828 38.3567C47.1013 37.1989 46.5147 34.7351 47.6725 32.8537C49.1563 30.4425 49.32 27.2547 47.7229 24.9338C45.8793 22.2547 45.2293 19.0026 45.3789 16.0861C45.5266 13.2049 46.4866 10.1048 48.5363 7.84619C50.0208 6.21025 52.5505 6.08755 54.1865 7.57214ZM34.3848 21.6285C35.2842 19.6107 34.3776 17.2459 32.3599 16.3465C30.3421 15.4471 27.9773 16.3537 27.0779 18.3715C25.8523 21.1209 25.7682 24.3938 26.3458 27.2627C26.9273 30.1507 28.2972 33.2197 30.6535 35.4222C32.7319 37.3649 33.4916 40.8777 32.693 44.0125C32.1476 46.1533 33.4409 48.3308 35.5817 48.8762C37.7224 49.4215 39.9 48.1282 40.4453 45.9875C41.7697 40.789 40.8482 34.0006 36.1164 29.5778C35.2886 28.804 34.5358 27.4087 34.1884 25.6837C33.8373 23.9395 34.0184 22.4505 34.3848 21.6285ZM15 52C12.7909 52 11 53.7908 11 56C11 72.4181 19.8965 86.7598 33.0269 93.5527C33.595 93.8466 34.2253 94 34.8649 94H65.1351C65.7747 94 66.405 93.8466 66.9731 93.5527C80.1035 86.7598 89 72.4181 89 56C89 53.7908 87.2091 52 85 52H15ZM35.8708 86C26.9608 81.0272 20.4585 71.4366 19.2158 60H80.7842C79.5415 71.4366 73.0392 81.0272 64.1292 86H35.8708ZM73.5185 21.6879C75.261 20.3299 75.5726 17.8165 74.2146 16.0741C72.8566 14.3316 70.3432 14.02 68.6008 15.378C66.1952 17.2528 64.7192 20.1432 64.0809 22.9567C63.4349 25.8046 63.5192 29.12 64.8776 32.0748C66.0543 34.6347 65.3479 37.7475 63.4737 39.8695C62.0113 41.5252 62.168 44.053 63.8238 45.5155C65.4795 46.9779 68.0073 46.8212 69.4698 45.1654C73.0169 41.1495 74.8937 34.7101 72.1463 28.7334C71.6699 27.6971 71.5402 26.2365 71.8827 24.7264C72.2331 23.182 72.9483 22.1324 73.5185 21.6879Z"
        fill="currentcolor" />
</svg>