<svg width="100" height="100" viewBox="0 0 100 100" fill="none" xmlns="http://www.w3.org/2000/svg">
    <g clip-path="url(#clip0_1998_12)">
        <path fill-rule="evenodd" clip-rule="evenodd"
            d="M14 -0.000183105C7.37258 -0.000183105 2 5.3724 2 11.9998V71.9998C2 74.2089 3.79086 75.9998 6 75.9998C8.20914 75.9998 10 74.2089 10 71.9998V11.9998C10 9.79068 11.7909 7.99982 14 7.99982H66C68.2091 7.99982 70 9.79068 70 11.9998V12.9999C70 15.209 71.7908 16.9999 74 16.9999C76.2091 16.9999 78 15.209 78 12.9999V11.9998C78 5.3724 72.6274 -0.000183105 66 -0.000183105H14ZM36.3811 15.45C29.8544 14.2991 23.6305 18.6571 22.4797 25.1839L13.45 76.3939C12.2991 82.9206 16.6571 89.1445 23.1839 90.2953L74.3939 99.3251C80.9206 100.476 87.1445 96.1179 88.2954 89.5911L97.3251 38.3811C98.4759 31.8544 94.1179 25.6305 87.5911 24.4797L36.3811 15.45ZM30.3581 26.5731C30.7417 24.3975 32.8164 22.9448 34.992 23.3284L86.202 32.3581C88.3775 32.7417 89.8302 34.8164 89.4466 36.9919L80.4169 88.202C80.0333 90.3775 77.9586 91.8302 75.7831 91.4466L24.5731 82.4169C22.3975 82.0333 20.9448 79.9586 21.3284 77.7831L30.3581 26.5731ZM42.1758 28.6569C37.8247 27.8896 33.6754 30.795 32.9082 35.1461L31.519 43.0246C30.7518 47.3757 33.6571 51.525 38.0083 52.2922L45.8867 53.6814C50.2379 54.4486 54.3871 51.5433 55.1544 47.1921L56.5436 39.3137C57.3108 34.9625 54.4054 30.8133 50.0543 30.046L42.1758 28.6569ZM40.7866 36.5353L48.6651 37.9245L47.2759 45.803L39.3975 44.4138L40.7866 36.5353ZM28.046 62.7207C28.8133 58.3696 32.9625 55.4642 37.3137 56.2314L45.1921 57.6206C49.5433 58.3878 52.4486 62.5371 51.6814 66.8883L50.2922 74.7667C49.525 79.1179 45.3757 82.0232 41.0246 81.256L33.1461 79.8668C28.795 79.0996 25.8896 74.9503 26.6568 70.5992L28.046 62.7207ZM43.8029 65.4991L35.9245 64.1099L34.5353 71.9884L42.4138 73.3775L43.8029 65.4991ZM69.7504 33.519C65.3993 32.7517 61.25 35.6571 60.4828 40.0082L59.0936 47.8867C58.3264 52.2379 61.2317 56.3871 65.5829 57.1544L73.4613 58.5435C77.8125 59.3108 81.9618 56.4054 82.729 52.0543L84.1182 44.1758C84.8854 39.8246 81.9801 35.6754 77.6289 34.9082L69.7504 33.519ZM68.3613 41.3974L76.2397 42.7866L74.8505 50.6651L66.9721 49.2759L68.3613 41.3974ZM55.6206 67.5829C56.3879 63.2317 60.5371 60.3264 64.8883 61.0936L72.7667 62.4828C77.1179 63.25 80.0232 67.3993 79.256 71.7505L77.8668 79.6289C77.0996 83.9801 72.9503 86.8854 68.5992 86.1182L60.7207 84.729C56.3696 83.9618 53.4642 79.8125 54.2315 75.4614L55.6206 67.5829ZM71.3776 70.3613L63.4991 68.9721L62.1099 76.8505L69.9884 78.2397L71.3776 70.3613Z"
            fill="currentcolor" />
    </g>
</svg>