<svg width="100" height="100" viewBox="0 0 100 100" fill="none" xmlns="http://www.w3.org/2000/svg">
    <path fill-rule="evenodd" clip-rule="evenodd"
        d="M15 33H85H96C98.2091 33 100 34.7909 100 37C100 39.2091 98.2091 41 96 41H88L81.9754 61.6558C80.3603 67.1931 75.2845 71 69.5164 71H30.4836C24.7155 71 19.6397 67.1931 18.0246 61.6558L12 41H4C1.79086 41 0 39.2091 0 37C0 34.7909 1.79086 33 4 33H15ZM20.3333 41L25.7046 59.4158C26.3241 61.5398 28.2711 63 30.4836 63H69.5164C71.7289 63 73.6759 61.5398 74.2954 59.4158L79.6667 41H20.3333Z"
        fill="currentcolor" />
</svg>