<svg width="100" height="100" viewBox="0 0 100 100" fill="none" xmlns="http://www.w3.org/2000/svg">
    <path fill-rule="evenodd" clip-rule="evenodd"
        d="M84.2517 16.3766C80.8962 13.0211 75.1742 14.4603 73.8055 19.0039L72.7788 22.4122C70.9273 28.5586 63.1869 30.5054 58.6479 25.9663L55.2215 22.5399C53.2774 20.5958 50.1254 20.5958 48.1814 22.5399L12.1143 58.6069C10.1703 60.551 10.1703 63.7029 12.1143 65.647L34.9812 88.5138C36.9252 90.4579 40.0772 90.4579 42.0212 88.5138L62.3275 68.2075L73.3821 57.1529L78.0883 52.4468C80.0323 50.5027 80.0323 47.3508 78.0883 45.4067L74.6619 41.9803C70.1229 37.4413 72.0696 29.701 78.216 27.8494L81.6243 26.8227C86.168 25.454 87.6071 19.732 84.2517 16.3766ZM66.1455 16.6964C69.2591 6.36049 82.2755 3.08669 89.9085 10.7197C97.5415 18.3527 94.2678 31.3691 83.9318 34.4827L80.5235 35.5094C80.1694 35.6161 80.0573 36.062 80.3188 36.3235L83.7451 39.7499C88.8134 44.8181 88.8134 53.0354 83.7451 58.1036L79.039 62.8098L67.9844 73.8644L47.6781 94.1707C42.6098 99.2389 34.3926 99.2389 29.3243 94.1707L6.45749 71.3039C1.38922 66.2356 1.38925 58.0183 6.45749 52.9501L42.5245 16.883C47.5928 11.8148 55.8101 11.8148 60.8783 16.883L64.3047 20.3095C64.5662 20.5709 65.0121 20.4588 65.1188 20.1047L66.1455 16.6964Z"
        fill="currentcolor" />
</svg>