<svg width="100" height="100" viewBox="0 0 100 100" fill="none" xmlns="http://www.w3.org/2000/svg">
    <path fill-rule="evenodd" clip-rule="evenodd"
        d="M49.8904 19C41.8112 19 36.7226 27.7007 40.6835 34.7424L42.2231 37.4794C21.7144 40.2914 7.08858 53.7514 1.79201 61.0117C1.53792 61.3523 1.33678 61.7346 1.20078 62.1466C1.0587 62.5764 0.992882 63.0224 1.00028 63.4652C1.03342 67.2661 4.02748 69.7563 6.49239 71.2132C9.23884 72.8366 12.9467 74.1598 17.178 75.2176C25.7019 77.3486 37.2658 78.624 49.8904 78.624C62.5151 78.624 74.0789 77.3486 82.6029 75.2176C86.8342 74.1598 90.5421 72.8366 93.2885 71.2132C95.7533 69.7564 98.7473 67.2662 98.7806 63.4655C98.7881 63.0196 98.7213 62.5704 98.5772 62.1378C98.4412 61.7292 98.2412 61.3499 97.9889 61.0118C92.6924 53.7515 78.0665 40.2915 57.5578 37.4794L59.0973 34.7424C63.0583 27.7007 57.9697 19 49.8904 19ZM52.1247 30.8203L49.8904 34.7924L47.6561 30.8203C46.6949 29.1115 47.9298 27 49.8904 27C51.8511 27 53.086 29.1115 52.1247 30.8203ZM49.8904 44.9562C30.5812 44.9562 15.9614 56.585 9.77476 63.8151C9.98319 63.9657 10.2421 64.1366 10.563 64.3263C12.3597 65.3883 15.2259 66.4834 19.1182 67.4564C26.8414 69.3872 37.7228 70.624 49.8904 70.624C62.0581 70.624 72.9395 69.3872 80.6626 67.4564C84.555 66.4834 87.4211 65.3883 89.2179 64.3263C89.5388 64.1366 89.7977 63.9657 90.0061 63.8151C83.8195 56.585 69.1997 44.9562 49.8904 44.9562Z"
        fill="currentcolor" />
</svg>