<svg width="100" height="100" viewBox="0 0 100 100" fill="none" xmlns="http://www.w3.org/2000/svg">
    <path fill-rule="evenodd" clip-rule="evenodd"
        d="M16.5419 30.6732C18.664 25.7215 23.5329 22.511 28.9201 22.511H71.0799C76.4671 22.511 81.336 25.7215 83.4581 30.6732L88.9601 43.511H95C97.4792 43.511 99.489 45.5208 99.489 48C99.489 50.4793 97.4792 52.4891 95 52.4891H89.3071L83.2478 72.0136C81.499 77.6486 76.2859 81.4891 70.3858 81.4891H29.6142C23.7141 81.4891 18.501 77.6486 16.7522 72.0136L10.6929 52.4891H5C2.52077 52.4891 0.510956 50.4793 0.510956 48C0.510956 45.5208 2.52077 43.511 5 43.511H11.0399L16.5419 30.6732ZM20.0934 52.4891L25.3269 69.3525C25.9098 71.2308 27.6475 72.511 29.6142 72.511H70.3858C72.3525 72.511 74.0902 71.2308 74.6731 69.3525L79.9066 52.4891H65.4964L57.3601 58.5913C56.5831 59.174 55.638 59.4891 54.6667 59.4891H45.3333C44.362 59.4891 43.4169 59.174 42.6399 58.5913L34.5037 52.4891H20.0934ZM35.9546 43.511H20.8078L24.794 34.2098C25.5014 32.5593 27.1244 31.4891 28.9201 31.4891H71.0799C72.8756 31.4891 74.4986 32.5592 75.206 34.2098L79.1922 43.511H64.0454C64.0128 43.5106 63.9803 43.5106 63.9478 43.511H36.0523C36.0197 43.5106 35.9872 43.5106 35.9546 43.511Z"
        fill="currentcolor" />
</svg>