<svg width="100" height="100" viewBox="0 0 100 100" fill="none" xmlns="http://www.w3.org/2000/svg">
    <path fill-rule="evenodd" clip-rule="evenodd"
        d="M76.468 7.82843C78.0301 6.26633 78.0301 3.73367 76.468 2.17157C74.9059 0.609476 72.3733 0.609476 70.8112 2.17157L55.9619 17.0208C49.5122 23.4705 48.6688 33.4035 53.4318 40.7642L51.7321 42.4639L51.7193 42.4766L47.4767 46.7193L2.71929 91.4766C1.15719 93.0387 1.15719 95.5714 2.71929 97.1335C4.28139 98.6956 6.81405 98.6956 8.37614 97.1335L53.1206 52.389L53.1335 52.3762L57.3761 48.1335L59.0886 46.421C66.4493 51.184 76.3823 50.3406 82.832 43.8909L97.6812 29.0416C99.2433 27.4795 99.2433 24.9469 97.6812 23.3848C96.1191 21.8227 93.5865 21.8227 92.0244 23.3848L77.1751 38.234C73.8772 41.5319 69.0062 42.298 64.9774 40.5322L87.0746 18.4351C88.6367 16.873 88.6367 14.3403 87.0746 12.7782C85.5125 11.2161 82.9799 11.2161 81.4178 12.7782L59.3206 34.8754C57.5548 30.8466 58.3209 25.9756 61.6188 22.6777L76.468 7.82843Z"
        fill="currentcolor" />
</svg>