<svg width="100" height="100" viewBox="0 0 100 100" fill="none" xmlns="http://www.w3.org/2000/svg">
    <path fill-rule="evenodd" clip-rule="evenodd"
        d="M68.6822 25.1996C68.9502 23.986 69.2688 22.8941 69.6229 21.9498C70.0708 20.7555 70.5235 19.9371 70.8979 19.4276C71.2723 19.9371 71.725 20.7555 72.1729 21.9498C72.527 22.8941 72.8456 23.986 73.1136 25.1996H68.6822ZM59.9254 30.2046C59.8413 31.4223 59.7981 32.6685 59.7981 33.9327L59.7981 63.0649H25.1995V33.9327V33.9327C25.1995 29.0572 25.9474 24.8215 27.0243 21.9498C27.5683 20.4991 28.1196 19.603 28.5288 19.1415C28.5812 19.0823 28.6258 19.036 28.6627 19H62.1855C62.1677 19.0469 62.1499 19.0938 62.1323 19.1408C61.2354 21.5324 60.5736 24.3754 60.1882 27.4745C59.9382 27.9968 59.7981 28.5818 59.7981 29.1996C59.7981 29.5467 59.8423 29.8834 59.9254 30.2046ZM67.8038 33.1996H73.992C73.9958 33.4423 73.9977 33.6867 73.9977 33.9327V77.2645H67.7981V67.0649V33.9327C67.7981 33.6867 67.8 33.4423 67.8038 33.1996ZM81.9928 33.1996C81.996 33.4432 81.9977 33.6876 81.9977 33.9327V81.2645C81.9977 83.4736 80.2068 85.2645 77.9977 85.2645H67.7981V85.9976C67.7981 88.2068 66.0073 89.9976 63.7981 89.9976H21.1995C18.9904 89.9976 17.1995 88.2068 17.1995 85.9976V67.0649V33.9327V33.9327C17.1995 33.6876 17.2012 33.4432 17.2044 33.1996H7C4.79086 33.1996 3 31.4087 3 29.1996V19.7332C3 17.5241 4.79086 15.7332 7 15.7332C9.20914 15.7332 11 17.5241 11 19.7332V25.1996H17.9302C18.3209 22.9811 18.8612 20.9341 19.5337 19.1408C20.2745 17.1653 21.2531 15.2887 22.5427 13.8342C23.8282 12.3843 25.7643 11 28.2993 11H70.8979C73.4329 11 75.369 12.3843 76.6545 13.8342C77.9441 15.2887 78.9227 17.1653 79.6635 19.1408C80.336 20.9341 80.8763 22.9811 81.267 25.1996H88.1972V19.7332C88.1972 17.5241 89.9881 15.7332 92.1972 15.7332C94.4063 15.7332 96.1972 17.5241 96.1972 19.7332V29.1996C96.1972 31.4087 94.4063 33.1996 92.1972 33.1996H81.9928ZM59.7981 71.0649H25.1995V81.9976H59.7981V71.0649Z"
        fill="currentcolor" />
</svg>