<svg width="100" height="100" viewBox="0 0 100 100" fill="none" xmlns="http://www.w3.org/2000/svg">
    <path fill-rule="evenodd" clip-rule="evenodd"
        d="M20 12C18.8354 12 17.7287 12.5075 16.9688 13.39C16.209 14.2725 15.8714 15.4423 16.0443 16.5939L27.1555 90.5939C27.4494 92.5518 29.1313 94 31.1111 94H68.8889C70.8687 94 72.5506 92.5518 72.8446 90.5939L83.9557 16.5939C84.1286 15.4423 83.791 14.2725 83.0312 13.39C82.2713 12.5075 81.1646 12 80 12H20ZM28.459 45.3986L24.6454 20H75.3546L71.541 45.3986C71.3019 45.0148 71.0345 44.5573 70.7176 44.0061L70.6284 43.8508C69.9743 42.7113 69.0444 41.0913 67.802 39.7949C66.3606 38.2908 64.2998 37 61.5 37C58.7002 37 56.6394 38.2908 55.198 39.7949C53.9556 41.0913 53.0257 42.7113 52.3715 43.8509L52.2824 44.0061C51.5027 45.3621 51.023 46.1514 50.5261 46.6699C50.2012 47.0089 50.0935 47.004 50.02 47.0006C50.0131 47.0003 50.0065 47 50 47C49.9935 47 49.9869 47.0003 49.98 47.0006C49.9065 47.004 49.7988 47.0089 49.4739 46.6699C48.977 46.1514 48.4973 45.3621 47.7176 44.0061L47.6285 43.8509C46.9743 42.7113 46.0444 41.0913 44.802 39.7949C43.3606 38.2908 41.2998 37 38.5 37C35.7002 37 33.6394 38.2908 32.198 39.7949C30.9556 41.0913 30.0257 42.7113 29.3716 43.8509L29.2824 44.0061C28.9655 44.5573 28.6981 45.0148 28.459 45.3986ZM29.8283 54.518L34.5553 86H65.4447L70.1717 54.518C68.7503 54.0084 67.6023 53.1487 66.698 52.2051C65.4556 50.9087 64.5257 49.2887 63.8716 48.1492L63.7824 47.9939C63.0027 46.6379 62.523 45.8486 62.0261 45.3301C61.7012 44.9911 61.5935 44.996 61.52 44.9994C61.5131 44.9997 61.5065 45 61.5 45C61.4935 45 61.4869 44.9997 61.48 44.9994C61.4065 44.996 61.2988 44.9911 60.9739 45.3301C60.477 45.8486 59.9973 46.6379 59.2176 47.9939L59.1285 48.1491C58.4743 49.2887 57.5444 50.9087 56.302 52.2051C54.8606 53.7092 52.7998 55 50 55C47.2002 55 45.1394 53.7092 43.698 52.2051C42.4556 50.9087 41.5257 49.2887 40.8716 48.1492L40.7824 47.9939C40.0027 46.6379 39.523 45.8486 39.0261 45.3301C38.7012 44.9911 38.5935 44.996 38.52 44.9994C38.5131 44.9997 38.5065 45 38.5 45C38.4935 45 38.4869 44.9997 38.48 44.9994C38.4065 44.996 38.2988 44.9911 37.9739 45.3301C37.477 45.8486 36.9973 46.6379 36.2176 47.9939L36.1285 48.1492L36.1284 48.1492C35.4743 49.2887 34.5444 50.9087 33.302 52.2051C32.3977 53.1487 31.2497 54.0084 29.8283 54.518Z"
        fill="currentcolor" />
</svg>