<svg width="100" height="100" viewBox="0 0 100 100" fill="none" xmlns="http://www.w3.org/2000/svg">
    <path fill-rule="evenodd" clip-rule="evenodd"
        d="M10.3967 30.3514C10.1593 30.2267 9.9532 30.1091 9.77512 30C9.9532 29.8909 10.1593 29.7733 10.3967 29.6486C12.2213 28.69 15.1242 27.7056 19.0479 26.8337C26.8304 25.1042 37.7757 24 50 24C62.2243 24 73.1696 25.1042 80.9521 26.8337C84.8758 27.7056 87.7787 28.69 89.6032 29.6486C89.8407 29.7733 90.0468 29.8909 90.2249 30C90.0468 30.1091 89.8407 30.2267 89.6032 30.3514C87.7787 31.31 84.8758 32.2944 80.9521 33.1663C73.1696 34.8958 62.2243 36 50 36C37.7757 36 26.8304 34.8958 19.0479 33.1663C15.1242 32.2944 12.2213 31.31 10.3967 30.3514ZM50 16C37.3715 16 25.8167 17.1343 17.3125 19.0242C13.0928 19.9619 9.4056 21.1324 6.6759 22.5665C5.31517 23.2814 3.99633 24.1624 2.97174 25.2751C1.92738 26.4092 1 28.0056 1 30V70C1 71.9944 1.92738 73.5908 2.97174 74.7249C3.99633 75.8376 5.31517 76.7186 6.6759 77.4335C9.4056 78.8676 13.0928 80.0381 17.3125 80.9758C25.8167 82.8657 37.3715 84 50 84C62.6285 84 74.1833 82.8657 82.6875 80.9758C86.9072 80.0381 90.5944 78.8676 93.3241 77.4335C94.6848 76.7186 96.0037 75.8376 97.0283 74.7249C98.0726 73.5908 99 71.9944 99 70V30C99 28.0056 98.0726 26.4092 97.0283 25.2751C96.0037 24.1624 94.6848 23.2814 93.3241 22.5665C90.5944 21.1324 86.9072 19.9619 82.6875 19.0242C74.1833 17.1343 62.6285 16 50 16ZM91 38.5025C88.6345 39.4625 85.8065 40.2827 82.6875 40.9758C74.1833 42.8657 62.6285 44 50 44C45.1364 44 40.4321 43.8318 36 43.5169V48.5025C40.3281 49.0101 45.049 49.2908 50 49.2908C52.2091 49.2908 54 51.0817 54 53.2908L54 53.2964V65.7091C54 65.9289 53.9823 66.1445 53.9482 66.3546C53.9823 66.5647 54 66.7803 54 67.0001C54 69.2092 52.2091 71.0001 50 71.0001C45.1055 71.0001 40.3937 70.7415 36 70.2627V75.4958C40.3784 75.8216 45.0858 76 50 76C62.2243 76 73.1696 74.8958 80.9521 73.1663C84.8758 72.2944 87.7787 71.31 89.6032 70.3514C90.3321 69.9685 90.7654 69.653 91 69.4447V38.5025ZM46 57.2328V62.9384C42.5007 62.8299 39.1466 62.5808 36 62.2117V56.5534C39.1835 56.9004 42.534 57.1317 46 57.2328ZM28 65.6475L28 52.0716C27.9993 52.0273 27.9993 51.9829 28 51.9383V43V42.7556C24.0814 42.2806 20.4847 41.6808 17.3125 40.9758C14.1935 40.2827 11.3655 39.4625 9 38.5025L9 69.4447C9.23456 69.653 9.66795 69.9685 10.3967 70.3514C12.2213 71.31 15.1242 72.2944 19.0479 73.1663C21.6916 73.7538 24.7002 74.2691 28 74.6936V65.7808C27.9993 65.7365 27.9993 65.6921 28 65.6475Z"
        fill="currentcolor" />
</svg>