<svg width="100" height="100" viewBox="0 0 100 100" fill="none" xmlns="http://www.w3.org/2000/svg">
    <path fill-rule="evenodd" clip-rule="evenodd"
        d="M69.5098 40.1198C65.3174 40.1917 62.9834 39.1848 61.6775 37.8789C60.3715 36.573 59.3646 34.2389 59.4366 30.0465C59.4429 29.6782 59.6028 28.8889 60.221 27.6477C60.8158 26.4532 61.722 25.0661 62.9182 23.5707C65.3121 20.5779 68.647 17.4256 72.2853 14.8293C75.9575 12.2088 79.6816 10.3381 82.8304 9.62926C85.9729 8.92186 87.8265 9.48334 88.9497 10.6066C90.073 11.7299 90.6345 13.5835 89.9271 16.7259C89.2182 19.8748 87.3476 23.5989 84.727 27.271C82.1307 30.9093 78.9784 34.2443 75.9857 36.6382C74.4902 37.8344 73.1031 38.7405 71.9087 39.3354C70.6674 39.9536 69.8781 40.1134 69.5098 40.1198ZM59.2643 45.9489L7.73651 97.4767C6.17441 99.0388 3.64175 99.0388 2.07965 97.4767C0.517555 95.9146 0.517557 93.3819 2.07965 91.8198L53.6074 40.292C51.9999 37.3296 51.3715 33.7677 51.4378 29.9092C51.4726 27.8795 52.1703 25.8676 53.0599 24.0812C53.9729 22.2481 55.2248 20.3814 56.6709 18.5735C59.5616 14.9597 63.4477 11.3078 67.6383 8.31739C71.7949 5.35113 76.5072 2.85249 81.0735 1.82457C85.6462 0.795213 90.7864 1.12953 94.6066 4.94976C98.4268 8.76998 98.7611 13.9102 97.7318 18.4828C96.7039 23.0491 94.2052 27.7614 91.239 31.9181C88.2485 36.1086 84.5966 39.9948 80.9828 42.8854C79.175 44.3315 77.3082 45.5835 75.4751 46.4964C73.6888 47.3861 71.6768 48.0837 69.6471 48.1186C65.7886 48.1848 62.2267 47.5564 59.2643 45.9489Z"
        fill="currentcolor" />
</svg>