<svg width="100" height="100" viewBox="0 0 100 100" fill="none" xmlns="http://www.w3.org/2000/svg">
    <path fill-rule="evenodd" clip-rule="evenodd"
        d="M39 5.99997C39 4.55828 38.2242 3.22814 36.9693 2.51835C35.7145 1.80855 34.1748 1.82895 32.9391 2.57172C21.6737 9.34381 14 24.2462 14 54.258C14 56.4672 15.7909 58.258 18 58.258H31V94C31 96.2091 32.7909 98 35 98C37.2091 98 39 96.2091 39 94V54.258V5.99997ZM31 14.9V50.258H22.0491C22.5159 31.6603 26.2576 21.044 31 14.9ZM58 1.99997C56.8567 1.99997 55.768 2.4892 55.0089 3.34413C54.2498 4.19906 53.8928 5.33795 54.0281 6.47323L59.7781 54.7313C60.0178 56.7431 61.7239 58.258 63.75 58.258H77V94C77 96.2091 78.7909 98 81 98C83.2091 98 85 96.2091 85 94V54.258V5.99999C85 3.79085 83.2091 1.99999 81 1.99999L58 1.99997ZM77 9.99999V50.258H67.3017L62.5049 9.99997L77 9.99999Z"
        fill="currentcolor" />
</svg>