<svg width="100" height="100" viewBox="0 0 100 100" fill="none" xmlns="http://www.w3.org/2000/svg">
    <path fill-rule="evenodd" clip-rule="evenodd"
        d="M14 9C11.7909 9 10 10.7909 10 13V54C10 56.2091 11.7909 58 14 58C16.2091 58 18 56.2091 18 54V17H25.2594L29.8946 86.0793C30.1937 90.537 33.8968 94 38.3646 94H66.205C70.6183 94 74.2955 90.6183 74.6644 86.2205L79.363 30.2005L93.8193 15.8376C94.9686 14.6956 95.3156 12.9731 94.698 11.4752C94.0804 9.97737 92.6202 9 91 9H29H14ZM37.8766 85.5437L33.2774 17H81.2988L72.6807 25.5624C72.007 26.2319 71.5934 27.1192 71.514 28.0657L66.6924 85.5518C66.6711 85.8052 66.4593 86 66.205 86H38.3646C38.1072 86 37.8939 85.8005 37.8766 85.5437ZM41 37C41 34.7909 42.7909 33 45 33H56C58.2091 33 60 34.7909 60 37C60 39.2091 58.2091 41 56 41H45C42.7909 41 41 39.2091 41 37ZM45 45.6667C42.7909 45.6667 41 47.4576 41 49.6667C41 51.8759 42.7909 53.6667 45 53.6667H50C52.2091 53.6667 54 51.8759 54 49.6667C54 47.4576 52.2091 45.6667 50 45.6667H45ZM41 62.3334C41 60.1242 42.7909 58.3334 45 58.3334H56C58.2091 58.3334 60 60.1242 60 62.3334C60 64.5425 58.2091 66.3334 56 66.3334H45C42.7909 66.3334 41 64.5425 41 62.3334ZM45 71C42.7909 71 41 72.7909 41 75C41 77.2091 42.7909 79 45 79H50C52.2091 79 54 77.2091 54 75C54 72.7909 52.2091 71 50 71H45Z"
        fill="currentcolor" />
</svg>