<svg width="100" height="100" viewBox="0 0 100 100" fill="none" xmlns="http://www.w3.org/2000/svg">
    <path fill-rule="evenodd" clip-rule="evenodd"
        d="M3 33C3 23.0589 11.0589 15 21 15H79C88.9411 15 97 23.0589 97 33V67C97 76.9411 88.9411 85 79 85H21C11.0589 85 3 76.9411 3 67V33ZM21 23C15.4772 23 11 27.4772 11 33V67C11 72.5228 15.4772 77 21 77H79C84.5229 77 89 72.5228 89 67V33C89 27.4772 84.5229 23 79 23H21ZM16 38C16 32.4772 20.4772 28 26 28C31.5228 28 36 32.4772 36 38C36 43.5228 31.5228 48 26 48C20.4772 48 16 43.5228 16 38ZM26 36C24.8954 36 24 36.8954 24 38C24 39.1046 24.8954 40 26 40C27.1046 40 28 39.1046 28 38C28 36.8954 27.1046 36 26 36ZM50 28C44.4772 28 40 32.4772 40 38C40 43.5228 44.4772 48 50 48C55.5228 48 60 43.5228 60 38C60 32.4772 55.5228 28 50 28ZM48 38C48 36.8954 48.8954 36 50 36C51.1046 36 52 36.8954 52 38C52 39.1046 51.1046 40 50 40C48.8954 40 48 39.1046 48 38ZM64 38C64 32.4772 68.4771 28 74 28C79.5229 28 84 32.4772 84 38C84 43.5228 79.5229 48 74 48C68.4771 48 64 43.5228 64 38ZM74 36C72.8954 36 72 36.8954 72 38C72 39.1046 72.8954 40 74 40C75.1046 40 76 39.1046 76 38C76 36.8954 75.1046 36 74 36ZM26 52C20.4772 52 16 56.4772 16 62C16 67.5228 20.4772 72 26 72C31.5228 72 36 67.5228 36 62C36 56.4772 31.5228 52 26 52ZM24 62C24 60.8954 24.8954 60 26 60C27.1046 60 28 60.8954 28 62C28 63.1046 27.1046 64 26 64C24.8954 64 24 63.1046 24 62ZM40 62C40 56.4772 44.4772 52 50 52C55.5228 52 60 56.4772 60 62C60 67.5228 55.5228 72 50 72C44.4772 72 40 67.5228 40 62ZM50 60C48.8954 60 48 60.8954 48 62C48 63.1046 48.8954 64 50 64C51.1046 64 52 63.1046 52 62C52 60.8954 51.1046 60 50 60ZM74 52C68.4771 52 64 56.4772 64 62C64 67.5228 68.4771 72 74 72C79.5229 72 84 67.5228 84 62C84 56.4772 79.5229 52 74 52ZM72 62C72 60.8954 72.8954 60 74 60C75.1046 60 76 60.8954 76 62C76 63.1046 75.1046 64 74 64C72.8954 64 72 63.1046 72 62Z"
        fill="currentcolor" />
</svg>