<svg width="100" height="100" viewBox="0 0 100 100" fill="none" xmlns="http://www.w3.org/2000/svg">
    <g clip-path="url(#clip0_1998_12)">
        <path fill-rule="evenodd" clip-rule="evenodd"
            d="M16.9914 60.6655C16.9914 59.6046 17.4128 58.5872 18.163 57.837L57.7609 18.2391C59.323 16.677 61.8557 16.677 63.4178 18.2391L63.4179 18.2392L63.418 18.2393L63.4181 18.2394L63.4183 18.2396L63.4186 18.2399L63.4189 18.2401L63.4192 18.2405L63.4196 18.2409L63.42 18.2413L63.4205 18.2417L63.421 18.2423L63.4215 18.2428L63.4222 18.2434L63.4228 18.2441L63.4235 18.2448L63.4242 18.2455L63.425 18.2463L63.4259 18.2471L63.4268 18.248L63.4277 18.249L63.4287 18.2499L63.4297 18.251L63.4308 18.252L63.4319 18.2532L63.4331 18.2543L63.4343 18.2556L63.4355 18.2568L63.4369 18.2581L63.4382 18.2595L63.4396 18.2609L63.4411 18.2624L63.4426 18.2639L63.4442 18.2654L63.4458 18.2671L63.4474 18.2687L63.4491 18.2704L63.4509 18.2722L63.4527 18.274L63.4546 18.2758L63.4565 18.2778L63.4584 18.2797L63.4605 18.2817L63.4625 18.2838L63.4646 18.2859L63.4668 18.2881L63.469 18.2903L63.4713 18.2926L63.4736 18.2949L63.476 18.2972L63.4784 18.2997L63.4809 18.3021L63.4834 18.3047L63.486 18.3073L63.4886 18.3099L63.4913 18.3126L63.494 18.3153L63.4968 18.3181L63.4997 18.321L63.5026 18.3239L63.5055 18.3268L63.5086 18.3298L63.5116 18.3329L63.5147 18.336L63.5179 18.3392L63.5211 18.3424L63.5244 18.3457L63.5278 18.349L63.5312 18.3524L63.5346 18.3559L63.5381 18.3594L63.5417 18.3629L63.5453 18.3666L63.549 18.3702L63.5527 18.374L63.5565 18.3778L63.5603 18.3816L63.5642 18.3855L63.5682 18.3895L63.5722 18.3935L63.5763 18.3975L63.5804 18.4017L63.5846 18.4058L63.5888 18.4101L63.5931 18.4144L63.5975 18.4188L63.6019 18.4232L63.6064 18.4277L63.6109 18.4322L63.6155 18.4368L63.6202 18.4414L63.6249 18.4461L63.6296 18.4509L63.6345 18.4558L63.6394 18.4606L63.6443 18.4656L63.6493 18.4706L63.6544 18.4757L63.6595 18.4808L63.6647 18.486L63.67 18.4913L63.6753 18.4966L63.6807 18.5019L63.6861 18.5074L63.6916 18.5129L63.6972 18.5184L63.7028 18.5241L63.7085 18.5297L63.7142 18.5355L63.72 18.5413L63.7259 18.5472L63.7318 18.5531L63.7378 18.5591L63.7439 18.5652L63.75 18.5713L63.7562 18.5775L63.7624 18.5837L63.7688 18.59L63.7751 18.5964L63.7816 18.6029L63.7881 18.6094L63.7946 18.6159L63.8013 18.6226L63.808 18.6293L63.8147 18.636L63.8216 18.6428L63.8285 18.6497L63.8354 18.6567L63.8424 18.6637L63.8495 18.6708L63.8567 18.678L63.8639 18.6852L63.8712 18.6925L63.8786 18.6998L63.886 18.7073L63.8935 18.7147L63.901 18.7223L63.9086 18.7299L63.9163 18.7376L63.9241 18.7454L63.9319 18.7532L63.9398 18.7611L63.9478 18.769L63.9558 18.7771L63.9639 18.7852L63.9721 18.7933L63.9803 18.8016L63.9886 18.8099L63.997 18.8182L64.0054 18.8267L64.0139 18.8352L64.0225 18.8438L64.0311 18.8524L64.0399 18.8611L64.0487 18.8699L64.0575 18.8788L64.0664 18.8877L64.0754 18.8967L64.0845 18.9058L64.0936 18.9149L64.1029 18.9241L64.1121 18.9334L64.1215 18.9428L64.1309 18.9522L64.1404 18.9617L64.15 18.9713L64.1596 18.9809L64.1693 18.9906L64.1791 19.0004L64.189 19.0103L64.1989 19.0202L64.2089 19.0302L64.219 19.0403L64.2292 19.0504L64.2394 19.0607L64.2497 19.071L64.2601 19.0813L64.2705 19.0918L64.281 19.1023L64.2916 19.1129L64.3023 19.1236L64.313 19.1343L64.3238 19.1451L64.3347 19.156L64.3457 19.167L64.3567 19.178L64.3679 19.1891L64.3791 19.2003L64.3903 19.2116L64.4017 19.2229L64.4131 19.2344L64.4246 19.2459L64.4362 19.2574L64.4478 19.2691L64.4595 19.2808L64.4713 19.2926L64.4832 19.3045L64.4952 19.3165L64.5072 19.3285L64.5193 19.3406L64.5315 19.3528L64.5438 19.3651L64.5562 19.3774L64.5686 19.3899L64.5811 19.4024L64.5937 19.4149L64.6063 19.4276L64.6191 19.4403L64.6319 19.4532L64.6448 19.4661L64.6578 19.4791L64.6708 19.4921L64.684 19.5053L64.6972 19.5185L64.7105 19.5318L64.7239 19.5452L64.7373 19.5586L64.7509 19.5722L64.7645 19.5858L64.7782 19.5995L64.792 19.6133L64.8059 19.6271L64.8198 19.6411L64.8338 19.6551L64.8479 19.6692L64.8621 19.6834L64.8764 19.6977L64.8908 19.712L64.9052 19.7265L64.9197 19.741L64.9343 19.7556L64.949 19.7703L64.9638 19.7851L64.9787 19.7999L64.9936 19.8149L65.0086 19.8299L65.0237 19.845L65.0389 19.8602L65.0542 19.8755L65.0696 19.8908L65.085 19.9063L65.1005 19.9218L65.1162 19.9374L65.1319 19.9531L65.1476 19.9689L65.1635 19.9848L65.1795 20.0008L65.1955 20.0168L65.2116 20.0329L65.2279 20.0491L65.2442 20.0654L65.2606 20.0818L65.277 20.0983L65.2936 20.1149L65.3102 20.1315L65.327 20.1483L65.3438 20.1651L65.3607 20.182L65.3777 20.199L65.3948 20.2161L65.412 20.2332L65.4292 20.2505L65.4466 20.2679L65.464 20.2853L65.4816 20.3028L65.4992 20.3205L65.5169 20.3382L65.5347 20.356L65.5526 20.3738L65.5705 20.3918L65.5886 20.4099L65.6068 20.428L65.625 20.4463L65.6433 20.4646L65.6618 20.483L65.6803 20.5016L65.6989 20.5202L65.7176 20.5389L65.7364 20.5577L65.7553 20.5765L65.7742 20.5955L65.7933 20.6146L65.8125 20.6337L65.8317 20.653L65.851 20.6723L65.8705 20.6917L65.89 20.7113L65.9096 20.7309L65.9293 20.7506L65.9491 20.7704L65.969 20.7903L65.989 20.8103L66.0091 20.8304L66.0293 20.8506L66.0495 20.8708L66.0699 20.8912L66.0904 20.9116L66.1109 20.9322L66.1316 20.9529L66.1523 20.9736L66.1732 20.9944L66.1941 21.0154L66.2151 21.0364L66.2362 21.0575L66.2575 21.0787L66.2788 21.1001L66.3002 21.1215L66.3217 21.143L66.3433 21.1646L66.365 21.1863L66.3868 21.2081L66.4087 21.23L66.4307 21.252L66.4528 21.274L66.475 21.2962L66.4972 21.3185L66.5196 21.3409L66.5421 21.3634L66.5647 21.3859L66.5873 21.4086L66.6101 21.4314L66.633 21.4543L66.656 21.4772L66.679 21.5003L66.7022 21.5235L66.7255 21.5467L66.7488 21.5701L66.7723 21.5936L66.7958 21.6171L66.8195 21.6408L66.8433 21.6646L66.8671 21.6884L66.8911 21.7124L66.9152 21.7364L66.9393 21.7606L66.9636 21.7849L66.988 21.8093L67.0124 21.8337L67.037 21.8583L67.0617 21.883L67.0865 21.9077L67.1113 21.9326L67.1363 21.9576L67.1614 21.9827L67.1866 22.0079L67.2119 22.0331L67.2373 22.0585L67.2627 22.084L67.2883 22.1096L67.314 22.1353L67.3398 22.1611L67.3657 22.187L67.3918 22.213L67.4179 22.2391L67.4441 22.2654L67.4704 22.2917L67.4968 22.3181L67.5234 22.3446L67.55 22.3713L67.5767 22.398L67.6036 22.4249L67.6305 22.4518L67.6576 22.4789L67.6847 22.506L67.712 22.5333L67.7394 22.5607L67.7669 22.5881L67.7944 22.6157L67.8221 22.6434L67.8499 22.6712L67.8778 22.6991L67.9059 22.7271L67.934 22.7553L67.9622 22.7835L67.9905 22.8118L68.019 22.8403L68.0475 22.8688L68.0762 22.8975L68.105 22.9262L68.1338 22.9551L68.1628 22.9841L68.1919 23.0132L68.2211 23.0424L68.2504 23.0717L68.2798 23.1011L68.3094 23.1306L68.339 23.1603L68.3688 23.19L68.3986 23.2199L68.4286 23.2499L68.4587 23.2799L68.4889 23.3101L68.5192 23.3404L68.5496 23.3708L68.5801 23.4014L68.6107 23.432L68.6415 23.4627L68.6723 23.4936L68.7033 23.5246L68.7344 23.5556L68.7656 23.5868L68.7969 23.6181L68.8283 23.6495L68.8598 23.6811L68.8914 23.7127L68.9232 23.7445L68.9551 23.7763L68.987 23.8083L69.0191 23.8404L69.0513 23.8726L69.0837 23.9049L69.1161 23.9374L69.1486 23.9699L69.1813 24.0026L69.2141 24.0354L69.247 24.0682L69.28 24.1012L69.3131 24.1344L69.3463 24.1676L69.3797 24.201L69.4131 24.2344L69.4467 24.268L69.4804 24.3017L69.5142 24.3355L69.5482 24.3694L69.5822 24.4035L69.6164 24.4376L69.6507 24.4719L69.685 24.5063L69.7196 24.5408L69.7542 24.5755L69.7817 24.603L79.3473 15.0374C79.2562 13.3926 79.8389 11.7174 81.0955 10.4609L87.4594 4.09694C89.8026 1.75379 93.6015 1.75379 95.9447 4.09694C98.2878 6.44008 98.2878 10.2391 95.9447 12.5822L89.5807 18.9462C88.3242 20.2027 86.649 20.7854 85.0042 20.6943L75.4386 30.2599L75.4558 30.2771L75.4928 30.3141L75.5297 30.351L75.5665 30.3878L75.6031 30.4244L75.6397 30.4609L75.6761 30.4973L75.7124 30.5336L75.7485 30.5698L75.7846 30.6058L75.8205 30.6418L75.8563 30.6776L75.892 30.7133L75.9276 30.7488L75.963 30.7843L75.9984 30.8196L76.0336 30.8549L76.0687 30.89L76.1037 30.9249L76.1385 30.9598L76.1733 30.9945L76.2079 31.0292L76.2424 31.0637L76.2768 31.0981L76.3111 31.1324L76.3452 31.1665L76.3793 31.2006L76.4132 31.2345L76.447 31.2683L76.4807 31.302L76.5143 31.3356L76.5478 31.3691L76.5811 31.4024L76.6144 31.4356L76.6475 31.4688L76.6805 31.5018L76.7134 31.5347L76.7462 31.5674L76.7788 31.6001L76.8114 31.6326L76.8438 31.6651L76.8761 31.6974L76.9083 31.7296L76.9404 31.7617L76.9724 31.7937L77.0043 31.8255L77.036 31.8573L77.0677 31.8889L77.0992 31.9205L77.1306 31.9519L77.1619 31.9832L77.1931 32.0144L77.2242 32.0455L77.2551 32.0764L77.286 32.1073L77.3167 32.138L77.3474 32.1687L77.3779 32.1992L77.4083 32.2296L77.4386 32.2599L77.4688 32.2901L77.4989 32.3202L77.5288 32.3501L77.5587 32.38L77.5885 32.4097L77.6181 32.4394L77.6476 32.4689L77.677 32.4983L77.7063 32.5276L77.7355 32.5568L77.7646 32.5859L77.7936 32.6149L77.8225 32.6438L77.8513 32.6725L77.8799 32.7012L77.9085 32.7298L77.9369 32.7582L77.9653 32.7865L77.9935 32.8148L78.0216 32.8429L78.0496 32.8709L78.0775 32.8988L78.1053 32.9266L78.133 32.9543L78.1606 32.9819L78.1881 33.0094L78.2154 33.0367L78.2427 33.064L78.2699 33.0912L78.2969 33.1182L78.3239 33.1452L78.3507 33.172L78.3775 33.1987L78.4041 33.2254L78.4306 33.2519L78.4571 33.2783L78.4834 33.3047L78.5096 33.3309L78.5357 33.357L78.5617 33.383L78.5876 33.4089L78.6134 33.4347L78.6391 33.4604L78.6647 33.486L78.6902 33.5115L78.7156 33.5369L78.7409 33.5622L78.7661 33.5873L78.7911 33.6124L78.8161 33.6374L78.841 33.6623L78.8658 33.687L78.8904 33.7117L78.915 33.7363L78.9395 33.7608L78.9639 33.7851L78.9881 33.8094L79.0123 33.8336L79.0364 33.8576L79.0603 33.8816L79.0842 33.9055L79.1079 33.9292L79.1316 33.9529L79.1552 33.9765L79.1786 33.9999L79.202 34.0233L79.2253 34.0465L79.2484 34.0697L79.2715 34.0928L79.2945 34.1158L79.3173 34.1386L79.3401 34.1614L79.3628 34.1841L79.3854 34.2066L79.4078 34.2291L79.4302 34.2515L79.4525 34.2738L79.4747 34.296L79.4968 34.3181L79.5188 34.34L79.5407 34.3619L79.5625 34.3837L79.5842 34.4054L79.6058 34.427L79.6273 34.4485L79.6487 34.47L79.67 34.4913L79.6912 34.5125L79.7123 34.5336L79.7334 34.5546L79.7543 34.5756L79.7751 34.5964L79.7959 34.6172L79.8165 34.6378L79.8371 34.6584L79.8575 34.6788L79.8779 34.6992L79.8982 34.7195L79.9184 34.7396L79.9384 34.7597L79.9584 34.7797L79.9783 34.7996L79.9981 34.8194L80.0178 34.8391L80.0375 34.8587L80.057 34.8783L80.0764 34.8977L80.0958 34.917L80.115 34.9363L80.1342 34.9554L80.1532 34.9745L80.1722 34.9935L80.1911 35.0124L80.2099 35.0311L80.2286 35.0498L80.2472 35.0685L80.2657 35.087L80.2841 35.1054L80.3025 35.1237L80.3207 35.142L80.3389 35.1601L80.3569 35.1782L80.3749 35.1962L80.3928 35.2141L80.4106 35.2319L80.4283 35.2496L80.4459 35.2672L80.4634 35.2847L80.4809 35.3021L80.4982 35.3195L80.5155 35.3368L80.5327 35.3539L80.5497 35.371L80.5667 35.388L80.5837 35.4049L80.6005 35.4218L80.6172 35.4385L80.6339 35.4551L80.6504 35.4717L80.6669 35.4882L80.6833 35.5046L80.6996 35.5209L80.7158 35.5371L80.7319 35.5532L80.748 35.5693L80.7639 35.5852L80.7798 35.6011L80.7956 35.6169L80.8113 35.6326L80.8269 35.6482L80.8424 35.6637L80.8579 35.6792L80.8733 35.6945L80.8885 35.7098L80.9037 35.725L80.9188 35.7401L80.9339 35.7551L80.9488 35.7701L80.9637 35.7849L80.9784 35.7997L80.9931 35.8144L81.0077 35.829L81.0222 35.8435L81.0367 35.858L81.051 35.8723L81.0653 35.8866L81.0795 35.9008L81.0936 35.9149L81.1077 35.9289L81.1216 35.9429L81.1355 35.9567L81.1493 35.9705L81.163 35.9842L81.1766 35.9979L81.1901 36.0114L81.2036 36.0249L81.217 36.0382L81.2303 36.0515L81.2435 36.0648L81.2566 36.0779L81.2697 36.091L81.2827 36.1039L81.2956 36.1168L81.3084 36.1297L81.3211 36.1424L81.3338 36.1551L81.3464 36.1677L81.3589 36.1802L81.3713 36.1926L81.3837 36.2049L81.3959 36.2172L81.4081 36.2294L81.4202 36.2415L81.4323 36.2535L81.4442 36.2655L81.4561 36.2774L81.4679 36.2892L81.4796 36.3009L81.4913 36.3126L81.5029 36.3241L81.5144 36.3356L81.5258 36.3471L81.5371 36.3584L81.5484 36.3697L81.5596 36.3809L81.5707 36.392L81.5818 36.403L81.5927 36.414L81.6036 36.4249L81.6144 36.4357L81.6252 36.4465L81.6359 36.4571L81.6464 36.4677L81.657 36.4782L81.6674 36.4887L81.6778 36.4991L81.6881 36.5094L81.6983 36.5196L81.7085 36.5297L81.7185 36.5398L81.7285 36.5498L81.7385 36.5597L81.7483 36.5696L81.7581 36.5794L81.7678 36.5891L81.7775 36.5987L81.787 36.6083L81.7965 36.6178L81.806 36.6272L81.8153 36.6366L81.8246 36.6459L81.8338 36.6551L81.843 36.6642L81.852 36.6733L81.861 36.6823L81.87 36.6912L81.8788 36.7001L81.8876 36.7089L81.8963 36.7176L81.905 36.7262L81.9135 36.7348L81.9221 36.7433L81.9305 36.7518L81.9389 36.7601L81.9472 36.7684L81.9554 36.7767L81.9636 36.7848L81.9717 36.7929L81.9797 36.801L81.9877 36.8089L81.9955 36.8168L82.0034 36.8246L82.0111 36.8324L82.0188 36.8401L82.0264 36.8477L82.034 36.8553L82.0415 36.8628L82.0489 36.8702L82.0563 36.8775L82.0635 36.8848L82.0708 36.892L82.0779 36.8992L82.085 36.9063L82.092 36.9133L82.099 36.9203L82.1059 36.9272L82.1127 36.934L82.1195 36.9408L82.1262 36.9475L82.1328 36.9541L82.1394 36.9607L82.1459 36.9672L82.1523 36.9736L82.1587 36.98L82.165 36.9863L82.1713 36.9925L82.1775 36.9987L82.1836 37.0048L82.1896 37.0109L82.1956 37.0169L82.2016 37.0228L82.2074 37.0287L82.2132 37.0345L82.219 37.0403L82.2247 37.0459L82.2303 37.0516L82.2359 37.0571L82.2414 37.0626L82.2468 37.0681L82.2522 37.0734L82.2575 37.0788L82.2627 37.084L82.2679 37.0892L82.2731 37.0943L82.2781 37.0994L82.2831 37.1044L82.2881 37.1094L82.293 37.1143L82.2978 37.1191L82.3026 37.1239L82.3073 37.1286L82.312 37.1332L82.3166 37.1378L82.3211 37.1424L82.3256 37.1468L82.33 37.1513L82.3343 37.1556L82.3386 37.1599L82.3429 37.1642L82.3471 37.1683L82.3512 37.1725L82.3553 37.1765L82.3593 37.1806L82.3632 37.1845L82.3671 37.1884L82.371 37.1923L82.3748 37.196L82.3785 37.1998L82.3822 37.2034L82.3858 37.2071L82.3893 37.2106L82.3929 37.2141L82.3963 37.2176L82.3997 37.221L82.403 37.2243L82.4063 37.2276L82.4095 37.2308L82.4127 37.234L82.4158 37.2371L82.4189 37.2402L82.4219 37.2432L82.4249 37.2461L82.4278 37.249L82.4306 37.2519L82.4334 37.2547L82.4362 37.2574L82.4388 37.2601L82.4415 37.2628L82.4441 37.2653L82.4466 37.2679L82.4491 37.2703L82.4515 37.2728L82.4539 37.2751L82.4562 37.2775L82.4585 37.2797L82.4607 37.2819L82.4628 37.2841L82.4649 37.2862L82.467 37.2883L82.469 37.2903L82.471 37.2923L82.4729 37.2942L82.4748 37.296L82.4766 37.2978L82.4783 37.2996L82.48 37.3013L82.4817 37.303L82.4833 37.3046L82.4849 37.3061L82.4864 37.3076L82.4878 37.3091L82.4892 37.3105L82.4906 37.3119L82.4919 37.3132L82.4932 37.3145L82.4944 37.3157L82.4956 37.3168L82.4967 37.318L82.4978 37.319L82.4988 37.3201L82.4998 37.321L82.5007 37.322L82.5016 37.3229L82.5024 37.3237L82.5032 37.3245L82.504 37.3252L82.5047 37.3259L82.5053 37.3266L82.5059 37.3272L82.5065 37.3278L82.507 37.3283L82.5075 37.3287L82.5079 37.3292L82.5083 37.3295L82.5086 37.3299L82.5089 37.3302L82.5091 37.3304L82.5093 37.3306L82.5095 37.3307L82.5096 37.3309L82.5096 37.3309C83.2598 38.0811 83.6812 39.0985 83.6812 40.1594C83.6812 41.2202 83.2598 42.2377 82.5097 42.9878L42.9117 82.5858C41.3496 84.1479 38.8169 84.1479 37.2548 82.5858L37.2547 82.5857L37.2545 82.5854L37.2534 82.5844L37.2491 82.5801L37.2315 82.5625L37.1579 82.4888L37.1004 82.4314L37.0662 82.3972L37.0477 82.3787L37.0381 82.3691L37.0333 82.3642L37.0283 82.3593L36.8372 82.1682L36.579 81.9099L36.4229 81.7539L36.3379 81.6688L36.3269 81.6579L36.3159 81.6468L36.2936 81.6245L36.248 81.579L35.3456 80.6766L34.763 80.094L34.7433 80.0742L34.7235 80.0544L34.6836 80.0146L34.6027 79.9337L34.4364 79.7673L34.0853 79.4162L33.709 79.04L33.6109 78.9419L33.5862 78.9171L33.5613 78.8922L33.5363 78.8673L33.5112 78.8422L33.486 78.817L33.4608 78.7917L33.4354 78.7663L33.4099 78.7408L33.3843 78.7152L33.3586 78.6895L33.3328 78.6637L33.3069 78.6378L33.2809 78.6118L33.2548 78.5857L33.2285 78.5595L33.2022 78.5332L33.1758 78.5067L33.1493 78.4802L33.1226 78.4536L33.0959 78.4268L33.069 78.4L33.0421 78.373L33.015 78.346L32.9879 78.3188L32.9606 78.2916L32.9332 78.2642L32.9058 78.2367L32.8782 78.2091L32.8505 78.1814L32.8227 78.1536L32.7948 78.1257L32.7668 78.0977L32.7386 78.0696L32.7104 78.0414L32.6821 78.013L32.6536 77.9846L32.6251 77.956L32.5964 77.9274L32.5677 77.8986L32.5388 77.8697L32.5098 77.8408L32.4807 77.8117L32.4515 77.7825L32.4222 77.7532L30.1838 75.5147L20.6182 85.0803C20.7093 86.7251 20.1266 88.4003 18.8701 89.6569L12.5061 96.0208C10.163 98.364 6.36396 98.364 4.02082 96.0208C1.67767 93.6777 1.67767 89.8787 4.02082 87.5355L10.3848 81.1716C11.6413 79.915 13.3165 79.3323 14.9613 79.4235L24.5269 69.8579L24.4994 69.8303L24.4647 69.7957L24.4302 69.7612L24.3958 69.7268L24.3615 69.6925L24.3274 69.6583L24.2933 69.6243L24.2594 69.5904L24.2256 69.5565L24.1919 69.5228L24.1583 69.4893L24.1248 69.4558L24.0915 69.4224L24.0583 69.3892L24.0251 69.3561L23.9921 69.3231L23.9592 69.2902L23.9265 69.2574L23.8938 69.2248L23.8612 69.1922L23.8288 69.1598L23.7965 69.1274L23.7643 69.0952L23.7322 69.0632L23.7002 69.0312L23.6684 68.9993L23.6366 68.9676L23.605 68.9359L23.5734 68.9044L23.542 68.873L23.5107 68.8417L23.4795 68.8105L23.4484 68.7794L23.4175 68.7484L23.3866 68.7176L23.3559 68.6868L23.3252 68.6562L23.2947 68.6257L23.2643 68.5953L23.234 68.565L23.2038 68.5348L23.1737 68.5047L23.1438 68.4747L23.1139 68.4449L23.0842 68.4151L23.0545 68.3855L23.025 68.356L22.9956 68.3265L22.9663 68.2972L22.9371 68.268L22.908 68.2389L22.879 68.2099L22.8501 68.1811L22.8214 68.1523L22.7927 68.1236L22.7641 68.0951L22.7357 68.0667L22.7074 68.0383L22.6791 68.0101L22.651 67.982L22.623 67.954L22.5951 67.9261L22.5673 67.8983L22.5396 67.8706L22.512 67.843L22.4845 67.8155L22.4572 67.7881L22.4299 67.7609L22.4027 67.7337L22.3757 67.7066L22.3487 67.6797L22.3219 67.6528L22.2952 67.6261L22.2685 67.5995L22.242 67.5729L22.2156 67.5465L22.1892 67.5202L22.163 67.494L22.1369 67.4679L22.1109 67.4419L22.085 67.416L22.0592 67.3902L22.0335 67.3645L22.0079 67.3389L21.9824 67.3134L21.957 67.288L21.9317 67.2627L21.9066 67.2375L21.8815 67.2124L21.8565 67.1875L21.8316 67.1626L21.8069 67.1378L21.7088 67.0397L21.3325 66.6635L20.6548 65.9857L20.0721 65.4031L19.1697 64.5007L18.9948 64.3258L18.9145 64.2455L18.9048 64.2357L18.8952 64.2261L18.8856 64.2165L18.8761 64.207L18.8667 64.1976L18.8573 64.1883L18.8388 64.1698L18.5806 63.9115L18.2599 63.5909L18.1863 63.5172L18.1687 63.4996L18.1644 63.4953L18.1633 63.4943L18.163 63.494L18.163 63.4939C17.4128 62.7438 16.9914 61.7263 16.9914 60.6655ZM33.0122 67.0294L33.3657 67.383L33.4104 67.4277L33.455 67.4722L33.4994 67.5166L33.5437 67.5609L33.5878 67.6051L33.6319 67.6491L33.6758 67.693L33.7195 67.7368L33.7632 67.7804L33.8067 67.8239L33.8501 67.8673L33.8933 67.9106L33.9364 67.9537L33.9794 67.9967L34.0223 68.0395L34.065 68.0823L34.1076 68.1249L34.1501 68.1674L34.1925 68.2097L34.2347 68.2519L34.2768 68.294L34.3187 68.336L34.3606 68.3778L34.4023 68.4195L34.4439 68.4611L34.4853 68.5026L34.5267 68.5439L34.5679 68.5851L34.609 68.6262L34.6499 68.6672L34.6907 68.708L34.7314 68.7487L34.772 68.7893L34.8125 68.8297L34.8528 68.87L34.893 68.9102L34.9331 68.9503L34.973 68.9903L35.0129 69.0301L35.0526 69.0698L35.0921 69.1094L35.1316 69.1488L35.1709 69.1882L35.2101 69.2274L35.2492 69.2664L35.2882 69.3054L35.327 69.3442L35.3657 69.383L35.4043 69.4215L35.4428 69.46L35.4811 69.4984L35.5193 69.5366L35.5574 69.5747L35.5954 69.6127L35.6333 69.6505L35.671 69.6882L35.7086 69.7259L35.7461 69.7633L35.7835 69.8007L35.8207 69.838L35.8578 69.8751L35.8949 69.9121L35.9317 69.949L35.9685 69.9857L36.0052 70.0224L36.0417 70.0589L36.0781 70.0953L36.1144 70.1316L36.1505 70.1678L36.1866 70.2038L36.2225 70.2398L36.2583 70.2756L36.294 70.3113L36.3296 70.3468L36.365 70.3823L36.4004 70.4176L36.4356 70.4528L36.4707 70.4879L36.5057 70.5229L36.5405 70.5578L36.5753 70.5925L36.6099 70.6272L36.6444 70.6617L36.6788 70.6961L36.7131 70.7303L36.7473 70.7645L36.7813 70.7986L36.8152 70.8325L36.8491 70.8663L36.8827 70.9L36.9163 70.9336L36.9498 70.967L36.9831 71.0004L37.0164 71.0336L37.0495 71.0667L37.0825 71.0998L37.1154 71.1326L37.1482 71.1654L37.1808 71.1981L37.2134 71.2306L37.2458 71.2631L37.2781 71.2954L37.3103 71.3276L37.3424 71.3597L37.3744 71.3917L37.4063 71.4235L37.438 71.4553L37.4697 71.4869L37.5012 71.5185L37.5326 71.5499L37.5639 71.5812L37.5951 71.6124L37.6262 71.6434L37.6572 71.6744L37.688 71.7053L37.7188 71.736L37.7494 71.7666L37.7799 71.7972L37.8103 71.8276L37.8406 71.8579L37.8708 71.8881L37.9009 71.9181L37.9309 71.9481L37.9607 71.978L37.9905 72.0077L38.0201 72.0374L38.0496 72.0669L38.0791 72.0963L38.1084 72.1256L38.1376 72.1548L38.1667 72.1839L38.1956 72.2129L38.2245 72.2418L38.2533 72.2705L38.2819 72.2992L38.3105 72.3277L38.3389 72.3562L38.3673 72.3845L38.3955 72.4127L38.4236 72.4409L38.4516 72.4689L38.4795 72.4968L38.5073 72.5246L38.535 72.5523L38.5626 72.5799L38.5901 72.6073L38.6175 72.6347L38.6447 72.662L38.6719 72.6891L38.6989 72.7162L38.7259 72.7431L38.7527 72.77L38.7795 72.7967L38.8061 72.8234L38.8326 72.8499L38.8591 72.8763L38.8854 72.9026L38.9116 72.9289L38.9377 72.955L38.9637 72.981L38.9896 73.0069L39.0154 73.0327L39.0411 73.0584L39.0667 73.084L39.0922 73.1095L39.1176 73.1349L39.1429 73.1601L39.1681 73.1853L39.1932 73.2104L39.2181 73.2354L39.243 73.2603L39.2678 73.285L39.3659 73.3831L39.7421 73.7594L40.0833 74.1005L74.0244 40.1594L74.0131 40.1481L73.9918 40.1268L73.9704 40.1054L73.9489 40.0839L73.9273 40.0623L73.9056 40.0406L73.8838 40.0188L73.8619 39.9969L73.8399 39.9749L73.8178 39.9528L73.7957 39.9306L73.7734 39.9084L73.751 39.886L73.7285 39.8635L73.7059 39.8409L73.6833 39.8182L73.6605 39.7955L73.6376 39.7726L73.6147 39.7496L73.5916 39.7266L73.5684 39.7034L73.5452 39.6801L73.5218 39.6568L73.4983 39.6333L73.4748 39.6097L73.4511 39.5861L73.4273 39.5623L73.4035 39.5384L73.3795 39.5145L73.3554 39.4904L73.3313 39.4663L73.307 39.442L73.2826 39.4176L73.2582 39.3931L73.2336 39.3686L73.2089 39.3439L73.1841 39.3191L73.1593 39.2943L73.1343 39.2693L73.1092 39.2442L73.084 39.219L73.0587 39.1937L73.0334 39.1683L73.0079 39.1428L72.9823 39.1172L72.9566 39.0916L72.9308 39.0657L72.9049 39.0398L72.8789 39.0138L72.8527 38.9877L72.8265 38.9615L72.8002 38.9352L72.7738 38.9088L72.7472 38.8822L72.7206 38.8556L72.6939 38.8289L72.667 38.802L72.6401 38.7751L72.613 38.748L72.5859 38.7208L72.5586 38.6936L72.5312 38.6662L72.5037 38.6387L72.4762 38.6111L72.4485 38.5834L72.4207 38.5556L72.3928 38.5277L72.3647 38.4997L72.3366 38.4716L72.3084 38.4434L72.2801 38.415L72.2516 38.3866L72.2231 38.3581L72.1944 38.3294L72.1656 38.3006L72.1368 38.2718L72.1078 38.2428L72.0787 38.2137L72.0495 38.1845L72.0202 38.1552L71.9908 38.1257L71.9612 38.0962L71.9316 38.0666L71.9018 38.0368L71.872 38.007L71.842 37.977L71.8119 37.9469L71.7818 37.9167L71.7515 37.8864L71.721 37.856L71.6905 37.8255L71.6599 37.7949L71.6291 37.7641L71.5983 37.7333L71.5673 37.7023L71.5362 37.6712L71.5051 37.64L71.4738 37.6087L71.4423 37.5773L71.4108 37.5458L71.3792 37.5142L71.3474 37.4824L71.3155 37.4505L71.2836 37.4186L71.2515 37.3865L71.2193 37.3543L71.187 37.3219L71.1545 37.2895L71.122 37.257L71.0893 37.2243L71.0565 37.1915L71.0236 37.1586L70.9906 37.1256L70.9575 37.0925L70.9243 37.0593L70.8909 37.0259L70.8575 36.9924L70.8239 36.9589L70.7902 36.9252L70.7564 36.8914L70.7224 36.8574L70.6884 36.8234L70.6542 36.7892L70.62 36.7549L70.5856 36.7205L70.551 36.686L70.5164 36.6514L70.4817 36.6167L70.4468 36.5818L70.4118 36.5468L70.3767 36.5117L70.3415 36.4765L70.3062 36.4412L70.2707 36.4057L70.2351 36.3701L70.1995 36.3344L70.1636 36.2986L70.1277 36.2627L70.0917 36.2267L70.0555 36.1905L70.0192 36.1542L69.9828 36.1178L69.9463 36.0813L69.9096 36.0446L69.8729 36.0079L69.836 35.971L69.799 35.934L69.7618 35.8968L69.7246 35.8596L69.6872 35.8222L69.6497 35.7847L69.6121 35.7471L69.5744 35.7094L69.5365 35.6715L69.4986 35.6335L69.4605 35.5954L69.4222 35.5572L69.3839 35.5189L69.3454 35.4804L69.3068 35.4418L69.2681 35.4031L69.2293 35.3643L69.1903 35.3253L69.1513 35.2862L69.112 35.247L69.0727 35.2077L69.0333 35.1682L68.9937 35.1287L68.954 35.089L68.9142 35.0491L68.8742 35.0092L68.8341 34.9691L68.7939 34.9289L68.7536 34.8886L68.7132 34.8481L68.6726 34.8076L68.6319 34.7669L68.591 34.726L68.5501 34.6851L68.509 34.644L68.4678 34.6028L68.4265 34.5615L68.385 34.52L68.3434 34.4784L68.3017 34.4367L68.2599 34.3949L68.2179 34.3529L68.1758 34.3108L68.1336 34.2686L68.0912 34.2262L68.0488 34.1837L68.0062 34.1411L67.9634 34.0984L67.9206 34.0555L67.8776 34.0126L67.8344 33.9694L67.7912 33.9262L67.7478 33.8828L67.7043 33.8393L67.6607 33.7957L67.6169 33.7519L67.573 33.708L67.529 33.664L67.4848 33.6198L67.4405 33.5755L67.3961 33.5311L67.3516 33.4865L67.3069 33.4419L67.2622 33.3972L67.2176 33.3526L67.1732 33.3082L67.1289 33.2639L67.0848 33.2198L67.0407 33.1757L66.9969 33.1318L66.9589 33.0939L66.9533 33.0883L66.9477 33.0827L66.9094 33.0444L66.8659 33.0009L66.8226 32.9575L66.7793 32.9143L66.7362 32.8712L66.6932 32.8282L66.6503 32.7853L66.6076 32.7426L66.565 32.7L66.5225 32.6575L66.4802 32.6151L66.4379 32.5729L66.3958 32.5308L66.3539 32.4889L66.312 32.447L66.2703 32.4053L66.2287 32.3637L66.1873 32.3223L66.1459 32.2809L66.1047 32.2397L66.0637 32.1986L66.0227 32.1577L65.9819 32.1169L65.9412 32.0762L65.9006 32.0356L65.8601 31.9951L65.8198 31.9548L65.7796 31.9146L65.7395 31.8745L65.6996 31.8346L65.6598 31.7948L65.6201 31.7551L65.5805 31.7155L65.541 31.676L65.5017 31.6367L65.4625 31.5975L65.4234 31.5584L65.3845 31.5194L65.3456 31.4806L65.3069 31.4419L65.2683 31.4033L65.2299 31.3648L65.1915 31.3265L65.1533 31.2883L65.1152 31.2502L65.0772 31.2122L65.0394 31.1743L65.0016 31.1366L64.964 31.099L64.9265 31.0615L64.8892 31.0241L64.8519 30.9869L64.8148 30.9498L64.7778 30.9128L64.7409 30.8759L64.7041 30.8391L64.6675 30.8025L64.6309 30.7659L64.5945 30.7295L64.5583 30.6932L64.5221 30.6571L64.486 30.621L64.4501 30.5851L64.4143 30.5493L64.3786 30.5136L64.343 30.478L64.3076 30.4426L64.2722 30.4072L64.237 30.372L64.2019 30.3369L64.1669 30.3019L64.1321 30.2671L64.0973 30.2323L64.0627 30.1977L64.0282 30.1632L63.9938 30.1288L63.9595 30.0945L63.9254 30.0603L63.8913 30.0263L63.8574 29.9924L63.8236 29.9586L63.7899 29.9249L63.7563 29.8913L63.7228 29.8578L63.6895 29.8245L63.6562 29.7912L63.6231 29.7581L63.5901 29.7251L63.5572 29.6922L63.5244 29.6594L63.4918 29.6268L63.4592 29.5942L63.4268 29.5618L63.3945 29.5295L63.3623 29.4973L63.3302 29.4652L63.2982 29.4332L63.2663 29.4013L63.2346 29.3696L63.2029 29.3379L63.1714 29.3064L63.14 29.275L63.1087 29.2437L63.0775 29.2125L63.0464 29.1814L63.0155 29.1504L62.9846 29.1196L62.9539 29.0888L62.9232 29.0582L62.8927 29.0277L62.8623 28.9973L62.832 28.967L62.8018 28.9368L62.7717 28.9067L62.7418 28.8767L62.7119 28.8469L62.6822 28.8171L62.6525 28.7875L62.623 28.758L62.5936 28.7286L62.5643 28.6992L62.5351 28.67L62.506 28.6409L62.477 28.612L62.4481 28.5831L62.4193 28.5543L62.3907 28.5257L62.3621 28.4971L62.3337 28.4687L62.3054 28.4403L62.2771 28.4121L62.249 28.384L62.221 28.356L62.1931 28.3281L62.1653 28.3003L62.1376 28.2726L62.11 28.245L62.0825 28.2175L62.0552 28.1901L62.0279 28.1629L62.0007 28.1357L61.9737 28.1087L61.9467 28.0817L61.9199 28.0549L61.8931 28.0281L61.8665 28.0015L61.84 27.975L61.8135 27.9485L61.7872 27.9222L61.761 27.896L61.7349 27.8699L61.7089 27.8439L61.683 27.818L61.6572 27.7922L61.6315 27.7665L61.6059 27.7409L61.5804 27.7154L61.555 27.69L61.5297 27.6647L61.5045 27.6395L61.4795 27.6144L61.4545 27.5895L61.4296 27.5646L61.4048 27.5398L61.3802 27.5151L61.3556 27.4906L61.3311 27.4661L61.3068 27.4417L61.2825 27.4175L61.2583 27.3933L61.2343 27.3692L61.2103 27.3453L61.1864 27.3214L61.1627 27.2976L61.139 27.274L61.1154 27.2504L61.092 27.2269L61.0686 27.2036L61.0453 27.1803L61.0222 27.1571L60.9991 27.1341L60.9761 27.1111L60.9533 27.0882L60.9305 27.0655L60.9078 27.0428L60.8852 27.0202L60.8628 26.9977L60.8404 26.9754L60.8181 26.9531L60.7959 26.9309L60.7738 26.9088L60.7518 26.8868L60.7299 26.8649L60.7081 26.8431L60.6864 26.8214L60.6648 26.7998L60.6433 26.7783L60.6219 26.7569L60.6006 26.7356L60.5894 26.7243L26.6482 60.6655L26.9894 61.0066L27.3656 61.3829L27.4637 61.4809L27.4885 61.5057L27.5134 61.5306L27.5383 61.5556L27.5634 61.5807L27.5886 61.6058L27.6139 61.6311L27.6393 61.6565L27.6648 61.682L27.6904 61.7076L27.7161 61.7333L27.7419 61.7591L27.7678 61.785L27.7938 61.811L27.8199 61.8371L27.8461 61.8633L27.8724 61.8897L27.8988 61.9161L27.9254 61.9426L27.952 61.9693L27.9787 61.996L28.0056 62.0228L28.0325 62.0498L28.0596 62.0768L28.0868 62.104L28.114 62.1313L28.1414 62.1586L28.1689 62.1861L28.1965 62.2137L28.2242 62.2414L28.252 62.2692L28.2799 62.2971L28.3079 62.3251L28.336 62.3532L28.3642 62.3815L28.3926 62.4098L28.421 62.4382L28.4495 62.4668L28.4782 62.4955L28.507 62.5242L28.5358 62.5531L28.5648 62.5821L28.5939 62.6112L28.6231 62.6404L28.6524 62.6697L33.0122 67.0294Z"
            fill="currentcolor" />
    </g>
</svg>