<svg width="100" height="100" viewBox="0 0 100 100" fill="none" xmlns="http://www.w3.org/2000/svg">
    <path fill-rule="evenodd" clip-rule="evenodd"
        d="M4.17157 28.0414C2.60948 29.6034 2.60948 32.1361 4.17157 33.6982L32.0197 61.5464C33.5818 63.1085 36.1145 63.1085 37.6766 61.5464L46.783 52.4399L64.9961 70.653L63.8462 71.8029C62.2841 73.3651 62.2841 75.8977 63.8462 77.4598L83.7377 97.3513C85.2998 98.9134 87.8325 98.9134 89.3946 97.3513L97.3512 89.3947C98.9133 87.8326 98.9133 85.3 97.3512 83.7379L77.4596 63.8463C75.8976 62.2842 73.3649 62.2842 71.8028 63.8463L70.653 64.9962L52.4399 46.7831L61.5464 37.6765C63.1085 36.1144 63.1085 33.5818 61.5464 32.0197L33.6983 4.17151C32.1362 2.60942 29.6035 2.60941 28.0414 4.17151L4.17157 28.0414ZM72.3315 74.6314L73.4814 73.4814L74.6312 72.3316L88.8659 86.5663L86.5661 88.8661L72.3315 74.6314ZM34.8481 53.0611L12.6569 30.8698L18.9348 24.5918L41.1261 46.7831L34.8481 53.0611ZM46.783 41.1263L53.0611 34.8481L30.8698 12.6568L24.5917 18.935L46.783 41.1263Z"
        fill="currentcolor" />
</svg>