<svg width="100" height="100" viewBox="0 0 100 100" fill="none" xmlns="http://www.w3.org/2000/svg">
    <path fill-rule="evenodd" clip-rule="evenodd"
        d="M81.1191 44.2203C87.9529 43 92.4709 43 94.7637 43H94.7809C96.99 43 98.7809 41.2091 98.7809 39C98.7809 36.7909 96.99 35 94.7809 35C92.28 35 87.2269 35.0031 79.7128 36.3449C75.6793 37.0651 69.9475 39.1356 65.4862 40.8883C63.1977 41.7873 61.1417 42.6441 59.6581 43.2758C58.9897 43.5604 58.436 43.8001 58.0278 43.9781H5C3.55891 43.9781 2.22922 44.7533 1.5192 46.0073C0.809178 47.2613 0.828595 48.8003 1.57003 50.0361L8.42073 61.4539C11.5774 66.7151 17.2631 69.9343 23.3987 69.9343H39.2875C44.9872 69.9343 50.3285 67.1533 53.5971 62.4839L61.5023 51.1908C61.8539 51.0381 62.2888 50.8507 62.7924 50.6363C64.2268 50.0255 66.2108 49.1988 68.4114 48.3343C72.9282 46.5599 77.9701 44.7826 81.1191 44.2203ZM15.2807 57.3379L14.0375 55.2659L9.22362 51.2543L14.8774 51.9781H47.7364L53.3901 51.2543L49.3158 54.6497L47.0432 57.8962C45.2717 60.427 42.3767 61.9343 39.2875 61.9343H23.3987C20.0732 61.9343 16.9916 60.1895 15.2807 57.3379Z"
        fill="currentcolor" />
</svg>