<svg width="100" height="100" viewBox="0 0 100 100" fill="none" xmlns="http://www.w3.org/2000/svg">
    <path fill-rule="evenodd" clip-rule="evenodd"
        d="M58.6985 61.1266C58.6949 61.1302 58.6914 61.1338 58.6878 61.1374L58.6839 61.1415C58.6748 61.1508 58.6549 61.1716 58.6255 61.203C58.5667 61.2661 58.4716 61.3704 58.3524 61.5094C58.1105 61.7917 57.7885 62.1947 57.4724 62.6689C56.7535 63.7472 56.4408 64.6335 56.4408 65.1346C56.4408 68.0404 55.05 70.5612 54.0655 72.038C53.5298 72.8415 53 73.5032 52.6031 73.9662C52.4029 74.1998 52.2318 74.3883 52.1044 74.5248C52.0676 74.5643 52.0343 74.5995 52.0048 74.6304C51.9832 74.653 51.9637 74.6733 51.9465 74.6912C51.941 74.6968 51.9358 74.7021 51.9308 74.7073C51.917 74.7215 51.9049 74.7339 51.8945 74.7444L51.8758 74.7633L51.8684 74.7708L51.8636 74.7756L51.8622 74.777C51.8547 74.7845 51.8472 74.792 51.8396 74.7994L31.4204 95.2186C29.8583 96.7807 27.3257 96.7807 25.7636 95.2186C24.2015 93.6565 24.2015 91.1239 25.7636 89.5618L43.3768 71.9485L38.8127 67.3843L21.1995 84.9975C19.6374 86.5596 17.1047 86.5596 15.5426 84.9975C13.9805 83.4354 13.9805 80.9028 15.5426 79.3407L33.1558 61.7275L28.5919 57.1636L10.9786 74.777C9.41648 76.3391 6.88382 76.3391 5.32172 74.777C3.75963 73.2149 3.75963 70.6822 5.32172 69.1201L25.7635 48.6783C25.7721 48.6698 25.7806 48.6613 25.7892 48.6529L25.7961 48.646C25.8105 48.6319 25.8282 48.6145 25.8494 48.5941C25.8916 48.5532 25.9473 48.5 26.0157 48.4361C26.1523 48.3087 26.3408 48.1376 26.5744 47.9374C27.0374 47.5405 27.699 47.0107 28.5025 46.4751C29.9794 45.4905 32.5001 44.0998 35.4059 44.0998C35.9071 44.0998 36.7933 43.787 37.8717 43.0681C38.3458 42.752 38.7488 42.4301 39.0311 42.1881C39.1701 42.069 39.2744 41.9739 39.3375 41.915C39.3659 41.8885 39.3856 41.8697 39.396 41.8596C39.3972 41.8585 39.3982 41.8575 39.3991 41.8567L73.4611 7.79451L76.2896 10.6229C73.4611 7.79451 73.4625 7.7931 73.464 7.79167L73.467 7.78866L73.4735 7.78216L73.4886 7.76724L73.5269 7.72993C73.5559 7.70182 73.5921 7.66728 73.6351 7.627C73.7212 7.54651 73.8353 7.44257 73.9759 7.32071C74.2561 7.07787 74.6472 6.75874 75.1358 6.4098C76.0971 5.72309 77.5191 4.86108 79.2834 4.27298C81.0643 3.67934 83.2725 3.3409 85.6979 3.82599C88.1529 4.31698 90.5475 5.5961 92.7459 7.79451C94.9443 9.99293 96.2234 12.3875 96.7144 14.8425C97.1995 17.2679 96.861 19.4761 96.2674 21.257C95.6793 23.0213 94.8173 24.4432 94.1306 25.4046C93.7816 25.8931 93.4625 26.2843 93.2197 26.5644C93.0978 26.7051 92.9939 26.8192 92.9134 26.9053C92.892 26.9282 92.8722 26.9491 92.8541 26.9681C92.8382 26.9848 92.8236 26.9999 92.8104 27.0135L92.7731 27.0517L92.7582 27.0668L92.7517 27.0734L92.7487 27.0764C92.7473 27.0778 92.7459 27.0792 89.9174 24.2508L92.7459 27.0792L58.6985 61.1266ZM47.8766 44.6927L79.0974 13.472L79.1004 13.4692C79.1175 13.4532 79.1564 13.4174 79.2154 13.3662C79.3344 13.263 79.5289 13.1031 79.7857 12.9197C80.3148 12.5417 81.0223 12.1261 81.8132 11.8624C82.5875 11.6043 83.3604 11.5169 84.129 11.6706C84.8681 11.8184 85.8805 12.2428 87.089 13.4514C88.2976 14.6599 88.7219 15.6723 88.8697 16.4114C89.0235 17.18 88.936 17.9529 88.6779 18.7272C88.4143 19.5181 87.9987 20.2256 87.6207 20.7547C87.4373 21.0115 87.2773 21.2059 87.1742 21.325C87.123 21.384 87.0872 21.4229 87.0712 21.44L87.0684 21.443L55.8476 52.6638L47.8766 44.6927ZM41.6742 58.9321L48.369 65.6269C48.4175 65.4368 48.4408 65.2714 48.4408 65.1346C48.4408 62.4963 49.5872 60.1754 50.5352 58.6651L41.8755 50.0053C40.3651 50.9533 38.0443 52.0998 35.4059 52.0998C35.2692 52.0998 35.1038 52.1231 34.9136 52.1715L41.6081 58.866C41.6192 58.8769 41.6303 58.8878 41.6413 58.8989C41.6523 58.9099 41.6633 58.921 41.6742 58.9321Z"
        fill="currentcolor" />
</svg>