<svg width="100" height="100" viewBox="0 0 100 100" fill="none" xmlns="http://www.w3.org/2000/svg">
    <path fill-rule="evenodd" clip-rule="evenodd"
        d="M83.0073 2.72315C81.4452 1.16105 78.9125 1.16105 77.3504 2.72315L56.0413 24.0324L48.9382 31.1354C44.4359 35.6377 43.6293 42.4363 46.5184 47.7614L30.1394 64.1403C27.7109 62.6469 25.1194 61.9657 22.5399 61.8994C18.9477 61.8071 15.5887 62.9058 12.8616 64.2161C10.1109 65.5377 7.76939 67.1879 6.13937 68.4765C5.31623 69.1272 4.65461 69.7017 4.19117 70.1208C3.95905 70.3308 3.77548 70.5029 3.64502 70.6274C3.57976 70.6896 3.52769 70.7401 3.48937 70.7776L3.44225 70.8239L3.42654 70.8395L3.42066 70.8453L3.41823 70.8477C3.41785 70.8481 3.41749 70.8485 3.5325 70.9641L3.53122 70.965L3.41612 70.8499C3.2302 71.0358 3.06643 71.2354 2.92477 71.4456C1.91067 72.4239 1.44528 73.9095 1.83724 75.3665C2.41114 77.4997 4.60575 78.7639 6.73904 78.19L13.6828 76.322L11.8148 83.2657C11.4432 84.6471 11.8375 86.1218 12.849 87.1333C13.8606 88.1448 15.3352 88.5392 16.7166 88.1675L23.6604 86.2995L21.7924 93.2433C21.2185 95.3766 22.4826 97.5712 24.6159 98.1451C26.3467 98.6107 28.118 97.8664 29.0312 96.4296L29.0395 96.4212L29.0859 96.3741C29.1233 96.3357 29.1738 96.2837 29.2361 96.2184C29.3606 96.088 29.5326 95.9044 29.7426 95.6723C30.1618 95.2088 30.7362 94.5472 31.3869 93.7241C32.6756 92.094 34.3257 89.7525 35.6473 87.0019C36.9576 84.2748 38.0563 80.9157 37.964 77.3235C37.8986 74.7762 37.2334 72.2171 35.7786 69.8148L52.1752 53.4182C57.5003 56.3073 64.2989 55.5006 68.8012 50.9983L75.8889 43.9106L75.9043 43.8953L75.9195 43.88L97.2134 22.5861C98.7755 21.024 98.7755 18.4914 97.2134 16.9293L83.0073 2.72315ZM73.0758 35.41L88.7281 19.7577L80.1789 11.2084L64.5265 26.8608L73.0758 35.41ZM58.8697 32.5176L54.5951 36.7922C52.2343 39.153 52.2343 42.9807 54.5951 45.3415C56.9559 47.7023 60.7835 47.7023 63.1443 45.3415L67.4189 41.0669L58.8697 32.5176ZM29.0029 88.6287C29.0029 88.6287 37.2087 77.5826 29.8904 70.2646C22.5721 62.9467 11.5264 71.1521 11.5264 71.1521L13.8722 71.0793C16.3048 71.0037 18.2405 73.0998 17.972 75.5187L17.7668 77.3675C17.5005 79.7656 19.4022 81.8518 21.8146 81.8082L25.0182 81.7503C27.3041 81.7089 29.1595 83.5886 29.0885 85.8738L29.0029 88.6287Z"
        fill="currentcolor" />
</svg>