<svg width="100" height="100" viewBox="0 0 100 100" fill="none" xmlns="http://www.w3.org/2000/svg">
    <path fill-rule="evenodd" clip-rule="evenodd"
        d="M59.9772 22C59.9175 20.6524 59.7298 19.1109 59.2952 17.618C58.7455 15.7295 57.8642 14.1282 56.5544 13.0033C55.3055 11.9307 53.3323 11 50 11C46.6677 11 44.6945 11.9307 43.4456 13.0033C42.1358 14.1282 41.2545 15.7295 40.7048 17.618C40.2702 19.1109 40.0825 20.6524 40.0228 22H59.9772ZM33.0236 15.382C32.3258 17.7793 32.0786 20.1218 32.0169 22H25.25C23.2327 22 21.5311 23.5021 21.2809 25.5039L13.0309 91.5039C12.8886 92.6423 13.242 93.7871 14.0013 94.6472C14.7606 95.5073 15.8527 96 17 96H83C84.1473 96 85.2394 95.5073 85.9987 94.6472C86.758 93.7871 87.1114 92.6423 86.9691 91.5039L78.7191 25.5039C78.4689 23.5021 76.7673 22 74.75 22H67.9831C67.9214 20.1218 67.6742 17.7793 66.9764 15.382C66.1434 12.5205 64.6049 9.37183 61.7666 6.93424C58.8674 4.44432 54.964 3 50 3C45.036 3 41.1326 4.44432 38.2334 6.93424C35.3951 9.37183 33.8566 12.5205 33.0236 15.382ZM28.7811 30H36.1728H63.8272H71.2189L78.4689 88H21.5311L28.7811 30ZM34.1102 71.9931C34.0077 70.8933 34.8954 70 36 70H43C44.1046 70 44.9923 70.8933 44.8898 71.9931C44.5944 75.1633 43.5064 81 39.5 81C35.4936 81 34.4056 75.1633 34.1102 71.9931ZM58 70C56.8954 70 56.0077 70.8933 56.1102 71.9931C56.4056 75.1633 57.4936 81 61.5 81C65.5064 81 66.5944 75.1633 66.8898 71.9931C66.9923 70.8933 66.1046 70 65 70H58ZM36 41H43C44.1046 41 44.9923 41.8933 44.8898 42.9931C44.5944 46.1633 43.5064 52 39.5 52C35.4936 52 34.4056 46.1633 34.1102 42.9931C34.0077 41.8933 34.8954 41 36 41ZM65 41H58C56.8954 41 56.0077 41.8933 56.1102 42.9931C56.4056 46.1633 57.4936 52 61.5 52C65.5064 52 66.5944 46.1633 66.8898 42.9931C66.9923 41.8933 66.1046 41 65 41ZM47 55H54C55.1046 55 55.9923 55.8933 55.8898 56.9931C55.5944 60.1633 54.5064 66 50.5 66C46.4936 66 45.4056 60.1633 45.1102 56.9931C45.0077 55.8933 45.8954 55 47 55Z"
        fill="currentcolor" />
</svg>