<svg width="100" height="100" viewBox="0 0 100 100" fill="none" xmlns="http://www.w3.org/2000/svg">
    <path fill-rule="evenodd" clip-rule="evenodd"
        d="M8.64105 29.4116C2.43373 32.9954 0.306938 40.9327 3.89074 47.14L4.57608 48.3271L4.57795 48.3303L4.57968 48.3333L12.3825 61.8482C15.9663 68.0555 23.9036 70.1823 30.1109 66.5985L59.2165 49.7944L67.9289 64.8848C67.9683 64.9531 68.0095 65.0198 68.0522 65.0848C62.4992 68.8756 60.7247 76.3668 64.1418 82.2853L69.1396 90.9417C72.7234 97.149 80.6606 99.2758 86.868 95.692L92.0675 92.6901C98.2748 89.1063 100.402 81.169 96.8178 74.9617L91.82 66.3052C88.4029 60.3867 81.0281 58.1779 74.9687 61.0916C74.9337 61.0221 74.8965 60.9531 74.8571 60.8848L66.1447 45.7944L67.0088 45.2955C73.2161 41.7117 75.3429 33.7744 71.7591 27.5671L67.7564 20.6342C61.6934 10.1327 48.2652 6.53461 37.7637 12.5976L25.0743 19.9239L25.0728 19.9248L9.83134 28.7244L8.64105 29.4116ZM19.3107 57.8482L17.2636 54.3025C18.6663 54.0654 20.0512 53.5788 21.3555 52.8258L30.6148 47.48C36.8221 43.8962 38.9489 35.9589 35.3651 29.7516L32.5369 24.853L41.7637 19.5258C48.4388 15.672 56.9743 17.959 60.8282 24.6342L64.8309 31.5671C66.2056 33.9481 65.3898 36.9926 63.0088 38.3673L58.6806 40.8662L26.1109 59.6703C23.7299 61.045 20.6854 60.2292 19.3107 57.8482ZM13.8313 35.6526L25.6087 28.853L28.4369 33.7516C29.8115 36.1326 28.9957 39.1771 26.6148 40.5518L17.3555 45.8976C15.308 47.0798 12.6899 46.3787 11.507 44.3318L11.5062 44.3303L11.5051 44.3284C9.75239 41.2903 10.7936 37.4064 13.8313 35.6526ZM79.0048 68.0712C79.0217 68.0989 79.0384 68.127 79.0547 68.1553L88.8818 85.1762C90.6175 83.6404 91.0933 81.0466 89.8896 78.9617L84.8918 70.3052C83.6878 68.2199 81.203 67.3352 79.0048 68.0712ZM81.9536 89.1762L72.1265 72.1553C72.1102 72.127 72.0942 72.0985 72.0786 72.07C70.3422 73.6057 69.866 76.2 71.07 78.2853L76.0678 86.9417C77.2715 89.0267 79.7557 89.9114 81.9536 89.1762Z"
        fill="currentcolor" />
</svg>