<svg width="100" height="100" viewBox="0 0 100 100" fill="none" xmlns="http://www.w3.org/2000/svg">
    <path fill-rule="evenodd" clip-rule="evenodd"
        d="M86.0926 47.2788L90.1886 51.3748C91.7507 52.9369 94.2833 52.9369 95.8454 51.3748C97.4075 49.8127 97.4075 47.2801 95.8454 45.718L91.7494 41.622L92.3832 40.9882C93.9453 39.4261 93.9453 36.8934 92.3832 35.3313L64.6857 7.6338C63.1236 6.0717 60.5909 6.0717 59.0288 7.6338L58.3951 8.26756L54.2991 4.17157C52.737 2.60948 50.2044 2.60948 48.6423 4.17157C47.0802 5.73367 47.0802 8.26633 48.6423 9.82843L52.7382 13.9244L45.1801 21.4826C38.3505 28.3121 39.7679 36.3964 41.0815 42.0886C41.2384 42.7684 41.3907 43.4045 41.5345 44.0046C42.0485 46.1506 42.4519 47.8352 42.5568 49.4075C42.6496 50.8001 42.4619 51.611 42.0865 52.1907C41.9842 52.2794 41.8858 52.3745 41.7918 52.4761L8.18063 72.6428C7.96987 72.7449 7.76622 72.8665 7.57239 73.0077C6.9917 73.3575 6.54386 73.8235 6.23965 74.3532C1.72659 79.7719 2.01204 87.8372 7.09596 92.9211C12.1798 98.005 20.245 98.2905 25.6637 93.7775C26.1936 93.4733 26.6597 93.0253 27.0095 92.4444C27.1506 92.2507 27.2721 92.0473 27.3741 91.8368L47.541 58.2253C47.6426 58.1312 47.7378 58.0328 47.8265 57.9304C48.4063 57.5551 49.2171 57.3675 50.6096 57.4603C52.1817 57.5651 53.8662 57.9685 56.012 58.4825L56.012 58.4825L56.0122 58.4825L56.0124 58.4825L56.0125 58.4826L56.0126 58.4826L56.0135 58.4828L56.0148 58.4831C56.6142 58.6267 57.2495 58.7788 57.9284 58.9355C63.6206 60.2491 71.7049 61.6665 78.5345 54.837L85.4476 47.9238L85.4589 47.9126L85.4701 47.9013L86.0926 47.2788ZM12.7528 87.2642C10.5813 85.0928 10.4943 81.6262 12.4917 79.3509L28.2327 69.9063L37.6219 62.395L30.1119 71.7825L20.6662 87.5253C18.3909 89.5228 14.9243 89.4357 12.7528 87.2642ZM50.8369 27.1394L54.9329 23.0435L76.9736 45.0842L72.8776 49.1801C69.3206 52.7371 65.2872 52.4235 59.7273 51.1404C59.2542 51.0312 58.7565 50.911 58.241 50.7866C56.016 50.2494 53.4612 49.6326 51.1417 49.478C50.9521 49.4654 50.7609 49.4555 50.5683 49.4487C50.5616 49.2562 50.5517 49.0649 50.539 48.8753C50.3844 46.5559 49.7676 44.0011 49.2305 41.7761L49.2304 41.7761L49.2304 41.7758L49.2302 41.775L49.2298 41.7735C49.1056 41.2589 48.9856 40.762 48.8767 40.2897C47.5936 34.7298 47.2799 30.6964 50.8369 27.1394ZM59.2606 14.7899C60.2167 13.8338 61.7667 13.8338 62.7228 14.7899L85.227 37.2941C86.1831 38.2502 86.1831 39.8003 85.227 40.7563C84.271 41.7124 82.7209 41.7124 81.7648 40.7563L59.2606 18.2521C58.3045 17.296 58.3045 15.7459 59.2606 14.7899Z"
        fill="currentcolor" />
</svg>