<svg width="100" height="100" viewBox="0 0 100 100" fill="none" xmlns="http://www.w3.org/2000/svg">
    <path fill-rule="evenodd" clip-rule="evenodd"
        d="M82.4359 5.2675C85.6755 5.0361 88.397 6.75822 90.6955 9.05673C92.994 11.3552 94.7161 14.0767 94.4847 17.3163C94.2659 20.3801 92.3484 22.696 90.6955 24.3489C88.2351 26.8093 71.9401 41.9852 63.602 49.7298C62.0359 53.3116 60.135 58.0425 58.0595 63.2083L58.0593 63.2087L57.6906 64.1264C55.34 69.9754 52.7982 76.276 50.3591 81.8194C44.4142 95.3306 24.4085 100.365 11.8976 87.8545C-0.613374 75.3436 4.42152 55.3379 17.9327 49.393C23.4761 46.9539 29.7766 44.412 35.6257 42.0615L36.5431 41.6929C41.7093 39.6172 46.4406 37.7162 50.0226 36.15C57.7673 27.8118 72.9429 11.5171 75.4033 9.05672C77.0562 7.40382 79.3721 5.48634 82.4359 5.2675ZM48.6964 45.3988C45.9117 46.5504 42.8076 47.7975 39.6001 49.0862L39.5998 49.0863L38.6088 49.4845C32.7421 51.8422 26.5605 54.337 21.1546 56.7155C13.7485 59.9742 9.97799 70.7102 15.0575 79.0377L48.6964 45.3988ZM20.7143 84.6946C29.0419 89.7741 39.7779 86.0036 43.0366 78.5975C45.4151 73.1916 47.9099 67.01 50.2676 61.1433L50.6658 60.1522L50.6658 60.1522C51.9545 56.9445 53.2016 53.8404 54.3533 51.0556L20.7143 84.6946ZM83.0059 13.2472C83.0039 13.2473 82.473 13.3007 81.0601 14.7136C78.9245 16.8492 66.0873 30.6179 57.9463 39.3753L60.3769 41.8059C69.1343 33.6649 82.903 20.8277 85.0386 18.6921C86.4515 17.2792 86.5049 16.7483 86.505 16.7463L86.5051 16.7459L86.5049 16.7433C86.5048 16.7419 86.5045 16.7382 86.5036 16.7321C86.5028 16.7266 86.5015 16.7191 86.4994 16.7095C86.4908 16.6701 86.4643 16.5731 86.3834 16.4113C86.2119 16.0683 85.8333 15.5083 85.0386 14.7136C84.2439 13.9189 83.6839 13.5403 83.3409 13.3688C83.1791 13.2879 83.0821 13.2614 83.0427 13.2528C83.0224 13.2484 83.0117 13.2475 83.0089 13.2473L83.0063 13.2471L83.0059 13.2472Z"
        fill="currentcolor" />
</svg>