<svg width="100" height="100" viewBox="0 0 100 100" fill="none" xmlns="http://www.w3.org/2000/svg">
    <path fill-rule="evenodd" clip-rule="evenodd"
        d="M5 24.511C2.52077 24.511 0.510956 26.5208 0.510956 29C0.510956 47.8888 11.5278 64.1929 27.511 72.1938V83C27.511 85.4793 29.5208 87.4891 32 87.4891H68C70.4792 87.4891 72.489 85.4793 72.489 83V72.1938C88.4722 64.1929 99.489 47.8888 99.489 29C99.489 26.5208 97.4792 24.511 95 24.511H5ZM63.511 73.4891H36.489V78.511H63.511V73.4891ZM67.7629 64.511C79.9611 58.6987 88.6691 47.1231 90.252 33.4891H9.74801C11.3309 47.1231 20.0389 58.6987 32.2371 64.511H67.7629Z"
        fill="currentcolor" />
</svg>