<svg width="100" height="100" viewBox="0 0 100 100" fill="none" xmlns="http://www.w3.org/2000/svg">
    <path fill-rule="evenodd" clip-rule="evenodd"
        d="M1 24C1 21.7909 2.79086 20 5 20H95C97.2091 20 99 21.7909 99 24C99 47.6231 88.8621 68.6451 73 79.2066V86C73 88.2091 71.2091 90 69 90H31C28.7909 90 27 88.2091 27 86V79.2066C11.1379 68.6451 1 47.6232 1 24ZM65 77.0741C64.9973 76.9227 65.0033 76.7717 65.0177 76.6217C65.0719 76.0438 65.249 75.5017 65.5226 75.0218C65.7951 74.5417 66.1702 74.1128 66.6386 73.7711C66.7596 73.6824 66.8857 73.6005 67.0165 73.5257C80.1489 65.6843 89.7833 48.6473 90.893 28H9.107C10.2167 48.6473 19.8511 65.6843 32.9835 73.5256C33.1144 73.6005 33.2407 73.6826 33.3618 73.7714C33.83 74.113 34.2049 74.5419 34.4774 75.0218C34.751 75.5017 34.9281 76.0438 34.9823 76.6217C34.9967 76.7717 35.0027 76.9228 35 77.0742V82H65V77.0741ZM22.9533 35.1189C20.497 35.1189 18.5058 37.1101 18.5058 39.5664C18.5058 42.0228 20.497 44.014 22.9533 44.014H23.0621C25.5184 44.014 27.5096 42.0228 27.5096 39.5664C27.5096 37.1101 25.5184 35.1189 23.0621 35.1189H22.9533ZM27.5096 50.6853C27.5096 48.229 29.5009 46.2378 31.9572 46.2378H32.0659C34.5222 46.2378 36.5135 48.229 36.5135 50.6853C36.5135 53.1417 34.5222 55.1329 32.0659 55.1329H31.9572C29.5009 55.1329 27.5096 53.1417 27.5096 50.6853ZM40.961 35.1189C38.5047 35.1189 36.5135 37.1101 36.5135 39.5664C36.5135 42.0228 38.5047 44.014 40.961 44.014H41.0698C43.5261 44.014 45.5173 42.0228 45.5173 39.5664C45.5173 37.1101 43.5261 35.1189 41.0698 35.1189H40.961ZM36.5135 61.8041C36.5135 59.3478 38.5047 57.3566 40.961 57.3566H41.0698C43.5261 57.3566 45.5173 59.3478 45.5173 61.8041C45.5173 64.2604 43.5261 66.2517 41.0698 66.2517H40.961C38.5047 66.2517 36.5135 64.2604 36.5135 61.8041ZM49.9649 46.2378C47.5086 46.2378 45.5173 48.229 45.5173 50.6853C45.5173 53.1417 47.5086 55.1329 49.9649 55.1329H50.0736C52.5299 55.1329 54.5212 53.1417 54.5212 50.6853C54.5212 48.229 52.5299 46.2378 50.0736 46.2378H49.9649ZM54.5212 39.5664C54.5212 37.1101 56.5124 35.1189 58.9687 35.1189H59.0775C61.5338 35.1189 63.525 37.1101 63.525 39.5664C63.525 42.0228 61.5338 44.014 59.0775 44.014H58.9687C56.5124 44.014 54.5212 42.0228 54.5212 39.5664ZM58.9687 57.3566C56.5124 57.3566 54.5212 59.3478 54.5212 61.8041C54.5212 64.2604 56.5124 66.2517 58.9687 66.2517H59.0775C61.5338 66.2517 63.525 64.2604 63.525 61.8041C63.525 59.3478 61.5338 57.3566 59.0775 57.3566H58.9687ZM63.525 50.6853C63.525 48.229 65.5162 46.2378 67.9726 46.2378H68.0813C70.5376 46.2378 72.5289 48.229 72.5289 50.6853C72.5289 53.1417 70.5376 55.1329 68.0813 55.1329H67.9726C65.5162 55.1329 63.525 53.1417 63.525 50.6853ZM76.9764 35.1189C74.5201 35.1189 72.5289 37.1101 72.5289 39.5664C72.5289 42.0228 74.5201 44.014 76.9764 44.014H77.0852C79.5415 44.014 81.5327 42.0228 81.5327 39.5664C81.5327 37.1101 79.5415 35.1189 77.0852 35.1189H76.9764Z"
        fill="currentcolor" />
</svg>