<svg width="100" height="100" viewBox="0 0 100 100" fill="none" xmlns="http://www.w3.org/2000/svg">
    <path fill-rule="evenodd" clip-rule="evenodd"
        d="M34 9.52972C34 4.2666 38.2666 0 43.5297 0H56.4703C61.7334 0 66 4.2666 66 9.52972V50H66.4667C71.0094 50 74.9205 53.2064 75.8114 57.6608L80.5995 81.6013C81.7789 87.4983 77.2685 93 71.2548 93H70V96C70 98.2091 68.2091 100 66 100C63.7909 100 62 98.2091 62 96V93H38V96C38 98.2091 36.2091 100 34 100C31.7909 100 30 98.2091 30 96V93H28.7452C22.7315 93 18.2211 87.4983 19.4005 81.6013L24.1886 57.6608C25.0795 53.2064 28.9906 50 33.5333 50H34V9.52972ZM71.2548 85H66H34H28.7452C27.7798 85 27.0558 84.1169 27.2452 83.1703L32.0333 59.2297C32.1763 58.5147 32.8041 58 33.5333 58H38H62H66.4667C67.1959 58 67.8237 58.5147 67.9667 59.2297L72.7548 83.1703C72.9442 84.1169 72.2201 85 71.2548 85ZM58 9.52972V50H42V9.52972C42 8.68488 42.6849 8 43.5297 8H56.4703C57.3151 8 58 8.68488 58 9.52972ZM50 66C46.6863 66 44 68.6863 44 72C44 75.3137 46.6863 78 50 78C53.3137 78 56 75.3137 56 72C56 68.6863 53.3137 66 50 66Z"
        fill="currentcolor" />
</svg>