<svg width="100" height="100" viewBox="0 0 100 100" fill="none" xmlns="http://www.w3.org/2000/svg">
    <path fill-rule="evenodd" clip-rule="evenodd"
        d="M15 13C13.8723 13 12.7971 13.476 12.0389 14.3107C11.2808 15.1455 10.9102 16.2615 11.0185 17.3839L17.3771 83.3258C17.7969 87.6783 21.4542 91 25.827 91H58.173C62.5458 91 66.2031 87.6783 66.6229 83.3258L70.5114 43H77.465C86.3412 43 93.806 36.343 94.8182 27.5247L95.3999 22.4571C95.9782 17.4183 92.0381 13 86.9662 13H69.2727C69.2269 13 69.1812 13.0008 69.1358 13.0023C69.0906 13.0008 69.0453 13 69 13H15ZM72.6328 21L71.2828 35H77.465C82.2759 35 86.3218 31.3919 86.8704 26.6125L87.4521 21.5448C87.4854 21.2545 87.2584 21 86.9662 21H72.6328ZM25.3402 82.5579L19.4043 21H64.5957L58.6598 82.5579C58.6356 82.8086 58.4249 83 58.173 83H25.827C25.5751 83 25.3644 82.8086 25.3402 82.5579Z"
        fill="currentcolor" />
</svg>