<svg width="100" height="100" viewBox="0 0 100 100" fill="none" xmlns="http://www.w3.org/2000/svg">
    <path fill-rule="evenodd" clip-rule="evenodd"
        d="M18.0184 8.04788C15.5418 4.90684 15.5397 4.90844 15.5376 4.91011L15.533 4.91374L15.5226 4.92207L15.4964 4.94306C15.4766 4.95897 15.4523 4.9787 15.4237 5.00223C15.3665 5.04929 15.2919 5.11162 15.202 5.189C15.0223 5.34363 14.7802 5.55904 14.4913 5.83343C13.9148 6.38094 13.144 7.1708 12.3068 8.18894C10.644 10.2113 8.64744 13.2225 7.45383 17.1C6.2461 21.0233 5.88812 25.7554 7.43794 31.0657C8.97838 36.3438 12.3348 41.9622 18.1897 47.8171L29.2843 58.9117C30.8464 60.4738 33.379 60.4738 34.9411 58.9117L40.598 53.2548L84.4386 97.0954C86.0007 98.6575 88.5334 98.6575 90.0955 97.0954C91.6576 95.5333 91.6576 93.0007 90.0955 91.4386L46.2549 47.598L51.9117 41.9411C53.4738 40.379 53.4738 37.8464 51.9117 36.2843L20.8469 5.21946C19.4133 3.78586 17.1338 3.65154 15.5418 4.90684L18.0184 8.04788ZM37.7797 44.7594L43.4264 39.1127L18.0863 13.7726C16.9849 15.2041 15.8158 17.1275 15.0998 19.4536C14.3102 22.0184 14.0446 25.1479 15.1176 28.8244C16.1999 32.533 18.7128 37.0265 23.8465 42.1603L32.1127 50.4264L37.7595 44.7796C37.7628 44.7763 37.7662 44.7729 37.7696 44.7695C37.7729 44.7662 37.7763 44.7628 37.7797 44.7594Z"
        fill="currentcolor" />
</svg>