<svg width="100" height="100" viewBox="0 0 100 100" fill="none" xmlns="http://www.w3.org/2000/svg">
    <path fill-rule="evenodd" clip-rule="evenodd"
        d="M5 24C3.46238 24 2.06087 24.8814 1.39479 26.2672C0.728708 27.6531 0.915981 29.2981 1.87652 30.4988L13.0937 44.5202C13.6314 45.1924 14.1988 45.8345 14.7932 46.4453H5C3.46238 46.4453 2.06087 47.3266 1.39479 48.7125C0.728708 50.0984 0.915981 51.7434 1.87652 52.944L13.0937 66.9655C18.1122 73.2387 25.7103 76.8905 33.7439 76.8905H66.037C74.0706 76.8905 81.6687 73.2387 86.6872 66.9654L97.9044 52.944C98.8649 51.7434 99.0522 50.0984 98.3861 48.7125C97.72 47.3266 96.3185 46.4453 94.7809 46.4453H84.9877C85.5821 45.8345 86.1495 45.1924 86.6872 44.5202L97.9044 30.4988C98.8649 29.2981 99.0522 27.6531 98.3861 26.2672C97.72 24.8814 96.3185 24 94.7809 24H5ZM19.3406 39.5226L13.3225 32H86.4584L80.4403 39.5226C76.9399 43.8981 71.6403 46.4452 66.037 46.4452H33.7439C28.1406 46.4452 22.841 43.8981 19.3406 39.5226ZM19.3406 61.9679L13.3225 54.4453H86.4584L80.4403 61.9679C76.9399 66.3434 71.6403 68.8905 66.037 68.8905H33.7439C28.1406 68.8905 22.841 66.3434 19.3406 61.9679Z"
        fill="currentcolor" />
</svg>