<svg width="100" height="100" viewBox="0 0 100 100" fill="none" xmlns="http://www.w3.org/2000/svg">
    <path fill-rule="evenodd" clip-rule="evenodd"
        d="M28 16C27.379 16 26.7666 16.1446 26.2111 16.4223L25.2414 16.9072C19.4301 19.8128 19.0163 27.7223 24 31.3405V34H23.4671C13.8203 34 6 41.8203 6 51.4671V74C6 76.2091 7.79086 78 10 78H15V83C15 85.2091 16.7909 87 19 87C21.2091 87 23 85.2091 23 83V78H69V83C69 85.2091 70.7909 87 73 87C75.2091 87 77 85.2091 77 83V78H82C84.2091 78 86 76.2091 86 74V59.6569L94.8284 50.8284C95.9724 49.6844 96.3146 47.964 95.6955 46.4693C95.0764 44.9746 93.6178 44 92 44H84.328C81.5285 38.0886 75.5081 34 68.5329 34H68V31.3405C72.9837 27.7223 72.5699 19.8128 66.7586 16.9072L65.7889 16.4223C65.2334 16.1446 64.621 16 64 16H28ZM60 34V29C60 27.4849 60.856 26.0999 62.2111 25.4223L63.1809 24.9374C63.3078 24.874 63.3576 24.8104 63.3856 24.7629C63.4219 24.7014 63.4512 24.6105 63.4512 24.5C63.4512 24.3895 63.4219 24.2986 63.3856 24.2371C63.3576 24.1896 63.3078 24.126 63.1809 24.0626L63.0557 24H28.9443L28.8191 24.0626C28.6922 24.126 28.6424 24.1896 28.6144 24.2371C28.5781 24.2986 28.5488 24.3895 28.5488 24.5C28.5488 24.6105 28.5781 24.7014 28.6144 24.7629C28.6424 24.8104 28.6922 24.874 28.8191 24.9374L29.7889 25.4223C31.144 26.0999 32 27.4849 32 29V34H60ZM28 42H23.4671C18.2386 42 14 46.2386 14 51.4671V70H78V58.0039V57.9961V51.4671C78 46.2386 73.7614 42 68.5329 42H64H28ZM67 53C63.6863 53 61 55.6863 61 59C61 62.3137 63.6863 65 67 65C70.3137 65 73 62.3137 73 59C73 55.6863 70.3137 53 67 53Z"
        fill="currentcolor" />
</svg>