<svg width="100" height="100" viewBox="0 0 100 100" fill="none" xmlns="http://www.w3.org/2000/svg">
    <path fill-rule="evenodd" clip-rule="evenodd"
        d="M10.133 11.4625C12.0802 10.4348 14.4903 11.1743 15.5272 13.1135L15.5413 13.1388C15.5598 13.1717 15.5953 13.2337 15.6478 13.3208C15.7531 13.4953 15.9247 13.7673 16.1618 14.1043C16.6403 14.7842 17.3613 15.6942 18.3135 16.5962C20.2295 18.4114 22.8572 20 26.25 20H26.3059H26.3622H26.4189H26.4761H26.5337H26.5918H26.6502H26.7091H26.7684H26.8281H26.8882H26.9488H27.0098H27.0711H27.1329H27.1951H27.2577H27.3208H27.3842H27.448H27.5122H27.5768H27.6419H27.7073H27.7731H27.8393H27.9059H27.9728H28.0402H28.108H28.1761H28.2446H28.3135H28.3828H28.4525H28.5225H28.5929H28.6637H28.7348H28.8063H28.8782H28.9505H29.0231H29.0961H29.1694H29.2431H29.3171H29.3915H29.4663H29.5414H29.6169H29.6927H29.7688H29.8453H29.9222H29.9994H30.0769H30.1547H30.2329H30.3115H30.3903H30.4695H30.5491H30.6289H30.7091H30.7896H30.8704H30.9516H31.033H31.1148H31.1969H31.2793H31.3621H31.4451H31.5285H31.6121H31.6961H31.7803H31.8649H31.9498H32.0349H32.1204H32.2062H32.2922H32.3786H32.4652H32.5521H32.6393H32.7268H32.8146H32.9027H32.991H33.0796H33.1685H33.2577H33.3472H33.4369H33.5269H33.6171H33.7077H33.7985H33.8895H33.9808H34.0724H34.1642H34.2563H34.3487H34.4413H34.5341H34.6272H34.7206H34.8141H34.908H35.0021H35.0964H35.1909H35.2857H35.3808H35.4761H35.5716H35.6673H35.7633H35.8594H35.9559H36.0525H36.1494H36.2464H36.3438H36.4413H36.539H36.637H36.7351H36.8335H36.9321H37.0309H37.1299H37.2291H37.3285H37.4281H37.5279H37.6279H37.7281H37.8284H37.929H38.0298H38.1307H38.2319H38.3332H38.4347H38.5364H38.6383H38.7403H38.8426H38.945H39.0476H39.1503H39.2532H39.3563H39.4596H39.563H39.6666H39.7703H39.8742H39.9783H40H40.0825H40.1869H40.2914H40.3961H40.5009H40.6059H40.711H40.8162H40.9216H41.0272H41.1329H41.2387H41.3447H41.4508H41.557H41.6633H41.7698H41.8764H41.9832H42.09H42.197H42.3041H42.4114H42.5187H42.6262H42.7337H42.8414H42.9492H43.0571H43.1651H43.2732H43.3815H43.4898H43.5982H43.7067H43.8153H43.9241H44.0329H44.1418H44.2507H44.3598H44.469H44.5782H44.6876H44.797H44.9065H45.016H45.1257H45.2354H45.3452H45.4551H45.565H45.675H45.7851H45.8952H46.0054H46.1157H46.226H46.3363H46.4468H46.5573H46.6678H46.7784H46.889H46.9997H47.1104H47.2212H47.332H47.4429H47.5538H47.6647H47.7757H47.8867H47.9977H48.1088H48.2199H48.331H48.4422H48.5534H48.6646H48.7758H48.887H48.9983H49.1095H49.2208H49.3321H49.4434H49.5547H49.666H49.7773H49.8887H50H50.1113H50.2227H50.334H50.4453H50.5566H50.6679H50.7792H50.8905H51.0017H51.113H51.2242H51.3354H51.4466H51.5578H51.669H51.7801H51.8912H52.0023H52.1133H52.2243H52.3353H52.4462H52.5571H52.668H52.7788H52.8896H53.0003H53.111H53.2216H53.3322H53.4427H53.5532H53.6637H53.774H53.8843H53.9946H54.1048H54.2149H54.325H54.435H54.5449H54.6548H54.7646H54.8743H54.984H55.0935H55.203H55.3124H55.4218H55.531H55.6402H55.7493H55.8582H55.9671H56.0759H56.1847H56.2933H56.4018H56.5102H56.6185H56.7268H56.8349H56.9429H57.0508H57.1586H57.2663H57.3738H57.4813H57.5886H57.6959H57.803H57.91H58.0168H58.1236H58.2302H58.3367H58.443H58.5492H58.6553H58.7613H58.8671H58.9728H59.0784H59.1838H59.289H59.3941H59.4991H59.6039H59.7086H59.8131H59.9175H60H60.0217H60.1258H60.2297H60.3334H60.437H60.5404H60.6437H60.7468H60.8497H60.9524H61.055H61.1574H61.2597H61.3617H61.4636H61.5653H61.6668H61.7681H61.8693H61.9702H62.071H62.1716H62.2719H62.3721H62.4721H62.5719H62.6715H62.7709H62.8701H62.9691H63.0679H63.1665H63.2649H63.363H63.461H63.5587H63.6562H63.7536H63.8506H63.9475H64.0441H64.1406H64.2367H64.3327H64.4284H64.5239H64.6192H64.7143H64.8091H64.9036H64.9979H65.092H65.1859H65.2794H65.3728H65.4659H65.5587H65.6513H65.7437H65.8358H65.9276H66.0192H66.1105H66.2015H66.2923H66.3829H66.4731H66.5631H66.6528H66.7423H66.8315H66.9204H67.009H67.0973H67.1854H67.2732H67.3607H67.4479H67.5348H67.6214H67.7078H67.7938H67.8796H67.9651H68.0502H68.1351H68.2197H68.3039H68.3879H68.4715H68.5549H68.6379H68.7207H68.8031H68.8852H68.967H69.0484H69.1296H69.2104H69.2909H69.3711H69.4509H69.5305H69.6097H69.6885H69.7671H69.8453H69.9231H70.0006H70.0778H70.1547H70.2312H70.3073H70.3831H70.4586H70.5337H70.6085H70.6829H70.7569H70.8306H70.9039H70.9769H71.0495H71.1218H71.1937H71.2652H71.3363H71.4071H71.4775H71.5475H71.6172H71.6865H71.7554H71.8239H71.892H71.9598H72.0271H72.0941H72.1607H72.2269H72.2927H72.3581H72.4232H72.4878H72.552H72.6158H72.6792H72.7423H72.8049H72.8671H72.9289H72.9902H73.0512H73.1118H73.1719H73.2316H73.2909H73.3498H73.4082H73.4663H73.5239H73.5811H73.6378H73.6941H73.75C77.1428 20 79.7705 18.4114 81.6865 16.5962C82.6387 15.6942 83.3597 14.7842 83.8381 14.1043C84.0753 13.7673 84.2469 13.4953 84.3522 13.3208C84.4047 13.2337 84.4402 13.1717 84.4587 13.1388L84.4712 13.1166L84.4712 13.1164L84.4728 13.1135C85.5097 11.1743 87.9198 10.4348 89.867 11.4625C91.8208 12.4936 92.5687 14.9133 91.5375 16.867L88 15C91.5375 16.867 91.5368 16.8685 91.536 16.87L91.5343 16.8732L91.5306 16.8802L91.5218 16.8966L91.4986 16.9395C91.4807 16.9724 91.4578 17.0138 91.4299 17.0634C91.3742 17.1623 91.2984 17.2937 91.2025 17.4527C91.0109 17.7703 90.7372 18.2014 90.3806 18.7082C89.6716 19.7158 88.6113 21.0559 87.1885 22.4038C84.3545 25.0886 79.8572 28 73.75 28H73.6941H73.6378H73.5811H73.5239H73.4663H73.4082H73.3498H73.2909H73.2316H73.1719H73.1118H73.0512H72.9902H72.9289H72.8671H72.8049H72.7423H72.6792H72.6158H72.552H72.4878H72.4232H72.3581H72.2927H72.2269H72.1607H72.0941H72.0271H71.9598H71.892H71.8239H71.7554H71.6865H71.6172H71.5475H71.4775H71.4071H71.3363H71.2652H71.1937H71.1218H71.0495H70.9769H70.9039H70.8306H70.7569H70.6829H70.6085H70.5337H70.4586H70.3831H70.3073H70.2312H70.1547H70.0778H70.0006H69.9231H69.8453H69.7671H69.6885H69.6097H69.5305H69.4509H69.3711H69.2909H69.2104H69.1296H69.0484H68.967H68.8852H68.8031H68.7207H68.6379H68.5549H68.4715H68.3879H68.3039H68.2197H68.1351H68.0502H67.9651H67.8796H67.7938H67.7078H67.6214H67.5348H67.4479H67.3607H67.2732H67.1854H67.0973H67.009H66.9204H66.8315H66.7423H66.6528H66.5631H66.4731H66.3829H66.2923H66.2015H66.1105H66.0192H65.9276H65.8358H65.7437H65.6513H65.5587H65.4659H65.3728H65.2794H65.1859H65.092H64.9979H64.9036H64.8091H64.7143H64.6192H64.5239H64.4284H64.3327H64.2367H64.1406H64.0441H64V34.1973C74.7281 35.6411 83 44.8326 83 55.9562V84C83 86.2092 81.2091 88 79 88H21C18.7909 88 17 86.2092 17 84V55.9562C17 44.8326 25.2719 35.6411 36 34.1973V28H35.9559H35.8594H35.7633H35.6673H35.5716H35.4761H35.3808H35.2857H35.1909H35.0964H35.0021H34.908H34.8141H34.7206H34.6272H34.5341H34.4413H34.3487H34.2563H34.1642H34.0724H33.9808H33.8895H33.7985H33.7077H33.6171H33.5269H33.4369H33.3472H33.2577H33.1685H33.0796H32.991H32.9027H32.8146H32.7268H32.6393H32.5521H32.4652H32.3786H32.2922H32.2062H32.1204H32.0349H31.9498H31.8649H31.7803H31.6961H31.6121H31.5285H31.4451H31.3621H31.2793H31.1969H31.1148H31.033H30.9516H30.8704H30.7896H30.7091H30.6289H30.5491H30.4695H30.3903H30.3115H30.2329H30.1547H30.0769H29.9994H29.9222H29.8453H29.7688H29.6927H29.6169H29.5414H29.4663H29.3915H29.3171H29.2431H29.1694H29.0961H29.0231H28.9505H28.8782H28.8063H28.7348H28.6637H28.5929H28.5225H28.4525H28.3828H28.3135H28.2446H28.1761H28.108H28.0402H27.9728H27.9059H27.8393H27.7731H27.7073H27.6419H27.5768H27.5122H27.448H27.3842H27.3208H27.2577H27.1951H27.1329H27.0711H27.0098H26.9488H26.8882H26.8281H26.7684H26.7091H26.6502H26.5918H26.5337H26.4761H26.4189H26.3622H26.3059H26.25C20.1428 28 15.6455 25.0886 12.8115 22.4038C11.3887 21.0559 10.3284 19.7158 9.6194 18.7082C9.26276 18.2014 8.98906 17.7703 8.79749 17.4527C8.70155 17.2937 8.62577 17.1623 8.57005 17.0634C8.54218 17.0138 8.51929 16.9724 8.50137 16.9395L8.47821 16.8966L8.46941 16.8802L8.4657 16.8732L8.46402 16.87C8.46323 16.8685 8.46246 16.867 12 15L8.46246 16.867C7.43133 14.9133 8.17924 12.4936 10.133 11.4625ZM44 28V34H56V28H55.9671H55.8582H55.7493H55.6402H55.531H55.4218H55.3124H55.203H55.0935H54.984H54.8743H54.7646H54.6548H54.5449H54.435H54.325H54.2149H54.1048H53.9946H53.8843H53.774H53.6637H53.5532H53.4427H53.3322H53.2216H53.111H53.0003H52.8896H52.7788H52.668H52.5571H52.4462H52.3353H52.2243H52.1133H52.0023H51.8912H51.7801H51.669H51.5578H51.4466H51.3354H51.2242H51.113H51.0017H50.8905H50.7792H50.6679H50.5566H50.4453H50.334H50.2227H50.1113H50H49.8887H49.7773H49.666H49.5547H49.4434H49.3321H49.2208H49.1095H48.9983H48.887H48.7758H48.6646H48.5534H48.4422H48.331H48.2199H48.1088H47.9977H47.8867H47.7757H47.6647H47.5538H47.4429H47.332H47.2212H47.1104H46.9997H46.889H46.7784H46.6678H46.5573H46.4468H46.3363H46.226H46.1157H46.0054H45.8952H45.7851H45.675H45.565H45.4551H45.3452H45.2354H45.1257H45.016H44.9065H44.797H44.6876H44.5782H44.469H44.3598H44.2507H44.1418H44.0329H44ZM38.9562 42H40H60H61.0438C68.7516 42 75 48.2484 75 55.9562V80H25V55.9562C25 48.2484 31.2484 42 38.9562 42ZM49.5 47C41.4919 47 35 53.4919 35 61.5C35 69.5081 41.4919 76 49.5 76H50.5C58.5081 76 65 69.5081 65 61.5C65 53.4919 58.5081 47 50.5 47H49.5ZM50.5 55C54.0899 55 57 57.9102 57 61.5C57 65.0899 54.0899 68 50.5 68H49.5C45.9101 68 43 65.0899 43 61.5C43 57.9102 45.9101 55 49.5 55H50.5Z"
        fill="currentcolor" />
</svg>