<svg width="100" height="100" viewBox="0 0 100 100" fill="none" xmlns="http://www.w3.org/2000/svg">
    <path fill-rule="evenodd" clip-rule="evenodd"
        d="M59.6289 24.8C59.4292 24.5681 59.2228 24.3353 59.0097 24.1029C55.9151 20.727 51.9756 18 47.4666 18C42.9577 18 39.0182 20.727 35.9236 24.1029C35.7105 24.3353 35.5041 24.5681 35.3044 24.8H59.6289ZM25.4181 24.8H8C6.38215 24.8 4.92361 25.7746 4.30448 27.2693C3.68536 28.764 4.02758 30.4845 5.17157 31.6285L18.3361 44.793C17.1924 50.1361 16.3333 56.4414 16.3333 63.3334C16.3333 73.356 16.959 79.7515 17.6211 83.7243C17.9527 85.7141 18.2965 87.1143 18.5833 88.0703C18.7269 88.549 18.8572 88.9196 18.966 89.1993C19.0204 89.3393 19.0696 89.4569 19.1126 89.5544C19.1341 89.6031 19.1541 89.6468 19.1724 89.6858C19.1816 89.7053 19.1903 89.7236 19.1986 89.7408L19.2108 89.7657L19.2166 89.7775L19.2195 89.7832C19.2209 89.7861 19.2223 89.7889 22.8 88L19.2223 89.7889C19.8998 91.144 21.2849 92 22.8 92H72.1333C73.6484 92 75.0334 91.144 75.711 89.7889L72.1333 88C75.711 89.7889 75.7124 89.7861 75.7138 89.7832L75.7167 89.7775L75.7225 89.7657L75.7347 89.7408C75.743 89.7236 75.7517 89.7053 75.7609 89.6858C75.7792 89.6468 75.7992 89.6031 75.8207 89.5544C75.8637 89.4569 75.9129 89.3393 75.9673 89.1993C76.0761 88.9196 76.2064 88.549 76.35 88.0703C76.6368 87.1143 76.9806 85.7141 77.3122 83.7243C77.7642 81.0122 78.1992 77.1708 78.4298 71.8172C83.4982 70.6324 88.0931 67.2203 91.2895 62.9584C95.3355 57.5638 97.6351 50.1817 95.7472 42.6299C93.802 34.8491 88.0858 30.3646 82.44 27.9074C77.9246 25.9421 73.1645 25.1255 69.5666 24.8832C69.4587 24.7082 69.3438 24.5248 69.2218 24.3339C68.2469 22.808 66.7987 20.7608 64.9069 18.6971C61.2182 14.673 55.291 10 47.4666 10C39.6423 10 33.7151 14.673 30.0264 18.6971C28.1346 20.7608 26.6864 22.808 25.7115 24.3339C25.6087 24.4948 25.5109 24.6504 25.4181 24.8ZM84.8895 58.1584C83.0618 60.5953 80.8266 62.3566 78.6 63.3444V63.3334C78.6 52.9797 76.6611 43.95 74.7313 37.5173C74.282 36.0197 73.832 34.6589 73.4051 33.4507C75.31 33.832 77.3278 34.4073 79.2474 35.2427C83.5197 37.1021 86.8479 40.0176 87.9861 44.5702C89.1814 49.3518 87.7811 54.303 84.8895 58.1584ZM26.413 45.3191C26.6559 44.8085 26.7845 44.2571 26.7987 43.7033C27.1437 42.3173 27.504 41.0182 27.8646 39.8161C28.7479 36.872 29.6279 34.5277 30.2793 32.9354L30.3348 32.8H64.5985L64.654 32.9354C65.3054 34.5277 66.1854 36.872 67.0687 39.8161C68.8389 45.7168 70.6 53.9538 70.6 63.3334C70.6 73.0441 69.9923 78.9818 69.4211 82.4091C69.3194 83.0188 69.2194 83.5466 69.1247 84H46.5333V80H52.8667C55.0758 80 56.8667 78.2091 56.8667 76C56.8667 73.7908 55.0758 72 52.8667 72H46.5333V66H52.8667C55.0758 66 56.8667 64.2091 56.8667 62C56.8667 59.7909 55.0758 58 52.8667 58H46.5333V52.0667H52.8667C55.0758 52.0667 56.8667 50.2758 56.8667 48.0667C56.8667 45.8575 55.0758 44.0667 52.8667 44.0667H46.5333V43.6C46.5333 41.3908 44.7425 39.6 42.5333 39.6C40.3242 39.6 38.5333 41.3908 38.5333 43.6V84H25.8086C25.7139 83.5466 25.6138 83.0188 25.5122 82.4091C24.941 78.9818 24.3333 73.0441 24.3333 63.3334C24.3333 56.5902 25.2435 50.4376 26.413 45.3191ZM12.9333 31.2667H22.8L20.3333 37.4333L12.9333 31.2667Z"
        fill="currentcolor" />
</svg>